<svg width="98" height="21" viewBox="0 0 98 21" fill="none" xmlns="http://www.w3.org/2000/svg">
    <rect width="98" height="21" rx="10.5" fill="url(#paint0_linear_646_8421)"/>
    <path d="M24.94 14.1C24.44 14.1 23.98 14.01 23.56 13.83C23.1467 13.65 22.7833 13.4 22.47 13.08C22.1633 12.76 21.9267 12.3833 21.76 11.95C21.5933 11.51 21.51 11.0267 21.51 10.5C21.51 9.98 21.5933 9.50333 21.76 9.07C21.9267 8.63 22.1633 8.25 22.47 7.93C22.7833 7.60333 23.1467 7.35 23.56 7.17C23.98 6.99 24.44 6.9 24.94 6.9C25.4333 6.9 25.8867 6.99 26.3 7.17C26.72 7.35 27.0833 7.60333 27.39 7.93C27.7033 8.25 27.9433 8.63 28.11 9.07C28.2833 9.51 28.37 9.98667 28.37 10.5C28.37 11.02 28.2833 11.5 28.11 11.94C27.9433 12.3733 27.7033 12.7533 27.39 13.08C27.0833 13.4 26.72 13.65 26.3 13.83C25.8867 14.01 25.4333 14.1 24.94 14.1ZM24.94 13.33C25.32 13.33 25.67 13.26 25.99 13.12C26.31 12.98 26.5867 12.7833 26.82 12.53C27.0533 12.2767 27.2333 11.98 27.36 11.64C27.4933 11.2933 27.56 10.9133 27.56 10.5C27.56 10.0933 27.4933 9.72 27.36 9.38C27.2333 9.03333 27.0533 8.73333 26.82 8.48C26.5867 8.22 26.31 8.02 25.99 7.88C25.67 7.74 25.32 7.67 24.94 7.67C24.56 7.67 24.21 7.74 23.89 7.88C23.57 8.02 23.29 8.21667 23.05 8.47C22.8167 8.72333 22.6333 9.02333 22.5 9.37C22.3733 9.71667 22.31 10.0933 22.31 10.5C22.31 11.0467 22.4233 11.5333 22.65 11.96C22.8767 12.3867 23.1867 12.7233 23.58 12.97C23.9733 13.21 24.4267 13.33 24.94 13.33ZM30.2011 14V8.02C30.2011 7.72 30.2578 7.46333 30.3711 7.25C30.4911 7.03 30.6544 6.86333 30.8611 6.75C31.0744 6.63 31.3144 6.57 31.5811 6.57C31.8078 6.57 32.0078 6.61 32.1811 6.69C32.3544 6.77 32.4944 6.87667 32.6011 7.01L32.3211 7.58C32.2278 7.48 32.1244 7.40667 32.0111 7.36C31.8978 7.31333 31.7811 7.29 31.6611 7.29C31.5144 7.29 31.3878 7.31333 31.2811 7.36C31.1744 7.40667 31.0944 7.48667 31.0411 7.6C30.9878 7.70667 30.9611 7.84667 30.9611 8.02V14H30.5911C30.5244 14 30.4578 14 30.3911 14C30.3244 14 30.2611 14 30.2011 14ZM29.2711 9.51V8.81H32.3011V9.51H29.2711ZM33.9511 14V8.02C33.9511 7.72 34.0078 7.46333 34.1211 7.25C34.2411 7.03 34.4044 6.86333 34.6111 6.75C34.8244 6.63 35.0644 6.57 35.3311 6.57C35.5578 6.57 35.7578 6.61 35.9311 6.69C36.1044 6.77 36.2444 6.87667 36.3511 7.01L36.0711 7.58C35.9778 7.48 35.8744 7.40667 35.7611 7.36C35.6478 7.31333 35.5311 7.29 35.4111 7.29C35.2644 7.29 35.1378 7.31333 35.0311 7.36C34.9244 7.40667 34.8444 7.48667 34.7911 7.6C34.7378 7.70667 34.7111 7.84667 34.7111 8.02V14H34.3411C34.2744 14 34.2078 14 34.1411 14C34.0744 14 34.0111 14 33.9511 14ZM33.0211 9.51V8.81H36.0511V9.51H33.0211ZM37.2511 14V8.75H38.0111V14H37.2511ZM37.6211 7.52C37.4478 7.52 37.3111 7.47333 37.2111 7.38C37.1178 7.28 37.0711 7.15 37.0711 6.99C37.0711 6.83 37.1178 6.70333 37.2111 6.61C37.3111 6.51 37.4478 6.46 37.6211 6.46C37.7944 6.46 37.9278 6.50667 38.0211 6.6C38.1211 6.69333 38.1711 6.82333 38.1711 6.99C38.1711 7.14333 38.1244 7.27 38.0311 7.37C37.9378 7.47 37.8011 7.52 37.6211 7.52ZM41.8709 14.1C41.3709 14.1 40.9242 13.98 40.5309 13.74C40.1442 13.5 39.8375 13.1767 39.6109 12.77C39.3909 12.3567 39.2809 11.89 39.2809 11.37C39.2809 10.8567 39.3909 10.3967 39.6109 9.99C39.8375 9.57667 40.1442 9.25333 40.5309 9.02C40.9242 8.78 41.3709 8.66 41.8709 8.66C42.3242 8.66 42.7342 8.75 43.1009 8.93C43.4675 9.10333 43.7575 9.34667 43.9709 9.66L43.5309 10.18C43.4109 10.02 43.2642 9.88 43.0909 9.76C42.9175 9.63333 42.7309 9.53667 42.5309 9.47C42.3309 9.39667 42.1309 9.36 41.9309 9.36C41.5642 9.36 41.2342 9.44667 40.9409 9.62C40.6542 9.79333 40.4275 10.0333 40.2609 10.34C40.0942 10.64 40.0109 10.9833 40.0109 11.37C40.0109 11.7567 40.0942 12.1033 40.2609 12.41C40.4342 12.7167 40.6675 12.96 40.9609 13.14C41.2542 13.32 41.5809 13.41 41.9409 13.41C42.1409 13.41 42.3342 13.38 42.5209 13.32C42.7142 13.2533 42.8942 13.16 43.0609 13.04C43.2275 12.92 43.3842 12.7733 43.5309 12.6L43.9609 13.13C43.7409 13.4167 43.4409 13.65 43.0609 13.83C42.6875 14.01 42.2909 14.1 41.8709 14.1ZM45.0831 14V8.75H45.8431V14H45.0831ZM45.4531 7.52C45.2798 7.52 45.1431 7.47333 45.0431 7.38C44.9498 7.28 44.9031 7.15 44.9031 6.99C44.9031 6.83 44.9498 6.70333 45.0431 6.61C45.1431 6.51 45.2798 6.46 45.4531 6.46C45.6265 6.46 45.7598 6.50667 45.8531 6.6C45.9531 6.69333 46.0031 6.82333 46.0031 6.99C46.0031 7.14333 45.9565 7.27 45.8631 7.37C45.7698 7.47 45.6331 7.52 45.4531 7.52ZM50.7331 14V10.5C50.7331 10.16 50.6131 9.88667 50.3731 9.68C50.1331 9.47333 49.8165 9.37 49.4231 9.37C49.0965 9.37 48.7998 9.43667 48.5331 9.57C48.2665 9.70333 48.0298 9.90333 47.8231 10.17L47.3231 9.67C47.6231 9.33 47.9498 9.07667 48.3031 8.91C48.6631 8.74333 49.0531 8.66 49.4731 8.66C49.8731 8.66 50.2198 8.72667 50.5131 8.86C50.8065 8.99333 51.0298 9.18667 51.1831 9.44C51.3431 9.69333 51.4231 10 51.4231 10.36V14H50.7331ZM48.9331 14.1C48.5931 14.1 48.2898 14.0333 48.0231 13.9C47.7565 13.7667 47.5431 13.5833 47.3831 13.35C47.2298 13.11 47.1531 12.83 47.1531 12.51C47.1531 12.25 47.1998 12.02 47.2931 11.82C47.3931 11.62 47.5365 11.4533 47.7231 11.32C47.9098 11.1867 48.1465 11.0867 48.4331 11.02C48.7198 10.9467 49.0465 10.91 49.4131 10.91H51.0731L51.0131 11.54H49.3131C49.0798 11.54 48.8731 11.56 48.6931 11.6C48.5198 11.64 48.3698 11.7033 48.2431 11.79C48.1231 11.87 48.0298 11.97 47.9631 12.09C47.9031 12.2033 47.8731 12.34 47.8731 12.5C47.8731 12.6867 47.9198 12.8533 48.0131 13C48.1131 13.14 48.2431 13.25 48.4031 13.33C48.5698 13.4033 48.7565 13.44 48.9631 13.44C49.2365 13.44 49.4931 13.3933 49.7331 13.3C49.9731 13.2 50.1865 13.0667 50.3731 12.9C50.5665 12.7267 50.7198 12.5333 50.8331 12.32L51.0431 12.8C50.8965 13.0533 50.7131 13.28 50.4931 13.48C50.2731 13.6733 50.0298 13.8267 49.7631 13.94C49.5031 14.0467 49.2265 14.1 48.9331 14.1ZM52.8547 14V6.6H53.6147V14H52.8547ZM61.2507 14V10.5C61.2507 10.16 61.1307 9.88667 60.8907 9.68C60.6507 9.47333 60.334 9.37 59.9407 9.37C59.614 9.37 59.3174 9.43667 59.0507 9.57C58.784 9.70333 58.5474 9.90333 58.3407 10.17L57.8407 9.67C58.1407 9.33 58.4674 9.07667 58.8207 8.91C59.1807 8.74333 59.5707 8.66 59.9907 8.66C60.3907 8.66 60.7374 8.72667 61.0307 8.86C61.324 8.99333 61.5474 9.18667 61.7007 9.44C61.8607 9.69333 61.9407 10 61.9407 10.36V14H61.2507ZM59.4507 14.1C59.1107 14.1 58.8074 14.0333 58.5407 13.9C58.274 13.7667 58.0607 13.5833 57.9007 13.35C57.7474 13.11 57.6707 12.83 57.6707 12.51C57.6707 12.25 57.7174 12.02 57.8107 11.82C57.9107 11.62 58.054 11.4533 58.2407 11.32C58.4274 11.1867 58.664 11.0867 58.9507 11.02C59.2374 10.9467 59.564 10.91 59.9307 10.91H61.5907L61.5307 11.54H59.8307C59.5974 11.54 59.3907 11.56 59.2107 11.6C59.0374 11.64 58.8874 11.7033 58.7607 11.79C58.6407 11.87 58.5474 11.97 58.4807 12.09C58.4207 12.2033 58.3907 12.34 58.3907 12.5C58.3907 12.6867 58.4374 12.8533 58.5307 13C58.6307 13.14 58.7607 13.25 58.9207 13.33C59.0874 13.4033 59.274 13.44 59.4807 13.44C59.754 13.44 60.0107 13.3933 60.2507 13.3C60.4907 13.2 60.704 13.0667 60.8907 12.9C61.084 12.7267 61.2374 12.5333 61.3507 12.32L61.5607 12.8C61.414 13.0533 61.2307 13.28 61.0107 13.48C60.7907 13.6733 60.5474 13.8267 60.2807 13.94C60.0207 14.0467 59.744 14.1 59.4507 14.1ZM63.2823 14V8.75H64.0423V9.87L63.8923 9.96C63.9656 9.72667 64.0989 9.51333 64.2923 9.32C64.4856 9.12667 64.7189 8.97 64.9923 8.85C65.2656 8.72333 65.5489 8.66 65.8423 8.66C66.2356 8.66 66.5656 8.73667 66.8323 8.89C67.1056 9.03667 67.3123 9.26667 67.4523 9.58C67.5923 9.89333 67.6623 10.29 67.6623 10.77V14H66.9023V10.82C66.9023 10.48 66.8523 10.2 66.7523 9.98C66.6589 9.76 66.5156 9.6 66.3223 9.5C66.1356 9.4 65.8989 9.35333 65.6123 9.36C65.3856 9.36 65.1756 9.39667 64.9823 9.47C64.7956 9.54333 64.6323 9.64333 64.4923 9.77C64.3523 9.89 64.2423 10.0267 64.1623 10.18C64.0823 10.3267 64.0423 10.4733 64.0423 10.62V14H63.6723C63.6123 14 63.5489 14 63.4823 14C63.4156 14 63.3489 14 63.2823 14ZM70.8138 14.1C70.3738 14.1 69.9771 14.0233 69.6238 13.87C69.2704 13.71 68.9838 13.4833 68.7638 13.19L69.2838 12.74C69.4771 12.98 69.7071 13.16 69.9738 13.28C70.2404 13.4 70.5438 13.46 70.8838 13.46C71.0571 13.46 71.2104 13.44 71.3438 13.4C71.4771 13.3533 71.5904 13.2933 71.6838 13.22C71.7771 13.14 71.8438 13.05 71.8838 12.95C71.9304 12.8433 71.9538 12.73 71.9538 12.61C71.9538 12.39 71.8671 12.2133 71.6938 12.08C71.6004 12.0133 71.4704 11.95 71.3038 11.89C71.1438 11.8233 70.9471 11.76 70.7138 11.7C70.3538 11.6133 70.0504 11.5133 69.8038 11.4C69.5638 11.28 69.3738 11.1433 69.2338 10.99C69.1271 10.87 69.0471 10.74 68.9938 10.6C68.9404 10.46 68.9138 10.3 68.9138 10.12C68.9138 9.83333 68.9938 9.58 69.1538 9.36C69.3138 9.14 69.5304 8.97 69.8038 8.85C70.0838 8.72333 70.4004 8.66 70.7538 8.66C70.9938 8.66 71.2304 8.69333 71.4638 8.76C71.7038 8.82667 71.9238 8.92333 72.1238 9.05C72.3238 9.17667 72.4971 9.33 72.6438 9.51L72.1938 9.99C72.0604 9.85 71.9138 9.73 71.7538 9.63C71.6004 9.52333 71.4404 9.44333 71.2738 9.39C71.1071 9.33 70.9438 9.3 70.7838 9.3C70.6104 9.3 70.4538 9.32 70.3138 9.36C70.1738 9.39333 70.0538 9.44667 69.9538 9.52C69.8604 9.58667 69.7904 9.67 69.7438 9.77C69.6971 9.86333 69.6738 9.97333 69.6738 10.1C69.6804 10.1933 69.7038 10.2867 69.7438 10.38C69.7838 10.4667 69.8404 10.54 69.9138 10.6C70.0071 10.6733 70.1404 10.7467 70.3138 10.82C70.4871 10.8867 70.6971 10.9467 70.9438 11C71.2638 11.08 71.5338 11.17 71.7538 11.27C71.9738 11.3633 72.1504 11.4767 72.2838 11.61C72.4238 11.73 72.5238 11.87 72.5838 12.03C72.6438 12.19 72.6738 12.3733 72.6738 12.58C72.6738 12.88 72.5938 13.1467 72.4338 13.38C72.2738 13.6067 72.0538 13.7833 71.7738 13.91C71.4938 14.0367 71.1738 14.1 70.8138 14.1ZM75.1389 14L73.3189 8.75L74.0989 8.74L75.5389 13.03L75.3389 13.02L76.8089 9.57H77.2689L78.7489 13.03L78.5189 13.04L79.9689 8.75H80.7389L78.9389 14H78.4289L76.8989 10.36L77.1089 10.38L75.6489 14H75.1389ZM83.8949 14.1C83.3683 14.1 82.9016 13.9867 82.4949 13.76C82.0883 13.5267 81.7683 13.2067 81.5349 12.8C81.3083 12.3933 81.1949 11.93 81.1949 11.41C81.1949 11.0033 81.2583 10.6333 81.3849 10.3C81.5183 9.96 81.6983 9.67 81.9249 9.43C82.1583 9.18333 82.4349 8.99333 82.7549 8.86C83.0749 8.72667 83.4249 8.66 83.8049 8.66C84.1383 8.66 84.4483 8.72 84.7349 8.84C85.0283 8.96 85.2816 9.13333 85.4949 9.36C85.7083 9.58 85.8716 9.84333 85.9849 10.15C86.0983 10.45 86.1483 10.7833 86.1349 11.15L86.1249 11.53H81.7449L81.5849 10.91H85.4949L85.3549 11.08L85.3649 10.83C85.3516 10.5433 85.2716 10.29 85.1249 10.07C84.9783 9.85 84.7883 9.67667 84.5549 9.55C84.3283 9.42333 84.0783 9.36 83.8049 9.36C83.4183 9.36 83.0849 9.44333 82.8049 9.61C82.5249 9.77 82.3116 10 82.1649 10.3C82.0249 10.5933 81.9516 10.9467 81.9449 11.36C81.9516 11.7733 82.0383 12.1333 82.2049 12.44C82.3716 12.74 82.6049 12.9767 82.9049 13.15C83.2116 13.3167 83.5649 13.4 83.9649 13.4C84.2516 13.4 84.5183 13.3533 84.7649 13.26C85.0116 13.16 85.2616 12.9967 85.5149 12.77L85.8949 13.31C85.7349 13.47 85.5449 13.61 85.3249 13.73C85.1116 13.8433 84.8816 13.9333 84.6349 14C84.3883 14.0667 84.1416 14.1 83.8949 14.1ZM87.2276 14V8.75H87.9876L87.9976 10.27L87.9076 10.01C87.9742 9.77 88.0876 9.54667 88.2476 9.34C88.4142 9.13333 88.6142 8.97 88.8476 8.85C89.0809 8.72333 89.3376 8.66 89.6176 8.66C89.7309 8.66 89.8376 8.67 89.9376 8.69C90.0376 8.70333 90.1209 8.72333 90.1876 8.75L89.9876 9.58C89.8942 9.54667 89.7976 9.52 89.6976 9.5C89.6042 9.47333 89.5142 9.46 89.4276 9.46C89.2209 9.46 89.0276 9.50333 88.8476 9.59C88.6742 9.67 88.5242 9.78 88.3976 9.92C88.2709 10.06 88.1709 10.22 88.0976 10.4C88.0309 10.5733 87.9976 10.7533 87.9976 10.94V14H87.2276Z" fill="#F6F6F6"/>
    <path fill-rule="evenodd" clip-rule="evenodd" d="M10.8829 5.01355C10.5469 4.99012 10.2105 4.99695 9.87751 5.03504C9.60554 5.06629 9.33601 5.11804 9.07136 5.18933C8.90241 5.23426 8.73542 5.28699 8.57136 5.34851C7.83356 5.62488 7.16364 6.05652 6.60749 6.61414C6.05085 7.17078 5.62067 7.84168 5.34577 8.57996C5.21687 8.92566 5.1236 9.28211 5.06647 9.64441C5.02058 9.9364 4.9986 10.2323 5.00007 10.5292C5.00056 10.6503 5.00495 10.7714 5.01374 10.8925C5.21589 13.8036 7.78767 15.9999 10.9962 15.9999H13.7076C14.0289 15.9989 14.3428 15.9315 14.6309 15.8046C14.8883 15.6913 15.1246 15.5302 15.3272 15.328C15.4302 15.2245 15.5225 15.1122 15.6036 14.993C15.6636 14.9052 15.7169 14.8143 15.7633 14.7196C15.9166 14.4081 15.9986 14.0624 15.9991 13.7079V10.6561C16.0162 9.24304 15.4981 7.87586 14.5494 6.82996C13.6002 5.78308 12.2906 5.13367 10.8829 5.01355ZM12.8531 9.8534C13.0484 9.65808 13.0484 9.34168 12.8531 9.14637C12.7388 9.03211 12.5831 8.98426 12.4346 9.00379C12.3292 9.01746 12.2271 9.06531 12.1461 9.14637L9.99958 11.2928L8.8531 10.1464C8.65778 9.95105 8.34138 9.95105 8.14606 10.1464C7.95075 10.3417 7.95075 10.6581 8.14606 10.8534L9.46931 12.1766C9.76228 12.4696 10.2369 12.4696 10.5299 12.1766L12.8531 9.8534Z" fill="#F6F6F6"/>
    <defs>
        <linearGradient id="paint0_linear_646_8421" x1="49" y1="0" x2="49" y2="21" gradientUnits="userSpaceOnUse">
            <stop stop-color="#F910E9"/>
            <stop offset="1" stop-color="#CA18EC"/>
        </linearGradient>
    </defs>
</svg>
