<svg width="18" height="24" viewBox="0 0 18 24" fill="none" xmlns="http://www.w3.org/2000/svg">
    <path d="M9.00002 12C10.1867 12 11.3468 11.6481 12.3334 10.9889C13.3201 10.3296 14.0892 9.39249 14.5433 8.29613C14.9974 7.19977 15.1163 5.99336 14.8847 4.82948C14.6532 3.66559 14.0818 2.59648 13.2427 1.75737C12.4036 0.91825 11.3345 0.346803 10.1706 0.115291C9.00667 -0.116221 7.80027 0.00259972 6.70391 0.456727C5.60755 0.910854 4.67048 1.67989 4.01119 2.66659C3.35189 3.65329 3 4.81333 3 6.00002C3.00159 7.59084 3.63424 9.11604 4.75912 10.2409C5.884 11.3658 7.4092 11.9985 9.00002 12ZM9.00002 2.00001C9.79115 2.00001 10.5645 2.23461 11.2223 2.67413C11.8801 3.11366 12.3928 3.73838 12.6955 4.46928C12.9983 5.20019 13.0775 6.00446 12.9232 6.78038C12.7688 7.55631 12.3879 8.26904 11.8285 8.82846C11.269 9.38787 10.5563 9.76883 9.78038 9.92317C9.00446 10.0775 8.20019 9.9983 7.46928 9.69555C6.73837 9.3928 6.11366 8.88011 5.67413 8.22231C5.2346 7.56451 5.00001 6.79115 5.00001 6.00002C5.00001 4.93915 5.42143 3.92173 6.17158 3.17159C6.92173 2.42144 7.93915 2.00001 9.00002 2.00001Z" fill="#F6F6F6"/>
    <path d="M9.00003 14C6.61388 14.0026 4.32623 14.9517 2.63897 16.639C0.951711 18.3262 0.00264686 20.6139 0 23C0 23.2652 0.105357 23.5196 0.292894 23.7071C0.480431 23.8947 0.734786 24 1 24C1.26522 24 1.51957 23.8947 1.70711 23.7071C1.89465 23.5196 2.00001 23.2652 2.00001 23C2.00001 21.1435 2.73751 19.363 4.05026 18.0503C5.36302 16.7375 7.14351 16 9.00003 16C10.8565 16 12.637 16.7375 13.9498 18.0503C15.2625 19.363 16 21.1435 16 23C16 23.2652 16.1054 23.5196 16.2929 23.7071C16.4805 23.8947 16.7348 24 17.0001 24C17.2653 24 17.5196 23.8947 17.7072 23.7071C17.8947 23.5196 18.0001 23.2652 18.0001 23C17.9974 20.6139 17.0483 18.3262 15.3611 16.639C13.6738 14.9517 11.3862 14.0026 9.00003 14Z" fill="#F6F6F6"/>
</svg>
