<svg width="168" height="120" viewBox="0 0 168 120" fill="none" xmlns="http://www.w3.org/2000/svg">
    <path d="M92.1626 116.327L2.81082 80.5786C-1.01928 79.043 -0.914887 74.6586 3.00004 72.4696L64.5231 38.0735C68.0401 36.1067 72.4313 35.7343 75.8699 37.113L165.222 72.8617C169.052 74.3972 168.947 78.7817 165.032 80.9706L103.509 115.367C99.9924 117.333 95.6012 117.706 92.1626 116.327Z" fill="#16FAE0"/>
    <path d="M168.031 76.7188C167.973 78.2674 166.974 79.8878 165.036 80.966L103.513 115.362C99.9964 117.329 95.6052 117.701 92.1666 116.323L2.81485 80.5805C0.922633 79.8225 -0.0039005 78.3719 0.00262439 76.8298V87.755C-0.0560996 89.3363 0.870434 90.8392 2.80832 91.6168L92.1601 127.365C95.5987 128.744 99.9899 128.372 103.507 126.405L165.03 92.0088C166.968 90.9241 167.966 89.3036 168.025 87.7616V76.7253L168.031 76.7188Z" fill="url(#paint0_linear_58_14773)"/>
    <path d="M92.1626 91.9366L2.81082 56.1879C-1.01928 54.6524 -0.914887 50.268 3.00004 48.079L64.5231 13.6829C68.0401 11.7161 72.4313 11.3437 75.8699 12.7224L165.222 48.471C169.052 50.0066 168.947 54.391 165.032 56.58L103.509 90.9761C99.9924 92.9429 95.6012 93.3153 92.1626 91.9366Z" fill="#FACC16"/>
    <path d="M168.031 52.3281C167.973 53.8767 166.974 55.4972 165.036 56.5754L103.513 90.9714C99.9964 92.9382 95.6052 93.3107 92.1666 91.932L2.81485 56.1898C0.922633 55.4319 -0.0039005 53.9813 0.00262439 52.4392V63.3644C-0.0560996 64.9457 0.870434 66.4485 2.80832 67.2261L92.1601 102.975C95.5987 104.354 99.9899 103.981 103.507 102.014L165.03 67.6182C166.968 66.5335 167.966 64.913 168.025 63.3709V52.3347L168.031 52.3281Z" fill="#DDA300"/>
    <path d="M92.1626 67.8351L2.81082 32.0864C-1.01928 30.5508 -0.914887 26.1664 3.00004 23.9774L64.5231 -10.4187C68.0401 -12.3855 72.4313 -12.7579 75.8699 -11.3792L165.222 24.3695C169.052 25.905 168.947 30.2895 165.032 32.4784L103.509 66.8745C99.9924 68.8413 95.6012 69.2138 92.1626 67.8351Z" fill="#F910E9"/>
    <path d="M168.031 28.2266C167.973 29.7752 166.974 31.3957 165.036 32.4738L103.513 66.8699C99.9964 68.8367 95.6052 69.2091 92.1666 67.8304L2.81485 32.0883C0.922633 31.3303 -0.0039005 29.8797 0.00262439 28.3376V39.2628C-0.0560996 40.8441 0.870434 42.347 2.80832 43.1246L92.1601 78.8732C95.5987 80.2519 99.9899 79.8795 103.507 77.9127L165.03 43.5166C166.968 42.4319 167.966 40.8114 168.025 39.2694V28.2331L168.031 28.2266Z" fill="#CA18EC"/>
    <defs>
        <linearGradient id="paint0_linear_58_14773" x1="0.00262439" y1="102.45" x2="168.038" y2="102.45" gradientUnits="userSpaceOnUse">
            <stop stop-color="#00BABB"/>
            <stop offset="1" stop-color="#00BABB"/>
        </linearGradient>
    </defs>
</svg>

