<svg width="24" height="21" viewBox="0 0 24 21" fill="none" xmlns="http://www.w3.org/2000/svg">
    <path d="M22.7689 7.4458C22.3001 6.89421 21.7207 6.4519 21.0698 6.14882C20.419 5.84574 19.712 5.68898 18.9966 5.68913H15.0083L15.3443 3.60583C15.4631 2.8722 15.3197 2.11939 14.9402 1.4847C14.5607 0.850022 13.9703 0.375762 13.2768 0.148425C12.5833 -0.0789118 11.8329 -0.0441764 11.1624 0.246296C10.4919 0.536768 9.94599 1.06362 9.62428 1.73076L7.71063 5.68913H4.99911C3.67375 5.69075 2.40313 6.22897 1.46596 7.18574C0.528788 8.1425 0.00158757 9.43969 0 10.7928L0 15.8964C0.00158757 17.2494 0.528788 18.5466 1.46596 19.5034C2.40313 20.4602 3.67375 20.9984 4.99911 21H18.2967C19.5 20.995 20.6615 20.5492 21.57 19.7437C22.4784 18.9381 23.0735 17.8265 23.2469 16.6109L23.9517 11.5073C24.051 10.7833 23.9968 10.046 23.7927 9.34529C23.5886 8.64458 23.2395 7.9968 22.7689 7.4458ZM1.99964 15.8964V10.7928C1.99964 9.98062 2.31566 9.20174 2.87817 8.62747C3.44068 8.0532 4.2036 7.73058 4.99911 7.73058H6.99875V18.9586H4.99911C4.2036 18.9586 3.44068 18.6359 2.87817 18.0617C2.31566 17.4874 1.99964 16.7085 1.99964 15.8964ZM21.9671 11.2204L21.2612 16.3241C21.158 17.0528 20.802 17.7196 20.258 18.2031C19.7139 18.6866 19.018 18.9546 18.2967 18.9586H8.9984V7.45907C9.09262 7.37526 9.17062 7.27416 9.22835 7.16102L11.417 2.6341C11.499 2.48296 11.6151 2.35386 11.7555 2.25742C11.896 2.16097 12.0569 2.09992 12.2249 2.0793C12.393 2.05867 12.5634 2.07905 12.7223 2.13877C12.8811 2.19849 13.0238 2.29584 13.1387 2.42281C13.2369 2.53943 13.3087 2.67674 13.349 2.82494C13.3892 2.97315 13.397 3.12861 13.3716 3.28022L12.8437 6.54654C12.8205 6.69248 12.8287 6.84182 12.8676 6.98423C12.9066 7.12664 12.9753 7.25871 13.0692 7.37132C13.163 7.48392 13.2797 7.57436 13.4112 7.6364C13.5426 7.69843 13.6857 7.73056 13.8305 7.73058H18.9966C19.4259 7.73052 19.8503 7.82455 20.2409 8.00632C20.6316 8.18809 20.9795 8.45337 21.2611 8.78421C21.5427 9.11505 21.7515 9.50375 21.8733 9.92405C21.995 10.3443 22.027 10.7864 21.9671 11.2204Z" fill="#B0B7BF"/>
</svg>
