<svg width="114" height="23" viewBox="0 0 114 23" fill="none" xmlns="http://www.w3.org/2000/svg">
    <path d="M15.5703 21.0584L0.474871 15.2015C-0.172202 14.9499 -0.154564 14.2316 0.506839 13.873L10.9008 8.23767C11.4949 7.91544 12.2368 7.85442 12.8178 8.0803L27.9132 13.9372C28.5602 14.1888 28.5426 14.9071 27.8812 15.2657L17.4873 20.901C16.8931 21.2232 16.1512 21.2843 15.5703 21.0584Z" fill="#16FAE0"/>
    <path d="M28.3879 14.5703C28.3779 14.824 28.2093 15.0895 27.8819 15.2662L17.4879 20.9014C16.8938 21.2237 16.1519 21.2847 15.571 21.0588L0.475551 15.203C0.155873 15.0788 -0.000658965 14.8412 0.000443374 14.5885V16.3784C-0.00947767 16.6375 0.147054 16.8837 0.474449 17.0111L15.5699 22.868C16.1508 23.0939 16.8927 23.0329 17.4868 22.7107L27.8808 17.0754C28.2082 16.8977 28.3768 16.6322 28.3868 16.3795V14.5714L28.3879 14.5703Z" fill="url(#paint0_linear_109_31199)"/>
    <path d="M15.5703 17.0584L0.474871 11.2015C-0.172202 10.9499 -0.154564 10.2316 0.506839 9.87296L10.9008 4.23767C11.4949 3.91544 12.2368 3.85442 12.8178 4.0803L27.9132 9.93719C28.5602 10.1888 28.5426 10.9071 27.8812 11.2657L17.4873 16.901C16.8931 17.2232 16.1512 17.2843 15.5703 17.0584Z" fill="#FACC16"/>
    <path d="M28.3879 10.5781C28.3779 10.8318 28.2093 11.0973 27.8819 11.274L17.4879 16.9093C16.8938 17.2315 16.1519 17.2925 15.571 17.0666L0.475551 11.2108C0.155873 11.0866 -0.000658965 10.849 0.000443374 10.5963V12.3863C-0.00947767 12.6453 0.147054 12.8915 0.474449 13.0189L15.5699 18.8758C16.1508 19.1017 16.8927 19.0407 17.4868 18.7185L27.8808 13.0832C28.2082 12.9055 28.3768 12.64 28.3868 12.3873V10.5792L28.3879 10.5781Z" fill="#DDA300"/>
    <path d="M15.5703 13.1131L0.474871 7.25618C-0.172202 7.00461 -0.154564 6.28628 0.506839 5.92765L10.9008 0.292359C11.4949 -0.0298716 12.2368 -0.090892 12.8178 0.134991L27.9132 5.99188C28.5602 6.24346 28.5426 6.96178 27.8812 7.32041L17.4873 12.9557C16.8931 13.2779 16.1512 13.339 15.5703 13.1131Z" fill="#F910E9"/>
    <path d="M28.3879 6.625C28.3779 6.87872 28.2093 7.14421 27.8819 7.32085L17.4879 12.9561C16.8938 13.2784 16.1519 13.3394 15.571 13.1135L0.475551 7.25769C0.155873 7.1335 -0.000658965 6.89585 0.000443374 6.6432V8.43313C-0.00947767 8.6922 0.147054 8.93842 0.474449 9.06582L15.5699 14.9227C16.1508 15.1486 16.8927 15.0876 17.4868 14.7653L27.8808 9.13005C28.2082 8.95234 28.3768 8.68685 28.3868 8.4342V6.62607L28.3879 6.625Z" fill="#CA18EC"/>
    <path d="M40.6111 14.7856H37.0214L36.3586 16.9156H33.5938L37.5229 6.125H40.1746L44.0391 16.9156H41.2903L40.6111 14.7856ZM37.6682 12.7497H39.9643L39.738 12.0137L38.8489 9.03804H38.7843L37.8948 12.0137L37.6685 12.7497H37.6682Z" fill="white"/>
    <path d="M45.1562 16.9156V6.125H47.6948V14.7072H52.9821V16.9153H45.1562V16.9156Z" fill="white"/>
    <path d="M54.0312 16.9156V6.125H56.5698V14.7072H61.8571V16.9153H54.0312V16.9156Z" fill="white"/>
    <path d="M71.573 13.6894C71.573 14.1489 71.5029 14.5742 71.3628 14.9656C71.2226 15.3569 71.0149 15.6992 70.7401 15.9915C70.4652 16.2839 70.1258 16.5112 69.7214 16.6728C69.317 16.8347 68.8509 16.9156 68.3227 16.9156H62.9062V6.125H68.1129C68.695 6.125 69.1907 6.20596 69.6006 6.36787C70.0101 6.52979 70.347 6.7465 70.6112 7.01765C70.8751 7.28916 71.0664 7.60238 71.1854 7.95732C71.304 8.31226 71.3631 8.68841 71.3631 9.08506C71.3631 9.27314 71.3332 9.47146 71.2741 9.68004C71.2146 9.88898 71.1284 10.0926 71.0153 10.2909C70.9021 10.4893 70.7591 10.672 70.5868 10.8393C70.4145 11.0065 70.2149 11.1422 69.9886 11.2465C70.2579 11.3717 70.4923 11.5311 70.6919 11.7241C70.8912 11.9175 71.0558 12.1261 71.185 12.3506C71.3142 12.5751 71.4113 12.8048 71.4759 13.0396C71.5405 13.2743 71.573 13.4914 71.573 13.6894ZM68.695 9.36682C68.695 9.0642 68.6034 8.81638 68.4202 8.62301C68.2366 8.42998 67.9026 8.33312 67.4176 8.33312H65.4773V10.2909H67.4176C67.8701 10.2909 68.1961 10.2047 68.3957 10.0325C68.595 9.86034 68.695 9.63868 68.695 9.36682ZM68.8082 13.5953C68.8082 13.2612 68.7085 12.9795 68.5089 12.7497C68.3092 12.5203 67.9833 12.405 67.5307 12.405H65.4773V14.7072H67.5307C67.9512 14.7072 68.2691 14.6053 68.4848 14.4017C68.7001 14.1981 68.8082 13.9294 68.8082 13.5953Z" fill="white"/>
    <path d="M79.3533 14.7856H75.7636L75.1008 16.9156H72.3359L76.2651 6.125H78.9168L82.7813 16.9156H80.0325L79.3533 14.7856ZM76.4103 12.7497H78.7065L78.4802 12.0137L77.5907 9.03804H77.5261L76.637 12.0137L76.4107 12.7497H76.4103Z" fill="white"/>
    <path d="M86.4616 10.7137V16.9156H83.8906V6.125H86.2029L88.0625 8.74038L90.5039 12.3269H90.5525V6.125H93.1235V16.9156H90.8218L88.5198 13.6268L86.5423 10.7137H86.4613H86.4616Z" fill="white"/>
    <path d="M98.9032 12.4679L97.6257 13.893V16.9156H95.0547V6.125H97.6257V10.338L101.312 6.125H104.352L100.6 10.5101L104.546 16.9156H101.538L98.9024 12.4679H98.9032Z" fill="white"/>
    <path d="M114.001 13.7522C114.001 14.2952 113.883 14.7678 113.645 15.1694C113.408 15.5714 113.088 15.9083 112.683 16.1795C112.279 16.451 111.805 16.6546 111.26 16.7903C110.716 16.9257 110.142 16.994 109.538 16.994C109.129 16.994 108.733 16.9728 108.35 16.9314C107.967 16.8897 107.598 16.814 107.243 16.7044C106.887 16.5948 106.534 16.4435 106.183 16.2502C105.833 16.0571 105.486 15.8143 105.141 15.5219L106.58 13.6896C107.054 14.0551 107.531 14.3238 108.011 14.496C108.491 14.6681 108.973 14.7544 109.458 14.7544C109.814 14.7544 110.11 14.7229 110.348 14.6604C110.584 14.5978 110.776 14.5168 110.922 14.4175C111.067 14.3185 111.17 14.2114 111.229 14.0965C111.288 13.9816 111.318 13.872 111.318 13.7677C111.318 13.6111 111.278 13.4729 111.197 13.3527C111.116 13.2328 110.979 13.1204 110.785 13.0161C110.59 12.9118 110.334 12.8075 110.017 12.7029C109.699 12.5986 109.302 12.4837 108.828 12.3582C108.311 12.2228 107.853 12.0683 107.454 11.8962C107.055 11.724 106.718 11.5151 106.443 11.2697C106.168 11.0244 105.961 10.7348 105.821 10.4004C105.68 10.0663 105.61 9.66435 105.61 9.19452C105.61 8.72468 105.71 8.26263 105.91 7.87127C106.109 7.47957 106.389 7.14584 106.751 6.86903C107.112 6.59258 107.543 6.38117 108.044 6.23481C108.545 6.08881 109.092 6.01562 109.685 6.01562C110.332 6.01562 110.971 6.07325 111.601 6.18779C112.232 6.30269 112.887 6.5795 113.566 7.01787L112.418 9.02235C111.89 8.69888 111.408 8.49525 110.971 8.41146C110.534 8.32803 110.095 8.28631 109.653 8.28631C109.244 8.28631 108.912 8.35172 108.659 8.48217C108.405 8.61297 108.279 8.82933 108.279 9.13194C108.279 9.2677 108.319 9.39037 108.4 9.49996C108.481 9.60956 108.618 9.71667 108.812 9.82096C109.007 9.92561 109.26 10.0274 109.572 10.1264C109.885 10.2257 110.268 10.3378 110.72 10.463C111.432 10.651 112.003 10.8624 112.434 11.0972C112.865 11.3323 113.197 11.5882 113.429 11.8647C113.661 12.1415 113.814 12.4392 113.89 12.7573C113.965 13.0759 114.003 13.4071 114.003 13.7518L114.001 13.7522Z" fill="white"/>
    <defs>
        <linearGradient id="paint0_linear_109_31199" x1="0.000443374" y1="18.7861" x2="28.389" y2="18.7861" gradientUnits="userSpaceOnUse">
            <stop stop-color="#00BABB"/>
            <stop offset="1" stop-color="#00BABB"/>
        </linearGradient>
    </defs>
</svg>
