<svg width="24" height="24" viewBox="0 0 24 24" fill="none" xmlns="http://www.w3.org/2000/svg">
    <path d="M24 11.2597C23.8554 8.9221 23.0292 6.67783 21.6233 4.80362C20.2174 2.92941 18.2933 1.50719 16.0881 0.712284C13.8829 -0.0826189 11.4931 -0.21545 9.21326 0.330166C6.93342 0.875783 4.86324 2.07599 3.25793 3.78284C1.65261 5.48968 0.582342 7.62853 0.179062 9.93572C-0.224218 12.2429 0.0571225 14.6176 0.988398 16.7669C1.91967 18.9163 3.46017 20.7465 5.41998 22.0317C7.37979 23.317 9.67323 24.0012 12.0176 24H19.0002C20.3258 23.9987 21.5968 23.472 22.5341 22.5355C23.4715 21.5991 23.9987 20.3293 24 19.005V11.2597ZM22.0001 19.005C22.0001 19.7998 21.684 20.5621 21.1215 21.1242C20.5589 21.6862 19.7958 22.002 19.0002 22.002H12.0176C10.6066 22.0014 9.21154 21.7036 7.92345 21.1282C6.63537 20.5527 5.48314 19.7125 4.54192 18.6623C3.59613 17.6127 2.88592 16.3731 2.45891 15.0268C2.03189 13.6804 1.89794 12.2584 2.06603 10.8561C2.33145 8.6443 3.32616 6.5836 4.89334 4.99893C6.46052 3.41425 8.51103 2.39571 10.7216 2.1039C11.1528 2.0499 11.587 2.02254 12.0216 2.02198C14.3519 2.01563 16.6102 2.82907 18.4003 4.31968C19.4457 5.18776 20.3039 6.25889 20.9227 7.46816C21.5415 8.67743 21.908 9.99964 22.0001 11.3546V19.005Z" fill="#B0B7BF"/>
    <path d="M7.99995 9.01363H11.9998C12.265 9.01363 12.5193 8.90837 12.7068 8.72103C12.8944 8.53368 12.9997 8.27958 12.9997 8.01463C12.9997 7.74967 12.8944 7.49557 12.7068 7.30823C12.5193 7.12088 12.265 7.01562 11.9998 7.01562H7.99995C7.73475 7.01562 7.48041 7.12088 7.29288 7.30823C7.10535 7.49557 7 7.74967 7 8.01463C7 8.27958 7.10535 8.53368 7.29288 8.72103C7.48041 8.90837 7.73475 9.01363 7.99995 9.01363Z" fill="#B0B7BF"/>
    <path d="M15.9996 11.0156H7.99995C7.73475 11.0156 7.48041 11.1209 7.29288 11.3082C7.10535 11.4956 7 11.7497 7 12.0146C7 12.2796 7.10535 12.5337 7.29288 12.721C7.48041 12.9084 7.73475 13.0136 7.99995 13.0136H15.9996C16.2648 13.0136 16.5191 12.9084 16.7067 12.721C16.8942 12.5337 16.9995 12.2796 16.9995 12.0146C16.9995 11.7497 16.8942 11.4956 16.7067 11.3082C16.5191 11.1209 16.2648 11.0156 15.9996 11.0156Z" fill="#B0B7BF"/>
    <path d="M15.9996 15.0078H7.99995C7.73475 15.0078 7.48041 15.1131 7.29288 15.3004C7.10535 15.4878 7 15.7419 7 16.0068C7 16.2718 7.10535 16.5259 7.29288 16.7132C7.48041 16.9006 7.73475 17.0058 7.99995 17.0058H15.9996C16.2648 17.0058 16.5191 16.9006 16.7067 16.7132C16.8942 16.5259 16.9995 16.2718 16.9995 16.0068C16.9995 15.7419 16.8942 15.4878 16.7067 15.3004C16.5191 15.1131 16.2648 15.0078 15.9996 15.0078Z" fill="#B0B7BF"/>
</svg>
