<svg width="65" height="21" viewBox="0 0 65 21" fill="none" xmlns="http://www.w3.org/2000/svg">
    <rect width="65" height="21" rx="10.5" fill="url(#paint0_linear_646_8417)"/>
    <path d="M23.98 14L21.23 7H22.13L24.04 11.92C24.1 12.0867 24.1533 12.24 24.2 12.38C24.2533 12.5133 24.3 12.6367 24.34 12.75C24.38 12.8567 24.4167 12.9567 24.45 13.05C24.4833 13.1433 24.5133 13.2333 24.54 13.32H24.32C24.3533 13.2067 24.39 13.0833 24.43 12.95C24.4767 12.8167 24.53 12.6667 24.59 12.5C24.65 12.3267 24.72 12.1333 24.8 11.92L26.62 7H27.55L24.78 14H23.98ZM30.2816 14.1C29.755 14.1 29.2883 13.9867 28.8816 13.76C28.475 13.5267 28.155 13.2067 27.9216 12.8C27.695 12.3933 27.5816 11.93 27.5816 11.41C27.5816 11.0033 27.645 10.6333 27.7716 10.3C27.905 9.96 28.085 9.67 28.3116 9.43C28.545 9.18333 28.8216 8.99333 29.1416 8.86C29.4616 8.72667 29.8116 8.66 30.1916 8.66C30.525 8.66 30.835 8.72 31.1216 8.84C31.415 8.96 31.6683 9.13333 31.8816 9.36C32.095 9.58 32.2583 9.84333 32.3716 10.15C32.485 10.45 32.535 10.7833 32.5216 11.15L32.5116 11.53H28.1316L27.9716 10.91H31.8816L31.7416 11.08L31.7516 10.83C31.7383 10.5433 31.6583 10.29 31.5116 10.07C31.365 9.85 31.175 9.67667 30.9416 9.55C30.715 9.42333 30.465 9.36 30.1916 9.36C29.805 9.36 29.4716 9.44333 29.1916 9.61C28.9116 9.77 28.6983 10 28.5516 10.3C28.4116 10.5933 28.3383 10.9467 28.3316 11.36C28.3383 11.7733 28.425 12.1333 28.5916 12.44C28.7583 12.74 28.9916 12.9767 29.2916 13.15C29.5983 13.3167 29.9516 13.4 30.3516 13.4C30.6383 13.4 30.905 13.3533 31.1516 13.26C31.3983 13.16 31.6483 12.9967 31.9016 12.77L32.2816 13.31C32.1216 13.47 31.9316 13.61 31.7116 13.73C31.4983 13.8433 31.2683 13.9333 31.0216 14C30.775 14.0667 30.5283 14.1 30.2816 14.1ZM33.6143 14V8.75H34.3743L34.3843 10.27L34.2943 10.01C34.361 9.77 34.4743 9.54667 34.6343 9.34C34.801 9.13333 35.001 8.97 35.2343 8.85C35.4676 8.72333 35.7243 8.66 36.0043 8.66C36.1176 8.66 36.2243 8.67 36.3243 8.69C36.4243 8.70333 36.5076 8.72333 36.5743 8.75L36.3743 9.58C36.281 9.54667 36.1843 9.52 36.0843 9.5C35.991 9.47333 35.901 9.46 35.8143 9.46C35.6076 9.46 35.4143 9.50333 35.2343 9.59C35.061 9.67 34.911 9.78 34.7843 9.92C34.6576 10.06 34.5576 10.22 34.4843 10.4C34.4176 10.5733 34.3843 10.7533 34.3843 10.94V14H33.6143ZM37.505 14V8.75H38.265V14H37.505ZM37.875 7.52C37.7017 7.52 37.565 7.47333 37.465 7.38C37.3717 7.28 37.325 7.15 37.325 6.99C37.325 6.83 37.3717 6.70333 37.465 6.61C37.565 6.51 37.7017 6.46 37.875 6.46C38.0483 6.46 38.1817 6.50667 38.275 6.6C38.375 6.69333 38.425 6.82333 38.425 6.99C38.425 7.14333 38.3783 7.27 38.285 7.37C38.1917 7.47 38.055 7.52 37.875 7.52ZM40.455 14V8.02C40.455 7.72 40.5117 7.46333 40.625 7.25C40.745 7.03 40.9083 6.86333 41.115 6.75C41.3283 6.63 41.5683 6.57 41.835 6.57C42.0617 6.57 42.2617 6.61 42.435 6.69C42.6083 6.77 42.7483 6.87667 42.855 7.01L42.575 7.58C42.4817 7.48 42.3783 7.40667 42.265 7.36C42.1517 7.31333 42.035 7.29 41.915 7.29C41.7683 7.29 41.6417 7.31333 41.535 7.36C41.4283 7.40667 41.3483 7.48667 41.295 7.6C41.2417 7.70667 41.215 7.84667 41.215 8.02V14H40.845C40.7783 14 40.7117 14 40.645 14C40.5783 14 40.515 14 40.455 14ZM39.525 9.51V8.81H42.555V9.51H39.525ZM43.755 14V8.75H44.515V14H43.755ZM44.125 7.52C43.9517 7.52 43.815 7.47333 43.715 7.38C43.6217 7.28 43.575 7.15 43.575 6.99C43.575 6.83 43.6217 6.70333 43.715 6.61C43.815 6.51 43.9517 6.46 44.125 6.46C44.2983 6.46 44.4317 6.50667 44.525 6.6C44.625 6.69333 44.675 6.82333 44.675 6.99C44.675 7.14333 44.6283 7.27 44.535 7.37C44.4417 7.47 44.305 7.52 44.125 7.52ZM48.4848 14.1C47.9581 14.1 47.4914 13.9867 47.0848 13.76C46.6781 13.5267 46.3581 13.2067 46.1248 12.8C45.8981 12.3933 45.7848 11.93 45.7848 11.41C45.7848 11.0033 45.8481 10.6333 45.9748 10.3C46.1081 9.96 46.2881 9.67 46.5148 9.43C46.7481 9.18333 47.0248 8.99333 47.3448 8.86C47.6648 8.72667 48.0148 8.66 48.3948 8.66C48.7281 8.66 49.0381 8.72 49.3248 8.84C49.6181 8.96 49.8714 9.13333 50.0848 9.36C50.2981 9.58 50.4614 9.84333 50.5748 10.15C50.6881 10.45 50.7381 10.7833 50.7248 11.15L50.7148 11.53H46.3348L46.1748 10.91H50.0848L49.9448 11.08L49.9548 10.83C49.9414 10.5433 49.8614 10.29 49.7148 10.07C49.5681 9.85 49.3781 9.67667 49.1448 9.55C48.9181 9.42333 48.6681 9.36 48.3948 9.36C48.0081 9.36 47.6748 9.44333 47.3948 9.61C47.1148 9.77 46.9014 10 46.7548 10.3C46.6148 10.5933 46.5414 10.9467 46.5348 11.36C46.5414 11.7733 46.6281 12.1333 46.7948 12.44C46.9614 12.74 47.1948 12.9767 47.4948 13.15C47.8014 13.3167 48.1548 13.4 48.5548 13.4C48.8414 13.4 49.1081 13.3533 49.3548 13.26C49.6014 13.16 49.8514 12.9967 50.1048 12.77L50.4848 13.31C50.3248 13.47 50.1348 13.61 49.9148 13.73C49.7014 13.8433 49.4714 13.9333 49.2248 14C48.9781 14.0667 48.7314 14.1 48.4848 14.1ZM54.0274 14.1C53.5408 14.1 53.1074 13.9833 52.7274 13.75C52.3541 13.51 52.0574 13.1867 51.8374 12.78C51.6174 12.3733 51.5074 11.91 51.5074 11.39C51.5074 10.8633 51.6174 10.3967 51.8374 9.99C52.0574 9.57667 52.3541 9.25333 52.7274 9.02C53.1074 8.78 53.5308 8.66 53.9974 8.66C54.2574 8.66 54.5108 8.70333 54.7574 8.79C55.0041 8.87667 55.2241 8.99667 55.4174 9.15C55.6174 9.29667 55.7774 9.46333 55.8974 9.65C56.0174 9.83667 56.0841 10.03 56.0974 10.23H55.8874V6.6H56.6474V14H55.8874V12.59L56.0474 12.58C56.0274 12.78 55.9574 12.97 55.8374 13.15C55.7174 13.33 55.5641 13.4933 55.3774 13.64C55.1974 13.78 54.9908 13.8933 54.7574 13.98C54.5241 14.06 54.2808 14.1 54.0274 14.1ZM54.1174 13.43C54.4641 13.43 54.7708 13.3433 55.0374 13.17C55.3108 12.99 55.5241 12.7467 55.6774 12.44C55.8308 12.1333 55.9074 11.78 55.9074 11.38C55.9074 10.98 55.8308 10.6267 55.6774 10.32C55.5241 10.0133 55.3108 9.77 55.0374 9.59C54.7708 9.41 54.4608 9.32 54.1074 9.32C53.7541 9.32 53.4374 9.41 53.1574 9.59C52.8841 9.77 52.6674 10.0167 52.5074 10.33C52.3541 10.6367 52.2774 10.99 52.2774 11.39C52.2774 11.7767 52.3541 12.1267 52.5074 12.44C52.6674 12.7467 52.8841 12.99 53.1574 13.17C53.4374 13.3433 53.7574 13.43 54.1174 13.43Z" fill="#F6F6F6"/>
    <path fill-rule="evenodd" clip-rule="evenodd" d="M16 10.5C16 9.72266 15.606 9.03711 15.0063 8.63379C15.1445 7.92383 14.9385 7.16113 14.3892 6.61133C13.8394 6.06152 13.0767 5.85547 12.3667 5.99316C11.9624 5.39453 11.2773 5 10.5 5C9.72266 5 9.0376 5.39453 8.6333 5.99316C7.92383 5.85547 7.16064 6.06152 6.61084 6.61133C6.4541 6.76758 6.3252 6.94141 6.22461 7.12695C6.18115 7.20703 6.14307 7.28906 6.10986 7.37207C5.95068 7.77441 5.91162 8.21289 5.99365 8.63379C5.39404 9.03711 5 9.72266 5 10.5C5 11.2773 5.39404 11.9629 5.99365 12.3662C5.85547 13.0762 6.06152 13.8398 6.61084 14.3887C7.16064 14.9385 7.92334 15.1445 8.6333 15.0068C9.0376 15.6055 9.72266 16 10.5 16C11.2773 16 11.9624 15.6055 12.3667 15.0068C13.0762 15.1445 13.8394 14.9385 14.3892 14.3887C14.9385 13.8398 15.1445 13.0762 15.0063 12.3662C15.606 11.9629 16 11.2773 16 10.5ZM12.8535 9.85352C13.0488 9.6582 13.0488 9.3418 12.8535 9.14648C12.6582 8.95117 12.3418 8.95117 12.1465 9.14648L10 11.293L8.85352 10.1465C8.6582 9.95117 8.3418 9.95117 8.14648 10.1465C7.95117 10.3418 7.95117 10.6582 8.14648 10.8535L9.46973 12.1768C9.7627 12.4697 10.2373 12.4697 10.5303 12.1768L12.8535 9.85352Z" fill="#F6F6F6"/>
    <defs>
        <linearGradient id="paint0_linear_646_8417" x1="32.5" y1="0" x2="32.5" y2="21" gradientUnits="userSpaceOnUse">
            <stop stop-color="#F910E9"/>
            <stop offset="1" stop-color="#CA18EC"/>
        </linearGradient>
    </defs>
</svg>
