<svg width="24" height="24" viewBox="0 0 24 24" fill="none" xmlns="http://www.w3.org/2000/svg">
    <path d="M0 12C0 14.3734 0.703788 16.6935 2.02236 18.6668C3.34094 20.6402 5.21508 22.1783 7.4078 23.0865C9.60051 23.9948 12.0133 24.2324 14.3411 23.7694C16.6689 23.3064 18.807 22.1635 20.4853 20.4853C22.1635 18.807 23.3064 16.6689 23.7694 14.3411C24.2324 12.0133 23.9948 9.60051 23.0865 7.4078C22.1783 5.21508 20.6402 3.34094 18.6668 2.02236C16.6935 0.703788 14.3734 0 12 0C8.81846 0.00344108 5.76821 1.26883 3.51852 3.51852C1.26883 5.76821 0.00344108 8.81846 0 12ZM22 12C22 13.9778 21.4135 15.9112 20.3147 17.5557C19.2159 19.2002 17.6541 20.4819 15.8268 21.2388C13.9996 21.9957 11.9889 22.1937 10.0491 21.8078C8.10929 21.422 6.32746 20.4696 4.92893 19.0711C3.53041 17.6725 2.578 15.8907 2.19215 13.9509C1.80629 12.0111 2.00433 10.0004 2.7612 8.17316C3.51808 6.3459 4.79981 4.78412 6.4443 3.6853C8.08879 2.58649 10.0222 2 12 2C14.6513 2.00291 17.1931 3.05741 19.0678 4.93215C20.9426 6.80688 21.9971 9.34873 22 12ZM13.121 6.293C12.9335 6.48053 12.8282 6.73483 12.8282 7C12.8282 7.26516 12.9335 7.51947 13.121 7.707L16.413 11L6 11.007C5.73478 11.007 5.48043 11.1124 5.29289 11.2999C5.10536 11.4874 5 11.7418 5 12.007C5 12.2722 5.10536 12.5266 5.29289 12.7141C5.48043 12.9016 5.73478 13.007 6 13.007L16.414 13L13.121 16.293C13.0225 16.3832 12.9431 16.4922 12.8874 16.6136C12.8317 16.735 12.8009 16.8664 12.7968 16.9999C12.7927 17.1334 12.8154 17.2663 12.8636 17.3909C12.9117 17.5155 12.9843 17.6292 13.0771 17.7252C13.1699 17.8213 13.281 17.8978 13.4038 17.9502C13.5267 18.0027 13.6588 18.0299 13.7923 18.0305C13.9259 18.031 14.0582 18.0048 14.1815 17.9534C14.3047 17.9019 14.4164 17.8263 14.51 17.731L14.535 17.707L18.121 14.122C18.3996 13.8434 18.6207 13.5127 18.7714 13.1487C18.9222 12.7847 18.9999 12.3945 18.9999 12.0005C18.9999 11.6065 18.9222 11.2163 18.7714 10.8523C18.6207 10.4883 18.3996 10.1576 18.121 9.879L14.535 6.293C14.3475 6.10553 14.0932 6.00021 13.828 6.00021C13.5628 6.00021 13.3085 6.10553 13.121 6.293Z" fill="#E7E7E7"/>
</svg>
