<svg width="23" height="23" viewBox="0 0 23 23" fill="none" xmlns="http://www.w3.org/2000/svg">
    <path d="M10.1706 1.00918C10.5891 -0.336391 12.4109 -0.336393 12.8294 1.00917L14.5859 6.65779C14.773 7.25955 15.3097 7.66697 15.9153 7.66697H21.5995C22.9536 7.66697 23.5166 9.47742 22.4211 10.309L17.8225 13.8001C17.3326 14.172 17.1276 14.8312 17.3147 15.4329L19.0712 21.0816C19.4897 22.4271 18.0157 23.5461 16.9203 22.7145L12.3216 19.2234C11.8317 18.8515 11.1683 18.8515 10.6784 19.2234L6.07973 22.7144C4.98428 23.5461 3.51034 22.4271 3.92877 21.0816L5.68531 15.4329C5.87244 14.8312 5.66744 14.172 5.17754 13.8001L0.578864 10.309C-0.516593 9.47742 0.0463957 7.66697 1.40046 7.66697H7.08473C7.69028 7.66697 8.22697 7.25955 8.4141 6.6578L10.1706 1.00918Z" fill="#FBC400"/>
</svg>
