<svg width="138" height="22" viewBox="0 0 138 22" fill="none" xmlns="http://www.w3.org/2000/svg">
    <path d="M7.61571 0.198456C10.1395 -0.355167 12.8929 0.264016 14.9264 1.87462C13.6526 3.40291 12.4228 4.96835 11.1439 6.49227C10.1164 7.68329 9.17475 8.94642 8.14574 10.1367C7.8179 10.533 7.52039 10.9533 7.17233 11.3328C6.37873 12.3293 5.55769 13.3033 4.76626 14.3013C4.43842 14.6866 4.14235 15.0982 3.79791 15.4697C2.38762 14.2561 1.41783 12.553 0.999001 10.7384C0.593896 8.89688 0.746984 6.91841 1.51748 5.19198C2.0049 4.0658 2.74579 3.06127 3.63615 2.22719C4.77131 1.23795 6.1426 0.509504 7.61571 0.198456Z" fill="#E7E7E7"/>
    <path d="M20.4067 4.88196C21.2841 4.1608 22.4849 4.01583 23.5739 4.17609C24.5466 4.31814 25.468 4.79965 26.1417 5.52227C25.5922 6.17788 25.0564 6.84659 24.5097 7.50438C23.9588 7.13287 23.3717 6.75189 22.7045 6.6521C21.9311 6.64481 21.4191 7.602 21.7123 8.28528C21.9203 8.79666 22.3932 9.1281 22.8583 9.3816C23.7089 9.80556 24.6022 10.1887 25.3221 10.8268C26.0998 11.6048 26.5273 12.7237 26.4508 13.8281C26.3706 16.0018 24.3841 17.9431 22.2113 17.8593C20.7468 17.8717 19.494 16.9276 18.5234 15.9078C19.1091 15.1699 19.6766 14.4167 20.2558 13.6736C20.6277 14.1326 21.084 14.5303 21.6054 14.8064C22.0242 15.0045 22.5644 15.1029 22.9673 14.8158C23.3327 14.5441 23.6627 14.1624 23.7169 13.6911C23.7631 13.2657 23.519 12.8702 23.2143 12.5992C22.2712 11.7272 20.8667 11.626 19.9467 10.7198C19.2593 9.94979 18.935 8.88189 18.9943 7.85331C19.0231 6.72349 19.507 5.58055 20.4067 4.88196Z" fill="#E7E7E7"/>
    <path d="M38.8524 4.97871C39.6503 4.44476 40.6028 4.14973 41.5603 4.13589C42.803 4.09437 44.0234 4.47681 45.1268 5.03043C45.1138 6.12092 45.1167 7.21214 45.1261 8.30336C44.2401 7.70967 43.2717 7.18155 42.2066 7.02493C41.3278 6.89089 40.3695 7.124 39.7283 7.76576C38.8596 8.58746 38.5657 9.83238 38.5404 10.9935C38.5224 12.1161 38.8047 13.3129 39.6149 14.1266C40.2417 14.7851 41.1718 15.078 42.0622 15.0299C43.1706 14.9417 44.1946 14.4209 45.1102 13.8126C45.1362 14.8988 45.1095 15.9856 45.121 17.0717C43.8104 17.5452 42.4268 17.9655 41.0194 17.8213C39.9449 17.7135 38.9224 17.2269 38.1281 16.4948C37.0363 15.499 36.2788 14.1361 36.0065 12.6755C35.7235 11.1727 35.8202 9.58398 36.3625 8.14893C36.8622 6.87924 37.7194 5.73848 38.8524 4.97871Z" fill="#E7E7E7"/>
    <path d="M46.6094 4.28233C47.4564 4.28816 48.3042 4.28379 49.1512 4.28525C49.1469 6.98343 49.1498 9.68088 49.1498 12.3783C49.157 13.0886 49.3498 13.8338 49.861 14.3488C50.6814 15.1552 52.1985 15.0204 52.8802 14.0953C53.2672 13.5883 53.3777 12.9298 53.3979 12.3048C53.4001 9.63208 53.3951 6.95866 53.4001 4.28597C54.1728 4.28379 54.9454 4.28743 55.7181 4.28306C55.7997 4.28015 55.9643 4.26631 55.9383 4.40107C55.9073 6.57404 55.934 8.74774 55.9253 10.9207C55.9145 11.7315 55.9492 12.5437 55.9037 13.3537C55.7441 14.5943 55.2848 15.8844 54.2984 16.6995C53.4507 17.401 52.3321 17.7426 51.2417 17.7033C50.077 17.7142 48.8313 17.3872 48.011 16.5072C47.1683 15.558 46.6217 14.3153 46.6108 13.0303C46.6101 10.1143 46.613 7.19832 46.6094 4.28233Z" fill="#E7E7E7"/>
    <path d="M27.7834 4.39354C30.0501 4.39427 32.3176 4.39937 34.585 4.39062C34.5814 5.26622 34.5843 6.14182 34.5835 7.01742C33.1884 6.99994 31.7926 7.02616 30.3975 7.00431C30.3996 7.89156 30.3953 8.77881 30.3996 9.66607C31.7962 9.66679 33.1928 9.67117 34.5893 9.66388C34.5778 10.5264 34.5828 11.3889 34.5864 12.2513C33.1899 12.2375 31.7933 12.2535 30.3967 12.2433C30.4011 13.1546 30.3946 14.0666 30.4011 14.9779C31.7947 14.9612 33.1891 14.9801 34.5835 14.9685C34.585 15.8433 34.5792 16.7182 34.5864 17.5931C32.3183 17.5814 30.0494 17.5938 27.7812 17.5865C27.7899 13.1889 27.7841 8.7912 27.7834 4.39354Z" fill="#E7E7E7"/>
    <path d="M87.7993 4.40916C88.7525 4.41791 89.7064 4.423 90.6596 4.40625C89.4024 6.73656 88.1358 9.06251 86.8894 11.3986C86.8295 11.8889 86.8801 12.3923 86.8627 12.8876C86.8678 14.4494 86.8533 16.0112 86.8699 17.573C86.0186 17.5774 85.1679 17.5737 84.3166 17.573C84.3296 15.5989 84.3166 13.6241 84.3238 11.6492C84.3498 11.4241 84.214 11.2384 84.1129 11.0526C82.9214 8.83669 81.7206 6.6273 80.5312 4.41062C81.4794 4.42592 82.4282 4.40261 83.3764 4.42009C84.1375 5.74878 84.8278 7.12337 85.5694 8.46518C86.3269 7.12119 87.0324 5.74733 87.7993 4.40916Z" fill="#E7E7E7"/>
    <path d="M107.949 4.36426C108.614 4.37082 109.281 4.34095 109.945 4.37956C111.584 8.78814 113.184 13.2157 114.805 17.633C113.938 17.6308 113.072 17.6395 112.206 17.6308C111.887 16.7589 111.567 15.8869 111.25 15.0135C109.735 15.0149 108.22 15.0069 106.705 15.0171C106.394 15.8898 106.077 16.7596 105.772 17.6337C104.91 17.6272 104.048 17.6461 103.188 17.6257C104.767 13.2026 106.375 8.78887 107.949 4.36426ZM107.569 12.5928C108.502 12.5972 109.436 12.5914 110.37 12.5972C109.888 11.31 109.424 10.017 108.946 8.72841C108.507 10.0236 108.034 11.3064 107.569 12.5928Z" fill="#E7E7E7"/>
    <path d="M115.933 4.39062C116.789 4.40519 117.645 4.39718 118.502 4.39572C120.33 7.20973 122.143 10.0347 123.981 12.8421C123.975 10.0274 123.986 7.21264 123.976 4.39718C124.828 4.39645 125.679 4.40155 126.53 4.39427C126.527 8.79411 126.528 13.194 126.53 17.5938C125.683 17.5902 124.835 17.588 123.988 17.596C122.162 14.7601 120.353 11.9141 118.52 9.0833C118.534 11.9192 118.516 14.755 118.529 17.5916C117.662 17.5945 116.795 17.5836 115.93 17.5974C115.938 13.1954 115.93 8.79265 115.933 4.39062Z" fill="#E7E7E7"/>
    <path d="M57.5781 4.40625C58.5949 4.423 59.6116 4.40844 60.629 4.41353C61.3512 4.423 62.0913 4.35963 62.7932 4.57598C63.8042 4.83968 64.6649 5.60892 65.0476 6.58869C65.369 7.45773 65.4138 8.42074 65.2152 9.32329C65.0549 9.9891 64.8137 10.6622 64.3551 11.1816C64.0237 11.572 63.5861 11.8445 63.1434 12.0878C64.2078 13.9373 65.3495 15.7424 66.4363 17.5796C65.447 17.565 64.4577 17.5766 63.4691 17.5723C62.4704 15.8677 61.4291 14.1879 60.424 12.4862C60.3286 12.484 60.2348 12.4819 60.1409 12.4797C60.1344 14.1784 60.138 15.8764 60.1387 17.5752C59.2852 17.5737 58.4309 17.5657 57.5781 17.5796C57.5875 13.1885 57.5868 8.79735 57.5781 4.40625ZM60.1517 6.77736C60.1575 7.91228 60.1553 9.04721 60.1525 10.1821C60.7742 10.1945 61.4443 10.2193 61.996 9.87837C62.4206 9.63215 62.6394 9.14409 62.6885 8.66914C62.7773 8.11188 62.5852 7.49342 62.1202 7.15542C61.5584 6.72637 60.819 6.7606 60.1517 6.77736Z" fill="#E7E7E7"/>
    <path d="M67.4062 4.41406C68.262 4.41843 69.1184 4.42135 69.9748 4.41479C69.9683 8.80225 69.9647 13.1904 69.9762 17.5786C69.1205 17.5764 68.2648 17.5735 67.4099 17.5808C67.412 13.1919 67.4192 8.80298 67.4062 4.41406Z" fill="#E7E7E7"/>
    <path d="M71.375 4.41625C74.0757 4.41843 76.7771 4.42208 79.4778 4.41406C79.48 5.35012 79.4785 6.28545 79.4793 7.22078C78.5571 7.22151 77.635 7.21933 76.7121 7.22224C76.7208 10.6729 76.7056 14.1243 76.7201 17.5757C75.8521 17.5837 74.9848 17.5684 74.1176 17.5859C74.1226 14.1309 74.1248 10.6758 74.1161 7.22151C73.2034 7.22151 72.2906 7.2186 71.3779 7.22224C71.3757 6.28691 71.3801 5.35158 71.375 4.41625Z" fill="#E7E7E7"/>
    <path d="M94.8411 4.42188C96.2001 4.44227 97.5606 4.41386 98.9203 4.43134C99.6908 4.49545 100.505 4.68703 101.085 5.23774C101.972 6.16943 102.238 7.59136 101.898 8.81735C101.721 9.44163 101.272 9.92823 100.83 10.3784C101.456 10.6283 102.057 11.0049 102.445 11.5738C103.157 12.6468 103.243 14.0607 102.831 15.2634C102.578 15.97 102.068 16.5761 101.427 16.9563C100.645 17.4131 99.7262 17.5879 98.8301 17.5748C97.4956 17.5697 96.1619 17.5843 94.8281 17.5675C94.8635 17.3941 94.8823 17.2186 94.8888 17.0423C94.8758 13.1087 94.8895 9.17502 94.8801 5.24138C94.883 4.96821 94.9018 4.6914 94.8411 4.42188ZM97.3266 6.63418C97.3245 7.59064 97.3295 8.54709 97.3252 9.50427C97.8263 9.50573 98.3802 9.54725 98.8048 9.22382C99.2532 8.9033 99.506 8.33366 99.4576 7.78367C99.3868 7.18707 98.8416 6.75219 98.2813 6.65385C97.9643 6.61305 97.6444 6.64146 97.3266 6.63418ZM97.3266 11.7457C97.3281 12.9491 97.3274 14.1525 97.3266 15.3559C98.095 15.3304 98.9218 15.4666 99.6273 15.0769C100.156 14.814 100.401 14.1875 100.368 13.6178C100.391 12.9914 100.11 12.3307 99.5529 12.0167C98.8734 11.6306 98.069 11.7792 97.3266 11.7457Z" fill="#E7E7E7"/>
    <path d="M128.103 4.41479C128.966 4.42208 129.829 4.42062 130.692 4.41406C130.682 6.27088 130.682 8.1277 130.692 9.98452C131.984 8.17287 133.267 6.35393 134.55 4.53571H134.557C135.562 4.5124 136.568 4.51969 137.573 4.5277C137.561 4.60929 137.55 4.69015 137.54 4.77173C136.142 6.7604 134.71 8.72868 133.288 10.7028C134.866 12.9901 136.428 15.2884 138.001 17.5794C136.963 17.575 135.924 17.5815 134.886 17.5764C134.098 16.3942 133.291 15.225 132.492 14.05C132.457 14.0027 132.43 13.9517 132.413 13.8985C132.322 13.433 132.002 13.0688 131.75 12.6842C131.46 12.3017 131.145 11.9011 131.113 11.4006C130.919 11.3562 130.678 11.2506 130.513 11.4203C130.42 11.59 130.488 11.7991 130.499 11.9834C130.559 12.3323 130.524 12.6856 130.513 13.036C130.506 14.0318 130.539 15.0276 130.516 16.0234C130.499 16.4932 130.568 16.974 130.435 17.4322C130.517 17.4781 130.596 17.524 130.681 17.5721L130.699 17.5845C129.833 17.5713 128.967 17.5772 128.102 17.5808C128.108 13.1919 128.105 8.80298 128.103 4.41479Z" fill="#E7E7E7"/>
    <path d="M94.7188 4.40625L94.8315 4.423C94.8919 4.69253 94.8732 4.96934 94.8703 5.24251C94.8797 9.17615 94.866 13.1098 94.879 17.0434C94.8725 17.2197 94.8538 17.3953 94.8186 17.5686L94.7195 17.5949C94.7259 13.1987 94.7281 8.80245 94.7188 4.40625Z" fill="#E7E7E7"/>
    <path d="M130.515 11.4212C130.68 11.2515 130.921 11.3571 131.115 11.4016C131.147 11.902 131.462 12.3027 131.752 12.6851C132.004 13.0697 132.324 13.4339 132.415 13.8994C131.874 13.1746 131.388 12.409 130.874 11.6653C130.812 11.5706 130.75 11.4773 130.689 11.3848C130.663 13.447 130.672 15.5107 130.683 17.573C130.598 17.5249 130.519 17.479 130.438 17.4331C130.57 16.9749 130.501 16.4942 130.518 16.0243C130.541 15.0285 130.508 14.0327 130.515 13.0369C130.526 12.6865 130.561 12.3332 130.501 11.9843C130.49 11.8 130.422 11.591 130.515 11.4212Z" fill="#E7E7E7"/>
    <path d="M134.555 4.53595C134.614 4.36589 134.799 4.43669 134.929 4.41917C135.888 4.42063 136.847 4.42939 137.806 4.41406C137.718 4.53522 137.631 4.65637 137.538 4.77242C137.548 4.69067 137.559 4.60966 137.57 4.52792C136.565 4.51989 135.559 4.51259 134.555 4.53595Z" fill="#E7E7E7"/>
    <path d="M8.1447 10.1366C9.17371 8.94634 10.1153 7.6832 11.1429 6.49219C12.5344 7.7677 13.5511 9.46718 13.9461 11.3276C14.3621 13.2442 14.1462 15.3079 13.2854 17.0737C12.533 18.6653 11.2678 19.9948 9.74923 20.8616C8.36061 21.644 6.75897 22.0344 5.17249 21.9958C3.31305 21.9113 1.47166 21.2739 0 20.1157C1.27669 18.5765 2.53317 17.0198 3.79686 15.4696C4.14131 15.0981 4.43738 14.6865 4.76521 14.3012C5.55665 13.3032 6.37769 12.3293 7.17129 11.3327C7.51935 10.9532 7.81686 10.5329 8.1447 10.1366Z" fill="#E7E7E7"/>
</svg>
