<svg width="98" height="16" viewBox="0 0 98 16" fill="none" xmlns="http://www.w3.org/2000/svg">
    <path d="M5.40811 0.144329C7.20035 -0.258299 9.15565 0.192009 10.5997 1.36334C9.69512 2.4748 8.82182 3.61329 7.91365 4.72157C7.18394 5.58775 6.51524 6.50638 5.7845 7.37203C5.55169 7.66023 5.34042 7.9659 5.09325 8.24192C4.52968 8.96665 3.94663 9.67495 3.3846 10.4007C3.15179 10.681 2.94154 10.9803 2.69693 11.2505C1.69544 10.3679 1.00675 9.12929 0.709321 7.80962C0.42164 6.47035 0.530354 5.03149 1.07751 3.77593C1.42365 2.9569 1.94978 2.22634 2.58207 1.61975C3.38819 0.900316 4.362 0.370542 5.40811 0.144329Z" fill="#9FD067"/>
    <path d="M14.4936 3.55619C15.1167 3.03171 15.9695 2.92629 16.7428 3.04284C17.4335 3.14615 18.0879 3.49633 18.5663 4.02186C18.1761 4.49866 17.7956 4.98499 17.4074 5.46337C17.0161 5.19319 16.5992 4.91612 16.1254 4.84354C15.5762 4.83824 15.2126 5.53436 15.4208 6.03129C15.5685 6.40319 15.9043 6.64424 16.2346 6.8286C16.8387 7.13693 17.473 7.41559 17.9843 7.87967C18.5366 8.44547 18.8401 9.2592 18.7858 10.0623C18.7289 11.6432 17.3181 13.055 15.7751 12.9941C14.7352 13.0031 13.8455 12.3165 13.1562 11.5748C13.5721 11.0382 13.9752 10.4904 14.3865 9.95003C14.6505 10.2838 14.9746 10.573 15.3449 10.7738C15.6423 10.9179 16.0259 10.9894 16.312 10.7807C16.5715 10.5831 16.8059 10.3055 16.8443 9.96274C16.8771 9.65335 16.7038 9.36569 16.4874 9.16861C15.8177 8.53447 14.8203 8.46083 14.167 7.8018C13.6788 7.24182 13.4485 6.46518 13.4906 5.71714C13.5111 4.89546 13.8547 4.06424 14.4936 3.55619Z" fill="#0168B5"/>
    <path d="M27.5919 3.623C28.1586 3.23468 28.835 3.02012 29.5149 3.01005C30.3975 2.97986 31.2641 3.25799 32.0477 3.66061C32.0384 4.45369 32.0405 5.24729 32.0471 6.04089C31.4179 5.60912 30.7303 5.22504 29.9739 5.11114C29.3498 5.01366 28.6693 5.18318 28.214 5.64991C27.5971 6.2475 27.3884 7.15288 27.3704 7.99734C27.3576 8.81372 27.5581 9.68414 28.1335 10.2759C28.5786 10.7548 29.2391 10.9678 29.8713 10.9328C30.6585 10.8687 31.3856 10.4899 32.0359 10.0476C32.0543 10.8375 32.0353 11.6279 32.0436 12.4178C31.1128 12.7621 30.1303 13.0678 29.1308 12.9629C28.3678 12.8845 27.6417 12.5306 27.0776 11.9982C26.3022 11.274 25.7643 10.2828 25.571 9.22059C25.37 8.12767 25.4387 6.97223 25.8238 5.92858C26.1787 5.00518 26.7874 4.17555 27.5919 3.623Z" fill="#0168B5"/>
    <path d="M33.1016 3.11797C33.7031 3.12221 34.3051 3.11903 34.9066 3.12009C34.9035 5.08238 34.9056 7.04413 34.9056 9.00588C34.9107 9.52241 35.0476 10.0644 35.4107 10.4389C35.9932 11.0254 37.0706 10.9274 37.5547 10.2546C37.8296 9.88583 37.908 9.40692 37.9224 8.95237C37.9239 7.00863 37.9203 5.06436 37.9239 3.12062C38.4726 3.11903 39.0213 3.12168 39.57 3.1185C39.628 3.11639 39.7449 3.10632 39.7264 3.20433C39.7044 4.78464 39.7234 6.36549 39.7172 7.9458C39.7095 8.53544 39.7341 9.12614 39.7018 9.71524C39.5885 10.6174 39.2623 11.5557 38.5619 12.1485C37.9598 12.6587 37.1655 12.9071 36.3912 12.8785C35.564 12.8865 34.6795 12.6486 34.0969 12.0086C33.4985 11.3183 33.1103 10.4145 33.1026 9.48002C33.1021 7.35934 33.1041 5.23866 33.1016 3.11797Z" fill="#0168B5"/>
    <path d="M19.7281 3.19743C21.3378 3.19796 22.948 3.20167 24.5582 3.19531C24.5556 3.8321 24.5577 4.46889 24.5571 5.10568C23.5664 5.09296 22.5752 5.11203 21.5844 5.09614C21.586 5.7414 21.5829 6.38667 21.586 7.03193C22.5777 7.03246 23.5695 7.03564 24.5612 7.03034C24.553 7.6576 24.5566 8.28485 24.5592 8.9121C23.5674 8.90203 22.5757 8.91369 21.5839 8.90627C21.587 9.56902 21.5824 10.2323 21.587 10.895C22.5767 10.8829 23.5669 10.8966 24.5571 10.8882C24.5582 11.5244 24.5541 12.1607 24.5592 12.7969C22.9485 12.7885 21.3373 12.7975 19.7266 12.7922C19.7327 9.59392 19.7286 6.39567 19.7281 3.19743Z" fill="#0168B5"/>
    <path d="M62.3488 3.20524C63.0257 3.2116 63.7031 3.21531 64.38 3.20312C63.4873 4.89787 62.5878 6.58944 61.7027 8.28842C61.6601 8.64496 61.696 9.01103 61.6837 9.37128C61.6873 10.5071 61.6771 11.6429 61.6889 12.7788C61.0843 12.782 60.4802 12.7793 59.8756 12.7788C59.8848 11.3431 59.8756 9.90688 59.8807 8.47066C59.8992 8.30696 59.8028 8.17187 59.731 8.03678C58.8849 6.42521 58.0321 4.8184 57.1875 3.2063C57.8608 3.21743 58.5346 3.20048 59.2079 3.21319C59.7484 4.1795 60.2387 5.17918 60.7653 6.15502C61.3032 5.17759 61.8042 4.17844 62.3488 3.20524Z" fill="#0168B5"/>
    <path d="M76.6627 3.17543C77.1349 3.1802 77.6088 3.15848 78.08 3.18656C79.2441 6.39274 80.3799 9.61271 81.5312 12.8253C80.9158 12.8237 80.301 12.83 79.6856 12.8237C79.459 12.1895 79.2318 11.5554 79.0067 10.9202C77.9308 10.9212 76.855 10.9154 75.7791 10.9228C75.5586 11.5575 75.3335 12.1901 75.1166 12.8258C74.5048 12.821 73.8925 12.8348 73.2812 12.82C74.4033 9.60317 75.5447 6.39327 76.6627 3.17543ZM76.3924 9.15975C77.0555 9.16293 77.7185 9.15869 78.3816 9.16293C78.0395 8.22682 77.7098 7.28647 77.3708 6.3493C77.0585 7.29124 76.7226 8.22417 76.3924 9.15975Z" fill="#0168B5"/>
    <path d="M82.3302 3.19531C82.9384 3.20591 83.5465 3.20008 84.1547 3.19902C85.4531 5.24554 86.7403 7.3 88.0458 9.34174C88.0417 7.2947 88.0489 5.24765 88.0423 3.20008C88.6469 3.19955 89.2514 3.20326 89.856 3.19796C89.854 6.39779 89.8545 9.59762 89.8555 12.7975C89.254 12.7948 88.652 12.7932 88.0505 12.799C86.7536 10.7366 85.469 8.66681 84.1675 6.60811C84.1773 8.67052 84.1645 10.7329 84.1742 12.7959C83.5583 12.798 82.943 12.79 82.3281 12.8001C82.3338 9.59868 82.3286 6.39673 82.3302 3.19531Z" fill="#0168B5"/>
    <path d="M40.8906 3.20312C41.6126 3.21531 42.3347 3.20471 43.0572 3.20842C43.57 3.21531 44.0956 3.16922 44.5941 3.32656C45.312 3.51834 45.9232 4.07778 46.195 4.79033C46.4232 5.42235 46.455 6.12271 46.314 6.7791C46.2002 7.26331 46.0289 7.75282 45.7033 8.13055C45.4679 8.41451 45.1571 8.61264 44.8428 8.78959C45.5986 10.1347 46.4094 11.4475 47.1811 12.7835C46.4786 12.773 45.7761 12.7814 45.074 12.7783C44.3648 11.5386 43.6254 10.3169 42.9116 9.07937C42.8439 9.07778 42.7772 9.07619 42.7106 9.0746C42.7059 10.31 42.7085 11.5449 42.709 12.7804C42.1029 12.7793 41.4962 12.7735 40.8906 12.7835C40.8973 9.59007 40.8968 6.3966 40.8906 3.20312ZM42.7182 4.92754C42.7223 5.75292 42.7208 6.57831 42.7188 7.4037C43.1603 7.4127 43.6362 7.43072 44.0279 7.18278C44.3295 7.00372 44.4848 6.64877 44.5197 6.30336C44.5828 5.89808 44.4464 5.44831 44.1161 5.20249C43.7172 4.89045 43.1921 4.91535 42.7182 4.92754Z" fill="#0168B5"/>
    <path d="M47.8672 3.20312C48.4749 3.2063 49.083 3.20842 49.6912 3.20365C49.6866 6.39448 49.684 9.58584 49.6922 12.7772C49.0846 12.7756 48.4769 12.7735 47.8698 12.7788C47.8713 9.5869 47.8764 6.39501 47.8672 3.20312Z" fill="#0168B5"/>
    <path d="M50.6875 3.20471C52.6054 3.2063 54.5238 3.20895 56.4416 3.20312C56.4432 3.88388 56.4421 4.56411 56.4427 5.24434C55.7878 5.24487 55.133 5.24328 54.4776 5.2454C54.4838 7.75494 54.473 10.265 54.4832 12.7751C53.8669 12.7809 53.251 12.7698 52.6351 12.7825C52.6387 10.2698 52.6402 7.75706 52.6341 5.24487C51.9859 5.24487 51.3377 5.24275 50.6896 5.2454C50.688 4.56517 50.6911 3.88494 50.6875 3.20471Z" fill="#0168B5"/>
    <path d="M67.3452 3.21875C68.3103 3.23358 69.2764 3.21292 70.242 3.22564C70.7891 3.27226 71.3676 3.41159 71.7793 3.8121C72.4091 4.48968 72.5983 5.52379 72.3562 6.4154C72.2306 6.86942 71.9122 7.22331 71.5983 7.55071C72.0429 7.73242 72.4696 8.00631 72.745 8.42007C73.2506 9.20042 73.3116 10.2287 73.0193 11.1034C72.8393 11.6172 72.4773 12.058 72.0219 12.3346C71.4665 12.6667 70.8143 12.7939 70.1779 12.7843C69.2302 12.7806 68.2831 12.7912 67.3359 12.779C67.3611 12.653 67.3744 12.5253 67.379 12.3971C67.3698 9.5363 67.3795 6.67552 67.3729 3.81475C67.3749 3.61608 67.3882 3.41477 67.3452 3.21875ZM69.1102 4.82767C69.1087 5.52326 69.1123 6.21886 69.1092 6.91498C69.4651 6.91604 69.8584 6.94624 70.1599 6.71102C70.4784 6.47792 70.6579 6.06363 70.6235 5.66365C70.5732 5.22977 70.1861 4.9135 69.7881 4.84198C69.563 4.81231 69.3359 4.83297 69.1102 4.82767ZM69.1102 8.54509C69.1113 9.42028 69.1107 10.2955 69.1102 11.1706C69.6558 11.1521 70.243 11.2512 70.744 10.9677C71.1194 10.7765 71.2932 10.3209 71.2701 9.90661C71.286 9.451 71.0871 8.9705 70.6912 8.74217C70.2086 8.46139 69.6374 8.56946 69.1102 8.54509Z" fill="#0168B5"/>
    <path d="M90.9698 3.20365C91.5826 3.20895 92.1954 3.20789 92.8087 3.20312C92.8015 4.55352 92.801 5.90391 92.8082 7.2543C93.7261 5.93676 94.6368 4.61391 95.5481 3.2916H95.5532C96.2665 3.27464 96.9808 3.27994 97.6946 3.28577C97.6864 3.3451 97.6787 3.40391 97.6716 3.46324C96.6783 4.90953 95.6614 6.34097 94.6517 7.77666C95.7721 9.44015 96.8818 11.1116 97.9987 12.7777C97.2613 12.7745 96.5239 12.7793 95.7865 12.7756C95.227 11.9158 94.6537 11.0655 94.0866 10.211C94.0614 10.1765 94.0425 10.1394 94.0302 10.1008C93.9661 9.76225 93.7384 9.49736 93.5599 9.21764C93.3538 8.93951 93.1302 8.64814 93.1071 8.28418C92.9692 8.25187 92.7984 8.17505 92.6815 8.29849C92.6148 8.42192 92.6636 8.57397 92.6712 8.708C92.7138 8.96176 92.6892 9.2187 92.681 9.47352C92.6764 10.1977 92.7 10.9219 92.683 11.6461C92.6712 11.9878 92.7205 12.3375 92.6261 12.6707C92.6841 12.7041 92.74 12.7375 92.8005 12.7724L92.8133 12.7814C92.1984 12.7719 91.5836 12.7761 90.9688 12.7788C90.9734 9.58689 90.9713 6.39501 90.9698 3.20365Z" fill="#0168B5"/>
    <path d="M67.2656 3.20312L67.3457 3.21531C67.3886 3.41133 67.3753 3.61264 67.3733 3.8113C67.3799 6.67208 67.3702 9.53286 67.3794 12.3936C67.3748 12.5218 67.3615 12.6495 67.3365 12.7756L67.2661 12.7947C67.2707 9.59749 67.2723 6.40031 67.2656 3.20312Z" fill="#B0B7BF"/>
    <path d="M92.6804 8.30208C92.7973 8.17865 92.9681 8.25546 93.106 8.28778C93.1291 8.65173 93.3527 8.94311 93.5588 9.22124C93.7373 9.50096 93.9649 9.76585 94.029 10.1044C93.645 9.57725 93.2998 9.02046 92.9352 8.47956C92.8911 8.41069 92.847 8.34288 92.8035 8.2756C92.785 9.77538 92.7917 11.2762 92.7994 12.776C92.7388 12.7411 92.6829 12.7077 92.625 12.6743C92.7194 12.3411 92.6701 11.9914 92.6819 11.6497C92.6988 10.9255 92.6753 10.2013 92.6799 9.47712C92.6881 9.2223 92.7127 8.96536 92.6701 8.7116C92.6624 8.57757 92.6137 8.42552 92.6804 8.30208Z" fill="#0168B5"/>
    <path d="M95.5547 3.29177C95.5967 3.16809 95.728 3.21958 95.8208 3.20684C96.5018 3.2079 97.1828 3.21427 97.8638 3.20312C97.8007 3.29124 97.7392 3.37935 97.6731 3.46374C97.6802 3.40429 97.6879 3.34538 97.6961 3.28593C96.9823 3.28009 96.268 3.27478 95.5547 3.29177Z" fill="#0168B5"/>
    <path d="M5.78387 7.36921C6.51461 6.50356 7.18331 5.58493 7.91302 4.71875C8.90119 5.64638 9.62321 6.88234 9.90371 8.23539C10.1991 9.62922 10.0458 11.1301 9.4345 12.4142C8.90016 13.5718 8.00174 14.5386 6.92332 15.1691C5.9372 15.738 4.79981 16.022 3.67319 15.9939C2.35273 15.9325 1.04509 15.4689 0 14.6266C0.906631 13.5072 1.7989 12.375 2.6963 11.2477C2.94091 10.9775 3.15116 10.6782 3.38397 10.3979C3.946 9.67213 4.52905 8.96383 5.09262 8.2391C5.33979 7.96308 5.55106 7.6574 5.78387 7.36921Z" fill="#1AB7EA"/>
</svg>
