<svg width="129" height="22" viewBox="0 0 129 22" fill="none" xmlns="http://www.w3.org/2000/svg">
    <path d="M116.844 1.87754C117.208 0.707486 118.792 0.707484 119.156 1.87754L120.683 6.78939C120.846 7.31265 121.313 7.66693 121.839 7.66693H126.782C127.96 7.66693 128.449 9.24124 127.497 9.96437L123.498 13.0001C123.072 13.3235 122.894 13.8967 123.056 14.42L124.584 19.3318C124.948 20.5019 123.666 21.4748 122.713 20.7517L118.714 17.716C118.288 17.3926 117.712 17.3926 117.286 17.716L113.287 20.7517C112.334 21.4748 111.052 20.5019 111.416 19.3318L112.944 14.42C113.106 13.8967 112.928 13.3235 112.502 13.0001L108.503 9.96437C107.551 9.24124 108.04 7.66693 109.218 7.66693H114.161C114.687 7.66693 115.154 7.31265 115.317 6.78939L116.844 1.87754Z" stroke="#B0B7BF"/>
    <path d="M89.844 1.87754C90.2079 0.707486 91.7921 0.707484 92.156 1.87754L93.6834 6.78939C93.8461 7.31265 94.3128 7.66693 94.8394 7.66693H99.7822C100.96 7.66693 101.449 9.24124 100.497 9.96437L96.4978 13.0001C96.0718 13.3235 95.8935 13.8967 96.0563 14.42L97.5837 19.3318C97.9475 20.5019 96.6658 21.4748 95.7133 20.7517L91.7144 17.716C91.2884 17.3926 90.7116 17.3926 90.2856 17.716L86.2867 20.7517C85.3342 21.4748 84.0525 20.5019 84.4163 19.3318L85.9437 14.42C86.1065 13.8967 85.9282 13.3235 85.5022 13.0001L81.5034 9.96437C80.5508 9.24124 81.0403 7.66693 82.2178 7.66693H87.1606C87.6872 7.66693 88.1539 7.31265 88.3166 6.78939L89.844 1.87754Z" stroke="#B0B7BF"/>
    <path d="M62.844 1.87754C63.2079 0.707486 64.7921 0.707484 65.156 1.87754L66.6834 6.78939C66.8461 7.31265 67.3128 7.66693 67.8394 7.66693H72.7822C73.9597 7.66693 74.4492 9.24123 73.4966 9.96437L69.4978 13.0001C69.0718 13.3235 68.8935 13.8967 69.0563 14.42L70.5837 19.3318C70.9475 20.5019 69.6658 21.4748 68.7133 20.7517L64.7144 17.716C64.2884 17.3926 63.7116 17.3926 63.2856 17.716L59.2867 20.7517C58.3342 21.4748 57.0525 20.5019 57.4163 19.3318L58.9437 14.42C59.1065 13.8967 58.9282 13.3235 58.5022 13.0001L54.5034 9.96437C53.5508 9.24124 54.0403 7.66693 55.2178 7.66693H60.1606C60.6872 7.66693 61.1539 7.31265 61.3166 6.78939L62.844 1.87754Z" fill="#FBC400"/>
    <path d="M35.844 1.87754C36.2079 0.707486 37.7921 0.707484 38.156 1.87754L39.6834 6.78939C39.8461 7.31265 40.3128 7.66693 40.8394 7.66693H45.7822C46.9597 7.66693 47.4492 9.24123 46.4966 9.96437L42.4978 13.0001C42.0718 13.3235 41.8935 13.8967 42.0563 14.42L43.5837 19.3318C43.9475 20.5019 42.6658 21.4748 41.7133 20.7517L37.7144 17.716C37.2884 17.3926 36.7116 17.3926 36.2856 17.716L32.2867 20.7517C31.3342 21.4748 30.0525 20.5019 30.4163 19.3318L31.9437 14.42C32.1065 13.8967 31.9282 13.3235 31.5022 13.0001L27.5034 9.96437C26.5508 9.24124 27.0403 7.66693 28.2178 7.66693H33.1606C33.6872 7.66693 34.1539 7.31265 34.3166 6.78939L35.844 1.87754Z" fill="#FBC400"/>
    <path d="M8.84403 1.87754C9.20788 0.707486 10.7921 0.707484 11.156 1.87754L12.6834 6.78939C12.8461 7.31265 13.3128 7.66693 13.8394 7.66693H18.7822C19.9597 7.66693 20.4492 9.24123 19.4966 9.96437L15.4978 13.0001C15.0718 13.3235 14.8935 13.8967 15.0563 14.42L16.5837 19.3318C16.9475 20.5019 15.6658 21.4748 14.7133 20.7517L10.7144 17.716C10.2884 17.3926 9.71157 17.3926 9.28557 17.716L5.28673 20.7517C4.33415 21.4748 3.05247 20.5019 3.41632 19.3318L4.94375 14.42C5.10647 13.8967 4.92821 13.3235 4.50221 13.0001L0.50336 9.96437C-0.449211 9.24124 0.0403441 7.66693 1.21779 7.66693H6.16063C6.6872 7.66693 7.15389 7.31265 7.31661 6.78939L8.84403 1.87754Z" fill="#FBC400"/>
</svg>
