<svg width="120" height="139" viewBox="0 0 120 139" fill="none" xmlns="http://www.w3.org/2000/svg">
    <g clip-path="url(#clip0_162_37679)">
        <path d="M34.75 52.125C14.9367 52.125 0 60.8415 0 72.3958V118.729C0 130.284 14.9367 139 34.75 139C54.5633 139 69.5 130.284 69.5 118.729V72.3958C69.5 60.8415 54.5633 52.125 34.75 52.125ZM57.9167 95.5625C57.9167 98.6263 49.1191 104.25 34.75 104.25C20.3809 104.25 11.5833 98.6263 11.5833 95.5625V87.7553C17.6414 90.8423 25.686 92.6667 34.75 92.6667C43.814 92.6667 51.8586 90.8423 57.9167 87.7553V95.5625ZM34.75 63.7083C49.1191 63.7083 57.9167 69.332 57.9167 72.3958C57.9167 75.4596 49.1191 81.0833 34.75 81.0833C20.3809 81.0833 11.5833 75.4596 11.5833 72.3958C11.5833 69.332 20.3809 63.7083 34.75 63.7083ZM34.75 127.417C20.3809 127.417 11.5833 121.793 11.5833 118.729V110.922C17.6414 114.009 25.686 115.833 34.75 115.833C43.814 115.833 51.8586 114.009 57.9167 110.922V118.729C57.9167 121.793 49.1191 127.417 34.75 127.417ZM139 28.9583V110.042C139 126.009 126.009 139 110.042 139H81.0833C77.8805 139 75.2917 136.405 75.2917 133.208C75.2917 130.011 77.8805 127.417 81.0833 127.417H110.042C119.621 127.417 127.417 119.621 127.417 110.042V28.9583C127.417 19.3789 119.621 11.5833 110.042 11.5833H52.125C42.5456 11.5833 34.75 19.3789 34.75 28.9583V34.75C34.75 37.947 32.1611 40.5417 28.9583 40.5417C25.7555 40.5417 23.1667 37.947 23.1667 34.75V28.9583C23.1667 12.9907 36.1574 0 52.125 0H110.042C126.009 0 139 12.9907 139 28.9583ZM75.2917 57.9167C72.0889 57.9167 69.5 55.322 69.5 52.125C69.5 48.928 72.0889 46.3333 75.2917 46.3333H104.25V34.75H57.9167V37.6458C57.9167 40.8428 55.3278 43.4375 52.125 43.4375C48.9222 43.4375 46.3333 40.8428 46.3333 37.6458V34.75C46.3333 28.3618 51.5285 23.1667 57.9167 23.1667H104.25C110.638 23.1667 115.833 28.3618 115.833 34.75V46.3333C115.833 52.7215 110.638 57.9167 104.25 57.9167H75.2917ZM81.0833 104.25C81.0833 101.053 83.6722 98.4583 86.875 98.4583H110.042C113.244 98.4583 115.833 101.053 115.833 104.25C115.833 107.447 113.244 110.042 110.042 110.042H86.875C83.6722 110.042 81.0833 107.447 81.0833 104.25ZM81.0833 81.0833V75.2917C81.0833 72.0947 83.6722 69.5 86.875 69.5C90.0778 69.5 92.6667 72.0947 92.6667 75.2917V81.0833C92.6667 84.2803 90.0778 86.875 86.875 86.875C83.6722 86.875 81.0833 84.2803 81.0833 81.0833ZM115.833 81.0833C115.833 84.2803 113.244 86.875 110.042 86.875C106.839 86.875 104.25 84.2803 104.25 81.0833V75.2917C104.25 72.0947 106.839 69.5 110.042 69.5C113.244 69.5 115.833 72.0947 115.833 75.2917V81.0833Z" fill="#777777"/>
    </g>
    <defs>
        <clipPath id="clip0_162_37679">
            <rect width="139" height="139" fill="white"/>
        </clipPath>
    </defs>
</svg>
