<svg width="120" height="145" viewBox="0 0 120 145" fill="none" xmlns="http://www.w3.org/2000/svg">
    <g clip-path="url(#clip0_162_37661)">
        <path d="M33.2344 102.711C38.2395 102.711 42.2969 98.6535 42.2969 93.6484C42.2969 88.6434 38.2395 84.5859 33.2344 84.5859C28.2293 84.5859 24.1719 88.6434 24.1719 93.6484C24.1719 98.6535 28.2293 102.711 33.2344 102.711Z" fill="#777777"/>
        <path d="M114.792 18.125H30.2083C22.1995 18.1346 14.5215 21.3203 8.85841 26.9834C3.19533 32.6465 0.00959331 40.3245 0 48.3333L0 96.6667C0.00959331 104.675 3.19533 112.354 8.85841 118.017C14.5215 123.68 22.1995 126.865 30.2083 126.875H114.792C122.8 126.865 130.479 123.68 136.142 118.017C141.805 112.354 144.99 104.675 145 96.6667V48.3333C144.99 40.3245 141.805 32.6465 136.142 26.9834C130.479 21.3203 122.8 18.1346 114.792 18.125ZM30.2083 30.2083H114.792C119.599 30.2083 124.209 32.1179 127.608 35.517C131.007 38.9161 132.917 43.5263 132.917 48.3333H12.0833C12.0833 43.5263 13.9929 38.9161 17.392 35.517C20.7911 32.1179 25.4013 30.2083 30.2083 30.2083ZM114.792 114.792H30.2083C25.4013 114.792 20.7911 112.882 17.392 109.483C13.9929 106.084 12.0833 101.474 12.0833 96.6667V60.4167H132.917V96.6667C132.917 101.474 131.007 106.084 127.608 109.483C124.209 112.882 119.599 114.792 114.792 114.792Z" fill="#777777"/>
    </g>
    <defs>
        <clipPath id="clip0_162_37661">
            <rect width="145" height="145" fill="white"/>
        </clipPath>
    </defs>
</svg>
