<svg width="30" height="30" viewBox="0 0 30 30" fill="none" xmlns="http://www.w3.org/2000/svg">
    <path d="M28.8425 4.80194C28.4999 4.65992 28.1228 4.62271 27.759 4.69502C27.3952 4.76734 27.061 4.94592 26.7987 5.20819L22.16 9.84819L16.3263 4.01444C16.1521 3.84021 15.9454 3.70199 15.7178 3.60768C15.4902 3.51338 15.2463 3.46484 15 3.46484C14.7537 3.46484 14.5098 3.51338 14.2822 3.60768C14.0546 3.70199 13.8479 3.84021 13.6737 4.01444L7.84 9.84819L3.20125 5.20819C2.93902 4.9458 2.60485 4.76709 2.24103 4.69467C1.8772 4.62225 1.50007 4.65938 1.15735 4.80137C0.814637 4.94335 0.52174 5.18381 0.315724 5.4923C0.109708 5.8008 -0.000167958 6.16348 1.9271e-07 6.53444V20.6244C0.00231551 22.4471 0.727387 24.1944 2.0162 25.4832C3.30501 26.7721 5.05235 27.4971 6.875 27.4994H23.125C24.9477 27.4971 26.695 26.7721 27.9838 25.4832C29.2726 24.1944 29.9977 22.4471 30 20.6244V6.53444C30 6.16356 29.8901 5.801 29.6841 5.49261C29.478 5.18422 29.1852 4.94387 28.8425 4.80194ZM26.25 20.6244C26.25 21.4532 25.9208 22.2481 25.3347 22.8342C24.7487 23.4202 23.9538 23.7494 23.125 23.7494H6.875C6.0462 23.7494 5.25134 23.4202 4.66529 22.8342C4.07924 22.2481 3.75 21.4532 3.75 20.6244V11.0607L6.515 13.8257C6.86661 14.1772 7.34344 14.3747 7.84062 14.3747C8.33781 14.3747 8.81464 14.1772 9.16625 13.8257L15 7.99194L20.8337 13.8257C21.1854 14.1772 21.6622 14.3747 22.1594 14.3747C22.6566 14.3747 23.1334 14.1772 23.485 13.8257L26.25 11.0607V20.6244Z" fill="url(#paint0_linear_799_6674)"/>
    <defs>
        <linearGradient id="paint0_linear_799_6674" x1="15" y1="3.46484" x2="15" y2="27.4994" gradientUnits="userSpaceOnUse">
            <stop stop-color="#F910E9"/>
            <stop offset="1" stop-color="#CA18EC"/>
        </linearGradient>
    </defs>
</svg>

