<svg width="92" height="92" viewBox="0 0 92 92" fill="none" xmlns="http://www.w3.org/2000/svg">
    <rect width="92" height="92" rx="10" fill="#F6F6F6"/>
    <path d="M46.4497 15.5593C53.8887 13.9991 62.0046 15.744 67.9984 20.2831C64.2437 24.5901 60.6189 29.0018 56.8494 33.2965C53.8206 36.653 51.0451 40.2128 48.012 43.5672C47.0457 44.684 46.1688 45.8686 45.1428 46.9381C42.8036 49.7465 40.3836 52.4913 38.0508 55.3038C37.0844 56.3898 36.2118 57.5497 35.1965 58.5966C31.0396 55.1765 28.181 50.3768 26.9465 45.263C25.7525 40.0732 26.2037 34.4975 28.4748 29.632C29.9115 26.4582 32.0953 23.6273 34.7197 21.2767C38.0657 18.4888 42.1076 16.4359 46.4497 15.5593Z" fill="#9FD067"/>
    <path d="M48.007 43.5715C51.0401 40.2171 53.8156 36.6573 56.8445 33.3008C60.946 36.8954 63.9429 41.6849 65.1072 46.928C66.3332 52.3293 65.6968 58.1452 63.1596 63.1215C60.9418 67.6071 57.2127 71.3537 52.7365 73.7966C48.6434 76.0015 43.9225 77.1018 39.2462 76.993C33.7654 76.7549 28.3378 74.9586 24 71.6944C27.7631 67.3566 31.4667 62.9695 35.1915 58.6009C36.2068 57.5539 37.0795 56.394 38.0458 55.3081C40.3786 52.4956 42.7987 49.7508 45.1379 46.9424C46.1638 45.8728 47.0407 44.6883 48.007 43.5715Z" fill="#1AB7EA"/>
    <path d="M92.0013 84.5006C92.0013 83.4406 91.4638 82.5062 90.6463 81.955C90.8344 80.9875 90.5538 79.9469 89.8044 79.1969C89.055 78.4475 88.0144 78.1669 87.0463 78.355C86.495 77.5375 85.5606 77 84.5006 77C83.4406 77 82.5062 77.5375 81.955 78.355C80.9875 78.1669 79.9462 78.4475 79.1969 79.1969C78.4475 79.9462 78.1669 80.9869 78.355 81.955C77.5375 82.5062 77 83.4406 77 84.5006C77 85.5606 77.5375 86.495 78.355 87.0462C78.1669 88.0138 78.4475 89.055 79.1969 89.8044C79.9462 90.5538 80.9869 90.8344 81.955 90.6462C82.5062 91.4637 83.4406 92.0012 84.5006 92.0012C85.5606 92.0012 86.495 91.4637 87.0463 90.6462C88.0138 90.8344 89.055 90.5538 89.8044 89.8044C90.5538 89.055 90.8344 88.0144 90.6463 87.0462C91.4638 86.495 92.0013 85.5606 92.0013 84.5006ZM84.4444 86.6375C84.2025 86.8794 83.8844 87 83.565 87C83.2456 87 82.9244 86.8781 82.68 86.6344L80.9412 84.9494L81.8119 84.0513L83.5575 85.7431L87.1881 82.18L88.0656 83.0706L84.4444 86.6375Z" fill="url(#paint0_linear_707_6687)"/>
    <defs>
        <linearGradient id="paint0_linear_707_6687" x1="84.5006" y1="77" x2="84.5006" y2="92.0012" gradientUnits="userSpaceOnUse">
            <stop stop-color="#F910E9"/>
            <stop offset="1" stop-color="#CA18EC"/>
        </linearGradient>
    </defs>
</svg>
