<svg width="17" height="17" viewBox="0 0 17 17" fill="none" xmlns="http://www.w3.org/2000/svg">
    <path d="M7.51742 0.745913C7.8267 -0.248636 9.1733 -0.248638 9.48257 0.745911L10.7809 4.92098C10.9192 5.36575 11.3159 5.66689 11.7635 5.66689H15.9649C16.9657 5.66689 17.3818 7.00505 16.5721 7.61972L13.1731 10.2C12.811 10.4749 12.6595 10.9622 12.7978 11.407L14.0961 15.582C14.4054 16.5766 13.316 17.4036 12.5063 16.7889L9.10726 14.2086C8.74516 13.9337 8.25484 13.9337 7.89274 14.2086L4.49372 16.7889C3.68403 17.4036 2.5946 16.5766 2.90388 15.582L4.20219 11.407C4.3405 10.9622 4.18898 10.4749 3.82688 10.2L0.427856 7.61972C-0.38183 7.00505 0.0342925 5.66689 1.03512 5.66689H5.23654C5.68412 5.66689 6.0808 5.36576 6.21911 4.92098L7.51742 0.745913Z" fill="#FBC400"/>
</svg>
