<svg width="40" height="40" viewBox="0 0 40 40" fill="none" xmlns="http://www.w3.org/2000/svg">
    <path d="M24.2324 9.12C26.2257 7.42 28.3307 4.87333 28.3307 1.66667V0H11.6641V1.66667C11.6641 4.87333 13.7691 7.41833 15.7624 9.12C7.92073 11.915 1.66406 21.8733 1.66406 30C1.66406 35.515 6.14906 40 11.6641 40H28.3307C33.8457 40 38.3307 35.515 38.3307 30C38.3307 21.8733 32.0741 11.915 24.2324 9.12ZM15.3424 3.33333H24.6474C23.7791 5.42667 21.4974 7.18333 20.0091 8.08667C18.7557 7.32 16.2574 5.56667 15.3441 3.33333H15.3424ZM28.3307 36.6667H11.6641C7.9874 36.6667 4.9974 33.6767 4.9974 30C4.9974 21.3983 12.6474 11.695 19.9941 11.695C27.3407 11.695 34.9974 21.4 34.9974 30C34.9974 33.6767 32.0074 36.6667 28.3307 36.6667ZM16.6641 21.6667C16.6641 22.2967 17.1157 22.83 17.7374 22.9333L22.8074 23.7783C25.0424 24.15 26.6657 26.0667 26.6657 28.3333C26.6657 31.09 24.4224 33.3333 21.6657 33.3333V35H18.3324V33.3333C15.5757 33.3333 13.3324 31.09 13.3324 28.3333H16.6657C16.6657 29.2517 17.4141 30 18.3324 30H21.6657C22.5841 30 23.3324 29.2517 23.3324 28.3333C23.3324 27.7033 22.8807 27.17 22.2591 27.0667L17.1891 26.2217C14.9541 25.85 13.3307 23.9333 13.3307 21.6667C13.3307 18.91 15.5741 16.6667 18.3307 16.6667V15H21.6641V16.6667C24.4207 16.6667 26.6641 18.91 26.6641 21.6667H23.3307C23.3307 20.7483 22.5824 20 21.6641 20H18.3307C17.4124 20 16.6641 20.7483 16.6641 21.6667Z" fill="#E7E7E7"/>
</svg>
