<svg width="40" height="40" viewBox="0 0 40 40" fill="none" xmlns="http://www.w3.org/2000/svg">
    <g clip-path="url(#clip0_58_14710)">
        <path d="M31.6667 3.33333H30V1.66667C30 0.746667 29.255 0 28.3333 0C27.4117 0 26.6667 0.746667 26.6667 1.66667V3.33333H13.3333V1.66667C13.3333 0.746667 12.5883 0 11.6667 0C10.745 0 10 0.746667 10 1.66667V3.33333H8.33333C3.73833 3.33333 0 7.07167 0 11.6667V31.6667C0 36.2617 3.73833 40 8.33333 40H31.6667C36.2617 40 40 36.2617 40 31.6667V11.6667C40 7.07167 36.2617 3.33333 31.6667 3.33333ZM8.33333 6.66667H31.6667C34.4233 6.66667 36.6667 8.91 36.6667 11.6667V13.3333H3.33333V11.6667C3.33333 8.91 5.57667 6.66667 8.33333 6.66667ZM31.6667 36.6667H8.33333C5.57667 36.6667 3.33333 34.4233 3.33333 31.6667V16.6667H36.6667V31.6667C36.6667 34.4233 34.4233 36.6667 31.6667 36.6667ZM29.72 20.92C30.36 21.5817 30.34 22.6383 29.6783 23.2767L21.7783 30.89C20.8567 31.8117 19.6 32.3333 18.265 32.3333C16.93 32.3333 15.6733 31.8133 14.73 30.8683L10.9767 27.3817C10.3033 26.755 10.2633 25.7 10.89 25.0267C11.52 24.3517 12.5733 24.315 13.245 24.94L17.0417 28.4683C17.7633 29.185 18.8133 29.1383 19.44 28.5117L27.3633 20.875C28.0267 20.2367 29.08 20.2567 29.72 20.9183V20.92Z" fill="#E7E7E7"/>
    </g>
    <defs>
        <clipPath id="clip0_58_14710">
            <rect width="40" height="40" fill="white"/>
        </clipPath>
    </defs>
</svg>
