<svg width="40" height="40" viewBox="0 0 40 40" fill="none" xmlns="http://www.w3.org/2000/svg">
    <g clip-path="url(#clip0_58_14718)">
        <path d="M40 26.6677V35.001C40 36.3271 39.4732 37.5989 38.5355 38.5366C37.5979 39.4743 36.3261 40.001 35 40.001H26.6667C24.3285 39.9986 22.0321 39.3814 20.0078 38.2113C17.9834 37.0412 16.3024 35.3593 15.1333 33.3344C16.3898 33.3254 17.642 33.1869 18.87 32.921C19.8052 34.0904 20.9917 35.0344 22.3413 35.683C23.691 36.3316 25.1693 36.6681 26.6667 36.6677H35C35.442 36.6677 35.866 36.4921 36.1785 36.1796C36.4911 35.867 36.6667 35.4431 36.6667 35.001V26.6677C36.6663 25.1698 36.3287 23.6911 35.6789 22.3414C35.0292 20.9917 34.084 19.8056 32.9133 18.871C33.1814 17.6432 33.3222 16.3911 33.3333 15.1344C35.3582 16.3035 37.0401 17.9845 38.2103 20.0088C39.3804 22.0331 39.9976 24.3295 40 26.6677ZM29.9617 16.086C30.1175 13.9388 29.8094 11.7831 29.0581 9.76553C28.3068 7.74795 27.13 5.91574 25.6076 4.3934C24.0853 2.87106 22.2531 1.69426 20.2355 0.942964C18.2179 0.191672 16.0623 -0.116507 13.915 0.0393689C10.1099 0.473923 6.59488 2.28466 4.03196 5.13061C1.46904 7.97655 0.0350453 11.6613 0 15.491L0 23.891C0 28.111 2.51167 30.001 5 30.001H14.5C18.3313 29.9681 22.0183 28.535 24.8663 25.972C27.7143 23.4089 29.5266 19.8927 29.9617 16.086ZM23.25 6.7527C24.4332 7.93854 25.3479 9.3647 25.9322 10.9347C26.5165 12.5047 26.7567 14.1818 26.6367 15.8527C26.2809 18.8255 24.8508 21.5657 22.6155 23.5576C20.3803 25.5495 17.494 26.6556 14.5 26.6677H5C3.45333 26.6677 3.33333 24.5427 3.33333 23.891V15.491C3.34723 12.4983 4.45441 9.61388 6.44653 7.3805C8.43864 5.14712 11.1783 3.71882 14.15 3.36437C14.4267 3.34437 14.7033 3.33437 14.98 3.33437C16.5154 3.33294 18.0361 3.6341 19.4551 4.22063C20.8741 4.80717 22.1637 5.66758 23.25 6.7527Z" fill="#E7E7E7"/>
    </g>
    <defs>
        <clipPath id="clip0_58_14718">
            <rect width="40" height="40" fill="white"/>
        </clipPath>
    </defs>
</svg>
