<svg width="390" height="130" viewBox="0 0 390 130" fill="none" xmlns="http://www.w3.org/2000/svg">
    <rect y="65.3594" width="390" height="136.634" fill="url(#paint0_radial_58_14210)"/>
    <path d="M53.9169 123.352C54.0986 122.768 54.8898 122.768 55.0715 123.352L55.8343 125.805C55.9156 126.066 56.1486 126.243 56.4116 126.243H58.8802C59.4682 126.243 59.7127 127.029 59.237 127.39L57.2399 128.906C57.0271 129.067 56.9381 129.354 57.0194 129.615L57.7822 132.068C57.9639 132.652 57.3238 133.138 56.8481 132.777L54.851 131.261C54.6382 131.099 54.3501 131.099 54.1374 131.261L52.1403 132.777C51.6646 133.138 51.0245 132.652 51.2062 132.068L51.969 129.615C52.0503 129.354 51.9612 129.067 51.7485 128.906L49.7514 127.39C49.2757 127.029 49.5201 126.243 50.1082 126.243H52.5767C52.8397 126.243 53.0728 126.066 53.154 125.805L53.9169 123.352Z" fill="#D3D3D3"/>
    <path d="M334.24 106.498C334.356 106.126 334.86 106.126 334.975 106.498L335.461 108.058C335.512 108.225 335.661 108.337 335.828 108.337H337.399C337.773 108.337 337.929 108.837 337.626 109.067L336.355 110.032C336.22 110.135 336.163 110.317 336.215 110.483L336.7 112.044C336.816 112.416 336.408 112.725 336.106 112.495L334.835 111.53C334.699 111.428 334.516 111.428 334.381 111.53L333.11 112.495C332.807 112.725 332.4 112.416 332.515 112.044L333.001 110.483C333.053 110.317 332.996 110.135 332.861 110.032L331.59 109.067C331.287 108.837 331.443 108.337 331.817 108.337H333.388C333.555 108.337 333.703 108.225 333.755 108.058L334.24 106.498Z" fill="#D3D3D3"/>
    <path d="M74.5451 97.8726C74.6607 97.5008 75.1642 97.5008 75.2799 97.8726L75.7653 99.4333C75.817 99.5996 75.9653 99.7122 76.1327 99.7122H77.7036C78.0778 99.7122 78.2334 100.212 77.9306 100.442L76.6598 101.407C76.5244 101.51 76.4677 101.692 76.5194 101.858L77.0049 103.419C77.1205 103.791 76.7132 104.1 76.4104 103.87L75.1395 102.905C75.0042 102.803 74.8208 102.803 74.6854 102.905L73.4146 103.87C73.1118 104.1 72.7045 103.791 72.8201 103.419L73.3056 101.858C73.3573 101.692 73.3006 101.51 73.1652 101.407L71.8943 100.442C71.5916 100.212 71.7472 99.7122 72.1214 99.7122H73.6923C73.8596 99.7122 74.008 99.5996 74.0597 99.4333L74.5451 97.8726Z" fill="#D3D3D3"/>
    <path d="M67.7326 51.5679C67.8482 51.1961 68.3517 51.1961 68.4674 51.5679L68.9528 53.1287C69.0045 53.2949 69.1528 53.4075 69.3202 53.4075H70.8911C71.2653 53.4075 71.4209 53.9077 71.1181 54.1375L69.8473 55.1021C69.7119 55.2049 69.6552 55.387 69.7069 55.5533L70.1924 57.1141C70.308 57.4859 69.9007 57.795 69.5979 57.5652L68.327 56.6006C68.1917 56.4979 68.0083 56.4979 67.8729 56.6006L66.6021 57.5652C66.2993 57.795 65.892 57.4859 66.0076 57.1141L66.4931 55.5533C66.5448 55.387 66.4881 55.2049 66.3527 55.1021L65.0818 54.1375C64.7791 53.9077 64.9347 53.4075 65.3089 53.4075H66.8798C67.0471 53.4075 67.1955 53.2949 67.2472 53.1287L67.7326 51.5679Z" fill="#D3D3D3"/>
    <path d="M357.544 123.628C357.61 123.416 357.897 123.416 357.963 123.628L358.241 124.52C358.27 124.615 358.355 124.679 358.451 124.679H359.348C359.562 124.679 359.651 124.965 359.478 125.096L358.752 125.648C358.675 125.706 358.642 125.81 358.672 125.905L358.949 126.797C359.015 127.01 358.783 127.186 358.61 127.055L357.883 126.504C357.806 126.445 357.701 126.445 357.624 126.504L356.898 127.055C356.725 127.186 356.492 127.01 356.558 126.797L356.835 125.905C356.865 125.81 356.832 125.706 356.755 125.648L356.029 125.096C355.856 124.965 355.945 124.679 356.159 124.679H357.056C357.152 124.679 357.237 124.615 357.266 124.52L357.544 123.628Z" fill="#D3D3D3"/>
    <path d="M357.414 69.5897C357.661 68.793 358.74 68.793 358.988 69.5897L360.028 72.9342C360.139 73.2905 360.457 73.5317 360.816 73.5317H364.182C364.984 73.5317 365.317 74.6037 364.668 75.096L361.945 77.163C361.655 77.3832 361.533 77.7736 361.644 78.1298L362.685 81.4743C362.932 82.271 362.059 82.9335 361.411 82.4411L358.687 80.3741C358.397 80.1539 358.004 80.1539 357.714 80.3741L354.991 82.4411C354.342 82.9335 353.469 82.271 353.717 81.4743L354.757 78.1298C354.868 77.7736 354.747 77.3832 354.457 77.163L351.733 75.096C351.085 74.6037 351.418 73.5317 352.22 73.5317H355.586C355.945 73.5317 356.263 73.2905 356.373 72.9342L357.414 69.5897Z" fill="#D3D3D3"/>
    <path d="M29.9567 78.1151C30.1632 77.4512 31.0622 77.4512 31.2687 78.1151L32.1356 80.9022C32.2279 81.1991 32.4928 81.4001 32.7916 81.4001H35.5968C36.265 81.4001 36.5428 82.2934 36.0022 82.7037L33.7328 84.4262C33.491 84.6097 33.3899 84.935 33.4822 85.2319L34.3491 88.019C34.5556 88.6829 33.8282 89.235 33.2876 88.8246L31.0182 87.1021C30.7764 86.9186 30.449 86.9186 30.2073 87.1021L27.9378 88.8246C27.3972 89.235 26.6698 88.6829 26.8763 88.019L27.7432 85.2319C27.8355 84.935 27.7344 84.6097 27.4926 84.4262L25.2232 82.7037C24.6826 82.2934 24.9604 81.4001 25.6286 81.4001H28.4338C28.7326 81.4001 28.9975 81.1991 29.0898 80.9022L29.9567 78.1151Z" fill="#D3D3D3"/>
    <path d="M205.901 172.456L86.2938 124.615C81.1668 122.56 81.3066 116.692 86.5471 113.763L168.903 67.7318C173.61 65.0997 179.489 64.6013 184.092 66.4464L303.699 114.287C308.826 116.342 308.686 122.21 303.446 125.139L221.09 171.17C216.382 173.802 210.504 174.301 205.901 172.456Z" fill="#16FAE0"/>
    <path d="M307.46 119.445C307.381 121.518 306.045 123.686 303.451 125.129L221.095 171.16C216.388 173.792 210.509 174.291 205.907 172.446L86.2992 124.613C83.7663 123.599 82.526 121.658 82.5348 119.594V134.215C82.4562 136.331 83.6964 138.342 86.2905 139.383L205.898 187.224C210.501 189.069 216.379 188.57 221.087 185.938L303.442 139.907C306.036 138.456 307.373 136.287 307.451 134.223V119.454L307.46 119.445Z" fill="url(#paint1_linear_58_14210)"/>
    <path d="M205.901 139.823L86.2938 91.9818C81.1668 89.9269 81.3066 84.0593 86.5471 81.1299L168.903 35.099C173.61 32.4669 179.489 31.9685 184.092 33.8136L303.699 81.6546C308.826 83.7096 308.686 89.5771 303.446 92.5065L221.09 138.537C216.382 141.17 210.504 141.668 205.901 139.823Z" fill="#FACC16"/>
    <path d="M307.46 86.8125C307.381 88.8849 306.045 91.0536 303.451 92.4964L221.095 138.527C216.388 141.159 210.509 141.658 205.907 139.813L86.2992 91.9805C83.7663 90.9661 82.526 89.0249 82.5348 86.9612V101.582C82.4562 103.698 83.6964 105.709 86.2905 106.75L205.898 154.591C210.501 156.436 216.379 155.938 221.087 153.305L303.442 107.275C306.036 105.823 307.373 103.654 307.451 101.591V86.8212L307.46 86.8125Z" fill="#DDA300"/>
    <path d="M205.901 107.565L86.2938 59.724C81.1668 57.6691 81.3066 51.8015 86.5471 48.8721L168.903 2.84121C173.61 0.209124 179.489 -0.289311 184.092 1.55577L303.699 49.3968C308.826 51.4518 308.686 57.3193 303.446 60.2487L221.09 106.28C216.382 108.912 210.504 109.41 205.901 107.565Z" fill="#F910E9"/>
    <path d="M307.46 54.5547C307.381 56.6271 306.045 58.7958 303.451 60.2386L221.095 106.27C216.388 108.902 210.509 109.4 205.907 107.555L86.2992 59.7227C83.7663 58.7083 82.526 56.767 82.5348 54.7033V69.3241C82.4562 71.4403 83.6964 73.4515 86.2905 74.4921L205.898 122.333C210.501 124.178 216.379 123.68 221.087 121.048L303.442 75.0168C306.036 73.5652 307.373 71.3965 307.451 69.3328V54.5634L307.46 54.5547Z" fill="#CA18EC"/>
    <path d="M178.267 17.3046L175.808 16.2828L174.37 16.7826L172.477 15.9957L180.151 13.6262L181.967 14.3809L179.631 18.9689L177.748 18.1864L178.267 17.3046ZM177.191 15.8088L178.764 16.4624L178.949 16.1601L179.714 14.9452L179.67 14.9268L177.686 15.6354L177.191 15.8088Z" fill="white"/>
    <path d="M180.395 19.2865L185.378 15.7986L187.117 16.5212L183.153 19.2952L186.775 20.8002L185.755 21.514L180.395 19.2864L180.395 19.2865Z" fill="white"/>
    <path d="M186.475 21.813L191.458 18.3251L193.197 19.0477L189.234 21.8217L192.855 23.3267L191.835 24.0405L186.475 21.8129L186.475 21.813Z" fill="white"/>
    <path d="M199.981 25.7641C199.768 25.9127 199.524 26.0302 199.247 26.1168C198.97 26.2034 198.67 26.2549 198.347 26.2712C198.024 26.2874 197.686 26.2643 197.335 26.2014C196.983 26.1386 196.626 26.0321 196.264 25.8818L192.555 24.34L197.538 20.8521L201.104 22.3341C201.503 22.4998 201.805 22.6671 202.011 22.8361C202.217 23.005 202.347 23.171 202.403 23.3338C202.458 23.4967 202.445 23.6524 202.362 23.801C202.28 23.9495 202.146 24.0879 201.963 24.2161C201.876 24.2769 201.764 24.3325 201.627 24.3831C201.49 24.4337 201.337 24.475 201.168 24.5069C200.999 24.5388 200.817 24.5571 200.621 24.5621C200.426 24.5671 200.227 24.5542 200.024 24.5235C200.15 24.6406 200.237 24.7589 200.285 24.8781C200.332 24.9973 200.348 25.1116 200.333 25.2209C200.318 25.3303 200.278 25.4322 200.214 25.5264C200.15 25.6207 200.072 25.7001 199.981 25.7641ZM200.006 23.5477C200.145 23.4499 200.197 23.3437 200.161 23.2291C200.124 23.1144 199.94 22.988 199.608 22.85L198.279 22.2977L197.375 22.9305L198.704 23.4828C199.014 23.6116 199.277 23.6765 199.493 23.6777C199.709 23.6788 199.88 23.6356 200.006 23.5477ZM198.13 24.9467C198.285 24.8387 198.346 24.7193 198.316 24.5882C198.285 24.4572 198.115 24.3272 197.805 24.1983L196.399 23.6138L195.335 24.358L196.742 24.9425C197.03 25.0622 197.295 25.1197 197.536 25.1153C197.778 25.1108 197.976 25.0547 198.13 24.9467Z" fill="white"/>
    <path d="M204.802 28.3321L202.343 27.3103L200.905 27.8102L199.012 27.0232L206.686 24.6537L208.502 25.4084L206.166 29.9964L204.283 29.214L204.802 28.3321ZM203.726 26.8363L205.299 27.4899L205.484 27.1876L206.249 25.9726L206.204 25.9542L204.221 26.663L203.726 26.8363Z" fill="white"/>
    <path d="M211.554 29.0411L208.69 31.0458L206.929 30.314L211.913 26.826L213.496 27.4842L213.562 28.8589L213.578 30.7132L213.611 30.727L216.475 28.7223L218.236 29.4541L213.253 32.942L211.677 32.2869L211.619 30.5686L211.61 29.0641L211.554 29.0411Z" fill="white"/>
    <path d="M219.26 33.1476L217.727 33.2446L216.331 34.2216L214.571 33.4898L219.554 30.0019L221.315 30.7337L219.369 32.0955L223.84 31.783L225.922 32.6482L221.327 32.9978L221.071 36.1913L219.011 35.3352L219.26 33.1474L219.26 33.1476Z" fill="white"/>
    <path d="M229.01 37.8608C228.76 38.0363 228.46 38.1554 228.112 38.2176C227.764 38.28 227.389 38.2977 226.987 38.2703C226.584 38.2429 226.166 38.1738 225.73 38.0627C225.295 37.9515 224.87 37.8102 224.457 37.6384C224.176 37.5217 223.914 37.4021 223.672 37.2799C223.429 37.1574 223.211 37.0279 223.018 36.8913C222.825 36.7546 222.653 36.6052 222.502 36.443C222.351 36.2808 222.226 36.1034 222.124 35.9108L223.956 35.7281C224.112 35.9813 224.315 36.2039 224.564 36.3962C224.813 36.5883 225.104 36.7536 225.436 36.8916C225.68 36.9929 225.897 37.0671 226.089 37.1144C226.28 37.1616 226.448 37.19 226.594 37.1993C226.739 37.2088 226.859 37.2033 226.953 37.1831C227.046 37.1628 227.117 37.1358 227.166 37.1021C227.238 37.0515 227.274 36.9953 227.274 36.9335C227.274 36.8717 227.232 36.7963 227.147 36.7073C227.062 36.6183 226.935 36.5118 226.766 36.3875C226.596 36.2633 226.378 36.1133 226.111 35.9378C225.819 35.7467 225.577 35.5664 225.383 35.3973C225.19 35.2281 225.055 35.0646 224.98 34.9071C224.905 34.7496 224.897 34.5969 224.955 34.4489C225.014 34.301 225.151 34.1511 225.368 33.9992C225.585 33.8474 225.867 33.7264 226.184 33.6567C226.502 33.5868 226.848 33.5587 227.223 33.5721C227.598 33.5855 227.991 33.64 228.402 33.7353C228.813 33.8308 229.221 33.9629 229.627 34.1316C230.07 34.3157 230.481 34.5161 230.86 34.7327C231.239 34.9493 231.56 35.2252 231.823 35.5602L230.111 35.8814C229.898 35.6265 229.662 35.4233 229.402 35.272C229.141 35.1208 228.859 34.9822 228.557 34.8565C228.276 34.7398 228.019 34.6666 227.785 34.6367C227.551 34.6069 227.365 34.6408 227.225 34.7386C227.162 34.7825 227.133 34.8336 227.138 34.892C227.143 34.9504 227.187 35.0242 227.272 35.1132C227.357 35.2023 227.483 35.3072 227.652 35.4282C227.82 35.5493 228.03 35.6945 228.282 35.8637C228.683 36.127 228.976 36.358 229.163 36.5566C229.35 36.7553 229.459 36.9324 229.49 37.0878C229.521 37.2433 229.489 37.3832 229.393 37.5075C229.298 37.6318 229.171 37.7497 229.012 37.8611L229.01 37.8608Z" fill="white"/>
    <defs>
        <radialGradient id="paint0_radial_58_14210" cx="0" cy="0" r="1" gradientUnits="userSpaceOnUse" gradientTransform="translate(195 133.676) rotate(110.89) scale(66.5097 172.258)">
            <stop stop-color="white"/>
            <stop offset="1" stop-color="#E7E7E7"/>
        </radialGradient>
        <linearGradient id="paint1_linear_58_14210" x1="82.5348" y1="153.881" x2="307.469" y2="153.881" gradientUnits="userSpaceOnUse">
            <stop stop-color="#00BABB"/>
            <stop offset="1" stop-color="#00BABB"/>
        </linearGradient>
    </defs>
</svg>
