<svg width="920" height="301" viewBox="0 0 920 301" fill="none" xmlns="http://www.w3.org/2000/svg">
    <mask id="mask0_58_14569" style="mask-type:alpha" maskUnits="userSpaceOnUse" x="0" y="0" width="920" height="301">
        <rect width="920" height="301" fill="#D9D9D9"/>
    </mask>
    <g mask="url(#mask0_58_14569)">
        <rect x="30" y="144" width="860" height="301" fill="url(#paint0_radial_58_14569)"/>
        <path d="M148.888 284.965C149.289 283.678 151.034 283.678 151.434 284.965L153.116 290.368C153.296 290.944 153.81 291.334 154.389 291.334H159.833C161.13 291.334 161.669 293.065 160.62 293.861L156.216 297.2C155.747 297.556 155.55 298.186 155.73 298.762L157.412 304.165C157.812 305.452 156.401 306.522 155.352 305.727L150.948 302.388C150.479 302.032 149.844 302.032 149.374 302.388L144.971 305.727C143.922 306.522 142.51 305.452 142.911 304.165L144.593 298.762C144.772 298.186 144.576 297.556 144.107 297.2L139.703 293.861C138.654 293.065 139.193 291.334 140.49 291.334H145.933C146.513 291.334 147.027 290.944 147.206 290.368L148.888 284.965Z" fill="#696767"/>
        <path d="M767.05 234.614C767.305 233.795 768.415 233.795 768.67 234.614L769.74 238.053C769.854 238.419 770.181 238.667 770.55 238.667H774.014C774.84 238.667 775.183 239.769 774.515 240.275L771.713 242.4C771.414 242.626 771.289 243.028 771.403 243.394L772.474 246.832C772.729 247.651 771.83 248.332 771.163 247.826L768.36 245.701C768.062 245.475 767.658 245.475 767.359 245.701L764.557 247.826C763.889 248.332 762.991 247.651 763.246 246.832L764.316 243.394C764.43 243.028 764.305 242.626 764.007 242.4L761.204 240.275C760.537 239.769 760.88 238.667 761.705 238.667H765.169C765.538 238.667 765.865 238.419 765.979 238.053L767.05 234.614Z" fill="#777777"/>
        <path d="M194.386 215.614C194.641 214.795 195.751 214.795 196.006 215.614L197.076 219.053C197.19 219.419 197.517 219.667 197.886 219.667H201.35C202.176 219.667 202.519 220.769 201.851 221.275L199.049 223.4C198.75 223.626 198.625 224.028 198.739 224.394L199.81 227.832C200.065 228.651 199.166 229.332 198.499 228.826L195.696 226.701C195.398 226.475 194.994 226.475 194.695 226.701L191.893 228.826C191.225 229.332 190.327 228.651 190.582 227.832L191.652 224.394C191.766 224.028 191.641 223.626 191.343 223.4L188.54 221.275C187.873 220.769 188.216 219.667 189.041 219.667H192.505C192.874 219.667 193.201 219.419 193.315 219.053L194.386 215.614Z" fill="#777777"/>
        <path d="M179.362 113.614C179.617 112.795 180.727 112.795 180.982 113.614L182.053 117.053C182.167 117.419 182.494 117.667 182.863 117.667H186.327C187.152 117.667 187.495 118.769 186.828 119.275L184.025 121.4C183.727 121.626 183.602 122.028 183.716 122.394L184.786 125.832C185.041 126.651 184.143 127.332 183.475 126.826L180.673 124.701C180.374 124.475 179.97 124.475 179.672 124.701L176.869 126.826C176.202 127.332 175.303 126.651 175.558 125.832L176.629 122.394C176.743 122.028 176.618 121.626 176.319 121.4L173.517 119.275C172.849 118.769 173.192 117.667 174.018 117.667H177.482C177.851 117.667 178.178 117.419 178.292 117.053L179.362 113.614Z" fill="#777777"/>
        <path d="M818.432 272.351C818.578 271.883 819.212 271.883 819.358 272.351L819.97 274.316C820.035 274.525 820.222 274.667 820.433 274.667H822.412C822.884 274.667 823.08 275.296 822.698 275.586L821.097 276.8C820.926 276.929 820.855 277.159 820.92 277.368L821.532 279.333C821.678 279.801 821.164 280.19 820.783 279.901L819.181 278.686C819.011 278.557 818.78 278.557 818.609 278.686L817.008 279.901C816.626 280.19 816.113 279.801 816.259 279.333L816.87 277.368C816.936 277.159 816.864 276.929 816.694 276.8L815.092 275.586C814.711 275.296 814.907 274.667 815.378 274.667H817.358C817.569 274.667 817.756 274.525 817.821 274.316L818.432 272.351Z" fill="#6F6F6F"/>
        <path d="M818.149 153.316C818.695 151.561 821.074 151.561 821.621 153.316L823.914 160.684C824.159 161.469 824.86 162 825.65 162H833.073C834.842 162 835.577 164.362 834.146 165.447L828.141 170C827.501 170.485 827.233 171.345 827.478 172.13L829.772 179.498C830.318 181.253 828.393 182.712 826.963 181.628L820.958 177.074C820.318 176.589 819.452 176.589 818.812 177.074L812.807 181.628C811.376 182.712 809.451 181.253 809.998 179.498L812.291 172.13C812.536 171.345 812.268 170.485 811.628 170L805.623 165.447C804.193 164.362 804.928 162 806.696 162H814.119C814.91 162 815.611 161.469 815.855 160.684L818.149 153.316Z" fill="#5D5D5D"/>
        <path d="M96.0679 172.097C96.5232 170.634 98.5059 170.634 98.9612 172.097L100.873 178.237C101.076 178.891 101.66 179.334 102.319 179.334H108.505C109.979 179.334 110.591 181.302 109.399 182.205L104.395 186C103.862 186.404 103.639 187.121 103.842 187.775L105.754 193.915C106.209 195.377 104.605 196.594 103.413 195.69L98.4086 191.895C97.8755 191.491 97.1536 191.491 96.6205 191.895L91.6161 195.69C90.424 196.594 88.82 195.377 89.2754 193.915L91.1869 187.775C91.3905 187.121 91.1674 186.404 90.6343 186L85.6299 182.205C84.4378 181.302 85.0505 179.334 86.524 179.334H92.7098C93.3687 179.334 93.9528 178.891 94.1564 178.237L96.0679 172.097Z" fill="#5B5B5B"/>
        <path d="M484.046 379.917L220.297 274.525C208.991 269.998 209.299 257.072 220.856 250.618L402.46 149.214C412.841 143.416 425.803 142.318 435.954 146.382L699.703 251.774C711.009 256.301 710.701 269.227 699.144 275.681L517.54 377.085C507.159 382.883 494.197 383.981 484.046 379.917Z" fill="#16FAE0"/>
        <path d="M707.997 263.141C707.823 267.706 704.877 272.484 699.156 275.662L517.552 377.067C507.171 382.865 494.208 383.963 484.058 379.898L220.309 274.526C214.723 272.291 211.988 268.014 212.008 263.468V295.677C211.834 300.339 214.569 304.77 220.29 307.062L484.039 412.454C494.189 416.519 507.151 415.421 517.533 409.622L699.137 308.218C704.857 305.02 707.804 300.243 707.978 295.696V263.16L707.997 263.141Z" fill="url(#paint1_linear_58_14569)"/>
        <path d="M484.046 308.026L220.297 202.634C208.991 198.107 209.299 185.181 220.856 178.728L402.46 77.3234C412.841 71.525 425.803 70.4269 435.954 74.4916L699.703 179.884C711.009 184.411 710.701 197.337 699.144 203.79L517.54 305.194C507.159 310.993 494.197 312.091 484.046 308.026Z" fill="#FACC16"/>
        <path d="M707.997 191.242C707.823 195.808 704.877 200.585 699.156 203.764L517.552 305.168C507.171 310.966 494.208 312.064 484.058 308L220.309 202.627C214.723 200.392 211.988 196.116 212.008 191.57V223.779C211.834 228.441 214.569 232.871 220.29 235.164L484.039 340.556C494.189 344.62 507.151 343.522 517.533 337.724L699.137 236.319C704.857 233.122 707.804 228.344 707.978 223.798V191.261L707.997 191.242Z" fill="#DDA300"/>
        <path d="M484.046 236.964L220.297 131.572C208.991 127.045 209.299 114.119 220.856 107.665L402.46 6.26087C412.841 0.462475 425.803 -0.63556 435.954 3.42909L699.703 108.821C711.009 113.348 710.701 126.274 699.144 132.727L517.54 234.132C507.159 239.93 494.197 241.028 484.046 236.964Z" fill="#F910E9"/>
        <path d="M707.997 120.188C707.823 124.753 704.877 129.53 699.156 132.709L517.552 234.113C507.171 239.912 494.208 241.01 484.058 236.945L220.309 131.572C214.723 129.338 211.988 125.061 212.008 120.515V152.724C211.834 157.386 214.569 161.816 220.29 164.109L484.039 269.501C494.189 273.566 507.151 272.468 517.533 266.669L699.137 165.265C704.857 162.067 707.804 157.289 707.978 152.743V120.207L707.997 120.188Z" fill="#CA18EC"/>
        <path d="M423.104 38.1155L417.682 35.8645L414.512 36.9656L410.336 35.2318L427.26 30.0119L431.265 31.6747L426.112 41.7817L421.961 40.0581L423.104 38.1155ZM420.733 34.8203L424.201 36.2601L424.608 35.5941L426.296 32.9177L426.198 32.8772L421.825 34.4383L420.733 34.8203Z" fill="white"/>
        <path d="M427.797 42.4815L438.786 34.7978L442.62 36.3896L433.88 42.5007L441.866 45.8162L439.617 47.3885L427.797 42.4812L427.797 42.4815Z" fill="white"/>
        <path d="M441.205 48.0473L452.194 40.3636L456.028 41.9554L447.288 48.0665L455.273 51.382L453.025 52.9543L441.205 48.047L441.205 48.0473Z" fill="white"/>
        <path d="M470.986 56.7514C470.518 57.0787 469.979 57.3376 469.369 57.5284C468.759 57.7191 468.097 57.8326 467.384 57.8684C466.671 57.9043 465.927 57.8533 465.151 57.7147C464.376 57.5764 463.589 57.3418 462.792 57.0106L454.611 53.6142L465.6 45.9304L473.464 49.1953C474.343 49.5604 475.009 49.9288 475.463 50.3011C475.917 50.6732 476.205 51.0388 476.328 51.3976C476.45 51.7564 476.42 52.0994 476.238 52.4267C476.056 52.7538 475.762 53.0588 475.358 53.3412C475.167 53.4751 474.919 53.5976 474.618 53.709C474.315 53.8205 473.978 53.9115 473.605 53.9818C473.232 54.052 472.83 54.0925 472.399 54.1035C471.969 54.1145 471.529 54.086 471.081 54.0184C471.36 54.2764 471.552 54.5369 471.657 54.7995C471.761 55.0622 471.797 55.3139 471.764 55.5548C471.73 55.7957 471.643 56.0202 471.501 56.2278C471.36 56.4355 471.188 56.6104 470.986 56.7514ZM471.042 51.8688C471.35 51.6533 471.464 51.4194 471.384 51.1668C471.303 50.9142 470.897 50.6358 470.165 50.3316L467.234 49.115L465.241 50.5091L468.171 51.7258C468.855 52.0096 469.435 52.1525 469.912 52.1551C470.388 52.1575 470.765 52.0624 471.042 51.8688ZM466.906 54.9507C467.246 54.7128 467.383 54.4497 467.315 54.1609C467.247 53.8723 466.873 53.5859 466.189 53.3021L463.088 52.0145L460.743 53.6538L463.844 54.9414C464.48 55.2051 465.063 55.3319 465.597 55.3222C466.129 55.3122 466.566 55.1886 466.906 54.9507Z" fill="white"/>
        <path d="M481.617 62.4087L476.195 60.1577L473.025 61.2588L468.849 59.5251L485.773 54.3051L489.778 55.9679L484.625 66.0749L480.474 64.3513L481.617 62.4087ZM479.246 59.1135L482.714 60.5533L483.121 59.8873L484.808 57.2107L484.711 57.1702L480.338 58.7315L479.246 59.1135Z" fill="white"/>
        <path d="M496.508 63.9705L490.192 68.3867L486.309 66.7746L497.298 59.0908L500.79 60.5407L500.935 63.5692L500.97 67.654L501.044 67.6844L507.36 63.2682L511.243 64.8804L500.254 72.5641L496.777 71.1209L496.65 67.3354L496.63 64.0211L496.508 63.9705Z" fill="white"/>
        <path d="M513.501 73.0169L510.12 73.2306L507.042 75.3829L503.159 73.7707L514.148 66.087L518.031 67.6992L513.741 70.6991L523.599 70.0108L528.19 71.9169L518.058 72.687L517.493 79.7221L512.951 77.8362L513.5 73.0164L513.501 73.0169Z" fill="white"/>
        <path d="M535.001 83.4C534.448 83.7867 533.787 84.0489 533.02 84.1861C532.252 84.3235 531.425 84.3625 530.538 84.302C529.651 84.2417 528.728 84.0894 527.767 83.8448C526.807 83.5998 525.871 83.2886 524.959 82.91C524.34 82.653 523.764 82.3896 523.228 82.1203C522.692 81.8505 522.212 81.5652 521.787 81.2642C521.361 80.9631 520.982 80.634 520.649 80.2766C520.317 79.9194 520.039 79.5286 519.816 79.1041L523.856 78.7018C524.2 79.2594 524.646 79.7499 525.196 80.1734C525.745 80.5968 526.386 80.9608 527.119 81.2649C527.656 81.4881 528.136 81.6515 528.558 81.7557C528.979 81.8597 529.351 81.9222 529.672 81.9428C529.993 81.9636 530.256 81.9514 530.463 81.9069C530.67 81.8622 530.826 81.8029 530.933 81.7287C531.092 81.6171 531.172 81.4933 531.172 81.3571C531.172 81.221 531.079 81.0549 530.892 80.8589C530.705 80.6628 530.425 80.4281 530.051 80.1543C529.677 79.8807 529.196 79.5503 528.607 79.1636C527.964 78.7427 527.429 78.3454 527.002 77.9729C526.575 77.6001 526.279 77.2401 526.114 76.8931C525.949 76.546 525.93 76.2096 526.059 75.8836C526.187 75.5578 526.491 75.2277 526.969 74.8931C527.448 74.5585 528.069 74.292 528.769 74.1385C529.469 73.9846 530.232 73.9227 531.06 73.9522C531.886 73.9817 532.753 74.1017 533.659 74.3117C534.565 74.522 535.466 74.8129 536.361 75.1846C537.338 75.5902 538.244 76.0318 539.08 76.5088C539.915 76.9861 540.622 77.5938 541.202 78.3319L537.427 79.0394C536.959 78.4779 536.437 78.0304 535.863 77.697C535.289 77.3638 534.668 77.0586 534.001 76.7816C533.382 76.5246 532.814 76.3634 532.299 76.2974C531.783 76.2317 531.372 76.3063 531.063 76.5218C530.925 76.6185 530.861 76.7313 530.872 76.8599C530.882 76.9885 530.981 77.1511 531.168 77.3471C531.354 77.5434 531.633 77.7745 532.004 78.0411C532.375 78.3077 532.839 78.6276 533.395 79.0005C534.278 79.5805 534.926 80.0893 535.338 80.527C535.75 80.9647 535.99 81.3547 536.059 81.6972C536.127 82.0396 536.056 82.3479 535.845 82.6216C535.634 82.8956 535.354 83.1553 535.003 83.4007L535.001 83.4Z" fill="white"/>
    </g>
    <defs>
        <radialGradient id="paint0_radial_58_14569" cx="0" cy="0" r="1" gradientUnits="userSpaceOnUse" gradientTransform="translate(460 294.5) rotate(110.909) scale(146.537 379.803)">
            <stop stop-color="#898989"/>
            <stop offset="1" stop-color="#424242"/>
        </radialGradient>
        <linearGradient id="paint1_linear_58_14569" x1="212.008" y1="339.001" x2="708.016" y2="339.001" gradientUnits="userSpaceOnUse">
            <stop stop-color="#00BABB"/>
            <stop offset="1" stop-color="#00BABB"/>
        </linearGradient>
    </defs>
</svg>
