<svg width="185" height="185" viewBox="0 0 185 185" fill="none" xmlns="http://www.w3.org/2000/svg">
    <path d="M180.775 16.4951L167.98 3.7V13.32H25.9C18.9523 13.32 13.32 18.9523 13.32 25.9V167.24H2.96L16.4951 180.775C18.7994 183.367 22.159 185 25.9 185H172.42C179.368 185 185 179.368 185 172.42V25.9C185 22.159 183.367 18.7994 180.775 16.4951Z" fill="#DDA300"/>
    <path d="M0 12.58C0 5.63226 5.63226 0 12.58 0H159.1C166.048 0 171.68 5.63226 171.68 12.58V159.1C171.68 166.048 166.048 171.68 159.1 171.68H12.58C5.63226 171.68 0 166.048 0 159.1V12.58Z" fill="#F8C600"/>
    <path d="M31.768 101.168C30.504 101.168 29.352 100.92 28.312 100.424C27.288 99.912 26.44 99.176 25.768 98.216L27.976 95.768C28.632 96.504 29.232 97 29.776 97.256C30.336 97.512 30.952 97.64 31.624 97.64C32.136 97.64 32.592 97.536 32.992 97.328C33.392 97.12 33.704 96.832 33.928 96.464C34.152 96.096 34.264 95.688 34.264 95.24C34.264 94.76 34.144 94.336 33.904 93.968C33.68 93.584 33.368 93.288 32.968 93.08C32.584 92.856 32.144 92.744 31.648 92.744C31.296 92.744 30.96 92.776 30.64 92.84C30.336 92.888 30.008 92.992 29.656 93.152C29.304 93.296 28.872 93.512 28.36 93.8L26.608 91.448L27.64 84.056H37.288V87.536H29.608L30.64 86.192L29.872 91.448L28.456 90.944C28.744 90.688 29.104 90.464 29.536 90.272C29.984 90.064 30.456 89.896 30.952 89.768C31.464 89.64 31.968 89.576 32.464 89.576C33.536 89.576 34.488 89.824 35.32 90.32C36.152 90.8 36.808 91.472 37.288 92.336C37.784 93.184 38.032 94.168 38.032 95.288C38.032 96.392 37.752 97.392 37.192 98.288C36.648 99.168 35.904 99.872 34.96 100.4C34.016 100.912 32.952 101.168 31.768 101.168ZM47.3374 101.24C45.8334 101.24 44.5534 100.896 43.4974 100.208C42.4414 99.52 41.6334 98.536 41.0734 97.256C40.5134 95.96 40.2334 94.408 40.2334 92.6C40.2334 90.792 40.5134 89.248 41.0734 87.968C41.6334 86.672 42.4414 85.68 43.4974 84.992C44.5534 84.304 45.8334 83.96 47.3374 83.96C48.8414 83.96 50.1214 84.304 51.1774 84.992C52.2334 85.68 53.0414 86.672 53.6014 87.968C54.1614 89.248 54.4414 90.792 54.4414 92.6C54.4414 94.408 54.1614 95.96 53.6014 97.256C53.0414 98.536 52.2334 99.52 51.1774 100.208C50.1214 100.896 48.8414 101.24 47.3374 101.24ZM47.3374 97.76C48.3614 97.76 49.1454 97.312 49.6894 96.416C50.2494 95.52 50.5294 94.248 50.5294 92.6C50.5294 90.888 50.2494 89.576 49.6894 88.664C49.1454 87.752 48.3614 87.296 47.3374 87.296C46.3134 87.296 45.5214 87.752 44.9614 88.664C44.4014 89.576 44.1214 90.888 44.1214 92.6C44.1214 94.248 44.4014 95.52 44.9614 96.416C45.5214 97.312 46.3134 97.76 47.3374 97.76ZM63.4624 101.24C61.9584 101.24 60.6784 100.896 59.6224 100.208C58.5664 99.52 57.7584 98.536 57.1984 97.256C56.6384 95.96 56.3584 94.408 56.3584 92.6C56.3584 90.792 56.6384 89.248 57.1984 87.968C57.7584 86.672 58.5664 85.68 59.6224 84.992C60.6784 84.304 61.9584 83.96 63.4624 83.96C64.9664 83.96 66.2464 84.304 67.3024 84.992C68.3584 85.68 69.1664 86.672 69.7264 87.968C70.2864 89.248 70.5664 90.792 70.5664 92.6C70.5664 94.408 70.2864 95.96 69.7264 97.256C69.1664 98.536 68.3584 99.52 67.3024 100.208C66.2464 100.896 64.9664 101.24 63.4624 101.24ZM63.4624 97.76C64.4864 97.76 65.2704 97.312 65.8144 96.416C66.3744 95.52 66.6544 94.248 66.6544 92.6C66.6544 90.888 66.3744 89.576 65.8144 88.664C65.2704 87.752 64.4864 87.296 63.4624 87.296C62.4384 87.296 61.6464 87.752 61.0864 88.664C60.5264 89.576 60.2464 90.888 60.2464 92.6C60.2464 94.248 60.5264 95.52 61.0864 96.416C61.6464 97.312 62.4384 97.76 63.4624 97.76ZM72.6514 95.768V92.648H84.6994V95.768H72.6514ZM76.9234 100.04L76.9474 88.352H80.4274L80.4034 100.04H76.9234Z" fill="white"/>
    <path d="M29.7681 112.292C31.1499 112.292 32.1582 112.59 32.793 113.186C33.4277 113.776 33.7451 114.592 33.7451 115.632C33.7451 116.101 33.6743 116.55 33.5327 116.979C33.3911 117.404 33.1592 117.783 32.8369 118.115C32.5195 118.447 32.0947 118.71 31.5625 118.906C31.0303 119.096 30.3735 119.191 29.5923 119.191H28.6182V123H26.3477V112.292H29.7681ZM29.6509 114.152H28.6182V117.331H29.3652C29.79 117.331 30.1587 117.275 30.4712 117.163C30.7837 117.05 31.0254 116.875 31.1963 116.635C31.3672 116.396 31.4526 116.088 31.4526 115.712C31.4526 115.185 31.3062 114.794 31.0132 114.541C30.7202 114.282 30.2661 114.152 29.6509 114.152ZM38.9453 114.643C40.0439 114.643 40.8862 114.882 41.4722 115.361C42.0581 115.839 42.3511 116.567 42.3511 117.543V123H40.791L40.3589 121.887H40.3003C40.0659 122.18 39.8267 122.419 39.5825 122.604C39.3384 122.79 39.0576 122.927 38.7402 123.015C38.4229 123.103 38.0371 123.146 37.583 123.146C37.0996 123.146 36.665 123.054 36.2793 122.868C35.8984 122.683 35.5981 122.399 35.3784 122.019C35.1587 121.633 35.0488 121.145 35.0488 120.554C35.0488 119.685 35.354 119.045 35.9644 118.635C36.5747 118.22 37.4902 117.99 38.7109 117.946L40.1318 117.902V117.543C40.1318 117.114 40.0195 116.799 39.7949 116.599C39.5703 116.398 39.2578 116.298 38.8574 116.298C38.4619 116.298 38.0737 116.354 37.6929 116.467C37.312 116.579 36.9312 116.721 36.5503 116.892L35.8105 115.383C36.2451 115.153 36.731 114.973 37.2681 114.841C37.8101 114.709 38.3691 114.643 38.9453 114.643ZM40.1318 119.206L39.2676 119.235C38.5449 119.255 38.042 119.384 37.7588 119.624C37.4805 119.863 37.3413 120.178 37.3413 120.568C37.3413 120.91 37.4414 121.154 37.6416 121.301C37.8418 121.442 38.103 121.513 38.4253 121.513C38.9038 121.513 39.3066 121.372 39.6338 121.088C39.9658 120.805 40.1318 120.402 40.1318 119.88V119.206ZM49.2285 114.658C49.3408 114.658 49.4702 114.665 49.6167 114.68C49.7681 114.689 49.8901 114.704 49.9829 114.724L49.8145 116.818C49.7412 116.794 49.6362 116.777 49.4995 116.767C49.3677 116.752 49.2529 116.745 49.1553 116.745C48.8672 116.745 48.5864 116.782 48.313 116.855C48.0444 116.928 47.8027 117.048 47.5879 117.214C47.373 117.375 47.2021 117.59 47.0752 117.858C46.9531 118.122 46.8921 118.447 46.8921 118.833V123H44.6582V114.812H46.3501L46.6797 116.188H46.7896C46.9507 115.91 47.1509 115.656 47.3901 115.427C47.6343 115.192 47.9102 115.007 48.2178 114.87C48.5303 114.729 48.8672 114.658 49.2285 114.658ZM54.9194 121.367C55.1636 121.367 55.4004 121.342 55.6299 121.293C55.8643 121.245 56.0962 121.184 56.3257 121.11V122.773C56.0864 122.88 55.7886 122.968 55.4321 123.037C55.0806 123.11 54.6948 123.146 54.2749 123.146C53.7866 123.146 53.3472 123.068 52.9565 122.912C52.5708 122.751 52.2656 122.475 52.041 122.084C51.8213 121.689 51.7114 121.14 51.7114 120.437V116.489H50.6421V115.544L51.8726 114.797L52.5171 113.068H53.9453V114.812H56.2378V116.489H53.9453V120.437C53.9453 120.749 54.0332 120.983 54.209 121.14C54.3896 121.291 54.6265 121.367 54.9194 121.367ZM62.6392 114.658C63.5132 114.658 64.2163 114.897 64.7485 115.375C65.2808 115.849 65.5469 116.611 65.5469 117.661V123H63.313V118.217C63.313 117.631 63.2056 117.189 62.9907 116.892C62.7808 116.594 62.4487 116.445 61.9946 116.445C61.311 116.445 60.8447 116.677 60.5957 117.141C60.3467 117.604 60.2222 118.273 60.2222 119.147V123H57.9883V114.812H59.6948L59.9951 115.859H60.1196C60.2954 115.576 60.5127 115.346 60.7715 115.17C61.0352 114.995 61.3257 114.865 61.6431 114.782C61.9653 114.699 62.2974 114.658 62.6392 114.658ZM71.2231 114.658C71.98 114.658 72.6318 114.804 73.1787 115.097C73.7256 115.385 74.1479 115.805 74.4458 116.357C74.7437 116.909 74.8926 117.583 74.8926 118.378V119.462H69.6118C69.6362 120.092 69.8242 120.588 70.1758 120.949C70.5322 121.306 71.0254 121.484 71.6553 121.484C72.1777 121.484 72.6562 121.43 73.0908 121.323C73.5254 121.215 73.9722 121.054 74.4312 120.839V122.568C74.0259 122.768 73.6011 122.915 73.1567 123.007C72.7173 123.1 72.1826 123.146 71.5527 123.146C70.7324 123.146 70.0049 122.995 69.3701 122.692C68.7402 122.39 68.2446 121.928 67.8833 121.308C67.5269 120.688 67.3486 119.907 67.3486 118.964C67.3486 118.007 67.5098 117.211 67.832 116.577C68.1592 115.937 68.6133 115.458 69.1943 115.141C69.7754 114.819 70.4517 114.658 71.2231 114.658ZM71.2378 116.247C70.8032 116.247 70.4419 116.386 70.1538 116.665C69.8706 116.943 69.707 117.38 69.6631 117.976H72.7979C72.793 117.644 72.7319 117.348 72.6147 117.089C72.5024 116.831 72.3315 116.625 72.1021 116.474C71.8774 116.323 71.5894 116.247 71.2378 116.247ZM81.2793 114.658C81.3916 114.658 81.521 114.665 81.6675 114.68C81.8188 114.689 81.9409 114.704 82.0337 114.724L81.8652 116.818C81.792 116.794 81.687 116.777 81.5503 116.767C81.4185 116.752 81.3037 116.745 81.2061 116.745C80.918 116.745 80.6372 116.782 80.3638 116.855C80.0952 116.928 79.8535 117.048 79.6387 117.214C79.4238 117.375 79.2529 117.59 79.126 117.858C79.0039 118.122 78.9429 118.447 78.9429 118.833V123H76.709V114.812H78.4009L78.7305 116.188H78.8403C79.0015 115.91 79.2017 115.656 79.4409 115.427C79.6851 115.192 79.9609 115.007 80.2686 114.87C80.5811 114.729 80.918 114.658 81.2793 114.658ZM89.6509 111.604V114.255C89.6509 114.562 89.6411 114.868 89.6216 115.17C89.6069 115.473 89.5874 115.708 89.563 115.874H89.6509C89.8657 115.537 90.1587 115.251 90.5298 115.017C90.9009 114.777 91.3818 114.658 91.9727 114.658C92.8906 114.658 93.6353 115.017 94.2065 115.734C94.7778 116.452 95.0635 117.504 95.0635 118.891C95.0635 119.824 94.9316 120.607 94.668 121.242C94.4043 121.872 94.0356 122.348 93.562 122.67C93.0884 122.988 92.5391 123.146 91.9141 123.146C91.3135 123.146 90.8398 123.039 90.4932 122.824C90.1465 122.609 89.8657 122.368 89.6509 122.099H89.4971L89.1235 123H87.417V111.604H89.6509ZM91.2549 116.445C90.8643 116.445 90.5542 116.525 90.3247 116.687C90.0952 116.848 89.9268 117.089 89.8193 117.412C89.7168 117.734 89.6606 118.142 89.6509 118.635V118.876C89.6509 119.672 89.7681 120.283 90.0024 120.708C90.2368 121.127 90.6641 121.337 91.2842 121.337C91.7432 121.337 92.1069 121.125 92.3755 120.7C92.6489 120.275 92.7856 119.663 92.7856 118.862C92.7856 118.061 92.6489 117.458 92.3755 117.053C92.1021 116.647 91.7285 116.445 91.2549 116.445ZM100.264 114.643C101.362 114.643 102.205 114.882 102.791 115.361C103.376 115.839 103.669 116.567 103.669 117.543V123H102.109L101.677 121.887H101.619C101.384 122.18 101.145 122.419 100.901 122.604C100.657 122.79 100.376 122.927 100.059 123.015C99.7412 123.103 99.3555 123.146 98.9014 123.146C98.418 123.146 97.9834 123.054 97.5977 122.868C97.2168 122.683 96.9165 122.399 96.6968 122.019C96.4771 121.633 96.3672 121.145 96.3672 120.554C96.3672 119.685 96.6724 119.045 97.2827 118.635C97.8931 118.22 98.8086 117.99 100.029 117.946L101.45 117.902V117.543C101.45 117.114 101.338 116.799 101.113 116.599C100.889 116.398 100.576 116.298 100.176 116.298C99.7803 116.298 99.3921 116.354 99.0112 116.467C98.6304 116.579 98.2495 116.721 97.8687 116.892L97.1289 115.383C97.5635 115.153 98.0493 114.973 98.5864 114.841C99.1284 114.709 99.6875 114.643 100.264 114.643ZM101.45 119.206L100.586 119.235C99.8633 119.255 99.3604 119.384 99.0771 119.624C98.7988 119.863 98.6597 120.178 98.6597 120.568C98.6597 120.91 98.7598 121.154 98.96 121.301C99.1602 121.442 99.4214 121.513 99.7437 121.513C100.222 121.513 100.625 121.372 100.952 121.088C101.284 120.805 101.45 120.402 101.45 119.88V119.206ZM110.627 114.658C111.501 114.658 112.205 114.897 112.737 115.375C113.269 115.849 113.535 116.611 113.535 117.661V123H111.301V118.217C111.301 117.631 111.194 117.189 110.979 116.892C110.769 116.594 110.437 116.445 109.983 116.445C109.299 116.445 108.833 116.677 108.584 117.141C108.335 117.604 108.21 118.273 108.21 119.147V123H105.977V114.812H107.683L107.983 115.859H108.108C108.284 115.576 108.501 115.346 108.76 115.17C109.023 114.995 109.314 114.865 109.631 114.782C109.954 114.699 110.286 114.658 110.627 114.658ZM118.069 111.604V116.701C118.069 117.009 118.057 117.316 118.032 117.624C118.008 117.932 117.981 118.239 117.952 118.547H117.981C118.132 118.332 118.286 118.12 118.442 117.91C118.604 117.7 118.774 117.497 118.955 117.302L121.248 114.812H123.767L120.515 118.364L123.965 123H121.387L119.028 119.682L118.069 120.451V123H115.835V111.604H118.069ZM130.85 120.568C130.85 121.125 130.718 121.596 130.454 121.982C130.195 122.363 129.807 122.653 129.29 122.854C128.772 123.049 128.127 123.146 127.356 123.146C126.785 123.146 126.294 123.11 125.884 123.037C125.479 122.963 125.068 122.841 124.653 122.67V120.825C125.098 121.025 125.574 121.191 126.082 121.323C126.594 121.45 127.043 121.513 127.429 121.513C127.864 121.513 128.174 121.45 128.359 121.323C128.55 121.191 128.645 121.02 128.645 120.81C128.645 120.673 128.606 120.551 128.528 120.444C128.455 120.332 128.293 120.207 128.044 120.07C127.795 119.929 127.405 119.746 126.873 119.521C126.36 119.306 125.938 119.089 125.605 118.869C125.278 118.649 125.034 118.391 124.873 118.093C124.717 117.79 124.639 117.407 124.639 116.943C124.639 116.186 124.932 115.617 125.518 115.236C126.108 114.851 126.897 114.658 127.883 114.658C128.391 114.658 128.875 114.709 129.333 114.812C129.797 114.914 130.273 115.078 130.762 115.302L130.088 116.914C129.683 116.738 129.299 116.594 128.938 116.481C128.582 116.369 128.218 116.313 127.847 116.313C127.52 116.313 127.273 116.357 127.107 116.445C126.941 116.533 126.858 116.667 126.858 116.848C126.858 116.979 126.899 117.097 126.982 117.199C127.07 117.302 127.236 117.417 127.48 117.543C127.729 117.666 128.093 117.824 128.572 118.02C129.036 118.21 129.438 118.41 129.78 118.62C130.122 118.825 130.386 119.082 130.571 119.389C130.757 119.692 130.85 120.085 130.85 120.568Z" fill="white"/>
    <path d="M26.928 59L25.296 54.968L34.944 44.312C35.52 43.704 36.128 43.016 36.768 42.248C37.408 41.48 38.016 40.696 38.592 39.896C39.2 39.064 39.68 38.264 40.032 37.496C40.416 36.728 40.608 36.04 40.608 35.432C40.608 34.792 40.464 34.232 40.176 33.752C39.92 33.272 39.52 32.904 38.976 32.648C38.464 32.36 37.792 32.216 36.96 32.216C36.256 32.216 35.568 32.408 34.896 32.792C34.224 33.176 33.584 33.752 32.976 34.52C32.4 35.256 31.856 36.2 31.344 37.352L25.296 33.992C25.968 32.136 26.912 30.504 28.128 29.096C29.376 27.688 30.832 26.584 32.496 25.784C34.16 24.984 35.936 24.6 37.824 24.632C39.808 24.632 41.584 25.048 43.152 25.88C44.752 26.712 46.016 27.864 46.944 29.336C47.904 30.776 48.384 32.472 48.384 34.424C48.384 35.288 48.256 36.184 48 37.112C47.776 38.04 47.392 39.032 46.848 40.088C46.336 41.112 45.648 42.216 44.784 43.4C43.92 44.584 42.864 45.864 41.616 47.24L34.176 55.352L33.168 51.752H49.872V59H26.928Z" fill="white"/>
</svg>
