<svg width="350" height="99" viewBox="0 0 350 99" fill="none" xmlns="http://www.w3.org/2000/svg">
    <path d="M347.152 13L337 2.85938V10H20C14.4771 10 10 14.4775 10 20V86H2.86719L13 96.1445C14.8037 97.9131 17.2744 99 20 99H340C345.523 99 350 94.5225 350 89V20C350 17.2744 348.91 14.8037 347.141 13H347.152Z" fill="#DDA300"/>
    <path d="M0 10C0 4.47715 4.47715 0 10 0H330C335.523 0 340 4.47715 340 10V79C340 84.5229 335.523 89 330 89H10C4.47716 89 0 84.5229 0 79V10Z" fill="#F8C600"/>
    <path d="M95.48 40.14C94.4667 40.14 93.5467 39.9333 92.72 39.52C91.9067 39.0933 91.2267 38.48 90.68 37.68L92.32 35.88C92.8933 36.52 93.4067 36.9533 93.86 37.18C94.3267 37.4067 94.84 37.52 95.4 37.52C95.8667 37.52 96.28 37.4267 96.64 37.24C97.0133 37.04 97.3067 36.7667 97.52 36.42C97.7333 36.0733 97.84 35.6933 97.84 35.28C97.84 34.84 97.7333 34.4467 97.52 34.1C97.3067 33.74 97.02 33.46 96.66 33.26C96.3133 33.06 95.9133 32.96 95.46 32.96C95.18 32.96 94.9133 32.98 94.66 33.02C94.42 33.06 94.1467 33.1467 93.84 33.28C93.5333 33.4 93.1533 33.58 92.7 33.82L91.34 32L92.2 25.92H100.08V28.52H93.74L94.46 27.64L93.8 32.04L92.86 31.58C93.06 31.3933 93.3333 31.2267 93.68 31.08C94.04 30.92 94.42 30.7933 94.82 30.7C95.2333 30.5933 95.64 30.54 96.04 30.54C96.92 30.54 97.7 30.74 98.38 31.14C99.0733 31.54 99.62 32.0933 100.02 32.8C100.42 33.5067 100.62 34.32 100.62 35.24C100.62 36.16 100.393 36.9933 99.94 37.74C99.4867 38.4733 98.8733 39.06 98.1 39.5C97.3267 39.9267 96.4533 40.14 95.48 40.14ZM108.219 40.2C107.032 40.2 106.012 39.9133 105.159 39.34C104.319 38.7533 103.672 37.9267 103.219 36.86C102.779 35.78 102.559 34.4933 102.559 33C102.559 31.5067 102.779 30.2267 103.219 29.16C103.672 28.08 104.319 27.2533 105.159 26.68C106.012 26.0933 107.032 25.8 108.219 25.8C109.405 25.8 110.419 26.0933 111.259 26.68C112.112 27.2533 112.759 28.08 113.199 29.16C113.652 30.2267 113.879 31.5067 113.879 33C113.879 34.4933 113.652 35.78 113.199 36.86C112.759 37.9267 112.112 38.7533 111.259 39.34C110.419 39.9133 109.405 40.2 108.219 40.2ZM108.219 37.62C109.112 37.62 109.799 37.22 110.279 36.42C110.772 35.6067 111.019 34.4667 111.019 33C111.019 31.4933 110.772 30.3333 110.279 29.52C109.799 28.7067 109.112 28.3 108.219 28.3C107.325 28.3 106.632 28.7067 106.139 29.52C105.659 30.3333 105.419 31.4933 105.419 33C105.419 34.4667 105.659 35.6067 106.139 36.42C106.632 37.22 107.325 37.62 108.219 37.62ZM121.227 40.2C120.04 40.2 119.02 39.9133 118.167 39.34C117.327 38.7533 116.68 37.9267 116.227 36.86C115.787 35.78 115.567 34.4933 115.567 33C115.567 31.5067 115.787 30.2267 116.227 29.16C116.68 28.08 117.327 27.2533 118.167 26.68C119.02 26.0933 120.04 25.8 121.227 25.8C122.413 25.8 123.427 26.0933 124.267 26.68C125.12 27.2533 125.767 28.08 126.207 29.16C126.66 30.2267 126.887 31.5067 126.887 33C126.887 34.4933 126.66 35.78 126.207 36.86C125.767 37.9267 125.12 38.7533 124.267 39.34C123.427 39.9133 122.413 40.2 121.227 40.2ZM121.227 37.62C122.12 37.62 122.807 37.22 123.287 36.42C123.78 35.6067 124.027 34.4667 124.027 33C124.027 31.4933 123.78 30.3333 123.287 29.52C122.807 28.7067 122.12 28.3 121.227 28.3C120.333 28.3 119.64 28.7067 119.147 29.52C118.667 30.3333 118.427 31.4933 118.427 33C118.427 34.4667 118.667 35.6067 119.147 36.42C119.64 37.22 120.333 37.62 121.227 37.62ZM128.654 35.52V33.2H138.694V35.52H128.654ZM132.354 39.18V29.48H134.994L134.974 39.18H132.354Z" fill="white"/>
    <path d="M37.312 62L35.748 58.182L45.178 47.648C45.73 47.096 46.2973 46.452 46.88 45.716C47.4933 44.98 48.076 44.2287 48.628 43.462C49.18 42.6647 49.6247 41.898 49.962 41.162C50.2993 40.426 50.468 39.7513 50.468 39.138C50.468 38.402 50.3147 37.7733 50.008 37.252C49.732 36.7 49.3027 36.286 48.72 36.01C48.1373 35.7033 47.4167 35.55 46.558 35.55C45.7913 35.55 45.0553 35.7647 44.35 36.194C43.6447 36.5927 42.9853 37.1907 42.372 37.988C41.7587 38.7853 41.222 39.7667 40.762 40.932L35.61 37.988C36.2233 36.2093 37.0973 34.6607 38.232 33.342C39.3667 31.9927 40.716 30.95 42.28 30.214C43.844 29.478 45.5153 29.1253 47.294 29.156C49.1647 29.156 50.836 29.5547 52.308 30.352C53.8107 31.1187 54.9913 32.192 55.85 33.572C56.7087 34.952 57.138 36.5467 57.138 38.356C57.138 39.2147 57.0153 40.104 56.77 41.024C56.5553 41.9133 56.1873 42.864 55.666 43.876C55.1447 44.8573 54.47 45.9153 53.642 47.05C52.814 48.1847 51.8173 49.396 50.652 50.684L43.43 58.55L42.51 55.79H58.426V62H37.312Z" fill="white"/>
    <path d="M94.519 54.292C95.9009 54.292 96.9092 54.5752 97.5439 55.1416C98.1787 55.708 98.4961 56.5015 98.4961 57.522C98.4961 57.9858 98.4229 58.4277 98.2764 58.8477C98.1348 59.2627 97.9004 59.6313 97.5732 59.9536C97.2461 60.271 96.814 60.5225 96.2769 60.708C95.7446 60.8936 95.0879 60.9863 94.3066 60.9863H93.1641V65H91.4062V54.292H94.519ZM94.4019 55.7495H93.1641V59.5215H94.1235C94.6753 59.5215 95.144 59.458 95.5298 59.3311C95.9155 59.1992 96.2085 58.9917 96.4087 58.7085C96.6089 58.4253 96.709 58.0518 96.709 57.5879C96.709 56.9678 96.521 56.5063 96.145 56.2036C95.7739 55.9009 95.1929 55.7495 94.4019 55.7495ZM103.638 56.7383C104.663 56.7383 105.437 56.9653 105.959 57.4194C106.487 57.8735 106.75 58.5815 106.75 59.5435V65H105.527L105.198 63.8501H105.139C104.91 64.1431 104.673 64.3848 104.429 64.5752C104.185 64.7656 103.901 64.9072 103.579 65C103.262 65.0977 102.874 65.1465 102.415 65.1465C101.931 65.1465 101.499 65.0586 101.118 64.8828C100.737 64.7021 100.437 64.4287 100.217 64.0625C99.9976 63.6963 99.8877 63.2324 99.8877 62.6709C99.8877 61.8359 100.198 61.2085 100.818 60.7886C101.443 60.3687 102.385 60.1367 103.645 60.0928L105.051 60.0415V59.6167C105.051 59.0552 104.919 58.6548 104.656 58.4155C104.397 58.1763 104.031 58.0566 103.557 58.0566C103.152 58.0566 102.759 58.1152 102.378 58.2324C101.997 58.3496 101.626 58.4937 101.265 58.6646L100.708 57.4487C101.104 57.2388 101.553 57.0679 102.056 56.936C102.563 56.8042 103.091 56.7383 103.638 56.7383ZM105.044 61.1255L103.997 61.1621C103.137 61.1914 102.534 61.3379 102.188 61.6016C101.841 61.8652 101.667 62.2266 101.667 62.6855C101.667 63.0859 101.787 63.3789 102.026 63.5645C102.266 63.7451 102.581 63.8354 102.971 63.8354C103.567 63.8354 104.06 63.667 104.451 63.3301C104.846 62.9883 105.044 62.4878 105.044 61.8286V61.1255ZM113.269 56.7383C113.406 56.7383 113.555 56.7456 113.716 56.7603C113.877 56.7749 114.016 56.7944 114.133 56.8188L113.972 58.4302C113.87 58.4009 113.743 58.3789 113.591 58.3643C113.445 58.3496 113.313 58.3423 113.196 58.3423C112.888 58.3423 112.595 58.3936 112.317 58.4961C112.039 58.5938 111.792 58.7451 111.577 58.9502C111.362 59.1504 111.194 59.4019 111.072 59.7046C110.95 60.0073 110.889 60.3589 110.889 60.7593V65H109.16V56.8921H110.508L110.742 58.3203H110.823C110.984 58.0322 111.184 57.7686 111.423 57.5293C111.663 57.29 111.936 57.0996 112.244 56.958C112.556 56.8115 112.898 56.7383 113.269 56.7383ZM118.652 63.7549C118.877 63.7549 119.099 63.7354 119.319 63.6963C119.539 63.6523 119.739 63.6011 119.919 63.5425V64.8462C119.729 64.9292 119.482 65 119.18 65.0586C118.877 65.1172 118.562 65.1465 118.235 65.1465C117.776 65.1465 117.363 65.0708 116.997 64.9194C116.631 64.7632 116.34 64.4971 116.125 64.1211C115.911 63.7451 115.803 63.2251 115.803 62.561V58.2031H114.697V57.4341L115.884 56.8262L116.448 55.0903H117.532V56.8921H119.854V58.2031H117.532V62.5391C117.532 62.9492 117.634 63.2544 117.839 63.4546C118.044 63.6548 118.315 63.7549 118.652 63.7549ZM125.793 56.7383C126.707 56.7383 127.417 56.9751 127.925 57.4487C128.438 57.9175 128.694 58.6719 128.694 59.7119V65H126.973V60.0342C126.973 59.4043 126.843 58.9331 126.584 58.6206C126.326 58.3032 125.925 58.1445 125.383 58.1445C124.597 58.1445 124.05 58.3862 123.743 58.8696C123.44 59.353 123.289 60.0537 123.289 60.9717V65H121.567V56.8921H122.908L123.149 57.9907H123.245C123.42 57.7075 123.638 57.4756 123.896 57.2949C124.16 57.1094 124.453 56.9702 124.775 56.8774C125.103 56.7847 125.442 56.7383 125.793 56.7383ZM134.333 56.7383C135.056 56.7383 135.676 56.8872 136.194 57.1851C136.711 57.4829 137.109 57.9053 137.388 58.4521C137.666 58.999 137.805 59.6533 137.805 60.415V61.3379H132.393C132.412 62.124 132.622 62.7295 133.022 63.1543C133.428 63.5791 133.994 63.7915 134.722 63.7915C135.239 63.7915 135.703 63.7427 136.113 63.645C136.528 63.5425 136.956 63.3936 137.395 63.1982V64.5972C136.99 64.7876 136.577 64.9268 136.157 65.0146C135.737 65.1025 135.234 65.1465 134.648 65.1465C133.853 65.1465 133.152 64.9927 132.546 64.6851C131.946 64.3726 131.475 63.9087 131.133 63.2935C130.796 62.6782 130.627 61.9141 130.627 61.001C130.627 60.0928 130.781 59.3213 131.089 58.6865C131.396 58.0518 131.829 57.5684 132.385 57.2363C132.942 56.9043 133.591 56.7383 134.333 56.7383ZM134.333 58.0347C133.792 58.0347 133.352 58.2104 133.015 58.562C132.683 58.9136 132.488 59.4287 132.429 60.1074H136.121C136.116 59.7021 136.047 59.3433 135.916 59.0308C135.789 58.7183 135.593 58.4741 135.33 58.2983C135.071 58.1226 134.739 58.0347 134.333 58.0347ZM143.855 56.7383C143.992 56.7383 144.141 56.7456 144.302 56.7603C144.463 56.7749 144.602 56.7944 144.719 56.8188L144.558 58.4302C144.456 58.4009 144.329 58.3789 144.177 58.3643C144.031 58.3496 143.899 58.3423 143.782 58.3423C143.474 58.3423 143.181 58.3936 142.903 58.4961C142.625 58.5938 142.378 58.7451 142.163 58.9502C141.948 59.1504 141.78 59.4019 141.658 59.7046C141.536 60.0073 141.475 60.3589 141.475 60.7593V65H139.746V56.8921H141.094L141.328 58.3203H141.409C141.57 58.0322 141.77 57.7686 142.009 57.5293C142.249 57.29 142.522 57.0996 142.83 56.958C143.142 56.8115 143.484 56.7383 143.855 56.7383ZM151.838 53.6035V56.3501C151.838 56.6675 151.829 56.98 151.809 57.2876C151.794 57.5903 151.78 57.8271 151.765 57.998H151.838C152.058 57.6465 152.363 57.3511 152.754 57.1118C153.149 56.8677 153.655 56.7456 154.27 56.7456C155.232 56.7456 156.006 57.0996 156.592 57.8076C157.178 58.5107 157.471 59.5532 157.471 60.9351C157.471 61.853 157.336 62.6245 157.068 63.2495C156.799 63.8745 156.421 64.3481 155.933 64.6704C155.449 64.9878 154.88 65.1465 154.226 65.1465C153.611 65.1465 153.113 65.0342 152.732 64.8096C152.356 64.5801 152.061 64.314 151.846 64.0112H151.721L151.406 65H150.117V53.6035H151.838ZM153.816 58.1445C153.328 58.1445 152.939 58.2422 152.651 58.4375C152.368 58.6328 152.163 58.9258 152.036 59.3164C151.909 59.7021 151.843 60.1929 151.838 60.7886V60.9424C151.838 61.8457 151.98 62.5366 152.263 63.0151C152.551 63.4937 153.074 63.7329 153.831 63.7329C154.431 63.7329 154.893 63.4912 155.215 63.0078C155.537 62.5195 155.698 61.8213 155.698 60.9131C155.698 59.9951 155.537 59.3042 155.215 58.8403C154.897 58.3765 154.431 58.1445 153.816 58.1445ZM162.642 56.7383C163.667 56.7383 164.441 56.9653 164.963 57.4194C165.491 57.8735 165.754 58.5815 165.754 59.5435V65H164.531L164.202 63.8501H164.143C163.914 64.1431 163.677 64.3848 163.433 64.5752C163.188 64.7656 162.905 64.9072 162.583 65C162.266 65.0977 161.877 65.1465 161.418 65.1465C160.935 65.1465 160.503 65.0586 160.122 64.8828C159.741 64.7021 159.441 64.4287 159.221 64.0625C159.001 63.6963 158.892 63.2324 158.892 62.6709C158.892 61.8359 159.202 61.2085 159.822 60.7886C160.447 60.3687 161.389 60.1367 162.649 60.0928L164.055 60.0415V59.6167C164.055 59.0552 163.923 58.6548 163.66 58.4155C163.401 58.1763 163.035 58.0566 162.561 58.0566C162.156 58.0566 161.763 58.1152 161.382 58.2324C161.001 58.3496 160.63 58.4937 160.269 58.6646L159.712 57.4487C160.107 57.2388 160.557 57.0679 161.06 56.936C161.567 56.8042 162.095 56.7383 162.642 56.7383ZM164.048 61.1255L163 61.1621C162.141 61.1914 161.538 61.3379 161.191 61.6016C160.845 61.8652 160.671 62.2266 160.671 62.6855C160.671 63.0859 160.791 63.3789 161.03 63.5645C161.27 63.7451 161.584 63.8354 161.975 63.8354C162.571 63.8354 163.064 63.667 163.455 63.3301C163.85 62.9883 164.048 62.4878 164.048 61.8286V61.1255ZM172.39 56.7383C173.303 56.7383 174.014 56.9751 174.521 57.4487C175.034 57.9175 175.291 58.6719 175.291 59.7119V65H173.569V60.0342C173.569 59.4043 173.44 58.9331 173.181 58.6206C172.922 58.3032 172.522 58.1445 171.98 58.1445C171.194 58.1445 170.647 58.3862 170.339 58.8696C170.037 59.353 169.885 60.0537 169.885 60.9717V65H168.164V56.8921H169.504L169.746 57.9907H169.841C170.017 57.7075 170.234 57.4756 170.493 57.2949C170.757 57.1094 171.05 56.9702 171.372 56.8774C171.699 56.7847 172.039 56.7383 172.39 56.7383ZM179.421 53.6035V59.1113C179.421 59.3604 179.412 59.6338 179.392 59.9316C179.373 60.2246 179.353 60.5005 179.333 60.7593H179.37C179.497 60.5884 179.648 60.3882 179.824 60.1587C180.005 59.9292 180.176 59.729 180.337 59.5581L182.812 56.8921H184.79L181.545 60.3784L185.002 65H182.981L180.388 61.4404L179.421 62.2681V65H177.7V53.6035H179.421ZM191.748 62.6855C191.748 63.2178 191.619 63.667 191.36 64.0332C191.101 64.3994 190.723 64.6777 190.225 64.8682C189.731 65.0537 189.126 65.1465 188.408 65.1465C187.842 65.1465 187.354 65.105 186.943 65.022C186.538 64.9438 186.155 64.8218 185.793 64.6558V63.1689C186.179 63.3496 186.611 63.5059 187.09 63.6377C187.573 63.7695 188.03 63.8354 188.459 63.8354C189.026 63.8354 189.434 63.7476 189.683 63.5718C189.932 63.3911 190.056 63.1519 190.056 62.854C190.056 62.6782 190.005 62.522 189.902 62.3853C189.805 62.2437 189.619 62.0996 189.346 61.9531C189.077 61.8018 188.682 61.6211 188.159 61.4111C187.646 61.2061 187.214 61.001 186.863 60.7959C186.511 60.5908 186.245 60.3442 186.064 60.0562C185.884 59.7632 185.793 59.3896 185.793 58.9355C185.793 58.2178 186.077 57.6733 186.643 57.3022C187.214 56.9263 187.969 56.7383 188.906 56.7383C189.404 56.7383 189.873 56.7896 190.312 56.8921C190.757 56.9897 191.191 57.1338 191.616 57.3242L191.074 58.6206C190.708 58.4595 190.339 58.3276 189.968 58.2251C189.602 58.1177 189.229 58.064 188.848 58.064C188.403 58.064 188.064 58.1323 187.83 58.269C187.6 58.4058 187.485 58.6011 187.485 58.855C187.485 59.0454 187.542 59.2065 187.654 59.3384C187.766 59.4702 187.959 59.6021 188.232 59.7339C188.511 59.8657 188.896 60.0293 189.39 60.2246C189.873 60.4102 190.291 60.6055 190.642 60.8105C190.999 61.0107 191.272 61.2573 191.462 61.5503C191.653 61.8433 191.748 62.2217 191.748 62.6855Z" fill="white"/>
</svg>
