<svg width="185" height="185" viewBox="0 0 185 185" fill="none" xmlns="http://www.w3.org/2000/svg">
    <path d="M180.775 16.4951L167.98 3.7V13.32H25.9C18.9523 13.32 13.32 18.9523 13.32 25.9V167.24H2.96L16.4951 180.775C18.7994 183.367 22.159 185 25.9 185H172.42C179.368 185 185 179.368 185 172.42V25.9C185 22.159 183.367 18.7994 180.775 16.4951Z" fill="#00BABB"/>
    <path d="M0 12.58C0 5.63226 5.63226 0 12.58 0H159.1C166.048 0 171.68 5.63226 171.68 12.58V159.1C171.68 166.048 166.048 171.68 159.1 171.68H12.58C5.63226 171.68 0 166.048 0 159.1V12.58Z" fill="#00E3C9"/>
    <path d="M30.088 99.8V86.24L31 88.256L27.424 89.936L26.704 86.312L31.504 83.96H34.12V99.8H30.088ZM27.04 101V97.376H37.264V101H27.04ZM46.5874 101.24C45.0834 101.24 43.8034 100.896 42.7474 100.208C41.6914 99.52 40.8834 98.536 40.3234 97.256C39.7634 95.96 39.4834 94.408 39.4834 92.6C39.4834 90.792 39.7634 89.248 40.3234 87.968C40.8834 86.672 41.6914 85.68 42.7474 84.992C43.8034 84.304 45.0834 83.96 46.5874 83.96C48.0914 83.96 49.3714 84.304 50.4274 84.992C51.4834 85.68 52.2914 86.672 52.8514 87.968C53.4114 89.248 53.6914 90.792 53.6914 92.6C53.6914 94.408 53.4114 95.96 52.8514 97.256C52.2914 98.536 51.4834 99.52 50.4274 100.208C49.3714 100.896 48.0914 101.24 46.5874 101.24ZM46.5874 97.76C47.6114 97.76 48.3954 97.312 48.9394 96.416C49.4994 95.52 49.7794 94.248 49.7794 92.6C49.7794 90.888 49.4994 89.576 48.9394 88.664C48.3954 87.752 47.6114 87.296 46.5874 87.296C45.5634 87.296 44.7714 87.752 44.2114 88.664C43.6514 89.576 43.3714 90.888 43.3714 92.6C43.3714 94.248 43.6514 95.52 44.2114 96.416C44.7714 97.312 45.5634 97.76 46.5874 97.76ZM62.7124 101.24C61.2084 101.24 59.9284 100.896 58.8724 100.208C57.8164 99.52 57.0084 98.536 56.4484 97.256C55.8884 95.96 55.6084 94.408 55.6084 92.6C55.6084 90.792 55.8884 89.248 56.4484 87.968C57.0084 86.672 57.8164 85.68 58.8724 84.992C59.9284 84.304 61.2084 83.96 62.7124 83.96C64.2164 83.96 65.4964 84.304 66.5524 84.992C67.6084 85.68 68.4164 86.672 68.9764 87.968C69.5364 89.248 69.8164 90.792 69.8164 92.6C69.8164 94.408 69.5364 95.96 68.9764 97.256C68.4164 98.536 67.6084 99.52 66.5524 100.208C65.4964 100.896 64.2164 101.24 62.7124 101.24ZM62.7124 97.76C63.7364 97.76 64.5204 97.312 65.0644 96.416C65.6244 95.52 65.9044 94.248 65.9044 92.6C65.9044 90.888 65.6244 89.576 65.0644 88.664C64.5204 87.752 63.7364 87.296 62.7124 87.296C61.6884 87.296 60.8964 87.752 60.3364 88.664C59.7764 89.576 59.4964 90.888 59.4964 92.6C59.4964 94.248 59.7764 95.52 60.3364 96.416C60.8964 97.312 61.6884 97.76 62.7124 97.76ZM78.8374 101.24C77.3334 101.24 76.0534 100.896 74.9974 100.208C73.9414 99.52 73.1334 98.536 72.5734 97.256C72.0134 95.96 71.7334 94.408 71.7334 92.6C71.7334 90.792 72.0134 89.248 72.5734 87.968C73.1334 86.672 73.9414 85.68 74.9974 84.992C76.0534 84.304 77.3334 83.96 78.8374 83.96C80.3414 83.96 81.6214 84.304 82.6774 84.992C83.7334 85.68 84.5414 86.672 85.1014 87.968C85.6614 89.248 85.9414 90.792 85.9414 92.6C85.9414 94.408 85.6614 95.96 85.1014 97.256C84.5414 98.536 83.7334 99.52 82.6774 100.208C81.6214 100.896 80.3414 101.24 78.8374 101.24ZM78.8374 97.76C79.8614 97.76 80.6454 97.312 81.1894 96.416C81.7494 95.52 82.0294 94.248 82.0294 92.6C82.0294 90.888 81.7494 89.576 81.1894 88.664C80.6454 87.752 79.8614 87.296 78.8374 87.296C77.8134 87.296 77.0214 87.752 76.4614 88.664C75.9014 89.576 75.6214 90.888 75.6214 92.6C75.6214 94.248 75.9014 95.52 76.4614 96.416C77.0214 97.312 77.8134 97.76 78.8374 97.76ZM88.0264 95.768V92.648H100.074V95.768H88.0264ZM92.2984 100.04L92.3224 88.352H95.8024L95.7784 100.04H92.2984Z" fill="white"/>
    <path d="M36.0669 117.631C36.0669 118.457 35.9644 119.208 35.7593 119.887C35.5542 120.561 35.2417 121.142 34.8218 121.63C34.4067 122.119 33.8794 122.495 33.2397 122.758C32.6001 123.017 31.8433 123.146 30.9692 123.146C30.0952 123.146 29.3384 123.017 28.6987 122.758C28.0591 122.495 27.5293 122.119 27.1094 121.63C26.6943 121.142 26.3843 120.559 26.1792 119.88C25.9741 119.201 25.8716 118.447 25.8716 117.617C25.8716 116.508 26.0522 115.544 26.4136 114.724C26.7798 113.898 27.3413 113.259 28.0981 112.805C28.855 112.351 29.8169 112.124 30.9839 112.124C32.146 112.124 33.1006 112.351 33.8477 112.805C34.5996 113.259 35.1562 113.898 35.5176 114.724C35.8838 115.549 36.0669 116.518 36.0669 117.631ZM28.252 117.631C28.252 118.378 28.3447 119.023 28.5303 119.565C28.7207 120.102 29.0161 120.517 29.4165 120.81C29.8169 121.098 30.3345 121.242 30.9692 121.242C31.6138 121.242 32.1362 121.098 32.5366 120.81C32.937 120.517 33.2275 120.102 33.4082 119.565C33.5938 119.023 33.6865 118.378 33.6865 117.631C33.6865 116.508 33.4766 115.625 33.0566 114.98C32.6367 114.335 31.9458 114.013 30.9839 114.013C30.3442 114.013 29.8218 114.16 29.4165 114.453C29.0161 114.741 28.7207 115.156 28.5303 115.698C28.3447 116.235 28.252 116.879 28.252 117.631ZM42.6367 116.489H40.7031V123H38.4692V116.489H37.2388V115.412L38.4692 114.812V114.211C38.4692 113.513 38.5864 112.971 38.8208 112.585C39.0601 112.194 39.3945 111.921 39.8242 111.765C40.2588 111.604 40.7715 111.523 41.3623 111.523C41.7969 111.523 42.1924 111.56 42.5488 111.633C42.9053 111.701 43.1958 111.779 43.4204 111.867L42.8491 113.508C42.6782 113.454 42.4927 113.405 42.2925 113.361C42.0923 113.317 41.8628 113.295 41.604 113.295C41.2915 113.295 41.062 113.391 40.9155 113.581C40.7739 113.767 40.7031 114.006 40.7031 114.299V114.812H42.6367V116.489ZM48.4448 116.489H46.5112V123H44.2773V116.489H43.0469V115.412L44.2773 114.812V114.211C44.2773 113.513 44.3945 112.971 44.6289 112.585C44.8682 112.194 45.2026 111.921 45.6323 111.765C46.0669 111.604 46.5796 111.523 47.1704 111.523C47.605 111.523 48.0005 111.56 48.3569 111.633C48.7134 111.701 49.0039 111.779 49.2285 111.867L48.6572 113.508C48.4863 113.454 48.3008 113.405 48.1006 113.361C47.9004 113.317 47.6709 113.295 47.4121 113.295C47.0996 113.295 46.8701 113.391 46.7236 113.581C46.582 113.767 46.5112 114.006 46.5112 114.299V114.812H48.4448V116.489ZM53.103 114.658C53.8599 114.658 54.5117 114.804 55.0586 115.097C55.6055 115.385 56.0278 115.805 56.3257 116.357C56.6235 116.909 56.7725 117.583 56.7725 118.378V119.462H51.4917C51.5161 120.092 51.7041 120.588 52.0557 120.949C52.4121 121.306 52.9053 121.484 53.5352 121.484C54.0576 121.484 54.5361 121.43 54.9707 121.323C55.4053 121.215 55.8521 121.054 56.311 120.839V122.568C55.9058 122.768 55.481 122.915 55.0366 123.007C54.5972 123.1 54.0625 123.146 53.4326 123.146C52.6123 123.146 51.8848 122.995 51.25 122.692C50.6201 122.39 50.1245 121.928 49.7632 121.308C49.4067 120.688 49.2285 119.907 49.2285 118.964C49.2285 118.007 49.3896 117.211 49.7119 116.577C50.0391 115.937 50.4932 115.458 51.0742 115.141C51.6553 114.819 52.3315 114.658 53.103 114.658ZM53.1177 116.247C52.6831 116.247 52.3218 116.386 52.0337 116.665C51.7505 116.943 51.5869 117.38 51.543 117.976H54.6777C54.6729 117.644 54.6118 117.348 54.4946 117.089C54.3823 116.831 54.2114 116.625 53.9819 116.474C53.7573 116.323 53.4692 116.247 53.1177 116.247ZM63.1592 114.658C63.2715 114.658 63.4009 114.665 63.5474 114.68C63.6987 114.689 63.8208 114.704 63.9136 114.724L63.7451 116.818C63.6719 116.794 63.5669 116.777 63.4302 116.767C63.2983 116.752 63.1836 116.745 63.0859 116.745C62.7979 116.745 62.5171 116.782 62.2437 116.855C61.9751 116.928 61.7334 117.048 61.5186 117.214C61.3037 117.375 61.1328 117.59 61.0059 117.858C60.8838 118.122 60.8228 118.447 60.8228 118.833V123H58.5889V114.812H60.2808L60.6104 116.188H60.7202C60.8813 115.91 61.0815 115.656 61.3208 115.427C61.5649 115.192 61.8408 115.007 62.1484 114.87C62.4609 114.729 62.7979 114.658 63.1592 114.658ZM71.1133 120.568C71.1133 121.125 70.9814 121.596 70.7178 121.982C70.459 122.363 70.0708 122.653 69.5532 122.854C69.0356 123.049 68.3911 123.146 67.6196 123.146C67.0483 123.146 66.5576 123.11 66.1475 123.037C65.7422 122.963 65.332 122.841 64.917 122.67V120.825C65.3613 121.025 65.8374 121.191 66.3452 121.323C66.8579 121.45 67.3071 121.513 67.6929 121.513C68.1274 121.513 68.4375 121.45 68.623 121.323C68.8135 121.191 68.9087 121.02 68.9087 120.81C68.9087 120.673 68.8696 120.551 68.7915 120.444C68.7183 120.332 68.5571 120.207 68.3081 120.07C68.0591 119.929 67.6685 119.746 67.1362 119.521C66.6235 119.306 66.2012 119.089 65.8691 118.869C65.542 118.649 65.2979 118.391 65.1367 118.093C64.9805 117.79 64.9023 117.407 64.9023 116.943C64.9023 116.186 65.1953 115.617 65.7812 115.236C66.3721 114.851 67.1606 114.658 68.147 114.658C68.6548 114.658 69.1382 114.709 69.5972 114.812C70.061 114.914 70.5371 115.078 71.0254 115.302L70.3516 116.914C69.9463 116.738 69.563 116.594 69.2017 116.481C68.8452 116.369 68.4814 116.313 68.1104 116.313C67.7832 116.313 67.5366 116.357 67.3706 116.445C67.2046 116.533 67.1216 116.667 67.1216 116.848C67.1216 116.979 67.1631 117.097 67.2461 117.199C67.334 117.302 67.5 117.417 67.7441 117.543C67.9932 117.666 68.3569 117.824 68.8354 118.02C69.2993 118.21 69.7021 118.41 70.0439 118.62C70.3857 118.825 70.6494 119.082 70.835 119.389C71.0205 119.692 71.1133 120.085 71.1133 120.568ZM81.2793 116.489H79.3457V123H77.1118V116.489H75.8813V115.412L77.1118 114.812V114.211C77.1118 113.513 77.229 112.971 77.4634 112.585C77.7026 112.194 78.0371 111.921 78.4668 111.765C78.9014 111.604 79.4141 111.523 80.0049 111.523C80.4395 111.523 80.835 111.56 81.1914 111.633C81.5479 111.701 81.8384 111.779 82.063 111.867L81.4917 113.508C81.3208 113.454 81.1353 113.405 80.9351 113.361C80.7349 113.317 80.5054 113.295 80.2466 113.295C79.9341 113.295 79.7046 113.391 79.5581 113.581C79.4165 113.767 79.3457 114.006 79.3457 114.299V114.812H81.2793V116.489ZM90.0098 118.891C90.0098 119.575 89.917 120.18 89.7314 120.708C89.5508 121.235 89.2847 121.682 88.9331 122.048C88.5864 122.409 88.1665 122.683 87.6733 122.868C87.1851 123.054 86.6333 123.146 86.0181 123.146C85.4419 123.146 84.9121 123.054 84.4287 122.868C83.9502 122.683 83.5327 122.409 83.1763 122.048C82.8247 121.682 82.5513 121.235 82.356 120.708C82.1655 120.18 82.0703 119.575 82.0703 118.891C82.0703 117.983 82.2314 117.214 82.5537 116.584C82.876 115.954 83.335 115.476 83.9307 115.148C84.5264 114.821 85.2368 114.658 86.062 114.658C86.8286 114.658 87.5073 114.821 88.0981 115.148C88.6938 115.476 89.1602 115.954 89.4971 116.584C89.8389 117.214 90.0098 117.983 90.0098 118.891ZM84.3481 118.891C84.3481 119.428 84.4067 119.88 84.5239 120.246C84.6411 120.612 84.8242 120.888 85.0732 121.074C85.3223 121.259 85.647 121.352 86.0474 121.352C86.4429 121.352 86.7627 121.259 87.0068 121.074C87.2559 120.888 87.4365 120.612 87.5488 120.246C87.666 119.88 87.7246 119.428 87.7246 118.891C87.7246 118.349 87.666 117.9 87.5488 117.543C87.4365 117.182 87.2559 116.911 87.0068 116.73C86.7578 116.55 86.4331 116.459 86.0327 116.459C85.4419 116.459 85.0122 116.662 84.7437 117.067C84.48 117.473 84.3481 118.081 84.3481 118.891ZM96.4258 114.658C96.5381 114.658 96.6675 114.665 96.814 114.68C96.9653 114.689 97.0874 114.704 97.1802 114.724L97.0117 116.818C96.9385 116.794 96.8335 116.777 96.6968 116.767C96.5649 116.752 96.4502 116.745 96.3525 116.745C96.0645 116.745 95.7837 116.782 95.5103 116.855C95.2417 116.928 95 117.048 94.7852 117.214C94.5703 117.375 94.3994 117.59 94.2725 117.858C94.1504 118.122 94.0894 118.447 94.0894 118.833V123H91.8555V114.812H93.5474L93.877 116.188H93.9868C94.1479 115.91 94.3481 115.656 94.5874 115.427C94.8315 115.192 95.1074 115.007 95.415 114.87C95.7275 114.729 96.0645 114.658 96.4258 114.658ZM28.4058 143H26.1719V131.604H28.4058V143ZM38.1982 138.891C38.1982 139.575 38.1055 140.18 37.9199 140.708C37.7393 141.235 37.4731 141.682 37.1216 142.048C36.7749 142.409 36.355 142.683 35.8618 142.868C35.3735 143.054 34.8218 143.146 34.2065 143.146C33.6304 143.146 33.1006 143.054 32.6172 142.868C32.1387 142.683 31.7212 142.409 31.3647 142.048C31.0132 141.682 30.7397 141.235 30.5444 140.708C30.354 140.18 30.2588 139.575 30.2588 138.891C30.2588 137.983 30.4199 137.214 30.7422 136.584C31.0645 135.954 31.5234 135.476 32.1191 135.148C32.7148 134.821 33.4253 134.658 34.2505 134.658C35.0171 134.658 35.6958 134.821 36.2866 135.148C36.8823 135.476 37.3486 135.954 37.6855 136.584C38.0273 137.214 38.1982 137.983 38.1982 138.891ZM32.5366 138.891C32.5366 139.428 32.5952 139.88 32.7124 140.246C32.8296 140.612 33.0127 140.888 33.2617 141.074C33.5107 141.259 33.8354 141.352 34.2358 141.352C34.6313 141.352 34.9512 141.259 35.1953 141.074C35.4443 140.888 35.625 140.612 35.7373 140.246C35.8545 139.88 35.9131 139.428 35.9131 138.891C35.9131 138.349 35.8545 137.9 35.7373 137.543C35.625 137.182 35.4443 136.911 35.1953 136.73C34.9463 136.55 34.6216 136.459 34.2212 136.459C33.6304 136.459 33.2007 136.662 32.9321 137.067C32.6685 137.473 32.5366 138.081 32.5366 138.891ZM43.3984 134.643C44.4971 134.643 45.3394 134.882 45.9253 135.361C46.5112 135.839 46.8042 136.567 46.8042 137.543V143H45.2441L44.812 141.887H44.7534C44.519 142.18 44.2798 142.419 44.0356 142.604C43.7915 142.79 43.5107 142.927 43.1934 143.015C42.876 143.103 42.4902 143.146 42.0361 143.146C41.5527 143.146 41.1182 143.054 40.7324 142.868C40.3516 142.683 40.0513 142.399 39.8315 142.019C39.6118 141.633 39.502 141.145 39.502 140.554C39.502 139.685 39.8071 139.045 40.4175 138.635C41.0278 138.22 41.9434 137.99 43.1641 137.946L44.585 137.902V137.543C44.585 137.114 44.4727 136.799 44.248 136.599C44.0234 136.398 43.7109 136.298 43.3105 136.298C42.915 136.298 42.5269 136.354 42.146 136.467C41.7651 136.579 41.3843 136.721 41.0034 136.892L40.2637 135.383C40.6982 135.153 41.1841 134.973 41.7212 134.841C42.2632 134.709 42.8223 134.643 43.3984 134.643ZM44.585 139.206L43.7207 139.235C42.998 139.255 42.4951 139.384 42.2119 139.624C41.9336 139.863 41.7944 140.178 41.7944 140.568C41.7944 140.91 41.8945 141.154 42.0947 141.301C42.2949 141.442 42.5562 141.513 42.8784 141.513C43.3569 141.513 43.7598 141.372 44.0869 141.088C44.4189 140.805 44.585 140.402 44.585 139.88V139.206ZM53.7622 134.658C54.6362 134.658 55.3394 134.897 55.8716 135.375C56.4038 135.849 56.6699 136.611 56.6699 137.661V143H54.436V138.217C54.436 137.631 54.3286 137.189 54.1138 136.892C53.9038 136.594 53.5718 136.445 53.1177 136.445C52.4341 136.445 51.9678 136.677 51.7188 137.141C51.4697 137.604 51.3452 138.273 51.3452 139.147V143H49.1113V134.812H50.8179L51.1182 135.859H51.2427C51.4185 135.576 51.6357 135.346 51.8945 135.17C52.1582 134.995 52.4487 134.865 52.7661 134.782C53.0884 134.699 53.4204 134.658 53.7622 134.658ZM67.4219 134.658C68.3447 134.658 69.0894 135.017 69.6558 135.734C70.2271 136.452 70.5127 137.504 70.5127 138.891C70.5127 139.819 70.3784 140.6 70.1099 141.235C69.8413 141.865 69.4702 142.341 68.9966 142.663C68.5229 142.985 67.9785 143.146 67.3633 143.146C66.9678 143.146 66.6284 143.098 66.3452 143C66.062 142.897 65.8203 142.768 65.6201 142.612C65.4199 142.451 65.2466 142.28 65.1001 142.099H64.9829C65.022 142.294 65.0513 142.495 65.0708 142.7C65.0903 142.905 65.1001 143.105 65.1001 143.3V146.604H62.8662V134.812H64.6826L64.9976 135.874H65.1001C65.2466 135.654 65.4248 135.451 65.6348 135.266C65.8447 135.08 66.0962 134.934 66.3892 134.826C66.687 134.714 67.0312 134.658 67.4219 134.658ZM66.7041 136.445C66.3135 136.445 66.0034 136.525 65.7739 136.687C65.5444 136.848 65.376 137.089 65.2686 137.412C65.166 137.734 65.1099 138.142 65.1001 138.635V138.876C65.1001 139.404 65.1489 139.851 65.2466 140.217C65.3491 140.583 65.5176 140.861 65.752 141.052C65.9912 141.242 66.3184 141.337 66.7334 141.337C67.0752 141.337 67.356 141.242 67.5757 141.052C67.7954 140.861 67.959 140.583 68.0664 140.217C68.1787 139.846 68.2349 139.394 68.2349 138.862C68.2349 138.061 68.1104 137.458 67.8613 137.053C67.6123 136.647 67.2266 136.445 66.7041 136.445ZM76.9287 134.658C77.041 134.658 77.1704 134.665 77.3169 134.68C77.4683 134.689 77.5903 134.704 77.6831 134.724L77.5146 136.818C77.4414 136.794 77.3364 136.777 77.1997 136.767C77.0679 136.752 76.9531 136.745 76.8555 136.745C76.5674 136.745 76.2866 136.782 76.0132 136.855C75.7446 136.928 75.5029 137.048 75.2881 137.214C75.0732 137.375 74.9023 137.59 74.7754 137.858C74.6533 138.122 74.5923 138.447 74.5923 138.833V143H72.3584V134.812H74.0503L74.3799 136.188H74.4897C74.6509 135.91 74.8511 135.656 75.0903 135.427C75.3345 135.192 75.6104 135.007 75.918 134.87C76.2305 134.729 76.5674 134.658 76.9287 134.658ZM86.6113 138.891C86.6113 139.575 86.5186 140.18 86.333 140.708C86.1523 141.235 85.8862 141.682 85.5347 142.048C85.188 142.409 84.7681 142.683 84.2749 142.868C83.7866 143.054 83.2349 143.146 82.6196 143.146C82.0435 143.146 81.5137 143.054 81.0303 142.868C80.5518 142.683 80.1343 142.409 79.7778 142.048C79.4263 141.682 79.1528 141.235 78.9575 140.708C78.7671 140.18 78.6719 139.575 78.6719 138.891C78.6719 137.983 78.833 137.214 79.1553 136.584C79.4775 135.954 79.9365 135.476 80.5322 135.148C81.1279 134.821 81.8384 134.658 82.6636 134.658C83.4302 134.658 84.1089 134.821 84.6997 135.148C85.2954 135.476 85.7617 135.954 86.0986 136.584C86.4404 137.214 86.6113 137.983 86.6113 138.891ZM80.9497 138.891C80.9497 139.428 81.0083 139.88 81.1255 140.246C81.2427 140.612 81.4258 140.888 81.6748 141.074C81.9238 141.259 82.2485 141.352 82.6489 141.352C83.0444 141.352 83.3643 141.259 83.6084 141.074C83.8574 140.888 84.0381 140.612 84.1504 140.246C84.2676 139.88 84.3262 139.428 84.3262 138.891C84.3262 138.349 84.2676 137.9 84.1504 137.543C84.0381 137.182 83.8574 136.911 83.6084 136.73C83.3594 136.55 83.0347 136.459 82.6343 136.459C82.0435 136.459 81.6138 136.662 81.3452 137.067C81.0815 137.473 80.9497 138.081 80.9497 138.891ZM91.0498 143.146C90.1367 143.146 89.3921 142.79 88.8159 142.077C88.2446 141.359 87.959 140.307 87.959 138.92C87.959 137.519 88.2495 136.459 88.8306 135.742C89.4116 135.019 90.1709 134.658 91.1084 134.658C91.499 134.658 91.8433 134.711 92.1411 134.819C92.439 134.926 92.6953 135.07 92.9102 135.251C93.1299 135.432 93.3154 135.634 93.4668 135.859H93.54C93.5107 135.703 93.4741 135.473 93.4302 135.17C93.3911 134.863 93.3716 134.548 93.3716 134.226V131.604H95.6128V143H93.8989L93.4668 141.938H93.3716C93.23 142.163 93.0518 142.368 92.8369 142.553C92.627 142.734 92.3755 142.878 92.0825 142.985C91.7896 143.093 91.4453 143.146 91.0498 143.146ZM91.8335 141.367C92.4438 141.367 92.8735 141.186 93.1226 140.825C93.3765 140.458 93.5107 139.909 93.5254 139.177V138.935C93.5254 138.139 93.4033 137.531 93.1592 137.111C92.915 136.687 92.4609 136.474 91.7969 136.474C91.3037 136.474 90.918 136.687 90.6396 137.111C90.3613 137.536 90.2222 138.149 90.2222 138.95C90.2222 139.75 90.3613 140.354 90.6396 140.759C90.9229 141.164 91.3208 141.367 91.8335 141.367ZM105.464 134.812V143H103.75L103.45 141.953H103.333C103.157 142.231 102.937 142.458 102.673 142.634C102.41 142.81 102.119 142.939 101.802 143.022C101.484 143.105 101.155 143.146 100.813 143.146C100.227 143.146 99.7168 143.044 99.2822 142.839C98.8477 142.629 98.5083 142.304 98.2642 141.865C98.0249 141.425 97.9053 140.854 97.9053 140.151V134.812H100.139V139.594C100.139 140.18 100.244 140.622 100.454 140.92C100.664 141.218 100.999 141.367 101.458 141.367C101.912 141.367 102.268 141.264 102.527 141.059C102.786 140.849 102.966 140.544 103.069 140.144C103.176 139.738 103.23 139.245 103.23 138.664V134.812H105.464ZM111.133 143.146C110.322 143.146 109.631 143 109.06 142.707C108.489 142.409 108.054 141.95 107.756 141.33C107.458 140.71 107.31 139.917 107.31 138.95C107.31 137.949 107.478 137.133 107.815 136.503C108.157 135.869 108.628 135.402 109.229 135.104C109.834 134.807 110.535 134.658 111.331 134.658C111.897 134.658 112.385 134.714 112.795 134.826C113.21 134.934 113.572 135.063 113.879 135.214L113.22 136.943C112.869 136.801 112.542 136.687 112.239 136.599C111.936 136.506 111.633 136.459 111.331 136.459C110.94 136.459 110.615 136.552 110.356 136.738C110.098 136.918 109.905 137.192 109.778 137.558C109.651 137.924 109.587 138.383 109.587 138.935C109.587 139.477 109.656 139.926 109.792 140.283C109.929 140.639 110.127 140.905 110.386 141.081C110.645 141.252 110.959 141.337 111.331 141.337C111.794 141.337 112.207 141.276 112.568 141.154C112.93 141.027 113.281 140.852 113.623 140.627V142.539C113.281 142.753 112.922 142.907 112.546 143C112.175 143.098 111.704 143.146 111.133 143.146ZM118.977 141.367C119.221 141.367 119.458 141.342 119.688 141.293C119.922 141.245 120.154 141.184 120.383 141.11V142.773C120.144 142.88 119.846 142.968 119.49 143.037C119.138 143.11 118.752 143.146 118.333 143.146C117.844 143.146 117.405 143.068 117.014 142.912C116.628 142.751 116.323 142.475 116.099 142.084C115.879 141.689 115.769 141.14 115.769 140.437V136.489H114.7V135.544L115.93 134.797L116.575 133.068H118.003V134.812H120.295V136.489H118.003V140.437C118.003 140.749 118.091 140.983 118.267 141.14C118.447 141.291 118.684 141.367 118.977 141.367ZM127.759 140.568C127.759 141.125 127.627 141.596 127.363 141.982C127.104 142.363 126.716 142.653 126.199 142.854C125.681 143.049 125.037 143.146 124.265 143.146C123.694 143.146 123.203 143.11 122.793 143.037C122.388 142.963 121.978 142.841 121.562 142.67V140.825C122.007 141.025 122.483 141.191 122.991 141.323C123.503 141.45 123.953 141.513 124.338 141.513C124.773 141.513 125.083 141.45 125.269 141.323C125.459 141.191 125.554 141.02 125.554 140.81C125.554 140.673 125.515 140.551 125.437 140.444C125.364 140.332 125.203 140.207 124.954 140.07C124.705 139.929 124.314 139.746 123.782 139.521C123.269 139.306 122.847 139.089 122.515 138.869C122.188 138.649 121.943 138.391 121.782 138.093C121.626 137.79 121.548 137.407 121.548 136.943C121.548 136.186 121.841 135.617 122.427 135.236C123.018 134.851 123.806 134.658 124.792 134.658C125.3 134.658 125.784 134.709 126.243 134.812C126.707 134.914 127.183 135.078 127.671 135.302L126.997 136.914C126.592 136.738 126.208 136.594 125.847 136.481C125.491 136.369 125.127 136.313 124.756 136.313C124.429 136.313 124.182 136.357 124.016 136.445C123.85 136.533 123.767 136.667 123.767 136.848C123.767 136.979 123.809 137.097 123.892 137.199C123.979 137.302 124.146 137.417 124.39 137.543C124.639 137.666 125.002 137.824 125.481 138.02C125.945 138.21 126.348 138.41 126.689 138.62C127.031 138.825 127.295 139.082 127.48 139.389C127.666 139.692 127.759 140.085 127.759 140.568Z" fill="white"/>
    <path d="M36.728 59.48C34.008 59.48 31.64 58.92 29.624 57.8C27.608 56.648 25.752 54.68 24.056 51.896L30.008 48.152C30.68 49.24 31.384 50.12 32.12 50.792C32.888 51.464 33.672 51.96 34.472 52.28C35.304 52.568 36.152 52.712 37.016 52.712C37.912 52.712 38.728 52.52 39.464 52.136C40.2 51.72 40.792 51.16 41.24 50.456C41.688 49.72 41.912 48.872 41.912 47.912C41.912 46.92 41.72 46.104 41.336 45.464C40.952 44.792 40.392 44.28 39.656 43.928C38.92 43.576 38.024 43.4 36.968 43.4C36.52 43.4 36.008 43.464 35.432 43.592C34.888 43.688 34.312 43.832 33.704 44.024C33.096 44.216 32.472 44.44 31.832 44.696L30.056 39.944L38.12 31.064L40.328 32.312L26.408 32.072V25.112H47.048L48.584 28.088L37.496 39.944L35.624 37.688C35.88 37.592 36.296 37.496 36.872 37.4C37.448 37.272 37.992 37.208 38.504 37.208C39.976 37.208 41.368 37.48 42.68 38.024C43.992 38.568 45.16 39.32 46.184 40.28C47.208 41.24 48.008 42.36 48.584 43.64C49.16 44.92 49.448 46.312 49.448 47.816C49.448 50.056 48.872 52.056 47.72 53.816C46.6 55.576 45.08 56.968 43.16 57.992C41.24 58.984 39.096 59.48 36.728 59.48Z" fill="white"/>
</svg>
