<svg width="185" height="185" viewBox="0 0 185 185" fill="none" xmlns="http://www.w3.org/2000/svg">
    <path d="M180.775 16.4951L167.98 3.7V13.32H25.9C18.9523 13.32 13.32 18.9523 13.32 25.9V167.24H2.96L16.4951 180.775C18.7994 183.367 22.159 185 25.9 185H172.42C179.368 185 185 179.368 185 172.42V25.9C185 22.159 183.367 18.7994 180.775 16.4951Z" fill="#CA18EC"/>
    <path d="M0 12.58C0 5.63226 5.63226 0 12.58 0H159.1C166.048 0 171.68 5.63226 171.68 12.58V159.1C171.68 166.048 166.048 171.68 159.1 171.68H12.58C5.63226 171.68 0 166.048 0 159.1V12.58Z" fill="#F910E9"/>
    <path d="M30.088 99.8V86.24L31 88.256L27.424 89.936L26.704 86.312L31.504 83.96H34.12V99.8H30.088ZM27.04 101V97.376H37.264V101H27.04ZM46.5874 101.24C45.0834 101.24 43.8034 100.896 42.7474 100.208C41.6914 99.52 40.8834 98.536 40.3234 97.256C39.7634 95.96 39.4834 94.408 39.4834 92.6C39.4834 90.792 39.7634 89.248 40.3234 87.968C40.8834 86.672 41.6914 85.68 42.7474 84.992C43.8034 84.304 45.0834 83.96 46.5874 83.96C48.0914 83.96 49.3714 84.304 50.4274 84.992C51.4834 85.68 52.2914 86.672 52.8514 87.968C53.4114 89.248 53.6914 90.792 53.6914 92.6C53.6914 94.408 53.4114 95.96 52.8514 97.256C52.2914 98.536 51.4834 99.52 50.4274 100.208C49.3714 100.896 48.0914 101.24 46.5874 101.24ZM46.5874 97.76C47.6114 97.76 48.3954 97.312 48.9394 96.416C49.4994 95.52 49.7794 94.248 49.7794 92.6C49.7794 90.888 49.4994 89.576 48.9394 88.664C48.3954 87.752 47.6114 87.296 46.5874 87.296C45.5634 87.296 44.7714 87.752 44.2114 88.664C43.6514 89.576 43.3714 90.888 43.3714 92.6C43.3714 94.248 43.6514 95.52 44.2114 96.416C44.7714 97.312 45.5634 97.76 46.5874 97.76ZM55.7764 95.768V92.648H67.8244V95.768H55.7764ZM60.0484 100.04L60.0724 88.352H63.5524L63.5284 100.04H60.0484ZM78.3128 101V88.256H81.9848L82.1048 90.56L81.5768 90.608C81.7528 90.192 81.9928 89.824 82.2968 89.504C82.6008 89.184 82.9368 88.92 83.3048 88.712C83.6888 88.488 84.0888 88.32 84.5048 88.208C84.9208 88.08 85.3368 88.016 85.7528 88.016C86.3928 88.016 86.9608 88.112 87.4568 88.304C87.9688 88.496 88.4088 88.808 88.7768 89.24C89.1608 89.672 89.4648 90.248 89.6888 90.968L89.1128 90.872L89.2808 90.536C89.5048 90.152 89.7768 89.808 90.0968 89.504C90.4328 89.184 90.8008 88.912 91.2008 88.688C91.6008 88.464 92.0088 88.296 92.4248 88.184C92.8568 88.072 93.2728 88.016 93.6728 88.016C94.6808 88.016 95.5208 88.216 96.1928 88.616C96.8648 89.016 97.3688 89.608 97.7048 90.392C98.0408 91.16 98.2088 92.112 98.2088 93.248V101H94.3448V93.536C94.3448 92.784 94.1848 92.224 93.8648 91.856C93.5608 91.472 93.0968 91.28 92.4728 91.28C92.1368 91.28 91.8248 91.336 91.5368 91.448C91.2648 91.544 91.0248 91.696 90.8168 91.904C90.6248 92.096 90.4728 92.32 90.3608 92.576C90.2488 92.832 90.1928 93.12 90.1928 93.44V101H86.3288V93.512C86.3288 92.792 86.1608 92.24 85.8248 91.856C85.5048 91.472 85.0488 91.28 84.4568 91.28C84.1368 91.28 83.8328 91.336 83.5448 91.448C83.2728 91.544 83.0328 91.696 82.8248 91.904C82.6328 92.096 82.4808 92.32 82.3688 92.576C82.2568 92.832 82.2008 93.12 82.2008 93.44V101H78.3128ZM101.423 101V83.24H105.287V101H101.423ZM108.712 101V88.256H112.384L112.528 90.848L111.736 91.136C111.912 90.56 112.224 90.04 112.672 89.576C113.136 89.096 113.688 88.712 114.328 88.424C114.968 88.136 115.64 87.992 116.344 87.992C117.304 87.992 118.112 88.192 118.768 88.592C119.424 88.976 119.912 89.56 120.232 90.344C120.568 91.112 120.736 92.064 120.736 93.2V101H116.872V93.488C116.872 92.976 116.8 92.552 116.656 92.216C116.512 91.88 116.296 91.632 116.008 91.472C115.72 91.312 115.36 91.24 114.928 91.256C114.592 91.256 114.28 91.312 113.992 91.424C113.704 91.52 113.448 91.672 113.224 91.88C113.016 92.072 112.856 92.296 112.744 92.552C112.632 92.808 112.576 93.096 112.576 93.416V101H110.632C110.216 101 109.84 101 109.504 101C109.184 101 108.92 101 108.712 101Z" fill="white"/>
    <path d="M35.0635 112.292V119.221C35.0635 119.958 34.8999 120.625 34.5728 121.22C34.2505 121.811 33.7598 122.28 33.1006 122.626C32.4463 122.973 31.6211 123.146 30.625 123.146C29.209 123.146 28.1299 122.785 27.3877 122.062C26.6455 121.34 26.2744 120.383 26.2744 119.191V112.292H28.5376V118.847C28.5376 119.731 28.7183 120.351 29.0796 120.708C29.4409 121.064 29.9756 121.242 30.6836 121.242C31.1816 121.242 31.5845 121.157 31.8921 120.986C32.2046 120.815 32.4341 120.551 32.5806 120.195C32.7271 119.838 32.8003 119.384 32.8003 118.833V112.292H35.0635ZM42.1606 114.658C43.0347 114.658 43.7378 114.897 44.27 115.375C44.8022 115.849 45.0684 116.611 45.0684 117.661V123H42.8345V118.217C42.8345 117.631 42.7271 117.189 42.5122 116.892C42.3022 116.594 41.9702 116.445 41.5161 116.445C40.8325 116.445 40.3662 116.677 40.1172 117.141C39.8682 117.604 39.7437 118.273 39.7437 119.147V123H37.5098V114.812H39.2163L39.5166 115.859H39.6411C39.8169 115.576 40.0342 115.346 40.293 115.17C40.5566 114.995 40.8472 114.865 41.1646 114.782C41.4868 114.699 41.8188 114.658 42.1606 114.658ZM49.6021 114.812V123H47.3682V114.812H49.6021ZM48.4888 111.604C48.8208 111.604 49.1064 111.682 49.3457 111.838C49.585 111.989 49.7046 112.275 49.7046 112.695C49.7046 113.11 49.585 113.398 49.3457 113.559C49.1064 113.715 48.8208 113.793 48.4888 113.793C48.1519 113.793 47.8638 113.715 47.6245 113.559C47.3901 113.398 47.2729 113.11 47.2729 112.695C47.2729 112.275 47.3901 111.989 47.6245 111.838C47.8638 111.682 48.1519 111.604 48.4888 111.604ZM56.8677 126.604V123.168C56.8677 122.963 56.875 122.758 56.8896 122.553C56.9092 122.343 56.9336 122.138 56.9629 121.938H56.8677C56.6577 122.275 56.3672 122.561 55.9961 122.795C55.6299 123.029 55.1465 123.146 54.5459 123.146C53.623 123.146 52.876 122.79 52.3047 122.077C51.7383 121.359 51.4551 120.307 51.4551 118.92C51.4551 117.988 51.5869 117.207 51.8506 116.577C52.1143 115.942 52.4805 115.463 52.9492 115.141C53.4229 114.819 53.9697 114.658 54.5898 114.658C55.1904 114.658 55.6763 114.775 56.0474 115.009C56.4233 115.239 56.7285 115.522 56.9629 115.859H57.0215L57.2192 114.812H59.1089V126.604H56.8677ZM55.3442 121.396C55.7544 121.396 56.0791 121.315 56.3184 121.154C56.5625 120.993 56.7383 120.751 56.8457 120.429C56.9531 120.102 57.0117 119.694 57.0215 119.206V118.935C57.0215 118.139 56.8994 117.531 56.6553 117.111C56.4111 116.687 55.9619 116.474 55.3076 116.474C54.7754 116.474 54.3799 116.687 54.1211 117.111C53.8623 117.536 53.7329 118.149 53.7329 118.95C53.7329 119.765 53.8647 120.378 54.1284 120.788C54.3921 121.193 54.7974 121.396 55.3442 121.396ZM68.96 114.812V123H67.2461L66.9458 121.953H66.8286C66.6528 122.231 66.4331 122.458 66.1694 122.634C65.9058 122.81 65.6152 122.939 65.2979 123.022C64.9805 123.105 64.6509 123.146 64.3091 123.146C63.7231 123.146 63.2129 123.044 62.7783 122.839C62.3438 122.629 62.0044 122.304 61.7603 121.865C61.521 121.425 61.4014 120.854 61.4014 120.151V114.812H63.6353V119.594C63.6353 120.18 63.7402 120.622 63.9502 120.92C64.1602 121.218 64.4946 121.367 64.9536 121.367C65.4077 121.367 65.7642 121.264 66.0229 121.059C66.2817 120.849 66.4624 120.544 66.5649 120.144C66.6724 119.738 66.7261 119.245 66.7261 118.664V114.812H68.96ZM74.6802 114.658C75.437 114.658 76.0889 114.804 76.6357 115.097C77.1826 115.385 77.605 115.805 77.9028 116.357C78.2007 116.909 78.3496 117.583 78.3496 118.378V119.462H73.0688C73.0933 120.092 73.2812 120.588 73.6328 120.949C73.9893 121.306 74.4824 121.484 75.1123 121.484C75.6348 121.484 76.1133 121.43 76.5479 121.323C76.9824 121.215 77.4292 121.054 77.8882 120.839V122.568C77.4829 122.768 77.0581 122.915 76.6138 123.007C76.1743 123.1 75.6396 123.146 75.0098 123.146C74.1895 123.146 73.4619 122.995 72.8271 122.692C72.1973 122.39 71.7017 121.928 71.3403 121.308C70.9839 120.688 70.8057 119.907 70.8057 118.964C70.8057 118.007 70.9668 117.211 71.2891 116.577C71.6162 115.937 72.0703 115.458 72.6514 115.141C73.2324 114.819 73.9087 114.658 74.6802 114.658ZM74.6948 116.247C74.2603 116.247 73.8989 116.386 73.6108 116.665C73.3276 116.943 73.1641 117.38 73.1201 117.976H76.2549C76.25 117.644 76.189 117.348 76.0718 117.089C75.9595 116.831 75.7886 116.625 75.5591 116.474C75.3345 116.323 75.0464 116.247 74.6948 116.247ZM86.0107 123L82.8906 114.812H85.2271L86.8091 119.477C86.897 119.75 86.9653 120.039 87.0142 120.341C87.0679 120.644 87.1045 120.915 87.124 121.154H87.1826C87.1973 120.896 87.2314 120.62 87.2852 120.327C87.3438 120.034 87.4194 119.75 87.5122 119.477L89.0869 114.812H91.4233L88.3032 123H86.0107ZM94.8364 114.812V123H92.6025V114.812H94.8364ZM93.7231 111.604C94.0552 111.604 94.3408 111.682 94.5801 111.838C94.8193 111.989 94.939 112.275 94.939 112.695C94.939 113.11 94.8193 113.398 94.5801 113.559C94.3408 113.715 94.0552 113.793 93.7231 113.793C93.3862 113.793 93.0981 113.715 92.8589 113.559C92.6245 113.398 92.5073 113.11 92.5073 112.695C92.5073 112.275 92.6245 111.989 92.8589 111.838C93.0981 111.682 93.3862 111.604 93.7231 111.604ZM102.9 120.568C102.9 121.125 102.769 121.596 102.505 121.982C102.246 122.363 101.858 122.653 101.34 122.854C100.823 123.049 100.178 123.146 99.4067 123.146C98.8354 123.146 98.3447 123.11 97.9346 123.037C97.5293 122.963 97.1191 122.841 96.7041 122.67V120.825C97.1484 121.025 97.6245 121.191 98.1323 121.323C98.645 121.45 99.0942 121.513 99.48 121.513C99.9146 121.513 100.225 121.45 100.41 121.323C100.601 121.191 100.696 121.02 100.696 120.81C100.696 120.673 100.657 120.551 100.579 120.444C100.505 120.332 100.344 120.207 100.095 120.07C99.8462 119.929 99.4556 119.746 98.9233 119.521C98.4106 119.306 97.9883 119.089 97.6562 118.869C97.3291 118.649 97.085 118.391 96.9238 118.093C96.7676 117.79 96.6895 117.407 96.6895 116.943C96.6895 116.186 96.9824 115.617 97.5684 115.236C98.1592 114.851 98.9478 114.658 99.9341 114.658C100.442 114.658 100.925 114.709 101.384 114.812C101.848 114.914 102.324 115.078 102.812 115.302L102.139 116.914C101.733 116.738 101.35 116.594 100.989 116.481C100.632 116.369 100.269 116.313 99.8975 116.313C99.5703 116.313 99.3237 116.357 99.1577 116.445C98.9917 116.533 98.9087 116.667 98.9087 116.848C98.9087 116.979 98.9502 117.097 99.0332 117.199C99.1211 117.302 99.2871 117.417 99.5312 117.543C99.7803 117.666 100.144 117.824 100.623 118.02C101.086 118.21 101.489 118.41 101.831 118.62C102.173 118.825 102.437 119.082 102.622 119.389C102.808 119.692 102.9 120.085 102.9 120.568ZM106.877 114.812V123H104.644V114.812H106.877ZM105.764 111.604C106.096 111.604 106.382 111.682 106.621 111.838C106.86 111.989 106.98 112.275 106.98 112.695C106.98 113.11 106.86 113.398 106.621 113.559C106.382 113.715 106.096 113.793 105.764 113.793C105.427 113.793 105.139 113.715 104.9 113.559C104.666 113.398 104.548 113.11 104.548 112.695C104.548 112.275 104.666 111.989 104.9 111.838C105.139 111.682 105.427 111.604 105.764 111.604ZM112.678 121.367C112.922 121.367 113.159 121.342 113.389 121.293C113.623 121.245 113.855 121.184 114.084 121.11V122.773C113.845 122.88 113.547 122.968 113.191 123.037C112.839 123.11 112.454 123.146 112.034 123.146C111.545 123.146 111.106 123.068 110.715 122.912C110.33 122.751 110.024 122.475 109.8 122.084C109.58 121.689 109.47 121.14 109.47 120.437V116.489H108.401V115.544L109.631 114.797L110.276 113.068H111.704V114.812H113.997V116.489H111.704V120.437C111.704 120.749 111.792 120.983 111.968 121.14C112.148 121.291 112.385 121.367 112.678 121.367ZM123.188 118.891C123.188 119.575 123.096 120.18 122.91 120.708C122.729 121.235 122.463 121.682 122.112 122.048C121.765 122.409 121.345 122.683 120.852 122.868C120.364 123.054 119.812 123.146 119.197 123.146C118.621 123.146 118.091 123.054 117.607 122.868C117.129 122.683 116.711 122.409 116.355 122.048C116.003 121.682 115.73 121.235 115.535 120.708C115.344 120.18 115.249 119.575 115.249 118.891C115.249 117.983 115.41 117.214 115.732 116.584C116.055 115.954 116.514 115.476 117.109 115.148C117.705 114.821 118.416 114.658 119.241 114.658C120.007 114.658 120.686 114.821 121.277 115.148C121.873 115.476 122.339 115.954 122.676 116.584C123.018 117.214 123.188 117.983 123.188 118.891ZM117.527 118.891C117.527 119.428 117.585 119.88 117.703 120.246C117.82 120.612 118.003 120.888 118.252 121.074C118.501 121.259 118.826 121.352 119.226 121.352C119.622 121.352 119.941 121.259 120.186 121.074C120.435 120.888 120.615 120.612 120.728 120.246C120.845 119.88 120.903 119.428 120.903 118.891C120.903 118.349 120.845 117.9 120.728 117.543C120.615 117.182 120.435 116.911 120.186 116.73C119.937 116.55 119.612 116.459 119.211 116.459C118.621 116.459 118.191 116.662 117.922 117.067C117.659 117.473 117.527 118.081 117.527 118.891ZM129.604 114.658C129.717 114.658 129.846 114.665 129.993 114.68C130.144 114.689 130.266 114.704 130.359 114.724L130.19 116.818C130.117 116.794 130.012 116.777 129.875 116.767C129.744 116.752 129.629 116.745 129.531 116.745C129.243 116.745 128.962 116.782 128.689 116.855C128.42 116.928 128.179 117.048 127.964 117.214C127.749 117.375 127.578 117.59 127.451 117.858C127.329 118.122 127.268 118.447 127.268 118.833V123H125.034V114.812H126.726L127.056 116.188H127.166C127.327 115.91 127.527 115.656 127.766 115.427C128.01 115.192 128.286 115.007 128.594 114.87C128.906 114.729 129.243 114.658 129.604 114.658ZM137.559 120.568C137.559 121.125 137.427 121.596 137.163 121.982C136.904 122.363 136.516 122.653 135.999 122.854C135.481 123.049 134.836 123.146 134.065 123.146C133.494 123.146 133.003 123.11 132.593 123.037C132.188 122.963 131.777 122.841 131.362 122.67V120.825C131.807 121.025 132.283 121.191 132.791 121.323C133.303 121.45 133.752 121.513 134.138 121.513C134.573 121.513 134.883 121.45 135.068 121.323C135.259 121.191 135.354 121.02 135.354 120.81C135.354 120.673 135.315 120.551 135.237 120.444C135.164 120.332 135.002 120.207 134.753 120.07C134.504 119.929 134.114 119.746 133.582 119.521C133.069 119.306 132.646 119.089 132.314 118.869C131.987 118.649 131.743 118.391 131.582 118.093C131.426 117.79 131.348 117.407 131.348 116.943C131.348 116.186 131.641 115.617 132.227 115.236C132.817 114.851 133.606 114.658 134.592 114.658C135.1 114.658 135.583 114.709 136.042 114.812C136.506 114.914 136.982 115.078 137.471 115.302L136.797 116.914C136.392 116.738 136.008 116.594 135.647 116.481C135.291 116.369 134.927 116.313 134.556 116.313C134.229 116.313 133.982 116.357 133.816 116.445C133.65 116.533 133.567 116.667 133.567 116.848C133.567 116.979 133.608 117.097 133.691 117.199C133.779 117.302 133.945 117.417 134.189 117.543C134.438 117.666 134.802 117.824 135.281 118.02C135.745 118.21 136.147 118.41 136.489 118.62C136.831 118.825 137.095 119.082 137.28 119.389C137.466 119.692 137.559 120.085 137.559 120.568ZM30.7275 134.658C31.6504 134.658 32.395 135.017 32.9614 135.734C33.5327 136.452 33.8184 137.504 33.8184 138.891C33.8184 139.819 33.6841 140.6 33.4155 141.235C33.147 141.865 32.7759 142.341 32.3022 142.663C31.8286 142.985 31.2842 143.146 30.6689 143.146C30.2734 143.146 29.9341 143.098 29.6509 143C29.3677 142.897 29.126 142.768 28.9258 142.612C28.7256 142.451 28.5522 142.28 28.4058 142.099H28.2886C28.3276 142.294 28.3569 142.495 28.3765 142.7C28.396 142.905 28.4058 143.105 28.4058 143.3V146.604H26.1719V134.812H27.9883L28.3032 135.874H28.4058C28.5522 135.654 28.7305 135.451 28.9404 135.266C29.1504 135.08 29.4019 134.934 29.6948 134.826C29.9927 134.714 30.3369 134.658 30.7275 134.658ZM30.0098 136.445C29.6191 136.445 29.3091 136.525 29.0796 136.687C28.8501 136.848 28.6816 137.089 28.5742 137.412C28.4717 137.734 28.4155 138.142 28.4058 138.635V138.876C28.4058 139.404 28.4546 139.851 28.5522 140.217C28.6548 140.583 28.8232 140.861 29.0576 141.052C29.2969 141.242 29.624 141.337 30.0391 141.337C30.3809 141.337 30.6616 141.242 30.8813 141.052C31.1011 140.861 31.2646 140.583 31.3721 140.217C31.4844 139.846 31.5405 139.394 31.5405 138.862C31.5405 138.061 31.416 137.458 31.167 137.053C30.918 136.647 30.5322 136.445 30.0098 136.445ZM39.0405 134.658C39.7974 134.658 40.4492 134.804 40.9961 135.097C41.543 135.385 41.9653 135.805 42.2632 136.357C42.561 136.909 42.71 137.583 42.71 138.378V139.462H37.4292C37.4536 140.092 37.6416 140.588 37.9932 140.949C38.3496 141.306 38.8428 141.484 39.4727 141.484C39.9951 141.484 40.4736 141.43 40.9082 141.323C41.3428 141.215 41.7896 141.054 42.2485 140.839V142.568C41.8433 142.768 41.4185 142.915 40.9741 143.007C40.5347 143.1 40 143.146 39.3701 143.146C38.5498 143.146 37.8223 142.995 37.1875 142.692C36.5576 142.39 36.062 141.928 35.7007 141.308C35.3442 140.688 35.166 139.907 35.166 138.964C35.166 138.007 35.3271 137.211 35.6494 136.577C35.9766 135.937 36.4307 135.458 37.0117 135.141C37.5928 134.819 38.269 134.658 39.0405 134.658ZM39.0552 136.247C38.6206 136.247 38.2593 136.386 37.9712 136.665C37.688 136.943 37.5244 137.38 37.4805 137.976H40.6152C40.6104 137.644 40.5493 137.348 40.4321 137.089C40.3198 136.831 40.1489 136.625 39.9194 136.474C39.6948 136.323 39.4067 136.247 39.0552 136.247ZM49.0967 134.658C49.209 134.658 49.3384 134.665 49.4849 134.68C49.6362 134.689 49.7583 134.704 49.8511 134.724L49.6826 136.818C49.6094 136.794 49.5044 136.777 49.3677 136.767C49.2358 136.752 49.1211 136.745 49.0234 136.745C48.7354 136.745 48.4546 136.782 48.1812 136.855C47.9126 136.928 47.6709 137.048 47.4561 137.214C47.2412 137.375 47.0703 137.59 46.9434 137.858C46.8213 138.122 46.7603 138.447 46.7603 138.833V143H44.5264V134.812H46.2183L46.5479 136.188H46.6577C46.8188 135.91 47.019 135.656 47.2583 135.427C47.5024 135.192 47.7783 135.007 48.0859 134.87C48.3984 134.729 48.7354 134.658 49.0967 134.658ZM64.8511 134.658C65.7788 134.658 66.4795 134.897 66.9531 135.375C67.4316 135.849 67.6709 136.611 67.6709 137.661V143H65.4297V138.217C65.4297 137.631 65.3296 137.189 65.1294 136.892C64.9292 136.594 64.6191 136.445 64.1992 136.445C63.6084 136.445 63.1885 136.657 62.9395 137.082C62.6904 137.502 62.5659 138.105 62.5659 138.891V143H60.332V138.217C60.332 137.827 60.2881 137.5 60.2002 137.236C60.1123 136.972 59.978 136.774 59.7974 136.643C59.6167 136.511 59.3848 136.445 59.1016 136.445C58.6865 136.445 58.3594 136.55 58.1201 136.76C57.8857 136.965 57.7173 137.27 57.6147 137.675C57.5171 138.076 57.4683 138.566 57.4683 139.147V143H55.2344V134.812H56.9409L57.2412 135.859H57.3657C57.5317 135.576 57.7393 135.346 57.9883 135.17C58.2422 134.995 58.5205 134.865 58.8232 134.782C59.126 134.699 59.4336 134.658 59.7461 134.658C60.3467 134.658 60.8545 134.755 61.2695 134.951C61.6895 135.146 62.0117 135.449 62.2363 135.859H62.4341C62.6782 135.439 63.0225 135.134 63.4668 134.943C63.916 134.753 64.3774 134.658 64.8511 134.658ZM77.4121 138.891C77.4121 139.575 77.3193 140.18 77.1338 140.708C76.9531 141.235 76.687 141.682 76.3354 142.048C75.9888 142.409 75.5688 142.683 75.0757 142.868C74.5874 143.054 74.0356 143.146 73.4204 143.146C72.8442 143.146 72.3145 143.054 71.8311 142.868C71.3525 142.683 70.9351 142.409 70.5786 142.048C70.2271 141.682 69.9536 141.235 69.7583 140.708C69.5679 140.18 69.4727 139.575 69.4727 138.891C69.4727 137.983 69.6338 137.214 69.9561 136.584C70.2783 135.954 70.7373 135.476 71.333 135.148C71.9287 134.821 72.6392 134.658 73.4644 134.658C74.231 134.658 74.9097 134.821 75.5005 135.148C76.0962 135.476 76.5625 135.954 76.8994 136.584C77.2412 137.214 77.4121 137.983 77.4121 138.891ZM71.7505 138.891C71.7505 139.428 71.8091 139.88 71.9263 140.246C72.0435 140.612 72.2266 140.888 72.4756 141.074C72.7246 141.259 73.0493 141.352 73.4497 141.352C73.8452 141.352 74.165 141.259 74.4092 141.074C74.6582 140.888 74.8389 140.612 74.9512 140.246C75.0684 139.88 75.127 139.428 75.127 138.891C75.127 138.349 75.0684 137.9 74.9512 137.543C74.8389 137.182 74.6582 136.911 74.4092 136.73C74.1602 136.55 73.8354 136.459 73.4351 136.459C72.8442 136.459 72.4146 136.662 72.146 137.067C71.8823 137.473 71.7505 138.081 71.7505 138.891ZM83.9087 134.658C84.7827 134.658 85.4858 134.897 86.0181 135.375C86.5503 135.849 86.8164 136.611 86.8164 137.661V143H84.5825V138.217C84.5825 137.631 84.4751 137.189 84.2603 136.892C84.0503 136.594 83.7183 136.445 83.2642 136.445C82.5806 136.445 82.1143 136.677 81.8652 137.141C81.6162 137.604 81.4917 138.273 81.4917 139.147V143H79.2578V134.812H80.9644L81.2646 135.859H81.3892C81.5649 135.576 81.7822 135.346 82.041 135.17C82.3047 134.995 82.5952 134.865 82.9126 134.782C83.2349 134.699 83.5669 134.658 83.9087 134.658ZM92.5659 141.367C92.8101 141.367 93.0469 141.342 93.2764 141.293C93.5107 141.245 93.7427 141.184 93.9722 141.11V142.773C93.7329 142.88 93.4351 142.968 93.0786 143.037C92.7271 143.11 92.3413 143.146 91.9214 143.146C91.4331 143.146 90.9937 143.068 90.603 142.912C90.2173 142.751 89.9121 142.475 89.6875 142.084C89.4678 141.689 89.3579 141.14 89.3579 140.437V136.489H88.2886V135.544L89.519 134.797L90.1636 133.068H91.5918V134.812H93.8843V136.489H91.5918V140.437C91.5918 140.749 91.6797 140.983 91.8555 141.14C92.0361 141.291 92.2729 141.367 92.5659 141.367ZM97.8687 131.604V133.925C97.8687 134.331 97.854 134.716 97.8247 135.083C97.8003 135.449 97.7808 135.708 97.7661 135.859H97.8833C98.0591 135.576 98.2666 135.346 98.5059 135.17C98.75 134.995 99.0186 134.865 99.3115 134.782C99.6045 134.699 99.9194 134.658 100.256 134.658C100.847 134.658 101.362 134.763 101.802 134.973C102.241 135.178 102.583 135.502 102.827 135.947C103.071 136.386 103.193 136.958 103.193 137.661V143H100.959V138.217C100.959 137.631 100.852 137.189 100.637 136.892C100.422 136.594 100.09 136.445 99.6411 136.445C99.1919 136.445 98.8379 136.55 98.5791 136.76C98.3203 136.965 98.1372 137.27 98.0298 137.675C97.9224 138.076 97.8687 138.566 97.8687 139.147V143H95.6348V131.604H97.8687Z" fill="white"/>
    <path d="M34.176 56.6V29.48L36 33.512L28.848 36.872L27.408 29.624L37.008 24.92H42.24V56.6H34.176ZM28.08 59V51.752H48.528V59H28.08Z" fill="white"/>
</svg>
