<svg width="350" height="99" viewBox="0 0 350 99" fill="none" xmlns="http://www.w3.org/2000/svg">
    <path d="M347.152 13L337 2.85938V10H20C14.4771 10 10 14.4775 10 20V86H2.86719L13 96.1445C14.8037 97.9131 17.2744 99 20 99H340C345.523 99 350 94.5225 350 89V20C350 17.2744 348.91 14.8037 347.141 13H347.152Z" fill="#CA18EC"/>
    <path d="M0 10C0 4.47715 4.47715 0 10 0H330C335.523 0 340 4.47715 340 10V79C340 84.5229 335.523 89 330 89H10C4.47716 89 0 84.5229 0 79V10Z" fill="#F910E9"/>
    <path d="M94.28 39V27.68L95.02 29L92.12 30.42L91.52 27.78L95.44 25.8H97.24V39H94.28ZM91.84 40V37.3H99.74V40H91.84ZM107.34 40.2C106.153 40.2 105.133 39.9133 104.28 39.34C103.44 38.7533 102.793 37.9267 102.34 36.86C101.9 35.78 101.68 34.4933 101.68 33C101.68 31.5067 101.9 30.2267 102.34 29.16C102.793 28.08 103.44 27.2533 104.28 26.68C105.133 26.0933 106.153 25.8 107.34 25.8C108.527 25.8 109.54 26.0933 110.38 26.68C111.233 27.2533 111.88 28.08 112.32 29.16C112.773 30.2267 113 31.5067 113 33C113 34.4933 112.773 35.78 112.32 36.86C111.88 37.9267 111.233 38.7533 110.38 39.34C109.54 39.9133 108.527 40.2 107.34 40.2ZM107.34 37.62C108.233 37.62 108.92 37.22 109.4 36.42C109.893 35.6067 110.14 34.4667 110.14 33C110.14 31.4933 109.893 30.3333 109.4 29.52C108.92 28.7067 108.233 28.3 107.34 28.3C106.447 28.3 105.753 28.7067 105.26 29.52C104.78 30.3333 104.54 31.4933 104.54 33C104.54 34.4667 104.78 35.6067 105.26 36.42C105.753 37.22 106.447 37.62 107.34 37.62ZM114.768 35.52V33.2H124.808V35.52H114.768ZM118.468 39.18V29.48H121.108L121.088 39.18H118.468ZM133.255 40V29.42H135.995L136.055 31.44L135.635 31.56C135.769 31.2133 135.955 30.9 136.195 30.62C136.449 30.3267 136.735 30.08 137.055 29.88C137.375 29.68 137.715 29.52 138.075 29.4C138.449 29.28 138.815 29.22 139.175 29.22C139.735 29.22 140.229 29.3067 140.655 29.48C141.095 29.6533 141.469 29.9267 141.775 30.3C142.082 30.6733 142.315 31.16 142.475 31.76L142.055 31.68L142.195 31.38C142.369 31.0733 142.589 30.7867 142.855 30.52C143.122 30.2533 143.422 30.0267 143.755 29.84C144.089 29.64 144.435 29.4867 144.795 29.38C145.155 29.2733 145.509 29.22 145.855 29.22C146.682 29.22 147.362 29.3867 147.895 29.72C148.442 30.0533 148.849 30.5467 149.115 31.2C149.395 31.84 149.535 32.64 149.535 33.6V40H146.695V33.8C146.695 33.08 146.549 32.5467 146.255 32.2C145.975 31.8533 145.542 31.68 144.955 31.68C144.649 31.68 144.362 31.7333 144.095 31.84C143.829 31.9333 143.602 32.0733 143.415 32.26C143.229 32.4467 143.082 32.66 142.975 32.9C142.869 33.14 142.815 33.4067 142.815 33.7V40H139.975V33.76C139.975 33.0933 139.822 32.58 139.515 32.22C139.222 31.86 138.795 31.68 138.235 31.68C137.942 31.68 137.662 31.7333 137.395 31.84C137.129 31.9333 136.902 32.0733 136.715 32.26C136.529 32.4333 136.382 32.6467 136.275 32.9C136.169 33.14 136.115 33.4067 136.115 33.7V40H133.255ZM152.26 40V25.2H155.1V40H152.26ZM157.963 40V29.42H160.703L160.783 31.58L160.223 31.82C160.356 31.34 160.616 30.9067 161.003 30.52C161.39 30.12 161.85 29.8 162.383 29.56C162.916 29.32 163.47 29.2 164.043 29.2C164.843 29.2 165.51 29.36 166.043 29.68C166.59 30 166.996 30.4867 167.263 31.14C167.543 31.78 167.683 32.58 167.683 33.54V40H164.843V33.74C164.843 33.26 164.776 32.86 164.643 32.54C164.51 32.22 164.31 31.9867 164.043 31.84C163.776 31.6933 163.436 31.6267 163.023 31.64C162.703 31.64 162.41 31.6933 162.143 31.8C161.876 31.8933 161.636 32.0333 161.423 32.22C161.223 32.4067 161.07 32.62 160.963 32.86C160.856 33.1 160.803 33.3667 160.803 33.66V40H159.383C159.09 40 158.823 40 158.583 40C158.343 40 158.136 40 157.963 40Z" fill="white"/>
    <path d="M43.844 59.7V33.664L45.546 36.7L38.876 39.966L37.496 33.894L46.512 29.34H50.652V59.7H43.844ZM38.232 62V55.79H56.402V62H38.232Z" fill="white"/>
    <path d="M99.8145 54.292V61.2207C99.8145 61.9678 99.6558 62.6367 99.3384 63.2275C99.0259 63.8184 98.5522 64.2871 97.9175 64.6338C97.2827 64.9756 96.4844 65.1465 95.5225 65.1465C94.1504 65.1465 93.1055 64.7876 92.3877 64.0698C91.6748 63.3472 91.3184 62.3877 91.3184 61.1914V54.292H93.0762V61.0376C93.0762 61.9312 93.2861 62.5903 93.7061 63.0151C94.126 63.4399 94.7534 63.6523 95.5884 63.6523C96.1646 63.6523 96.6333 63.5522 96.9946 63.3521C97.3608 63.147 97.6294 62.8491 97.8003 62.4585C97.9761 62.063 98.064 61.5869 98.064 61.0303V54.292H99.8145ZM106.604 56.7383C107.517 56.7383 108.228 56.9751 108.735 57.4487C109.248 57.9175 109.504 58.6719 109.504 59.7119V65H107.783V60.0342C107.783 59.4043 107.654 58.9331 107.395 58.6206C107.136 58.3032 106.736 58.1445 106.194 58.1445C105.408 58.1445 104.861 58.3862 104.553 58.8696C104.25 59.353 104.099 60.0537 104.099 60.9717V65H102.378V56.8921H103.718L103.96 57.9907H104.055C104.231 57.7075 104.448 57.4756 104.707 57.2949C104.971 57.1094 105.264 56.9702 105.586 56.8774C105.913 56.7847 106.252 56.7383 106.604 56.7383ZM113.635 56.8921V65H111.914V56.8921H113.635ZM112.786 53.7866C113.049 53.7866 113.276 53.8574 113.467 53.999C113.662 54.1406 113.76 54.3848 113.76 54.7314C113.76 55.0732 113.662 55.3174 113.467 55.4639C113.276 55.6055 113.049 55.6763 112.786 55.6763C112.512 55.6763 112.28 55.6055 112.09 55.4639C111.904 55.3174 111.812 55.0732 111.812 54.7314C111.812 54.3848 111.904 54.1406 112.09 53.999C112.28 53.8574 112.512 53.7866 112.786 53.7866ZM121.252 68.5962V65.1538C121.252 64.9585 121.257 64.7461 121.267 64.5166C121.282 64.2871 121.304 64.0771 121.333 63.8867H121.245C121.025 64.2432 120.72 64.5435 120.33 64.7876C119.939 65.0269 119.429 65.1465 118.799 65.1465C117.847 65.1465 117.08 64.7949 116.499 64.0918C115.918 63.3838 115.627 62.3389 115.627 60.957C115.627 60.0391 115.762 59.2676 116.03 58.6426C116.299 58.0176 116.675 57.5439 117.158 57.2217C117.646 56.8994 118.213 56.7383 118.857 56.7383C119.478 56.7383 119.98 56.8604 120.366 57.1045C120.757 57.3438 121.069 57.6392 121.304 57.9907H121.362L121.553 56.8921H122.981V68.5962H121.252ZM119.312 63.7622C119.8 63.7622 120.19 63.6694 120.483 63.4839C120.776 63.2983 120.989 63.0176 121.121 62.6416C121.252 62.2607 121.323 61.7896 121.333 61.228V60.9644C121.333 60.0464 121.184 59.3481 120.886 58.8696C120.588 58.3911 120.059 58.1519 119.297 58.1519C118.652 58.1519 118.174 58.4033 117.861 58.9062C117.549 59.4043 117.393 60.0977 117.393 60.9863C117.393 61.8848 117.549 62.5732 117.861 63.0518C118.179 63.5254 118.662 63.7622 119.312 63.7622ZM132.517 56.8921V65H131.162L130.928 63.9087H130.833C130.662 64.187 130.444 64.4189 130.181 64.6045C129.917 64.7852 129.624 64.9194 129.302 65.0073C128.979 65.1001 128.64 65.1465 128.284 65.1465C127.673 65.1465 127.151 65.0439 126.716 64.8389C126.287 64.6289 125.957 64.3066 125.728 63.8721C125.498 63.4375 125.383 62.876 125.383 62.1875V56.8921H127.112V61.8652C127.112 62.4951 127.239 62.9663 127.493 63.2788C127.751 63.5913 128.152 63.7476 128.694 63.7476C129.216 63.7476 129.631 63.6401 129.939 63.4253C130.247 63.2104 130.464 62.8931 130.591 62.4731C130.723 62.0532 130.789 61.5381 130.789 60.9277V56.8921H132.517ZM138.215 56.7383C138.938 56.7383 139.558 56.8872 140.076 57.1851C140.593 57.4829 140.991 57.9053 141.27 58.4521C141.548 58.999 141.687 59.6533 141.687 60.415V61.3379H136.274C136.294 62.124 136.504 62.7295 136.904 63.1543C137.31 63.5791 137.876 63.7915 138.604 63.7915C139.121 63.7915 139.585 63.7427 139.995 63.645C140.41 63.5425 140.837 63.3936 141.277 63.1982V64.5972C140.872 64.7876 140.459 64.9268 140.039 65.0146C139.619 65.1025 139.116 65.1465 138.53 65.1465C137.734 65.1465 137.034 64.9927 136.428 64.6851C135.828 64.3726 135.356 63.9087 135.015 63.2935C134.678 62.6782 134.509 61.9141 134.509 61.001C134.509 60.0928 134.663 59.3213 134.971 58.6865C135.278 58.0518 135.71 57.5684 136.267 57.2363C136.824 56.9043 137.473 56.7383 138.215 56.7383ZM138.215 58.0347C137.673 58.0347 137.234 58.2104 136.897 58.562C136.565 58.9136 136.37 59.4287 136.311 60.1074H140.002C139.998 59.7021 139.929 59.3433 139.797 59.0308C139.67 58.7183 139.475 58.4741 139.211 58.2983C138.953 58.1226 138.621 58.0347 138.215 58.0347ZM149.377 65L146.294 56.8921H148.118L149.788 61.6528C149.895 61.9556 149.993 62.2827 150.081 62.6343C150.168 62.9858 150.229 63.2812 150.264 63.5205H150.322C150.356 63.2715 150.422 62.9736 150.52 62.627C150.618 62.2754 150.718 61.9507 150.82 61.6528L152.49 56.8921H154.307L151.223 65H149.377ZM157.258 56.8921V65H155.537V56.8921H157.258ZM156.409 53.7866C156.672 53.7866 156.899 53.8574 157.09 53.999C157.285 54.1406 157.383 54.3848 157.383 54.7314C157.383 55.0732 157.285 55.3174 157.09 55.4639C156.899 55.6055 156.672 55.6763 156.409 55.6763C156.135 55.6763 155.903 55.6055 155.713 55.4639C155.527 55.3174 155.435 55.0732 155.435 54.7314C155.435 54.3848 155.527 54.1406 155.713 53.999C155.903 53.8574 156.135 53.7866 156.409 53.7866ZM165.176 62.6855C165.176 63.2178 165.046 63.667 164.788 64.0332C164.529 64.3994 164.15 64.6777 163.652 64.8682C163.159 65.0537 162.554 65.1465 161.836 65.1465C161.27 65.1465 160.781 65.105 160.371 65.022C159.966 64.9438 159.583 64.8218 159.221 64.6558V63.1689C159.607 63.3496 160.039 63.5059 160.518 63.6377C161.001 63.7695 161.458 63.8354 161.887 63.8354C162.454 63.8354 162.861 63.7476 163.11 63.5718C163.359 63.3911 163.484 63.1519 163.484 62.854C163.484 62.6782 163.433 62.522 163.33 62.3853C163.232 62.2437 163.047 62.0996 162.773 61.9531C162.505 61.8018 162.109 61.6211 161.587 61.4111C161.074 61.2061 160.642 61.001 160.291 60.7959C159.939 60.5908 159.673 60.3442 159.492 60.0562C159.312 59.7632 159.221 59.3896 159.221 58.9355C159.221 58.2178 159.504 57.6733 160.071 57.3022C160.642 56.9263 161.396 56.7383 162.334 56.7383C162.832 56.7383 163.301 56.7896 163.74 56.8921C164.185 56.9897 164.619 57.1338 165.044 57.3242L164.502 58.6206C164.136 58.4595 163.767 58.3276 163.396 58.2251C163.03 58.1177 162.656 58.064 162.275 58.064C161.831 58.064 161.492 58.1323 161.257 58.269C161.028 58.4058 160.913 58.6011 160.913 58.855C160.913 59.0454 160.969 59.2065 161.082 59.3384C161.194 59.4702 161.387 59.6021 161.66 59.7339C161.938 59.8657 162.324 60.0293 162.817 60.2246C163.301 60.4102 163.718 60.6055 164.07 60.8105C164.426 61.0107 164.7 61.2573 164.89 61.5503C165.081 61.8433 165.176 62.2217 165.176 62.6855ZM168.757 56.8921V65H167.036V56.8921H168.757ZM167.908 53.7866C168.171 53.7866 168.398 53.8574 168.589 53.999C168.784 54.1406 168.882 54.3848 168.882 54.7314C168.882 55.0732 168.784 55.3174 168.589 55.4639C168.398 55.6055 168.171 55.6763 167.908 55.6763C167.634 55.6763 167.402 55.6055 167.212 55.4639C167.026 55.3174 166.934 55.0732 166.934 54.7314C166.934 54.3848 167.026 54.1406 167.212 53.999C167.402 53.8574 167.634 53.7866 167.908 53.7866ZM174.243 63.7549C174.468 63.7549 174.69 63.7354 174.91 63.6963C175.129 63.6523 175.33 63.6011 175.51 63.5425V64.8462C175.32 64.9292 175.073 65 174.771 65.0586C174.468 65.1172 174.153 65.1465 173.826 65.1465C173.367 65.1465 172.954 65.0708 172.588 64.9194C172.222 64.7632 171.931 64.4971 171.716 64.1211C171.501 63.7451 171.394 63.2251 171.394 62.561V58.2031H170.288V57.4341L171.475 56.8262L172.039 55.0903H173.123V56.8921H175.444V58.2031H173.123V62.5391C173.123 62.9492 173.225 63.2544 173.43 63.4546C173.635 63.6548 173.906 63.7549 174.243 63.7549ZM184.336 60.9277C184.336 61.6016 184.248 62.1997 184.072 62.7222C183.896 63.2446 183.64 63.6865 183.303 64.0479C182.966 64.4043 182.561 64.6777 182.087 64.8682C181.614 65.0537 181.079 65.1465 180.483 65.1465C179.927 65.1465 179.417 65.0537 178.953 64.8682C178.489 64.6777 178.086 64.4043 177.744 64.0479C177.407 63.6865 177.146 63.2446 176.96 62.7222C176.775 62.1997 176.682 61.6016 176.682 60.9277C176.682 60.0342 176.836 59.2773 177.144 58.6572C177.456 58.0322 177.9 57.5562 178.477 57.229C179.053 56.9019 179.739 56.7383 180.535 56.7383C181.282 56.7383 181.941 56.9019 182.512 57.229C183.083 57.5562 183.53 58.0322 183.853 58.6572C184.175 59.2822 184.336 60.0391 184.336 60.9277ZM178.455 60.9277C178.455 61.5186 178.525 62.0239 178.667 62.4438C178.813 62.8638 179.038 63.186 179.341 63.4106C179.644 63.6304 180.034 63.7402 180.513 63.7402C180.991 63.7402 181.382 63.6304 181.685 63.4106C181.987 63.186 182.209 62.8638 182.351 62.4438C182.493 62.0239 182.563 61.5186 182.563 60.9277C182.563 60.3369 182.493 59.8364 182.351 59.4263C182.209 59.0112 181.987 58.6963 181.685 58.4814C181.382 58.2617 180.989 58.1519 180.505 58.1519C179.792 58.1519 179.272 58.3911 178.945 58.8696C178.618 59.3481 178.455 60.0342 178.455 60.9277ZM190.422 56.7383C190.559 56.7383 190.708 56.7456 190.869 56.7603C191.03 56.7749 191.169 56.7944 191.287 56.8188L191.125 58.4302C191.023 58.4009 190.896 58.3789 190.745 58.3643C190.598 58.3496 190.466 58.3423 190.349 58.3423C190.042 58.3423 189.749 58.3936 189.47 58.4961C189.192 58.5938 188.945 58.7451 188.73 58.9502C188.516 59.1504 188.347 59.4019 188.225 59.7046C188.103 60.0073 188.042 60.3589 188.042 60.7593V65H186.313V56.8921H187.661L187.896 58.3203H187.976C188.137 58.0322 188.337 57.7686 188.577 57.5293C188.816 57.29 189.089 57.0996 189.397 56.958C189.709 56.8115 190.051 56.7383 190.422 56.7383ZM198.237 62.6855C198.237 63.2178 198.108 63.667 197.849 64.0332C197.59 64.3994 197.212 64.6777 196.714 64.8682C196.221 65.0537 195.615 65.1465 194.897 65.1465C194.331 65.1465 193.843 65.105 193.433 65.022C193.027 64.9438 192.644 64.8218 192.283 64.6558V63.1689C192.668 63.3496 193.101 63.5059 193.579 63.6377C194.062 63.7695 194.519 63.8354 194.949 63.8354C195.515 63.8354 195.923 63.7476 196.172 63.5718C196.421 63.3911 196.545 63.1519 196.545 62.854C196.545 62.6782 196.494 62.522 196.392 62.3853C196.294 62.2437 196.108 62.0996 195.835 61.9531C195.566 61.8018 195.171 61.6211 194.648 61.4111C194.136 61.2061 193.704 61.001 193.352 60.7959C193 60.5908 192.734 60.3442 192.554 60.0562C192.373 59.7632 192.283 59.3896 192.283 58.9355C192.283 58.2178 192.566 57.6733 193.132 57.3022C193.704 56.9263 194.458 56.7383 195.396 56.7383C195.894 56.7383 196.362 56.7896 196.802 56.8921C197.246 56.9897 197.681 57.1338 198.105 57.3242L197.563 58.6206C197.197 58.4595 196.829 58.3276 196.458 58.2251C196.091 58.1177 195.718 58.064 195.337 58.064C194.893 58.064 194.553 58.1323 194.319 58.269C194.089 58.4058 193.975 58.6011 193.975 58.855C193.975 59.0454 194.031 59.2065 194.143 59.3384C194.255 59.4702 194.448 59.6021 194.722 59.7339C195 59.8657 195.386 60.0293 195.879 60.2246C196.362 60.4102 196.78 60.6055 197.131 60.8105C197.488 61.0107 197.761 61.2573 197.952 61.5503C198.142 61.8433 198.237 62.2217 198.237 62.6855ZM208.154 56.7383C209.116 56.7383 209.888 57.0898 210.469 57.793C211.055 58.4961 211.348 59.541 211.348 60.9277C211.348 61.8457 211.211 62.6196 210.938 63.2495C210.669 63.8745 210.291 64.3481 209.802 64.6704C209.319 64.9878 208.755 65.1465 208.11 65.1465C207.7 65.1465 207.344 65.0928 207.041 64.9854C206.738 64.8779 206.479 64.7388 206.265 64.5679C206.05 64.3921 205.869 64.2017 205.723 63.9966H205.62C205.645 64.1919 205.667 64.4092 205.686 64.6484C205.71 64.8828 205.723 65.0977 205.723 65.293V68.5962H203.994V56.8921H205.4L205.642 58.0127H205.723C205.874 57.7832 206.057 57.5708 206.272 57.3755C206.492 57.1802 206.755 57.0264 207.063 56.9141C207.375 56.7969 207.739 56.7383 208.154 56.7383ZM207.693 58.1445C207.219 58.1445 206.838 58.2397 206.55 58.4302C206.267 58.6157 206.06 58.8965 205.928 59.2725C205.801 59.6484 205.732 60.1196 205.723 60.686V60.9277C205.723 61.5283 205.784 62.0386 205.906 62.4585C206.033 62.8735 206.24 63.1909 206.528 63.4106C206.821 63.6255 207.217 63.7329 207.715 63.7329C208.135 63.7329 208.481 63.6182 208.755 63.3887C209.033 63.1592 209.241 62.832 209.377 62.4072C209.514 61.9824 209.583 61.4819 209.583 60.9058C209.583 60.0317 209.426 59.353 209.114 58.8696C208.806 58.3862 208.333 58.1445 207.693 58.1445ZM216.57 56.7383C217.292 56.7383 217.913 56.8872 218.43 57.1851C218.948 57.4829 219.346 57.9053 219.624 58.4521C219.902 58.999 220.042 59.6533 220.042 60.415V61.3379H214.629C214.648 62.124 214.858 62.7295 215.259 63.1543C215.664 63.5791 216.23 63.7915 216.958 63.7915C217.476 63.7915 217.939 63.7427 218.35 63.645C218.765 63.5425 219.192 63.3936 219.631 63.1982V64.5972C219.226 64.7876 218.813 64.9268 218.394 65.0146C217.974 65.1025 217.471 65.1465 216.885 65.1465C216.089 65.1465 215.388 64.9927 214.783 64.6851C214.182 64.3726 213.711 63.9087 213.369 63.2935C213.032 62.6782 212.864 61.9141 212.864 61.001C212.864 60.0928 213.018 59.3213 213.325 58.6865C213.633 58.0518 214.065 57.5684 214.622 57.2363C215.178 56.9043 215.828 56.7383 216.57 56.7383ZM216.57 58.0347C216.028 58.0347 215.588 58.2104 215.251 58.562C214.919 58.9136 214.724 59.4287 214.666 60.1074H218.357C218.352 59.7021 218.284 59.3433 218.152 59.0308C218.025 58.7183 217.83 58.4741 217.566 58.2983C217.307 58.1226 216.975 58.0347 216.57 58.0347ZM226.091 56.7383C226.228 56.7383 226.377 56.7456 226.538 56.7603C226.699 56.7749 226.838 56.7944 226.956 56.8188L226.794 58.4302C226.692 58.4009 226.565 58.3789 226.414 58.3643C226.267 58.3496 226.135 58.3423 226.018 58.3423C225.71 58.3423 225.417 58.3936 225.139 58.4961C224.861 58.5938 224.614 58.7451 224.399 58.9502C224.185 59.1504 224.016 59.4019 223.894 59.7046C223.772 60.0073 223.711 60.3589 223.711 60.7593V65H221.982V56.8921H223.33L223.564 58.3203H223.645C223.806 58.0322 224.006 57.7686 224.246 57.5293C224.485 57.29 224.758 57.0996 225.066 56.958C225.378 56.8115 225.72 56.7383 226.091 56.7383ZM241.516 56.7383C242.424 56.7383 243.108 56.9727 243.567 57.4414C244.031 57.9102 244.263 58.6621 244.263 59.6973V65H242.542V60.0049C242.542 59.3896 242.422 58.9258 242.183 58.6133C241.943 58.3008 241.58 58.1445 241.091 58.1445C240.408 58.1445 239.915 58.3643 239.612 58.8037C239.314 59.2383 239.165 59.8706 239.165 60.7007V65H237.444V60.0049C237.444 59.5947 237.39 59.2529 237.283 58.9795C237.18 58.7012 237.021 58.4937 236.807 58.3569C236.592 58.2153 236.321 58.1445 235.994 58.1445C235.52 58.1445 235.142 58.252 234.858 58.4668C234.58 58.6816 234.38 58.999 234.258 59.4189C234.136 59.834 234.075 60.3442 234.075 60.9497V65H232.354V56.8921H233.694L233.936 57.9834H234.031C234.197 57.7002 234.402 57.4683 234.646 57.2876C234.895 57.1021 235.171 56.9653 235.474 56.8774C235.776 56.7847 236.091 56.7383 236.418 56.7383C237.024 56.7383 237.534 56.8457 237.949 57.0605C238.364 57.2705 238.674 57.5928 238.879 58.0273H239.011C239.265 57.5879 239.619 57.2632 240.073 57.0532C240.527 56.8433 241.008 56.7383 241.516 56.7383ZM253.843 60.9277C253.843 61.6016 253.755 62.1997 253.579 62.7222C253.403 63.2446 253.147 63.6865 252.81 64.0479C252.473 64.4043 252.068 64.6777 251.594 64.8682C251.121 65.0537 250.586 65.1465 249.99 65.1465C249.434 65.1465 248.923 65.0537 248.459 64.8682C247.996 64.6777 247.593 64.4043 247.251 64.0479C246.914 63.6865 246.653 63.2446 246.467 62.7222C246.282 62.1997 246.189 61.6016 246.189 60.9277C246.189 60.0342 246.343 59.2773 246.65 58.6572C246.963 58.0322 247.407 57.5562 247.983 57.229C248.56 56.9019 249.246 56.7383 250.042 56.7383C250.789 56.7383 251.448 56.9019 252.019 57.229C252.59 57.5562 253.037 58.0322 253.359 58.6572C253.682 59.2822 253.843 60.0391 253.843 60.9277ZM247.961 60.9277C247.961 61.5186 248.032 62.0239 248.174 62.4438C248.32 62.8638 248.545 63.186 248.848 63.4106C249.15 63.6304 249.541 63.7402 250.02 63.7402C250.498 63.7402 250.889 63.6304 251.191 63.4106C251.494 63.186 251.716 62.8638 251.858 62.4438C252 62.0239 252.07 61.5186 252.07 60.9277C252.07 60.3369 252 59.8364 251.858 59.4263C251.716 59.0112 251.494 58.6963 251.191 58.4814C250.889 58.2617 250.496 58.1519 250.012 58.1519C249.299 58.1519 248.779 58.3911 248.452 58.8696C248.125 59.3481 247.961 60.0342 247.961 60.9277ZM260.046 56.7383C260.959 56.7383 261.67 56.9751 262.178 57.4487C262.69 57.9175 262.947 58.6719 262.947 59.7119V65H261.226V60.0342C261.226 59.4043 261.096 58.9331 260.837 58.6206C260.579 58.3032 260.178 58.1445 259.636 58.1445C258.85 58.1445 258.303 58.3862 257.996 58.8696C257.693 59.353 257.542 60.0537 257.542 60.9717V65H255.82V56.8921H257.161L257.402 57.9907H257.498C257.673 57.7075 257.891 57.4756 258.149 57.2949C258.413 57.1094 258.706 56.9702 259.028 56.8774C259.355 56.7847 259.695 56.7383 260.046 56.7383ZM268.374 63.7549C268.599 63.7549 268.821 63.7354 269.041 63.6963C269.26 63.6523 269.46 63.6011 269.641 63.5425V64.8462C269.451 64.9292 269.204 65 268.901 65.0586C268.599 65.1172 268.284 65.1465 267.957 65.1465C267.498 65.1465 267.085 65.0708 266.719 64.9194C266.353 64.7632 266.062 64.4971 265.847 64.1211C265.632 63.7451 265.525 63.2251 265.525 62.561V58.2031H264.419V57.4341L265.605 56.8262L266.169 55.0903H267.253V56.8921H269.575V58.2031H267.253V62.5391C267.253 62.9492 267.356 63.2544 267.561 63.4546C267.766 63.6548 268.037 63.7549 268.374 63.7549ZM273.01 53.6035V56.4673C273.01 56.7651 273 57.0557 272.981 57.3389C272.966 57.6221 272.949 57.8418 272.93 57.998H273.025C273.196 57.7148 273.406 57.4829 273.655 57.3022C273.904 57.1167 274.182 56.9775 274.49 56.8848C274.802 56.792 275.134 56.7456 275.486 56.7456C276.106 56.7456 276.633 56.8506 277.068 57.0605C277.502 57.2656 277.834 57.5854 278.064 58.02C278.298 58.4546 278.416 59.0186 278.416 59.7119V65H276.694V60.0342C276.694 59.4043 276.565 58.9331 276.306 58.6206C276.047 58.3032 275.647 58.1445 275.105 58.1445C274.583 58.1445 274.167 58.2544 273.86 58.4741C273.557 58.689 273.34 59.0088 273.208 59.4336C273.076 59.8535 273.01 60.3662 273.01 60.9717V65H271.289V53.6035H273.01Z" fill="white"/>
</svg>
