<svg width="350" height="99" viewBox="0 0 350 99" fill="none" xmlns="http://www.w3.org/2000/svg">
    <path d="M347.152 13L337 2.85938V10H20C14.4771 10 10 14.4775 10 20V86H2.86719L13 96.1445C14.8037 97.9131 17.2744 99 20 99H340C345.523 99 350 94.5225 350 89V20C350 17.2744 348.91 14.8037 347.141 13H347.152Z" fill="#00BABB"/>
    <path d="M0 10C0 4.47715 4.47715 0 10 0H330C335.523 0 340 4.47715 340 10V79C340 84.5229 335.523 89 330 89H10C4.47716 89 0 84.5229 0 79V10Z" fill="#00E3C9"/>
    <path d="M94.28 39V27.68L95.02 29L92.12 30.42L91.52 27.78L95.44 25.8H97.24V39H94.28ZM91.84 40V37.3H99.74V40H91.84ZM107.34 40.2C106.153 40.2 105.133 39.9133 104.28 39.34C103.44 38.7533 102.793 37.9267 102.34 36.86C101.9 35.78 101.68 34.4933 101.68 33C101.68 31.5067 101.9 30.2267 102.34 29.16C102.793 28.08 103.44 27.2533 104.28 26.68C105.133 26.0933 106.153 25.8 107.34 25.8C108.527 25.8 109.54 26.0933 110.38 26.68C111.233 27.2533 111.88 28.08 112.32 29.16C112.773 30.2267 113 31.5067 113 33C113 34.4933 112.773 35.78 112.32 36.86C111.88 37.9267 111.233 38.7533 110.38 39.34C109.54 39.9133 108.527 40.2 107.34 40.2ZM107.34 37.62C108.233 37.62 108.92 37.22 109.4 36.42C109.893 35.6067 110.14 34.4667 110.14 33C110.14 31.4933 109.893 30.3333 109.4 29.52C108.92 28.7067 108.233 28.3 107.34 28.3C106.447 28.3 105.753 28.7067 105.26 29.52C104.78 30.3333 104.54 31.4933 104.54 33C104.54 34.4667 104.78 35.6067 105.26 36.42C105.753 37.22 106.447 37.62 107.34 37.62ZM120.348 40.2C119.161 40.2 118.141 39.9133 117.288 39.34C116.448 38.7533 115.801 37.9267 115.348 36.86C114.908 35.78 114.688 34.4933 114.688 33C114.688 31.5067 114.908 30.2267 115.348 29.16C115.801 28.08 116.448 27.2533 117.288 26.68C118.141 26.0933 119.161 25.8 120.348 25.8C121.534 25.8 122.548 26.0933 123.388 26.68C124.241 27.2533 124.888 28.08 125.328 29.16C125.781 30.2267 126.008 31.5067 126.008 33C126.008 34.4933 125.781 35.78 125.328 36.86C124.888 37.9267 124.241 38.7533 123.388 39.34C122.548 39.9133 121.534 40.2 120.348 40.2ZM120.348 37.62C121.241 37.62 121.928 37.22 122.408 36.42C122.901 35.6067 123.148 34.4667 123.148 33C123.148 31.4933 122.901 30.3333 122.408 29.52C121.928 28.7067 121.241 28.3 120.348 28.3C119.454 28.3 118.761 28.7067 118.268 29.52C117.788 30.3333 117.548 31.4933 117.548 33C117.548 34.4667 117.788 35.6067 118.268 36.42C118.761 37.22 119.454 37.62 120.348 37.62ZM133.355 40.2C132.169 40.2 131.149 39.9133 130.295 39.34C129.455 38.7533 128.809 37.9267 128.355 36.86C127.915 35.78 127.695 34.4933 127.695 33C127.695 31.5067 127.915 30.2267 128.355 29.16C128.809 28.08 129.455 27.2533 130.295 26.68C131.149 26.0933 132.169 25.8 133.355 25.8C134.542 25.8 135.555 26.0933 136.395 26.68C137.249 27.2533 137.895 28.08 138.335 29.16C138.789 30.2267 139.015 31.5067 139.015 33C139.015 34.4933 138.789 35.78 138.335 36.86C137.895 37.9267 137.249 38.7533 136.395 39.34C135.555 39.9133 134.542 40.2 133.355 40.2ZM133.355 37.62C134.249 37.62 134.935 37.22 135.415 36.42C135.909 35.6067 136.155 34.4667 136.155 33C136.155 31.4933 135.909 30.3333 135.415 29.52C134.935 28.7067 134.249 28.3 133.355 28.3C132.462 28.3 131.769 28.7067 131.275 29.52C130.795 30.3333 130.555 31.4933 130.555 33C130.555 34.4667 130.795 35.6067 131.275 36.42C131.769 37.22 132.462 37.62 133.355 37.62ZM140.783 35.52V33.2H150.823V35.52H140.783ZM144.483 39.18V29.48H147.123L147.103 39.18H144.483Z" fill="white"/>
    <path d="M46.604 62.46C44.12 62.46 41.958 61.9233 40.118 60.85C38.278 59.7767 36.5607 57.9367 34.966 55.33L40.072 52.156C40.7467 53.2293 41.452 54.1033 42.188 54.778C42.924 55.422 43.6753 55.8973 44.442 56.204C45.2393 56.5107 46.0673 56.664 46.926 56.664C47.846 56.664 48.6893 56.4493 49.456 56.02C50.2533 55.5907 50.882 54.9927 51.342 54.226C51.8327 53.4287 52.078 52.524 52.078 51.512C52.078 50.5 51.8787 49.6413 51.48 48.936C51.0813 48.2307 50.514 47.694 49.778 47.326C49.042 46.958 48.1373 46.774 47.064 46.774C46.604 46.774 46.098 46.8353 45.546 46.958C45.0247 47.05 44.4573 47.188 43.844 47.372C43.2307 47.556 42.602 47.786 41.958 48.062L40.348 43.784L48.812 34.492L50.56 35.734L37.082 35.596V29.616H56.402L57.69 32.146L47.11 43.6L45.546 41.76C45.7913 41.668 46.19 41.576 46.742 41.484C47.294 41.3613 47.8 41.3 48.26 41.3C49.64 41.3 50.9433 41.5607 52.17 42.082C53.3967 42.5727 54.4853 43.278 55.436 44.198C56.3867 45.118 57.1227 46.1913 57.644 47.418C58.196 48.6447 58.472 49.9633 58.472 51.374C58.472 53.49 57.9353 55.3913 56.862 57.078C55.8193 58.734 54.3933 60.0527 52.584 61.034C50.8053 61.9847 48.812 62.46 46.604 62.46Z" fill="white"/>
    <path d="M100.913 59.6313C100.913 60.4565 100.808 61.2085 100.598 61.8872C100.393 62.561 100.083 63.1421 99.668 63.6304C99.2529 64.1138 98.7329 64.4873 98.1079 64.751C97.4829 65.0146 96.7505 65.1465 95.9106 65.1465C95.0562 65.1465 94.314 65.0146 93.6841 64.751C93.0591 64.4873 92.5391 64.1113 92.124 63.623C91.7139 63.1348 91.4062 62.5513 91.2012 61.8726C90.9961 61.1938 90.8936 60.4419 90.8936 59.6167C90.8936 58.5132 91.0742 57.5513 91.4355 56.731C91.8018 55.9058 92.356 55.2661 93.0981 54.812C93.8452 54.353 94.7876 54.1235 95.9253 54.1235C97.0386 54.1235 97.9639 54.3506 98.7012 54.8047C99.4385 55.2588 99.9902 55.8984 100.356 56.7236C100.728 57.5439 100.913 58.5132 100.913 59.6313ZM92.7393 59.6313C92.7393 60.4565 92.8516 61.1719 93.0762 61.7773C93.3008 62.3779 93.645 62.8418 94.1089 63.1689C94.5776 63.4912 95.1782 63.6523 95.9106 63.6523C96.6479 63.6523 97.2485 63.4912 97.7124 63.1689C98.1763 62.8418 98.5181 62.3779 98.7378 61.7773C98.9575 61.1719 99.0674 60.4565 99.0674 59.6313C99.0674 58.3765 98.8159 57.395 98.313 56.687C97.8149 55.9741 97.019 55.6177 95.9253 55.6177C95.1929 55.6177 94.5898 55.7788 94.1162 56.1011C93.6475 56.4233 93.3008 56.8848 93.0762 57.4854C92.8516 58.0811 92.7393 58.7964 92.7393 59.6313ZM107.087 58.2031H105.117V65H103.396V58.2031H102.07V57.3755L103.396 56.8701V56.3062C103.396 55.6177 103.503 55.0708 103.718 54.6655C103.938 54.2603 104.25 53.9697 104.656 53.7939C105.066 53.6133 105.554 53.5229 106.121 53.5229C106.492 53.5229 106.831 53.5547 107.139 53.6182C107.446 53.6768 107.705 53.7451 107.915 53.8232L107.468 55.127C107.302 55.0732 107.117 55.0244 106.912 54.9805C106.707 54.9316 106.487 54.9072 106.252 54.9072C105.862 54.9072 105.574 55.0293 105.388 55.2734C105.208 55.5176 105.117 55.874 105.117 56.3428V56.8921H107.087V58.2031ZM112.515 58.2031H110.544V65H108.823V58.2031H107.498V57.3755L108.823 56.8701V56.3062C108.823 55.6177 108.931 55.0708 109.146 54.6655C109.365 54.2603 109.678 53.9697 110.083 53.7939C110.493 53.6133 110.981 53.5229 111.548 53.5229C111.919 53.5229 112.258 53.5547 112.566 53.6182C112.874 53.6768 113.132 53.7451 113.342 53.8232L112.896 55.127C112.729 55.0732 112.544 55.0244 112.339 54.9805C112.134 54.9316 111.914 54.9072 111.68 54.9072C111.289 54.9072 111.001 55.0293 110.815 55.2734C110.635 55.5176 110.544 55.874 110.544 56.3428V56.8921H112.515V58.2031ZM117.122 56.7383C117.844 56.7383 118.464 56.8872 118.982 57.1851C119.5 57.4829 119.897 57.9053 120.176 58.4521C120.454 58.999 120.593 59.6533 120.593 60.415V61.3379H115.181C115.2 62.124 115.41 62.7295 115.811 63.1543C116.216 63.5791 116.782 63.7915 117.51 63.7915C118.027 63.7915 118.491 63.7427 118.901 63.645C119.316 63.5425 119.744 63.3936 120.183 63.1982V64.5972C119.778 64.7876 119.365 64.9268 118.945 65.0146C118.525 65.1025 118.022 65.1465 117.437 65.1465C116.641 65.1465 115.94 64.9927 115.334 64.6851C114.734 64.3726 114.263 63.9087 113.921 63.2935C113.584 62.6782 113.416 61.9141 113.416 61.001C113.416 60.0928 113.569 59.3213 113.877 58.6865C114.185 58.0518 114.617 57.5684 115.173 57.2363C115.73 56.9043 116.379 56.7383 117.122 56.7383ZM117.122 58.0347C116.58 58.0347 116.14 58.2104 115.803 58.562C115.471 58.9136 115.276 59.4287 115.217 60.1074H118.909C118.904 59.7021 118.835 59.3433 118.704 59.0308C118.577 58.7183 118.381 58.4741 118.118 58.2983C117.859 58.1226 117.527 58.0347 117.122 58.0347ZM126.643 56.7383C126.78 56.7383 126.929 56.7456 127.09 56.7603C127.251 56.7749 127.39 56.7944 127.507 56.8188L127.346 58.4302C127.244 58.4009 127.117 58.3789 126.965 58.3643C126.819 58.3496 126.687 58.3423 126.57 58.3423C126.262 58.3423 125.969 58.3936 125.691 58.4961C125.413 58.5938 125.166 58.7451 124.951 58.9502C124.736 59.1504 124.568 59.4019 124.446 59.7046C124.324 60.0073 124.263 60.3589 124.263 60.7593V65H122.534V56.8921H123.882L124.116 58.3203H124.197C124.358 58.0322 124.558 57.7686 124.797 57.5293C125.037 57.29 125.31 57.0996 125.618 56.958C125.93 56.8115 126.272 56.7383 126.643 56.7383ZM134.458 62.6855C134.458 63.2178 134.329 63.667 134.07 64.0332C133.811 64.3994 133.433 64.6777 132.935 64.8682C132.441 65.0537 131.836 65.1465 131.118 65.1465C130.552 65.1465 130.063 65.105 129.653 65.022C129.248 64.9438 128.865 64.8218 128.503 64.6558V63.1689C128.889 63.3496 129.321 63.5059 129.8 63.6377C130.283 63.7695 130.74 63.8354 131.169 63.8354C131.736 63.8354 132.144 63.7476 132.393 63.5718C132.642 63.3911 132.766 63.1519 132.766 62.854C132.766 62.6782 132.715 62.522 132.612 62.3853C132.515 62.2437 132.329 62.0996 132.056 61.9531C131.787 61.8018 131.392 61.6211 130.869 61.4111C130.356 61.2061 129.924 61.001 129.573 60.7959C129.221 60.5908 128.955 60.3442 128.774 60.0562C128.594 59.7632 128.503 59.3896 128.503 58.9355C128.503 58.2178 128.787 57.6733 129.353 57.3022C129.924 56.9263 130.679 56.7383 131.616 56.7383C132.114 56.7383 132.583 56.7896 133.022 56.8921C133.467 56.9897 133.901 57.1338 134.326 57.3242L133.784 58.6206C133.418 58.4595 133.049 58.3276 132.678 58.2251C132.312 58.1177 131.938 58.064 131.558 58.064C131.113 58.064 130.774 58.1323 130.54 58.269C130.31 58.4058 130.195 58.6011 130.195 58.855C130.195 59.0454 130.251 59.2065 130.364 59.3384C130.476 59.4702 130.669 59.6021 130.942 59.7339C131.221 59.8657 131.606 60.0293 132.1 60.2246C132.583 60.4102 133 60.6055 133.352 60.8105C133.708 61.0107 133.982 61.2573 134.172 61.5503C134.363 61.8433 134.458 62.2217 134.458 62.6855ZM144.265 58.2031H142.295V65H140.574V58.2031H139.248V57.3755L140.574 56.8701V56.3062C140.574 55.6177 140.681 55.0708 140.896 54.6655C141.116 54.2603 141.428 53.9697 141.833 53.7939C142.244 53.6133 142.732 53.5229 143.298 53.5229C143.669 53.5229 144.009 53.5547 144.316 53.6182C144.624 53.6768 144.883 53.7451 145.093 53.8232L144.646 55.127C144.48 55.0732 144.294 55.0244 144.089 54.9805C143.884 54.9316 143.665 54.9072 143.43 54.9072C143.04 54.9072 142.751 55.0293 142.566 55.2734C142.385 55.5176 142.295 55.874 142.295 56.3428V56.8921H144.265V58.2031ZM152.827 60.9277C152.827 61.6016 152.739 62.1997 152.563 62.7222C152.388 63.2446 152.131 63.6865 151.794 64.0479C151.458 64.4043 151.052 64.6777 150.579 64.8682C150.105 65.0537 149.57 65.1465 148.975 65.1465C148.418 65.1465 147.908 65.0537 147.444 64.8682C146.98 64.6777 146.577 64.4043 146.235 64.0479C145.898 63.6865 145.637 63.2446 145.452 62.7222C145.266 62.1997 145.173 61.6016 145.173 60.9277C145.173 60.0342 145.327 59.2773 145.635 58.6572C145.947 58.0322 146.392 57.5562 146.968 57.229C147.544 56.9019 148.23 56.7383 149.026 56.7383C149.773 56.7383 150.432 56.9019 151.003 57.229C151.575 57.5562 152.021 58.0322 152.344 58.6572C152.666 59.2822 152.827 60.0391 152.827 60.9277ZM146.946 60.9277C146.946 61.5186 147.017 62.0239 147.158 62.4438C147.305 62.8638 147.529 63.186 147.832 63.4106C148.135 63.6304 148.525 63.7402 149.004 63.7402C149.482 63.7402 149.873 63.6304 150.176 63.4106C150.479 63.186 150.701 62.8638 150.842 62.4438C150.984 62.0239 151.055 61.5186 151.055 60.9277C151.055 60.3369 150.984 59.8364 150.842 59.4263C150.701 59.0112 150.479 58.6963 150.176 58.4814C149.873 58.2617 149.48 58.1519 148.997 58.1519C148.284 58.1519 147.764 58.3911 147.437 58.8696C147.109 59.3481 146.946 60.0342 146.946 60.9277ZM158.914 56.7383C159.05 56.7383 159.199 56.7456 159.36 56.7603C159.521 56.7749 159.661 56.7944 159.778 56.8188L159.617 58.4302C159.514 58.4009 159.387 58.3789 159.236 58.3643C159.089 58.3496 158.958 58.3423 158.84 58.3423C158.533 58.3423 158.24 58.3936 157.961 58.4961C157.683 58.5938 157.437 58.7451 157.222 58.9502C157.007 59.1504 156.838 59.4019 156.716 59.7046C156.594 60.0073 156.533 60.3589 156.533 60.7593V65H154.805V56.8921H156.152L156.387 58.3203H156.467C156.628 58.0322 156.829 57.7686 157.068 57.5293C157.307 57.29 157.581 57.0996 157.888 56.958C158.201 56.8115 158.542 56.7383 158.914 56.7383ZM166.904 65H165.176V53.6035H166.904V65ZM176.543 60.9277C176.543 61.6016 176.455 62.1997 176.279 62.7222C176.104 63.2446 175.847 63.6865 175.51 64.0479C175.173 64.4043 174.768 64.6777 174.294 64.8682C173.821 65.0537 173.286 65.1465 172.69 65.1465C172.134 65.1465 171.624 65.0537 171.16 64.8682C170.696 64.6777 170.293 64.4043 169.951 64.0479C169.614 63.6865 169.353 63.2446 169.167 62.7222C168.982 62.1997 168.889 61.6016 168.889 60.9277C168.889 60.0342 169.043 59.2773 169.351 58.6572C169.663 58.0322 170.107 57.5562 170.684 57.229C171.26 56.9019 171.946 56.7383 172.742 56.7383C173.489 56.7383 174.148 56.9019 174.719 57.229C175.291 57.5562 175.737 58.0322 176.06 58.6572C176.382 59.2822 176.543 60.0391 176.543 60.9277ZM170.662 60.9277C170.662 61.5186 170.732 62.0239 170.874 62.4438C171.021 62.8638 171.245 63.186 171.548 63.4106C171.851 63.6304 172.241 63.7402 172.72 63.7402C173.198 63.7402 173.589 63.6304 173.892 63.4106C174.194 63.186 174.417 62.8638 174.558 62.4438C174.7 62.0239 174.771 61.5186 174.771 60.9277C174.771 60.3369 174.7 59.8364 174.558 59.4263C174.417 59.0112 174.194 58.6963 173.892 58.4814C173.589 58.2617 173.196 58.1519 172.712 58.1519C172 58.1519 171.479 58.3911 171.152 58.8696C170.825 59.3481 170.662 60.0342 170.662 60.9277ZM181.699 56.7383C182.725 56.7383 183.499 56.9653 184.021 57.4194C184.548 57.8735 184.812 58.5815 184.812 59.5435V65H183.589L183.259 63.8501H183.201C182.971 64.1431 182.734 64.3848 182.49 64.5752C182.246 64.7656 181.963 64.9072 181.641 65C181.323 65.0977 180.935 65.1465 180.476 65.1465C179.993 65.1465 179.561 65.0586 179.18 64.8828C178.799 64.7021 178.499 64.4287 178.279 64.0625C178.059 63.6963 177.949 63.2324 177.949 62.6709C177.949 61.8359 178.259 61.2085 178.879 60.7886C179.504 60.3687 180.447 60.1367 181.707 60.0928L183.113 60.0415V59.6167C183.113 59.0552 182.981 58.6548 182.717 58.4155C182.458 58.1763 182.092 58.0566 181.619 58.0566C181.213 58.0566 180.82 58.1152 180.439 58.2324C180.059 58.3496 179.688 58.4937 179.326 58.6646L178.77 57.4487C179.165 57.2388 179.614 57.0679 180.117 56.936C180.625 56.8042 181.152 56.7383 181.699 56.7383ZM183.105 61.1255L182.058 61.1621C181.199 61.1914 180.596 61.3379 180.249 61.6016C179.902 61.8652 179.729 62.2266 179.729 62.6855C179.729 63.0859 179.849 63.3789 180.088 63.5645C180.327 63.7451 180.642 63.8354 181.033 63.8354C181.628 63.8354 182.122 63.667 182.512 63.3301C182.908 62.9883 183.105 62.4878 183.105 61.8286V61.1255ZM191.448 56.7383C192.361 56.7383 193.071 56.9751 193.579 57.4487C194.092 57.9175 194.348 58.6719 194.348 59.7119V65H192.627V60.0342C192.627 59.4043 192.498 58.9331 192.239 58.6206C191.98 58.3032 191.58 58.1445 191.038 58.1445C190.251 58.1445 189.705 58.3862 189.397 58.8696C189.094 59.353 188.943 60.0537 188.943 60.9717V65H187.222V56.8921H188.562L188.804 57.9907H188.899C189.075 57.7075 189.292 57.4756 189.551 57.2949C189.814 57.1094 190.107 56.9702 190.43 56.8774C190.757 56.7847 191.096 56.7383 191.448 56.7383ZM204.814 56.7383C205.776 56.7383 206.548 57.0898 207.129 57.793C207.715 58.4961 208.008 59.541 208.008 60.9277C208.008 61.8457 207.871 62.6196 207.598 63.2495C207.329 63.8745 206.951 64.3481 206.462 64.6704C205.979 64.9878 205.415 65.1465 204.771 65.1465C204.36 65.1465 204.004 65.0928 203.701 64.9854C203.398 64.8779 203.14 64.7388 202.925 64.5679C202.71 64.3921 202.529 64.2017 202.383 63.9966H202.28C202.305 64.1919 202.327 64.4092 202.346 64.6484C202.371 64.8828 202.383 65.0977 202.383 65.293V68.5962H200.654V56.8921H202.061L202.302 58.0127H202.383C202.534 57.7832 202.717 57.5708 202.932 57.3755C203.152 57.1802 203.416 57.0264 203.723 56.9141C204.036 56.7969 204.399 56.7383 204.814 56.7383ZM204.353 58.1445C203.879 58.1445 203.499 58.2397 203.21 58.4302C202.927 58.6157 202.72 58.8965 202.588 59.2725C202.461 59.6484 202.393 60.1196 202.383 60.686V60.9277C202.383 61.5283 202.444 62.0386 202.566 62.4585C202.693 62.8735 202.9 63.1909 203.188 63.4106C203.481 63.6255 203.877 63.7329 204.375 63.7329C204.795 63.7329 205.142 63.6182 205.415 63.3887C205.693 63.1592 205.901 62.832 206.038 62.4072C206.174 61.9824 206.243 61.4819 206.243 60.9058C206.243 60.0317 206.086 59.353 205.774 58.8696C205.466 58.3862 204.993 58.1445 204.353 58.1445ZM214.109 56.7383C214.246 56.7383 214.395 56.7456 214.556 56.7603C214.717 56.7749 214.856 56.7944 214.973 56.8188L214.812 58.4302C214.709 58.4009 214.583 58.3789 214.431 58.3643C214.285 58.3496 214.153 58.3423 214.036 58.3423C213.728 58.3423 213.435 58.3936 213.157 58.4961C212.878 58.5938 212.632 58.7451 212.417 58.9502C212.202 59.1504 212.034 59.4019 211.912 59.7046C211.79 60.0073 211.729 60.3589 211.729 60.7593V65H210V56.8921H211.348L211.582 58.3203H211.663C211.824 58.0322 212.024 57.7686 212.263 57.5293C212.502 57.29 212.776 57.0996 213.083 56.958C213.396 56.8115 213.738 56.7383 214.109 56.7383ZM223.652 60.9277C223.652 61.6016 223.564 62.1997 223.389 62.7222C223.213 63.2446 222.957 63.6865 222.62 64.0479C222.283 64.4043 221.877 64.6777 221.404 64.8682C220.93 65.0537 220.396 65.1465 219.8 65.1465C219.243 65.1465 218.733 65.0537 218.269 64.8682C217.805 64.6777 217.402 64.4043 217.061 64.0479C216.724 63.6865 216.462 63.2446 216.277 62.7222C216.091 62.1997 215.999 61.6016 215.999 60.9277C215.999 60.0342 216.152 59.2773 216.46 58.6572C216.772 58.0322 217.217 57.5562 217.793 57.229C218.369 56.9019 219.055 56.7383 219.851 56.7383C220.598 56.7383 221.257 56.9019 221.829 57.229C222.4 57.5562 222.847 58.0322 223.169 58.6572C223.491 59.2822 223.652 60.0391 223.652 60.9277ZM217.771 60.9277C217.771 61.5186 217.842 62.0239 217.983 62.4438C218.13 62.8638 218.354 63.186 218.657 63.4106C218.96 63.6304 219.351 63.7402 219.829 63.7402C220.308 63.7402 220.698 63.6304 221.001 63.4106C221.304 63.186 221.526 62.8638 221.667 62.4438C221.809 62.0239 221.88 61.5186 221.88 60.9277C221.88 60.3369 221.809 59.8364 221.667 59.4263C221.526 59.0112 221.304 58.6963 221.001 58.4814C220.698 58.2617 220.305 58.1519 219.822 58.1519C219.109 58.1519 218.589 58.3911 218.262 58.8696C217.935 59.3481 217.771 60.0342 217.771 60.9277ZM228.354 65.1465C227.388 65.1465 226.611 64.7949 226.025 64.0918C225.444 63.3838 225.154 62.3413 225.154 60.9644C225.154 59.5728 225.449 58.5205 226.04 57.8076C226.636 57.0947 227.419 56.7383 228.391 56.7383C228.801 56.7383 229.16 56.7944 229.468 56.9067C229.775 57.0142 230.039 57.1606 230.259 57.3462C230.483 57.5317 230.674 57.7393 230.83 57.9688H230.911C230.886 57.8174 230.857 57.6001 230.823 57.3169C230.793 57.0288 230.779 56.7627 230.779 56.5186V53.6035H232.507V65H231.16L230.852 63.894H230.779C230.632 64.1284 230.447 64.3408 230.222 64.5312C230.002 64.7168 229.739 64.8657 229.431 64.978C229.128 65.0903 228.77 65.1465 228.354 65.1465ZM228.838 63.7476C229.575 63.7476 230.095 63.5352 230.398 63.1104C230.701 62.6855 230.857 62.0483 230.867 61.1987V60.9717C230.867 60.0635 230.72 59.3677 230.427 58.8843C230.134 58.396 229.6 58.1519 228.823 58.1519C228.203 58.1519 227.729 58.4033 227.402 58.9062C227.08 59.4043 226.919 60.1001 226.919 60.9937C226.919 61.8872 227.08 62.5708 227.402 63.0444C227.729 63.5132 228.208 63.7476 228.838 63.7476ZM242.043 56.8921V65H240.688L240.454 63.9087H240.359C240.188 64.187 239.971 64.4189 239.707 64.6045C239.443 64.7852 239.15 64.9194 238.828 65.0073C238.506 65.1001 238.167 65.1465 237.81 65.1465C237.2 65.1465 236.677 65.0439 236.243 64.8389C235.813 64.6289 235.483 64.3066 235.254 63.8721C235.024 63.4375 234.91 62.876 234.91 62.1875V56.8921H236.638V61.8652C236.638 62.4951 236.765 62.9663 237.019 63.2788C237.278 63.5913 237.678 63.7476 238.22 63.7476C238.743 63.7476 239.158 63.6401 239.465 63.4253C239.773 63.2104 239.99 62.8931 240.117 62.4731C240.249 62.0532 240.315 61.5381 240.315 60.9277V56.8921H242.043ZM247.778 65.1465C247.012 65.1465 246.348 64.9976 245.786 64.6997C245.225 64.4019 244.792 63.9453 244.49 63.3301C244.187 62.7148 244.036 61.9336 244.036 60.9863C244.036 60 244.202 59.1943 244.534 58.5693C244.866 57.9443 245.325 57.4829 245.911 57.1851C246.501 56.8872 247.178 56.7383 247.939 56.7383C248.423 56.7383 248.86 56.7871 249.25 56.8848C249.646 56.9775 249.98 57.0923 250.254 57.229L249.741 58.606C249.443 58.4839 249.138 58.3813 248.826 58.2983C248.513 58.2153 248.213 58.1738 247.925 58.1738C247.451 58.1738 247.056 58.2788 246.738 58.4888C246.426 58.6987 246.191 59.0112 246.035 59.4263C245.884 59.8413 245.808 60.3564 245.808 60.9717C245.808 61.5674 245.886 62.0703 246.042 62.4805C246.199 62.8857 246.431 63.1934 246.738 63.4033C247.046 63.6084 247.424 63.7109 247.874 63.7109C248.318 63.7109 248.716 63.6572 249.067 63.5498C249.419 63.4424 249.751 63.3032 250.063 63.1323V64.6265C249.756 64.8022 249.426 64.9316 249.075 65.0146C248.723 65.1025 248.291 65.1465 247.778 65.1465ZM254.985 63.7549C255.21 63.7549 255.432 63.7354 255.652 63.6963C255.872 63.6523 256.072 63.6011 256.252 63.5425V64.8462C256.062 64.9292 255.815 65 255.513 65.0586C255.21 65.1172 254.895 65.1465 254.568 65.1465C254.109 65.1465 253.696 65.0708 253.33 64.9194C252.964 64.7632 252.673 64.4971 252.458 64.1211C252.244 63.7451 252.136 63.2251 252.136 62.561V58.2031H251.03V57.4341L252.217 56.8262L252.781 55.0903H253.865V56.8921H256.187V58.2031H253.865V62.5391C253.865 62.9492 253.967 63.2544 254.172 63.4546C254.377 63.6548 254.648 63.7549 254.985 63.7549ZM263.35 62.6855C263.35 63.2178 263.22 63.667 262.961 64.0332C262.703 64.3994 262.324 64.6777 261.826 64.8682C261.333 65.0537 260.728 65.1465 260.01 65.1465C259.443 65.1465 258.955 65.105 258.545 65.022C258.14 64.9438 257.756 64.8218 257.395 64.6558V63.1689C257.781 63.3496 258.213 63.5059 258.691 63.6377C259.175 63.7695 259.631 63.8354 260.061 63.8354C260.627 63.8354 261.035 63.7476 261.284 63.5718C261.533 63.3911 261.658 63.1519 261.658 62.854C261.658 62.6782 261.606 62.522 261.504 62.3853C261.406 62.2437 261.221 62.0996 260.947 61.9531C260.679 61.8018 260.283 61.6211 259.761 61.4111C259.248 61.2061 258.816 61.001 258.464 60.7959C258.113 60.5908 257.847 60.3442 257.666 60.0562C257.485 59.7632 257.395 59.3896 257.395 58.9355C257.395 58.2178 257.678 57.6733 258.245 57.3022C258.816 56.9263 259.57 56.7383 260.508 56.7383C261.006 56.7383 261.475 56.7896 261.914 56.8921C262.358 56.9897 262.793 57.1338 263.218 57.3242L262.676 58.6206C262.31 58.4595 261.941 58.3276 261.57 58.2251C261.204 58.1177 260.83 58.064 260.449 58.064C260.005 58.064 259.666 58.1323 259.431 58.269C259.202 58.4058 259.087 58.6011 259.087 58.855C259.087 59.0454 259.143 59.2065 259.255 59.3384C259.368 59.4702 259.561 59.6021 259.834 59.7339C260.112 59.8657 260.498 60.0293 260.991 60.2246C261.475 60.4102 261.892 60.6055 262.244 60.8105C262.6 61.0107 262.874 61.2573 263.064 61.5503C263.254 61.8433 263.35 62.2217 263.35 62.6855Z" fill="white"/>
</svg>
