<svg width="75" height="26" viewBox="0 0 75 26" fill="none" xmlns="http://www.w3.org/2000/svg">
    <g clip-path="url(#clip0_58_14999)">
        <path d="M24.1187 15.7762C23.1313 13.9793 21.2313 12.6099 18.9188 12.0956C20.8313 10.9988 22.0875 9.13989 22.0875 7.03932C22.0875 3.71806 18.95 1.01644 15.0437 0.929688H5.75H5.375H0V25.2938H4.66875H5.75H15.2625C15.5375 25.3186 15.8188 25.331 16.1063 25.331C19.7563 25.331 22.7812 23.6952 24.1125 21.3406V15.7762H24.1187ZM5.75 4.13941H8.49375H12.6062C14.5437 4.13941 16.1063 5.7009 16.1063 7.62178C16.1063 9.54265 14.5375 11.1041 12.6062 11.1041H9.45625C9.4625 11.1103 9.4625 11.1103 9.46875 11.1165H5.75V4.13941ZM14.6625 22.0222H9.7875H5.75V14.4378H10.5938H14.6625C16.9375 14.4378 18.7812 16.1356 18.7812 18.23C18.7812 20.3244 16.9375 22.0222 14.6625 22.0222Z" fill="white"/>
        <path d="M75 13C75 20.1816 68.4938 26 60.4688 26C52.4438 26 45.9375 20.1816 45.9375 13C45.9375 5.8184 52.4438 0 60.4688 0C68.4938 0 75 5.8184 75 13ZM60.5375 2.96187C55.8937 2.96187 52.1375 7.44805 52.1375 12.9876C52.1375 18.521 55.9 23.0133 60.5375 23.0133C65.175 23.0133 68.9375 18.5272 68.9375 12.9876C68.9438 7.44805 65.1813 2.96187 60.5375 2.96187Z" fill="white"/>
        <path d="M45.9379 13.0054C45.9379 10.7499 46.5816 8.63077 47.7066 6.77806C45.2629 3.2833 40.8504 0.947266 35.8129 0.947266H30.0441H28.0629H24.1191V25.3176H28.0629H30.0441H35.8129C40.9066 25.3176 45.3566 22.932 47.7879 19.3629C46.6129 17.4854 45.9379 15.3167 45.9379 13.0054ZM35.0754 22.0459H30.0379V4.15699H35.0754C39.4941 4.15699 43.0691 8.15985 43.0691 13.1046C43.0754 18.0431 39.4941 22.0459 35.0754 22.0459Z" fill="white"/>
    </g>
    <defs>
        <clipPath id="clip0_58_14999">
            <rect width="75" height="26" fill="white"/>
        </clipPath>
    </defs>
</svg>
