<svg width="73" height="32" viewBox="0 0 73 32" fill="none" xmlns="http://www.w3.org/2000/svg">
    <path d="M27.1035 27.3753V6.76367H34.8633C37.982 6.76367 40.2903 7.19181 41.7882 8.06031C43.2739 8.92881 44.0228 10.2621 44.0228 12.0848C44.0228 13.2958 43.6545 14.2866 42.9178 15.0572C42.1811 15.8279 41.0761 16.3784 39.6027 16.7209C41.3093 17.0267 42.5617 17.5894 43.3844 18.4212C44.207 19.2407 44.6245 20.3539 44.6245 21.7361C44.6245 23.6199 43.9492 25.0267 42.6108 25.9686C41.2725 26.9105 39.2466 27.3753 36.5331 27.3753H27.1035ZM32.6532 15.1184H34.8756C36.1034 15.1184 37.012 14.9349 37.5768 14.5557C38.1416 14.1765 38.4363 13.5894 38.4363 12.782C38.4363 12.0236 38.1416 11.4487 37.54 11.0573C36.9383 10.678 36.0543 10.4823 34.8756 10.4823H32.6532V15.1184ZM32.6532 23.6322H34.8756C36.263 23.6322 37.2698 23.4365 37.896 23.0328C38.5099 22.6413 38.8169 21.993 38.8169 21.1001C38.8169 20.2683 38.4976 19.6566 37.8592 19.2652C37.2207 18.8738 36.2262 18.6658 34.8756 18.6658H32.6532V23.6322Z" fill="white"/>
    <path d="M47.1182 27.3753V6.76367H56.5969C59.2981 6.76367 61.3486 7.31413 62.736 8.43951C64.1234 9.55266 64.8233 11.1918 64.8233 13.3447C64.8233 15.4609 64.1357 17.1123 62.7605 18.2866C61.3854 19.4609 59.47 20.0603 57.0144 20.0603H52.8766V27.3875H47.1182V27.3753ZM52.8643 16.0114H55.4182C56.646 16.0114 57.5423 15.7912 58.1317 15.3386C58.721 14.886 59.0034 14.201 59.0034 13.2591C59.0034 12.3417 58.721 11.6689 58.1439 11.2407C57.5669 10.8126 56.6583 10.6046 55.4182 10.6046H52.8643V16.0114Z" fill="white"/>
    <path d="M67.2783 27.3753V6.76367H72.9999V27.3753H67.2783Z" fill="white"/>
    <path fill-rule="evenodd" clip-rule="evenodd" d="M0.190454 24.1713C0.374626 24.6483 0.755249 25.1009 1.33232 25.5535C2.17952 26.2141 8.56416 30.4465 10.4918 31.7187L10.9216 32L11.2776 31.7676C11.6091 31.5474 19.3689 26.2997 20.3144 25.5535C20.8914 25.1009 21.2598 24.6483 21.4562 24.1713C21.7509 23.4006 21.6404 22.8012 21.5544 22.3609V22.3364C21.5176 22.1284 20.253 14.5076 19.5654 10.8869C16.7782 10.4465 13.9297 10.2141 11.0198 10.2141C10.9584 10.2141 10.897 10.2141 10.8233 10.2141V29.9572C6.93116 27.4128 3.14949 24.9541 2.5233 24.4648C2.14268 24.1713 1.9094 23.9021 1.81117 23.6575C1.65155 23.2661 1.71295 22.9235 1.78661 22.581C1.83573 22.3486 3.1986 14.1774 3.86162 10.7034C3.25999 10.7768 2.8057 10.8624 2.21635 10.9602C1.52877 14.5933 0.141341 22.1284 0.104506 22.3486C0.00628112 22.8012 -0.104222 23.4006 0.190454 24.1713ZM5.26133 13.7859H5.94891V14.1774V14.3731H6.55054V13.7492H7.27495V14.3731H7.85202V13.7737H8.5396V15.315H5.26133V13.7859ZM5.80157 15.5841H7.99936L8.76061 21.6636H5.04033L5.80157 15.5841ZM4.62287 21.945H9.16579V23.474H7.93797V23.0826H5.83841V23.474H4.61059V21.945H4.62287ZM6.39092 18.8991H7.43457V18.5199H6.39092V18.8991ZM7.42229 17.3211H6.37864V17.7003H7.42229V17.3211ZM6.37864 20.0979H7.42229V19.7187H6.37864V20.0979ZM5.70335 7.79205C5.27361 7.84098 4.97894 7.88991 4.58604 8.01223C4.52464 8.35474 4.40186 9.02752 4.29136 9.55352C6.45231 9.24771 8.66238 9.07645 10.9093 9.07645C13.0211 9.07645 15.0961 9.23548 17.1466 9.50459C17.0361 8.99083 16.9256 8.35474 16.8642 8.01223C16.5941 7.90214 16.238 7.82875 15.7837 7.80428C17.2203 7.46177 18.092 6.45872 18.092 5.49235C18.092 4.22018 17.0852 3.20489 14.5927 2.94801C13.7087 2.263 12.4809 1.96942 11.425 1.88379C11.6828 1.70031 11.867 1.38226 11.867 1.02752C11.867 0.452599 11.2899 0 10.7374 0C10.1849 0 9.6078 0.464831 9.6078 1.02752C9.6078 1.38226 9.7797 1.70031 10.0498 1.88379C8.98162 1.96942 7.76608 2.263 6.88205 2.94801C4.40186 3.19266 3.38278 4.20795 3.38278 5.49235C3.38278 6.45872 4.2668 7.46177 5.70335 7.79205ZM15.1207 3.73089C15.1207 3.73089 17.0115 3.90214 16.987 5.54129C16.9747 6.83792 15.5627 7.5474 13.7701 7.32722C16.238 6.32416 15.71 4.42814 15.1207 3.73089ZM11.3145 2.76453C12.8983 2.91131 14.1262 3.88991 14.1262 5.10092C14.1262 6.32416 12.8615 7.32722 11.2408 7.43731C11.5723 6.99694 11.7933 6.10398 11.7933 5.05199C11.8056 4.08563 11.6091 3.24159 11.3145 2.76453ZM10.1603 2.76453C9.87792 3.22936 9.68147 4.0734 9.68147 5.05199C9.68147 6.10398 9.91476 6.99694 10.234 7.43731C8.61327 7.31499 7.34862 6.32416 7.34862 5.10092C7.34862 3.88991 8.57644 2.91131 10.1603 2.76453ZM6.36637 3.73089C5.77702 4.42814 5.24906 6.32416 7.71697 7.31499C5.92435 7.53517 4.51236 6.83792 4.50009 5.52905C4.47553 3.90214 6.36637 3.73089 6.36637 3.73089ZM15.71 24.7706C15.7346 24.6973 15.7469 24.6239 15.7714 24.5505C15.8942 24.526 16.017 24.5138 16.1398 24.4893C16.3731 24.3425 16.3485 23.8654 16.5818 23.7309C16.6923 23.6697 16.7414 23.7554 16.7905 23.8165C16.8642 23.6575 16.8396 23.4251 16.9133 23.2416C17.1098 22.7768 17.5272 22.5199 17.3676 21.7248C17.3553 21.7125 17.343 21.7003 17.343 21.6881C17.2694 21.7982 17.2448 21.8716 17.1589 21.9572C16.5572 21.9205 16.7782 20.5749 17.1834 20.4526C17.4781 21.2477 18.7428 21.4801 18.8164 20.4281C18.8287 20.2202 18.6568 19.9266 18.4481 19.5963C18.534 19.2661 18.6691 18.9969 18.7919 18.8257C18.8655 18.7278 18.4481 18.9113 18.2516 19.2783C18.3376 18.9235 18.4849 18.63 18.6077 18.4465C18.6814 18.3486 18.313 18.5076 18.1043 18.8379C18.1902 18.4832 18.3376 18.2018 18.4604 18.0184C18.534 17.9083 18.0797 18.1162 17.8956 18.5321C17.8342 18.3242 17.7851 18.1162 17.7973 17.9083C17.8096 17.4067 17.9569 16.4159 18.1534 15.6086C18.2025 15.3761 18.3253 14.948 18.6568 14.7645C18.399 14.7034 17.9569 14.9358 17.9692 15.4373C17.8956 14.7034 17.343 14.4587 17.0606 14.4098C17.9692 15.2049 17.2203 17.0275 17.2325 17.8838C17.2448 18.9602 18.534 20.0856 18.3376 20.4648C18.0429 21.0275 17.4904 19.9511 17.3308 19.6086C17.1589 19.2661 16.5695 18.7278 16.1398 18.3119C16.3976 18.1284 16.68 17.6758 16.6923 17.1865C16.7291 17.2355 16.7782 17.2844 16.8151 17.3333C16.8274 17.3333 16.8519 17.3333 16.8765 17.3333C16.8151 16.8807 16.9993 16.4159 16.8519 16C16.9256 16 16.987 16 17.0606 16C16.9993 14.0061 15.5504 14.422 14.8506 14.5933C14.8383 14.63 14.826 14.6667 14.8137 14.7034C14.912 14.7034 14.9979 14.7156 15.0961 14.7156C15.0961 14.7278 15.0961 14.7278 15.0961 14.7278C15.0225 14.7523 14.9488 14.7768 14.8751 14.8012C14.8383 14.9358 14.8751 15.2538 15.047 15.4128C15.1084 15.2661 15.1207 15.2049 15.2558 15.1437C15.4276 15.2294 15.5382 15.5229 15.4276 15.7921C15.3049 15.841 15.1821 15.8165 15.133 15.6697H15.1207C15.047 15.9633 15.0716 16.2691 15.2926 16.4648C15.3049 16.2202 15.3908 16.1101 15.5995 16.1223C15.5382 16.7217 15.133 16.5872 14.7278 16.7462C13.9788 17.0398 13.7701 18.1651 13.0948 18.3486C13.1562 18.6177 13.414 18.8379 13.6105 18.9358C13.5123 19.1193 13.0948 19.6942 12.9106 19.7187C12.837 19.6208 12.7756 19.5229 12.6528 19.4862C12.53 19.5229 12.4195 19.5474 12.2967 19.5841C12.2844 19.6208 12.2599 19.6697 12.2353 19.7064C12.2844 19.7187 12.3336 19.7309 12.3949 19.7431C12.3949 19.8165 12.3827 19.8899 12.3827 19.9633C12.4809 19.9878 12.616 19.9878 12.7019 20.0367C12.7019 20.0612 12.7142 20.0734 12.7142 20.0979C12.6037 20.0734 12.4932 20.0245 12.3704 20.0612C12.2967 20.1101 12.1371 20.4037 12.1739 20.526C12.1739 20.5382 12.1739 20.5505 12.1739 20.5627C12.2108 20.526 12.2353 20.5015 12.2722 20.4771C12.3458 20.5015 12.3458 20.5138 12.3581 20.5994C12.3827 20.6116 12.4072 20.6239 12.4318 20.6361C12.5177 20.5505 12.616 20.4648 12.7019 20.3792H12.7142C12.7265 20.3914 12.7265 20.4159 12.7387 20.4281C12.6528 20.5138 12.5791 20.5994 12.4932 20.685C12.4809 20.8318 12.4563 20.9908 12.4809 21.1865C12.5423 21.1376 12.5914 21.0765 12.6528 21.0275C12.8738 21.2355 13.0089 20.9664 13.1316 20.7584C13.2053 20.8318 13.2912 20.844 13.3895 20.844C13.3895 20.893 13.4018 20.9541 13.4018 21.0031H13.414C13.7701 20.6606 13.3158 20.367 13.7333 19.9511C13.9297 20.0734 14.0771 20.0367 14.2735 19.9511C14.3103 19.9021 14.3349 19.8532 14.3717 19.8043C14.2612 19.7676 14.1998 19.7187 14.1507 19.6086C14.1507 19.5352 14.1507 19.5229 14.1753 19.4862C14.2612 19.3028 14.5682 19.3272 14.7401 19.3884C15.1944 19.5719 15.4645 19.9755 15.796 20.3058C15.7714 20.7217 15.7223 21.2599 15.8083 21.6391C15.9065 22.0184 16.1766 22.1896 16.0784 22.6667C16.2503 22.6544 16.3362 22.5688 16.3976 22.4343C16.459 22.4343 16.5327 22.4465 16.5941 22.4465C16.4222 22.7645 16.1152 23.3762 15.7714 23.4618C15.4645 23.5474 15.3417 23.1682 15.047 23.2661C15.0102 23.3028 14.9611 23.3517 14.9242 23.3884C14.7892 23.4618 14.7523 23.3639 14.6664 23.5352C14.6664 23.5474 14.6664 23.5719 14.6664 23.5841C14.7155 23.5841 14.7646 23.5963 14.826 23.5963C14.8383 23.6575 14.8506 23.7309 14.8629 23.7921C14.9488 23.7064 15.0225 23.6086 15.1084 23.5229C15.1084 23.5352 15.1207 23.5474 15.1207 23.5596C14.9979 23.6697 14.912 23.841 14.826 24C14.8137 24.1101 14.826 24.1957 14.8383 24.3058C14.8506 24.318 14.8506 24.318 14.8629 24.318C14.8874 24.2691 14.9242 24.2202 14.9488 24.1713C14.9734 24.1713 14.9856 24.1713 15.0102 24.1713C15.0347 24.208 15.0593 24.2446 15.0839 24.2813C15.1084 24.2813 15.1207 24.2813 15.1453 24.2813C15.1698 24.1346 15.2066 23.9755 15.2312 23.8288C15.2435 23.8165 15.2558 23.8043 15.268 23.7921C15.268 23.8043 15.2803 23.8043 15.2803 23.8043C15.1944 24.0489 15.1575 24.3058 15.2189 24.5749C15.2312 24.5872 15.2558 24.6116 15.2803 24.6239C15.2926 24.5872 15.3049 24.5382 15.3171 24.5015C15.3785 24.4404 15.4154 24.4281 15.5382 24.4281C15.5504 24.2324 15.489 24.0612 15.6241 23.9388C15.5382 24.1346 15.5627 24.4281 15.6118 24.6606C15.6487 24.7217 15.6732 24.7462 15.71 24.7706ZM15.4768 14.9235C15.4768 14.8379 15.4768 14.7645 15.4768 14.6789C15.6487 14.6667 15.8697 14.6544 15.9802 14.7278C15.8205 14.8012 15.6487 14.8624 15.4768 14.9235ZM15.8083 22.2997V22.2875C15.6364 22.1529 15.047 21.4312 15.2312 21.0153C15.3049 20.7829 15.5259 20.844 15.6487 20.9541C15.6609 20.8318 15.6732 20.6973 15.6732 20.5749C15.5627 20.4037 15.2803 20.318 15.3908 20.0122C14.6418 19.4128 14.691 20.4281 14.0525 20.4159C14.0771 20.6483 14.1876 20.8196 14.3963 20.8318C14.3963 21.3089 14.5805 21.6391 14.7892 21.8349C14.7892 21.8471 14.8015 21.8716 14.8015 21.8838C14.5191 21.9205 14.163 21.9694 13.9543 21.7982C13.7087 21.5902 13.6473 21.2844 13.2176 21.3089C13.2176 21.3211 13.2176 21.3211 13.2176 21.3211C13.2421 21.3578 13.2667 21.3945 13.2912 21.4312C13.3035 21.4924 13.2667 21.5168 13.2544 21.5902C13.2544 21.5902 13.2544 21.6024 13.2544 21.6147C13.3404 21.6391 13.414 21.6636 13.5 21.6881C13.5123 21.6881 13.5123 21.6881 13.5245 21.6881C13.5245 21.7125 13.5245 21.737 13.5245 21.7615C13.2912 21.7125 13.0457 21.7248 12.9597 21.9817C12.9597 21.9939 12.9597 21.9939 12.9597 22.0061C13.0089 22.0061 13.058 22.0061 13.1071 22.0061C13.1439 22.0795 13.1807 22.1407 13.193 22.263C13.279 22.1651 13.3649 22.0673 13.4509 21.9694H13.4631C13.414 22.2385 13.193 22.3119 13.1685 22.6422C13.1685 22.6544 13.1685 22.6544 13.1685 22.6544C13.2176 22.6544 13.279 22.6055 13.3404 22.5688C13.3895 22.6177 13.4386 22.6667 13.4754 22.7156C13.5368 22.6544 13.5614 22.4954 13.5859 22.3853C13.6105 22.3853 13.6228 22.3853 13.6473 22.3853C13.6105 22.581 13.5 22.8257 13.5736 23.0214C13.5982 23.0459 13.6228 23.0826 13.6473 23.107C13.6719 23.0459 13.6841 22.9847 13.7087 22.9236C13.7947 22.8624 13.856 22.9847 14.0034 22.9236C14.1753 22.8502 14.1753 22.6177 14.4208 22.6177C14.4822 22.6911 14.5191 22.7278 14.5191 22.8869C14.6787 22.8379 14.7278 22.6789 14.8751 22.63C15.354 22.4709 15.4645 22.7034 15.8083 22.2997ZM14.5682 15.9388C14.8874 15.9021 14.9979 15.5474 15.3294 15.5352C15.3294 15.5229 15.3294 15.5229 15.3294 15.5107C15.2435 15.4985 15.1821 15.474 15.0839 15.4985C14.9242 15.5352 14.1876 15.9388 14.4822 15.315C14.2489 15.4128 14.163 15.9755 14.5682 15.9388ZM12.309 17.5413C12.309 17.5535 12.309 17.5535 12.309 17.5535C12.3827 17.6514 12.5668 17.6269 12.7019 17.6269C12.751 17.5535 12.8001 17.4679 12.8615 17.3945C12.8738 17.3945 12.8861 17.3945 12.8861 17.3945C13.0457 17.6024 13.2176 17.8104 13.3772 18.0184C13.3895 18.0184 13.4018 18.0184 13.4018 18.0184C13.5614 17.8716 13.6719 17.6636 13.7947 17.4679C13.7455 17.1621 13.3895 17.0275 13.3035 16.7339C13.193 16.4037 13.5245 15.9388 13.1071 15.7064C13.1071 15.8777 13.0334 15.9144 13.0211 16.0122C13.0334 16.1101 13.0457 16.208 13.0457 16.3058C13.0457 16.318 13.0457 16.3303 13.0457 16.3425H13.0334C12.972 16.2691 12.9843 16.159 12.9352 16.0489C12.8861 15.9388 12.6282 15.8043 12.5177 15.7798C12.5177 15.7921 12.5177 15.7921 12.5177 15.8043C12.5546 15.9266 12.53 16.0245 12.5423 16.1223C12.6037 16.2202 12.6651 16.3303 12.7265 16.4281C12.7265 16.4526 12.7265 16.4771 12.7265 16.5015C12.7142 16.5015 12.7019 16.5015 12.6896 16.5015C12.6282 16.4281 12.5546 16.3425 12.4932 16.2691C12.3949 16.2202 12.1985 16.2691 12.1003 16.3058C12.1371 16.3547 12.1862 16.4037 12.223 16.4526C12.3213 16.6116 12.7878 17.1499 12.309 17.5413ZM15.1698 13.4434C15.3049 13.3333 15.5013 13.2844 15.6609 13.2722C15.6241 13.2477 15.5873 13.1988 15.5873 13.1376C15.5873 13.052 15.6732 12.9786 15.7592 12.9786C15.8451 12.9786 15.9311 13.052 15.9311 13.1376C15.9311 13.1988 15.9065 13.2477 15.8574 13.2722C16.0293 13.2844 16.2134 13.3333 16.3485 13.4434C16.7414 13.4801 16.901 13.6391 16.901 13.8349C16.901 14.0061 16.7414 14.1774 16.4713 14.2141C16.459 14.2752 16.459 14.3486 16.4467 14.3853C16.2871 14.3364 15.9924 14.3119 15.7469 14.3119C15.5136 14.3119 15.1821 14.3486 15.047 14.3853C15.047 14.3486 15.0347 14.2752 15.0225 14.2141C14.7523 14.1774 14.5927 14.0061 14.5927 13.8349C14.6296 13.6391 14.7769 13.4801 15.1698 13.4434ZM16.7537 13.8471C16.7537 13.6269 16.4836 13.6024 16.4836 13.6024C16.5695 13.7003 16.6432 13.9572 16.2871 14.0917C16.545 14.1162 16.7537 14.0183 16.7537 13.8471ZM16.3117 13.7737C16.3117 13.6024 16.1152 13.4679 15.8697 13.4557C15.9188 13.5168 15.9433 13.6391 15.9433 13.7737C15.9433 13.9205 15.9065 14.0428 15.8574 14.104C16.1029 14.0795 16.3117 13.945 16.3117 13.7737ZM15.6978 14.104C15.6487 14.0428 15.6118 13.9205 15.6118 13.7737C15.6118 13.6391 15.6364 13.5168 15.6855 13.4557C15.4399 13.4801 15.2435 13.6147 15.2435 13.7737C15.2435 13.945 15.4399 14.0795 15.6978 14.104ZM15.268 14.0917C14.8997 13.9572 14.9856 13.6881 15.0716 13.5902C15.0716 13.5902 14.7892 13.6147 14.8015 13.8349C14.8015 14.0306 15.0102 14.1284 15.268 14.0917Z" fill="white"/>
</svg>
