<svg width="40" height="36" viewBox="0 0 40 36" fill="none" xmlns="http://www.w3.org/2000/svg">
    <g clip-path="url(#clip0_58_14981)">
        <path d="M2.90026 0.185699C3.06073 0.145502 3.22447 0.110618 3.39149 0.118241C14.5183 0.120552 25.6451 0.116162 36.7716 0.120321C37.0909 0.188471 37.4168 0.202333 37.7316 0.28111C38.6794 0.632029 39.5222 1.39162 39.787 2.36167C39.8451 2.4848 39.8731 2.6151 39.8593 2.75279C39.8453 2.84958 39.9704 2.90133 39.9286 3.00645C39.9293 11.7221 39.9328 20.438 39.9267 29.1535C39.4932 29.3889 39.1014 29.7012 38.6441 29.8983C38.547 29.9632 38.4928 30.0919 38.3613 30.1016C38.1218 30.1429 37.9222 30.2901 37.7262 30.4227C37.5945 30.4814 37.4376 30.4504 37.3101 30.5209C37.0357 30.8002 36.6125 30.8223 36.2762 31.0035C36.09 31.1393 35.8401 31.0688 35.6486 31.1899C35.398 31.2779 35.1805 31.4593 34.9007 31.4475C34.5868 31.5713 34.2226 31.5281 33.9314 31.7099C33.7255 31.7825 33.4783 31.7108 33.2925 31.8409C32.8888 31.9037 32.5066 32.0717 32.0937 32.0696C31.7894 32.2325 31.4296 32.1988 31.1033 32.2681C30.9559 32.342 30.689 32.3145 30.6813 32.5328C30.4294 32.3189 30.2965 32.0119 30.192 31.709C30.18 31.4875 30.1503 31.2687 30.1075 31.052C30.1007 27.7022 30.1089 24.3522 30.1035 21.0024C30.0806 20.7973 30.3728 20.8982 30.4937 20.8518C30.9173 20.7492 31.3583 20.812 31.7894 20.7945C32.3017 20.7721 32.8203 20.8712 33.2757 21.102C33.9026 21.3496 34.3784 21.9318 34.4914 22.5881C34.6125 22.9256 34.5594 23.2946 34.5644 23.646C34.4939 24.4176 34.0308 25.1166 33.4507 25.6237C32.7396 26.1692 31.8486 26.4718 30.9543 26.5321C30.89 26.5501 30.9658 26.6404 31.0102 26.6457C32.0275 26.9442 33.1459 26.9089 34.1456 26.564C34.9066 26.2784 35.6572 25.8778 36.1508 25.2167C36.4635 24.9082 36.5901 24.4876 36.7866 24.1096C37.1164 23.2731 37.0542 22.319 36.7155 21.497C36.4951 21.0283 36.1753 20.5787 35.719 20.31C34.8596 19.6431 33.7735 19.355 32.7021 19.2709C30.8551 19.2205 29.0058 19.2591 27.1578 19.2471C27.0918 19.1676 26.9405 19.3167 27.0642 19.3388C27.3856 19.5121 27.664 19.7949 27.7669 20.1479C27.8701 20.4953 27.8904 20.8543 27.9506 21.211C27.9536 24.4832 27.9571 27.7556 27.9487 31.0275C27.8584 31.3754 27.8921 31.7439 27.7842 32.0881C27.6418 32.3748 27.4682 32.6922 27.1891 32.8606C26.558 32.7828 25.9201 32.8879 25.2867 32.9011C24.8738 32.8352 24.4853 33.045 24.0689 33.0129C23.4914 32.9348 22.9063 33.0794 22.3246 33.0013C22.0787 32.9553 21.8277 33.0124 21.5854 32.9623C22.1681 32.8994 22.7611 32.802 23.3052 32.5843C24.2226 32.2357 25.0221 31.6166 25.6083 30.839C25.9655 30.2612 26.2483 29.613 26.264 28.9261C26.3445 27.9399 25.9985 26.8932 25.2219 26.2415C24.6158 25.587 23.7503 25.2361 22.9007 25.042C22.9173 24.9581 23.0247 24.926 23.0956 24.8916C23.5721 24.6881 23.9847 24.3651 24.322 23.9777C24.6191 23.7601 24.6946 23.3983 24.8465 23.089C24.8958 22.6969 25.0282 22.301 24.9335 21.9041C24.8558 21.2759 24.5056 20.7 24.0418 20.2685C23.0406 19.4846 21.7255 19.2762 20.4804 19.2598C18.8317 19.2254 17.18 19.2612 15.5321 19.2497C15.4975 19.3684 15.6453 19.3781 15.7171 19.4349C15.9274 19.5957 16.1045 19.799 16.2378 20.0263C16.5445 20.8502 16.3742 21.7611 16.421 22.62C16.4214 25.3922 16.4198 28.1645 16.4219 30.9367C16.4018 31.3075 16.4406 31.6875 16.3246 32.0451C16.2242 32.2946 16.0972 32.5411 15.8991 32.7315C15.7805 32.8373 15.6097 32.8851 15.5176 33.0177C14.5639 33.0672 13.6065 33.0413 12.6544 32.9694C12.2013 32.8452 11.7164 32.911 11.2525 32.8288C10.9882 32.8056 10.7337 32.7236 10.4682 32.7056C10.3435 32.7273 10.2736 32.6395 10.2406 32.5397C10.7796 32.3635 11.2839 32.1033 11.7751 31.825C12.0467 31.7127 12.2104 31.4643 12.4691 31.3313C12.7728 31.0783 13.0612 30.8071 13.3398 30.5271C14.0132 29.6975 14.5742 28.7388 14.758 27.6784C14.7955 27.3603 14.9145 27.0574 14.9314 26.7354C14.9548 26.2729 14.9552 25.8088 14.9477 25.346C14.7955 23.9019 14.2982 22.4107 13.1753 21.4129C12.7655 20.9881 12.3094 20.5849 11.7716 20.3301C11.3428 20.1458 10.9361 19.9051 10.4846 19.7773C9.46447 19.4405 8.3964 19.2739 7.32155 19.27C5.58377 19.2196 3.84342 19.2612 2.10447 19.2457C2.05184 19.2485 1.93488 19.2478 1.97207 19.328C2.17137 19.4414 2.41816 19.51 2.52506 19.7332C2.76248 20.0132 2.76365 20.3886 2.85488 20.7236C2.91406 21.071 2.89348 21.4242 2.8902 21.7747C2.8481 24.6879 2.91032 27.6096 2.85839 30.5213C2.67359 30.464 2.46962 30.4647 2.30658 30.3467C1.9281 30.2023 1.63921 29.9027 1.24716 29.7735C1.14283 29.7017 1.064 29.5984 0.957571 29.5289C0.598507 29.4586 0.416051 29.0978 0.0764017 28.9867C0.0693841 28.982 0.0553491 28.9728 0.0480976 28.9682C0.044121 20.4221 0.0487993 11.876 0.0457584 3.32987C0.0279806 3.19704 0.0775713 3.07252 0.102133 2.94476C0.150554 2.79599 0.0651736 2.62064 0.149852 2.48388C0.340729 1.81115 0.759209 1.18855 1.33605 0.769485C1.80365 0.462229 2.31921 0.182003 2.90026 0.185699ZM27.6076 2.99559C25.9321 3.02354 24.2553 2.99374 22.5798 3.0106C22.5391 3.05011 22.4741 3.091 22.5265 3.16793C22.5295 4.82111 22.5187 6.47428 22.5318 8.12722C23.2046 8.79556 23.8806 9.4609 24.5559 10.1269C24.6378 10.1981 24.5325 10.2739 24.4937 10.3323C23.9606 10.859 23.4298 11.3927 22.8867 11.9088C22.7688 12.104 22.4558 12.2089 22.5253 12.4782C22.5276 14.057 22.5255 15.6356 22.5262 17.2144C22.4813 17.265 22.53 17.3682 22.5959 17.353C24.3138 17.3433 26.0366 17.3715 27.7513 17.3389C28.4448 16.696 29.1012 16.0043 29.7842 15.3475C29.842 15.3232 29.8759 15.3861 29.9131 15.4175C30.5342 16.051 31.1597 16.6803 31.7948 17.3008C31.8635 17.3414 31.9384 17.3717 32.0228 17.3532C33.6972 17.35 35.3718 17.3571 37.0462 17.3498C37.0727 17.2772 37.0846 17.1989 37.0766 17.122C37.0715 15.5069 37.0832 13.8916 37.071 12.2768C36.4348 11.5609 35.7208 10.9131 35.0458 10.2316C35.0266 10.1821 35.0504 10.1313 35.083 10.0939C35.7608 9.45235 36.4055 8.78401 37.071 8.12884C37.0638 6.42369 37.1098 4.70814 37.0483 3.00922C35.3166 3.01176 33.5796 2.98981 31.8509 3.02031C31.523 3.32872 31.2111 3.66832 30.8839 3.98343C30.61 4.34313 30.2427 4.61319 29.9414 4.94701C29.8953 4.96919 29.8343 5.08262 29.7716 5.02255C29.1213 4.3787 28.4692 3.7367 27.8191 3.09262C27.7665 3.03024 27.6883 2.99674 27.6076 2.99559Z" fill="white"/>
        <path d="M23.6081 4.04893C24.8357 4.04662 26.0652 4.03969 27.2921 4.05216C27.628 4.30074 27.8766 4.64404 28.1964 4.91341C28.2612 4.93073 28.2883 5.02868 28.2018 5.03146C27.0355 5.0504 25.868 5.03423 24.7012 5.03931C24.6355 5.02591 24.5861 5.12202 24.6315 5.17792C24.6313 6.33325 24.6315 7.48858 24.6317 8.64391C24.6338 8.66493 24.6191 8.728 24.5898 8.7049C24.2537 8.37477 23.9173 8.04464 23.5845 7.71151C23.5704 6.55919 23.584 5.4064 23.5777 4.25408C23.6072 4.1984 23.5419 4.09352 23.6081 4.04893Z" fill="white"/>
        <path d="M32.3346 4.05224C33.5543 4.04023 34.7749 4.04577 35.9945 4.04947C36.0009 4.05594 36.0137 4.06865 36.02 4.07511C36.028 5.22813 36.0196 6.38138 36.024 7.53463C35.9987 7.60394 36.0563 7.70027 35.9941 7.7608C35.7005 8.04796 35.4097 8.33835 35.1164 8.62573C35.086 8.66293 35.0411 8.68233 34.9957 8.69342C34.9641 7.61549 35.0116 6.5357 34.9945 5.45546C34.9716 5.32193 35.0416 5.15421 34.9424 5.04193C33.7585 5.03523 32.5749 5.04332 31.3913 5.03823C31.3927 4.9955 31.3789 4.93936 31.432 4.91718C31.74 4.63788 32.0083 4.30798 32.3346 4.05224Z" fill="white"/>
        <path d="M25.808 6.06673C28.5004 6.09907 31.1958 6.0658 33.8889 6.08336C33.8952 6.0896 33.9083 6.10207 33.9149 6.10831C33.9216 8.80916 33.9153 11.5105 33.9179 14.2115C33.9333 14.2795 33.8269 14.3176 33.7775 14.2806C31.1263 14.2806 28.4751 14.2804 25.8239 14.2809C25.7195 14.3395 25.6388 14.2155 25.673 14.1342C25.6863 11.4936 25.6947 8.84404 25.6718 6.20233C25.647 6.11755 25.7298 6.06164 25.808 6.06673Z" fill="white"/>
        <path d="M24.5682 11.6984C24.6363 11.6656 24.6578 11.8012 24.6316 11.831C24.634 12.9843 24.6274 14.1373 24.6344 15.2903C24.6412 15.297 24.6546 15.3102 24.6613 15.3169C25.8684 15.325 27.0756 15.3151 28.2829 15.3215C28.2889 15.3899 28.2232 15.4319 28.1823 15.4765C27.9114 15.7401 27.6436 16.007 27.3748 16.2729C27.3222 16.3329 27.2447 16.3835 27.158 16.3586C25.9884 16.3604 24.8185 16.3586 23.6487 16.3595C23.583 16.3747 23.5339 16.2717 23.579 16.2209C23.5783 15.1041 23.5804 13.9876 23.5781 12.8709C23.598 12.7997 23.5481 12.7061 23.608 12.6447C23.9292 12.3305 24.2468 12.0124 24.5682 11.6984Z" fill="white"/>
        <path d="M34.9999 11.6945C35.0682 11.6748 35.1073 11.7545 35.1533 11.7894C35.4394 12.0773 35.7314 12.3596 36.0186 12.6465C36.0287 13.8739 36.0242 15.102 36.0209 16.3294C36.0142 16.3361 36.0008 16.3493 35.994 16.356C34.7669 16.3643 33.5379 16.3564 32.3119 16.3537C31.9695 16.052 31.6825 15.6955 31.3503 15.3829C31.3487 15.3672 31.3454 15.3363 31.3438 15.3206C32.5278 15.3037 33.714 15.3305 34.8998 15.3178C34.9587 15.3055 34.9802 15.2339 34.9861 15.1806C34.9968 14.123 35.005 13.0633 34.9816 12.0063C35.0511 11.907 34.9218 11.7774 34.9999 11.6945Z" fill="white"/>
        <path d="M19.2839 20.5754C19.8528 20.5788 20.4423 20.5003 20.9871 20.6733C21.2851 20.738 21.5677 20.8692 21.8275 21.0212C22.1894 21.2733 22.4278 21.6591 22.5796 22.0578C22.5702 22.2644 22.6729 22.4584 22.6654 22.6654C22.5927 22.932 22.5932 23.2215 22.4509 23.4682C22.21 24.0157 21.6453 24.323 21.1031 24.5198C20.7408 24.6053 20.3859 24.7328 20.0088 24.779C19.581 24.8534 19.1361 24.806 18.7054 24.804C18.6137 24.8282 18.5721 24.6954 18.5969 24.6295C18.5999 23.3384 18.5871 22.0449 18.603 20.7549C18.7382 20.541 19.0853 20.7047 19.2839 20.5754Z" fill="white"/>
        <path d="M7.09584 20.7826C7.62988 20.7729 8.17421 20.8145 8.6783 20.9552C9.22637 21.033 9.7183 21.2934 10.2133 21.5216C10.3896 21.5981 10.5286 21.7258 10.6746 21.8469C10.8231 21.8698 10.9005 22.0118 10.9999 22.1056C11.4762 22.5021 11.8231 23.0249 12.0718 23.5881C12.1922 24.0111 12.4219 24.4103 12.4282 24.8538C12.5038 25.0925 12.4902 25.3473 12.5258 25.5906C12.6268 25.7047 12.4601 25.8433 12.5499 25.9579C12.5999 26.6579 12.4778 27.3472 12.2935 28.0174C12.0575 28.7405 11.6816 29.438 11.0935 29.9492C10.6519 30.3438 10.1632 30.6993 9.61468 30.9382C9.16883 31.1554 8.68087 31.2596 8.20555 31.3716C8.04345 31.4601 7.84064 31.3769 7.67924 31.4744C7.0645 31.537 6.44228 31.5084 5.82403 31.5139C5.70427 31.5063 5.58005 31.5028 5.47105 31.4485C5.33421 31.3873 5.14333 31.4652 5.03269 31.3464C5.0238 27.9139 5.03175 24.4812 5.02871 21.0487C5.02216 20.9351 5.20415 20.9875 5.26356 20.9598C5.86824 20.8376 6.47573 20.7879 7.09584 20.7826Z" fill="white"/>
        <path d="M19.9862 26.1225C20.4772 26.0657 20.9596 26.1482 21.4398 26.2124C21.5336 26.3027 21.6856 26.224 21.7736 26.3194C22.1909 26.3968 22.5741 26.6299 22.9182 26.8764C23.3277 27.1538 23.6447 27.5692 23.801 28.0352C23.7794 28.183 23.891 28.2971 23.8861 28.4413C23.9268 28.8008 23.9006 29.1644 23.9039 29.5257C23.779 29.8789 23.6456 30.2416 23.4208 30.55C23.0452 30.9432 22.5495 31.208 22.0255 31.3401C21.0976 31.6081 20.087 31.5115 19.1196 31.4834C18.9752 31.4039 18.807 31.424 18.647 31.4196C18.5785 31.3295 18.6045 31.2022 18.5958 31.0989C18.6 29.4758 18.5904 27.8522 18.6005 26.2295C18.8704 26.0879 19.2449 26.2388 19.5458 26.1669C19.6786 26.0978 19.8417 26.1496 19.9862 26.1225Z" fill="white"/>
        <path d="M0.0457249 29.0882C0.0557834 29.0563 0.025374 28.9877 0.0763682 28.9863C0.416017 29.0974 0.598473 29.4583 0.957538 29.5285C1.06397 29.5981 1.1428 29.7013 1.24713 29.7732C1.63918 29.9023 1.92806 30.202 2.30654 30.3463C2.46958 30.4644 2.67356 30.4637 2.85836 30.521C2.90116 30.9588 2.81134 31.3864 2.78912 31.8209C2.71029 32.0321 2.64081 32.2523 2.49508 32.4304C2.37555 32.6591 2.13649 32.7896 1.98561 32.9908C2.10163 33.0493 2.23637 33.0349 2.36222 33.0396C4.1945 33.0356 6.02701 33.0426 7.85929 33.0361C8.6614 32.9305 9.48526 32.8414 10.2406 32.5394C10.2736 32.6392 10.3435 32.727 10.4682 32.7053C10.7337 32.7233 10.9882 32.8053 11.2525 32.8284C11.7164 32.9107 12.2013 32.8448 12.6544 32.9691C13.6064 33.041 14.5639 33.0668 15.5175 33.0174C17.1702 33.068 18.8343 33.0229 20.4911 33.0396C20.8565 33.0176 21.2249 33.0303 21.5854 32.9619C21.8277 33.0121 22.0787 32.955 22.3246 33.001C22.9063 33.0791 23.4913 32.9345 24.0689 33.0125C24.4853 33.0446 24.8738 32.8349 25.2867 32.9007C25.9201 32.8876 26.558 32.7824 27.1891 32.8603C27.1524 32.9435 27.0064 32.9171 27.0181 33.0109C28.114 33.08 29.2172 33.0167 30.3157 33.0386C30.6032 33.0273 30.9023 33.0714 31.1826 32.992C31.0694 32.7921 30.7812 32.7508 30.6813 32.5325C30.689 32.3142 30.9559 32.3417 31.1033 32.2677C31.4296 32.1984 31.7894 32.2322 32.0937 32.0693C32.5065 32.0714 32.8888 31.9034 33.2925 31.8406C33.4782 31.7105 33.7255 31.7821 33.9313 31.7096C34.2226 31.5278 34.5868 31.571 34.9007 31.4471C35.1805 31.4589 35.398 31.2776 35.6485 31.1896C35.8401 31.0685 36.0899 31.139 36.2761 31.0031C36.6125 30.822 37.0357 30.7998 37.3101 30.5205C37.4375 30.4501 37.5945 30.481 37.7262 30.4223C37.9222 30.2897 38.1217 30.1426 38.3613 30.1012C38.4927 30.0915 38.547 29.9628 38.6441 29.8979C39.1014 29.7009 39.4932 29.3885 39.9267 29.1531C39.9334 30.3558 39.9278 31.5587 39.9297 32.7616C39.8958 33.3514 39.7634 33.9639 39.3784 34.4328C39.1437 34.7928 38.849 35.122 38.4766 35.3444C38.3865 35.3696 38.3124 35.4232 38.2499 35.4909C38.0499 35.6013 37.8322 35.6468 37.6226 35.7291C37.1793 35.8922 36.7002 35.8194 36.2338 35.834C24.1805 35.8324 12.1271 35.8372 0.074029 35.8314C0.00923366 33.591 0.0663097 31.3349 0.0457249 29.0882Z" fill="white"/>
    </g>
    <defs>
        <clipPath id="clip0_58_14981">
            <rect width="40" height="35.9999" fill="white"/>
        </clipPath>
    </defs>
</svg>
