<svg width="134" height="26" viewBox="0 0 134 26" fill="none" xmlns="http://www.w3.org/2000/svg">
    <g clip-path="url(#clip0_58_15004)">
        <path d="M44.6924 9.64124C44.2722 8.0554 43.304 7.56779 41.3374 7.56779C39.321 7.56779 38.3783 8.08039 37.9595 9.64124C37.7208 10.5127 37.6966 11.4603 37.671 12.3823L45.0058 12.3561C44.9795 11.4353 44.9264 10.5389 44.6924 9.64124ZM47.4948 13.7913C47.4948 13.9701 47.3113 14.1751 47.129 14.1751H37.6966C37.6966 15.5322 37.985 16.3018 38.5875 16.94C39.321 17.7608 40.5272 18.0414 42.2545 18.0414C43.8802 18.0414 44.9264 17.7095 46.0553 17.4013L46.2106 17.3763C46.3424 17.3763 46.4224 17.4538 46.5004 17.6326L46.7888 18.6821L46.815 18.7853C46.815 18.9391 46.7095 19.0403 46.5259 19.0929C45.504 19.5017 43.7753 19.8605 41.9667 19.8605C36.8333 19.8605 35.1807 17.607 35.1807 12.818C35.1807 8.38794 36.2026 5.75 41.3656 5.75C44.0887 5.75 45.6875 6.54324 46.5784 7.92597C47.3113 9.1043 47.4948 10.6927 47.4948 12.5361V13.7913Z" fill="white"/>
        <path d="M57.8409 12.5867L53.3859 13.3044C52.1811 13.4831 50.9749 13.5857 50.9749 15.506C50.9749 17.9389 52.9933 18.0933 54.5915 18.0933C55.7203 18.0933 56.8714 17.9645 57.8409 17.6576V12.5867ZM57.9976 19.5017C57.2116 19.6811 55.9543 19.8605 54.5397 19.8605C52.1555 19.8605 48.4609 19.7317 48.4609 15.5829C48.4609 12.2023 50.4511 11.9979 52.9146 11.5885L57.8409 10.7939V9.66687C57.8409 8.87427 57.7891 8.25979 56.9238 7.92533C56.4519 7.7472 55.7203 7.66967 54.617 7.66967C52.6524 7.66967 50.87 8.15663 49.8769 8.3873L49.692 8.41293C49.5865 8.41293 49.456 8.36039 49.4298 8.20789L49.1683 6.95267L49.1427 6.87579C49.1427 6.69766 49.3262 6.5945 49.4298 6.56823C50.242 6.28694 52.4951 5.75 54.9586 5.75C56.8458 5.75 58.0507 6.00438 58.8373 6.41573C60.1989 7.15643 60.2513 8.41293 60.2513 9.71877V16.865C60.2513 18.6815 59.8056 19.0922 57.9976 19.5017Z" fill="white"/>
        <path d="M66.5648 19.8605C64.2842 19.8605 62.2403 19.1422 61.8745 19.0147C61.7958 18.9653 61.6641 18.9128 61.6641 18.7334V18.6315L61.9269 17.5045C61.9525 17.3763 62.058 17.2731 62.2147 17.2731L62.3458 17.2994C62.608 17.35 64.4422 17.9901 66.5117 17.9901C68.5543 17.9901 69.7867 17.3763 69.7867 15.8911C69.7867 13.9201 68.2672 13.9707 66.3537 13.6626C64.9922 13.4575 61.7958 13.2025 61.7958 9.79566C61.7958 6.38946 64.8604 5.75 67.1928 5.75C69.4196 5.75 71.1214 6.21005 71.4374 6.28758C71.6458 6.3382 71.7245 6.46699 71.7245 6.5945V6.6464L71.516 7.90098C71.4905 8.05476 71.3587 8.08039 71.2538 8.08039H71.2007C70.8349 8.05476 68.9758 7.61905 67.4806 7.61905C65.7257 7.61905 64.2062 8.08039 64.2062 9.61561C64.2062 11.2809 65.9093 11.4347 67.4806 11.6391C69.7867 11.9466 72.224 12.2298 72.224 15.6597C72.224 18.9891 69.6294 19.8605 66.5648 19.8605Z" fill="white"/>
        <path d="M110.342 9.64124C109.923 8.0554 108.955 7.56779 106.989 7.56779C104.972 7.56779 104.03 8.08039 103.609 9.64124C103.372 10.5127 103.347 11.4603 103.322 12.3823L110.657 12.3561C110.63 11.4353 110.577 10.5389 110.342 9.64124ZM113.146 13.7913C113.146 13.9701 112.963 14.1751 112.78 14.1751H103.347C103.347 15.5322 103.636 16.3018 104.238 16.94C104.972 17.7608 106.177 18.0414 107.905 18.0414C109.532 18.0414 110.577 17.7095 111.705 17.4013L111.861 17.3763C111.993 17.3763 112.073 17.4538 112.151 17.6326L112.438 18.6821L112.464 18.7853C112.464 18.9391 112.36 19.0403 112.177 19.0929C111.155 19.5017 109.426 19.8605 107.617 19.8605C102.482 19.8605 100.832 17.607 100.832 12.818C100.832 8.38794 101.853 5.75 107.014 5.75C109.739 5.75 111.339 6.54324 112.23 7.92597C112.963 9.1043 113.146 10.6927 113.146 12.5361L113.146 13.7913Z" fill="white"/>
        <path d="M119.248 19.8605C116.969 19.8605 114.926 19.1422 114.559 19.0147C114.481 18.9653 114.35 18.9128 114.35 18.7334V18.6315L114.611 17.5045C114.637 17.3763 114.742 17.2731 114.9 17.2731L115.031 17.2994C115.293 17.35 117.126 17.9901 119.198 17.9901C121.24 17.9901 122.472 17.3763 122.472 15.8911C122.472 13.9201 120.952 13.9707 119.04 13.6626C117.678 13.4575 114.481 13.2025 114.481 9.79566C114.481 6.38946 117.545 5.75 119.878 5.75C122.105 5.75 123.809 6.21005 124.122 6.28758C124.333 6.3382 124.411 6.46699 124.411 6.5945V6.6464L124.202 7.90098C124.175 8.05476 124.043 8.08039 123.94 8.08039H123.886C123.52 8.05476 121.661 7.61905 120.166 7.61905C118.411 7.61905 116.89 8.08039 116.89 9.61561C116.89 11.2809 118.594 11.4347 120.166 11.6391C122.472 11.9466 124.908 12.2298 124.908 15.6597C124.908 18.9891 122.315 19.8605 119.248 19.8605Z" fill="white"/>
        <path d="M134 19.0405C134 19.1949 133.894 19.2968 133.765 19.3481C133.24 19.5275 132.087 19.835 130.54 19.835C127.87 19.835 126.559 18.7336 126.559 16.1712V2.31772C126.559 2.06206 126.69 1.98518 126.926 1.93263L128.629 1.54883H128.707C128.917 1.54883 128.996 1.70388 128.996 1.90764V6.08209H133.24C133.45 6.08209 133.606 6.23587 133.606 6.46718V7.56734C133.606 7.77302 133.45 7.92551 133.214 7.92551H128.996V16.302C128.996 17.6328 129.703 17.9897 131.065 17.9897C131.878 17.9897 132.847 17.7853 133.371 17.6834L133.45 17.6578C133.581 17.6578 133.711 17.7603 133.738 17.9141L134 18.9899L134 19.0405Z" fill="white"/>
        <path d="M100.335 6.08203H98.5517C98.2652 6.08203 98.161 6.23581 98.1079 6.44149L95.6457 17.8628H94.9639L92.5267 7.02969C92.4755 6.77403 92.2658 6.62026 92.0042 6.62026H89.1218C88.859 6.62026 88.6505 6.77404 88.5974 7.02969L86.1346 17.8628H85.4266C85.4266 17.8628 83.4928 8.86927 83.2784 7.92801C83.1178 7.22384 82.8314 6.08459 80.1706 6.08459H78.4609C79.9818 6.24798 80.5567 7.154 81.0424 9.04291L83.5669 19.1173C83.6187 19.3743 83.8291 19.528 84.0926 19.528H87.4443C87.7059 19.528 87.917 19.3743 87.9943 19.1173L90.5089 8.41306H90.562L92.9724 19.1173C93.0249 19.3743 93.2602 19.528 93.5231 19.528H96.9023C97.1645 19.528 97.3743 19.3743 97.4268 19.1173L100.676 6.51774V6.44149C100.676 6.23581 100.545 6.08203 100.335 6.08203Z" fill="white"/>
        <path d="M81.0524 17.9141C81.0255 17.7596 80.8944 17.6571 80.7646 17.6571L80.6852 17.6834C80.1621 17.7853 79.192 17.9903 78.3797 17.9903C77.0182 17.9903 76.3102 17.6328 76.3102 16.3007V7.92615H76.3136V7.93H79.2097C78.9619 7.93 79.6804 7.93641 80.0586 8.08057C80.4356 8.22282 80.8099 8.50347 81.0439 9.05066C80.5581 7.15662 79.9839 6.24869 78.4611 6.08402L76.3103 6.08209V1.907C76.3103 1.70389 76.2316 1.54883 76.0225 1.54883H75.9439L74.2408 1.93327C74.0042 1.98453 73.873 2.06207 73.873 2.31772V16.1719C73.873 18.7329 75.1834 19.8357 77.8567 19.8357C79.4005 19.8357 80.5555 19.5281 81.0793 19.3481C81.2097 19.2968 81.3133 19.1943 81.3133 19.0405V18.9892L81.0524 17.9141Z" fill="white"/>
        <path d="M16.5552 10.2707L22.0428 14.2328C26.2159 17.2467 24.1344 18.8342 24.1242 18.842L25.2124 18.046C26.6403 17.0014 27.6184 15.9714 28.1134 15.0989C28.5142 14.3907 28.6761 13.7079 28.6761 13.0004C28.6761 11.1743 27.4377 9.58081 25.2124 7.95439L14.3375 0C14.3375 0 11.3797 6.53504 16.5552 10.2707Z" fill="white"/>
        <path d="M3.4637 7.95389C2.03476 8.99876 1.05776 10.0284 0.562739 10.9009C0.160421 11.6095 0 12.2919 0 12.9998C0 14.8255 1.23846 16.4187 3.4637 18.0455L14.3375 25.9995C14.3375 25.9995 17.2964 19.4648 12.1213 15.7288L6.63371 11.7667C2.45012 8.74639 4.55187 7.1582 4.55187 7.1582L3.4637 7.95389Z" fill="white"/>
        <path d="M4.469 7.21994C4.28504 7.40506 4.01562 7.78768 4.01562 8.33525C4.01562 9.11501 4.5407 10.2668 6.6287 11.7743C7.26857 12.2365 7.83384 12.645 8.3332 13.0053C10.2249 11.6401 7.52459 13.5904 12.1217 10.2707C13.1596 9.52135 13.8704 8.65841 14.343 7.75866C13.7154 6.5669 13.5058 5.31036 13.5058 4.16143C13.5058 1.95878 14.2832 0.146537 14.3379 0L4.469 7.21994Z" fill="white"/>
        <path d="M16.555 15.7288C15.5161 16.4785 14.8056 17.3404 14.333 18.2408C14.9598 19.4329 15.1702 20.6898 15.1702 21.8377C15.1702 24.0064 14.421 25.797 14.3363 25.9966L14.3374 25.9995L24.2175 18.7731C24.3743 18.6054 24.6608 18.2107 24.6608 17.6638C24.6608 16.8848 24.1346 15.733 22.0481 14.2248C21.4078 13.7622 20.8422 13.3548 20.3421 12.9941C18.4507 14.3597 21.1521 12.4094 16.555 15.7288Z" fill="white"/>
    </g>
    <defs>
        <clipPath id="clip0_58_15004">
            <rect width="134" height="26" fill="white"/>
        </clipPath>
    </defs>
</svg>
