<svg width="27" height="40" viewBox="0 0 27 40" fill="none" xmlns="http://www.w3.org/2000/svg">
    <path d="M2.31078 39.5912C1.50034 39.7629 0.70417 39.2451 0.532483 38.4346C0.360796 37.6242 0.878609 36.828 1.68905 36.6563L2.31078 39.5912ZM12.6442 11.0107C15.7398 14.6637 17.1761 20.9025 15.9015 26.6207C14.5978 32.4691 10.4361 37.8699 2.31078 39.5912L1.68905 36.6563C8.56381 35.1999 11.902 30.7742 12.9733 25.968C14.0737 21.0315 12.7599 15.7876 10.3555 12.9502L12.6442 11.0107Z" fill="#FBC400"/>
    <path d="M9.95392 6.62514C9.36855 8.80833 9.92861 10.2525 10.5608 11.1578C10.8907 11.6302 11.2572 11.977 11.5394 12.2036C11.5845 12.2399 11.6271 12.2728 11.6666 12.3023C11.7156 12.2965 11.769 12.2892 11.8262 12.2804C12.184 12.225 12.675 12.1076 13.197 11.8631C14.1976 11.3947 15.4053 10.4235 15.9907 8.24027C16.5761 6.05708 16.016 4.61292 15.3838 3.70758C15.0539 3.2352 14.6874 2.88842 14.4052 2.66177C14.3601 2.62552 14.3175 2.59265 14.278 2.5631C14.229 2.56896 14.1756 2.57616 14.1184 2.58502C13.7606 2.64044 13.2697 2.75783 12.7476 3.00227C11.747 3.47075 10.5393 4.44195 9.95392 6.62514Z" stroke="#FBC400" stroke-width="2.75"/>
    <path d="M17.0138 17.5433C15.4129 19.1424 15.1749 20.6733 15.269 21.7729C15.3182 22.3466 15.4619 22.8297 15.5927 23.1668C15.6135 23.2203 15.6338 23.2698 15.6531 23.3148C15.6982 23.3341 15.7477 23.3543 15.8013 23.3751C16.1388 23.5057 16.6226 23.6491 17.1971 23.6981C18.2981 23.7919 19.8309 23.5538 21.4318 21.9547C23.0326 20.3555 23.2707 18.8247 23.1765 17.7251C23.1274 17.1514 22.9837 16.6682 22.8529 16.3312C22.8321 16.2776 22.8118 16.2282 22.7925 16.1832C22.7473 16.1639 22.6979 16.1436 22.6442 16.1229C22.3067 15.9923 21.8229 15.8489 21.2485 15.7999C20.1475 15.7061 18.6147 15.9442 17.0138 17.5433Z" stroke="#FBC400" stroke-width="2.75"/>
    <path d="M14.7488 30.9675C12.5607 31.5534 11.5877 32.7608 11.1188 33.76C10.8741 34.2813 10.7566 34.7713 10.7011 35.1284C10.6924 35.1847 10.6853 35.2373 10.6794 35.2857C10.7087 35.3247 10.7412 35.3667 10.777 35.4111C11.0038 35.6926 11.3509 36.0582 11.8238 36.3874C12.7302 37.0182 14.1774 37.5777 16.3655 36.9918C18.5536 36.4059 19.5265 35.1984 19.9955 34.1993C20.2402 33.6779 20.3577 33.1879 20.4131 32.8308C20.4219 32.7745 20.429 32.7219 20.4348 32.6735C20.4056 32.6345 20.3731 32.5926 20.3373 32.5481C20.1105 32.2666 19.7634 31.901 19.2904 31.5718C18.3841 30.941 16.9369 30.3816 14.7488 30.9675Z" stroke="#FBC400" stroke-width="2.75"/>
</svg>
