<svg width="43" height="36" viewBox="0 0 43 36" fill="none" xmlns="http://www.w3.org/2000/svg">
    <g clip-path="url(#clip0_58_15053)">
        <path d="M42.4255 33.4453H0.0820312V36.0002H42.4255V33.4453Z" fill="white"/>
        <path d="M21.2673 7.0776C25.7728 4.94564 30.5767 3.53433 35.5082 2.89389C31.7502 1.12448 26.7452 0 21.2428 0C15.7405 0 10.7517 1.10382 6.97754 2.89389C11.9169 3.53385 16.7289 4.94513 21.2428 7.0776" fill="white"/>
        <path d="M21.2428 9.23651C15.8742 6.57252 10.0495 4.98357 4.08776 4.55664C2.87206 5.38351 1.83482 6.45248 1.03906 7.69855C8.09366 7.73808 15.031 9.53233 21.2428 12.9241C27.4641 9.53406 34.4089 7.74009 41.471 7.69855C40.6785 6.44845 39.6391 5.37861 38.4182 4.55664C32.4502 4.98463 26.619 6.57346 21.2428 9.23651Z" fill="white"/>
        <path d="M22.2257 17.6329C22.2416 16.6539 22.5406 15.701 23.0854 14.8927C23.6303 14.0843 24.397 13.4559 25.2906 13.0854C30.497 10.7884 36.116 9.61025 41.7935 9.62514H42.2622C42.3596 10.0495 42.4101 10.4835 42.4131 10.9191V21.0932H22.2012L22.2257 17.6329Z" fill="white"/>
        <path d="M20.289 17.6329C20.2719 16.6541 19.9726 15.7018 19.4279 14.8936C18.8832 14.0854 18.117 13.4568 17.224 13.0854C12.0175 10.7888 6.39856 9.61059 0.721064 9.62513H0.244206C0.151597 10.0501 0.103788 10.4839 0.101562 10.9191V21.0932H20.3216L20.289 17.6329Z" fill="white"/>
        <path d="M15.6307 24.1181C15.6307 23.25 17.2243 23.7047 17.2243 23.3285C17.2243 23.2128 17.1428 23.1797 16.939 23.1797C16.1972 23.1797 15.1213 23.1797 13.7314 23.1797H11.9625L8.94229 28.2605L5.89768 23.1797H4.09617C2.71448 23.1797 1.63031 23.1797 0.888523 23.1797C0.684731 23.1797 0.60729 23.2128 0.60729 23.3285C0.60729 23.7419 2.20092 23.25 2.20092 24.1181V29.5545C2.20092 31.5637 0 31.0221 0 31.4397C0 31.5554 0.130407 31.6051 0.362727 31.6051C1.11675 31.6051 1.81779 31.5802 2.50252 31.5802C3.18726 31.5802 3.88015 31.6051 4.6464 31.6051C4.87057 31.6051 5.00915 31.5554 5.00915 31.4397C5.00915 31.0262 2.80415 31.5637 2.80415 29.5545V24.5109H2.8449L7.10817 31.4893C7.13452 31.5441 7.17486 31.5907 7.22509 31.6241C7.27533 31.6575 7.33348 31.6767 7.39347 31.6794C7.52391 31.6794 7.56466 31.6051 7.63803 31.4893L11.7872 24.4406H11.8239V30.6666C11.8239 31.5265 10.2384 31.08 10.2384 31.4562C10.2384 31.5637 10.3077 31.6051 10.5196 31.6051C11.2573 31.6051 12.3375 31.5802 13.7191 31.5802C15.1008 31.5802 16.1646 31.6051 16.9268 31.6051C17.1306 31.6051 17.2121 31.5637 17.2121 31.4562C17.2121 31.0428 15.6184 31.5265 15.6184 30.6666L15.6307 24.1181Z" fill="white"/>
        <path d="M29.4234 28.6742C29.4234 28.5626 29.3705 28.4882 29.2156 28.4882C28.8569 28.4882 29.0119 28.9016 28.3394 29.6002C27.2848 30.7212 25.8497 31.3936 24.3247 31.4813C22.4498 31.4813 21.3901 30.518 21.3901 27.3885C21.3901 25.1767 22.1278 23.304 24.3247 23.304C25.7715 23.304 27.0799 24.1308 27.9928 25.0899C29.073 26.2392 28.8651 26.6278 29.2156 26.6278C29.3949 26.6278 29.395 26.5328 29.395 26.4005V23.4487C29.395 23.2503 29.2564 23.2006 29.1218 23.2006C28.6898 23.2006 28.9915 23.7711 28.3271 23.7711C27.4182 23.7711 26.2036 22.998 24.0801 22.998C20.4811 22.998 17.2246 24.7096 17.2246 27.3885C17.2246 30.0674 20.1388 31.7748 24.1535 31.7748C26.1914 31.7748 27.6994 31.1175 28.4942 31.1175C29.0241 31.1175 28.8528 31.5805 29.2115 31.5805C29.346 31.5805 29.4194 31.5061 29.4194 31.3407L29.4234 28.6742Z" fill="white"/>
        <path d="M35.3782 23.452H36.4991C37.8644 23.452 38.1294 23.7125 38.1294 25.1057C38.1294 26.7387 37.6403 26.9289 36.2545 26.9289H35.362L35.3782 23.452ZM31.5918 30.6662C31.5918 31.526 29.9982 31.0795 29.9982 31.4557C29.9982 31.5632 30.0756 31.6046 30.2876 31.6046C31.0212 31.6046 32.1013 31.5798 33.483 31.5798C34.8647 31.5798 36.1771 31.6046 37.5588 31.6046C41.0681 31.6046 42.7718 30.7778 42.7718 29.1241C42.7718 27.4705 40.1592 27.1645 37.7096 27.1438V27.0901C40.6482 27.0901 42.1685 26.3459 42.1685 25.1966C42.1685 24.0473 40.9743 23.1875 37.2776 23.1875C36.0548 23.1875 34.8321 23.1875 33.4789 23.1875C32.1258 23.1875 31.0334 23.1875 30.2835 23.1875C30.0715 23.1875 29.9941 23.2205 29.9941 23.3363C29.9941 23.7497 31.5877 23.2578 31.5877 24.1259L31.5918 30.6662ZM36.2342 27.2306C38.1661 27.2306 38.5981 27.7391 38.5981 29.2523C38.5981 31.1622 38.0561 31.2863 36.3279 31.2863C35.5698 31.2863 35.3782 31.1456 35.3782 30.8398V27.2141L36.2342 27.2306Z" fill="white"/>
    </g>
    <defs>
        <clipPath id="clip0_58_15053">
            <rect width="43" height="36" fill="white"/>
        </clipPath>
    </defs>
</svg>
