<svg width="139" height="26" viewBox="0 0 139 26" fill="none" xmlns="http://www.w3.org/2000/svg">
    <path d="M12.3614 0.070782C12.864 -0.169962 13.3375 0.261084 13.7502 0.502974C17.3655 2.98722 21.0517 5.36256 24.6659 7.8468C25.6386 8.52662 25.57 10.1671 24.5647 10.7839C20.7717 13.3381 16.9517 15.8521 13.1654 18.4166C12.8989 18.5989 12.5256 18.6092 12.2534 18.4349C8.60323 15.9965 4.94741 13.5662 1.29384 11.1335C0.721463 10.7644 0.0355061 10.3047 0.0253855 9.53201C-0.1253 8.71921 0.416718 7.97176 1.07231 7.57625C4.8462 5.09086 8.55375 2.50115 12.3614 0.070782ZM16.557 5.02208C17.1597 6.01486 17.8018 6.98242 18.3731 7.99584C19.05 8.04054 19.7281 8.03596 20.4051 8.00157C19.1051 7.03171 17.7602 6.11803 16.557 5.02208ZM4.94966 8.00271C5.61313 8.0245 6.27884 8.05889 6.94119 7.99927C7.56754 7.05464 8.13993 6.07447 8.78428 5.14245C7.51132 6.10313 6.25298 7.0856 4.94966 8.00271ZM9.63779 8.02106C10.2484 8.0245 10.859 8.02335 11.4696 8.0222C11.4663 7.07872 11.4651 6.13523 11.4618 5.19174C10.9107 6.17191 10.2709 7.09477 9.63779 8.02106ZM13.9346 5.28002C13.92 6.1937 13.9211 7.10852 13.9346 8.0222C14.5205 8.02335 15.1063 8.02335 15.6922 8.0222C15.1086 7.10623 14.5205 6.1937 13.9346 5.28002ZM4.95303 10.5133C6.24511 11.4866 7.52931 12.4702 8.82138 13.4435C8.1433 12.5012 7.54505 11.5027 6.93219 10.5168C6.2721 10.5122 5.612 10.5168 4.95303 10.5133ZM9.63329 10.5145C10.2608 11.4637 10.8961 12.4083 11.4775 13.3885C11.4663 12.4313 11.4685 11.4729 11.4764 10.5156C10.8613 10.5145 10.2473 10.5156 9.63329 10.5145ZM13.9413 10.5076C13.92 11.4396 13.9222 12.3716 13.9278 13.3037C14.5137 12.3659 15.1153 11.4385 15.7226 10.5156C15.1288 10.5191 14.5351 10.503 13.9413 10.5076ZM18.5159 10.5122C17.8086 11.4786 17.2036 12.5149 16.5783 13.5375C17.7861 12.4152 19.1557 11.4992 20.468 10.5122C19.8169 10.5156 19.167 10.5168 18.5159 10.5122Z" fill="white"/>
    <path d="M30.637 8.55936C31.7615 8.55936 32.8861 8.54675 34.0094 8.54904C35.45 12.636 36.9062 16.7206 38.1544 20.874C38.5233 19.1463 39.1755 17.5001 39.7557 15.839C40.6216 13.4052 41.5055 10.9783 42.3894 8.55133C43.4981 8.55821 44.608 8.55936 45.718 8.54102C46.0396 12.9615 46.2712 17.3866 46.5568 21.8083C46.6592 23.1117 46.7176 24.4163 46.7593 25.7232C45.7933 25.7244 44.8273 25.7221 43.8614 25.7232C43.7523 23.0361 43.5937 20.3501 43.4532 17.6641C43.3947 16.2941 43.4082 14.915 43.2001 13.5565C42.8898 14.9081 42.413 16.2116 41.9531 17.5162C40.9848 20.224 40.0133 22.9306 39.0484 25.6396C38.331 25.6258 37.6124 25.6109 36.895 25.6567C35.7806 22.5741 34.7797 19.449 33.7351 16.34C33.4528 15.5272 33.2493 14.6892 33.0547 13.8511C32.7657 17.8028 32.5959 21.7624 32.3328 25.7152C31.3826 25.7175 30.4335 25.7164 29.4844 25.698C29.8903 19.9867 30.2749 14.2742 30.637 8.55936Z" fill="white"/>
    <path d="M90.6131 8.55078C91.579 8.55078 92.5461 8.55078 93.5132 8.55078C93.5132 10.5558 93.52 12.5609 93.5143 14.5659C95.3147 12.7661 98.4993 12.7409 100.321 14.5212C101.668 15.8637 102.191 17.863 102.108 19.7408C102.087 21.6977 101.36 23.775 99.7532 24.9489C97.8426 26.4461 94.8413 26.3521 93.1545 24.5396C93.1432 24.934 93.132 25.3295 93.1196 25.725C92.2369 25.7261 91.3553 25.7066 90.4736 25.7078C90.6254 24.4914 90.6198 23.2637 90.6198 22.0393C90.6277 17.5431 90.6187 13.047 90.6131 8.55078ZM95.5767 15.7995C94.6355 16.1136 93.8854 16.9332 93.6223 17.9031C93.4154 18.8454 93.5267 19.8222 93.5121 20.7794C93.4896 22.2216 94.8008 23.501 96.2076 23.454C97.3096 23.5537 98.3239 22.781 98.7715 21.7917C99.4653 20.0927 99.3967 17.9169 98.1721 16.485C97.5098 15.8086 96.4786 15.5014 95.5767 15.7995Z" fill="white"/>
    <path d="M128.319 8.56915C129.288 8.56457 130.255 8.54393 131.224 8.5531C131.21 11.6576 131.158 14.7643 131.266 17.8676C132.5 16.3681 133.718 14.8526 135.035 13.4253C136.204 13.4964 137.376 13.4276 138.547 13.4425C136.97 15.1793 135.385 16.9069 133.781 18.6173C135.525 20.9778 137.269 23.3382 139 25.709C137.809 25.7147 136.619 25.7055 135.43 25.7044C134.365 24.0891 133.206 22.5403 132.133 20.9319C132.039 20.7726 131.893 20.6625 131.74 20.5708C131.501 20.8574 131.18 21.1543 131.21 21.5659C131.204 22.9473 131.205 24.3275 131.212 25.709C130.252 25.7101 129.293 25.7101 128.334 25.709C128.336 19.9953 128.354 14.2817 128.319 8.56915Z" fill="white"/>
    <path d="M61.8654 11.5086C62.8055 11.1727 63.7535 10.8597 64.715 10.5938C64.7082 11.5361 64.7082 12.4784 64.7048 13.4208C65.5696 13.4586 66.4355 13.4196 67.3014 13.4552C67.4543 13.4345 67.5634 13.5515 67.6781 13.6351C67.677 14.3849 67.6893 15.1335 67.6837 15.8832C66.6896 15.8924 65.6956 15.8936 64.7015 15.8913C64.7049 17.4779 64.706 19.0645 64.7082 20.6511C64.7228 21.3355 64.6655 22.036 64.8555 22.702C64.9365 22.9577 65.0838 23.2408 65.3571 23.3199C66.0262 23.5389 66.7312 23.3371 67.3756 23.1273C67.4948 23.947 67.5161 24.7758 67.5465 25.6024C66.4344 25.9566 65.2131 26.1676 64.0762 25.8053C63.3667 25.5772 62.7178 25.0945 62.3838 24.4044C62.0105 23.6329 61.9014 22.7616 61.8778 21.911C61.8756 19.9048 61.8789 17.8975 61.8767 15.8913C61.3009 15.8924 60.724 15.8913 60.1494 15.8924C60.1562 15.075 60.1652 14.2576 60.1607 13.4403C60.7319 13.4368 61.302 13.4403 61.8733 13.438C61.8711 12.7948 61.8632 12.1517 61.8654 11.5086Z" fill="white"/>
    <path d="M0.0492778 12.8561C0.0875115 12.2932 0.791461 11.9 1.27051 12.1981C2.34442 12.7885 3.30814 13.5566 4.33483 14.2249C7.11689 16.0786 9.83036 18.0378 12.6608 19.8148C13.1915 19.5534 13.692 19.2335 14.1811 18.8999C17.3275 16.7539 20.4706 14.6021 23.6237 12.4675C23.9982 12.2073 24.4469 12.0502 24.9034 12.1213C25.0564 12.3391 25.2138 12.5523 25.3735 12.7644C25.3735 16.5028 25.3521 20.2412 25.3724 23.9785C25.3544 24.8784 24.5863 25.7439 23.6754 25.7141C16.3683 25.7176 9.06006 25.721 1.75293 25.713C1.1142 25.776 0.568806 25.3232 0.242695 24.8073C0.0200402 24.4588 0.0616475 24.0289 0.0571494 23.6334C0.0537758 20.0417 0.0470287 16.4489 0.0492778 12.8561ZM14.6006 21.8404C14.1553 22.1018 13.7291 22.4366 13.2084 22.5214C12.4696 22.6521 11.7049 22.4343 11.0763 22.033C8.63162 20.4762 6.18579 18.9194 3.73321 17.3752C3.49706 17.2296 3.24741 17.0382 2.95279 17.1184C2.91343 19.0054 2.94492 20.8935 2.92805 22.7805C3.27553 22.8734 3.632 22.9387 3.99185 22.9284C10.1227 22.9204 16.2525 22.9444 22.3823 22.8963C22.5476 21.8519 22.4902 20.7903 22.497 19.7368C22.4925 18.8243 22.5543 17.9014 22.3744 17.0003C19.7194 18.5056 17.2083 20.255 14.6006 21.8404Z" fill="white"/>
    <path d="M49.8408 15.2593C51.5557 12.9791 55.1474 12.4472 57.3605 14.2711C59.0405 15.7706 59.4273 18.2617 59.0933 20.4135C56.4968 20.4135 53.9003 20.4123 51.3049 20.4135C51.4252 21.5908 52.0932 22.8014 53.2278 23.221C54.8314 23.7105 56.5677 23.4148 58.0914 22.7797C58.2736 23.5661 58.5165 24.341 58.6076 25.147C56.6689 25.9047 54.5075 26.2177 52.4699 25.7144C50.6842 25.2467 49.2212 23.761 48.7433 21.9474C48.1686 19.7039 48.4408 17.1405 49.8408 15.2593ZM51.929 16.6774C51.6828 17.0992 51.5186 17.5647 51.3386 18.0198C53.0254 18.0313 54.7111 18.0301 56.3979 18.0198C56.2933 17.575 56.2022 17.121 56.0009 16.7083C55.6681 16.0033 54.9135 15.555 54.1556 15.5344C53.2886 15.4817 52.3822 15.9081 51.929 16.6774Z" fill="white"/>
    <path d="M72.4633 14.7099C73.3506 13.5566 74.8979 12.9009 76.3115 13.3251C76.2991 14.2468 76.3036 15.1673 76.316 16.089C75.6907 16.0764 75.0486 15.9698 74.4369 16.1452C73.6936 16.433 73.1628 17.1357 72.9345 17.8958C72.767 18.4139 72.785 18.9665 72.7872 19.5042C72.7872 21.5746 72.785 23.645 72.7861 25.7153C71.8122 25.7165 70.8395 25.7153 69.8657 25.7153C69.8365 21.6239 70.0051 17.5301 69.8027 13.4409C70.6765 13.4431 71.5491 13.4397 72.4229 13.4431C72.4352 13.865 72.4499 14.2869 72.4633 14.7099Z" fill="white"/>
    <path d="M81.9886 13.2946C83.5382 13.0229 85.2025 13.3416 86.4912 14.2794C87.8046 15.1873 88.5963 16.7327 88.8077 18.3135C88.9831 19.8807 88.8471 21.5361 88.1026 22.945C87.3301 24.4101 85.8986 25.4694 84.3119 25.827C82.5014 26.2489 80.4773 25.8534 79.0559 24.6027C77.7109 23.3967 77.052 21.5338 77.0846 19.7328C77.0497 18.0017 77.5906 16.1984 78.8074 14.9534C79.6462 14.0592 80.7899 13.4757 81.9886 13.2946ZM82.3226 15.6952C81.6321 15.874 81.0305 16.3463 80.6606 16.9631C80.0072 18.0246 79.87 19.3441 80.0511 20.5639C80.2198 21.8192 80.9822 23.0631 82.2012 23.4792C83.2346 23.8071 84.421 23.3474 85.0428 22.4601C86.264 20.7749 86.2371 18.2562 85.0147 16.5825C84.3704 15.8109 83.2897 15.4384 82.3226 15.6952Z" fill="white"/>
    <path d="M104.257 14.3939C105.895 13.447 107.839 12.9563 109.711 13.3106C110.817 13.4825 111.873 14.1027 112.463 15.0886C113.139 16.2419 113.231 17.6268 113.2 18.9394C113.222 21.1989 113.083 23.4745 113.434 25.7158C112.531 25.7112 111.628 25.7295 110.725 25.7238C110.701 25.3971 110.68 25.0715 110.659 24.7448C109.664 25.6252 108.33 26.1285 107.008 25.9714C105.862 25.8912 104.725 25.2973 104.124 24.2793C103.098 22.6491 103.507 20.26 105.037 19.1022C106.522 17.8526 108.54 17.7769 110.367 17.5649C110.233 16.8587 109.961 16.0287 109.231 15.7627C107.788 15.3259 106.201 15.7937 105.029 16.7051C104.762 15.9381 104.512 15.1654 104.257 14.3939ZM106.946 20.8344C106.123 21.5635 106.338 23.2109 107.427 23.5468C108.419 23.7623 109.57 23.337 110.09 22.4233C110.508 21.6735 110.376 20.7748 110.344 19.9528C109.182 19.9711 107.853 19.9734 106.946 20.8344Z" fill="white"/>
    <path d="M118.217 14.5791C119.709 13.0452 122.275 12.7276 124.044 13.9428C125.092 14.6352 125.679 15.8619 125.882 17.0885C126.014 17.7718 125.969 18.4699 125.981 19.1612C125.988 21.3428 125.962 23.5244 126.007 25.706C125.039 25.714 124.072 25.7163 123.103 25.714C123.112 23.7617 123.128 21.8105 123.115 19.8582C123.105 18.7565 123.22 17.5505 122.588 16.5853C122.134 15.8539 121.176 15.6303 120.39 15.8332C119.304 16.1256 118.466 17.2078 118.468 18.3576C118.459 20.8063 118.465 23.2562 118.473 25.706C117.508 25.7163 116.544 25.7163 115.579 25.706C115.583 23.3719 115.593 21.0379 115.589 18.7038C115.577 17.0175 115.639 15.3265 115.459 13.6459C115.514 13.6046 115.623 13.5221 115.678 13.4808C116.479 13.4017 117.286 13.4556 118.09 13.4418C118.132 13.8213 118.176 14.1996 118.217 14.5791Z" fill="white"/>
</svg>
