<svg width="66" height="56" viewBox="0 0 66 56" fill="none" xmlns="http://www.w3.org/2000/svg">
    <g clip-path="url(#clip0_58_15023)">
        <path d="M0.00101787 13.9999C7.89166 9.33373 15.783 4.66918 23.6721 0C31.5576 4.83502 39.4602 9.64131 47.3448 14.477C47.3366 17.6626 47.3425 20.8491 47.3419 24.0346C46.6506 24.0369 45.9602 24.0377 45.269 24.0354C45.2734 21.3149 45.266 18.5951 45.2734 15.8746C38.077 11.4331 30.8686 7.01197 23.6737 2.56903C16.4705 6.77156 9.26359 10.9673 2.06413 15.1758C2.07902 23.654 2.05673 32.1321 2.07527 40.6095C9.2815 44.8723 16.472 49.1615 23.6737 53.4319C30.8679 49.1473 38.0718 44.8791 45.2682 40.5982C45.2727 40.1316 45.269 39.6658 45.2705 39.1991C45.9602 39.1984 46.6506 39.1984 47.3411 39.1991C47.344 40.0509 47.3358 40.9028 47.3448 41.7545C39.4608 46.5164 31.5575 51.2436 23.6715 56.0008C15.7823 51.2557 7.89394 46.5096 0.00174859 41.7704C-0.00117431 32.5135 0.000287142 23.2567 0.00101787 13.9999Z" fill="white"/>
        <path d="M31.0571 25.0947C32.3652 24.5693 33.8234 24.5143 35.199 24.7592C36.5546 24.9952 37.795 25.7211 38.7604 26.7019C38.2559 27.2687 37.7728 27.8545 37.2762 28.428C36.4729 27.6554 35.4933 27.0086 34.3807 26.8344C33.2244 26.625 31.975 26.9009 31.0438 27.638C30.2143 28.2795 29.6451 29.2339 29.4124 30.2598C29.1277 31.5051 29.2772 32.8635 29.888 33.9882C30.3704 34.8784 31.1538 35.6118 32.0961 35.9714C33.0438 36.3371 34.1117 36.3296 35.0742 36.0273C35.9571 35.7438 36.7032 35.1521 37.3684 34.5159C37.8642 35.0248 38.3725 35.5223 38.8475 36.0514C37.9289 37.0276 36.7992 37.8485 35.4889 38.1672C34.2797 38.462 32.991 38.4862 31.781 38.1779C30.2285 37.7821 28.8394 36.7728 27.9691 35.4099C26.4619 33.0956 26.4827 29.8717 28.0107 27.5732C28.7383 26.4523 29.8226 25.5756 31.0571 25.0947Z" fill="white"/>
        <path d="M57.342 25.5062C58.355 24.9219 59.5218 24.622 60.6864 24.6227C61.6437 24.6046 62.6113 24.7379 63.5084 25.0885C64.4091 25.4398 65.2192 26.0097 65.9 26.7002C65.4035 27.2723 64.9138 27.8505 64.4218 28.4271C63.8198 27.8535 63.1346 27.3507 62.3563 27.0553C61.252 26.6414 59.9804 26.6618 58.9146 27.1834C58.0079 27.6184 57.284 28.4038 56.8716 29.3264C56.3075 30.5764 56.2673 32.0545 56.7415 33.3413C57.1257 34.408 57.9069 35.339 58.9243 35.8303C59.828 36.2812 60.8864 36.3482 61.8607 36.1251C62.8967 35.9028 63.7559 35.2288 64.5191 34.5195C65.0111 35.0254 65.5038 35.5311 66.0004 36.0331C65.136 36.9679 64.0755 37.7534 62.8477 38.1069C61.8622 38.3994 60.8187 38.4446 59.8013 38.3451C57.837 38.119 56.0012 36.9408 54.9897 35.2123C53.6862 33.0391 53.6661 30.1481 54.9243 27.9493C55.4944 26.9346 56.3394 26.0805 57.342 25.5062Z" fill="white"/>
        <path d="M16.6445 26.9796C16.6453 28.4684 16.6467 29.9579 16.643 31.4467C17.7994 31.446 18.9559 31.449 20.1123 31.4452C20.7664 31.443 21.4434 31.2772 21.9637 30.8603C22.9105 30.1215 22.9804 28.525 22.148 27.6746C21.6099 27.153 20.8362 26.9931 20.1146 26.9818C18.9581 26.9774 17.801 26.9818 16.6445 26.9796ZM14.3414 24.8516C16.3376 24.8546 18.3339 24.8493 20.3301 24.8546C21.5905 24.8584 22.9164 25.1961 23.8647 26.0788C24.6979 26.8425 25.0925 28.0086 25.0613 29.1317C25.0672 30.1766 24.7046 31.2432 23.9629 31.9849C23.4047 32.5473 22.6831 32.9197 21.9288 33.1269C23.1126 34.802 24.2885 36.483 25.4679 38.1617C24.5954 38.1708 23.7221 38.164 22.8496 38.1662C22.747 38.1911 22.7032 38.0796 22.6489 38.0192C21.6114 36.5199 20.5702 35.0228 19.5289 33.5265C18.5672 33.5318 17.6055 33.5281 16.6438 33.5287C16.646 35.0749 16.646 36.6217 16.643 38.1678C15.876 38.1647 15.1084 38.1655 14.3406 38.1678C14.3398 33.7292 14.3391 29.2901 14.3414 24.8516Z" fill="white"/>
        <path d="M43.0907 32.4348C43.0833 33.6545 43.09 34.875 43.087 36.0954C44.4203 36.0962 45.7536 36.0976 47.0869 36.0946C47.712 36.0697 48.3779 35.9514 48.8751 35.539C49.657 34.9043 49.634 33.4849 48.777 32.9248C48.0412 32.4348 47.1196 32.4364 46.2709 32.4348L43.0907 32.4348ZM43.0878 26.92C43.0855 28.0996 43.09 29.2801 43.0862 30.4599C44.149 30.4591 45.2125 30.4599 46.2754 30.4599C46.6678 30.4643 47.0594 30.4056 47.4362 30.2955C47.9111 30.1447 48.3713 29.8357 48.5666 29.354C48.8171 28.7487 48.7458 27.9594 48.2523 27.4989C47.784 27.0518 47.1121 26.9426 46.4946 26.9191C45.3589 26.9185 44.2233 26.9169 43.0878 26.92ZM40.8105 24.8522C42.8528 24.8544 44.8952 24.8477 46.9375 24.8553C48.0873 24.8794 49.3128 25.1892 50.1467 26.0387C50.739 26.6229 51.0312 27.4732 51.0081 28.3031C51.0156 29.0758 50.7591 29.8644 50.2255 30.4266C49.9244 30.7674 49.5402 31.0123 49.1567 31.2468C49.92 31.5242 50.6944 31.9117 51.1827 32.5931C51.7372 33.3432 51.8301 34.3442 51.6754 35.2435C51.5164 36.1383 50.9472 36.9321 50.1779 37.3912C49.1865 37.9912 48.0077 38.1751 46.8692 38.1653C44.8499 38.1684 42.8313 38.1623 40.8128 38.1691C40.8084 33.7299 40.8134 29.2914 40.8105 24.8522Z" fill="white"/>
    </g>
    <defs>
        <clipPath id="clip0_58_15023">
            <rect width="66" height="56.0008" fill="white"/>
        </clipPath>
    </defs>
</svg>
