<svg width="27" height="40" viewBox="0 0 27 40" fill="none" xmlns="http://www.w3.org/2000/svg">
    <path d="M24.6892 39.5912C25.4997 39.7629 26.2958 39.2451 26.4675 38.4346C26.6392 37.6242 26.1214 36.828 25.311 36.6563L24.6892 39.5912ZM14.3558 11.0107C11.2602 14.6637 9.82393 20.9025 11.0985 26.6207C12.4022 32.4691 16.5639 37.8699 24.6892 39.5912L25.311 36.6563C18.4362 35.1999 15.098 30.7742 14.0267 25.968C12.9263 21.0315 14.2401 15.7876 16.6445 12.9502L14.3558 11.0107Z" fill="white"/>
    <path d="M17.0461 6.62514C17.6315 8.80833 17.0714 10.2525 16.4392 11.1578C16.1093 11.6302 15.7428 11.977 15.4606 12.2036C15.4155 12.2399 15.3729 12.2728 15.3334 12.3023C15.2844 12.2965 15.231 12.2892 15.1738 12.2804C14.816 12.225 14.325 12.1076 13.803 11.8631C12.8024 11.3947 11.5947 10.4235 11.0093 8.24027C10.4239 6.05708 10.984 4.61292 11.6162 3.70758C11.9461 3.2352 12.3126 2.88842 12.5948 2.66177C12.6399 2.62552 12.6825 2.59265 12.722 2.5631C12.771 2.56896 12.8244 2.57616 12.8816 2.58502C13.2394 2.64044 13.7303 2.75783 14.2524 3.00227C15.253 3.47075 16.4607 4.44195 17.0461 6.62514Z" stroke="white" stroke-width="2.75"/>
    <path d="M9.98621 17.5433C11.5871 19.1424 11.8251 20.6733 11.731 21.7729C11.6818 22.3466 11.5381 22.8297 11.4073 23.1668C11.3865 23.2203 11.3662 23.2698 11.3469 23.3148C11.3018 23.3341 11.2523 23.3543 11.1987 23.3751C10.8612 23.5057 10.3774 23.6491 9.8029 23.6981C8.70191 23.7919 7.16911 23.5538 5.56824 21.9547C3.96738 20.3555 3.72931 18.8247 3.82348 17.7251C3.87261 17.1514 4.01631 16.6682 4.14715 16.3312C4.16793 16.2776 4.18822 16.2282 4.20753 16.1832C4.25266 16.1639 4.30215 16.1436 4.35576 16.1229C4.69326 15.9923 5.17708 15.8489 5.75155 15.7999C6.85254 15.7061 8.38534 15.9442 9.98621 17.5433Z" stroke="white" stroke-width="2.75"/>
    <path d="M12.2512 30.9675C14.4393 31.5534 15.4123 32.7608 15.8812 33.76C16.1259 34.2813 16.2434 34.7713 16.2989 35.1284C16.3076 35.1847 16.3147 35.2373 16.3206 35.2857C16.2913 35.3247 16.2588 35.3667 16.223 35.4111C15.9962 35.6926 15.6491 36.0582 15.1762 36.3874C14.2698 37.0182 12.8226 37.5777 10.6345 36.9918C8.44645 36.4059 7.47346 35.1984 7.00447 34.1993C6.75977 33.6779 6.6423 33.1879 6.58686 32.8308C6.57811 32.7745 6.57098 32.7219 6.56516 32.6735C6.59442 32.6345 6.62693 32.5926 6.66272 32.5481C6.88952 32.2666 7.23662 31.901 7.70955 31.5718C8.61594 30.941 10.0631 30.3816 12.2512 30.9675Z" stroke="white" stroke-width="2.75"/>
</svg>
