<svg width="138" height="22" viewBox="0 0 138 22" fill="none" xmlns="http://www.w3.org/2000/svg">
    <path d="M7.61473 0.198456C10.1385 -0.355167 12.8919 0.264016 14.9254 1.87462C13.6516 3.40291 12.4218 4.96835 11.143 6.49227C10.1154 7.68329 9.17377 8.94642 8.14476 10.1367C7.81692 10.533 7.51941 10.9533 7.17136 11.3328C6.37776 12.3293 5.55672 13.3033 4.76528 14.3013C4.43744 14.6866 4.14138 15.0982 3.79693 15.4697C2.38664 14.2561 1.41685 12.553 0.998024 10.7384C0.59292 8.89688 0.746008 6.91841 1.5165 5.19198C2.00393 4.0658 2.74481 3.06127 3.63518 2.22719C4.77034 1.23795 6.14162 0.509504 7.61473 0.198456Z" fill="white"/>
    <path d="M20.4087 4.88391C21.286 4.16275 22.4869 4.01779 23.5758 4.17805C24.5485 4.32009 25.4699 4.8016 26.1437 5.52422C25.5941 6.17983 25.0583 6.84855 24.5117 7.50634C23.9607 7.13483 23.3736 6.75385 22.7064 6.65405C21.933 6.64677 21.4211 7.60395 21.7142 8.28724C21.9222 8.79861 22.3952 9.13005 22.8602 9.38355C23.7109 9.80751 24.6041 10.1907 25.3241 10.8288C26.1018 11.6068 26.5293 12.7257 26.4527 13.83C26.3726 16.0037 24.386 17.945 22.2132 17.8613C20.7488 17.8736 19.4959 16.9296 18.5254 15.9097C19.111 15.1718 19.6786 14.4186 20.2577 13.6756C20.6296 14.1345 21.086 14.5322 21.6074 14.8083C22.0262 15.0065 22.5663 15.1048 22.9693 14.8178C23.3347 14.5461 23.6647 14.1644 23.7188 13.6931C23.765 13.2677 23.521 12.8721 23.2162 12.6011C22.2731 11.7292 20.8686 11.6279 19.9487 10.7217C19.2612 9.95175 18.937 8.88384 18.9962 7.85527C19.0251 6.72544 19.5089 5.5825 20.4087 4.88391Z" fill="white"/>
    <path d="M38.8504 4.98066C39.6484 4.44671 40.6008 4.15169 41.5583 4.13785C42.8011 4.09632 44.0215 4.47876 45.1249 5.03238C45.1119 6.12287 45.1147 7.21409 45.1241 8.30531C44.2381 7.71163 43.2697 7.1835 42.2046 7.02688C41.3258 6.89285 40.3676 7.12595 39.7263 7.76772C38.8576 8.58941 38.5637 9.83433 38.5385 10.9955C38.5204 12.118 38.8028 13.3149 39.613 14.1285C40.2398 14.7871 41.1698 15.0799 42.0602 15.0318C43.1687 14.9437 44.1926 14.4228 45.1082 13.8146C45.1342 14.9007 45.1075 15.9876 45.1191 17.0737C43.8084 17.5472 42.4249 17.9675 41.0175 17.8233C39.943 17.7154 38.9205 17.2288 38.1261 16.4967C37.0343 15.5009 36.2768 14.138 36.0046 12.6775C35.7215 11.1747 35.8183 9.58593 36.3606 8.15088C36.8603 6.88119 37.7174 5.74044 38.8504 4.98066Z" fill="white"/>
    <path d="M46.6113 4.28233C47.4584 4.28816 48.3061 4.28379 49.1532 4.28525C49.1488 6.98343 49.1517 9.68088 49.1517 12.3783C49.1589 13.0886 49.3517 13.8338 49.863 14.3488C50.6833 15.1552 52.2005 15.0204 52.8821 14.0953C53.2692 13.5883 53.3797 12.9298 53.3999 12.3048C53.4021 9.63208 53.397 6.95866 53.4021 4.28597C54.1747 4.28379 54.9474 4.28743 55.72 4.28306C55.8016 4.28015 55.9663 4.26631 55.9403 4.40107C55.9092 6.57404 55.936 8.74774 55.9273 10.9207C55.9165 11.7315 55.9511 12.5437 55.9056 13.3537C55.746 14.5943 55.2868 15.8844 54.3004 16.6995C53.4526 17.401 52.3341 17.7426 51.2437 17.7033C50.0789 17.7142 48.8333 17.3872 48.0129 16.5072C47.1702 15.558 46.6236 14.3153 46.6128 13.0303C46.6121 10.1143 46.6149 7.19832 46.6113 4.28233Z" fill="white"/>
    <path d="M27.7815 4.39549C30.0482 4.39622 32.3156 4.40132 34.583 4.39258C34.5794 5.26818 34.5823 6.14377 34.5816 7.01937C33.1865 7.00189 31.7906 7.02811 30.3955 7.00626C30.3977 7.89351 30.3933 8.78077 30.3977 9.66802C31.7942 9.66875 33.1908 9.67312 34.5874 9.66583C34.5758 10.5283 34.5809 11.3908 34.5845 12.2533C33.1879 12.2394 31.7913 12.2555 30.3948 12.2453C30.3991 13.1566 30.3926 14.0686 30.3991 14.9799C31.7928 14.9631 33.1872 14.9821 34.5816 14.9704C34.583 15.8453 34.5773 16.7202 34.5845 17.595C32.3163 17.5834 30.0474 17.5957 27.7793 17.5885C27.788 13.1908 27.7822 8.79315 27.7815 4.39549Z" fill="white"/>
    <path d="M87.7974 4.41112C88.7505 4.41986 89.7044 4.42496 90.6576 4.4082C89.4004 6.73852 88.1339 9.06446 86.8875 11.4006C86.8276 11.8908 86.8781 12.3942 86.8608 12.8896C86.8658 14.4514 86.8514 16.0132 86.868 17.575C86.0166 17.5793 85.166 17.5757 84.3146 17.575C84.3276 15.6008 84.3146 13.626 84.3218 11.6512C84.3478 11.4261 84.2121 11.2403 84.111 11.0546C82.9195 8.83864 81.7186 6.62925 80.5293 4.41257C81.4774 4.42787 82.4263 4.40456 83.3744 4.42204C84.1355 5.75074 84.8259 7.12532 85.5675 8.46713C86.325 7.12314 87.0305 5.74928 87.7974 4.41112Z" fill="white"/>
    <path d="M107.949 4.36036C108.614 4.36691 109.281 4.33705 109.945 4.37565C111.584 8.78424 113.184 13.2118 114.805 17.6291C113.938 17.6269 113.072 17.6356 112.206 17.6269C111.887 16.7549 111.567 15.883 111.25 15.0096C109.735 15.011 108.22 15.003 106.705 15.0132C106.394 15.8859 106.077 16.7557 105.772 17.6298C104.91 17.6233 104.048 17.6422 103.188 17.6218C104.767 13.1986 106.375 8.78497 107.949 4.36036ZM107.569 12.5889C108.502 12.5933 109.436 12.5875 110.37 12.5933C109.888 11.3061 109.424 10.0131 108.946 8.7245C108.507 10.0197 108.034 11.3025 107.569 12.5889Z" fill="white"/>
    <path d="M115.935 4.39062C116.791 4.40519 117.647 4.39718 118.504 4.39572C120.332 7.20973 122.145 10.0347 123.983 12.8421C123.977 10.0274 123.988 7.21264 123.978 4.39718C124.83 4.39645 125.681 4.40155 126.532 4.39427C126.529 8.79411 126.53 13.194 126.532 17.5938C125.684 17.5902 124.837 17.588 123.99 17.596C122.163 14.7601 120.355 11.9141 118.522 9.0833C118.536 11.9192 118.518 14.755 118.531 17.5916C117.664 17.5945 116.797 17.5836 115.932 17.5974C115.94 13.1954 115.932 8.79265 115.935 4.39062Z" fill="white"/>
    <path d="M57.5723 4.4082C58.589 4.42496 59.6057 4.41039 60.6232 4.41549C61.3453 4.42496 62.0855 4.36158 62.7874 4.57793C63.7983 4.84163 64.6591 5.61088 65.0418 6.59064C65.3631 7.45968 65.4079 8.4227 65.2093 9.32525C65.049 9.99105 64.8078 10.6641 64.3493 11.1835C64.0178 11.574 63.5802 11.8464 63.1376 12.0897C64.202 13.9393 65.3436 15.7444 66.4304 17.5815C65.4411 17.5669 64.4518 17.5786 63.4632 17.5742C62.4646 15.8696 61.4233 14.1898 60.4181 12.4882C60.3228 12.486 60.2289 12.4838 60.135 12.4816C60.1285 14.1804 60.1321 15.8784 60.1329 17.5771C59.2793 17.5757 58.4251 17.5677 57.5723 17.5815C57.5817 13.1904 57.5809 8.7993 57.5723 4.4082ZM60.1459 6.77931C60.1516 7.91424 60.1495 9.04916 60.1466 10.1841C60.7683 10.1965 61.4385 10.2212 61.9901 9.88032C62.4147 9.63411 62.6335 9.14605 62.6826 8.6711C62.7715 8.11383 62.5794 7.49538 62.1143 7.15738C61.5525 6.72832 60.8131 6.76256 60.1459 6.77931Z" fill="white"/>
    <path d="M67.4033 4.41211C68.259 4.41648 69.1154 4.41939 69.9719 4.41284C69.9654 8.8003 69.9618 13.1885 69.9733 17.5767C69.1176 17.5745 68.2619 17.5716 67.4069 17.5789C67.4091 13.1899 67.4163 8.80102 67.4033 4.41211Z" fill="white"/>
    <path d="M71.377 4.41429C74.0777 4.41648 76.7791 4.42012 79.4798 4.41211C79.4819 5.34817 79.4805 6.2835 79.4812 7.21883C78.5591 7.21956 77.6369 7.21737 76.7141 7.22029C76.7227 10.671 76.7076 14.1224 76.722 17.5738C75.854 17.5818 74.9868 17.5665 74.1195 17.584C74.1246 14.1289 74.1268 10.6739 74.1181 7.21956C73.2053 7.21956 72.2926 7.21664 71.3798 7.22029C71.3777 6.28496 71.382 5.34963 71.377 4.41429Z" fill="white"/>
    <path d="M94.8353 4.41992C96.1943 4.44032 97.5547 4.41191 98.9145 4.42939C99.685 4.4935 100.5 4.68508 101.079 5.23579C101.966 6.16748 102.233 7.58941 101.892 8.81539C101.715 9.43968 101.266 9.92628 100.824 10.3765C101.451 10.6263 102.051 11.0029 102.439 11.5719C103.151 12.6449 103.237 14.0588 102.825 15.2615C102.572 15.9681 102.062 16.5741 101.421 16.9544C100.639 17.4111 99.7203 17.5859 98.8242 17.5728C97.4897 17.5677 96.156 17.5823 94.8223 17.5655C94.8576 17.3922 94.8764 17.2166 94.8829 17.0403C94.8699 13.1067 94.8836 9.17306 94.8743 5.23943C94.8771 4.96626 94.8959 4.68945 94.8353 4.41992ZM97.3208 6.63223C97.3186 7.58868 97.3237 8.54514 97.3193 9.50232C97.8205 9.50378 98.3743 9.5453 98.7989 9.22187C99.2474 8.90135 99.5001 8.3317 99.4517 7.78172C99.381 7.18512 98.8358 6.75024 98.2754 6.6519C97.9584 6.6111 97.6385 6.63951 97.3208 6.63223ZM97.3208 11.7438C97.3222 12.9472 97.3215 14.1506 97.3208 15.354C98.0891 15.3285 98.9159 15.4647 99.6214 15.075C100.15 14.812 100.395 14.1855 100.362 13.6159C100.385 12.9894 100.105 12.3287 99.547 12.0147C98.8675 11.6287 98.0631 11.7773 97.3208 11.7438Z" fill="white"/>
    <path d="M128.102 4.41284C128.965 4.42012 129.828 4.41867 130.692 4.41211C130.681 6.26893 130.681 8.12575 130.691 9.98257C131.983 8.17091 133.266 6.35197 134.549 4.53376H134.556C135.561 4.51045 136.567 4.51773 137.572 4.52575C137.56 4.60733 137.549 4.68819 137.539 4.76978C136.141 6.75845 134.709 8.72672 133.287 10.7008C134.865 12.9882 136.427 15.2864 138 17.5774C136.962 17.573 135.923 17.5796 134.885 17.5745C134.097 16.3922 133.29 15.223 132.491 14.0481C132.456 14.0007 132.429 13.9497 132.412 13.8965C132.321 13.4311 132.001 13.0668 131.749 12.6822C131.459 12.2998 131.144 11.8991 131.112 11.3987C130.918 11.3542 130.677 11.2486 130.512 11.4183C130.419 11.5881 130.487 11.7971 130.498 11.9814C130.558 12.3304 130.523 12.6837 130.512 13.0341C130.505 14.0298 130.538 15.0256 130.515 16.0214C130.498 16.4913 130.567 16.9721 130.434 17.4303C130.516 17.4761 130.595 17.522 130.68 17.5701L130.698 17.5825C129.832 17.5694 128.966 17.5752 128.101 17.5789C128.107 13.1899 128.104 8.80102 128.102 4.41284Z" fill="white"/>
    <path d="M94.7227 4.40625L94.8354 4.423C94.8958 4.69253 94.8771 4.96934 94.8742 5.24251C94.8836 9.17615 94.8699 13.1098 94.8829 17.0434C94.8764 17.2197 94.8577 17.3953 94.8225 17.5686L94.7234 17.5949C94.7298 13.1987 94.732 8.80245 94.7227 4.40625Z" fill="white"/>
    <path d="M130.513 11.4173C130.677 11.2476 130.918 11.3532 131.112 11.3977C131.144 11.8981 131.459 12.2987 131.75 12.6812C132.001 13.0658 132.321 13.43 132.412 13.8955C131.871 13.1707 131.385 12.4051 130.871 11.6614C130.809 11.5667 130.747 11.4734 130.686 11.3809C130.66 13.4431 130.669 15.5068 130.68 17.5691C130.595 17.521 130.516 17.4751 130.435 17.4292C130.567 16.971 130.498 16.4903 130.515 16.0204C130.539 15.0246 130.505 14.0288 130.512 13.033C130.523 12.6826 130.558 12.3293 130.498 11.9804C130.487 11.7961 130.419 11.587 130.513 11.4173Z" fill="white"/>
    <path d="M134.556 4.53399C134.615 4.36394 134.8 4.43473 134.93 4.41722C135.889 4.41868 136.848 4.42744 137.807 4.41211C137.719 4.53326 137.632 4.65442 137.539 4.77046C137.549 4.68872 137.56 4.60771 137.571 4.52597C136.566 4.51794 135.56 4.51064 134.556 4.53399Z" fill="white"/>
    <path d="M8.1447 10.1386C9.17371 8.94829 10.1153 7.68516 11.1429 6.49414C12.5344 7.76966 13.5511 9.46913 13.9461 11.3296C14.3621 13.2462 14.1462 15.3099 13.2854 17.0756C12.533 18.6673 11.2678 19.9967 9.74923 20.8636C8.36061 21.6459 6.75897 22.0364 5.17249 21.9978C3.31305 21.9133 1.47166 21.2759 0 20.1176C1.27669 18.5784 2.53317 17.0217 3.79686 15.4716C4.14131 15.1001 4.43738 14.6885 4.76521 14.3031C5.55665 13.3052 6.37769 12.3312 7.17129 11.3347C7.51935 10.9552 7.81686 10.5349 8.1447 10.1386Z" fill="white"/>
</svg>
