<svg width="62" height="10" viewBox="0 0 62 10" fill="none" xmlns="http://www.w3.org/2000/svg">
    <path d="M43.422 0.438772C43.6039 -0.146257 44.3961 -0.146258 44.578 0.438771L45.3417 2.89469C45.4231 3.15633 45.6564 3.33347 45.9197 3.33347H48.3911C48.9798 3.33347 49.2246 4.12062 48.7483 4.48219L46.7489 6.00003C46.5359 6.16173 46.4468 6.44834 46.5281 6.70998L47.2918 9.1659C47.4738 9.75093 46.8329 10.2374 46.3566 9.87585L44.3572 8.358C44.1442 8.19631 43.8558 8.19631 43.6428 8.358L41.6434 9.87585C41.1671 10.2374 40.5262 9.75093 40.7082 9.1659L41.4719 6.70998C41.5532 6.44834 41.4641 6.16173 41.2511 6.00003L39.2517 4.48219C38.7754 4.12062 39.0202 3.33347 39.6089 3.33347H42.0803C42.3436 3.33347 42.5769 3.15633 42.6583 2.89469L43.422 0.438772Z" fill="#FBC400"/>
    <path d="M56.422 0.438772C56.6039 -0.146257 57.3961 -0.146258 57.578 0.438771L58.3417 2.89469C58.4231 3.15633 58.6564 3.33347 58.9197 3.33347H61.3911C61.9798 3.33347 62.2246 4.12062 61.7483 4.48219L59.7489 6.00003C59.5359 6.16173 59.4468 6.44834 59.5281 6.70998L60.2918 9.1659C60.4738 9.75093 59.8329 10.2374 59.3566 9.87585L57.3572 8.358C57.1442 8.19631 56.8558 8.19631 56.6428 8.358L54.6434 9.87585C54.1671 10.2374 53.5262 9.75093 53.7082 9.1659L54.4719 6.70998C54.5532 6.44834 54.4641 6.16173 54.2511 6.00003L52.2517 4.48219C51.7754 4.12062 52.0202 3.33347 52.6089 3.33347H55.0803C55.3436 3.33347 55.5769 3.15633 55.6583 2.89469L56.422 0.438772Z" fill="#FBC400"/>
    <path d="M30.422 0.438772C30.6039 -0.146257 31.3961 -0.146258 31.578 0.438771L32.3417 2.89469C32.4231 3.15633 32.6564 3.33347 32.9197 3.33347H35.3911C35.9798 3.33347 36.2246 4.12062 35.7483 4.48219L33.7489 6.00003C33.5359 6.16173 33.4468 6.44834 33.5281 6.70998L34.2918 9.1659C34.4738 9.75093 33.8329 10.2374 33.3566 9.87585L31.3572 8.358C31.1442 8.19631 30.8558 8.19631 30.6428 8.358L28.6434 9.87585C28.1671 10.2374 27.5262 9.75093 27.7082 9.1659L28.4719 6.70998C28.5532 6.44834 28.4641 6.16173 28.2511 6.00003L26.2517 4.48219C25.7754 4.12062 26.0202 3.33347 26.6089 3.33347H29.0803C29.3436 3.33347 29.5769 3.15633 29.6583 2.89469L30.422 0.438772Z" fill="#FBC400"/>
    <path d="M17.422 0.438772C17.6039 -0.146257 18.3961 -0.146258 18.578 0.438771L19.3417 2.89469C19.4231 3.15633 19.6564 3.33347 19.9197 3.33347H22.3911C22.9798 3.33347 23.2246 4.12062 22.7483 4.48219L20.7489 6.00003C20.5359 6.16173 20.4468 6.44834 20.5281 6.70998L21.2918 9.1659C21.4738 9.75093 20.8329 10.2374 20.3566 9.87585L18.3572 8.358C18.1442 8.19631 17.8558 8.19631 17.6428 8.358L15.6434 9.87585C15.1671 10.2374 14.5262 9.75093 14.7082 9.1659L15.4719 6.70998C15.5532 6.44834 15.4641 6.16173 15.2511 6.00003L13.2517 4.48219C12.7754 4.12062 13.0202 3.33347 13.6089 3.33347H16.0803C16.3436 3.33347 16.5769 3.15633 16.6583 2.89469L17.422 0.438772Z" fill="#FBC400"/>
    <path d="M4.42201 0.438772C4.60394 -0.146257 5.39606 -0.146258 5.57798 0.438771L6.3417 2.89469C6.42306 3.15633 6.6564 3.33347 6.91968 3.33347H9.3911C9.97983 3.33347 10.2246 4.12062 9.74832 4.48219L7.7489 6.00003C7.5359 6.16173 7.44677 6.44834 7.52813 6.70998L8.29184 9.1659C8.47376 9.75093 7.83292 10.2374 7.35664 9.87585L5.35721 8.358C5.14421 8.19631 4.85579 8.19631 4.64279 8.358L2.64336 9.87585C2.16708 10.2374 1.52624 9.75093 1.70816 9.1659L2.47187 6.70998C2.55323 6.44834 2.4641 6.16173 2.2511 6.00003L0.25168 4.48219C-0.224606 4.12062 0.020172 3.33347 0.608894 3.33347H3.08032C3.3436 3.33347 3.57694 3.15633 3.6583 2.89469L4.42201 0.438772Z" fill="#FBC400"/>
</svg>
