<svg width="424" height="298" viewBox="0 0 424 298" fill="none" xmlns="http://www.w3.org/2000/svg">
    <ellipse cx="124.488" cy="42.705" rx="47.5" ry="42" transform="rotate(13.5192 124.488 42.705)" fill="url(#paint0_linear_0_1)"/>
    <ellipse cx="22.9998" cy="54.9113" rx="22.1615" ry="23.9625" transform="rotate(24.0357 22.9998 54.9113)" fill="url(#paint1_linear_0_1)"/>
    <mask id="mask0_0_1" style="mask-type:luminance" maskUnits="userSpaceOnUse" x="117" y="10" width="307" height="245">
        <path d="M117 10H424V254.674H117V10Z" fill="white"/>
    </mask>
    <g mask="url(#mask0_0_1)">
        <mask id="mask1_0_1" style="mask-type:luminance" maskUnits="userSpaceOnUse" x="117" y="10" width="307" height="245">
            <path d="M262.99 24.3727C246.11 35.4035 247.607 45.9432 238.821 58.1644C234.101 64.7326 229.04 68.4909 225.639 70.9653C205.176 85.8407 186.737 74.5632 160.896 85.5436C158.663 86.4922 146.299 91.889 135.995 103.293C110.718 131.264 114.784 176.599 126.035 205.351C130.429 216.583 142.107 246.422 166.808 253.05C184.204 257.719 198.635 248.348 212.868 241.723C248.971 224.912 278.005 228.452 304.198 231.99C330.221 235.507 353.445 239.023 378.019 222.576C414.651 198.064 421.201 151.347 422.201 144.18C427.53 106.003 415.768 55.0001 374.11 27.6999C356.011 15.8404 334.78 10.0962 314.336 10.0986C295.537 10.0986 277.403 14.9541 262.99 24.3727Z" fill="white"/>
        </mask>
        <g mask="url(#mask1_0_1)">
            <path d="M417.492 -45.3242L67.2888 17.9427L120.755 313.138L470.958 249.871L417.492 -45.3242Z" fill="url(#paint2_linear_0_1)"/>
        </g>
    </g>
    <path d="M160.939 272.511C159.797 272.475 143.905 271.73 136.017 258.421C135.451 257.466 129.915 247.776 133.196 236.35C134.148 233.04 135.909 226.908 141.19 224.139C147.762 220.697 157.665 223.578 165.172 231.653C158.121 226.759 154.322 218.948 155.768 211.929C157.898 201.586 170.475 197.557 178.807 197.842C192.807 198.319 200.017 211.151 200.437 211.929C204.636 219.705 203.53 227.303 202.979 230.752C201.156 242.147 193.99 249.149 191.505 251.377C195.119 241.599 204.032 235.55 212.664 236.35C223.483 237.352 228.63 248.627 229.592 250.907C232.844 258.637 231.232 265.761 230.532 268.283C207.334 269.692 184.137 271.103 160.939 272.511Z" fill="#F9AF87"/>
    <path d="M177.785 284.105C173.568 279.377 168.82 273.043 164.776 264.949C155.659 246.701 155.136 229.507 155.607 220.074C158.262 219.717 161.857 218.723 164.848 215.957C167.042 213.923 169.606 210.291 168.616 208.878C167.872 207.822 165.407 208.39 164.884 208.509C159.758 209.69 157.271 215.557 156.671 217.092C156.856 216.062 157.218 214.567 158 212.91C158.698 211.434 159.394 210.536 160.195 209.427C162.032 206.878 163.346 205.055 164.277 203.077C165.764 199.917 166.702 195.466 165.246 194.527C164.951 194.338 164.641 194.343 164.44 194.35C161.682 194.432 159.653 200.288 159.295 201.321C157.981 205.108 158.492 206.555 157.175 212.064C156.683 214.129 156.168 215.784 155.825 216.821C156.105 215.008 156.249 211.966 154.573 209.202C154.367 208.861 152.45 205.767 150.872 206.164C150.066 206.368 149.685 207.393 149.541 207.781C148.075 211.724 153.47 218.318 154.705 219.789C154.036 228.104 154.012 241.963 159.439 257.787C163.437 269.448 169.038 278.21 173.451 284.019C174.895 284.048 176.341 284.076 177.785 284.105Z" fill="#F03C65"/>
    <path d="M167.129 272.631C161.111 265.883 154.333 256.843 148.563 245.295C135.554 219.252 134.805 194.711 135.477 181.249C139.266 180.741 144.399 179.323 148.666 175.373C151.798 172.472 155.458 167.289 154.041 165.272C152.983 163.765 149.462 164.575 148.714 164.747C141.401 166.431 137.854 174.803 136.997 176.993C137.259 175.524 137.775 173.392 138.892 171.026C139.888 168.92 140.883 167.639 142.025 166.055C144.646 162.419 146.522 159.815 147.85 156.991C149.973 152.483 151.309 146.133 149.232 144.794C148.815 144.523 148.371 144.53 148.085 144.537C144.147 144.655 141.25 153.012 140.739 154.485C138.866 159.892 139.593 161.957 137.717 169.816C137.012 172.767 136.278 175.127 135.786 176.609C136.189 174.02 136.393 169.677 133.999 165.734C133.707 165.248 130.973 160.828 128.718 161.399C127.569 161.688 127.025 163.152 126.821 163.705C124.727 169.332 132.426 178.746 134.191 180.842C133.234 192.709 133.201 212.49 140.948 235.073C146.654 251.712 154.645 264.22 160.941 272.508L167.129 272.631Z" fill="#F03C65"/>
    <path d="M231.469 127.715C231.469 138.597 222.635 147.422 211.739 147.422C200.843 147.422 192.01 138.597 192.01 127.715C192.01 116.835 200.843 108.011 211.739 108.011C222.635 108.011 231.469 116.835 231.469 127.715Z" fill="#C9AE17"/>
    <path d="M229.986 125.302C229.986 136.184 221.155 145.007 210.256 145.007C199.36 145.007 190.529 136.184 190.529 125.302C190.529 114.42 199.36 105.598 210.256 105.598C221.155 105.598 229.986 114.42 229.986 125.302Z" fill="#ECE90D"/>
    <path d="M212.875 112.147C214.897 112.32 216.739 112.979 216.739 112.979C218.101 113.465 219.169 114.071 219.927 114.569C218.845 113.606 216.89 112.135 214.079 111.369C213.904 111.321 212.88 111.045 211.721 110.938C208.527 110.638 203.08 111.496 199.413 115.812C196.623 119.096 196.259 122.737 196.153 123.952C195.815 127.854 197.091 130.831 197.722 132.091C197.156 130.812 195.837 127.358 196.758 123.109C197.384 120.213 198.756 118.296 199.156 117.765C203.214 112.361 210.141 111.915 212.875 112.147ZM223.62 129.44C222.874 131.198 220.833 135.088 216.394 137.241C212.477 139.141 208.807 138.664 206.68 138.386C204.927 138.159 203.492 137.735 202.473 137.371C208.443 140.535 215.437 139.927 219.958 135.957C224.354 132.096 224.671 126.577 224.711 125.418C224.582 126.409 224.299 127.84 223.62 129.44Z" fill="#CAAA17"/>
    <path d="M330.004 180.323C329.155 177.645 328.047 174.428 326.625 170.835C324.694 165.965 323.413 162.736 321.286 158.973C316.58 150.654 313.488 149.916 313.045 144.897C312.973 144.093 312.539 138.313 316.17 136.035C318.875 134.336 322.847 135.201 325.253 136.99C328.615 139.493 328.229 143.295 330.596 143.669C332.275 143.937 334.35 142.315 334.897 140.483C335.748 137.62 332.772 134.609 330.378 131.85C330.378 131.85 324.116 124.633 319.36 115.156C314.525 105.52 313.704 91.351 319.657 87.6095C322.43 85.8656 326.514 86.486 329.069 88.0071C332.412 90.0024 334.089 94.8699 337.305 104.521C338.926 109.393 339.454 111.705 340.483 111.719C342.44 111.753 344.025 103.419 344.265 102.164C346.503 90.4001 343.598 86.3902 344.229 77.1919C345.107 64.3479 352.24 50.6439 359.011 50.4475C360.858 50.3948 362.244 51.3601 363.457 52.232C375.061 60.556 370.917 85.7746 369.115 96.7335C368.609 99.8068 368.098 102.037 367.568 103.982C365.227 112.608 361.606 119.173 358.795 123.483C365.395 115.6 368.568 108.421 370.25 103.314C374.351 90.8432 373.008 80.1838 378.755 78.0471C381.647 76.9716 384.796 78.6244 385.23 78.8615C389.147 80.9838 390.188 85.6979 390.778 88.558C391.457 91.8565 392.366 99.251 387.874 109.968C382.467 122.87 373.241 131.031 367.242 135.393C373.718 129.505 379.764 125.845 384.206 123.571C392.308 119.425 394.872 119.988 396.172 120.898C398.276 122.371 398.335 125.629 398.359 126.949C398.585 139.237 374.754 161.282 369.602 165.967C373.766 163.711 379.937 161.402 386.672 162.647C388.6 163.007 392.109 163.656 392.845 165.847C393.714 168.432 390.272 171.783 387.674 174.092C383.218 178.059 374.294 185.157 357.435 194.391C348.292 189.701 339.147 185.013 330.004 180.323ZM315.522 178.239C315.448 175.055 315.453 171.201 315.661 166.825C315.944 160.896 316.131 156.965 317.033 152.151C319.026 141.506 322.068 139.582 320.703 134.039C320.485 133.148 318.827 126.793 314.095 125.677C310.572 124.848 306.629 127.229 304.708 130.029C302.019 133.946 303.83 137.879 301.429 139.149C299.726 140.049 296.906 139.072 295.646 137.304C293.682 134.549 295.771 130.228 297.323 126.393C297.323 126.393 301.388 116.359 303.012 104.454C304.66 92.3499 300.338 76.8566 292.581 75.0217C288.967 74.169 284.815 76.3272 282.632 78.8951C279.781 82.2582 279.769 88.0909 279.865 99.6199C279.913 105.441 280.193 108.112 279.097 108.507C277.011 109.257 272.252 100.901 271.533 99.6415C264.814 87.8466 266.455 82.4833 262.404 72.8491C256.746 59.3966 244.066 47.3119 236.734 49.5803C234.733 50.2008 233.601 51.7434 232.618 53.1231C223.233 66.2977 236.935 91.8229 242.89 102.916C244.56 106.03 245.927 108.234 247.208 110.126C252.887 118.517 259.181 124.235 263.778 127.826C253.806 121.787 247.764 115.252 244.09 110.39C235.112 98.5204 232.639 86.5938 225.691 86.4094C222.197 86.3159 219.426 89.2407 219.045 89.6527C215.625 93.3608 216.239 98.8007 216.656 102.082C217.138 105.869 218.88 114.131 227.632 123.981C238.165 135.836 251.057 141.209 259.089 143.693C249.983 139.747 242.156 138.037 236.556 137.225C226.346 135.745 223.806 137.287 222.743 138.741C221.029 141.089 222.161 144.605 222.619 146.03C226.89 159.291 260.54 174.205 267.786 177.345C262.49 176.449 255.024 176.231 248.26 180.035C246.323 181.125 242.799 183.106 242.814 185.727C242.83 188.817 247.752 191.15 251.386 192.676C257.619 195.296 269.798 199.639 291.267 203.371C299.352 194.995 307.437 186.615 315.522 178.239Z" fill="#F29A72"/>
    <path d="M411.001 42.8573C411.001 56.9397 399.57 68.3561 385.467 68.3561C371.366 68.3561 359.936 56.9397 359.936 42.8573C359.936 28.7748 371.366 17.3584 385.467 17.3584C399.57 17.3584 411.001 28.7748 411.001 42.8573Z" fill="#C9AE17"/>
    <path d="M409.083 39.7303C409.083 53.8128 397.652 65.2316 383.551 65.2316C369.451 65.2316 358.02 53.8128 358.02 39.7303C358.02 25.6478 369.451 14.2314 383.551 14.2314C397.652 14.2314 409.083 25.6478 409.083 39.7303Z" fill="#ECE90D"/>
    <path d="M386.937 22.7029C389.553 22.9256 391.938 23.7784 391.938 23.7784C393.698 24.4108 395.082 25.1917 396.063 25.836C394.662 24.5904 392.132 22.6885 388.496 21.6968C388.268 21.6345 386.942 21.2776 385.443 21.1363C381.31 20.7482 374.261 21.8597 369.517 27.4457C365.907 31.6951 365.432 36.4068 365.298 37.9806C364.862 43.0277 366.512 46.8819 367.327 48.5131C366.596 46.8555 364.888 42.3881 366.078 36.8859C366.888 33.1395 368.665 30.6603 369.184 29.9728C374.436 22.9783 383.399 22.401 386.937 22.7029ZM400.843 45.0805C399.879 47.3561 397.233 52.3912 391.489 55.1771C386.421 57.6347 381.672 57.0167 378.919 56.6598C376.65 56.3652 374.794 55.8166 373.477 55.3447C381.2 59.4409 390.251 58.6528 396.101 53.5147C401.793 48.5179 402.203 41.3773 402.256 39.8754C402.088 41.1569 401.721 43.0109 400.843 45.0805Z" fill="#CAAA17"/>
    <path d="M324.564 259.233C324.219 256.445 323.718 253.082 322.972 249.29C321.962 244.152 321.29 240.743 319.882 236.657C316.772 227.621 313.867 226.333 314.344 221.319C314.421 220.514 315.047 214.753 319.033 213.172C322.003 211.994 325.751 213.565 327.79 215.764C330.639 218.835 329.57 222.502 331.827 223.3C333.429 223.868 335.765 222.651 336.636 220.948C337.995 218.289 335.616 214.787 333.767 211.639C333.767 211.639 328.925 203.404 325.974 193.221C322.974 182.866 324.749 168.786 331.282 166.189C334.328 164.977 338.23 166.328 340.466 168.29C343.39 170.858 344.152 175.948 345.555 186.026C346.263 191.111 346.361 193.48 347.369 193.681C349.29 194.069 352.364 186.164 352.83 184.972C357.173 173.811 355.048 169.342 357.344 160.409C360.548 147.941 370.058 135.761 376.749 136.8C378.577 137.083 379.764 138.286 380.8 139.363C390.691 149.656 382.021 173.699 378.253 184.148C377.198 187.08 376.286 189.178 375.413 190.996C371.54 199.052 366.781 204.851 363.232 208.576C371.159 202.022 375.589 195.54 378.169 190.826C384.475 179.309 385.098 168.58 391.138 167.526C394.176 166.994 396.973 169.191 397.357 169.502C400.82 172.3 400.986 177.127 401.046 180.047C401.113 183.412 400.657 190.85 394.289 200.57C386.621 212.274 376.061 218.622 369.369 221.822C376.809 217.209 383.422 214.71 388.204 213.28C396.925 210.674 399.343 211.694 400.458 212.827C402.257 214.658 401.722 217.872 401.506 219.173C399.487 231.298 372.036 248.643 366.119 252.315C370.624 250.852 377.114 249.702 383.508 252.153C385.341 252.854 388.67 254.131 388.996 256.421C389.38 259.121 385.384 261.789 382.41 263.59C377.306 266.678 367.237 272.037 348.978 278.054C340.84 271.78 332.702 265.507 324.564 259.233Z" fill="#F9AF87"/>
    <path d="M389.232 278.808C389.844 275.401 390.455 271.995 391.067 268.589C394.748 267.552 399.629 265.427 403.297 260.914C405.988 257.604 408.88 251.955 407.194 250.159C405.93 248.815 402.56 250.113 401.845 250.389C394.842 253.086 392.511 261.872 391.971 264.162C392.024 262.67 392.235 260.488 393.007 257.987C393.696 255.762 394.499 254.353 395.406 252.626C397.487 248.654 398.979 245.814 399.896 242.831C401.359 238.069 401.788 231.595 399.543 230.56C399.09 230.351 398.653 230.421 398.37 230.469C394.487 231.139 392.799 239.82 392.501 241.351C391.41 246.968 392.42 248.911 391.671 256.955C391.391 259.975 390.997 262.416 390.719 263.951C390.753 261.331 390.343 257.005 387.416 253.436C387.057 252.997 383.728 249.007 381.576 249.888C380.48 250.336 380.147 251.862 380.022 252.439C378.744 258.303 387.695 266.538 389.738 268.366C389.191 270.292 388.371 272.539 387.109 274.917C386.493 276.077 385.85 277.124 385.215 278.053C386.553 278.305 387.894 278.556 389.232 278.808Z" fill="#F03C65"/>
    <path d="M413.91 281.587C413.91 290.654 349.203 298 269.383 298C189.563 298 124.855 290.654 124.855 281.587C124.855 272.523 189.563 265.174 269.383 265.174C349.203 265.174 413.91 272.523 413.91 281.587Z" fill="#B0E4E1"/>
    <path d="M190.421 94.3192C194.803 111.104 184.729 128.257 167.923 132.633C151.117 137.01 133.942 126.949 129.563 110.165C125.181 93.3802 135.252 76.2268 152.058 71.8529C168.863 67.4765 186.039 77.5347 190.421 94.3192Z" fill="#C9AE17"/>
    <path d="M187.167 91.1981C191.547 107.983 181.476 125.136 164.67 129.512C147.864 133.889 130.689 123.828 126.307 107.044C121.928 90.2591 131.999 73.1057 148.804 68.7318C165.61 64.3554 182.785 74.4136 187.167 91.1981Z" fill="#ECE90D"/>
    <path d="M155.473 77.7707C158.661 77.2246 161.769 77.5024 161.769 77.5024C164.065 77.706 165.957 78.2091 167.326 78.6738C165.269 77.6246 161.661 76.1419 157.018 76.0868C156.728 76.0844 155.037 76.07 153.207 76.367C148.16 77.1886 140.104 80.6979 136.187 88.8302C133.206 95.0127 134.108 100.778 134.437 102.692C135.487 108.846 138.653 112.925 140.133 114.617C138.747 112.87 135.319 108.072 135.027 101.15C134.828 96.4308 136.175 92.9263 136.576 91.9442C140.661 81.9794 151.166 78.5085 155.473 77.7707ZM179.009 100.124C178.568 103.138 176.982 109.957 171.003 115.062C165.727 119.563 159.877 120.301 156.483 120.73C153.686 121.082 151.305 121.005 149.585 120.852C160.066 123.336 170.61 119.587 175.982 111.651C181.211 103.928 179.477 95.2906 179.074 93.4844C179.273 95.0654 179.412 97.3841 179.009 100.124Z" fill="#CAAA17"/>
    <path d="M364.893 283.93L266.704 280.96C260.614 280.775 255.781 275.647 255.966 269.565L257.676 213.214C257.861 207.132 262.996 202.305 269.085 202.489L367.272 205.462C373.365 205.647 378.195 210.773 378.01 216.855L376.303 273.206C376.118 279.288 370.983 284.115 364.893 283.93Z" fill="#3D3C3D"/>
    <path d="M370.521 284.099C338.607 283.134 306.691 282.169 274.775 281.203C284.517 255.316 294.262 229.432 304.005 203.545C326.97 204.24 349.935 204.937 372.902 205.631C373.269 205.643 375.19 205.744 376.699 207.344C377.656 208.36 378.227 209.739 378.184 211.234L376.131 278.827C376.042 281.816 373.516 284.19 370.521 284.099Z" fill="#5F6062"/>
    <g opacity="0.4">
        <mask id="mask2_0_1" style="mask-type:luminance" maskUnits="userSpaceOnUse" x="255" y="252" width="122" height="33">
            <path d="M255.765 252.069H376.9V284.33H255.765V252.069Z" fill="white"/>
        </mask>
        <g mask="url(#mask2_0_1)">
            <path d="M370.43 284.033L267.048 281.044C259.68 280.814 255.535 274.375 255.996 269.086C256.233 261.304 256.24 259.852 256.475 252.069C296.618 252.292 336.761 252.517 376.901 252.742C376.635 261.514 376.371 270.286 376.102 279.058C376.102 279.094 376.1 279.128 376.097 279.164C376.001 280.531 375.405 281.456 375.035 281.964C374.16 283.173 372.503 284.033 370.43 284.033Z" fill="#DEDCDB"/>
        </g>
    </g>
    <path d="M343.868 191.585L251.439 224.809C245.707 226.869 239.327 223.87 237.265 218.145L218.147 165.1C216.084 159.375 219.087 153.003 224.819 150.943L317.248 117.719C322.982 115.657 329.36 118.656 331.425 124.383L350.541 177.426C352.603 183.154 349.6 189.523 343.868 191.585Z" fill="#8DCB24"/>
    <path d="M349.165 189.688C319.122 200.486 289.079 211.285 259.034 222.085C258.585 194.436 258.137 166.783 257.691 139.133C279.308 131.363 300.927 123.592 322.544 115.821C322.89 115.697 324.715 115.086 326.708 116.023C327.972 116.617 329.008 117.69 329.517 119.098L352.446 182.725C353.46 185.541 351.985 188.672 349.165 189.688Z" fill="#33AB40"/>
    <path d="M352.622 185.749C352.027 188.324 349.712 189.474 349.374 189.635C330.508 196.399 311.642 203.166 292.776 209.931C292.927 182.075 293.08 154.216 293.231 126.358C308.27 120.511 319.494 116.542 322.545 115.821C324.545 115.347 325.829 115.61 326.709 116.022C327.97 116.616 329.009 117.689 329.517 119.098L352.446 182.724C352.636 183.28 352.931 184.41 352.622 185.749Z" fill="#4EABD1"/>
    <g opacity="0.4">
        <mask id="mask3_0_1" style="mask-type:alpha" maskUnits="userSpaceOnUse" x="257" y="115" width="96" height="108">
            <path d="M349.078 189.646C319.035 200.444 288.992 211.243 258.947 222.043C258.499 194.394 258.05 166.741 257.604 139.091C279.221 131.321 300.841 123.55 322.458 115.779C322.803 115.655 324.628 115.044 326.621 115.981C327.885 116.575 328.922 117.648 329.43 119.056L352.359 182.683C353.374 185.499 351.899 188.63 349.078 189.646Z" fill="#4EABD1"/>
        </mask>
        <g mask="url(#mask3_0_1)">
            <path d="M347.632 152.955L258.525 224.472L364.901 197.797L347.632 152.955Z" fill="#D9D9D9"/>
        </g>
    </g>
    <path d="M251.728 190.709L242.876 193.89C240.489 194.748 237.834 193.5 236.975 191.116L235.143 186.033C234.284 183.65 235.534 180.998 237.92 180.138L246.773 176.957C249.159 176.1 251.817 177.348 252.676 179.731L254.508 184.814C255.367 187.198 254.117 189.849 251.728 190.709Z" fill="#E7E8E6"/>
    <path d="M247.377 192.269L247.094 192.375L241.897 178.711L242.18 178.604L247.377 192.269Z" fill="#696B6C"/>
    <path d="M252.852 180.238L235.377 186.679L235.271 186.396L252.747 179.955L252.852 180.238ZM254.495 184.684L236.984 191.137L236.878 190.854L254.389 184.401L254.495 184.684Z" fill="#696B6C"/>
    <path d="M259.278 155.191L230.94 165.376C229.381 165.937 227.647 165.122 227.086 163.565C226.525 162.008 227.343 160.276 228.902 159.716L257.237 149.531C258.796 148.97 260.53 149.785 261.091 151.342C261.652 152.899 260.834 154.63 259.278 155.191Z" fill="#F5F8F3"/>
    <path d="M333.117 115.77C330.692 116.582 328.042 115.265 327.229 112.843C326.416 110.421 327.735 107.775 330.16 106.963C332.585 106.151 335.232 107.468 336.048 109.89C336.861 112.311 335.542 114.956 333.117 115.77ZM322.588 119.296C320.163 120.111 317.513 118.793 316.7 116.372C315.887 113.95 317.206 111.303 319.631 110.491C322.055 109.679 324.706 110.994 325.519 113.416C326.332 115.84 325.013 118.484 322.588 119.296Z" fill="#E4F082"/>
    <path d="M307.898 130.341L260.755 115.387C259.469 114.979 258.752 113.597 259.16 112.313C259.568 111.029 260.954 110.313 262.237 110.723L309.381 125.675C310.666 126.082 311.383 127.464 310.976 128.748C310.568 130.03 309.182 130.748 307.898 130.341Z" fill="white"/>
    <path d="M364.563 132.209C367.11 135.622 366.405 140.454 362.987 143C359.567 145.546 354.729 144.842 352.18 141.426C349.63 138.013 350.335 133.179 353.755 130.633C357.176 128.086 362.013 128.793 364.563 132.209Z" fill="#E4F082"/>
    <path d="M366.308 274.154L338.472 273.311C336.817 273.26 335.502 271.866 335.553 270.213C335.603 268.561 336.999 267.248 338.654 267.298L366.49 268.139C368.148 268.189 369.46 269.583 369.409 271.239C369.361 272.891 367.965 274.204 366.308 274.154Z" fill="white"/>
    <path d="M324.383 272.879C322.728 272.829 321.414 271.435 321.465 269.782C321.515 268.129 322.911 266.816 324.565 266.867C326.223 266.917 327.534 268.311 327.484 269.964C327.434 271.617 326.04 272.929 324.383 272.879Z" fill="#E4F082"/>
    <path d="M188.438 168.038C189.829 168.66 193.218 169.952 197.597 169.381C201.869 168.823 204.764 166.797 205.961 165.851C206.215 165.058 207.74 160.03 204.816 155.062C201.399 149.258 194.916 148.645 194.311 148.597C192.46 151.332 190.054 155.694 188.984 161.474C188.534 163.91 188.406 166.131 188.438 168.038Z" fill="#58291B"/>
    <path d="M196.005 165.305C195.885 165.77 195.453 167.679 196.501 169.679C197.722 172.007 200.005 172.661 200.384 172.762C200.154 173.313 199.108 175.639 196.7 176.491C193.851 177.497 190.217 176.039 188.239 172.711C188.745 172.575 189.558 172.292 190.378 171.667C192.131 170.333 192.606 168.431 192.769 167.741C192.911 167.135 193.071 166.103 192.868 164.807C193.913 164.972 194.959 165.137 196.005 165.305ZM226.801 201.463C227.338 201.727 228.115 202.093 229.065 202.503C230.945 203.312 231.885 203.717 232.703 203.887C233.523 204.06 236.027 204.465 238.584 203.221C239.318 202.865 239.867 202.464 240.222 202.175C240.078 202.103 239.858 201.997 239.579 201.887C238.023 201.276 236.84 201.391 235.495 201.284C234.761 201.224 233.71 201.075 232.442 200.673C233.296 200.261 234.006 200.055 234.507 199.945C235.03 199.827 235.663 199.736 235.744 199.403C235.78 199.247 235.684 199.109 235.675 199.094C235.529 198.888 235.212 198.871 234.13 198.986C233.236 199.082 232.787 199.13 232.046 199.31C231.506 199.439 230.952 199.602 230.286 199.849C229.401 200.177 228.194 200.685 226.801 201.463Z" fill="#F9AF87"/>
    <path d="M206.806 199.259C206.878 200.816 206.864 201.42 206.955 202.541C207.166 205.108 207.758 208.179 209.144 211.624C208.271 210.91 207.125 209.787 206.269 208.148C205.286 206.265 204.957 204.227 205.446 196.162C205.542 194.559 205.684 192.518 205.892 190.145C206.286 192.686 206.645 195.755 206.806 199.259Z" fill="#8C51AE"/>
    <path d="M229.393 272.403C231.914 272.487 233.616 272.54 234.425 272.564C237.245 272.65 238.298 272.674 239.01 273.493C239.579 274.142 239.862 275.215 239.457 275.912C239.061 276.595 238.123 276.71 237.24 276.806C237.24 276.806 231.791 277.39 226.591 276.389C226.27 276.327 225.632 276.193 225.241 275.673C224.874 275.182 224.912 274.595 224.922 274.317C225.016 271.653 223.495 270.686 224.123 268.812C224.27 268.372 224.603 267.682 225.481 266.978C226.385 267.828 227.292 268.681 228.196 269.531C228.594 270.487 228.995 271.445 229.393 272.403ZM192.862 276.109C195.381 276.193 197.083 276.245 197.894 276.269C200.715 276.355 201.765 276.379 202.48 277.199C203.046 277.848 203.331 278.921 202.926 279.618C202.528 280.301 201.59 280.416 200.71 280.511C200.71 280.511 195.261 281.096 190.058 280.095C189.739 280.032 189.099 279.901 188.708 279.378C188.363 278.916 188.375 278.365 188.389 278.023C188.466 276.097 188.814 274.628 188.948 273.476C189.022 272.844 189.082 271.888 188.948 270.686C190.147 271.241 191.344 271.802 192.543 272.36C192.649 273.608 192.757 274.858 192.862 276.109Z" fill="#28214E"/>
    <path d="M184.986 208.243C183.18 212.828 182.634 216.668 182.463 219.248C181.969 226.668 183.876 234.039 184.454 236.219C185.087 238.605 185.536 239.695 185.716 241.92C186.054 246.1 184.922 247.824 184.19 251.93C182.929 259.009 184.252 265.325 185.516 271.354C185.948 273.41 186.394 275.082 186.711 276.193C189.045 275.774 191.381 275.352 193.714 274.933C193.355 271.385 193.23 267.146 193.714 262.405C194.647 253.26 197.458 245.997 199.854 241.125C201.423 235.989 201.401 231.95 201.082 229.191C200.605 225.071 199.331 222.666 198.991 217.259C198.801 214.26 198.993 211.786 199.18 210.169C194.448 209.527 189.716 208.885 184.986 208.243Z" fill="#38296F"/>
    <path d="M209.41 211.558C211.765 219.238 214.849 224.561 217.31 228.065C219.301 230.903 221.536 233.483 223.282 238.14C224.311 240.885 224.647 243.101 225.273 247.422C226.7 257.231 225.722 260.728 228.326 266.647C229.108 268.42 229.904 269.802 230.447 270.684C229.01 271.175 227.446 271.802 225.806 272.612C224.928 273.045 224.11 273.493 223.35 273.939C222.702 272.523 221.723 270.36 220.563 267.709C215.787 256.807 215.063 253.257 214.72 251.267C214.408 249.465 214.142 247.187 214.123 244.504C210.914 241.165 207.659 237.819 204.366 234.463C202.565 232.628 200.768 230.808 198.974 229.002C194.309 222.081 189.647 215.163 184.984 208.243C193.124 209.347 201.267 210.454 209.41 211.558Z" fill="#38296F"/>
    <path d="M215.817 243.014C216.044 247.802 217.306 259.3 226.07 267.375C227.502 268.693 228.982 269.78 230.447 270.683C229.01 271.174 227.447 271.802 225.806 272.614C224.928 273.047 224.11 273.493 223.35 273.939C222.703 272.523 221.724 270.36 220.563 267.708C215.788 256.804 215.063 253.257 214.721 251.266C214.409 249.465 214.142 247.187 214.123 244.504C210.909 241.162 207.657 237.814 204.366 234.46C203.326 233.401 202.287 232.347 201.246 231.296C206.103 235.203 210.96 239.107 215.817 243.014Z" fill="#28214E"/>
    <path d="M186.708 276.189C189.045 275.77 191.378 275.35 193.712 274.929C193.016 269.623 193.304 265.352 193.712 262.401C194.254 258.465 195.508 254.487 197.993 246.69C199.617 241.597 200.046 241.214 200.682 238.536C201.898 233.407 201.943 228.993 201.775 226.006C201.327 230.391 200.32 235.944 197.993 242.016C195.05 249.698 192.1 252.451 189.63 259.814C187.394 266.478 186.836 272.327 186.708 276.189ZM201.912 210.536C204.411 210.876 206.911 211.214 209.41 211.554C210.148 213.966 211.134 216.656 212.463 219.509C214.338 223.529 216.423 226.863 218.346 229.524C215.37 227.536 211.448 224.437 207.75 219.84C205.042 216.472 203.183 213.212 201.912 210.536Z" fill="#28214E"/>
    <path d="M190.775 159.082C191.034 163.512 192.176 166.875 193.799 167.327C194.574 167.543 195.255 167.337 195.255 167.337C196.191 167.052 196.745 166.223 197.21 165.303C198.467 162.829 199.052 159.789 199.289 158.337C199.018 157.648 198.539 156.661 197.694 155.652C196.824 154.61 195.9 153.952 195.255 153.563C194.394 154.364 193.452 155.35 192.519 156.546C191.828 157.432 191.252 158.29 190.775 159.082Z" fill="#F9AF87"/>
    <path d="M195.207 153.816C194.109 154.719 191.996 156.719 190.842 159.984C188.899 165.479 191.185 170.294 191.672 171.267C189.597 170.39 187.522 169.511 185.448 168.632C182.555 161.484 183.764 154.274 188.088 150.832C189 150.106 190.976 148.81 194.31 148.597C194.6 148.748 195.032 148.98 195.538 149.284C195.538 149.284 196.315 149.754 197.346 150.518C197.346 150.518 199.306 151.984 200.683 153.517C202.383 155.412 203.793 160.739 203.47 167.587C202.568 168.423 201.544 169.281 200.383 170.124C199.894 170.479 199.412 170.809 198.939 171.118C199.524 169.985 200.937 166.866 200.383 162.816C200.215 161.584 199.627 158.499 197.219 155.706C196.481 154.851 195.754 154.233 195.207 153.816Z" fill="#743218"/>
    <path d="M177.785 157.913C178.274 157.494 179.123 156.795 180.258 156.033C180.882 155.614 185.568 152.464 186.65 153.537C186.767 153.654 186.77 153.75 186.906 154.368C187.151 155.492 187.408 156.388 187.595 156.994C187.372 156.879 187.031 156.668 186.739 156.306C186.211 155.657 186.28 155.073 185.897 154.965C185.666 154.898 185.523 155.082 184.791 155.465C184.376 155.683 184.021 155.844 183.776 155.949C184.215 155.952 184.474 156.091 184.614 156.191C185.067 156.512 184.882 156.864 185.379 158.287C185.537 158.737 185.695 159.099 185.518 159.403C185.415 159.578 185.247 159.66 185.163 159.698C184.129 160.165 181.649 160.424 181.097 160.491C180.591 160.553 179.836 160.68 178.924 160.972C178.545 159.952 178.164 158.934 177.785 157.913Z" fill="#F9AF87"/>
    <path d="M188.285 171.818C188.527 172.185 190.251 174.719 193.513 175.098C197.571 175.572 200.128 172.257 200.234 172.115C201.452 172.647 203.102 173.49 204.863 174.801C207.597 176.834 209.18 178.94 210.091 180.171C213.955 185.393 215.471 191.298 216.063 194.191C218.092 194.723 220.134 195.269 222.189 195.832C225.576 196.759 228.912 197.705 232.195 198.666C231.262 199.085 230.113 199.701 228.909 200.606C227.669 201.535 226.741 202.494 226.07 203.289C220.407 202.472 214.744 201.653 209.082 200.834C208.652 198.041 207.448 193.053 203.572 188.5C202.308 187.015 200.994 185.848 199.785 184.943" fill="#9A5EB5"/>
    <path d="M208.813 181.795C205.957 176.978 202.513 173.871 200.234 172.115C201.453 172.647 203.103 173.49 204.863 174.8C207.6 176.834 209.183 178.94 210.092 180.171C213.956 185.393 215.474 191.297 216.066 194.191C218.093 194.723 220.134 195.269 222.187 195.832C225.576 196.759 228.912 197.705 232.193 198.666C231.263 199.085 230.114 199.7 228.91 200.606C227.672 201.535 226.742 202.493 226.07 203.289C221.846 200.678 217.62 198.064 213.394 195.451C213.056 192.462 212.075 187.295 208.813 181.795Z" fill="#A969BB"/>
    <path d="M206.806 199.258C206.905 201.146 206.864 201.419 206.955 202.54C207.166 205.108 207.759 208.179 209.145 211.623C201.093 210.495 193.039 209.369 184.985 208.241C183.601 205.453 181.985 201.402 181.201 196.309C180.63 192.592 180.656 189.327 180.87 186.761C171.494 188.268 163.064 185.058 159.828 178.94C159.531 178.378 157.777 174.923 158.567 170.652C159.888 163.502 167.69 157.631 178.061 156.45C178.548 158.374 179.035 160.297 179.522 162.223C177.689 162.911 175.13 164.108 172.506 166.211C169.424 168.679 167.539 171.359 166.465 173.172C172.027 176.011 175.941 175.676 177.685 175.359C180.318 174.883 184.686 173.23 185.714 172.842C186.794 172.432 187.679 172.07 188.288 171.814C190.159 173.901 192.627 176.5 195.67 179.338C202.48 185.681 204.909 186.438 205.893 190.144C206.435 192.18 206.6 195.342 206.806 199.258Z" fill="#9A5EB5"/>
    <path d="M209.146 211.626C201.092 210.498 193.038 209.369 184.987 208.244C183.579 205.391 181.986 201.347 181.202 196.312C179.945 188.23 181.392 181.583 182.531 177.815C179.816 178.605 175.83 179.441 170.98 179.341C165.955 179.235 161.885 178.165 159.165 177.219C158.139 174.303 158.307 172.028 158.568 170.655C159.755 164.437 166.202 159.394 174.765 157.993C173.947 158.151 165.747 159.871 162.816 167.076C161.677 169.877 161.748 172.485 161.952 174.102C164.092 174.696 171.769 176.692 177.684 175.362C178.919 175.087 182.111 174.208 185.716 172.845C186.795 172.435 187.68 172.073 188.29 171.817C184.114 182.714 185.745 194.583 192.753 202.61C198.593 209.3 206.23 211.099 209.146 211.626Z" fill="#A969BB"/>
    <path d="M375.552 48.1557C374.942 48.0033 374.571 47.3851 374.723 46.775C374.876 46.1649 375.494 45.7938 376.104 45.9462L376.468 46.0372C377.279 46.2398 378.101 45.7465 378.303 44.9352L381.176 33.4315C381.379 32.6203 380.886 31.7985 380.074 31.5958L379.71 31.5049C379.1 31.3525 378.729 30.7344 378.882 30.1242C379.034 29.5141 379.652 29.1431 380.262 29.2955L386.58 30.8737C388.834 31.4365 390.425 32.3668 391.353 33.6647C392.303 34.9678 392.538 36.58 392.058 38.5013C391.573 40.4439 390.602 41.7776 389.146 42.5024C387.711 43.2325 385.867 43.3162 383.614 42.7534C382.532 42.4832 381.436 43.141 381.166 44.2226L380.937 45.14C380.676 46.1867 381.312 47.2472 382.359 47.5087L383.149 47.7061C383.759 47.8585 384.131 48.4767 383.978 49.0868C383.826 49.6969 383.208 50.068 382.598 49.9156L375.552 48.1557ZM378.749 38.1025C378.184 37.9612 377.839 37.3878 377.981 36.8219C378.122 36.256 378.695 35.9119 379.261 36.0532L381.224 36.5434C381.789 36.6847 382.134 37.2581 381.992 37.824C381.851 38.3899 381.278 38.734 380.712 38.5927L378.749 38.1025ZM379.549 34.9005C378.983 34.7591 378.639 34.1858 378.78 33.6199C378.922 33.054 379.495 32.7098 380.061 32.8511L382.023 33.3413C382.589 33.4826 382.933 34.056 382.792 34.6219C382.651 35.1878 382.077 35.532 381.511 35.3906L379.549 34.9005ZM382.72 38.1354C382.458 39.1821 383.095 40.2426 384.142 40.504C387.006 41.2194 388.747 40.3389 389.365 37.8626C389.984 35.3864 388.861 33.7906 385.997 33.0752C384.95 32.8138 383.89 33.4503 383.629 34.4971L382.72 38.1354ZM390.437 41.0218C389.871 40.8805 389.527 40.3071 389.668 39.7412C389.809 39.1753 390.383 38.8311 390.949 38.9725L392.911 39.4626C393.477 39.604 393.821 40.1773 393.68 40.7432C393.538 41.3091 392.965 41.6533 392.399 41.512L390.437 41.0218ZM391.236 37.8197C390.671 37.6784 390.326 37.1051 390.468 36.5391C390.609 35.9732 391.182 35.6291 391.748 35.7704L393.711 36.2606C394.276 36.4019 394.621 36.9753 394.479 37.5412C394.338 38.1071 393.765 38.4512 393.199 38.3099L391.236 37.8197Z" fill="#D1AC19"/>
    <path d="M158.262 112.699C157.71 113.152 156.895 113.072 156.442 112.52C155.989 111.968 156.07 111.154 156.621 110.701L156.951 110.43C157.685 109.828 157.791 108.745 157.189 108.011L148.65 97.6061C148.048 96.8723 146.965 96.7657 146.231 97.368L145.902 97.6383C145.35 98.0912 144.535 98.011 144.082 97.4592C143.63 96.9073 143.71 96.0928 144.262 95.6399L149.977 90.949C152.015 89.2762 153.939 88.4558 155.751 88.4878C157.581 88.5042 159.21 89.3813 160.636 91.1191C162.078 92.8762 162.636 94.6637 162.311 96.4817C162.005 98.284 160.833 100.022 158.795 101.694C157.817 102.497 157.674 103.941 158.477 104.92L159.158 105.749C159.935 106.696 161.333 106.834 162.279 106.057L162.994 105.47C163.546 105.017 164.361 105.097 164.814 105.649C165.267 106.201 165.186 107.015 164.634 107.468L158.262 112.699ZM151.264 102.98C150.752 103.4 149.997 103.326 149.577 102.814C149.157 102.302 149.231 101.546 149.743 101.126L151.518 99.6694C152.03 99.2493 152.785 99.3237 153.205 99.8356C153.625 100.347 153.551 101.103 153.039 101.523L151.264 102.98ZM148.887 100.084C148.375 100.504 147.62 100.429 147.2 99.9175C146.78 99.4056 146.854 98.6501 147.366 98.23L149.141 96.7731C149.653 96.353 150.408 96.4274 150.828 96.9393C151.248 97.4511 151.174 98.2066 150.662 98.6268L148.887 100.084ZM153.981 99.3831C154.758 100.33 156.156 100.467 157.103 99.6904C159.693 97.5642 160.069 95.3812 158.231 93.1414C156.393 90.9015 154.179 90.8447 151.588 92.9709C150.641 93.748 150.504 95.1455 151.281 96.0924L153.981 99.3831ZM161.835 94.3032C161.323 94.7233 160.568 94.6489 160.148 94.137C159.728 93.6252 159.802 92.8697 160.314 92.4495L162.089 90.9927C162.601 90.5725 163.356 90.6469 163.776 91.1588C164.196 91.6707 164.122 92.4262 163.61 92.8463L161.835 94.3032ZM159.458 91.4069C158.947 91.827 158.191 91.7526 157.771 91.2407C157.351 90.7289 157.425 89.9733 157.937 89.5532L159.712 88.0963C160.224 87.6762 160.979 87.7506 161.4 88.2625C161.82 88.7744 161.745 89.5299 161.233 89.95L159.458 91.4069Z" fill="#D1AC19"/>
    <path d="M209.365 133.846C208.964 134.027 208.491 133.848 208.309 133.447C208.128 133.045 208.307 132.572 208.709 132.391L208.949 132.282C209.483 132.041 209.721 131.413 209.479 130.878L206.061 123.301C205.819 122.767 205.191 122.529 204.657 122.771L204.417 122.879C204.015 123.06 203.542 122.881 203.361 122.48C203.179 122.078 203.358 121.605 203.76 121.424L207.922 119.545C209.406 118.876 210.685 118.696 211.76 119.006C212.849 119.31 213.679 120.095 214.25 121.36C214.827 122.64 214.873 123.796 214.387 124.827C213.914 125.853 212.936 126.7 211.452 127.37C210.74 127.691 210.423 128.53 210.744 129.242L211.017 129.846C211.328 130.536 212.139 130.842 212.829 130.531L213.349 130.296C213.751 130.115 214.224 130.294 214.405 130.695C214.587 131.097 214.408 131.57 214.006 131.751L209.365 133.846ZM206.755 126.926C206.383 127.094 205.944 126.928 205.776 126.555C205.608 126.183 205.774 125.744 206.146 125.576L207.439 124.993C207.811 124.825 208.25 124.99 208.418 125.363C208.586 125.736 208.421 126.174 208.048 126.343L206.755 126.926ZM205.804 124.817C205.431 124.985 204.992 124.819 204.824 124.446C204.656 124.074 204.822 123.635 205.195 123.467L206.487 122.884C206.86 122.715 207.298 122.881 207.466 123.254C207.635 123.627 207.469 124.065 207.096 124.233L205.804 124.817ZM208.954 125.218C209.265 125.908 210.076 126.214 210.765 125.903C212.652 125.052 213.227 123.811 212.491 122.18C211.755 120.549 210.444 120.159 208.557 121.01C207.868 121.321 207.561 122.132 207.872 122.822L208.954 125.218ZM214.453 123.452C214.08 123.62 213.642 123.454 213.474 123.081C213.306 122.709 213.471 122.27 213.844 122.102L215.137 121.519C215.509 121.35 215.948 121.516 216.116 121.889C216.284 122.262 216.118 122.7 215.746 122.868L214.453 123.452ZM213.501 121.343C213.129 121.511 212.69 121.345 212.522 120.972C212.354 120.6 212.52 120.161 212.892 119.993L214.185 119.41C214.558 119.241 214.996 119.407 215.164 119.78C215.332 120.153 215.167 120.591 214.794 120.759L213.501 121.343Z" fill="#D1AC19"/>
    <path d="M363.647 156.706L240.453 116.729C237.082 115.636 235.219 111.983 236.313 108.613L261.046 32.4522C262.14 29.0824 265.794 27.2197 269.164 28.3132L392.358 68.289C395.73 69.3837 397.593 73.0364 396.498 76.4064L371.765 152.567C370.671 155.937 367.017 157.8 363.647 156.706Z" fill="#E1005F"/>
    <path d="M363.647 156.712C327.722 145.053 291.796 133.396 255.87 121.738C275.516 95.5355 295.162 69.3319 314.806 43.1297L392.358 68.2942C392.771 68.4297 394.92 69.1806 396.103 71.4998C396.853 72.9713 397.044 74.7267 396.497 76.4116L371.765 152.573C370.671 155.942 367.017 157.805 363.647 156.712Z" fill="#FF007F"/>
    <path d="M274.444 87.9398L258.583 82.7933C257.18 82.3379 256.405 80.816 256.86 79.4138L260.548 68.0553C261.003 66.6531 262.524 65.878 263.928 66.3332L279.789 71.4798C281.193 71.935 281.968 73.4556 281.513 74.8591L277.825 86.2163C277.369 87.6199 275.848 88.395 274.444 87.9398Z" fill="white"/>
    <path d="M266.603 85.3933L266.261 85.289L271.318 68.7367L271.659 68.8398L266.603 85.3933Z" fill="#E1005F"/>
    <path d="M280.452 78.1035L259.442 71.4718L259.549 71.1311L280.56 77.7626L280.452 78.1035ZM278.763 83.4542L257.709 76.8092L257.817 76.4685L278.87 83.1135L278.763 83.4542Z" fill="#E1005F"/>
    <path d="M361.74 126.988C364.534 130.953 363.584 136.433 359.618 139.228C355.651 142.023 350.17 141.073 347.376 137.108C344.582 133.142 345.534 127.662 349.5 124.868C353.467 122.073 358.947 123.022 361.74 126.988Z" fill="#E1005F"/>
    <defs>
        <linearGradient id="paint0_linear_0_1" x1="171.988" y1="36.1952" x2="47.9883" y2="57.205" gradientUnits="userSpaceOnUse">
            <stop stop-color="#ABDDE2"/>
            <stop offset="1" stop-color="#EEEAEB"/>
        </linearGradient>
        <linearGradient id="paint1_linear_0_1" x1="45.1613" y1="51.1972" x2="-13.2317" y2="59.2878" gradientUnits="userSpaceOnUse">
            <stop stop-color="#ABDDE2"/>
            <stop offset="1" stop-color="#EEEAEB"/>
        </linearGradient>
        <linearGradient id="paint2_linear_0_1" x1="242.108" y1="-13.6406" x2="295.443" y2="281.58" gradientUnits="userSpaceOnUse">
            <stop stop-color="#B0E4E1"/>
            <stop offset="0.25" stop-color="#B0E4E1"/>
            <stop offset="0.375" stop-color="#B0E4E1"/>
            <stop offset="0.390625" stop-color="#B1E5E1"/>
            <stop offset="0.394531" stop-color="#B2E5E2"/>
            <stop offset="0.398438" stop-color="#B4E5E2"/>
            <stop offset="0.402344" stop-color="#B5E5E2"/>
            <stop offset="0.40625" stop-color="#B6E5E2"/>
            <stop offset="0.410156" stop-color="#B7E5E3"/>
            <stop offset="0.414063" stop-color="#B8E6E3"/>
            <stop offset="0.417969" stop-color="#B9E6E3"/>
            <stop offset="0.421875" stop-color="#BBE6E3"/>
            <stop offset="0.425781" stop-color="#BCE6E3"/>
            <stop offset="0.429688" stop-color="#BDE6E4"/>
            <stop offset="0.433594" stop-color="#BEE6E4"/>
            <stop offset="0.4375" stop-color="#BFE6E4"/>
            <stop offset="0.441406" stop-color="#C1E7E4"/>
            <stop offset="0.445312" stop-color="#C2E7E4"/>
            <stop offset="0.449219" stop-color="#C3E7E5"/>
            <stop offset="0.453125" stop-color="#C4E7E5"/>
            <stop offset="0.457031" stop-color="#C6E7E5"/>
            <stop offset="0.460938" stop-color="#C7E7E5"/>
            <stop offset="0.464844" stop-color="#C8E8E6"/>
            <stop offset="0.46875" stop-color="#C9E8E6"/>
            <stop offset="0.472656" stop-color="#CAE8E6"/>
            <stop offset="0.476563" stop-color="#CCE8E6"/>
            <stop offset="0.480469" stop-color="#CDE8E6"/>
            <stop offset="0.484375" stop-color="#CEE8E7"/>
            <stop offset="0.488281" stop-color="#CFE8E7"/>
            <stop offset="0.492188" stop-color="#D0E9E7"/>
            <stop offset="0.496094" stop-color="#D2E9E7"/>
            <stop offset="0.5" stop-color="#D3E9E7"/>
            <stop offset="0.503906" stop-color="#D4E9E8"/>
            <stop offset="0.507812" stop-color="#D5E9E8"/>
            <stop offset="0.511719" stop-color="#D7E9E8"/>
            <stop offset="0.515625" stop-color="#D8E9E8"/>
            <stop offset="0.519531" stop-color="#D9E9E9"/>
            <stop offset="0.523438" stop-color="#DAEAE9"/>
            <stop offset="0.527344" stop-color="#DBEAE9"/>
            <stop offset="0.53125" stop-color="#DDEAE9"/>
            <stop offset="0.535156" stop-color="#DEEAEA"/>
            <stop offset="0.539062" stop-color="#DFEAEA"/>
            <stop offset="0.542969" stop-color="#E0EAEA"/>
            <stop offset="0.546875" stop-color="#E2EAEA"/>
            <stop offset="0.550781" stop-color="#E3EAEA"/>
            <stop offset="0.554688" stop-color="#E4EAEB"/>
            <stop offset="0.558594" stop-color="#E5EBEB"/>
            <stop offset="0.5625" stop-color="#E6EBEB"/>
            <stop offset="0.566406" stop-color="#E8EBEB"/>
            <stop offset="0.570313" stop-color="#E9EBEC"/>
            <stop offset="0.574219" stop-color="#EAEBEC"/>
            <stop offset="0.578125" stop-color="#EBEBEC"/>
            <stop offset="0.582031" stop-color="#EDEBEC"/>
            <stop offset="0.585938" stop-color="#EEEBED"/>
            <stop offset="0.589844" stop-color="#EFEBED"/>
            <stop offset="0.59375" stop-color="#F0ECED"/>
            <stop offset="0.625" stop-color="#F0ECED"/>
            <stop offset="0.75" stop-color="#F0ECED"/>
            <stop offset="1" stop-color="#F0ECED"/>
        </linearGradient>
    </defs>
</svg>
