<svg width="250" height="267" viewBox="0 0 250 267" fill="none" xmlns="http://www.w3.org/2000/svg">
    <ellipse cx="48.6439" cy="47.0942" rx="30.4716" ry="26.9433" transform="rotate(91.3335 48.6439 47.0942)" fill="#B9E1E4"/>
    <ellipse cx="97.98" cy="11.4574" rx="11.0613" ry="9.74446" transform="rotate(59.8851 97.98 11.4574)" fill="#B9E1E4"/>
    <mask id="mask0_0_1" style="mask-type:luminance" maskUnits="userSpaceOnUse" x="0" y="33" width="250" height="199">
        <path d="M0 33H250V231.798H0V33Z" fill="white"/>
    </mask>
    <g mask="url(#mask0_0_1)">
        <mask id="mask1_0_1" style="mask-type:luminance" maskUnits="userSpaceOnUse" x="0" y="33" width="250" height="199">
            <path d="M118.888 44.6758C105.142 53.6383 106.36 62.2018 99.2062 72.1316C95.3624 77.4682 91.2413 80.5218 88.4718 82.5323C71.8077 94.6185 56.7921 85.4556 35.7492 94.3772C33.9308 95.1479 23.8624 99.5328 15.4718 108.799C-5.11217 131.525 -1.80162 168.36 7.36049 191.721C10.9386 200.847 20.4484 225.091 40.5636 230.476C54.7296 234.27 66.4816 226.656 78.0714 221.273C107.472 207.614 131.114 210.49 152.444 213.365C173.636 216.222 192.548 219.079 212.56 205.716C242.39 185.8 247.724 147.843 248.538 142.019C252.878 111 243.3 69.5606 209.376 47.3792C194.638 37.7433 177.349 33.0762 160.7 33.0781C145.392 33.0781 130.624 37.0232 118.888 44.6758Z" fill="white"/>
        </mask>
        <g mask="url(#mask1_0_1)">
            <path d="M244.705 -11.9531L-40.4766 39.4512L3.0625 279.297L288.244 227.893L244.705 -11.9531Z" fill="url(#paint0_linear_0_1)"/>
        </g>
    </g>
    <path d="M35.7844 246.289C34.8547 246.26 21.9133 245.655 15.4894 234.841C15.0285 234.065 10.5207 226.192 13.1926 216.909C13.9679 214.219 15.4015 209.237 19.7023 206.987C25.0539 204.19 33.1183 206.531 39.2316 213.092C33.4894 209.116 30.3957 202.769 31.5734 197.067C33.3078 188.663 43.55 185.389 50.3351 185.621C61.7355 186.008 67.6066 196.434 67.9484 197.067C71.3683 203.384 70.4679 209.558 70.0187 212.36C68.5344 221.619 62.6984 227.308 60.675 229.118C63.6183 221.173 70.8762 216.259 77.9054 216.909C86.716 217.722 90.9074 226.883 91.6906 228.736C94.339 235.017 93.0265 240.805 92.4562 242.854C73.5656 243.999 54.675 245.145 35.7844 246.289Z" fill="#F9AF87"/>
    <path d="M49.5007 255.709C46.0671 251.867 42.1999 246.721 38.907 240.145C31.4832 225.319 31.0574 211.348 31.4402 203.684C33.6023 203.394 36.53 202.586 38.9656 200.338C40.7527 198.686 42.8406 195.736 42.0339 194.587C41.4285 193.729 39.4207 194.19 38.9949 194.288C34.821 195.247 32.7957 200.013 32.3074 201.261C32.4578 200.424 32.7527 199.21 33.3894 197.863C33.9578 196.664 34.5242 195.934 35.1765 195.033C36.6726 192.962 37.7429 191.481 38.5007 189.873C39.7117 187.306 40.4753 183.69 39.2898 182.927C39.0496 182.774 38.7976 182.777 38.6335 182.783C36.3874 182.849 34.7351 187.608 34.4441 188.447C33.3738 191.524 33.7898 192.699 32.7175 197.176C32.3171 198.853 31.8972 200.198 31.6179 201.041C31.8464 199.568 31.9636 197.096 30.5984 194.85C30.4304 194.574 28.8699 192.059 27.5847 192.382C26.9285 192.548 26.6179 193.381 26.5007 193.696C25.3074 196.899 29.6999 202.257 30.7058 203.452C30.1609 210.208 30.1414 221.469 34.5613 234.326C37.8171 243.8 42.3777 250.92 45.9714 255.639C47.1472 255.663 48.3249 255.686 49.5007 255.709Z" fill="#F03C65"/>
    <path d="M40.8189 246.39C35.9185 240.907 30.3989 233.562 25.6997 224.179C15.106 203.02 14.4966 183.081 15.0435 172.143C18.1294 171.73 22.3091 170.578 25.7837 167.368C28.3345 165.012 31.315 160.8 30.1607 159.161C29.2993 157.937 26.4321 158.595 25.8228 158.735C19.8677 160.103 16.979 166.905 16.2818 168.684C16.4946 167.491 16.9146 165.759 17.8247 163.836C18.6353 162.125 19.4458 161.084 20.3755 159.798C22.5103 156.843 24.0376 154.728 25.1196 152.433C26.8482 148.77 27.9361 143.611 26.2446 142.523C25.9048 142.303 25.5435 142.309 25.3111 142.314C22.104 142.41 19.7446 149.2 19.3286 150.397C17.8032 154.79 18.395 156.468 16.8677 162.853C16.2935 165.251 15.6958 167.168 15.2954 168.373C15.6236 166.269 15.7896 162.74 13.8404 159.537C13.6021 159.142 11.3755 155.551 9.53957 156.014C8.60402 156.25 8.16066 157.439 7.99465 157.888C6.28957 162.46 12.5591 170.109 13.9966 171.812C13.2173 181.453 13.19 197.526 19.4986 215.875C24.145 229.393 30.6529 239.557 35.7798 246.291L40.8189 246.39Z" fill="#F03C65"/>
    <path d="M93.2187 128.643C93.2187 137.484 86.0254 144.654 77.1523 144.654C68.2793 144.654 61.0859 137.484 61.0859 128.643C61.0859 119.803 68.2793 112.633 77.1523 112.633C86.0254 112.633 93.2187 119.803 93.2187 128.643Z" fill="#C9AE17"/>
    <path d="M92.0059 126.682C92.0059 135.524 84.8144 142.692 75.9395 142.692C67.0664 142.692 59.875 135.524 59.875 126.682C59.875 117.84 67.0664 110.672 75.9395 110.672C84.8144 110.672 92.0059 117.84 92.0059 126.682Z" fill="#ECE90D"/>
    <path d="M78.0769 115.995C79.7234 116.136 81.2234 116.671 81.2234 116.671C82.3328 117.066 83.2019 117.558 83.8191 117.963C82.9382 117.181 81.3464 115.986 79.0574 115.363C78.9148 115.324 78.0808 115.1 77.1375 115.013C74.5359 114.769 70.1003 115.466 67.114 118.973C64.8425 121.641 64.5457 124.6 64.4597 125.587C64.1843 128.757 65.2234 131.176 65.7371 132.2C65.2761 131.161 64.2019 128.354 64.9519 124.901C65.4617 122.548 66.5789 120.991 66.905 120.559C70.2097 116.169 75.8503 115.807 78.0769 115.995ZM86.8269 130.045C86.2195 131.474 84.5574 134.635 80.9421 136.384C77.7527 137.928 74.7644 137.54 73.032 137.315C71.6043 137.13 70.4363 136.785 69.6062 136.489C74.4675 139.06 80.1628 138.566 83.8445 135.341C87.4246 132.204 87.6824 127.72 87.7156 126.778C87.6101 127.583 87.3796 128.745 86.8269 130.045Z" fill="#CAAA17"/>
    <path d="M173.454 171.39C172.763 169.214 171.86 166.6 170.702 163.681C169.13 159.724 168.087 157.1 166.355 154.043C162.523 147.283 160.005 146.684 159.644 142.607C159.585 141.953 159.231 137.256 162.189 135.406C164.392 134.026 167.626 134.728 169.585 136.182C172.323 138.216 172.009 141.305 173.937 141.608C175.304 141.826 176.993 140.509 177.439 139.02C178.132 136.694 175.708 134.247 173.759 132.005C173.759 132.005 168.659 126.141 164.786 118.442C160.849 110.612 160.181 99.1002 165.028 96.0601C167.286 94.6433 170.612 95.1473 172.692 96.3832C175.415 98.0044 176.78 101.959 179.399 109.801C180.72 113.759 181.149 115.637 181.987 115.649C183.581 115.676 184.872 108.905 185.067 107.886C186.89 98.3275 184.524 95.0695 185.038 87.5959C185.753 77.1601 191.562 66.0256 197.075 65.866C198.579 65.8232 199.708 66.6075 200.696 67.316C210.146 74.0792 206.771 94.5693 205.304 103.473C204.892 105.97 204.476 107.782 204.044 109.363C202.138 116.371 199.189 121.706 196.899 125.207C202.274 118.802 204.858 112.969 206.228 108.82C209.567 98.6876 208.474 90.0268 213.153 88.2907C215.509 87.4168 218.073 88.7597 218.427 88.9524C221.616 90.6768 222.464 94.507 222.944 96.8308C223.497 99.5108 224.237 105.519 220.579 114.226C216.177 124.709 208.663 131.34 203.778 134.884C209.052 130.1 213.976 127.126 217.593 125.279C224.19 121.91 226.278 122.368 227.337 123.107C229.05 124.304 229.099 126.951 229.118 128.023C229.302 138.008 209.896 155.919 205.7 159.726C209.091 157.892 214.116 156.016 219.601 157.028C221.171 157.32 224.028 157.848 224.628 159.629C225.335 161.729 222.532 164.451 220.417 166.328C216.788 169.55 209.521 175.317 195.792 182.82C188.347 179.009 180.899 175.2 173.454 171.39ZM161.661 169.696C161.601 167.11 161.605 163.978 161.774 160.423C162.005 155.606 162.157 152.412 162.892 148.5C164.515 139.851 166.991 138.288 165.88 133.784C165.702 133.06 164.353 127.897 160.499 126.99C157.63 126.317 154.419 128.251 152.855 130.526C150.665 133.708 152.14 136.904 150.185 137.936C148.798 138.667 146.501 137.873 145.476 136.437C143.876 134.199 145.577 130.688 146.841 127.572C146.841 127.572 150.151 119.419 151.474 109.746C152.815 99.9118 149.296 87.3234 142.98 85.8326C140.036 85.1397 136.655 86.8933 134.878 88.9797C132.556 91.7122 132.546 96.4513 132.624 105.819C132.663 110.548 132.892 112.718 131.999 113.039C130.3 113.648 126.425 106.86 125.839 105.836C120.368 96.2528 121.704 91.8952 118.405 84.0673C113.798 73.1372 103.472 63.3184 97.501 65.1615C95.8721 65.6656 94.9502 66.9189 94.1495 68.04C86.5069 78.7443 97.6651 99.4836 102.515 108.497C103.874 111.027 104.987 112.817 106.03 114.355C110.655 121.173 115.78 125.818 119.524 128.736C111.403 123.829 106.483 118.52 103.491 114.569C96.1807 104.925 94.167 95.2349 88.5088 95.0851C85.6631 95.0091 83.4073 97.3855 83.0967 97.7203C80.3116 100.733 80.8116 105.153 81.1514 107.819C81.544 110.896 82.962 117.609 90.0889 125.612C98.667 135.244 109.165 139.609 115.706 141.628C108.29 138.422 101.917 137.033 97.3565 136.373C89.042 135.17 86.9737 136.423 86.1085 137.605C84.712 139.512 85.6338 142.369 86.0069 143.527C89.4854 154.302 116.888 166.419 122.788 168.971C118.476 168.243 112.396 168.066 106.888 171.156C105.31 172.042 102.44 173.651 102.452 175.78C102.466 178.291 106.474 180.187 109.433 181.427C114.509 183.556 124.427 187.084 141.909 190.117C148.493 183.31 155.077 176.502 161.661 169.696Z" fill="#F29A72"/>
    <path d="M239.412 59.6944C239.412 71.1364 230.104 80.4122 218.619 80.4122C207.137 80.4122 197.828 71.1364 197.828 59.6944C197.828 48.2524 207.137 38.9766 218.619 38.9766C230.104 38.9766 239.412 48.2524 239.412 59.6944Z" fill="#C9AE17"/>
    <path d="M237.855 57.1553C237.855 68.5973 228.547 77.8751 217.064 77.8751C205.582 77.8751 196.273 68.5973 196.273 57.1553C196.273 45.7133 205.582 36.4375 217.064 36.4375C228.547 36.4375 237.855 45.7133 237.855 57.1553Z" fill="#ECE90D"/>
    <path d="M219.821 43.3218C221.951 43.5028 223.893 44.1957 223.893 44.1957C225.326 44.7095 226.453 45.344 227.252 45.8675C226.112 44.8554 224.051 43.3101 221.09 42.5044C220.905 42.4538 219.824 42.1638 218.604 42.049C215.239 41.7337 209.498 42.6367 205.635 47.1754C202.696 50.628 202.309 54.4563 202.199 55.735C201.844 59.8357 203.188 62.9672 203.852 64.2926C203.256 62.9458 201.865 59.3161 202.834 54.8455C203.494 51.8016 204.942 49.7872 205.364 49.2287C209.641 43.5456 216.94 43.0766 219.821 43.3218ZM231.145 61.5037C230.36 63.3526 228.205 67.4436 223.528 69.7071C219.401 71.704 215.533 71.2018 213.291 70.9118C211.444 70.6724 209.932 70.2267 208.86 69.8433C215.149 73.1714 222.52 72.5311 227.283 68.3564C231.918 64.2965 232.252 58.4948 232.295 57.2745C232.158 58.3157 231.86 59.8221 231.145 61.5037Z" fill="#CAAA17"/>
    <path d="M169.028 235.504C168.747 233.238 168.339 230.506 167.732 227.425C166.909 223.25 166.362 220.481 165.216 217.16C162.683 209.819 160.317 208.772 160.706 204.698C160.769 204.045 161.278 199.364 164.525 198.079C166.942 197.122 169.995 198.398 171.655 200.185C173.976 202.68 173.105 205.66 174.942 206.308C176.247 206.769 178.15 205.781 178.859 204.397C179.966 202.236 178.028 199.391 176.523 196.834C176.523 196.834 172.579 190.142 170.177 181.869C167.734 173.455 169.179 162.015 174.499 159.906C176.98 158.921 180.157 160.018 181.978 161.612C184.359 163.699 184.98 167.835 186.122 176.022C186.698 180.154 186.778 182.079 187.599 182.243C189.163 182.558 191.667 176.135 192.046 175.166C195.583 166.099 193.853 162.467 195.722 155.209C198.331 145.079 206.075 135.182 211.525 136.027C213.013 136.257 213.98 137.234 214.823 138.11C222.878 146.473 215.817 166.007 212.749 174.497C211.89 176.879 211.148 178.584 210.437 180.061C207.282 186.606 203.407 191.318 200.517 194.344C206.972 189.02 210.579 183.753 212.681 179.923C217.816 170.565 218.323 161.848 223.241 160.992C225.716 160.56 227.993 162.344 228.306 162.597C231.126 164.87 231.261 168.792 231.31 171.165C231.364 173.899 230.993 179.942 225.808 187.84C219.564 197.349 210.964 202.507 205.515 205.107C211.573 201.359 216.958 199.329 220.853 198.167C227.954 196.049 229.923 196.878 230.831 197.799C232.296 199.286 231.86 201.898 231.685 202.955C230.04 212.807 207.687 226.899 202.868 229.883C206.536 228.694 211.821 227.76 217.028 229.751C218.521 230.321 221.232 231.358 221.497 233.219C221.81 235.412 218.556 237.58 216.134 239.044C211.978 241.553 203.778 245.906 188.909 250.795C182.282 245.698 175.655 240.601 169.028 235.504Z" fill="#F9AF87"/>
    <path d="M221.687 251.41C222.185 248.643 222.683 245.875 223.181 243.108C226.179 242.265 230.154 240.539 233.14 236.872C235.332 234.182 237.687 229.593 236.314 228.133C235.285 227.041 232.541 228.096 231.959 228.32C226.256 230.511 224.357 237.65 223.918 239.511C223.961 238.298 224.133 236.525 224.761 234.494C225.322 232.685 225.976 231.541 226.715 230.138C228.41 226.911 229.625 224.603 230.371 222.18C231.562 218.31 231.912 213.05 230.084 212.209C229.715 212.04 229.359 212.096 229.129 212.135C225.967 212.68 224.592 219.733 224.349 220.977C223.461 225.541 224.283 227.119 223.674 233.655C223.445 236.109 223.125 238.092 222.898 239.34C222.925 237.21 222.592 233.696 220.209 230.796C219.916 230.439 217.205 227.197 215.453 227.913C214.56 228.277 214.289 229.517 214.187 229.986C213.146 234.75 220.435 241.442 222.099 242.927C221.654 244.491 220.986 246.317 219.959 248.25C219.457 249.192 218.933 250.042 218.416 250.797C219.506 251.002 220.597 251.206 221.687 251.41Z" fill="#F03C65"/>
    <path d="M241.785 253.664C241.785 261.03 189.092 267 124.092 267C59.0918 267 6.39844 261.03 6.39844 253.664C6.39844 246.299 59.0918 240.328 124.092 240.328C189.092 240.328 241.785 246.299 241.785 253.664Z" fill="#B0E4E1"/>
    <path d="M59.7918 101.508C63.3601 115.145 55.157 129.082 41.4715 132.638C27.7859 136.194 13.7996 128.019 10.2332 114.382C6.66483 100.745 14.866 86.8075 28.5515 83.2537C42.2371 79.6979 56.2234 87.8702 59.7918 101.508Z" fill="#C9AE17"/>
    <path d="M57.1367 98.9763C60.7031 112.614 52.5019 126.551 38.8164 130.107C25.1308 133.662 11.1445 125.488 7.57615 111.851C4.00974 98.2134 12.2109 84.2763 25.8965 80.7224C39.582 77.1666 53.5683 85.3389 57.1367 98.9763Z" fill="#ECE90D"/>
    <path d="M31.3293 88.0642C33.925 87.6205 36.4562 87.8462 36.4562 87.8462C38.3254 88.0117 39.8664 88.4204 40.9816 88.7979C39.3058 87.9455 36.3683 86.7408 32.5871 86.696C32.3507 86.694 30.9738 86.6824 29.4836 86.9237C25.3742 87.5913 18.8136 90.4425 15.6242 97.05C13.1964 102.073 13.9308 106.758 14.1984 108.313C15.0539 113.313 17.632 116.627 18.8371 118.001C17.7082 116.583 14.9171 112.684 14.6789 107.06C14.5168 103.225 15.6144 100.378 15.9406 99.5802C19.2668 91.4838 27.8214 88.6636 31.3293 88.0642ZM50.4953 106.227C50.1359 108.675 48.8449 114.216 43.9757 118.363C39.6789 122.02 34.9152 122.62 32.1515 122.968C29.8742 123.254 27.9347 123.192 26.5343 123.068C35.0695 125.086 43.6554 122.04 48.0304 115.592C52.2882 109.317 50.8761 102.299 50.548 100.832C50.7101 102.116 50.8234 104 50.4953 106.227Z" fill="#CAAA17"/>
    <path d="M201.871 255.565L121.912 253.152C116.953 253.002 113.018 248.835 113.168 243.894L114.561 198.108C114.711 193.167 118.893 189.245 123.852 189.395L203.809 191.81C208.77 191.96 212.703 196.125 212.553 201.066L211.162 246.852C211.012 251.793 206.83 255.715 201.871 255.565Z" fill="#3D3C3D"/>
    <path d="M206.453 255.708C180.465 254.924 154.475 254.14 128.484 253.355C136.418 232.322 144.354 211.291 152.287 190.258C170.988 190.822 189.689 191.389 208.393 191.953C208.691 191.963 210.256 192.044 211.484 193.345C212.264 194.17 212.729 195.291 212.693 196.505L211.021 251.425C210.949 253.853 208.893 255.782 206.453 255.708Z" fill="#5F6062"/>
    <g opacity="0.4">
        <mask id="mask2_0_1" style="mask-type:luminance" maskUnits="userSpaceOnUse" x="113" y="229" width="99" height="27">
            <path d="M113 229.68H211.645V255.892H113V229.68Z" fill="white"/>
        </mask>
        <g mask="url(#mask2_0_1)">
            <path d="M206.372 255.65L122.185 253.222C116.185 253.035 112.81 247.803 113.184 243.506C113.378 237.182 113.384 236.003 113.575 229.68C146.265 229.861 178.954 230.044 211.642 230.227C211.425 237.354 211.21 244.481 210.991 251.608C210.991 251.637 210.989 251.665 210.987 251.694C210.909 252.805 210.423 253.556 210.122 253.969C209.409 254.952 208.06 255.65 206.372 255.65Z" fill="#DEDCDB"/>
        </g>
    </g>
    <path d="M184.745 180.538L109.478 207.533C104.81 209.206 99.6143 206.77 97.9346 202.118L82.3662 159.018C80.6865 154.367 83.1318 149.19 87.7998 147.516L163.067 120.522C167.737 118.846 172.931 121.283 174.612 125.936L190.179 169.034C191.858 173.687 189.413 178.862 184.745 180.538Z" fill="#8DCB24"/>
    <path d="M189.061 178.995C164.596 187.769 140.131 196.543 115.664 205.319C115.299 182.853 114.934 160.385 114.57 137.92C132.174 131.606 149.779 125.293 167.383 118.979C167.664 118.878 169.15 118.382 170.773 119.142C171.803 119.625 172.646 120.497 173.061 121.641L191.732 173.338C192.559 175.627 191.357 178.17 189.061 178.995Z" fill="#33AB40"/>
    <path d="M191.875 175.796C191.391 177.888 189.506 178.823 189.23 178.953C173.867 184.449 158.504 189.947 143.141 195.444C143.264 172.811 143.389 150.176 143.512 127.541C155.758 122.79 164.898 119.565 167.383 118.979C169.012 118.594 170.057 118.808 170.773 119.143C171.801 119.625 172.646 120.497 173.061 121.642L191.732 173.338C191.887 173.79 192.127 174.708 191.875 175.796Z" fill="#4EABD1"/>
    <g opacity="0.4">
        <mask id="mask3_0_1" style="mask-type:alpha" maskUnits="userSpaceOnUse" x="114" y="118" width="78" height="88">
            <path d="M188.99 178.964C164.525 187.738 140.061 196.512 115.594 205.287C115.229 182.822 114.863 160.354 114.5 137.889C132.104 131.575 149.709 125.261 167.312 118.948C167.594 118.847 169.08 118.35 170.703 119.111C171.732 119.594 172.576 120.466 172.99 121.61L191.662 173.306C192.488 175.595 191.287 178.139 188.99 178.964Z" fill="#4EABD1"/>
        </mask>
        <g mask="url(#mask3_0_1)">
            <path d="M187.812 149.156L115.25 207.263L201.875 185.59L187.812 149.156Z" fill="#D9D9D9"/>
        </g>
    </g>
    <path d="M109.711 179.823L102.502 182.408C100.559 183.104 98.3966 182.09 97.6973 180.154L96.2052 176.024C95.5059 174.088 96.5235 171.933 98.4669 171.234L105.676 168.65C107.619 167.953 109.783 168.967 110.483 170.903L111.975 175.033C112.674 176.97 111.656 179.124 109.711 179.823Z" fill="#E7E8E6"/>
    <path d="M106.173 181.096L105.943 181.181L101.711 170.08L101.941 169.992L106.173 181.096Z" fill="#696B6C"/>
    <path d="M110.629 171.316L96.3984 176.549L96.3125 176.319L110.543 171.086L110.629 171.316ZM111.967 174.928L97.707 180.171L97.6211 179.941L111.881 174.698L111.967 174.928Z" fill="#696B6C"/>
    <path d="M115.859 150.969L92.7829 159.245C91.5134 159.7 90.1012 159.039 89.6442 157.774C89.1872 156.509 89.8532 155.101 91.1227 154.646L114.197 146.37C115.466 145.915 116.879 146.577 117.336 147.842C117.793 149.107 117.127 150.514 115.859 150.969Z" fill="#F5F8F3"/>
    <path d="M175.994 118.937C174.02 119.597 171.862 118.527 171.2 116.559C170.537 114.591 171.612 112.441 173.586 111.781C175.561 111.121 177.717 112.192 178.381 114.159C179.043 116.127 177.969 118.275 175.994 118.937ZM167.42 121.802C165.446 122.464 163.287 121.393 162.625 119.426C161.963 117.458 163.037 115.307 165.012 114.648C166.987 113.988 169.145 115.056 169.807 117.024C170.469 118.994 169.395 121.142 167.42 121.802Z" fill="#E4F082"/>
    <path d="M155.454 130.776L117.064 118.625C116.017 118.294 115.433 117.171 115.765 116.128C116.097 115.085 117.226 114.503 118.271 114.836L156.662 126.984C157.708 127.315 158.292 128.438 157.96 129.481C157.628 130.523 156.499 131.107 155.454 130.776Z" fill="white"/>
    <path d="M201.597 132.297C203.671 135.07 203.097 138.996 200.314 141.064C197.529 143.133 193.589 142.561 191.513 139.786C189.437 137.012 190.011 133.085 192.796 131.016C195.582 128.947 199.521 129.521 201.597 132.297Z" fill="#E4F082"/>
    <path d="M203.023 247.626L180.355 246.941C179.007 246.9 177.937 245.767 177.978 244.424C178.019 243.081 179.155 242.015 180.503 242.056L203.171 242.739C204.521 242.78 205.589 243.913 205.548 245.257C205.509 246.6 204.372 247.667 203.023 247.626Z" fill="white"/>
    <path d="M168.878 246.589C167.53 246.548 166.46 245.416 166.501 244.073C166.542 242.73 167.679 241.663 169.026 241.704C170.376 241.745 171.444 242.878 171.403 244.221C171.362 245.564 170.227 246.63 168.878 246.589Z" fill="#E4F082"/>
    <path d="M58.1755 161.405C59.3083 161.911 62.0681 162.96 65.6345 162.497C69.113 162.044 71.4704 160.397 72.445 159.628C72.6521 158.984 73.8943 154.899 71.5134 150.862C68.7302 146.147 63.4509 145.648 62.9587 145.609C61.4509 147.832 59.4919 151.376 58.6208 156.072C58.2536 158.052 58.1501 159.856 58.1755 161.405Z" fill="#58291B"/>
    <path d="M64.3398 159.186C64.2422 159.564 63.8906 161.115 64.7441 162.74C65.7383 164.632 67.5977 165.163 67.9062 165.245C67.7187 165.692 66.8672 167.582 64.9062 168.275C62.5859 169.092 59.627 167.907 58.0156 165.204C58.4277 165.093 59.0898 164.863 59.7578 164.355C61.1855 163.271 61.5723 161.726 61.7051 161.165C61.8203 160.673 61.9512 159.834 61.7852 158.781C62.6367 158.916 63.4883 159.05 64.3398 159.186ZM89.418 188.565C89.8555 188.779 90.4883 189.077 91.2617 189.409C92.793 190.067 93.5586 190.396 94.2246 190.534C94.8926 190.674 96.9316 191.003 99.0137 189.993C99.6113 189.703 100.059 189.378 100.348 189.143C100.23 189.084 100.051 188.999 99.8242 188.909C98.5566 188.413 97.5937 188.506 96.498 188.419C95.9004 188.37 95.0449 188.249 94.0117 187.922C94.707 187.588 95.2852 187.42 95.6934 187.331C96.1191 187.235 96.6348 187.161 96.7012 186.891C96.7305 186.764 96.6523 186.652 96.6445 186.64C96.5254 186.472 96.2676 186.459 95.3867 186.552C94.6582 186.63 94.293 186.669 93.6894 186.815C93.25 186.92 92.7988 187.052 92.2559 187.253C91.5352 187.52 90.5527 187.932 89.418 188.565Z" fill="#F9AF87"/>
    <path d="M73.1335 186.773C73.1921 188.038 73.1804 188.528 73.2546 189.439C73.4264 191.525 73.9088 194.02 75.0376 196.819C74.3267 196.239 73.3932 195.326 72.6961 193.995C71.8954 192.465 71.6278 190.809 72.0262 184.256C72.1043 182.954 72.2196 181.296 72.3895 179.367C72.7097 181.432 73.0027 183.925 73.1335 186.773Z" fill="#8C51AE"/>
    <path d="M91.5279 246.205C93.5807 246.273 94.9674 246.316 95.6256 246.336C97.9225 246.406 98.7799 246.425 99.36 247.091C99.8229 247.618 100.053 248.49 99.7232 249.056C99.401 249.611 98.6373 249.704 97.9186 249.782C97.9186 249.782 93.4811 250.257 89.2467 249.444C88.985 249.393 88.4654 249.284 88.1471 248.862C87.8482 248.463 87.8795 247.986 87.8873 247.76C87.9635 245.596 86.7252 244.81 87.2369 243.288C87.3561 242.93 87.6275 242.369 88.3424 241.797C89.0787 242.488 89.817 243.181 90.5533 243.872C90.8775 244.648 91.2037 245.427 91.5279 246.205ZM61.7799 249.216C63.8307 249.284 65.2174 249.327 65.8775 249.346C68.1744 249.416 69.0299 249.436 69.6119 250.102C70.0728 250.629 70.3053 251.501 69.9752 252.067C69.651 252.622 68.8873 252.715 68.1705 252.793C68.1705 252.793 63.733 253.268 59.4967 252.455C59.2369 252.404 58.7154 252.297 58.3971 251.873C58.1158 251.497 58.1256 251.049 58.1373 250.771C58.1998 249.206 58.483 248.013 58.5924 247.077C58.6529 246.563 58.7018 245.787 58.5924 244.81C59.5689 245.261 60.5436 245.717 61.5201 246.17C61.6061 247.184 61.6939 248.2 61.7799 249.216Z" fill="#28214E"/>
    <path d="M55.3628 194.07C53.8921 197.795 53.4467 200.915 53.3081 203.011C52.9057 209.041 54.4585 215.029 54.9292 216.801C55.4448 218.739 55.81 219.625 55.9565 221.433C56.2319 224.829 55.31 226.23 54.7143 229.566C53.687 235.317 54.7651 240.449 55.7944 245.348C56.146 247.018 56.5092 248.376 56.7671 249.28C58.6674 248.939 60.5698 248.596 62.4702 248.256C62.1772 245.373 62.0757 241.929 62.4702 238.077C63.2299 230.646 65.519 224.745 67.4702 220.786C68.7475 216.614 68.7299 213.332 68.4702 211.09C68.0815 207.743 67.0444 205.789 66.7671 201.396C66.6128 198.959 66.769 196.949 66.9214 195.635C63.0678 195.114 59.2143 194.592 55.3628 194.07Z" fill="#38296F"/>
    <path d="M75.25 196.764C77.168 203.004 79.6797 207.328 81.6836 210.176C83.3047 212.482 85.125 214.578 86.5469 218.361C87.3848 220.592 87.6582 222.392 88.168 225.903C89.3301 233.873 88.5332 236.715 90.6543 241.524C91.291 242.964 91.9395 244.087 92.3809 244.803C91.2109 245.202 89.9375 245.712 88.6016 246.37C87.8867 246.722 87.2207 247.086 86.6016 247.448C86.0742 246.298 85.2773 244.54 84.332 242.386C80.4434 233.529 79.8535 230.644 79.5742 229.027C79.3203 227.563 79.1035 225.712 79.0879 223.533C76.4746 220.82 73.8242 218.101 71.1426 215.374C69.6758 213.883 68.2129 212.404 66.752 210.937C62.9531 205.314 59.1562 199.693 55.3594 194.07C61.9883 194.968 68.6191 195.867 75.25 196.764Z" fill="#38296F"/>
    <path d="M80.4668 222.326C80.6523 226.216 81.6797 235.558 88.8164 242.119C89.9824 243.19 91.1875 244.073 92.3809 244.807C91.2109 245.206 89.9375 245.716 88.6016 246.376C87.8867 246.728 87.2207 247.09 86.6016 247.452C86.0742 246.302 85.2773 244.544 84.332 242.39C80.4434 233.53 79.8535 230.648 79.5742 229.031C79.3203 227.567 79.1035 225.716 79.0879 223.536C76.4707 220.821 73.8223 218.1 71.1426 215.376C70.2949 214.515 69.4492 213.659 68.6016 212.805C72.5566 215.979 76.5117 219.151 80.4668 222.326Z" fill="#28214E"/>
    <path d="M56.7656 249.28C58.668 248.94 60.5684 248.599 62.4688 248.257C61.9023 243.946 62.1367 240.475 62.4688 238.078C62.9102 234.88 63.9316 231.647 65.9551 225.312C67.2773 221.175 67.627 220.863 68.1445 218.687C69.1348 214.52 69.1719 210.933 69.0352 208.506C68.6699 212.07 67.8496 216.581 65.9551 221.515C63.5586 227.757 61.1562 229.993 59.1445 235.976C57.3242 241.39 56.8691 246.143 56.7656 249.28ZM69.1465 195.938C71.1816 196.214 73.2168 196.488 75.252 196.765C75.8535 198.725 76.6562 200.91 77.7383 203.228C79.2656 206.494 80.9629 209.203 82.5293 211.365C80.1055 209.75 76.9121 207.232 73.9004 203.497C71.6953 200.76 70.1816 198.111 69.1465 195.938Z" fill="#28214E"/>
    <path d="M60.0781 154.133C60.2891 157.731 61.2188 160.464 62.541 160.832C63.1719 161.007 63.7266 160.839 63.7266 160.839C64.4883 160.608 64.9395 159.934 65.3184 159.187C66.3418 157.177 66.8184 154.707 67.0117 153.527C66.791 152.967 66.4004 152.165 65.7129 151.346C65.0039 150.499 64.252 149.964 63.7266 149.648C63.0254 150.298 62.2578 151.1 61.498 152.072C60.9355 152.792 60.4668 153.488 60.0781 154.133Z" fill="#F9AF87"/>
    <path d="M63.684 149.85C62.7894 150.584 61.0687 152.209 60.1293 154.862C58.5472 159.327 60.4086 163.238 60.8051 164.029C59.1156 163.316 57.4261 162.602 55.7367 161.888C53.3812 156.08 54.3656 150.222 57.8871 147.425C58.6293 146.836 60.2386 145.783 62.9535 145.609C63.1898 145.732 63.5414 145.921 63.9535 146.168C63.9535 146.168 64.5863 146.549 65.4261 147.17C65.4261 147.17 67.0218 148.361 68.1429 149.607C69.5277 151.146 70.6761 155.475 70.4125 161.039C69.6781 161.718 68.8441 162.415 67.8988 163.1C67.5004 163.388 67.1078 163.657 66.723 163.908C67.1996 162.987 68.35 160.453 67.8988 157.162C67.7621 156.162 67.2836 153.655 65.3226 151.386C64.7211 150.691 64.1293 150.189 63.684 149.85Z" fill="#743218"/>
    <path d="M49.5 153.181C49.8984 152.841 50.5898 152.272 51.5137 151.653C52.0215 151.313 55.8379 148.753 56.7188 149.625C56.8145 149.721 56.8164 149.799 56.9277 150.301C57.127 151.214 57.3359 151.941 57.4883 152.434C57.3066 152.34 57.0293 152.169 56.791 151.875C56.3613 151.348 56.418 150.873 56.1055 150.785C55.918 150.731 55.8008 150.881 55.2051 151.192C54.8672 151.369 54.5781 151.5 54.3789 151.585C54.7363 151.587 54.9473 151.7 55.0605 151.782C55.4297 152.043 55.2793 152.329 55.6836 153.485C55.8125 153.851 55.9414 154.145 55.7969 154.392C55.7129 154.534 55.5762 154.6 55.5078 154.631C54.666 155.011 52.6465 155.221 52.1973 155.275C51.7852 155.326 51.1699 155.429 50.4277 155.667C50.1191 154.837 49.8086 154.01 49.5 153.181Z" fill="#F9AF87"/>
    <path d="M58.0469 164.477C58.2441 164.774 59.6484 166.833 62.3047 167.141C65.6094 167.526 67.6914 164.833 67.7773 164.718C68.7695 165.15 70.1133 165.835 71.5469 166.9C73.7734 168.552 75.0625 170.263 75.8047 171.263C78.9512 175.506 80.1855 180.303 80.668 182.655C82.3203 183.087 83.9824 183.53 85.6562 183.988C88.4141 184.741 91.1309 185.51 93.8047 186.29C93.0449 186.631 92.1094 187.131 91.1289 187.867C90.1191 188.622 89.3633 189.4 88.8164 190.046C84.2051 189.383 79.5938 188.717 74.9824 188.051C74.6328 185.782 73.6523 181.73 70.4961 178.03C69.4668 176.824 68.3965 175.876 67.4121 175.14" fill="#9A5EB5"/>
    <path d="M74.7676 172.584C72.4414 168.67 69.6367 166.145 67.7812 164.719C68.7734 165.151 70.1172 165.836 71.5508 166.9C73.7793 168.553 75.0684 170.264 75.8086 171.264C78.9551 175.507 80.1914 180.304 80.6738 182.655C82.3242 183.087 83.9863 183.531 85.6582 183.989C88.418 184.742 91.1348 185.511 93.8066 186.291C93.0488 186.632 92.1133 187.132 91.1328 187.867C90.125 188.623 89.3672 189.401 88.8203 190.047C85.3809 187.926 81.9395 185.802 78.498 183.679C78.2227 181.25 77.4238 177.052 74.7676 172.584Z" fill="#A969BB"/>
    <path d="M73.1354 186.774C73.2155 188.307 73.1823 188.529 73.2565 189.44C73.4284 191.526 73.9108 194.021 75.0397 196.82C68.4831 195.903 61.9245 194.989 55.3659 194.072C54.239 191.807 52.9226 188.515 52.2839 184.378C51.819 181.357 51.8405 178.704 52.0144 176.62C44.3796 177.844 37.5144 175.236 34.8796 170.266C34.6374 169.808 33.2097 167.002 33.8522 163.531C34.9284 157.722 41.2819 152.952 49.7272 151.992C50.1237 153.555 50.5202 155.118 50.9167 156.683C49.4245 157.241 47.3405 158.214 45.2038 159.923C42.694 161.928 41.1589 164.106 40.2839 165.579C44.8132 167.885 48.0007 167.613 49.4206 167.356C51.5651 166.969 55.1218 165.626 55.9597 165.31C56.8386 164.978 57.5593 164.684 58.0554 164.475C59.5788 166.171 61.5886 168.282 64.0671 170.589C69.612 175.742 71.5905 176.357 72.3913 179.368C72.8327 181.022 72.9675 183.591 73.1354 186.774Z" fill="#9A5EB5"/>
    <path d="M75.0367 196.819C68.4781 195.902 61.9195 194.985 55.3628 194.071C54.2163 191.753 52.9195 188.467 52.2808 184.376C51.2574 177.81 52.4351 172.409 53.3628 169.347C51.1519 169.99 47.9058 170.669 43.9566 170.587C39.8648 170.502 36.5503 169.632 34.3355 168.863C33.4995 166.494 33.6363 164.645 33.8492 163.53C34.816 158.478 40.066 154.381 47.0386 153.242C46.3726 153.371 39.6949 154.768 37.3081 160.622C36.3804 162.898 36.439 165.017 36.605 166.331C38.3472 166.813 44.5992 168.435 49.4156 167.354C50.4214 167.131 53.021 166.416 55.9566 165.309C56.8355 164.976 57.5562 164.682 58.0523 164.474C54.6519 173.327 55.98 182.971 61.687 189.493C66.4429 194.929 72.6617 196.391 75.0367 196.819Z" fill="#A969BB"/>
    <path d="M210.546 64.0008C210.051 63.8772 209.749 63.3752 209.873 62.8795C209.997 62.3837 210.5 62.0821 210.996 62.2056L211.294 62.28C211.955 62.4446 212.624 62.0427 212.79 61.3823L215.128 52.0403C215.293 51.3798 214.892 50.711 214.231 50.5464L213.933 50.472C213.437 50.3485 213.136 49.8464 213.26 49.3507C213.384 48.855 213.886 48.5533 214.382 48.6769L219.529 49.9596C221.364 50.4169 222.66 51.1728 223.416 52.2273C224.189 53.2861 224.381 54.596 223.99 56.157C223.595 57.7354 222.804 58.819 221.618 59.408C220.45 60.0012 218.948 60.0691 217.113 59.6119C216.232 59.3923 215.34 59.9282 215.119 60.8088L214.934 61.548C214.721 62.4001 215.239 63.2631 216.091 63.4755L216.737 63.6364C217.233 63.76 217.534 64.262 217.41 64.7578C217.286 65.2535 216.783 65.5552 216.288 65.4316L210.546 64.0008ZM213.15 55.8327C212.691 55.718 212.411 55.2524 212.526 54.7926C212.641 54.3328 213.107 54.053 213.567 54.1676L215.168 54.5666C215.628 54.6813 215.908 55.1469 215.793 55.6067C215.678 56.0665 215.212 56.3463 214.752 56.2317L213.15 55.8327ZM213.802 53.231C213.342 53.1163 213.062 52.6507 213.177 52.1909C213.292 51.7311 213.759 51.4513 214.218 51.5659L215.82 51.965C216.28 52.0796 216.559 52.5452 216.444 53.005C216.329 53.4648 215.863 53.7447 215.403 53.63L213.802 53.231ZM216.386 55.8567C216.173 56.7088 216.691 57.5718 217.543 57.7843C219.875 58.3655 221.293 57.6501 221.797 55.6382C222.301 53.6262 221.386 52.3296 219.054 51.7484C218.202 51.5359 217.338 52.0545 217.125 52.9067L216.386 55.8567ZM222.668 58.2046C222.208 58.09 221.928 57.6243 222.043 57.1645C222.159 56.7047 222.625 56.4249 223.085 56.5395L224.686 56.9386C225.146 57.0532 225.425 57.5188 225.31 57.9786C225.195 58.4384 224.729 58.7183 224.269 58.6036L222.668 58.2046ZM223.319 55.6029C222.859 55.4883 222.58 55.0226 222.695 54.5628C222.81 54.103 223.276 53.8232 223.736 53.9378L225.337 54.3369C225.797 54.4515 226.076 54.9172 225.961 55.377C225.846 55.8368 225.38 56.1166 224.92 56.002L223.319 55.6029Z" fill="#D1AC19"/>
    <path d="M33.5967 116.445C33.1475 116.812 32.4844 116.747 32.1156 116.299C31.7468 115.85 31.812 115.189 32.2611 114.821L32.5297 114.601C33.1272 114.112 33.2139 113.231 32.7233 112.635L25.7704 104.182C25.2798 103.585 24.3978 103.498 23.8002 103.988L23.5317 104.208C23.0825 104.576 22.4194 104.51 22.0506 104.062C21.6818 103.613 21.7469 102.952 22.1961 102.584L26.8504 98.7724C28.5101 97.4132 30.0774 96.7466 31.5525 96.7726C33.0431 96.786 34.3691 97.4986 35.5305 98.9105C36.7047 100.338 37.1595 101.791 36.8947 103.268C36.6455 104.732 35.6911 106.144 34.0314 107.503C33.2347 108.155 33.1192 109.329 33.7733 110.124L34.3267 110.797C34.9597 111.567 36.0979 111.679 36.8689 111.047L37.4516 110.57C37.9007 110.202 38.5638 110.268 38.9326 110.716C39.3014 111.164 39.2363 111.826 38.7871 112.194L33.5967 116.445ZM27.8984 108.548C27.4817 108.889 26.8667 108.828 26.5246 108.413C26.1825 107.997 26.243 107.383 26.6596 107.042L28.1057 105.857C28.5223 105.516 29.1374 105.577 29.4794 105.993C29.8215 106.409 29.7611 107.022 29.3445 107.364L27.8984 108.548ZM25.9628 106.195C25.5462 106.536 24.9311 106.475 24.589 106.059C24.247 105.643 24.3074 105.03 24.724 104.688L26.1701 103.504C26.5867 103.163 27.2018 103.224 27.5439 103.639C27.8859 104.055 27.8255 104.669 27.4089 105.01L25.9628 106.195ZM30.111 105.624C30.7441 106.394 31.8823 106.506 32.6532 105.875C34.7627 104.147 35.069 102.373 33.5722 100.554C32.0753 98.7338 30.2722 98.6876 28.1627 100.415C27.3917 101.047 27.2799 102.182 27.9129 102.952L30.111 105.624ZM36.5069 101.498C36.0903 101.839 35.4752 101.779 35.1332 101.363C34.7911 100.947 34.8515 100.333 35.2681 99.9918L36.7142 98.8075C37.1309 98.4664 37.7459 98.5269 38.088 98.9428C38.4301 99.3587 38.3696 99.9724 37.953 100.314L36.5069 101.498ZM34.5713 99.1446C34.1547 99.4858 33.5397 99.4253 33.1976 99.0094C32.8555 98.5935 32.9159 97.9797 33.3326 97.6386L34.7787 96.4543C35.1953 96.1131 35.8103 96.1737 36.1524 96.5896C36.4945 97.0054 36.4341 97.6192 36.0174 97.9604L34.5713 99.1446Z" fill="#D1AC19"/>
    <path d="M75.2187 133.624C74.892 133.771 74.5074 133.625 74.3597 133.299C74.2121 132.972 74.3572 132.588 74.684 132.441L74.8802 132.353C75.3153 132.157 75.5086 131.646 75.3119 131.211L72.5289 125.057C72.3322 124.622 71.8201 124.429 71.385 124.625L71.1889 124.713C70.8621 124.86 70.4775 124.715 70.3299 124.388C70.1822 124.062 70.3274 123.678 70.6541 123.53L74.0439 122.004C75.2524 121.46 76.2943 121.314 77.1697 121.566C78.0563 121.813 78.7321 122.451 79.1971 123.479C79.6672 124.518 79.7044 125.457 79.3086 126.296C78.9241 127.129 78.1276 127.817 76.919 128.362C76.3389 128.623 76.0812 129.304 76.3433 129.884L76.5639 130.372C76.8177 130.933 77.4784 131.183 78.0399 130.93L78.4648 130.739C78.7915 130.592 79.1761 130.737 79.3237 131.063C79.4714 131.39 79.3262 131.774 78.9995 131.921L75.2187 133.624ZM73.0933 128.001C72.7903 128.137 72.4336 128.003 72.2966 127.7C72.1596 127.397 72.2943 127.041 72.5974 126.904L73.6515 126.43C73.9546 126.293 74.3113 126.428 74.4482 126.731C74.5852 127.034 74.4505 127.39 74.1475 127.526L73.0933 128.001ZM72.3184 126.287C72.0153 126.424 71.6586 126.289 71.5216 125.986C71.3847 125.683 71.5193 125.327 71.8224 125.191L72.8765 124.716C73.1796 124.58 73.5363 124.714 73.6733 125.017C73.8102 125.32 73.6756 125.676 73.3725 125.813L72.3184 126.287ZM74.8837 126.612C75.1374 127.173 75.7982 127.422 76.3596 127.17C77.8957 126.478 78.3641 125.47 77.7648 124.144C77.1654 122.819 76.0977 122.502 74.5617 123.194C74.0003 123.447 73.7508 124.107 74.0045 124.668L74.8837 126.612ZM79.3619 125.178C79.0588 125.315 78.7021 125.18 78.5652 124.877C78.4282 124.574 78.5629 124.218 78.8659 124.082L79.9201 123.607C80.2231 123.471 80.5798 123.605 80.7168 123.908C80.8538 124.211 80.7191 124.567 80.416 124.704L79.3619 125.178ZM78.5869 123.465C78.2839 123.601 77.9271 123.466 77.7902 123.164C77.6532 122.861 77.7879 122.505 78.0909 122.368L79.1451 121.893C79.4481 121.757 79.8049 121.892 79.9418 122.195C80.0788 122.498 79.9441 122.854 79.6411 122.99L78.5869 123.465Z" fill="#D1AC19"/>
    <path d="M200.853 152.199L100.532 119.718C97.7876 118.829 96.2706 115.861 97.1615 113.123L117.302 51.2424C118.193 48.5044 121.168 46.991 123.913 47.8795L224.233 80.3598C226.98 81.2493 228.497 84.2171 227.605 86.9552L207.464 148.836C206.573 151.574 203.598 153.087 200.853 152.199Z" fill="#E1005F"/>
    <path d="M200.853 152.203C171.598 142.731 142.343 133.259 113.087 123.787C129.085 102.498 145.083 81.2071 161.08 59.9179L224.233 80.364C224.57 80.4742 226.32 81.0842 227.284 82.9686C227.894 84.1641 228.05 85.5904 227.605 86.9594L207.464 148.84C206.573 151.578 203.598 153.092 200.853 152.203Z" fill="#FF007F"/>
    <path d="M128.213 96.3261L115.296 92.1446C114.154 91.7746 113.522 90.538 113.893 89.3987L116.896 80.1699C117.267 79.0306 118.506 78.4008 119.649 78.7707L132.565 82.9524C133.708 83.3222 134.34 84.5577 133.969 85.6981L130.966 94.9257C130.595 96.0661 129.356 96.6959 128.213 96.3261Z" fill="white"/>
    <path d="M121.827 94.2571L121.549 94.1723L125.667 80.7236L125.944 80.8074L121.827 94.2571Z" fill="#E1005F"/>
    <path d="M133.105 88.3341L115.996 82.9458L116.083 82.669L133.193 88.0571L133.105 88.3341ZM131.73 92.6815L114.585 87.2825L114.672 87.0057L131.817 92.4047L131.73 92.6815Z" fill="#E1005F"/>
    <path d="M199.301 128.052C201.576 131.274 200.802 135.727 197.572 137.998C194.342 140.268 189.879 139.497 187.603 136.275C185.328 133.053 186.103 128.601 189.333 126.33C192.564 124.059 197.026 124.83 199.301 128.052Z" fill="#E1005F"/>
    <defs>
        <linearGradient id="paint0_linear_0_1" x1="101.885" y1="13.7898" x2="145.127" y2="253.69" gradientUnits="userSpaceOnUse">
            <stop stop-color="#B0E4E1"/>
            <stop offset="0.25" stop-color="#B0E4E1"/>
            <stop offset="0.375" stop-color="#B0E4E1"/>
            <stop offset="0.390625" stop-color="#B1E5E1"/>
            <stop offset="0.394531" stop-color="#B2E5E2"/>
            <stop offset="0.398438" stop-color="#B4E5E2"/>
            <stop offset="0.402344" stop-color="#B5E5E2"/>
            <stop offset="0.40625" stop-color="#B6E5E2"/>
            <stop offset="0.410156" stop-color="#B7E5E3"/>
            <stop offset="0.414063" stop-color="#B8E6E3"/>
            <stop offset="0.417969" stop-color="#B9E6E3"/>
            <stop offset="0.421875" stop-color="#BBE6E3"/>
            <stop offset="0.425781" stop-color="#BCE6E3"/>
            <stop offset="0.429688" stop-color="#BDE6E4"/>
            <stop offset="0.433594" stop-color="#BEE6E4"/>
            <stop offset="0.4375" stop-color="#BFE6E4"/>
            <stop offset="0.441406" stop-color="#C1E7E4"/>
            <stop offset="0.445312" stop-color="#C2E7E4"/>
            <stop offset="0.449219" stop-color="#C3E7E5"/>
            <stop offset="0.453125" stop-color="#C4E7E5"/>
            <stop offset="0.457031" stop-color="#C6E7E5"/>
            <stop offset="0.460938" stop-color="#C7E7E5"/>
            <stop offset="0.464844" stop-color="#C8E8E6"/>
            <stop offset="0.46875" stop-color="#C9E8E6"/>
            <stop offset="0.472656" stop-color="#CAE8E6"/>
            <stop offset="0.476563" stop-color="#CCE8E6"/>
            <stop offset="0.480469" stop-color="#CDE8E6"/>
            <stop offset="0.484375" stop-color="#CEE8E7"/>
            <stop offset="0.488281" stop-color="#CFE8E7"/>
            <stop offset="0.492188" stop-color="#D0E9E7"/>
            <stop offset="0.496094" stop-color="#D2E9E7"/>
            <stop offset="0.5" stop-color="#D3E9E7"/>
            <stop offset="0.503906" stop-color="#D4E9E8"/>
            <stop offset="0.507812" stop-color="#D5E9E8"/>
            <stop offset="0.511719" stop-color="#D7E9E8"/>
            <stop offset="0.515625" stop-color="#D8E9E8"/>
            <stop offset="0.519531" stop-color="#D9E9E9"/>
            <stop offset="0.523438" stop-color="#DAEAE9"/>
            <stop offset="0.527344" stop-color="#DBEAE9"/>
            <stop offset="0.53125" stop-color="#DDEAE9"/>
            <stop offset="0.535156" stop-color="#DEEAEA"/>
            <stop offset="0.539062" stop-color="#DFEAEA"/>
            <stop offset="0.542969" stop-color="#E0EAEA"/>
            <stop offset="0.546875" stop-color="#E2EAEA"/>
            <stop offset="0.550781" stop-color="#E3EAEA"/>
            <stop offset="0.554688" stop-color="#E4EAEB"/>
            <stop offset="0.558594" stop-color="#E5EBEB"/>
            <stop offset="0.5625" stop-color="#E6EBEB"/>
            <stop offset="0.566406" stop-color="#E8EBEB"/>
            <stop offset="0.570313" stop-color="#E9EBEC"/>
            <stop offset="0.574219" stop-color="#EAEBEC"/>
            <stop offset="0.578125" stop-color="#EBEBEC"/>
            <stop offset="0.582031" stop-color="#EDEBEC"/>
            <stop offset="0.585938" stop-color="#EEEBED"/>
            <stop offset="0.589844" stop-color="#EFEBED"/>
            <stop offset="0.59375" stop-color="#F0ECED"/>
            <stop offset="0.625" stop-color="#F0ECED"/>
            <stop offset="0.75" stop-color="#F0ECED"/>
            <stop offset="1" stop-color="#F0ECED"/>
        </linearGradient>
    </defs>
</svg>
