<svg width="40" height="40" viewBox="0 0 40 40" fill="none" xmlns="http://www.w3.org/2000/svg">
    <path d="M21.8469 18.3259C21.0922 18.3259 20.3375 18.4056 19.5431 18.5251C19.2253 18.6048 18.987 18.4454 18.987 18.0869V17.4893C18.987 14.6607 19.1856 13.6249 21.5689 13.6249C23.6344 13.6249 24.0714 13.7444 24.0714 15.2185C24.0714 15.8161 24.5083 16.0153 25.1836 16.0153H25.8986C26.7327 16.0153 27.0902 15.8161 27.0902 14.9795C27.0902 11.394 25.5411 10.4777 22.0058 10.4777C16.4845 10.4777 15.8489 12.7086 15.8489 19.8C15.8887 26.6522 15.4914 29.68 21.6881 29.68C25.6205 29.68 27.3683 28.3653 27.3683 23.3855C27.408 19.2821 25.5014 18.3259 21.8469 18.3259ZM21.8072 26.6921C19.6622 26.6921 19.0267 26.0945 19.0267 24.3018V21.4334C19.7814 21.2342 20.6156 21.0748 21.4894 21.0748C23.833 21.0748 24.3097 21.6724 24.3097 23.7838C24.3097 25.6961 24.0317 26.6921 21.8072 26.6921ZM12.1151 10.8362H9.37426C8.30176 10.8362 7.78538 11.0354 7.78538 11.9119V12.9078C7.78538 13.7843 8.34148 13.9835 9.37426 13.9835H10.0098C10.407 13.9835 10.5659 14.1827 10.5659 14.8201V27.8873C10.5659 28.9629 10.7645 29.4808 11.6384 29.4808H12.6712C13.5451 29.4808 13.7437 28.9231 13.7437 27.8873V11.9119C13.7039 11.0354 13.1876 10.8362 12.1151 10.8362Z" fill="#B0B7BF"/>
    <path d="M31.1023 1.75291C29.9106 0.597584 28.4409 0 26.6534 0H13.2671C11.4796 0 9.97021 0.597584 8.81827 1.75291L1.70804 8.84423C0.595829 9.95972 0 11.4338 0 13.0672V26.7319C0 28.6043 0.635551 30.0784 1.90665 31.3134L8.65938 38.086C9.97021 39.4007 11.4796 40.0381 13.3863 39.9982H26.6137C28.4409 39.9982 29.9503 39.4405 31.3406 38.086L38.0933 31.3134C39.3247 30.0784 40 28.6043 40 26.7319V13.0672C40 11.4338 39.4042 9.95972 38.292 8.84423L31.1023 1.75291ZM37.2989 17.7283C37.2989 18.1665 37.1003 18.4056 36.6634 18.4056H34.6375V16.9714C34.6375 15.8957 34.4787 15.3778 33.565 15.3778H32.6514C31.7378 15.3778 31.5789 15.9356 31.5789 16.9714V18.4056H30.1887C29.1162 18.4056 28.5998 18.5649 28.5998 19.4812V20.4374C28.5998 21.3536 29.1559 21.513 30.1887 21.513H31.6187V22.9472C31.6187 24.0229 31.7776 24.5408 32.6912 24.5408H33.6048C34.5184 24.5408 34.6773 23.983 34.6773 22.9472V21.513H36.7031C37.1003 21.513 37.2989 21.7122 37.3386 22.1106V26.7319C37.3386 27.8474 37.0209 28.684 36.2264 29.4409L29.4737 36.2135C28.6792 37.0103 27.8054 37.3689 26.7329 37.3689H13.2274C12.1549 37.3689 11.281 37.0103 10.4866 36.2135L3.73386 29.4409C2.93942 28.6442 2.58193 27.8474 2.62165 26.7319V13.3859C2.62165 12.2704 2.97915 11.3142 3.81331 10.4776L10.6455 3.50582C11.3208 2.82856 12.2344 2.58953 13.2274 2.58953H26.6931C27.6862 2.58953 28.5601 2.78872 29.2751 3.50582L36.147 10.4776C36.9414 11.3142 37.3386 12.2704 37.3386 13.3859V17.7283H37.2989Z" fill="#B0B7BF"/>
</svg>
