<svg width="137" height="36" viewBox="0 0 137 36" fill="none" xmlns="http://www.w3.org/2000/svg">
    <g clip-path="url(#clip0_96_2238)">
        <path d="M51.2282 35.197L50.5566 32.1791H46.8787L46.2071 35.197H42.5078L46.4842 18.6299H51.1323L55.0874 35.197H51.2256H51.2282ZM48.7763 22.2329H48.683L47.2944 29.2773H50.0929L48.7736 22.2329H48.7763Z" fill="white"/>
        <path d="M56.5234 35.197V18.6299H60.2707V31.7341H64.6415V35.197H56.5234Z" fill="white"/>
        <path d="M66.3047 35.197V18.6299H70.0519V31.7341H74.4228V35.197H66.3074H66.3047Z" fill="white"/>
        <path d="M86.3788 30.4722C86.3788 31.3622 86.2349 32.1065 85.9497 32.708C85.6645 33.3094 85.2914 33.7921 84.8277 34.1589C84.3639 34.5257 83.8442 34.79 83.2659 34.9545C82.6875 35.119 82.1065 35.1999 81.5202 35.1999H76.0859V18.6328H80.9898C81.4989 18.6328 82.0372 18.6868 82.6076 18.7973C83.1779 18.9079 83.6976 19.1129 84.1694 19.4176C84.6384 19.7224 85.0329 20.1539 85.3474 20.7175C85.6645 21.2785 85.8218 22.0039 85.8218 22.8939C85.8218 23.8756 85.6246 24.6604 85.2328 25.2456C84.841 25.8308 84.3586 26.257 83.7883 26.5213V26.5671C84.0974 26.6453 84.4039 26.7856 84.7131 26.9878C85.0222 27.1901 85.2994 27.4517 85.5446 27.7726C85.7898 28.0936 85.9923 28.4792 86.1469 28.9296C86.3015 29.3827 86.3788 29.8978 86.3788 30.4749V30.4722ZM82.5623 23.4872C82.5623 22.8427 82.3864 22.3869 82.0293 22.1199C81.6748 21.8529 81.259 21.7208 80.7793 21.7208H79.5293V25.3238H80.8006C81.2484 25.3238 81.6535 25.1836 82.0133 24.9004C82.3757 24.6172 82.557 24.1453 82.557 23.4872H82.5623ZM82.8635 30.1351C82.8635 29.7575 82.8048 29.442 82.6902 29.1831C82.5756 28.9242 82.421 28.7111 82.2265 28.5466C82.0346 28.3821 81.8187 28.2608 81.5788 28.1825C81.339 28.1043 81.1044 28.0639 80.8726 28.0639H79.532V32.1119H80.9205C81.4589 32.1119 81.9173 31.9474 82.2958 31.6184C82.6742 31.2894 82.8608 30.7958 82.8608 30.1351H82.8635Z" fill="white"/>
        <path d="M95.9274 35.197L95.2558 32.1791H91.5779L90.9063 35.197H87.207L91.1835 18.6299H95.8315L99.7866 35.197H95.9248H95.9274ZM93.4755 22.2329H93.3822L91.9937 29.2773H94.7921L93.4728 22.2329H93.4755Z" fill="white"/>
        <path d="M108.303 35.197L104.51 25.1105H104.441L104.534 35.197H101.227V18.6299H105.296L109.065 28.8565H109.134L109.065 18.6299H112.255V35.197H108.3H108.303Z" fill="white"/>
        <path d="M122.454 35.197L118.962 27.4973H118.893V35.197H115.17V18.6299H118.893V25.534H118.962L122.339 18.6299H126.478L122.27 26.2109L126.734 35.197H122.456H122.454Z" fill="white"/>
        <path d="M135.079 22.5837C134.802 22.2547 134.477 22.0039 134.109 21.8232C133.739 21.6452 133.352 21.5535 132.953 21.5535C132.553 21.5535 132.164 21.6856 131.831 21.9526C131.5 22.2196 131.335 22.6565 131.335 23.266C131.335 23.7811 131.503 24.1829 131.844 24.4742C132.182 24.7628 132.683 25.081 133.347 25.4235C133.72 25.6123 134.112 25.8335 134.522 26.0924C134.933 26.3513 135.311 26.6668 135.652 27.0417C135.994 27.4165 136.276 27.8669 136.503 28.3901C136.727 28.9133 136.841 29.5336 136.841 30.2537C136.841 31.1437 136.703 31.9285 136.423 32.6108C136.143 33.2904 135.767 33.854 135.295 34.299C134.824 34.744 134.275 35.0811 133.656 35.3077C133.035 35.5342 132.396 35.6475 131.732 35.6475C130.746 35.6475 129.848 35.4614 129.038 35.0865C128.227 34.7117 127.577 34.2748 127.084 33.7758L128.979 30.9684C129.333 31.3432 129.741 31.6426 130.205 31.8691C130.669 32.0957 131.138 32.2089 131.615 32.2089C132.063 32.2089 132.438 32.0606 132.747 31.7639C133.057 31.4673 133.211 31.0547 133.211 30.5234C133.211 29.9921 133.027 29.5444 132.657 29.2235C132.286 28.9025 131.748 28.5654 131.039 28.2067C130.591 27.9883 130.173 27.7456 129.778 27.4813C129.387 27.217 129.038 26.896 128.739 26.5212C128.438 26.1463 128.203 25.7094 128.033 25.2105C127.862 24.7115 127.78 24.1182 127.78 23.4332C127.78 22.5136 127.929 21.7207 128.23 21.0572C128.531 20.3938 128.923 19.8517 129.408 19.431C129.893 19.0103 130.431 18.6974 131.026 18.4952C131.62 18.2929 132.217 18.1904 132.817 18.1904C133.71 18.1904 134.512 18.3388 135.221 18.6327C135.93 18.9267 136.524 19.3312 137.001 19.8409L135.082 22.5891L135.079 22.5837Z" fill="white"/>
        <path d="M13.7355 10.9225C13.0293 10.9225 12.3203 10.9225 11.6141 10.9225C11.4302 10.9225 11.4169 10.9387 11.3636 11.114C11.2649 11.4457 11.153 11.7747 11.0571 12.1064C10.9824 12.3653 10.9185 12.6269 10.8598 12.8885C10.7772 13.2688 10.6999 13.6518 10.628 14.0347C10.5853 14.2613 10.548 14.4878 10.5214 14.717C10.4761 15.1243 10.4387 15.5342 10.3988 15.9414C10.3961 15.9738 10.3934 16.0035 10.3881 16.0358C10.3615 16.23 10.3801 16.2516 10.58 16.2516C11.6461 16.2516 12.7121 16.2516 13.7809 16.2516C14.4312 16.2516 14.9135 16.5914 15.1348 17.1793C15.3453 17.7376 15.1774 18.3444 14.687 18.7462C14.4152 18.9701 14.1007 19.0456 13.7595 19.0429C13.1572 19.0429 12.5549 19.0429 11.9499 19.0429C11.5021 19.0429 11.0544 19.0429 10.604 19.0429C10.3801 19.0429 10.3641 19.0645 10.3881 19.2856C10.4307 19.682 10.4627 20.0785 10.5107 20.4749C10.548 20.777 10.5986 21.0763 10.6546 21.3757C10.7186 21.7236 10.7825 22.0742 10.8598 22.4194C10.9238 22.7053 11.0038 22.9858 11.081 23.2662C11.145 23.5036 11.217 23.7382 11.2863 23.9728C11.3156 24.0726 11.3342 24.1832 11.3875 24.2695C11.4169 24.318 11.5048 24.3504 11.5688 24.3585C11.7767 24.3801 11.9845 24.3747 12.1924 24.4016C12.5735 24.4475 12.8587 24.6686 13.0693 24.9761C13.2771 25.2808 13.3544 25.6233 13.2851 26.0009C13.2105 26.4081 12.9946 26.7075 12.6588 26.9259C12.5762 26.9799 12.5789 27.023 12.6188 27.0958C12.8001 27.4276 12.984 27.7539 13.1545 28.091C13.3438 28.4686 13.3624 28.8569 13.2105 29.2561C13.0639 29.6363 12.7974 29.8952 12.4349 30.0436C12.0885 30.1838 11.7367 30.173 11.3875 30.022C11.0038 29.8548 10.7825 29.5419 10.5986 29.1886C10.4414 28.8866 10.2735 28.5872 10.1189 28.2825C9.983 28.0128 9.8604 27.735 9.72981 27.4599C9.69782 27.3898 9.67917 27.3062 9.6312 27.2496C9.59122 27.2037 9.51926 27.1633 9.45796 27.1579C9.30338 27.1444 9.1488 27.1525 8.99422 27.1525C8.1547 27.1525 7.31784 27.1525 6.47831 27.1525C6.44366 27.1525 6.40635 27.1471 6.37437 27.1525C6.33972 27.1606 6.28908 27.174 6.28109 27.1983C6.27043 27.2253 6.29175 27.2738 6.31307 27.3008C6.45166 27.4626 6.59025 27.6244 6.73683 27.7808C7.24854 28.3283 7.77891 28.8569 8.37857 29.3073C8.8583 29.6714 9.34869 30.0247 9.8604 30.3402C10.3535 30.6477 10.8705 30.9173 11.3929 31.1736C11.7713 31.3596 12.1738 31.4999 12.5709 31.6455C12.976 31.7938 13.3038 32.0285 13.4877 32.433C13.6343 32.7512 13.6636 33.083 13.5543 33.4228C13.4477 33.7599 13.2532 34.0323 12.952 34.2076C12.6322 34.391 12.2884 34.4907 11.9206 34.3613C11.5181 34.2211 11.1104 34.0862 10.7186 33.919C10.1909 33.6925 9.66851 33.4524 9.16213 33.1854C8.56247 32.8672 7.99212 32.4977 7.43777 32.1013C6.55293 31.4675 5.73473 30.7582 4.98049 29.9734C4.34085 29.3073 3.75185 28.5926 3.22415 27.8321C2.79772 27.2172 2.39528 26.5861 2.05947 25.9119C1.8356 25.4642 1.60639 25.0192 1.40651 24.5607C1.23061 24.1589 1.08935 23.7436 0.942768 23.3283C0.830831 23.0181 0.72689 22.7026 0.636274 22.3843C0.556319 22.1039 0.492355 21.818 0.431057 21.5321C0.353767 21.1734 0.279142 20.8147 0.215178 20.4534C0.172536 20.2187 0.137889 19.9841 0.111237 19.7468C-0.00603001 18.6222 -0.0300165 17.4922 0.0366126 16.3622C0.0659294 15.874 0.124563 15.3886 0.193857 14.9058C0.24716 14.531 0.32978 14.1615 0.415066 13.7947C0.503016 13.4064 0.593632 13.0207 0.708233 12.6404C0.822835 12.2575 0.964089 11.8826 1.10268 11.505C1.22261 11.1841 1.34521 10.8659 1.4838 10.553C1.63038 10.2267 1.79029 9.90847 1.95553 9.59293C2.1261 9.2693 2.29667 8.94568 2.49123 8.63823C2.81638 8.12851 3.14686 7.6188 3.49866 7.12796C4.1916 6.16517 4.98582 5.29407 5.86799 4.50927C6.40369 4.03462 6.96337 3.58423 7.53904 3.16082C8.05076 2.78865 8.59178 2.45693 9.13548 2.136C9.49261 1.92294 9.87373 1.75034 10.2495 1.57234C10.6093 1.40244 10.9718 1.24062 11.3396 1.09499C11.6247 0.981721 11.9206 0.890026 12.2137 0.792938C12.4483 0.714728 12.6828 0.639214 12.92 0.574489C13.2025 0.498975 13.4877 0.423462 13.7755 0.369524C14.2233 0.283223 14.6737 0.215801 15.1214 0.13759C15.1507 0.132197 15.1827 0.126803 15.212 0.121409C16.3634 0.00544209 17.5174 -0.0511929 18.6714 0.0378049C19.2311 0.0809554 19.7908 0.17265 20.3478 0.256254C20.7129 0.310192 21.0781 0.383009 21.4379 0.463916C21.707 0.523248 21.9736 0.606852 22.2401 0.687759C22.5546 0.78215 22.8664 0.876542 23.1782 0.981721C23.4287 1.06802 23.6766 1.16511 23.9218 1.26759C24.2176 1.39165 24.5108 1.5211 24.7986 1.65864C25.1105 1.80967 25.4223 1.96339 25.7261 2.1306C26.0539 2.31129 26.3791 2.49738 26.6882 2.70774C27.2426 3.088 27.8023 3.46557 28.3246 3.88898C28.8443 4.3097 29.3374 4.76817 29.8171 5.23474C30.3768 5.77951 30.8832 6.37553 31.3416 7.0066C31.6614 7.4462 31.9706 7.89119 32.2558 8.35505C32.5223 8.78926 32.7621 9.24503 32.994 9.70081C33.1966 10.0973 33.3831 10.5045 33.5564 10.9144C33.6976 11.2515 33.8175 11.5967 33.9348 11.9419C34.0441 12.2656 34.1507 12.5919 34.2413 12.9209C34.3213 13.2095 34.3719 13.5061 34.4519 13.7947C34.5238 14.0536 34.5665 14.3152 34.5345 14.5822C34.4838 15.0299 34.2493 15.3643 33.8788 15.6043C33.5644 15.8066 33.2152 15.839 32.8634 15.7661C32.5143 15.6933 32.2398 15.4911 32.0345 15.1917C31.88 14.9652 31.8267 14.7009 31.768 14.4366C31.7014 14.1399 31.6214 13.8459 31.5415 13.5547C31.4802 13.3308 31.4136 13.1043 31.3389 12.8859C31.2483 12.6216 31.1497 12.36 31.0458 12.0984C30.9498 11.861 30.8432 11.6264 30.7393 11.3945C30.678 11.2596 30.622 11.1221 30.5421 10.998C30.5101 10.9495 30.4195 10.9171 30.3555 10.9171C29.9184 10.909 29.4813 10.9144 29.0442 10.9144C28.1754 10.9144 27.3066 10.9144 26.435 10.9144C26.2645 10.9144 26.2511 10.9468 26.2991 11.1086C26.3817 11.3837 26.4537 11.6642 26.523 11.9446C26.6003 12.2548 26.6696 12.5676 26.7389 12.8778C26.7762 13.045 26.8188 13.2122 26.8455 13.3821C26.8935 13.6814 26.9414 13.9835 26.9734 14.2855C27.04 14.9004 26.7016 15.4371 26.1872 15.6744C25.5529 15.9684 24.7906 15.7338 24.4362 15.1351C24.2843 14.8789 24.2443 14.5957 24.1936 14.3125C24.119 13.9053 24.0471 13.498 23.9644 13.0935C23.9031 12.7888 23.8312 12.484 23.7539 12.182C23.6899 11.9365 23.6126 11.6965 23.5407 11.4538C23.5034 11.3297 23.4634 11.2084 23.4287 11.0843C23.3834 10.9279 23.3674 10.9144 23.2022 10.9117C22.8477 10.9117 22.4906 10.9117 22.1361 10.9117C21.1234 10.9117 20.1106 10.9117 19.0979 10.9117C18.9184 10.9117 18.8287 11.0016 18.8287 11.1814C18.8287 12.4058 18.8287 13.6302 18.8287 14.8519C18.8287 15.1593 18.7754 15.456 18.6048 15.723C18.2983 16.2057 17.6507 16.4916 17.107 16.3271C16.6166 16.1788 16.2861 15.8686 16.1262 15.3913C16.0649 15.2052 16.0649 14.9894 16.0649 14.7872C16.0596 13.5978 16.0649 12.4112 16.0649 11.2219C16.0649 11.1841 16.0649 11.1437 16.0649 11.1059C16.0649 10.9387 16.0409 10.9144 15.8783 10.9144C15.4839 10.9144 15.0894 10.9144 14.695 10.9144C14.3752 10.9144 14.0527 10.9144 13.7329 10.9144L13.7355 10.9225ZM5.22568 19.0429C4.49543 19.0429 3.76517 19.0429 3.03492 19.0429C2.86968 19.0429 2.84569 19.0725 2.86968 19.2371C2.88567 19.3611 2.90699 19.4852 2.92565 19.6065C2.99228 20.0138 3.05891 20.421 3.1282 20.8282C3.14952 20.9577 3.1815 21.0871 3.21615 21.2166C3.31476 21.5645 3.41604 21.9124 3.52531 22.2549C3.61593 22.5408 3.70654 22.8239 3.81848 23.1017C3.94641 23.4254 4.09565 23.7436 4.23691 24.0618C4.32397 24.2596 4.47588 24.3585 4.69265 24.3585C5.88664 24.3585 7.08064 24.3585 8.27463 24.3585C8.31994 24.3585 8.36791 24.3585 8.41322 24.3585C8.49584 24.3585 8.52515 24.3153 8.50383 24.2371C8.4452 24.0241 8.38124 23.811 8.32793 23.5953C8.24265 23.2554 8.16269 22.9156 8.0854 22.5731C8.04542 22.3951 8.00811 22.2144 7.9788 22.0337C7.90151 21.5834 7.81622 21.1357 7.75759 20.6826C7.69629 20.1999 7.66164 19.7117 7.61367 19.2263C7.59768 19.0618 7.57103 19.0402 7.41112 19.0402C6.68086 19.0402 5.95061 19.0402 5.22035 19.0402L5.22568 19.0429ZM5.23368 16.2516C5.96393 16.2516 6.69419 16.2516 7.42444 16.2516C7.58435 16.2516 7.59768 16.2381 7.61633 16.0736C7.62699 15.9738 7.63766 15.8713 7.64832 15.7715C7.69096 15.3319 7.71228 14.8897 7.78157 14.4554C7.89351 13.7596 8.02677 13.0665 8.17069 12.3761C8.2613 11.9419 8.38923 11.5158 8.50117 11.087C8.53315 10.9657 8.51183 10.9279 8.38923 10.9279C7.09929 10.9279 5.80669 10.9279 4.51675 10.9279C4.43147 10.9279 4.37017 10.963 4.33818 11.0331C4.21026 11.3082 4.08233 11.5832 3.96506 11.861C3.86112 12.1064 3.76784 12.36 3.67456 12.6108C3.5946 12.8265 3.51998 13.0423 3.45335 13.2607C3.37873 13.5061 3.3121 13.7543 3.2508 14.0024C3.17084 14.3206 3.09089 14.6361 3.03225 14.9598C2.96563 15.3158 2.92565 15.6771 2.87234 16.0358C2.84303 16.2354 2.85902 16.2543 3.05358 16.2543C3.78117 16.2543 4.50609 16.2543 5.23368 16.2543V16.2516ZM6.21446 8.10424C6.30241 8.11503 6.36371 8.13121 6.42501 8.13121C7.41645 8.13121 8.41055 8.13121 9.40199 8.13121C9.68183 8.13121 9.59655 8.15279 9.72181 7.91276C9.88705 7.59183 10.023 7.25742 10.1935 6.93918C10.4281 6.50228 10.6679 6.06538 10.9291 5.64467C11.2756 5.0918 11.6434 4.55512 12.0032 4.01304C12.0298 3.97259 12.0538 3.93213 12.0778 3.88898C12.0698 3.8755 12.0618 3.86201 12.0538 3.84853C11.9552 3.88089 11.8513 3.90786 11.7553 3.95101C9.59388 4.88414 7.75226 6.25417 6.21179 8.10155L6.21446 8.10424ZM28.6525 8.10155C28.6125 8.04761 28.5885 8.01255 28.5618 7.98288C28.0102 7.3599 27.4291 6.76658 26.7922 6.23529C26.2378 5.77412 25.6621 5.34531 25.0412 4.97853C24.676 4.76278 24.3056 4.55512 23.9298 4.36094C23.594 4.18834 23.2475 4.04001 22.9037 3.88359C22.8797 3.8728 22.8451 3.88359 22.7784 3.88359C22.8797 4.02922 22.9597 4.13979 23.0343 4.25576C23.3141 4.67918 23.5966 5.10259 23.8685 5.5314C24.0551 5.83075 24.2283 6.1382 24.3989 6.44834C24.5721 6.76119 24.7373 7.07672 24.8946 7.39765C24.9959 7.59992 25.0758 7.81028 25.1691 8.01525C25.2037 8.08806 25.249 8.142 25.345 8.142C26.3951 8.142 27.4478 8.142 28.4979 8.142C28.5432 8.142 28.5885 8.12312 28.6525 8.11233V8.10155ZM12.6748 8.10155C12.7601 8.11503 12.8107 8.13121 12.8614 8.13121C13.8741 8.13121 14.8842 8.13121 15.897 8.13121C16.0462 8.13121 16.0649 8.10964 16.0649 7.96131C16.0649 7.46777 16.0649 6.97694 16.0649 6.4834C16.0649 5.56106 16.0649 4.63872 16.0649 3.71638C16.0649 3.67053 16.0382 3.62738 16.0223 3.58154C15.9849 3.60311 15.9396 3.6166 15.9103 3.64626C15.3266 4.24497 14.7936 4.88414 14.3006 5.55837C13.9807 5.99526 13.6716 6.44295 13.3784 6.90142C13.1359 7.27899 12.9227 7.67544 12.6748 8.09885V8.10155ZM18.8313 5.83345C18.8313 6.52925 18.8313 7.22505 18.8313 7.92085C18.8313 8.13121 18.8313 8.13391 19.0366 8.13391C20.0013 8.13391 20.9688 8.13391 21.9336 8.13391C21.9682 8.13391 22.0029 8.13391 22.0375 8.13391C22.1148 8.12852 22.1441 8.09615 22.1015 8.02064C21.8723 7.6161 21.6617 7.19808 21.4085 6.80973C21.0328 6.2299 20.6463 5.65546 20.2279 5.10798C19.8308 4.58748 19.3857 4.10204 18.9593 3.60581C18.9379 3.58154 18.898 3.57075 18.8686 3.55457C18.8553 3.58963 18.8367 3.62469 18.8313 3.65975C18.8233 3.6975 18.8313 3.73796 18.8313 3.77571C18.8313 4.46342 18.8313 5.15113 18.8313 5.83884V5.83345Z" fill="white"/>
        <path d="M27.3271 26.319C31.0024 26.319 34.6776 26.319 38.3502 26.319C38.3955 26.319 38.4462 26.3082 38.4888 26.3243C38.5235 26.3378 38.5501 26.3783 38.5741 26.4079C38.5821 26.4187 38.5741 26.4376 38.5741 26.4538C38.5741 27.9749 38.5741 29.4959 38.5608 31.017C38.5581 31.3001 38.4755 31.586 38.4249 31.8692C38.3609 32.2306 38.2197 32.565 38.0411 32.8778C37.8732 33.1718 37.6706 33.4523 37.4574 33.7166C37.0976 34.1642 36.6419 34.5014 36.1355 34.7603C35.4692 35.1001 34.7576 35.2349 34.0114 35.2349C31.157 35.2268 28.2999 35.2322 25.4455 35.2322C23.9051 35.2322 22.3619 35.2322 20.8215 35.2322C20.563 35.2322 20.3018 35.2376 20.0459 35.2106C19.798 35.1837 19.5555 35.1163 19.3103 35.065C18.9905 35.0003 18.6973 34.86 18.4095 34.709C17.9564 34.4717 17.5673 34.1535 17.2208 33.7759C16.8637 33.3848 16.5892 32.9399 16.392 32.4517C16.2454 32.0903 16.1335 31.7155 16.1068 31.3217C16.0828 30.9981 16.0695 30.6745 16.0668 30.3508C16.0615 29.0752 16.0668 27.8022 16.0668 26.5266C16.0668 26.3297 16.0748 26.3216 16.2694 26.3216C19.9553 26.3216 23.6412 26.3216 27.3271 26.3216V26.319Z" fill="white"/>
        <path d="M27.3393 23.5359C23.6747 23.5359 20.0128 23.5359 16.3482 23.5359C16.3082 23.5359 16.2709 23.5359 16.2309 23.5359C16.095 23.5359 16.0684 23.5116 16.0684 23.3714C16.0684 23.2069 16.0817 23.0424 16.0817 22.8806C16.0817 22.4625 16.159 22.0553 16.2896 21.6616C16.5774 20.8039 17.0731 20.0947 17.7821 19.5391C18.0886 19.2991 18.419 19.0995 18.7762 18.9512C19.2159 18.7678 19.677 18.6491 20.1541 18.6248C20.3939 18.6141 20.6338 18.5979 20.871 18.5979C25.2259 18.5979 29.5807 18.5952 33.9383 18.5979C34.2821 18.5979 34.6286 18.6168 34.9644 18.6842C35.2948 18.7489 35.6173 18.8649 35.9291 18.9916C36.5874 19.2559 37.1258 19.6928 37.5736 20.243C37.8561 20.5909 38.0799 20.9739 38.2478 21.3946C38.5037 22.0283 38.5943 22.6864 38.5757 23.3633C38.5703 23.5332 38.5703 23.5386 38.3971 23.5386C34.7112 23.5386 31.0226 23.5386 27.3367 23.5386L27.3393 23.5359Z" fill="white"/>
    </g>
    <defs>
        <clipPath id="clip0_96_2238">
            <rect width="137" height="35.6423" fill="white"/>
        </clipPath>
    </defs>
</svg>
