<svg width="167" height="32" viewBox="0 0 167 32" fill="none" xmlns="http://www.w3.org/2000/svg">
    <path d="M59.4905 22.3196H54.232L53.2611 25.5359H49.2109L54.9667 9.24219H58.8511L64.5122 25.5359H60.4856L59.4905 22.3196ZM55.1795 19.2454H58.5431L58.2116 18.134L56.9091 13.6408H56.8145L55.5115 18.134L55.18 19.2454H55.1795Z" fill="#B0B7BF"/>
    <path d="M66.1484 25.5359V9.24219H69.8671V22.2011H77.6123V25.5353H66.1484V25.5359Z" fill="#B0B7BF"/>
    <path d="M79.1504 25.5359V9.24219H82.869V22.2011H90.6143V25.5353H79.1504V25.5359Z" fill="#B0B7BF"/>
    <path d="M104.85 20.6643C104.85 21.3582 104.747 22.0004 104.542 22.5913C104.337 23.1823 104.033 23.699 103.63 24.1405C103.227 24.5819 102.73 24.9252 102.138 25.1691C101.545 25.4136 100.862 25.5359 100.089 25.5359H92.1543V9.24219H99.7814C100.634 9.24219 101.36 9.36443 101.961 9.60892C102.561 9.85341 103.054 10.1806 103.441 10.5901C103.828 11 104.108 11.473 104.282 12.009C104.456 12.5449 104.543 13.1129 104.543 13.7118C104.543 13.9958 104.499 14.2953 104.412 14.6102C104.325 14.9257 104.199 15.2332 104.033 15.5327C103.867 15.8322 103.658 16.1081 103.405 16.3606C103.153 16.6131 102.861 16.8181 102.529 16.9756C102.924 17.1646 103.267 17.4053 103.559 17.6968C103.851 17.9888 104.092 18.3037 104.282 18.6427C104.471 18.9817 104.613 19.3287 104.708 19.6831C104.802 20.0376 104.85 20.3653 104.85 20.6643ZM100.634 14.1373C100.634 13.6803 100.5 13.3061 100.232 13.0141C99.9626 12.7227 99.4734 12.5764 98.7628 12.5764H95.9205V15.5327H98.7628C99.4258 15.5327 99.9033 15.4024 100.196 15.1425C100.488 14.8825 100.634 14.5478 100.634 14.1373ZM100.8 20.5223C100.8 20.0178 100.654 19.5924 100.362 19.2454C100.069 18.8989 99.5916 18.7249 98.9286 18.7249H95.9205V22.2011H98.9286C99.5445 22.2011 100.01 22.0474 100.326 21.7399C100.642 21.4324 100.8 21.0267 100.8 20.5223Z" fill="#B0B7BF"/>
    <path d="M116.242 22.3196H110.984L110.013 25.5359H105.963L111.719 9.24219H115.603L121.264 25.5359H117.238L116.242 22.3196ZM111.931 19.2454H115.295L114.964 18.134L113.661 13.6408H113.566L112.263 18.134L111.932 19.2454H111.931Z" fill="#B0B7BF"/>
    <path d="M126.665 16.1711V25.5359H122.898V9.24219H126.286L129.01 13.1914L132.586 18.6069H132.657V9.24219H136.423V25.5359H133.052L129.68 20.5698L126.783 16.1711H126.664H126.665Z" fill="#B0B7BF"/>
    <path d="M144.88 18.8199L143.008 20.9717V25.5359H139.242V9.24219H143.008V15.6037L148.409 9.24219H152.861L147.366 15.8637L153.145 25.5359H148.74L144.879 18.8199H144.88Z" fill="#B0B7BF"/>
    <path d="M167.001 20.7587C167.001 21.5786 166.827 22.2924 166.48 22.8988C166.132 23.5057 165.663 24.0145 165.07 24.4239C164.478 24.8339 163.784 25.1413 162.986 25.3463C162.189 25.5508 161.348 25.6538 160.464 25.6538C159.863 25.6538 159.283 25.6218 158.723 25.5593C158.162 25.4963 157.621 25.3821 157.101 25.2166C156.579 25.0511 156.062 24.8226 155.549 24.5307C155.036 24.2392 154.527 23.8725 154.021 23.431L156.13 20.6642C156.824 21.2162 157.523 21.6219 158.226 21.8819C158.929 22.1418 159.636 22.2721 160.346 22.2721C160.867 22.2721 161.302 22.2246 161.649 22.1301C161.996 22.0356 162.277 21.9133 162.49 21.7633C162.703 21.6139 162.853 21.4521 162.94 21.2786C163.027 21.1052 163.071 20.9397 163.071 20.7822C163.071 20.5457 163.011 20.337 162.893 20.1555C162.775 19.9745 162.574 19.8048 162.289 19.6473C162.005 19.4898 161.63 19.3323 161.164 19.1743C160.698 19.0169 160.118 18.8434 159.423 18.6539C158.665 18.4494 157.994 18.2161 157.41 17.9562C156.826 17.6962 156.332 17.3807 155.93 17.0102C155.527 16.6398 155.223 16.2026 155.018 15.6976C154.812 15.1931 154.71 14.5862 154.71 13.8767C154.71 13.1673 154.856 12.4696 155.148 11.8787C155.44 11.2872 155.851 10.7833 156.38 10.3653C156.909 9.94785 157.541 9.62863 158.275 9.40763C159.009 9.18716 159.81 9.07666 160.679 9.07666C161.626 9.07666 162.562 9.16367 163.486 9.33663C164.41 9.51012 165.369 9.9281 166.364 10.59L164.682 13.6168C163.909 13.1283 163.202 12.8209 162.562 12.6943C161.923 12.5684 161.279 12.5054 160.632 12.5054C160.032 12.5054 159.546 12.6041 159.175 12.8011C158.804 12.9986 158.619 13.3253 158.619 13.7823C158.619 13.9872 158.678 14.1725 158.796 14.338C158.914 14.5034 159.116 14.6652 159.4 14.8227C159.685 14.9807 160.055 15.1344 160.513 15.2839C160.971 15.4339 161.532 15.6031 162.195 15.7921C163.237 16.0761 164.074 16.3953 164.706 16.7497C165.337 17.1047 165.823 17.4912 166.163 17.9087C166.502 18.3266 166.727 18.7761 166.838 19.2565C166.948 19.7375 167.003 20.2377 167.003 20.7582L167.001 20.7587Z" fill="#B0B7BF"/>
    <path d="M22.8126 19.8005L0.699536 10.9567C-0.248349 10.5768 -0.222513 9.49218 0.746366 8.95066L15.9723 0.441458C16.8427 -0.0451056 17.9294 -0.137246 18.7804 0.203834L40.8934 9.04765C41.8413 9.42752 41.8155 10.5122 40.8466 11.0537L25.6207 19.5629C24.7503 20.0495 23.6636 20.1416 22.8126 19.8005Z" fill="#B0B7BF"/>
    <path fill-rule="evenodd" clip-rule="evenodd" d="M22.8087 25.7639L0.69563 16.9201C-0.252256 16.5402 -0.226419 15.4556 0.742459 14.914L2.00237 14.2099L22.808 22.5309C23.659 22.872 24.7458 22.7798 25.6162 22.2933L39.5822 14.4882L40.8895 15.011C41.8374 15.3909 41.8116 16.4756 40.8427 17.0171L25.6168 25.5263C24.7464 26.0129 23.6597 26.105 22.8087 25.7639ZM36.7339 13.349L25.6178 19.5614C24.7474 20.0479 23.6607 20.1401 22.8097 19.799L4.85093 12.618L15.9684 6.40484C16.8388 5.91827 17.9255 5.82613 18.7765 6.16721L36.7339 13.349Z" fill="#B0B7BF"/>
    <path fill-rule="evenodd" clip-rule="evenodd" d="M0.69563 22.9527L22.8087 31.7966C23.6597 32.1376 24.7464 32.0455 25.6168 31.5589L40.8427 23.0497C41.8116 22.5082 41.8374 21.4235 40.8895 21.0437L39.5099 20.4919L25.6162 28.2566C24.7458 28.7431 23.659 28.8353 22.808 28.4942L2.07468 20.2021L0.742459 20.9467C-0.226419 21.4882 -0.252256 22.5729 0.69563 22.9527Z" fill="#B0B7BF"/>
</svg>
