<svg width="21" height="18" viewBox="0 0 21 18" fill="none" xmlns="http://www.w3.org/2000/svg">
    <path d="M1.28139 7.83896L13.8026 2.48346C15.0424 1.90101 19.1952 0.158709 19.1952 0.158709C19.1952 0.158709 21.1178 -0.615368 20.9943 1.25553C20.9313 2.0296 20.4979 4.80569 20.0645 7.71037L18.6988 16.49C18.6988 16.49 18.5753 17.7809 17.7084 17.9751C16.7786 18.1667 15.2894 17.1985 15.0424 16.9413C14.856 16.7471 11.0131 14.2308 9.64987 13.0028C9.27697 12.6801 8.84353 11.9716 9.71041 11.1975C11.633 9.32408 13.9261 7.06488 15.3524 5.57977C15.9722 4.93428 16.6551 3.32057 13.9261 5.25702L6.36398 10.552C6.36398 10.552 5.49711 11.1319 3.88443 10.615C2.27176 10.0982 0.412096 9.45267 0.412096 9.45267C0.412096 9.45267 -0.951172 8.74415 1.28139 7.83896Z" fill="#79818A"/>
</svg>
