<svg width="40" height="40" viewBox="0 0 40 40" fill="none" xmlns="http://www.w3.org/2000/svg">
    <g clip-path="url(#clip0_58_14541)">
        <path d="M40.0027 38.3359C40.0027 38.7779 39.8271 39.2018 39.5145 39.5144C39.202 39.8269 38.778 40.0025 38.336 40.0025H1.66935C1.22733 40.0025 0.803402 39.8269 0.490841 39.5144C0.178281 39.2018 0.0026859 38.7779 0.0026859 38.3359C0.0026859 37.8938 0.178281 37.4699 0.490841 37.1574C0.803402 36.8448 1.22733 36.6692 1.66935 36.6692H38.336C38.778 36.6692 39.202 36.8448 39.5145 37.1574C39.8271 37.4699 40.0027 37.8938 40.0027 38.3359ZM0.487686 14.2559C0.128556 13.5897 -0.037823 12.8367 0.00721994 12.0813C0.0522629 11.3259 0.306946 10.5979 0.742686 9.9792C1.45478 8.9344 2.40843 8.0768 3.52269 7.4792L16.0244 0.972533C17.2531 0.333585 18.6177 0 20.0027 0C21.3877 0 22.7522 0.333585 23.981 0.972533L36.481 7.4842C37.5953 8.0818 38.5489 8.93939 39.261 9.9842C39.6968 10.6029 39.9514 11.3309 39.9965 12.0863C40.0415 12.8417 39.8752 13.5947 39.516 14.2609C39.1294 14.9922 38.5495 15.6035 37.8395 16.0282C37.1295 16.4528 36.3166 16.6745 35.4894 16.6692H35.0027V30.0025H36.6694C37.1114 30.0025 37.5353 30.1781 37.8479 30.4907C38.1604 30.8032 38.336 31.2272 38.336 31.6692C38.336 32.1112 38.1604 32.5352 37.8479 32.8477C37.5353 33.1603 37.1114 33.3359 36.6694 33.3359H3.33602C2.89399 33.3359 2.47007 33.1603 2.15751 32.8477C1.84495 32.5352 1.66935 32.1112 1.66935 31.6692C1.66935 31.2272 1.84495 30.8032 2.15751 30.4907C2.47007 30.1781 2.89399 30.0025 3.33602 30.0025H5.00269V16.6692H4.51602C3.68795 16.6744 2.87436 16.452 2.164 16.0265C1.45364 15.6009 0.873784 14.9884 0.487686 14.2559ZM8.33602 30.0025H13.336V16.6692H8.33602V30.0025ZM16.6694 16.6692V30.0025H23.336V16.6692H16.6694ZM31.6694 16.6692H26.6694V30.0025H31.6694V16.6692ZM3.44102 12.7109C3.54559 12.9037 3.70121 13.064 3.89082 13.1742C4.08044 13.2844 4.29673 13.3404 4.51602 13.3359H35.4894C35.7086 13.3404 35.9249 13.2844 36.1146 13.1742C36.3042 13.064 36.4598 12.9037 36.5644 12.7109C36.6405 12.5835 36.6774 12.4364 36.6702 12.2882C36.6631 12.1399 36.6124 11.997 36.5244 11.8775C36.1205 11.2774 35.578 10.7834 34.9427 10.4375L22.4427 3.92587C21.6894 3.53491 20.8531 3.33082 20.0044 3.33082C19.1556 3.33082 18.3193 3.53491 17.566 3.92587L5.06602 10.4375C4.43099 10.7845 3.88857 11.279 3.48435 11.8792C3.39617 11.9982 3.34502 12.1406 3.33732 12.2885C3.32961 12.4364 3.36568 12.5833 3.44102 12.7109Z" fill="white"/>
    </g>
    <defs>
        <clipPath id="clip0_58_14541">
            <rect width="40" height="40" fill="white"/>
        </clipPath>
    </defs>
</svg>
