<svg width="40" height="40" viewBox="0 0 40 40" fill="none" xmlns="http://www.w3.org/2000/svg">
    <g clip-path="url(#clip0_58_14548)">
        <path d="M10 15C4.29833 15 0 17.5083 0 20.8333V34.1667C0 37.4917 4.29833 40 10 40C15.7017 40 20 37.4917 20 34.1667V20.8333C20 17.5083 15.7017 15 10 15ZM16.6667 27.5C16.6667 28.3817 14.135 30 10 30C5.865 30 3.33333 28.3817 3.33333 27.5V25.2533C5.07667 26.1417 7.39167 26.6667 10 26.6667C12.6083 26.6667 14.9233 26.1417 16.6667 25.2533V27.5ZM10 18.3333C14.135 18.3333 16.6667 19.9517 16.6667 20.8333C16.6667 21.715 14.135 23.3333 10 23.3333C5.865 23.3333 3.33333 21.715 3.33333 20.8333C3.33333 19.9517 5.865 18.3333 10 18.3333ZM10 36.6667C5.865 36.6667 3.33333 35.0483 3.33333 34.1667V31.92C5.07667 32.8083 7.39167 33.3333 10 33.3333C12.6083 33.3333 14.9233 32.8083 16.6667 31.92V34.1667C16.6667 35.0483 14.135 36.6667 10 36.6667ZM40 8.33333V31.6667C40 36.2617 36.2617 40 31.6667 40H23.3333C22.4117 40 21.6667 39.2533 21.6667 38.3333C21.6667 37.4133 22.4117 36.6667 23.3333 36.6667H31.6667C34.4233 36.6667 36.6667 34.4233 36.6667 31.6667V8.33333C36.6667 5.57667 34.4233 3.33333 31.6667 3.33333H15C12.2433 3.33333 10 5.57667 10 8.33333V10C10 10.92 9.255 11.6667 8.33333 11.6667C7.41167 11.6667 6.66667 10.92 6.66667 10V8.33333C6.66667 3.73833 10.405 0 15 0H31.6667C36.2617 0 40 3.73833 40 8.33333ZM21.6667 16.6667C20.745 16.6667 20 15.92 20 15C20 14.08 20.745 13.3333 21.6667 13.3333H30V10H16.6667V10.8333C16.6667 11.7533 15.9217 12.5 15 12.5C14.0783 12.5 13.3333 11.7533 13.3333 10.8333V10C13.3333 8.16167 14.8283 6.66667 16.6667 6.66667H30C31.8383 6.66667 33.3333 8.16167 33.3333 10V13.3333C33.3333 15.1717 31.8383 16.6667 30 16.6667H21.6667ZM23.3333 30C23.3333 29.08 24.0783 28.3333 25 28.3333H31.6667C32.5883 28.3333 33.3333 29.08 33.3333 30C33.3333 30.92 32.5883 31.6667 31.6667 31.6667H25C24.0783 31.6667 23.3333 30.92 23.3333 30ZM23.3333 23.3333V21.6667C23.3333 20.7467 24.0783 20 25 20C25.9217 20 26.6667 20.7467 26.6667 21.6667V23.3333C26.6667 24.2533 25.9217 25 25 25C24.0783 25 23.3333 24.2533 23.3333 23.3333ZM33.3333 23.3333C33.3333 24.2533 32.5883 25 31.6667 25C30.745 25 30 24.2533 30 23.3333V21.6667C30 20.7467 30.745 20 31.6667 20C32.5883 20 33.3333 20.7467 33.3333 21.6667V23.3333Z" fill="white"/>
    </g>
    <defs>
        <clipPath id="clip0_58_14548">
            <rect width="40" height="40" fill="white"/>
        </clipPath>
    </defs>
</svg>
