<svg width="40" height="40" viewBox="0 0 40 40" fill="none" xmlns="http://www.w3.org/2000/svg">
    <g clip-path="url(#clip0_58_14555)">
        <path d="M30.0033 20C30.0033 20.92 29.2567 21.6667 28.3367 21.6667C27.4167 21.6667 26.67 20.92 26.67 20C26.67 19.08 27.4167 18.3333 28.3367 18.3333C29.2567 18.3333 30.0033 19.08 30.0033 20ZM11.67 8.33333C12.59 8.33333 13.3367 7.58833 13.3367 6.66667C13.3367 4.82833 14.8317 3.33333 16.67 3.33333C18.5083 3.33333 20.0033 4.82833 20.0033 6.66667C20.0033 7.58833 20.75 8.33333 21.67 8.33333C22.59 8.33333 23.3367 7.58833 23.3367 6.66667C23.3367 2.99 20.3467 0 16.67 0C12.9933 0 10.0033 2.99 10.0033 6.66667C10.0033 7.58833 10.75 8.33333 11.67 8.33333ZM40.0033 21.6667V25C40.0033 26.8433 38.7567 27.965 37.39 28.2567C36.2883 31.0133 34.27 33.3417 31.67 34.8467V35C31.67 37.7567 29.4267 40 26.67 40C24.4967 40 22.6433 38.6067 21.955 36.6667H18.05C17.3617 38.6067 15.5083 40 13.335 40C10.5783 40 8.335 37.7567 8.335 35V34.8683C3.94333 32.3367 1.365 27.5733 1.69667 22.45C1.80167 20.82 2.21333 19.2717 2.87167 17.8567C1.17667 17.055 0 15.33 0 13.3333C0 10.5767 2.24333 8.33333 5 8.33333C5.92 8.33333 6.66667 9.07833 6.66667 10C6.66667 10.9217 5.92 11.6667 5 11.6667C4.08 11.6667 3.33333 12.4133 3.33333 13.3333C3.33333 14.1517 3.92667 14.8333 4.705 14.9733C7.24 11.935 11.1267 10 15.4433 10H24.3817C25.6033 7.53667 27.885 5.81333 30.9267 5.09C31.9117 4.85833 32.9317 5.085 33.7283 5.71333C34.5367 6.35333 35.0017 7.31 35.0017 8.34V14.5317C36.015 15.6833 36.825 17 37.3883 18.41C38.7567 18.7017 40.0033 19.8233 40.0033 21.6667ZM36.67 21.6667H36.18C35.4433 21.6667 34.7933 21.1817 34.5833 20.475C34.1267 18.9417 33.2833 17.515 32.145 16.3467C31.84 16.035 31.67 15.6167 31.67 15.1833V8.34C30.045 8.72667 27.895 9.72333 27.0633 12.2317C26.8283 12.9367 26.1417 13.4217 25.4133 13.3717C25.3 13.3667 15.4467 13.335 15.4467 13.335C9.94167 13.335 5.36333 17.4333 5.025 22.6667C4.75833 26.7817 6.99333 30.5867 10.72 32.3583C11.3017 32.635 11.67 33.2217 11.67 33.8633V35.0017C11.67 35.9217 12.4183 36.6683 13.3367 36.6683C14.255 36.6683 15.0033 35.9217 15.0033 35.0017C15.0033 34.0817 15.75 33.335 16.67 33.335H23.3367C24.2567 33.335 25.0033 34.08 25.0033 35.0017C25.0033 35.9233 25.7517 36.6683 26.67 36.6683C27.5883 36.6683 28.3367 35.9217 28.3367 35.0017V33.845C28.3367 33.2033 28.705 32.6183 29.285 32.3417C31.855 31.115 33.785 28.8733 34.5833 26.195C34.7933 25.4883 35.4433 25.0033 36.18 25.0033H36.67V21.67V21.6667Z" fill="white"/>
    </g>
    <defs>
        <clipPath id="clip0_58_14555">
            <rect width="40" height="40" fill="white"/>
        </clipPath>
    </defs>
</svg>
