<svg width="40" height="40" viewBox="0 0 40 40" fill="none" xmlns="http://www.w3.org/2000/svg">
    <path d="M31.6667 1.66406H8.33333C6.12401 1.66671 4.00593 2.54553 2.4437 4.10776C0.88147 5.66999 0.00264643 7.78807 0 9.9974L0 23.3307C0.00264643 25.5401 0.88147 27.6581 2.4437 29.2204C4.00593 30.7826 6.12401 31.6614 8.33333 31.6641H18.3333V34.9974H11.6667C11.2246 34.9974 10.8007 35.173 10.4882 35.4855C10.1756 35.7981 10 36.222 10 36.6641C10 37.1061 10.1756 37.53 10.4882 37.8426C10.8007 38.1551 11.2246 38.3307 11.6667 38.3307H28.3333C28.7754 38.3307 29.1993 38.1551 29.5118 37.8426C29.8244 37.53 30 37.1061 30 36.6641C30 36.222 29.8244 35.7981 29.5118 35.4855C29.1993 35.173 28.7754 34.9974 28.3333 34.9974H21.6667V31.6641H31.6667C33.876 31.6614 35.9941 30.7826 37.5563 29.2204C39.1185 27.6581 39.9974 25.5401 40 23.3307V9.9974C39.9974 7.78807 39.1185 5.66999 37.5563 4.10776C35.9941 2.54553 33.876 1.66671 31.6667 1.66406ZM36.6667 23.3307C36.6667 24.6568 36.1399 25.9286 35.2022 26.8663C34.2645 27.8039 32.9927 28.3307 31.6667 28.3307H8.33333C7.00725 28.3307 5.73548 27.8039 4.7978 26.8663C3.86012 25.9286 3.33333 24.6568 3.33333 23.3307V9.9974C3.33333 8.67131 3.86012 7.39954 4.7978 6.46186C5.73548 5.52418 7.00725 4.9974 8.33333 4.9974H31.6667C32.9927 4.9974 34.2645 5.52418 35.2022 6.46186C36.1399 7.39954 36.6667 8.67131 36.6667 9.9974V23.3307ZM33.3333 16.6641C33.3333 17.1061 33.1577 17.53 32.8452 17.8426C32.5326 18.1551 32.1087 18.3307 31.6667 18.3307H26.725L23.8917 22.5891C23.7389 22.818 23.5319 23.0055 23.2891 23.1349C23.0463 23.2643 22.7752 23.3316 22.5 23.3307C22.465 23.3307 22.43 23.3307 22.3967 23.3307C22.1051 23.3128 21.8233 23.2185 21.5796 23.0573C21.336 22.8961 21.139 22.6737 21.0083 22.4124L17.2933 14.9774L15.5533 17.5891C15.4011 17.8173 15.1949 18.0043 14.953 18.1337C14.7111 18.2631 14.441 18.3308 14.1667 18.3307H8.33333C7.89131 18.3307 7.46738 18.1551 7.15482 17.8426C6.84226 17.53 6.66667 17.1061 6.66667 16.6641C6.66667 16.222 6.84226 15.7981 7.15482 15.4856C7.46738 15.173 7.89131 14.9974 8.33333 14.9974H13.275L16.1083 10.7391C16.2687 10.4933 16.4919 10.295 16.7548 10.1646C17.0177 10.0342 17.3106 9.97644 17.6033 9.9974C17.8949 10.0154 18.1767 10.1097 18.4204 10.2708C18.664 10.432 18.861 10.6544 18.9917 10.9157L22.7067 18.3474L24.4467 15.7357C24.5993 15.5082 24.8057 15.3217 25.0476 15.1929C25.2894 15.0642 25.5593 14.997 25.8333 14.9974H31.6667C32.1087 14.9974 32.5326 15.173 32.8452 15.4856C33.1577 15.7981 33.3333 16.222 33.3333 16.6641Z" fill="white"/>
</svg>
