<svg width="142" height="26" viewBox="0 0 142 26" fill="none" xmlns="http://www.w3.org/2000/svg">
    <g clip-path="url(#clip0_58_15031)">
        <path d="M32.0146 6.77734H35.9526V16.0787H42.0985V19.1174H32.0146V6.77734Z" fill="#B0B7BF"/>
        <path d="M51.7478 17.0804H47.2622L46.645 19.1174H42.6201L47.41 6.77734H51.7043L56.4941 19.1174H52.3737L51.7478 17.0804ZM50.9219 14.412L49.5137 9.976L48.1141 14.412H50.9219Z" fill="#B0B7BF"/>
        <path d="M57.7715 6.77734H61.4486L66.2471 13.604V6.77734H69.9591V19.1174H66.2471L61.4747 12.3413V19.1174H57.7715V6.77734Z" fill="#B0B7BF"/>
        <path d="M72.6455 6.77734H78.4959C79.6492 6.77734 80.5793 6.92886 81.2863 7.23189C81.9992 7.53492 82.5874 7.96982 83.051 8.5366C83.5146 9.10338 83.8508 9.76276 84.0594 10.5147C84.268 11.2667 84.3723 12.0635 84.3723 12.9053C84.3723 14.224 84.2159 15.2482 83.9029 15.9777C83.5958 16.7016 83.1669 17.3105 82.6164 17.8043C82.0658 18.2925 81.4747 18.618 80.843 18.7807C79.9795 19.0052 79.1971 19.1174 78.4959 19.1174H72.6455V6.77734ZM76.5834 9.57196V16.3144H77.5484C78.3713 16.3144 78.9566 16.2274 79.3043 16.0534C79.6521 15.8739 79.9244 15.5652 80.1215 15.1275C80.3185 14.6842 80.417 13.9687 80.417 12.9811C80.417 11.6735 80.1968 10.7785 79.7564 10.2959C79.3159 9.81326 78.5857 9.57196 77.5657 9.57196H76.5834Z" fill="#B0B7BF"/>
        <path d="M86.4414 6.77734H93.8131C95.0417 6.77734 95.9834 7.07196 96.6383 7.66118C97.299 8.25041 97.6293 8.97993 97.6293 9.84974C97.6293 10.5793 97.3946 11.205 96.9252 11.7268C96.6122 12.0748 96.1544 12.3497 95.5517 12.5518C96.4673 12.765 97.1396 13.1326 97.5684 13.6545C98.0031 14.1707 98.2204 14.8217 98.2204 15.6073C98.2204 16.2471 98.0668 16.8223 97.7597 17.3329C97.4525 17.8436 97.0324 18.2476 96.4992 18.545C96.1689 18.7302 95.6705 18.8649 95.004 18.9491C94.1173 19.0613 93.5291 19.1174 93.2393 19.1174H86.4414V6.77734ZM90.4141 11.6174H92.1266C92.7409 11.6174 93.1669 11.5164 93.4045 11.3144C93.6479 11.1068 93.7696 10.8093 93.7696 10.4221C93.7696 10.063 93.6479 9.7824 93.4045 9.58038C93.1669 9.37836 92.7496 9.27735 92.1527 9.27735H90.4141V11.6174ZM90.4141 16.4659H92.4222C93.1002 16.4659 93.5784 16.3509 93.8565 16.1208C94.1347 15.8851 94.2738 15.5708 94.2738 15.178C94.2738 14.8133 94.1347 14.5215 93.8565 14.3026C93.5841 14.0781 93.1031 13.9659 92.4135 13.9659H90.4141V16.4659Z" fill="#B0B7BF"/>
        <path d="M107.8 17.0804H103.315L102.698 19.1174H98.6729L103.463 6.77734H107.757L112.547 19.1174H108.426L107.8 17.0804ZM106.975 14.412L105.566 9.976L104.167 14.412H106.975Z" fill="#B0B7BF"/>
        <path d="M113.824 6.77734H117.501L122.3 13.604V6.77734H126.012V19.1174H122.3L117.527 12.3413V19.1174H113.824V6.77734Z" fill="#B0B7BF"/>
        <path d="M128.663 6.77734H132.601V11.4406L136.73 6.77734H141.963L137.321 11.4322L142.172 19.1174H137.321L134.635 14.0417L132.601 16.104V19.1174H128.663V6.77734Z" fill="#B0B7BF"/>
    </g>
    <path fill-rule="evenodd" clip-rule="evenodd" d="M12.0826 1.73744C12.1162 1.73369 12.4648 0 12.4648 0H14.3861C14.3861 0 14.7345 1.73369 14.7682 1.73744H14.7186C15.0317 1.77105 15.3433 1.81699 15.6525 1.87515L15.6167 1.8642C15.65 1.87044 16.514 0.317673 16.514 0.317673L18.3473 0.878223C18.3473 0.878223 18.1485 2.63439 18.1795 2.64779L18.122 2.63023C18.4106 2.75246 18.694 2.88601 18.9715 3.03055L18.9503 3.01619C18.9801 3.03184 20.2805 1.80232 20.2805 1.80232L21.8581 2.87207C21.8581 2.87207 21.1302 4.48986 21.1556 4.51168L21.0973 4.47211C21.3357 4.67197 21.5658 4.88113 21.787 5.09909L21.7783 5.08814C21.802 5.11178 23.4196 4.31797 23.4196 4.31797L24.5972 5.79911C24.5972 5.79911 23.4068 7.1304 23.4243 7.15864L23.3748 7.09624C23.5413 7.35478 23.697 7.61974 23.8417 7.89048C23.8571 7.91994 25.6441 7.63438 25.6441 7.63438L26.3138 9.39134C26.3138 9.39134 24.7698 10.3143 24.7779 10.3464L24.7464 10.2638C24.8286 10.5703 24.8976 10.8801 24.9534 11.1923L24.952 11.1666C24.9576 11.1992 26.7503 11.4481 26.7503 11.4481L26.8509 13.32C26.8509 13.32 25.0946 13.7504 25.0925 13.7834L25.0856 13.6546C25.0638 14.072 25.0184 14.4879 24.9498 14.9005L26.4627 15.5612L26.0546 17.2199C24.4243 22.4146 19.2791 25.9917 13.4254 26C7.5717 25.9917 2.42644 22.4146 0.796228 17.2199L0.388054 15.5612L1.89253 14.9042C1.82835 14.5226 1.7841 14.138 1.75996 13.752L1.75827 13.7834C1.7562 13.7504 0 13.32 0 13.32L0.100482 11.4481C0.100482 11.4481 1.89328 11.1992 1.89888 11.1666L1.89211 11.2933C1.95028 10.934 2.02604 10.5776 2.11912 10.2253L2.07295 10.3464C2.08108 10.3143 0.537031 9.39134 0.537031 9.39134L1.20673 7.63438C1.20673 7.63438 2.99372 7.91994 3.00905 7.89048L2.9649 8.00629C3.12997 7.68192 3.31077 7.3654 3.5067 7.05781L3.42655 7.15864C3.44413 7.1304 2.25369 5.79911 2.25369 5.79911L3.43121 4.31797C3.43121 4.31797 5.04893 5.11178 5.07259 5.08814L4.99836 5.18143C5.2536 4.92219 5.52125 4.67487 5.80042 4.44029L5.69517 4.51168C5.72061 4.48986 4.99275 2.87207 4.99275 2.87207L6.57039 1.80232C6.57039 1.80232 7.87066 3.03184 7.90048 3.01619L7.80804 3.0789C8.12745 2.90839 8.45484 2.75253 8.78915 2.61184L8.6714 2.64779C8.70236 2.63439 8.50358 0.878223 8.50358 0.878223L10.3368 0.317673C10.3368 0.317673 11.2008 1.87044 11.2341 1.8642L11.1374 1.89374C11.4895 1.82573 11.8446 1.77357 12.2016 1.73744H12.0826ZM13.9422 13.502C13.1667 13.0378 11.3426 11.3112 11.3605 8.50196C11.3784 5.69273 13.1667 3.96612 13.9422 3.50195C14.7176 3.96612 16.5059 5.69273 16.5239 8.50196C16.5418 11.3112 14.7176 13.0378 13.9422 13.502ZM1.54932 17.3386C1.90444 18.1841 2.36091 18.9827 2.90519 19.7216C5.57767 18.2219 8.89141 18.8373 12.719 19.5481H12.719C12.8541 19.5732 12.9898 19.5984 13.1261 19.6236V20.3252C10.5376 19.8632 7.82954 19.7363 4.64746 21.0478C5.17295 21.5823 5.75529 22.0709 6.38607 22.5062C9.15285 21.1795 11.3058 20.7769 13.1261 20.8457V21.5203C12.9414 21.5068 12.7563 21.5 12.5712 21.5C10.6782 21.5 8.78531 22.2068 7.22998 23.6195C9.06935 24.8088 11.1997 25.4918 13.472 25.4999C13.5425 25.5013 13.6132 25.502 13.684 25.502C13.8711 25.502 14.057 25.4971 14.242 25.4888V25.4767C15.7815 25.378 17.2468 24.9685 18.59 24.3042C17.3541 22.9154 15.8345 22.0424 14.242 21.6853V20.9488C15.6921 21.1617 16.9416 21.6505 18.1675 22.13C18.9972 22.4545 19.816 22.7748 20.679 23.0025C21.4184 22.5694 22.1025 22.0674 22.7202 21.5063C20.1339 21.8411 17.8103 21.3273 15.4772 20.8113C15.0663 20.7204 14.655 20.6295 14.242 20.5431V19.8265C17.1567 20.3428 20.3408 20.7681 23.7436 20.2968C24.36 19.5587 24.8849 18.7521 25.302 17.8907C20.9294 19.2854 17.3134 19.3983 14.242 19.0413V18.3033C16.2579 18.1685 18.0287 17.3106 19.1803 16.0406L19.1831 16.0377C19.3572 15.8606 19.5275 15.6681 19.6922 15.4591C21.4588 13.2168 21.2647 10.823 21.0003 10.011C20.947 10.0063 20.8878 10.0033 20.8231 10.0023C19.8525 9.98758 17.6542 10.4253 15.9738 12.5082C14.5437 14.2809 14.395 16.1752 14.5275 17.2814C14.3155 17.5041 14.0161 17.6432 13.684 17.6432C13.3519 17.6432 13.0526 17.5041 12.8406 17.2814C12.9731 16.1752 12.8244 14.2809 11.3943 12.5082C9.71388 10.4253 7.51573 9.98758 6.5451 10.0023C6.48039 10.0033 6.42109 10.0063 6.36781 10.011C6.10339 10.823 5.90926 13.2168 7.67586 15.4591C7.83955 15.6668 8.00883 15.8581 8.18177 16.0342C9.33321 17.3078 11.1068 18.1684 13.1261 18.3034V18.8887C11.4225 18.6216 9.89307 18.2305 8.49645 17.8734C5.77898 17.1785 3.56451 16.6123 1.54932 17.3386Z" fill="#B0B7BF"/>
    <defs>
        <clipPath id="clip0_58_15031">
            <rect width="109.985" height="12" fill="#B0B7BF" transform="translate(32.0146 7)"/>
        </clipPath>
    </defs>
</svg>



