<svg width="47" height="16" viewBox="0 0 47 16" fill="none" xmlns="http://www.w3.org/2000/svg">
    <path d="M15.0291 9.7816C14.4137 8.66225 13.2298 7.80922 11.7888 7.48886C12.9805 6.80567 13.7633 5.64772 13.7633 4.33924C13.7633 2.27037 11.8083 0.587485 9.37418 0.533447H3.58299H3.34931H0V15.7103H2.90923H3.58299H9.51049C9.68185 15.7257 9.85711 15.7334 10.0363 15.7334C12.3107 15.7334 14.1956 14.7145 15.0252 13.2477V9.7816H15.0291ZM3.58299 2.53284H5.29269H7.85531C9.06262 2.53284 10.0363 3.50551 10.0363 4.70206C10.0363 5.89861 9.05873 6.87128 7.85531 6.87128H5.89246C5.89635 6.87514 5.89635 6.87514 5.90024 6.879H3.58299V2.53284ZM9.13662 13.6723H6.09887H3.58299V8.94787H6.60126H9.13662C10.5542 8.94787 11.7031 10.0055 11.7031 11.3101C11.7031 12.6147 10.5542 13.6723 9.13662 13.6723Z" fill="#B0B7BF"/>
    <path d="M46.9995 8C46.9995 12.4194 42.9009 16 37.8455 16C32.7901 16 28.6914 12.4194 28.6914 8C28.6914 3.58055 32.7901 0 37.8455 0C42.9009 0 46.9995 3.58055 46.9995 8ZM37.8888 1.82269C34.9634 1.82269 32.5971 4.58341 32.5971 7.99237C32.5971 11.3975 34.9674 14.1621 37.8888 14.1621C40.8102 14.1621 43.1804 11.4013 43.1804 7.99237C43.1844 4.58341 40.8142 1.82269 37.8888 1.82269Z" fill="#B0B7BF"/>
    <path d="M28.8837 8.05422C28.8837 6.64746 29.2924 5.32572 30.0068 4.17016C28.4551 1.99045 25.6532 0.533447 22.4545 0.533447H18.7915H17.5335H15.0293V15.7334H17.5335H18.7915H22.4545C25.6889 15.7334 28.5146 14.2455 30.0584 12.0194C29.3123 10.8484 28.8837 9.49577 28.8837 8.05422ZM21.9862 13.6929H18.7876V2.53538H21.9862C24.792 2.53538 27.0621 5.032 27.0621 8.11606C27.066 11.1962 24.792 13.6929 21.9862 13.6929Z" fill="#B0B7BF"/>
</svg>
