<svg width="50" height="22" viewBox="0 0 50 22" fill="none" xmlns="http://www.w3.org/2000/svg">
    <path d="M18.5645 18.8211V4.65063H23.8794C26.0154 4.65063 27.5965 4.94498 28.6224 5.54207C29.64 6.13917 30.153 7.05583 30.153 8.30889C30.153 9.14146 29.9007 9.82265 29.3961 10.3525C28.8916 10.8823 28.1347 11.2607 27.1255 11.4962C28.2945 11.7064 29.1523 12.0933 29.7157 12.6652C30.2792 13.2286 30.5651 13.9939 30.5651 14.9442C30.5651 16.2393 30.1026 17.2064 29.1859 17.854C28.2692 18.5016 26.8816 18.8211 25.0231 18.8211H18.5645ZM22.3656 10.3945H23.8878C24.7288 10.3945 25.3511 10.2684 25.7379 10.0077C26.1248 9.74696 26.3266 9.34329 26.3266 8.78825C26.3266 8.26684 26.1248 7.87158 25.7127 7.60247C25.3006 7.34177 24.6951 7.20721 23.8878 7.20721H22.3656V10.3945ZM22.3656 16.2477H23.8878C24.8381 16.2477 25.5277 16.1132 25.9566 15.8357C26.3771 15.5665 26.5873 15.1208 26.5873 14.5069C26.5873 13.935 26.3686 13.5145 25.9313 13.2454C25.494 12.9763 24.8129 12.8334 23.8878 12.8334H22.3656V16.2477Z" fill="#B0B7BF"/>
    <path d="M32.2715 18.8211V4.65063H38.7638C40.6139 4.65063 42.0183 5.02907 42.9686 5.80278C43.9189 6.56807 44.3983 7.69498 44.3983 9.1751C44.3983 10.63 43.9273 11.7653 42.9854 12.5727C42.0435 13.38 40.7316 13.7921 39.0497 13.7921H36.2156V18.8295H32.2715V18.8211ZM36.2072 11.0084H37.9564C38.7974 11.0084 39.4113 10.8571 39.815 10.5459C40.2186 10.2347 40.4121 9.76379 40.4121 9.11623C40.4121 8.4855 40.2186 8.02296 39.8234 7.72862C39.4281 7.43427 38.8058 7.29131 37.9564 7.29131H36.2072V11.0084Z" fill="#B0B7BF"/>
    <path d="M46.082 18.8211V4.65063H50.0009V18.8211H46.082Z" fill="#B0B7BF"/>
    <path fill-rule="evenodd" clip-rule="evenodd" d="M0.130448 16.6177C0.256593 16.9457 0.517293 17.2569 0.912549 17.568C1.49282 18.0222 5.86586 20.932 7.18618 21.8066L7.48052 22L7.7244 21.8402C7.95146 21.6888 13.2664 18.081 13.9139 17.568C14.3092 17.2569 14.5615 16.9457 14.696 16.6177C14.8979 16.0879 14.8222 15.6758 14.7633 15.3731V15.3563C14.7381 15.2133 13.8719 9.97401 13.4009 7.48471C11.4919 7.18196 9.54089 7.02217 7.5478 7.02217C7.50575 7.02217 7.4637 7.02217 7.41324 7.02217V20.5956C4.74737 18.8463 2.15718 17.156 1.72829 16.8196C1.46759 16.6177 1.3078 16.4327 1.24053 16.2645C1.1312 15.9954 1.17325 15.7599 1.22371 15.5245C1.25735 15.3647 2.19082 9.74694 2.64495 7.35856C2.23287 7.40902 1.92171 7.46789 1.51805 7.53517C1.0471 10.0329 0.0968088 15.2133 0.0715797 15.3647C0.00430214 15.6758 -0.0713847 16.0879 0.130448 16.6177ZM3.60365 9.47783H4.07459V9.74694V9.8815H4.48667V9.4526H4.98284V9.8815H5.3781V9.46942H5.84904V10.5291H3.60365V9.47783ZM3.97368 10.7141H5.47901L6.00041 14.8937H3.45228L3.97368 10.7141ZM3.16635 15.0872H6.27793V16.1384H5.43696V15.8693H3.99891V16.1384H3.15794V15.0872H3.16635ZM4.37734 12.9931H5.09217V12.7324H4.37734V12.9931ZM5.08376 11.9083H4.36893V12.169H5.08376V11.9083ZM4.36893 13.8173H5.08376V13.5566H4.36893V13.8173ZM3.9064 5.35703C3.61206 5.39067 3.41023 5.42431 3.14112 5.50841C3.09907 5.74388 3.01497 6.20642 2.93928 6.56804C4.41939 6.3578 5.93314 6.24006 7.47211 6.24006C8.91858 6.24006 10.3398 6.34939 11.7442 6.5344C11.6685 6.18119 11.5929 5.74388 11.5508 5.50841C11.3658 5.43272 11.1219 5.38226 10.8108 5.36544C11.7947 5.12997 12.3918 4.44037 12.3918 3.77599C12.3918 2.90138 11.7022 2.20336 9.99502 2.02676C9.38952 1.55581 8.54855 1.35398 7.82532 1.29511C8.00192 1.16896 8.12807 0.950305 8.12807 0.706422C8.12807 0.311162 7.73281 0 7.35437 0C6.97594 0 6.58068 0.319571 6.58068 0.706422C6.58068 0.950305 6.69842 1.16896 6.88343 1.29511C6.15179 1.35398 5.31923 1.55581 4.71373 2.02676C3.01497 2.19495 2.31697 2.89297 2.31697 3.77599C2.31697 4.44037 2.92247 5.12997 3.9064 5.35703ZM10.3566 2.56499C10.3566 2.56499 11.6517 2.68272 11.6349 3.80963C11.6265 4.70107 10.6594 5.18884 9.43157 5.03746C11.1219 4.34786 10.7603 3.04434 10.3566 2.56499ZM7.74963 1.90061C8.83448 2.00153 9.67545 2.67431 9.67545 3.50688C9.67545 4.34786 8.80925 5.03746 7.69917 5.11315C7.92623 4.8104 8.07761 4.19648 8.07761 3.47324C8.08602 2.80887 7.95146 2.22859 7.74963 1.90061ZM6.95912 1.90061C6.7657 2.22018 6.63114 2.80046 6.63114 3.47324C6.63114 4.19648 6.79092 4.8104 7.00958 5.11315C5.8995 5.02905 5.0333 4.34786 5.0333 3.50688C5.0333 2.67431 5.87427 2.00153 6.95912 1.90061ZM4.36052 2.56499C3.95686 3.04434 3.59524 4.34786 5.28559 5.02905C4.05777 5.18043 3.09066 4.70107 3.08225 3.80122C3.06543 2.68272 4.36052 2.56499 4.36052 2.56499ZM10.7603 17.0298C10.7771 16.9794 10.7855 16.9289 10.8023 16.8784C10.8864 16.8616 10.9705 16.8532 11.0546 16.8364C11.2144 16.7355 11.1976 16.4075 11.3574 16.315C11.4331 16.2729 11.4667 16.3318 11.5004 16.3739C11.5508 16.2645 11.534 16.1047 11.5844 15.9786C11.719 15.659 12.0049 15.4824 11.8956 14.9358C11.8872 14.9274 11.8788 14.919 11.8788 14.9106C11.8283 14.9862 11.8115 15.0367 11.7526 15.0956C11.3406 15.0703 11.4919 14.1453 11.7695 14.0612C11.9713 14.6078 12.8375 14.7676 12.888 14.0443C12.8964 13.9014 12.7786 13.6995 12.6357 13.4725C12.6945 13.2454 12.787 13.0604 12.8711 12.9427C12.9216 12.8754 12.6357 13.0015 12.5011 13.2538C12.56 13.0099 12.6609 12.8081 12.745 12.682C12.7954 12.6147 12.5432 12.724 12.4002 12.9511C12.4591 12.7072 12.56 12.5138 12.6441 12.3876C12.6945 12.3119 12.3834 12.4549 12.2572 12.7408C12.2152 12.5979 12.1815 12.4549 12.1899 12.3119C12.1984 11.9671 12.2993 11.2859 12.4338 10.7309C12.4675 10.5711 12.5516 10.2768 12.7786 10.1506C12.602 10.1086 12.2993 10.2683 12.3077 10.6132C12.2572 10.1086 11.8788 9.94037 11.6854 9.90673C12.3077 10.4534 11.7947 11.7064 11.8031 12.2951C11.8115 13.0352 12.6945 13.8089 12.56 14.0696C12.3581 14.4564 11.9797 13.7164 11.8704 13.4809C11.7526 13.2454 11.349 12.8754 11.0546 12.5895C11.2312 12.4633 11.4247 12.1521 11.4331 11.8157C11.4583 11.8494 11.4919 11.883 11.5172 11.9167C11.5256 11.9167 11.5424 11.9167 11.5592 11.9167C11.5172 11.6055 11.6433 11.2859 11.5424 11C11.5929 11 11.6349 11 11.6854 11C11.6433 9.62921 10.651 9.91514 10.1716 10.0329C10.1632 10.0581 10.1548 10.0833 10.1464 10.1086C10.2137 10.1086 10.2725 10.117 10.3398 10.117C10.3398 10.1254 10.3398 10.1254 10.3398 10.1254C10.2894 10.1422 10.2389 10.159 10.1884 10.1758C10.1632 10.2683 10.1884 10.487 10.3062 10.5963C10.3482 10.4954 10.3566 10.4534 10.4491 10.4113C10.5669 10.4702 10.6426 10.672 10.5669 10.857C10.4828 10.8907 10.3987 10.8739 10.365 10.7729H10.3566C10.3062 10.9748 10.323 11.185 10.4744 11.3196C10.4828 11.1514 10.5416 11.0757 10.6846 11.0841C10.6426 11.4962 10.365 11.4037 10.0875 11.513C9.57453 11.7148 9.43157 12.4885 8.96903 12.6147C9.01108 12.7997 9.18769 12.9511 9.32224 13.0184C9.25496 13.1445 8.96903 13.5398 8.84289 13.5566C8.79243 13.4893 8.75038 13.422 8.66629 13.3968C8.58219 13.422 8.5065 13.4388 8.4224 13.4641C8.41399 13.4893 8.39717 13.5229 8.38036 13.5482C8.41399 13.5566 8.44763 13.565 8.48968 13.5734C8.48968 13.6239 8.48127 13.6743 8.48127 13.7248C8.54855 13.7416 8.64106 13.7416 8.69992 13.7752C8.69992 13.7921 8.70833 13.8005 8.70833 13.8173C8.63265 13.8005 8.55696 13.7668 8.47286 13.792C8.4224 13.8257 8.31308 14.0275 8.33831 14.1116C8.33831 14.12 8.33831 14.1284 8.33831 14.1369C8.36354 14.1116 8.38036 14.0948 8.40558 14.078C8.45604 14.0948 8.45604 14.1032 8.46445 14.1621C8.48127 14.1705 8.49809 14.1789 8.51491 14.1873C8.57378 14.1284 8.64106 14.0696 8.69992 14.0107H8.70833C8.71674 14.0191 8.71674 14.0359 8.72515 14.0443C8.66629 14.1032 8.61583 14.1621 8.55696 14.2209C8.54855 14.3219 8.53173 14.4312 8.54855 14.5658C8.5906 14.5321 8.62424 14.4901 8.66629 14.4564C8.81766 14.5994 8.91017 14.4144 8.99426 14.2714C9.04472 14.3219 9.10359 14.3303 9.17087 14.3303C9.17087 14.3639 9.17928 14.406 9.17928 14.4396H9.18769C9.43157 14.2041 9.12041 14.0023 9.40634 13.7164C9.54089 13.8005 9.64181 13.7752 9.77637 13.7164C9.80159 13.6827 9.81841 13.6491 9.84364 13.6154C9.76796 13.5902 9.72591 13.5566 9.69227 13.4809C9.69227 13.4304 9.69227 13.422 9.70909 13.3968C9.76795 13.2706 9.9782 13.2875 10.0959 13.3295C10.4071 13.4557 10.5921 13.7332 10.8192 13.9602C10.8023 14.2462 10.7687 14.6162 10.8276 14.8769C10.8949 15.1376 11.0799 15.2554 11.0126 15.5833C11.1303 15.5749 11.1892 15.5161 11.2312 15.4235C11.2733 15.4235 11.3237 15.432 11.3658 15.432C11.2481 15.6506 11.0378 16.0711 10.8023 16.13C10.5921 16.1888 10.508 15.9281 10.3062 15.9954C10.2809 16.0206 10.2473 16.0543 10.2221 16.0795C10.1296 16.13 10.1043 16.0627 10.0455 16.1804C10.0455 16.1888 10.0455 16.2057 10.0455 16.2141C10.0791 16.2141 10.1128 16.2225 10.1548 16.2225C10.1632 16.2645 10.1716 16.315 10.18 16.357C10.2389 16.2982 10.2894 16.2309 10.3482 16.172C10.3482 16.1804 10.3566 16.1888 10.3566 16.1972C10.2725 16.2729 10.2137 16.3907 10.1548 16.5C10.1464 16.5757 10.1548 16.6346 10.1632 16.7102C10.1716 16.7187 10.1716 16.7187 10.18 16.7187C10.1968 16.685 10.2221 16.6514 10.2389 16.6177C10.2557 16.6177 10.2641 16.6177 10.2809 16.6177C10.2978 16.643 10.3146 16.6682 10.3314 16.6934C10.3482 16.6934 10.3566 16.6934 10.3735 16.6934C10.3903 16.5925 10.4155 16.4832 10.4323 16.3823C10.4407 16.3739 10.4491 16.3654 10.4576 16.357C10.4576 16.3654 10.466 16.3654 10.466 16.3654C10.4071 16.5336 10.3819 16.7102 10.4239 16.8953C10.4323 16.9037 10.4491 16.9205 10.466 16.9289C10.4744 16.9037 10.4828 16.87 10.4912 16.8448C10.5332 16.8028 10.5585 16.7943 10.6426 16.7943C10.651 16.6598 10.6089 16.5421 10.7014 16.458C10.6426 16.5925 10.6594 16.7943 10.693 16.9541C10.7183 16.9962 10.7351 17.013 10.7603 17.0298ZM10.6005 10.2599C10.6005 10.2011 10.6005 10.1506 10.6005 10.0917C10.7183 10.0833 10.8696 10.0749 10.9453 10.1254C10.836 10.1758 10.7183 10.2179 10.6005 10.2599ZM10.8276 15.331V15.3226C10.7098 15.2301 10.3062 14.7339 10.4323 14.448C10.4828 14.2882 10.6342 14.3303 10.7183 14.406C10.7267 14.3219 10.7351 14.2294 10.7351 14.1453C10.6594 14.0275 10.466 13.9687 10.5416 13.7584C10.0287 13.3463 10.0623 14.0443 9.62499 14.0359C9.64181 14.1957 9.7175 14.3135 9.86046 14.3219C9.86046 14.6498 9.98661 14.8769 10.1296 15.0115C10.1296 15.0199 10.138 15.0367 10.138 15.0451C9.94456 15.0703 9.70068 15.104 9.55771 14.9862C9.38952 14.8433 9.34747 14.633 9.05313 14.6498C9.05313 14.6583 9.05313 14.6583 9.05313 14.6583C9.06995 14.6835 9.08677 14.7087 9.10359 14.7339C9.112 14.776 9.08677 14.7928 9.07836 14.8433C9.07836 14.8433 9.07836 14.8517 9.07836 14.8601C9.13723 14.8769 9.18769 14.8937 9.24655 14.9106C9.25496 14.9106 9.25496 14.9106 9.26337 14.9106C9.26337 14.9274 9.26337 14.9442 9.26337 14.961C9.10359 14.9274 8.9354 14.9358 8.87653 15.1124C8.87653 15.1208 8.87653 15.1208 8.87653 15.1292C8.91017 15.1292 8.94381 15.1292 8.97744 15.1292C9.00267 15.1797 9.0279 15.2217 9.03631 15.3058C9.09518 15.2385 9.15405 15.1713 9.21292 15.104H9.22132C9.18769 15.289 9.03631 15.3395 9.01949 15.5665C9.01949 15.5749 9.01949 15.5749 9.01949 15.5749C9.05313 15.5749 9.09518 15.5413 9.13723 15.5161C9.17087 15.5497 9.20451 15.5833 9.22973 15.617C9.27178 15.5749 9.2886 15.4656 9.30542 15.3899C9.32224 15.3899 9.33065 15.3899 9.34747 15.3899C9.32224 15.5245 9.24655 15.6927 9.29701 15.8272C9.31383 15.844 9.33065 15.8693 9.34747 15.8861C9.36429 15.844 9.3727 15.802 9.38952 15.7599C9.44839 15.7179 9.49044 15.802 9.59135 15.7599C9.70909 15.7095 9.70909 15.5497 9.87728 15.5497C9.91933 15.6002 9.94456 15.6254 9.94456 15.7347C10.0539 15.7011 10.0875 15.5917 10.1884 15.5581C10.5164 15.4488 10.5921 15.6086 10.8276 15.331ZM9.9782 10.958C10.1968 10.9327 10.2725 10.6888 10.4996 10.6804C10.4996 10.672 10.4996 10.672 10.4996 10.6636C10.4407 10.6552 10.3987 10.6384 10.3314 10.6552C10.2221 10.6804 9.7175 10.958 9.91933 10.5291C9.75955 10.5963 9.70068 10.9832 9.9782 10.958ZM8.43081 12.0596C8.43081 12.068 8.43081 12.068 8.43081 12.068C8.48127 12.1353 8.60742 12.1185 8.69992 12.1185C8.73356 12.068 8.7672 12.0092 8.80925 11.9587C8.81766 11.9587 8.82607 11.9587 8.82607 11.9587C8.9354 12.1017 9.05313 12.2446 9.16246 12.3876C9.17087 12.3876 9.17928 12.3876 9.17928 12.3876C9.2886 12.2867 9.36429 12.1437 9.44839 12.0092C9.41475 11.7989 9.17087 11.7064 9.112 11.5046C9.03631 11.2775 9.26337 10.958 8.97744 10.7982C8.97744 10.9159 8.92699 10.9411 8.91858 11.0084C8.92699 11.0757 8.9354 11.143 8.9354 11.2102C8.9354 11.2187 8.9354 11.2271 8.9354 11.2355H8.92699C8.88494 11.185 8.89335 11.1093 8.85971 11.0336C8.82607 10.958 8.64947 10.8654 8.57378 10.8486C8.57378 10.857 8.57378 10.857 8.57378 10.8654C8.59901 10.9495 8.58219 11.0168 8.5906 11.0841C8.63265 11.1514 8.6747 11.2271 8.71674 11.2943C8.71674 11.3112 8.71674 11.328 8.71674 11.3448C8.70833 11.3448 8.69992 11.3448 8.69151 11.3448C8.64947 11.2943 8.59901 11.2355 8.55696 11.185C8.48968 11.1514 8.35513 11.185 8.28785 11.2102C8.31308 11.2439 8.34672 11.2775 8.37195 11.3112C8.43922 11.4205 8.75879 11.7905 8.43081 12.0596ZM10.3903 9.24236C10.4828 9.16667 10.6173 9.13303 10.7267 9.12462C10.7014 9.1078 10.6762 9.07416 10.6762 9.03211C10.6762 8.97324 10.7351 8.92278 10.7939 8.92278C10.8528 8.92278 10.9117 8.97324 10.9117 9.03211C10.9117 9.07416 10.8949 9.1078 10.8612 9.12462C10.979 9.13303 11.1051 9.16667 11.1976 9.24236C11.4667 9.26759 11.576 9.37691 11.576 9.51147C11.576 9.62921 11.4667 9.74694 11.2817 9.77217C11.2733 9.81422 11.2733 9.86468 11.2649 9.88991C11.1556 9.85627 10.9537 9.83945 10.7855 9.83945C10.6257 9.83945 10.3987 9.86468 10.3062 9.88991C10.3062 9.86468 10.2978 9.81422 10.2894 9.77217C10.1043 9.74694 9.99502 9.62921 9.99502 9.51147C10.0202 9.37691 10.1212 9.26759 10.3903 9.24236ZM11.4751 9.51988C11.4751 9.3685 11.2901 9.35168 11.2901 9.35168C11.349 9.41896 11.3994 9.59557 11.1556 9.68807C11.3322 9.70489 11.4751 9.63762 11.4751 9.51988ZM11.1724 9.46942C11.1724 9.35168 11.0378 9.25917 10.8696 9.25076C10.9033 9.29281 10.9201 9.37691 10.9201 9.46942C10.9201 9.57034 10.8949 9.65444 10.8612 9.69648C11.0294 9.67966 11.1724 9.58716 11.1724 9.46942ZM10.7519 9.69648C10.7183 9.65444 10.693 9.57034 10.693 9.46942C10.693 9.37691 10.7098 9.29281 10.7435 9.25076C10.5753 9.26758 10.4407 9.36009 10.4407 9.46942C10.4407 9.58716 10.5753 9.67966 10.7519 9.69648ZM10.4576 9.68807C10.2053 9.59557 10.2641 9.41055 10.323 9.34327C10.323 9.34327 10.1296 9.36009 10.138 9.51147C10.138 9.64602 10.2809 9.7133 10.4576 9.68807Z" fill="#B0B7BF"/>
</svg>
