<svg width="181" height="16" viewBox="0 0 181 16" fill="none" xmlns="http://www.w3.org/2000/svg">
    <g clip-path="url(#clip0_58_14993)">
        <path d="M46.3366 15.9725C44.0771 15.8175 42.1696 15.184 40.7663 14.1235C39.3195 13.0285 38.4963 11.7285 38.2182 10.0987C38.1549 9.72713 38.131 8.71245 38.175 8.27529C38.3623 6.42667 39.186 4.7941 40.6892 3.29318C41.5478 2.43584 42.3522 1.85878 43.4108 1.33951C44.9054 0.606483 46.4839 0.211988 48.5131 0.0638224C49.0734 0.0229967 50.5519 0.0229967 51.097 0.0638224C52.8628 0.195932 54.2573 0.559235 55.5431 1.22208C57.5319 2.24731 58.674 3.81428 58.7878 5.67346C58.7979 5.83676 58.8007 5.97024 58.7947 5.97024L55.6009 6.12667C53.1409 6.24731 52.4131 6.27483 52.3966 6.24823C52.3846 6.22896 52.3741 6.13446 52.3741 6.03768C52.3732 5.63034 52.2217 5.00327 52.0368 4.63722C51.7184 4.00786 51.2292 3.6785 50.395 3.53034C50.0669 3.47208 49.1798 3.47942 48.8641 3.54272C47.8766 3.74089 47.1824 4.20098 46.6519 5.00969C46.3619 5.45144 46.1825 5.87162 45.8553 6.873C45.3973 8.27529 45.2151 9.22621 45.2404 10.084C45.2629 10.845 45.412 11.2519 45.8199 11.6638C46.0099 11.8556 46.098 11.9202 46.3229 12.0303C46.8194 12.273 47.465 12.3849 48.1868 12.3528C48.8972 12.3207 49.4951 12.1657 49.959 11.8932C50.299 11.6932 50.7992 11.1968 51.0667 10.7932C51.2287 10.5496 51.5605 9.94272 51.6041 9.81199C51.6133 9.78492 52.096 9.81841 53.6511 9.95281C56.6706 10.2129 57.6929 10.3046 57.704 10.3147C57.7099 10.3202 57.625 10.5019 57.5163 10.7202C57.0675 11.6166 56.5233 12.3533 55.778 13.0725C54.9741 13.8478 53.9357 14.5464 52.9192 14.9959C51.6853 15.5409 50.2357 15.8693 48.6035 15.9748C48.0781 16.0083 46.8446 16.0074 46.3366 15.9725ZM58.8902 15.3487C58.8902 15.3391 58.9668 15.0037 59.0609 14.6037C59.3504 13.3712 60.8381 7.05556 61.2437 5.3363C61.4548 4.44134 61.6274 3.70465 61.6274 3.69914C61.6274 3.69364 62.7002 3.68905 64.0117 3.68905C66.2726 3.68905 66.3951 3.69089 66.3855 3.72437C66.3795 3.74364 66.1551 4.69501 65.8867 5.83768C65.7219 6.54251 65.5555 7.24695 65.3874 7.95098C65.3773 7.98492 65.4851 7.9863 67.5313 7.98125L69.6862 7.97621L70.1482 6.01979L70.6544 3.87575L70.698 3.68813H75.4593L75.4487 3.73401L73.1011 13.7079L72.7106 15.3647H70.3327C69.0249 15.3647 67.9548 15.3574 67.9548 15.3482C67.9548 15.3313 68.0117 15.0895 68.6863 12.2363C68.8863 11.3909 69.0497 10.6909 69.0497 10.6808C69.0497 10.6693 68.1921 10.662 66.8999 10.662C65.7173 10.662 64.75 10.6675 64.75 10.6735C64.75 10.6794 64.6913 10.9326 64.6188 11.2363C64.4348 12.0092 63.8557 14.4615 63.7405 14.9542L63.6446 15.3647H61.2667C59.9603 15.3657 58.8902 15.3588 58.8902 15.3487ZM75.5938 15.3409C75.5988 15.3271 76.2105 12.7335 76.9529 9.5785C77.4083 7.64056 77.865 5.70295 78.3232 3.76566L78.3429 3.68951H80.6754C82.8876 3.68951 83.0078 3.69135 82.9977 3.72483C82.9918 3.7441 82.7316 4.84593 82.4195 6.17254C81.9157 8.31336 80.6074 13.8684 80.3519 14.9505L80.2559 15.356L77.9202 15.3615C76.0549 15.3652 75.5864 15.3615 75.5938 15.3409ZM83.1276 15.3551C83.1276 15.3455 83.9215 11.9712 85.388 5.74731C85.5494 5.06693 85.7087 4.38604 85.8657 3.70465C85.8657 3.69593 86.8661 3.69134 88.089 3.6941L90.3122 3.69914L91.4718 5.43401C93.2706 8.12529 93.8075 8.99318 94.3462 10.0854L94.566 10.5308L94.5536 10.1964C94.5312 9.59868 94.5894 9.28446 95.2241 6.60832C95.387 5.92254 95.6086 4.98538 95.7169 4.52529L95.9147 3.68905H97.8759C99.4361 3.68905 99.8353 3.6941 99.8284 3.71428C99.3736 5.63466 98.9206 7.55546 98.4692 9.47667C98.0142 11.4148 97.5576 13.3526 97.0995 15.29L97.0793 15.3661L95.2599 15.3647L93.4404 15.3638L93.1752 14.9849C92.8354 14.4997 92.4945 14.0153 92.1523 13.5317C90.3444 10.9657 90.0883 10.6001 89.8479 10.2354C89.3417 9.46933 88.9118 8.68446 88.7282 8.19089L88.6493 7.97988V8.33309C88.6493 8.88951 88.6383 8.94914 88.1243 11.129C87.3653 14.3496 87.1414 15.2959 87.1308 15.3308C87.1212 15.3638 87.0074 15.3661 85.1242 15.3661C84.0261 15.3661 83.1276 15.3615 83.1276 15.3551ZM98.7689 15.3579C98.7689 15.3496 99.3971 14.379 99.7931 13.7748L100.381 12.8725L101.094 11.7776C101.273 11.5046 101.659 10.9115 101.953 10.4602C102.248 10.0088 102.635 9.41474 102.813 9.13997L104.751 6.16566L106.364 3.69043L108.942 3.68997L111.521 3.68951L111.532 3.73538L111.766 4.79456C111.98 5.76795 113.835 14.1987 113.999 14.9514C114.044 15.1524 114.08 15.3276 114.08 15.3423C114.08 15.3615 113.559 15.3666 111.662 15.3666H109.243L109.034 14.2675C108.958 13.8687 108.881 13.4701 108.804 13.0716L108.784 12.9748H104.352L103.583 14.1707L102.814 15.3666H100.792C99.6793 15.3657 98.7689 15.362 98.7689 15.3579ZM107.963 10.568C108.41 10.5569 108.483 10.5505 108.483 10.5239C108.483 10.4858 107.834 7.18905 107.824 7.17988C107.821 7.17621 107.33 7.93309 106.733 8.86199L105.647 10.551L106.32 10.5615C106.69 10.568 107.094 10.5739 107.217 10.5767C107.466 10.5784 107.714 10.5755 107.963 10.568ZM115.575 15.356C115.575 15.3459 116.592 11.0225 117.704 6.30465C118.029 4.92758 118.3 3.77575 118.307 3.74501L118.318 3.68905H122.021C124.147 3.68905 125.915 3.69777 126.171 3.70923C127.954 3.78951 128.923 4.01841 129.71 4.54685C130.33 4.9629 130.726 5.47391 130.88 6.05694C130.926 6.2285 130.932 6.29593 130.933 6.57804C130.933 6.86474 130.926 6.92575 130.879 7.10511C130.802 7.38248 130.675 7.64378 130.506 7.87667C129.987 8.56382 128.974 9.10419 127.774 9.33538C127.618 9.36474 127.476 9.3941 127.459 9.3996C127.443 9.40511 127.566 9.44868 127.734 9.49731C129.149 9.90465 129.943 10.5959 130.115 11.5716C130.148 11.756 130.143 12.2033 130.106 12.4166C130.041 12.784 129.884 13.1565 129.644 13.5088C129.491 13.7345 129.043 14.1895 128.79 14.378C127.981 14.9785 126.796 15.2849 125.035 15.3464C124.496 15.3657 115.575 15.3748 115.575 15.356ZM124.161 12.7432C124.765 12.6478 125.152 12.4157 125.34 12.034C125.605 11.4991 125.257 10.9161 124.548 10.7056C124.191 10.5996 124.149 10.5968 122.76 10.5877C121.517 10.5794 121.459 10.5803 121.448 10.6161C121.443 10.6363 121.37 10.9446 121.286 11.3014L121.041 12.3354C120.991 12.5473 120.95 12.7372 120.95 12.7579C120.95 12.7927 121.01 12.7941 122.446 12.7863C123.73 12.779 123.971 12.773 124.161 12.7432ZM124.478 8.12712C125.552 8.0418 126.106 7.74134 126.18 7.20419C126.247 6.72162 125.956 6.38079 125.356 6.23584C125.007 6.15144 124.775 6.13997 123.597 6.14639L122.503 6.15235L122.274 7.1152C122.194 7.44708 122.117 7.77999 122.045 8.11382C122.044 8.14731 122.109 8.14914 123.125 8.14914C123.719 8.14914 124.329 8.13951 124.478 8.12712ZM130.347 15.3579C130.347 15.3464 130.663 14.8588 134.389 9.14272L135.476 7.47483C135.806 6.96887 136.31 6.19547 136.775 5.48309C136.994 5.14868 137.345 4.60832 137.556 4.28263L137.942 3.68997L140.52 3.68951L143.098 3.68905L143.11 3.73676C143.122 3.78538 143.33 4.72575 143.743 6.60832L144.309 9.18309C145.311 13.7335 145.657 15.3143 145.657 15.3391C145.657 15.3615 145.252 15.3661 143.239 15.3661H140.821L140.609 14.2565C140.533 13.8577 140.457 13.459 140.379 13.0606L140.361 12.9744H135.927L135.625 13.4459L134.857 14.6418L134.392 15.3661H132.369C131.257 15.3657 130.347 15.362 130.347 15.3579ZM139.869 10.5643L140.072 10.5514L139.745 8.88951C139.635 8.32515 139.523 7.76123 139.409 7.19777C139.403 7.18125 138.926 7.90465 138.312 8.86015L137.225 10.5514L138.059 10.562C139.318 10.578 139.646 10.578 139.869 10.5643ZM147.227 15.0368C147.948 11.9657 149.858 3.85694 149.883 3.76474L149.903 3.68859L152.118 3.68905L154.333 3.68951L155.553 5.51887C157.014 7.70924 157.389 8.29731 157.917 9.223C158.103 9.54868 158.498 10.317 158.56 10.4753C158.575 10.512 158.59 10.5391 158.594 10.5345C158.598 10.5308 158.592 10.412 158.58 10.2712C158.549 9.87988 158.601 9.45144 158.783 8.60602C158.849 8.30006 159.901 3.83355 159.932 3.72437C159.941 3.69089 160.053 3.68905 161.898 3.68905C162.974 3.68905 163.854 3.69364 163.854 3.6996C163.854 3.70511 163.278 6.15235 162.575 9.13767L161.202 14.9657L161.109 15.3661H157.473L156.609 14.1446C154.127 10.629 153.904 10.3083 153.548 9.73034C153.209 9.18034 152.897 8.573 152.751 8.17942C152.709 8.06795 152.673 7.97437 152.67 7.97116C152.668 7.96795 152.67 8.10052 152.675 8.2652C152.685 8.58355 152.655 8.88263 152.576 9.28401C152.553 9.40144 152.242 10.7331 151.885 12.2441L151.194 15.178L151.151 15.3657H147.149L147.227 15.0368ZM164.005 15.3569C164.005 15.3478 164.781 12.0464 166.219 5.94456L166.751 3.68905H169.037C170.858 3.68905 171.322 3.6941 171.315 3.71428C170.893 5.48152 170.477 7.25018 170.067 9.02024C170.067 9.03584 170.123 8.96703 170.191 8.86749C170.495 8.42254 170.796 8.11703 171.579 7.46061C171.891 7.19868 172.521 6.66474 172.978 6.27346C173.637 5.71538 174.304 5.1661 174.979 4.62575L176.149 3.68905L178.488 3.6941L180.826 3.69914L178.545 5.52162C176.221 7.37712 175.363 8.0629 175.334 8.08859C175.318 8.10235 175.433 8.37254 176.405 10.612C177.655 13.4886 178.42 15.2551 178.445 15.3207L178.463 15.3666H173.623L173.499 15.0473C173.342 14.6404 172.504 12.4689 172.083 11.3785C171.906 10.9179 171.757 10.5423 171.751 10.5423C171.745 10.5427 171.508 10.7257 171.224 10.9505C170.94 11.1744 170.387 11.6092 169.997 11.9157C169.606 12.223 169.274 12.4849 169.26 12.4987C169.245 12.5124 169.202 12.6551 169.164 12.8147C169.128 12.9753 168.986 13.5808 168.851 14.1606C168.764 14.5377 168.676 14.9145 168.585 15.2909L168.566 15.367H166.284C165.031 15.3661 164.005 15.362 164.005 15.3569ZM4.20802 11.9193L5.5484 7.93538L6.88052 3.97346H10.5006C12.6495 3.97346 14.2643 3.98309 14.4745 3.99685C15.3413 4.05419 15.9902 4.18584 16.3004 4.36703C16.6766 4.5863 16.8414 4.96933 16.7758 5.473C16.6574 6.37988 16.1944 7.04501 15.4092 7.43767C15.1761 7.55419 14.7397 7.69043 14.4153 7.74823C14.2533 7.77712 14.112 7.80786 14.1014 7.81657C14.0913 7.82529 14.2015 7.85052 14.3465 7.873C14.9246 7.96153 15.2794 8.10878 15.5377 8.36749C15.7786 8.60832 15.8181 8.71795 15.8172 9.13584C15.8167 9.43905 15.8126 9.46611 15.7291 9.7152C15.5629 10.2115 15.3275 10.6065 15.0054 10.9285C14.3634 11.5702 13.3943 11.8528 11.6088 11.9184C10.8081 11.9478 4.19747 11.9487 4.20802 11.9193ZM11.0903 10.6446C12.3462 10.6001 12.706 10.4794 13.0258 9.99089C13.2213 9.6918 13.3773 9.1863 13.3452 8.95327C13.3099 8.69318 13.1589 8.57621 12.7766 8.51199C12.3591 8.4418 11.9094 8.4285 9.90728 8.4285H7.88684L7.51928 9.53034C7.31691 10.1368 7.15172 10.6404 7.15172 10.6501C7.15172 10.6757 10.3418 10.6712 11.0903 10.6446ZM12.5174 7.27483C13.0841 7.21474 13.4108 7.11245 13.6109 6.93125C13.8045 6.75648 14.0312 6.33905 14.0826 6.06107C14.1427 5.73951 13.967 5.48538 13.6003 5.36336C13.2378 5.24272 13.2011 5.24089 11.0168 5.22942C9.05698 5.21933 8.97346 5.22024 8.95648 5.26153C8.90922 5.37667 8.28423 7.26474 8.28423 7.29272C8.28423 7.31979 8.60498 7.323 10.2712 7.31336C11.539 7.30648 12.3517 7.29226 12.5174 7.27483Z" fill="#B0B7BF"/>
        <path d="M1.30688 15.6395C0.936562 15.4922 0.52449 15.105 0.321207 14.7133C0.0467984 14.1867 0.138574 13.4514 0.740621 11.3321C1.06 10.2083 1.76162 7.74037 2.30035 5.84817C2.83907 3.95596 3.41175 2.1633 3.57327 1.8633C3.90458 1.25 4.78792 0.511009 5.55883 0.203211C6.03469 0.0133028 6.87994 0 18.6864 0C31.2229 0 31.3087 0.00137616 31.758 0.237615C32.8483 0.809174 32.9717 1.59908 32.3265 3.88807L31.8869 5.44771H30.6374C29.5976 5.44771 29.3984 5.41972 29.4512 5.28303C29.8302 4.29679 29.7963 3.68349 29.3397 3.25505L29.0497 2.98257L18.1899 2.94771C10.4367 2.92294 7.20345 2.95 6.8882 3.04128C6.29763 3.21284 5.49 3.97615 5.27387 4.56743C5.17751 4.83028 4.62731 6.5422 4.05096 8.3711C3.02996 11.6124 3.00748 11.7083 3.15891 12.1555C3.46819 13.0702 2.72848 13.0156 14.8433 13.0147L25.5696 13.0138L26.1441 12.7459C26.7686 12.4555 27.417 11.8023 27.5303 11.3509C27.601 11.0688 27.6129 11.0661 28.9088 11.0661C29.7481 11.0661 30.2157 11.1096 30.2157 11.1872C30.2157 11.5257 29.5902 13.4789 29.3489 13.8936C28.9616 14.5587 28.1251 15.2601 27.389 15.5349C26.7755 15.7642 26.5626 15.7679 14.1793 15.7606C6.1026 15.7564 1.49089 15.7128 1.30688 15.6395Z" fill="#B0B7BF"/>
        <path d="M20.0127 11.987C18.0808 11.9407 16.852 11.7109 16.4037 11.3113C16.02 10.9691 15.9966 10.0847 16.3362 8.71177C16.4449 8.27095 16.6836 7.46957 16.8304 7.05168C17.2732 5.79113 17.9111 4.99296 18.8196 4.56085C19.4777 4.24801 20.5611 4.0503 22.1942 3.94526C22.8417 3.90397 25.3251 3.90351 25.8024 3.9448C27.3263 4.07737 27.9357 4.29801 28.1835 4.80627C28.3615 5.17094 28.3528 5.59113 28.1546 6.28333L28.0633 6.60168L26.8064 6.60764C25.6165 6.6136 25.5505 6.61177 25.5615 6.57232C25.5679 6.54938 25.6018 6.43516 25.6372 6.31865C25.7239 6.03012 25.7299 5.77416 25.6528 5.61727C25.5872 5.48333 25.522 5.42828 25.3545 5.3659C25.0237 5.24205 24.4056 5.19159 23.2437 5.1925C21.7184 5.19388 20.8382 5.29113 20.4152 5.50443C19.97 5.7292 19.5653 6.45076 19.1202 7.8159C18.7884 8.83195 18.6443 9.46452 18.643 9.91039C18.6425 10.0636 18.6535 10.1728 18.676 10.226C18.7724 10.4567 19.1991 10.5962 20.0361 10.6719C20.4886 10.7122 22.2149 10.7127 22.6774 10.6719C23.647 10.5865 23.9696 10.4847 24.295 10.1622C24.5272 9.93195 24.6662 9.66865 24.7896 9.22416L24.8273 9.08883H27.3456L27.2621 9.33012C27.0115 10.0553 26.7238 10.5572 26.3324 10.954C25.9199 11.3714 25.4646 11.592 24.7176 11.737C23.6635 11.943 21.9565 12.0333 20.0127 11.987Z" fill="#B0B7BF"/>
    </g>
    <defs>
        <clipPath id="clip0_58_14993">
            <rect width="181" height="16" fill="#B0B7BF"/>
        </clipPath>
    </defs>
</svg>




