<svg width="94" height="19" viewBox="0 0 94 19" fill="none" xmlns="http://www.w3.org/2000/svg">
    <path d="M31.3521 7.0455C31.0573 5.88662 30.3781 5.53029 28.9986 5.53029C27.5841 5.53029 26.9228 5.90488 26.629 7.0455C26.4616 7.6823 26.4446 8.37483 26.4267 9.04862L31.5719 9.02942C31.5535 8.35656 31.5163 7.7015 31.3521 7.0455ZM33.318 10.0783C33.318 10.2089 33.1892 10.3587 33.0614 10.3587H26.4446C26.4446 11.3505 26.6469 11.9128 27.0695 12.3792C27.5841 12.979 28.4302 13.1841 29.6419 13.1841C30.7824 13.1841 31.5163 12.9415 32.3081 12.7163L32.4171 12.6981C32.5096 12.6981 32.5657 12.7547 32.6204 12.8853L32.8227 13.6523L32.8411 13.7277C32.8411 13.8401 32.7671 13.9141 32.6383 13.9525C31.9214 14.2512 30.7088 14.5134 29.4401 14.5134C25.839 14.5134 24.6797 12.8666 24.6797 9.36702C24.6797 6.12963 25.3966 4.2019 29.0184 4.2019C30.9286 4.2019 32.0502 4.78158 32.6751 5.79204C33.1892 6.65312 33.318 7.81388 33.318 9.16099V10.0783Z" fill="#B0B7BF"/>
    <path d="M40.5761 9.19823L37.451 9.72265C36.6057 9.85329 35.7596 9.92821 35.7596 11.3315C35.7596 13.1094 37.1755 13.2222 38.2966 13.2222C39.0885 13.2222 39.896 13.1281 40.5761 12.9038V9.19823ZM40.686 14.2514C40.1346 14.3825 39.2526 14.5136 38.2603 14.5136C36.5878 14.5136 33.9961 14.4195 33.9961 11.3877C33.9961 8.91729 35.3922 8.76792 37.1203 8.46872L40.5761 7.8881V7.06448C40.5761 6.48527 40.5398 6.03623 39.9328 5.79181C39.6017 5.66164 39.0885 5.60498 38.3145 5.60498C36.9364 5.60498 35.686 5.96084 34.9894 6.12941L34.8597 6.14814C34.7857 6.14814 34.6942 6.10974 34.6758 5.9983L34.4923 5.08103L34.4743 5.02484C34.4743 4.89467 34.6031 4.81928 34.6758 4.80009C35.2455 4.59453 36.826 4.20215 38.5541 4.20215C39.878 4.20215 40.7232 4.38804 41.2751 4.68865C42.2302 5.22993 42.267 6.14814 42.267 7.1024V12.3246C42.267 13.6521 41.9543 13.9522 40.686 14.2514Z" fill="#B0B7BF"/>
    <path d="M46.6957 14.5134C45.0958 14.5134 43.662 13.9885 43.4054 13.8953C43.3502 13.8593 43.2578 13.8209 43.2578 13.6898V13.6153L43.4422 12.7917C43.4601 12.6981 43.5342 12.6227 43.6441 12.6227L43.736 12.6419C43.92 12.6789 45.2067 13.1466 46.6584 13.1466C48.0913 13.1466 48.9558 12.6981 48.9558 11.6127C48.9558 10.1724 47.8899 10.2094 46.5476 9.98415C45.5925 9.83432 43.3502 9.64796 43.3502 7.15835C43.3502 4.6692 45.5 4.2019 47.1362 4.2019C48.6983 4.2019 49.8921 4.5381 50.1137 4.59475C50.2599 4.63174 50.3151 4.72586 50.3151 4.81904V4.85697L50.1689 5.77377C50.151 5.88615 50.0585 5.90488 49.985 5.90488H49.9477C49.6911 5.88615 48.387 5.56775 47.3381 5.56775C46.107 5.56775 45.0411 5.90488 45.0411 7.02677C45.0411 8.24372 46.2358 8.3561 47.3381 8.50546C48.9558 8.73022 50.6655 8.93718 50.6655 11.4436C50.6655 13.8766 48.8455 14.5134 46.6957 14.5134Z" fill="#B0B7BF"/>
    <path d="M77.4035 7.0455C77.1096 5.88662 76.4304 5.53029 75.0518 5.53029C73.6364 5.53029 72.9756 5.90488 72.6804 7.0455C72.5143 7.6823 72.4964 8.37483 72.4789 9.04862L77.6247 9.02942C77.6053 8.35656 77.5686 7.7015 77.4035 7.0455ZM79.3703 10.0783C79.3703 10.2089 79.2424 10.3587 79.1137 10.3587H72.4964C72.4964 11.3505 72.6997 11.9128 73.1214 12.3792C73.6364 12.979 74.4816 13.1841 75.6938 13.1841C76.8351 13.1841 77.5686 12.9415 78.3595 12.7163L78.4694 12.6981C78.5618 12.6981 78.6179 12.7547 78.6727 12.8853L78.8741 13.6523L78.8925 13.7277C78.8925 13.8401 78.8189 13.9141 78.6906 13.9525C77.9737 14.2512 76.7611 14.5134 75.4923 14.5134C71.8899 14.5134 70.7324 12.8666 70.7324 9.36702C70.7324 6.12963 71.4489 4.2019 75.0693 4.2019C76.9804 4.2019 78.1029 4.78158 78.7278 5.79204C79.2424 6.65312 79.3703 7.81388 79.3703 9.16099L79.3703 10.0783Z" fill="#B0B7BF"/>
    <path d="M83.6533 14.5134C82.0544 14.5134 80.6215 13.9885 80.364 13.8953C80.3092 13.8593 80.2168 13.8209 80.2168 13.6898V13.6153L80.4003 12.7917C80.4182 12.6981 80.4923 12.6227 80.6026 12.6227L80.6946 12.6419C80.8785 12.6789 82.1647 13.1466 83.6179 13.1466C85.0503 13.1466 85.9148 12.6981 85.9148 11.6127C85.9148 10.1724 84.8484 10.2094 83.507 9.98415C82.5515 9.83432 80.3092 9.64796 80.3092 7.15835C80.3092 4.6692 82.4586 4.2019 84.0952 4.2019C85.6568 4.2019 86.8524 4.5381 87.0718 4.59475C87.2199 4.63174 87.2746 4.72586 87.2746 4.81904V4.85697L87.1284 5.77377C87.109 5.88615 87.0166 5.90488 86.9444 5.90488H86.9067C86.6496 5.88615 85.3455 5.56775 84.2971 5.56775C83.066 5.56775 81.9987 5.90488 81.9987 7.02677C81.9987 8.24372 83.1943 8.3561 84.2971 8.50546C85.9148 8.73022 87.6231 8.93718 87.6231 11.4436C87.6231 13.8766 85.8044 14.5134 83.6533 14.5134Z" fill="#B0B7BF"/>
    <path d="M94.001 13.9142C94.001 14.0271 93.927 14.1015 93.8364 14.139C93.4685 14.2701 92.6596 14.4948 91.5744 14.4948C89.7009 14.4948 88.7812 13.6899 88.7812 11.8175V1.69372C88.7812 1.50689 88.8737 1.45071 89.0388 1.41231L90.2335 1.13184H90.2882C90.4353 1.13184 90.491 1.24515 90.491 1.39405V4.44461H93.4685C93.6152 4.44461 93.7251 4.55698 93.7251 4.72602V5.52998C93.7251 5.68028 93.6152 5.79172 93.4501 5.79172H90.491V11.913C90.491 12.8855 90.9871 13.1463 91.9423 13.1463C92.5129 13.1463 93.1926 12.9969 93.56 12.9225L93.6152 12.9038C93.7072 12.9038 93.7987 12.9787 93.8175 13.0911L94.001 13.8772L94.001 13.9142Z" fill="#B0B7BF"/>
    <path d="M70.3853 4.44458H69.1345C68.9336 4.44458 68.8604 4.55696 68.8232 4.70726L67.096 13.0536H66.6177L64.908 5.1371C64.8722 4.95027 64.725 4.8379 64.5415 4.8379H62.5196C62.3352 4.8379 62.1889 4.95028 62.1517 5.1371L60.424 13.0536H59.9274C59.9274 13.0536 58.5708 6.48141 58.4205 5.79357C58.3078 5.27898 58.1068 4.44645 56.2403 4.44645H55.041C56.1079 4.56585 56.5112 5.22794 56.8519 6.6083L58.6228 13.9704C58.6591 14.1581 58.8067 14.2705 58.9916 14.2705H61.3428C61.5263 14.2705 61.6744 14.1581 61.7286 13.9704L63.4926 6.14802H63.5298L65.2207 13.9704C65.2575 14.1581 65.4226 14.2705 65.607 14.2705H67.9775C68.1615 14.2705 68.3086 14.1581 68.3454 13.9704L70.6244 4.76298V4.70726C70.6244 4.55696 70.5329 4.44458 70.3853 4.44458Z" fill="#B0B7BF"/>
    <path d="M56.8585 13.0911C56.8396 12.9782 56.7477 12.9033 56.6566 12.9033L56.601 12.9225C56.234 12.9969 55.5534 13.1468 54.9837 13.1468C54.0286 13.1468 53.5319 12.8855 53.5319 11.912V5.79219H53.5343V5.795H55.5659C55.3921 5.795 55.8961 5.79969 56.1614 5.90504C56.4258 6.00899 56.6884 6.21407 56.8526 6.61395C56.5118 5.22984 56.109 4.56635 55.0408 4.44601L53.532 4.44461V1.39358C53.532 1.24515 53.4768 1.13184 53.3301 1.13184H53.2749L52.0802 1.41278C51.9142 1.45023 51.8223 1.50689 51.8223 1.69372V11.8179C51.8223 13.6895 52.7415 14.4953 54.6168 14.4953C55.6997 14.4953 56.51 14.2705 56.8774 14.139C56.9689 14.1015 57.0416 14.0266 57.0416 13.9142V13.8768L56.8585 13.0911Z" fill="#B0B7BF"/>
    <path d="M11.6127 7.50549L15.4622 10.4009C18.3896 12.6034 16.9295 13.7635 16.9224 13.7692L17.6857 13.1874C18.6873 12.4241 19.3735 11.6714 19.7207 11.0338C20.0019 10.5163 20.1155 10.0173 20.1155 9.50026C20.1155 8.16584 19.2467 7.00136 17.6857 5.81283L10.0571 0C10.0571 0 7.98218 4.77561 11.6127 7.50549Z" fill="#B0B7BF"/>
    <path d="M2.42976 5.81291C1.42737 6.57647 0.742011 7.32891 0.394757 7.9665C0.112534 8.48433 0 8.98302 0 9.50034C0 10.8345 0.868768 11.9987 2.42976 13.1875L10.0576 19.0001C10.0576 19.0001 12.1333 14.2247 8.50301 11.4946L4.6535 8.59918C1.71874 6.39205 3.19311 5.23145 3.19311 5.23145L2.42976 5.81291Z" fill="#B0B7BF"/>
    <path d="M3.13445 5.27611C3.0054 5.41139 2.81641 5.691 2.81641 6.09114C2.81641 6.66097 3.18474 7.50264 4.64946 8.60427C5.09832 8.94208 5.49485 9.24057 5.84516 9.50388C7.17219 8.50624 5.27792 9.93144 8.50278 7.50549C9.23081 6.95791 9.72946 6.3273 10.061 5.66979C9.62074 4.79889 9.47366 3.88065 9.47366 3.04105C9.47366 1.43142 10.0191 0.107085 10.0574 0L3.13445 5.27611Z" fill="#B0B7BF"/>
    <path d="M11.6134 11.4945C10.8846 12.0423 10.3862 12.6722 10.0547 13.3302C10.4944 14.2014 10.642 15.1199 10.642 15.9587C10.642 17.5435 10.1164 18.852 10.057 18.9979L10.0578 19L16.9886 13.7192C17.0986 13.5966 17.2995 13.3082 17.2995 12.9086C17.2995 12.3393 16.9304 11.4976 15.4667 10.3954C15.0176 10.0574 14.6208 9.75967 14.27 9.49609C12.9432 10.494 14.8382 9.06881 11.6134 11.4945Z" fill="#B0B7BF"/>
</svg>
