<svg width="14" height="10" viewBox="0 0 14 10" fill="none" xmlns="http://www.w3.org/2000/svg">
    <circle cx="3.5" cy="7.5" r="2" stroke="#79818A"/>
    <circle cx="10.5" cy="2.5" r="2" transform="rotate(180 10.5 2.5)" stroke="#79818A"/>
    <path d="M0 7.5C0 7.22386 0.223858 7 0.5 7H2V8H0.5C0.223858 8 0 7.77614 0 7.5Z" fill="#79818A"/>
    <path d="M14 2.5C14 2.77614 13.7761 3 13.5 3L12 3L12 2L13.5 2C13.7761 2 14 2.22386 14 2.5Z" fill="#79818A"/>
    <path d="M5 7H13.5C13.7761 7 14 7.22386 14 7.5C14 7.77614 13.7761 8 13.5 8H5V7Z" fill="#79818A"/>
    <path d="M9 3L0.5 3C0.223858 3 -1.95703e-08 2.77614 -4.37114e-08 2.5C-6.78525e-08 2.22386 0.223858 2 0.5 2L9 2L9 3Z" fill="#79818A"/>
</svg>
