<svg width="117" height="16" viewBox="0 0 117 16" fill="none" xmlns="http://www.w3.org/2000/svg">
    <path d="M22.8813 12L20.3032 3.59912H20.2373C20.2471 3.79932 20.2617 4.10205 20.2812 4.50732C20.3057 4.90771 20.3276 5.33496 20.3472 5.78906C20.3667 6.24316 20.3765 6.65332 20.3765 7.01953V12H18.3477V1.29199H21.4385L23.9727 9.48047H24.0166L26.7046 1.29199H29.7954V12H27.6787V6.93164C27.6787 6.59473 27.6836 6.20654 27.6934 5.76709C27.708 5.32764 27.7251 4.91016 27.7446 4.51465C27.7642 4.11426 27.7788 3.81396 27.7886 3.61377H27.7227L24.9614 12H22.8813ZM39.7637 7.89111C39.7637 8.57471 39.6709 9.18018 39.4854 9.70752C39.3047 10.2349 39.0386 10.6816 38.687 11.0479C38.3403 11.4092 37.9204 11.6826 37.4272 11.8682C36.939 12.0537 36.3872 12.1465 35.772 12.1465C35.1958 12.1465 34.666 12.0537 34.1826 11.8682C33.7041 11.6826 33.2866 11.4092 32.9302 11.0479C32.5786 10.6816 32.3052 10.2349 32.1099 9.70752C31.9194 9.18018 31.8242 8.57471 31.8242 7.89111C31.8242 6.98291 31.9854 6.21387 32.3076 5.58398C32.6299 4.9541 33.0889 4.47559 33.6846 4.14844C34.2803 3.82129 34.9907 3.65771 35.8159 3.65771C36.5825 3.65771 37.2612 3.82129 37.8521 4.14844C38.4478 4.47559 38.9141 4.9541 39.251 5.58398C39.5928 6.21387 39.7637 6.98291 39.7637 7.89111ZM34.1021 7.89111C34.1021 8.42822 34.1606 8.87988 34.2778 9.24609C34.395 9.6123 34.5781 9.88818 34.8271 10.0737C35.0762 10.2593 35.4009 10.3521 35.8013 10.3521C36.1968 10.3521 36.5166 10.2593 36.7607 10.0737C37.0098 9.88818 37.1904 9.6123 37.3027 9.24609C37.4199 8.87988 37.4785 8.42822 37.4785 7.89111C37.4785 7.34912 37.4199 6.8999 37.3027 6.54346C37.1904 6.18213 37.0098 5.91113 36.7607 5.73047C36.5117 5.5498 36.187 5.45947 35.7866 5.45947C35.1958 5.45947 34.7661 5.66211 34.4976 6.06738C34.2339 6.47266 34.1021 7.08057 34.1021 7.89111ZM47.3223 9.56836C47.3223 10.125 47.1904 10.5962 46.9268 10.9819C46.668 11.3628 46.2798 11.6533 45.7622 11.8535C45.2446 12.0488 44.6001 12.1465 43.8286 12.1465C43.2573 12.1465 42.7666 12.1099 42.3564 12.0366C41.9512 11.9634 41.541 11.8413 41.126 11.6704V9.82471C41.5703 10.0249 42.0464 10.1909 42.5542 10.3228C43.0669 10.4497 43.5161 10.5132 43.9019 10.5132C44.3364 10.5132 44.6465 10.4497 44.832 10.3228C45.0225 10.1909 45.1177 10.02 45.1177 9.81006C45.1177 9.67334 45.0786 9.55127 45.0005 9.44385C44.9272 9.33154 44.7661 9.20703 44.5171 9.07031C44.2681 8.92871 43.8774 8.74561 43.3452 8.521C42.8325 8.30615 42.4102 8.08887 42.0781 7.86914C41.751 7.64941 41.5068 7.39062 41.3457 7.09277C41.1895 6.79004 41.1113 6.40674 41.1113 5.94287C41.1113 5.18604 41.4043 4.61719 41.9902 4.23633C42.5811 3.85059 43.3696 3.65771 44.356 3.65771C44.8638 3.65771 45.3472 3.70898 45.8062 3.81152C46.27 3.91406 46.7461 4.07764 47.2344 4.30225L46.5605 5.91357C46.1553 5.73779 45.772 5.59375 45.4106 5.48145C45.0542 5.36914 44.6904 5.31299 44.3193 5.31299C43.9922 5.31299 43.7456 5.35693 43.5796 5.44482C43.4136 5.53271 43.3306 5.66699 43.3306 5.84766C43.3306 5.97949 43.3721 6.09668 43.4551 6.19922C43.543 6.30176 43.709 6.4165 43.9531 6.54346C44.2021 6.66553 44.5659 6.82422 45.0444 7.01953C45.5083 7.20996 45.9111 7.41016 46.2529 7.62012C46.5947 7.8252 46.8584 8.08154 47.0439 8.38916C47.2295 8.69189 47.3223 9.08496 47.3223 9.56836ZM52.5151 10.3667C52.7593 10.3667 52.9961 10.3423 53.2256 10.2935C53.46 10.2446 53.6919 10.1836 53.9214 10.1104V11.7729C53.6821 11.8804 53.3843 11.9683 53.0278 12.0366C52.6763 12.1099 52.2905 12.1465 51.8706 12.1465C51.3823 12.1465 50.9429 12.0684 50.5522 11.9121C50.1665 11.751 49.8613 11.4751 49.6367 11.0845C49.417 10.689 49.3071 10.1396 49.3071 9.43652V5.48877H48.2378V4.54395L49.4683 3.79688L50.1128 2.06836H51.541V3.81152H53.8335V5.48877H51.541V9.43652C51.541 9.74902 51.6289 9.9834 51.8047 10.1396C51.9854 10.291 52.2222 10.3667 52.5151 10.3667ZM64.0361 3.65771C64.959 3.65771 65.7036 4.0166 66.27 4.73438C66.8413 5.45215 67.127 6.50439 67.127 7.89111C67.127 8.81885 66.9927 9.6001 66.7241 10.2349C66.4556 10.8647 66.0845 11.3408 65.6108 11.6631C65.1372 11.9854 64.5928 12.1465 63.9775 12.1465C63.582 12.1465 63.2427 12.0977 62.9595 12C62.6763 11.8975 62.4346 11.7681 62.2344 11.6118C62.0342 11.4507 61.8608 11.2798 61.7144 11.0991H61.5972C61.6362 11.2944 61.6655 11.4946 61.6851 11.6997C61.7046 11.9048 61.7144 12.105 61.7144 12.3003V15.6035H59.4805V3.81152H61.2969L61.6118 4.87354H61.7144C61.8608 4.65381 62.0391 4.45117 62.249 4.26562C62.459 4.08008 62.7104 3.93359 63.0034 3.82617C63.3013 3.71387 63.6455 3.65771 64.0361 3.65771ZM63.3184 5.44482C62.9277 5.44482 62.6177 5.52539 62.3882 5.68652C62.1587 5.84766 61.9902 6.08936 61.8828 6.41162C61.7803 6.73389 61.7241 7.1416 61.7144 7.63477V7.87646C61.7144 8.40381 61.7632 8.85059 61.8608 9.2168C61.9634 9.58301 62.1318 9.86133 62.3662 10.0518C62.6055 10.2422 62.9326 10.3374 63.3477 10.3374C63.6895 10.3374 63.9702 10.2422 64.1899 10.0518C64.4097 9.86133 64.5732 9.58301 64.6807 9.2168C64.793 8.8457 64.8491 8.39404 64.8491 7.86182C64.8491 7.06104 64.7246 6.45801 64.4756 6.05273C64.2266 5.64746 63.8408 5.44482 63.3184 5.44482ZM76.4141 7.89111C76.4141 8.57471 76.3213 9.18018 76.1357 9.70752C75.9551 10.2349 75.689 10.6816 75.3374 11.0479C74.9907 11.4092 74.5708 11.6826 74.0776 11.8682C73.5894 12.0537 73.0376 12.1465 72.4224 12.1465C71.8462 12.1465 71.3164 12.0537 70.833 11.8682C70.3545 11.6826 69.937 11.4092 69.5806 11.0479C69.229 10.6816 68.9556 10.2349 68.7603 9.70752C68.5698 9.18018 68.4746 8.57471 68.4746 7.89111C68.4746 6.98291 68.6357 6.21387 68.958 5.58398C69.2803 4.9541 69.7393 4.47559 70.335 4.14844C70.9307 3.82129 71.6411 3.65771 72.4663 3.65771C73.2329 3.65771 73.9116 3.82129 74.5024 4.14844C75.0981 4.47559 75.5645 4.9541 75.9014 5.58398C76.2432 6.21387 76.4141 6.98291 76.4141 7.89111ZM70.7524 7.89111C70.7524 8.42822 70.811 8.87988 70.9282 9.24609C71.0454 9.6123 71.2285 9.88818 71.4775 10.0737C71.7266 10.2593 72.0513 10.3521 72.4517 10.3521C72.8472 10.3521 73.167 10.2593 73.4111 10.0737C73.6602 9.88818 73.8408 9.6123 73.9531 9.24609C74.0703 8.87988 74.1289 8.42822 74.1289 7.89111C74.1289 7.34912 74.0703 6.8999 73.9531 6.54346C73.8408 6.18213 73.6602 5.91113 73.4111 5.73047C73.1621 5.5498 72.8374 5.45947 72.437 5.45947C71.8462 5.45947 71.4165 5.66211 71.1479 6.06738C70.8843 6.47266 70.7524 7.08057 70.7524 7.89111ZM82.8154 3.65771C83.7383 3.65771 84.4829 4.0166 85.0493 4.73438C85.6206 5.45215 85.9062 6.50439 85.9062 7.89111C85.9062 8.81885 85.772 9.6001 85.5034 10.2349C85.2349 10.8647 84.8638 11.3408 84.3901 11.6631C83.9165 11.9854 83.3721 12.1465 82.7568 12.1465C82.3613 12.1465 82.022 12.0977 81.7388 12C81.4556 11.8975 81.2139 11.7681 81.0137 11.6118C80.8135 11.4507 80.6401 11.2798 80.4937 11.0991H80.3765C80.4155 11.2944 80.4448 11.4946 80.4644 11.6997C80.4839 11.9048 80.4937 12.105 80.4937 12.3003V15.6035H78.2598V3.81152H80.0762L80.3911 4.87354H80.4937C80.6401 4.65381 80.8184 4.45117 81.0283 4.26562C81.2383 4.08008 81.4897 3.93359 81.7827 3.82617C82.0806 3.71387 82.4248 3.65771 82.8154 3.65771ZM82.0977 5.44482C81.707 5.44482 81.397 5.52539 81.1675 5.68652C80.938 5.84766 80.7695 6.08936 80.6621 6.41162C80.5596 6.73389 80.5034 7.1416 80.4937 7.63477V7.87646C80.4937 8.40381 80.5425 8.85059 80.6401 9.2168C80.7427 9.58301 80.9111 9.86133 81.1455 10.0518C81.3848 10.2422 81.7119 10.3374 82.127 10.3374C82.4688 10.3374 82.7495 10.2422 82.9692 10.0518C83.189 9.86133 83.3525 9.58301 83.46 9.2168C83.5723 8.8457 83.6284 8.39404 83.6284 7.86182C83.6284 7.06104 83.5039 6.45801 83.2549 6.05273C83.0059 5.64746 82.6201 5.44482 82.0977 5.44482ZM95.2666 3.81152V12H93.5527L93.2524 10.9526H93.1353C92.9595 11.231 92.7397 11.458 92.4761 11.6338C92.2124 11.8096 91.9219 11.939 91.6045 12.022C91.2871 12.105 90.9575 12.1465 90.6157 12.1465C90.0298 12.1465 89.5195 12.0439 89.085 11.8389C88.6504 11.6289 88.311 11.3042 88.0669 10.8647C87.8276 10.4253 87.708 9.854 87.708 9.15088V3.81152H89.9419V8.59424C89.9419 9.18018 90.0469 9.62207 90.2568 9.91992C90.4668 10.2178 90.8013 10.3667 91.2603 10.3667C91.7144 10.3667 92.0708 10.2642 92.3296 10.0591C92.5884 9.84912 92.769 9.54395 92.8716 9.14355C92.979 8.73828 93.0327 8.24512 93.0327 7.66406V3.81152H95.2666ZM99.8442 12H97.6104V0.603516H99.8442V12ZM105.55 3.64307C106.648 3.64307 107.491 3.88232 108.077 4.36084C108.663 4.83936 108.956 5.56689 108.956 6.54346V12H107.396L106.963 10.8867H106.905C106.67 11.1797 106.431 11.4189 106.187 11.6045C105.943 11.79 105.662 11.9268 105.345 12.0146C105.027 12.1025 104.642 12.1465 104.188 12.1465C103.704 12.1465 103.27 12.0537 102.884 11.8682C102.503 11.6826 102.203 11.3994 101.983 11.0186C101.763 10.6328 101.653 10.1445 101.653 9.55371C101.653 8.68457 101.958 8.04492 102.569 7.63477C103.179 7.21973 104.095 6.99023 105.315 6.94629L106.736 6.90234V6.54346C106.736 6.11377 106.624 5.79883 106.399 5.59863C106.175 5.39844 105.862 5.29834 105.462 5.29834C105.066 5.29834 104.678 5.35449 104.297 5.4668C103.917 5.5791 103.536 5.7207 103.155 5.8916L102.415 4.38281C102.85 4.15332 103.335 3.97266 103.873 3.84082C104.415 3.70898 104.974 3.64307 105.55 3.64307ZM106.736 8.20605L105.872 8.23535C105.149 8.25488 104.646 8.38428 104.363 8.62354C104.085 8.86279 103.946 9.17773 103.946 9.56836C103.946 9.91016 104.046 10.1543 104.246 10.3008C104.446 10.4424 104.708 10.5132 105.03 10.5132C105.508 10.5132 105.911 10.3716 106.238 10.0884C106.57 9.80518 106.736 9.40234 106.736 8.87988V8.20605ZM115.833 3.65771C115.945 3.65771 116.075 3.66504 116.221 3.67969C116.373 3.68945 116.495 3.7041 116.587 3.72363L116.419 5.81836C116.346 5.79395 116.241 5.77686 116.104 5.76709C115.972 5.75244 115.857 5.74512 115.76 5.74512C115.472 5.74512 115.191 5.78174 114.917 5.85498C114.649 5.92822 114.407 6.04785 114.192 6.21387C113.978 6.375 113.807 6.58984 113.68 6.8584C113.558 7.12207 113.497 7.44678 113.497 7.83252V12H111.263V3.81152H112.955L113.284 5.18848H113.394C113.555 4.91016 113.755 4.65625 113.995 4.42676C114.239 4.19238 114.515 4.00684 114.822 3.87012C115.135 3.72852 115.472 3.65771 115.833 3.65771Z" fill="#B0B7BF"/>
    <rect y="2" width="12" height="2" rx="1" fill="#B0B7BF"/>
    <rect y="6" width="9" height="2" rx="1" fill="#B0B7BF"/>
    <rect y="10" width="6" height="2" rx="1" fill="#B0B7BF"/>
</svg>
