<svg width="113" height="21" viewBox="0 0 113 21" fill="none" xmlns="http://www.w3.org/2000/svg">
    <path d="M10.0492 0.0571703C10.4578 -0.137277 10.8427 0.210877 11.1782 0.40625C14.1173 2.41276 17.114 4.33132 20.0522 6.33783C20.843 6.88691 20.7872 8.21194 19.9699 8.71009C16.8864 10.7731 13.7809 12.8037 10.7028 14.875C10.4862 15.0222 10.1827 15.0306 9.96145 14.8898C6.99401 12.9203 4.02201 10.9574 1.05183 8.9925C0.586515 8.69435 0.0288648 8.32305 0.0206372 7.69896C-0.101863 7.04247 0.338772 6.43876 0.87174 6.11931C3.93973 4.11187 6.95379 2.02017 10.0492 0.0571703ZM13.46 4.05631C13.95 4.85818 14.472 5.63967 14.9364 6.4582C15.4868 6.49431 16.038 6.49061 16.5884 6.46283C15.5316 5.67949 14.4382 4.94151 13.46 4.05631ZM4.02384 6.46376C4.56321 6.48135 5.1044 6.50913 5.64285 6.46098C6.15205 5.698 6.61737 4.90632 7.1412 4.15353C6.10634 4.92947 5.08337 5.72301 4.02384 6.46376ZM7.83506 6.47857C8.33146 6.48135 8.82786 6.48042 9.32426 6.4795C9.32152 5.71745 9.32061 4.9554 9.31786 4.19335C8.86992 4.98503 8.34975 5.73041 7.83506 6.47857ZM11.3281 4.26465C11.3163 5.00262 11.3172 5.74152 11.3281 6.4795C11.8044 6.48042 12.2807 6.48042 12.757 6.4795C12.2826 5.73967 11.8044 5.00262 11.3281 4.26465ZM4.02658 8.49157C5.07698 9.27769 6.12097 10.0722 7.17137 10.8583C6.62011 10.0972 6.13377 9.29066 5.63554 8.49435C5.09892 8.49064 4.56229 8.49435 4.02658 8.49157ZM7.8314 8.4925C8.34152 9.25917 8.85803 10.0222 9.33066 10.8138C9.32152 10.0407 9.32335 9.26658 9.32975 8.49342C8.82969 8.4925 8.33055 8.49342 7.8314 8.4925ZM11.3336 8.48694C11.3163 9.23973 11.3181 9.99252 11.3227 10.7453C11.799 9.98789 12.288 9.2388 12.7817 8.49342C12.299 8.4962 11.8163 8.48324 11.3336 8.48694ZM15.0525 8.49064C14.4775 9.27121 13.9857 10.1083 13.4774 10.9342C14.4592 10.0277 15.5727 9.28788 16.6395 8.49064C16.1102 8.49342 15.5818 8.49435 15.0525 8.49064Z" fill="#B0B7BF"/>
    <path d="M24.9058 6.91374C25.82 6.91374 26.7342 6.90356 27.6474 6.90541C28.8185 10.2064 30.0023 13.5055 31.0171 16.8602C31.3169 15.4648 31.8472 14.1352 32.3189 12.7935C33.0228 10.8277 33.7414 8.86748 34.4599 6.90726C35.3613 6.91282 36.2636 6.91374 37.1659 6.89893C37.4273 10.4694 37.6157 14.0435 37.8479 17.6148C37.931 18.6676 37.9786 19.7214 38.0124 20.7769C37.2271 20.7779 36.4418 20.776 35.6566 20.7769C35.5679 18.6065 35.439 16.437 35.3247 14.2676C35.2772 13.1611 35.2881 12.0472 35.119 10.9499C34.8667 12.0416 34.4791 13.0944 34.1052 14.1481C33.3181 16.3352 32.5282 18.5213 31.7439 20.7093C31.1606 20.6982 30.5765 20.6862 29.9932 20.7232C29.0873 18.2334 28.2736 15.7093 27.4244 13.1981C27.1949 12.5416 27.0294 11.8647 26.8713 11.1879C26.6363 14.3796 26.4983 17.5778 26.2844 20.7705C25.5119 20.7723 24.7403 20.7714 23.9688 20.7566C24.2988 16.1435 24.6114 11.5296 24.9058 6.91374Z" fill="#B0B7BF"/>
    <path d="M73.6641 6.90625C74.4494 6.90625 75.2356 6.90625 76.0218 6.90625C76.0218 8.52572 76.0273 10.1452 76.0227 11.7647C77.4863 10.3109 80.0753 10.2906 81.5563 11.7286C82.6515 12.8128 83.0766 14.4277 83.0089 15.9444C82.9915 17.5249 82.401 19.2027 81.0946 20.1509C79.5414 21.3602 77.1015 21.2843 75.7302 19.8203C75.721 20.1389 75.7119 20.4583 75.7018 20.7778C74.9842 20.7787 74.2675 20.763 73.5508 20.7639C73.6742 19.7815 73.6696 18.7898 73.6696 17.8009C73.676 14.1693 73.6687 10.5378 73.6641 6.90625ZM77.6993 12.761C76.9342 13.0147 76.3244 13.6767 76.1105 14.4601C75.9423 15.2212 76.0328 16.0101 76.0209 16.7833C76.0026 17.9481 77.0686 18.9814 78.2122 18.9435C79.1081 19.024 79.9327 18.4 80.2965 17.6009C80.8606 16.2286 80.8048 14.4712 79.8093 13.3147C79.2708 12.7684 78.4325 12.5202 77.6993 12.761Z" fill="#B0B7BF"/>
    <path d="M104.316 6.92011C105.104 6.91641 105.89 6.89974 106.678 6.90715C106.667 9.4146 106.624 11.9239 106.712 14.4304C107.715 13.2193 108.705 11.9952 109.776 10.8424C110.727 10.8998 111.679 10.8443 112.631 10.8563C111.349 12.2591 110.06 13.6545 108.757 15.036C110.174 16.9425 111.592 18.849 112.999 20.7639C112.031 20.7685 111.064 20.7611 110.097 20.7602C109.231 19.4555 108.289 18.2046 107.416 16.9055C107.341 16.7768 107.222 16.6879 107.097 16.6138C106.903 16.8453 106.642 17.0851 106.667 17.4175C106.661 18.5333 106.662 19.6481 106.668 20.7639C105.888 20.7648 105.108 20.7648 104.328 20.7639C104.33 16.149 104.345 11.5341 104.316 6.92011Z" fill="#B0B7BF"/>
    <path d="M50.2935 9.29798C51.0577 9.02668 51.8284 8.7739 52.61 8.55908C52.6045 9.32021 52.6045 10.0813 52.6018 10.8425C53.3048 10.873 54.0087 10.8415 54.7126 10.8702C54.837 10.8536 54.9256 10.948 55.0189 11.0156C55.018 11.6212 55.028 12.2258 55.0235 12.8314C54.2153 12.8388 53.4072 12.8397 52.599 12.8379C52.6018 14.1194 52.6027 15.4009 52.6045 16.6824C52.6164 17.2351 52.5698 17.8009 52.7243 18.3389C52.7901 18.5454 52.9099 18.7741 53.132 18.838C53.676 19.0148 54.2491 18.8518 54.773 18.6824C54.8699 19.3444 54.8872 20.0139 54.9119 20.6815C54.0078 20.9676 53.015 21.138 52.0908 20.8454C51.5139 20.6611 50.9864 20.2713 50.7149 19.7139C50.4114 19.0907 50.3227 18.387 50.3035 17.7C50.3017 16.0796 50.3044 14.4583 50.3026 12.8379C49.8346 12.8388 49.3656 12.8379 48.8984 12.8388C48.9039 12.1786 48.9112 11.5184 48.9076 10.8582C49.372 10.8554 49.8355 10.8582 50.2999 10.8563C50.2981 10.3369 50.2917 9.81744 50.2935 9.29798Z" fill="#B0B7BF"/>
    <path d="M0.0413812 10.3832C0.0724633 9.92859 0.644741 9.61099 1.03418 9.85174C1.90723 10.3286 2.69068 10.949 3.52533 11.4888C5.78701 12.986 7.99293 14.5685 10.2939 16.0037C10.7254 15.7926 11.1322 15.5342 11.5299 15.2648C14.0878 13.5314 16.6429 11.7934 19.2063 10.0693C19.5107 9.85914 19.8755 9.73229 20.2466 9.7897C20.371 9.96563 20.4989 10.1379 20.6288 10.3092C20.6288 13.3286 20.6114 16.3481 20.6278 19.3667C20.6132 20.0936 19.9888 20.7927 19.2483 20.7686C13.308 20.7714 7.36672 20.7741 1.42637 20.7677C0.907111 20.8186 0.463733 20.4528 0.19862 20.0362C0.0176124 19.7547 0.0514371 19.4075 0.0477804 19.088C0.0450379 16.187 0.0395528 13.2851 0.0413812 10.3832ZM11.8709 17.6398C11.5089 17.8509 11.1624 18.1213 10.7391 18.1898C10.1385 18.2954 9.51688 18.1195 9.00585 17.7954C7.01842 16.538 5.03007 15.2805 3.03624 14.0333C2.84426 13.9157 2.64131 13.7611 2.4018 13.8259C2.3698 15.35 2.3954 16.875 2.38169 18.3991C2.66417 18.4741 2.95396 18.5269 3.2465 18.5185C8.23062 18.5121 13.2138 18.5315 18.197 18.4926C18.3314 17.6491 18.2848 16.7917 18.2903 15.9407C18.2866 15.2037 18.3369 14.4583 18.1906 13.7305C16.0322 14.9463 13.9909 16.3593 11.8709 17.6398Z" fill="#B0B7BF"/>
    <path d="M40.5182 12.3241C41.9124 10.4824 44.8323 10.0527 46.6314 11.5259C47.9972 12.737 48.3116 14.7491 48.0401 16.4871C45.9293 16.4871 43.8184 16.4862 41.7085 16.4871C41.8063 17.438 42.3493 18.4158 43.2718 18.7547C44.5754 19.1501 45.9869 18.9112 47.2256 18.3982C47.3737 19.0334 47.5712 19.6594 47.6452 20.3103C46.0691 20.9223 44.3121 21.1751 42.6556 20.7686C41.2039 20.3909 40.0145 19.1908 39.626 17.726C39.1588 15.9139 39.3801 13.8435 40.5182 12.3241ZM42.2159 13.4694C42.0157 13.8102 41.8822 14.1861 41.7359 14.5537C43.1072 14.563 44.4776 14.5621 45.8488 14.5537C45.7638 14.1945 45.6898 13.8278 45.5261 13.4944C45.2555 12.925 44.6421 12.563 44.026 12.5463C43.3211 12.5037 42.5843 12.8481 42.2159 13.4694Z" fill="#B0B7BF"/>
    <path d="M58.909 11.8815C59.6303 10.95 60.8883 10.4204 62.0374 10.763C62.0273 11.5075 62.031 12.251 62.041 12.9955C61.5327 12.9853 61.0107 12.8992 60.5134 13.0408C59.9092 13.2732 59.4777 13.8408 59.2921 14.4547C59.1559 14.8733 59.1705 15.3196 59.1723 15.7538C59.1723 17.4261 59.1705 19.0983 59.1714 20.7706C58.3797 20.7715 57.589 20.7706 56.7973 20.7706C56.7735 17.4659 56.9106 14.1594 56.7461 10.8565C57.4564 10.8584 58.1658 10.8556 58.8761 10.8584C58.8862 11.1991 58.8981 11.5399 58.909 11.8815Z" fill="#B0B7BF"/>
    <path d="M66.654 10.7388C67.9138 10.5193 69.2668 10.7768 70.3144 11.5342C71.3822 12.2675 72.0258 13.5157 72.1976 14.7926C72.3403 16.0583 72.2296 17.3954 71.6245 18.5334C70.9964 19.7167 69.8327 20.5723 68.5427 20.8612C67.0709 21.2019 65.4254 20.8825 64.2699 19.8723C63.1765 18.8982 62.6408 17.3935 62.6673 15.9389C62.639 14.5407 63.0787 13.0842 64.0678 12.0786C64.7498 11.3564 65.6795 10.8851 66.654 10.7388ZM66.9256 12.6777C66.3642 12.8222 65.8752 13.2036 65.5744 13.7018C65.0433 14.5592 64.9317 15.625 65.0789 16.6102C65.216 17.6241 65.8359 18.6287 66.8268 18.9649C67.667 19.2297 68.6314 18.8584 69.137 18.1417C70.1298 16.7806 70.1078 14.7463 69.1141 13.3944C68.5903 12.7712 67.7118 12.4703 66.9256 12.6777Z" fill="#B0B7BF"/>
    <path d="M84.7556 11.6258C86.0867 10.861 87.6673 10.4647 89.1894 10.7508C90.0881 10.8897 90.9465 11.3906 91.4264 12.1869C91.9758 13.1184 92.0508 14.237 92.0252 15.2972C92.0435 17.1222 91.9301 18.9602 92.2154 20.7704C91.4813 20.7667 90.7472 20.7815 90.0131 20.7769C89.9939 20.513 89.9765 20.25 89.9601 19.9861C89.151 20.6973 88.0668 21.1038 86.9917 20.9769C86.0602 20.9121 85.1359 20.4325 84.6469 19.6102C83.8131 18.2935 84.1459 16.3639 85.3892 15.4287C86.5968 14.4194 88.2368 14.3583 89.7224 14.187C89.6136 13.6166 89.3924 12.9462 88.7991 12.7314C87.6262 12.3786 86.3353 12.7564 85.3828 13.4925C85.1661 12.8731 84.9622 12.249 84.7556 11.6258ZM86.9414 16.8278C86.2723 17.4167 86.4469 18.7472 87.3327 19.0185C88.139 19.1926 89.0742 18.8491 89.4975 18.1111C89.8367 17.5056 89.7297 16.7796 89.7041 16.1157C88.7588 16.1305 87.6783 16.1324 86.9414 16.8278Z" fill="#B0B7BF"/>
    <path d="M96.1038 11.7768C97.316 10.5379 99.4022 10.2815 100.84 11.263C101.692 11.8222 102.169 12.813 102.335 13.8037C102.442 14.3556 102.405 14.9195 102.415 15.4778C102.421 17.2399 102.4 19.002 102.436 20.764C101.649 20.7705 100.863 20.7724 100.076 20.7705C100.083 19.1936 100.096 17.6177 100.085 16.0408C100.077 15.151 100.171 14.1769 99.6572 13.3972C99.2879 12.8065 98.509 12.6259 97.87 12.7898C96.9869 13.0259 96.3059 13.9 96.3077 14.8288C96.3004 16.8066 96.3049 18.7853 96.3113 20.764C95.527 20.7724 94.7435 20.7724 93.9592 20.764C93.9619 18.8788 93.9701 16.9936 93.9674 15.1084C93.9573 13.7463 94.0076 12.3806 93.8613 11.0231C93.9061 10.9898 93.9948 10.9231 94.0396 10.8898C94.6905 10.8259 95.3469 10.8694 96.0005 10.8583C96.0343 11.1648 96.07 11.4704 96.1038 11.7768Z" fill="#B0B7BF"/>
</svg>
