<svg width="40" height="40" viewBox="0 0 40 40" fill="none" xmlns="http://www.w3.org/2000/svg">
    <path d="M11.6668 0H6.66672C4.8986 0 3.20289 0.702378 1.95264 1.95262C0.702385 3.20286 0 4.89855 0 6.66666L0 11.6667C0 13.4348 0.702385 15.1305 1.95264 16.3807C3.20289 17.6309 4.8986 18.3333 6.66672 18.3333H11.6668C13.4349 18.3333 15.1306 17.6309 16.3809 16.3807C17.6311 15.1305 18.3335 13.4348 18.3335 11.6667V6.66666C18.3335 4.89855 17.6311 3.20286 16.3809 1.95262C15.1306 0.702378 13.4349 0 11.6668 0ZM15.0001 11.6667C15.0001 12.5507 14.6489 13.3986 14.0238 14.0237C13.3987 14.6488 12.5508 15 11.6668 15H6.66672C5.78266 15 4.93481 14.6488 4.30968 14.0237C3.68455 13.3986 3.33336 12.5507 3.33336 11.6667V6.66666C3.33336 5.78261 3.68455 4.93476 4.30968 4.30964C4.93481 3.68452 5.78266 3.33333 6.66672 3.33333H11.6668C12.5508 3.33333 13.3987 3.68452 14.0238 4.30964C14.6489 4.93476 15.0001 5.78261 15.0001 6.66666V11.6667Z" fill="#E7E7E7"/>
    <path d="M11.6668 21.6665H6.66672C4.8986 21.6665 3.20289 22.3689 1.95264 23.6191C0.702385 24.8694 0 26.5651 0 28.3332L0 33.3332C0 35.1013 0.702385 36.797 1.95264 38.0472C3.20289 39.2974 4.8986 39.9998 6.66672 39.9998H11.6668C13.4349 39.9998 15.1306 39.2974 16.3809 38.0472C17.6311 36.797 18.3335 35.1013 18.3335 33.3332V28.3332C18.3335 26.5651 17.6311 24.8694 16.3809 23.6191C15.1306 22.3689 13.4349 21.6665 11.6668 21.6665ZM15.0001 33.3332C15.0001 34.2172 14.6489 35.0651 14.0238 35.6902C13.3987 36.3153 12.5508 36.6665 11.6668 36.6665H6.66672C5.78266 36.6665 4.93481 36.3153 4.30968 35.6902C3.68455 35.0651 3.33336 34.2172 3.33336 33.3332V28.3332C3.33336 27.4491 3.68455 26.6013 4.30968 25.9761C4.93481 25.351 5.78266 24.9998 6.66672 24.9998H11.6668C12.5508 24.9998 13.3987 25.351 14.0238 25.9761C14.6489 26.6013 15.0001 27.4491 15.0001 28.3332V33.3332Z" fill="#E7E7E7"/>
    <path d="M33.3328 21.6665H28.3327C26.5646 21.6665 24.8689 22.3689 23.6187 23.6191C22.3684 24.8694 21.666 26.5651 21.666 28.3332V33.3332C21.666 35.1013 22.3684 36.797 23.6187 38.0472C24.8689 39.2974 26.5646 39.9998 28.3327 39.9998H33.3328C35.1009 39.9998 36.7966 39.2974 38.0469 38.0472C39.2971 36.797 39.9995 35.1013 39.9995 33.3332V28.3332C39.9995 26.5651 39.2971 24.8694 38.0469 23.6191C36.7966 22.3689 35.1009 21.6665 33.3328 21.6665ZM36.6661 33.3332C36.6661 34.2172 36.3149 35.0651 35.6898 35.6902C35.0647 36.3153 34.2168 36.6665 33.3328 36.6665H28.3327C27.4487 36.6665 26.6008 36.3153 25.9757 35.6902C25.3506 35.0651 24.9994 34.2172 24.9994 33.3332V28.3332C24.9994 27.4491 25.3506 26.6013 25.9757 25.9761C26.6008 25.351 27.4487 24.9998 28.3327 24.9998H33.3328C34.2168 24.9998 35.0647 25.351 35.6898 25.9761C36.3149 26.6013 36.6661 27.4491 36.6661 28.3332V33.3332Z" fill="#E7E7E7"/>
    <path d="M23.3327 11.6665H28.3327V16.6665C28.3327 17.1085 28.5083 17.5324 28.8209 17.845C29.1335 18.1576 29.5574 18.3332 29.9994 18.3332C30.4415 18.3332 30.8654 18.1576 31.1779 17.845C31.4905 17.5324 31.6661 17.1085 31.6661 16.6665V11.6665H36.6661C37.1082 11.6665 37.5321 11.4909 37.8447 11.1783C38.1572 10.8658 38.3328 10.4419 38.3328 9.99983C38.3328 9.5578 38.1572 9.13388 37.8447 8.82132C37.5321 8.50876 37.1082 8.33316 36.6661 8.33316H31.6661V3.33317C31.6661 2.89114 31.4905 2.46722 31.1779 2.15466C30.8654 1.8421 30.4415 1.6665 29.9994 1.6665C29.5574 1.6665 29.1335 1.8421 28.8209 2.15466C28.5083 2.46722 28.3327 2.89114 28.3327 3.33317V8.33316H23.3327C22.8907 8.33316 22.4667 8.50876 22.1542 8.82132C21.8416 9.13388 21.666 9.5578 21.666 9.99983C21.666 10.4419 21.8416 10.8658 22.1542 11.1783C22.4667 11.4909 22.8907 11.6665 23.3327 11.6665Z" fill="#E7E7E7"/>
</svg>
