<svg width="35" height="40" viewBox="0 0 35 40" fill="none" xmlns="http://www.w3.org/2000/svg">
    <path d="M31.4125 9.22538L25.3138 3.41681C23.0002 1.21338 19.9237 5.57096e-07 16.6513 5.57096e-07H8.75C3.92525 -0.00166618 0 3.73682 0 8.33202V31.6663C0 36.2615 3.92525 40 8.75 40H26.25C31.0747 40 35 36.2615 35 31.6663V17.4741C35 14.3573 33.726 11.4305 31.4125 9.22538ZM28.938 11.5821C29.4945 12.1122 29.9653 12.7005 30.3467 13.3322H22.75C21.7857 13.3322 21 12.5839 21 11.6655V4.43018C21.6632 4.79353 22.2828 5.24189 22.8375 5.77191L28.9362 11.5805L28.938 11.5821ZM31.5 31.6663C31.5 34.4231 29.1445 36.6665 26.25 36.6665H8.75C5.8555 36.6665 3.5 34.4231 3.5 31.6663V8.33202C3.5 5.57523 5.8555 3.33181 8.75 3.33181H16.6513C16.9365 3.33181 17.22 3.34514 17.5 3.37014V11.6655C17.5 14.4223 19.8555 16.6657 22.75 16.6657H31.4597C31.486 16.9324 31.5 17.2024 31.5 17.4741V31.6663ZM23.625 21.6659H11.375C8.9635 21.6659 7 23.536 7 25.8327V29.1662C7 31.463 8.9635 33.3331 11.375 33.3331H23.625C26.0365 33.3331 28 31.463 28 29.1662V25.8327C28 23.536 26.0365 21.6659 23.625 21.6659ZM24.5 29.1662C24.5 29.6262 24.108 29.9996 23.625 29.9996H11.375C10.892 29.9996 10.5 29.6262 10.5 29.1662V25.8327C10.5 25.3727 10.892 24.9994 11.375 24.9994H23.625C24.108 24.9994 24.5 25.3727 24.5 25.8327V29.1662ZM7 16.6657C7 15.7457 7.784 14.999 8.75 14.999H12.25C13.216 14.999 14 15.7457 14 16.6657C14 17.5857 13.216 18.3324 12.25 18.3324H8.75C7.784 18.3324 7 17.5857 7 16.6657ZM7 9.99875C7 9.07871 7.784 8.33202 8.75 8.33202H12.25C13.216 8.33202 14 9.07871 14 9.99875C14 10.9188 13.216 11.6655 12.25 11.6655H8.75C7.784 11.6655 7 10.9188 7 9.99875Z" fill="#E7E7E7"/>
</svg>
