<svg width="119" height="24" viewBox="0 0 119 24" fill="none" xmlns="http://www.w3.org/2000/svg">
    <path d="M39.6892 8.89953C39.316 7.43568 38.4562 6.98558 36.7097 6.98558C34.919 6.98558 34.0819 7.45874 33.7099 8.89953C33.498 9.70391 33.4765 10.5787 33.4538 11.4298L39.9675 11.4055C39.9442 10.5556 39.897 9.72816 39.6892 8.89953ZM42.1779 12.7304C42.1779 12.8954 42.0149 13.0847 41.853 13.0847H33.4765C33.4765 14.3374 33.7326 15.0477 34.2676 15.6368C34.919 16.3945 35.9902 16.6535 37.5242 16.6535C38.9679 16.6535 39.897 16.3471 40.8995 16.0627L41.0375 16.0396C41.1545 16.0396 41.2255 16.1112 41.2948 16.2762L41.5509 17.245L41.5742 17.3402C41.5742 17.4822 41.4805 17.5756 41.3175 17.6241C40.4099 18.0015 38.8748 18.3327 37.2686 18.3327C32.7098 18.3327 31.2422 16.2525 31.2422 11.832C31.2422 7.74264 32.1498 5.30762 36.7348 5.30762C39.153 5.30762 40.5729 6.03984 41.364 7.3162C42.0149 8.40389 42.1779 9.87011 42.1779 11.5717V12.7304Z" fill="#591A7C"/>
    <path d="M51.3652 11.6189L47.4089 12.2814C46.3389 12.4464 45.2677 12.541 45.2677 14.3136C45.2677 16.5594 47.0602 16.7019 48.4794 16.7019C49.4819 16.7019 50.5042 16.583 51.3652 16.2997V11.6189ZM51.5043 18.0019C50.8063 18.1675 49.6897 18.3332 48.4334 18.3332C46.3162 18.3332 43.0352 18.2143 43.0352 14.3846C43.0352 11.2641 44.8026 11.0754 46.9903 10.6975L51.3652 9.96405V8.92368C51.3652 8.19205 51.3192 7.62484 50.5507 7.3161C50.1316 7.15167 49.4819 7.08011 48.5021 7.08011C46.7574 7.08011 45.1746 7.52961 44.2926 7.74254L44.1284 7.7662C44.0347 7.7662 43.9189 7.7177 43.8956 7.57693L43.6633 6.41827L43.6406 6.34729C43.6406 6.18287 43.8036 6.08764 43.8956 6.06339C44.6169 5.80374 46.6177 5.30811 48.8054 5.30811C50.4815 5.30811 51.5514 5.54291 52.25 5.92263C53.4592 6.60635 53.5057 7.7662 53.5057 8.97159V15.5681C53.5057 17.2449 53.1099 17.624 51.5043 18.0019Z" fill="#591A7C"/>
    <path d="M59.1139 18.3327C57.0886 18.3327 55.2734 17.6696 54.9486 17.5519C54.8787 17.5064 54.7617 17.4579 54.7617 17.2923V17.1983L54.9952 16.1579C55.0179 16.0396 55.1116 15.9444 55.2507 15.9444L55.3671 15.9686C55.6 16.0153 57.2289 16.6062 59.0667 16.6062C60.8807 16.6062 61.9751 16.0396 61.9751 14.6686C61.9751 12.8493 60.6257 12.896 58.9264 12.6115C57.7173 12.4222 54.8787 12.1868 54.8787 9.04207C54.8787 5.89789 57.6003 5.30762 59.6716 5.30762C61.6491 5.30762 63.1604 5.73228 63.441 5.80385C63.6261 5.85057 63.696 5.96946 63.696 6.08716V6.13506L63.5109 7.29314C63.4881 7.43509 63.3711 7.45874 63.278 7.45874H63.2308C62.906 7.43509 61.255 7.03289 59.9271 7.03289C58.3687 7.03289 57.0193 7.45874 57.0193 8.87587C57.0193 10.4131 58.5317 10.555 59.9271 10.7437C61.9751 11.0276 64.1396 11.289 64.1396 14.4551C64.1396 17.5283 61.8354 18.3327 59.1139 18.3327Z" fill="#591A7C"/>
    <path d="M97.9882 8.89953C97.6162 7.43568 96.7564 6.98558 95.0111 6.98558C93.2193 6.98558 92.3827 7.45874 92.009 8.89953C91.7988 9.70391 91.7761 10.5787 91.754 11.4298L98.2683 11.4055C98.2438 10.5556 98.1972 9.72816 97.9882 8.89953ZM100.478 12.7304C100.478 12.8954 100.316 13.0847 100.153 13.0847H91.7761C91.7761 14.3374 92.0334 15.0477 92.5673 15.6368C93.2193 16.3945 94.2893 16.6535 95.8238 16.6535C97.2687 16.6535 98.1972 16.3471 99.1985 16.0627L99.3377 16.0396C99.4547 16.0396 99.5257 16.1112 99.595 16.2762L99.85 17.245L99.8732 17.3402C99.8732 17.4822 99.7801 17.5756 99.6177 17.6241C98.7101 18.0015 97.175 18.3327 95.5688 18.3327C91.0082 18.3327 89.543 16.2525 89.543 11.832C89.543 7.74264 90.45 5.30762 95.0332 5.30762C97.4527 5.30762 98.8737 6.03984 99.6648 7.3162C100.316 8.40389 100.478 9.87011 100.478 11.5717L100.478 12.7304Z" fill="#B5006C"/>
    <path d="M105.901 18.3327C103.877 18.3327 102.063 17.6696 101.737 17.5519C101.668 17.5064 101.551 17.4579 101.551 17.2923V17.1983L101.783 16.1579C101.806 16.0396 101.9 15.9444 102.039 15.9444L102.156 15.9686C102.389 16.0153 104.017 16.6062 105.856 16.6062C107.67 16.6062 108.764 16.0396 108.764 14.6686C108.764 12.8493 107.414 12.896 105.716 12.6115C104.506 12.4222 101.668 12.1868 101.668 9.04207C101.668 5.89789 104.389 5.30762 106.461 5.30762C108.438 5.30762 109.951 5.73228 110.229 5.80385C110.416 5.85057 110.486 5.96946 110.486 6.08716V6.13506L110.301 7.29314C110.276 7.43509 110.159 7.45874 110.068 7.45874H110.02C109.694 7.43509 108.044 7.03289 106.716 7.03289C105.158 7.03289 103.807 7.45874 103.807 8.87587C103.807 10.4131 105.32 10.555 106.716 10.7437C108.764 11.0276 110.927 11.289 110.927 14.4551C110.927 17.5283 108.624 18.3327 105.901 18.3327Z" fill="#B5006C"/>
    <path d="M118.999 17.5758C118.999 17.7184 118.905 17.8124 118.79 17.8597C118.324 18.0254 117.3 18.3093 115.927 18.3093C113.555 18.3093 112.391 17.2925 112.391 14.9273V2.13944C112.391 1.90344 112.508 1.83247 112.717 1.78397L114.229 1.42969H114.298C114.485 1.42969 114.555 1.57282 114.555 1.7609V5.61424H118.324C118.51 5.61424 118.649 5.75619 118.649 5.9697V6.98523C118.649 7.17509 118.51 7.31586 118.301 7.31586H114.555V15.048C114.555 16.2764 115.183 16.6059 116.392 16.6059C117.115 16.6059 117.975 16.4172 118.44 16.3231L118.51 16.2995C118.627 16.2995 118.742 16.3941 118.766 16.5361L118.999 17.5291L118.999 17.5758Z" fill="#B5006C"/>
    <path d="M89.1049 5.61426H87.5215C87.2671 5.61426 87.1745 5.75621 87.1273 5.94606L84.9408 16.4888H84.3353L82.1709 6.48902C82.1255 6.25303 81.9392 6.11108 81.7069 6.11108H79.1472C78.9138 6.11108 78.7286 6.25303 78.6815 6.48902L76.4943 16.4888H75.8656C75.8656 16.4888 74.1483 8.18709 73.9579 7.31824C73.8153 6.66823 73.5609 5.61662 71.1979 5.61662H69.6797C71.0303 5.76744 71.5408 6.60376 71.9722 8.34738L74.2141 17.6468C74.2601 17.884 74.4469 18.026 74.6809 18.026H77.6575C77.8898 18.026 78.0772 17.884 78.1459 17.6468L80.379 7.76597H80.4262L82.5668 17.6468C82.6133 17.884 82.8223 18.026 83.0558 18.026H86.0568C86.2896 18.026 86.4759 17.884 86.5225 17.6468L89.4076 6.01645V5.94606C89.4076 5.75621 89.2918 5.61426 89.1049 5.61426Z" fill="#B5006C"/>
    <path d="M71.9792 16.5361C71.9553 16.3935 71.8389 16.2989 71.7236 16.2989L71.6532 16.3231C71.1886 16.4172 70.327 16.6064 69.6057 16.6064C68.3966 16.6064 67.7679 16.2764 67.7679 15.0468V7.31645H67.7709V7.32H70.3428C70.1227 7.32 70.7608 7.32592 71.0967 7.45899C71.4314 7.5903 71.7638 7.84935 71.9717 8.35446C71.5403 6.60611 71.0303 5.76802 69.678 5.61602L67.7679 5.61424V1.76031C67.7679 1.57282 67.6981 1.42969 67.5124 1.42969H67.4425L65.9301 1.78456C65.7199 1.83187 65.6035 1.90345 65.6035 2.13943V14.9279C65.6035 17.2919 66.7672 18.3098 69.1412 18.3098C70.5122 18.3098 71.538 18.0259 72.0031 17.8597C72.1189 17.8124 72.2109 17.7178 72.2109 17.5758V17.5285L71.9792 16.5361Z" fill="#591A7C"/>
    <path d="M14.701 9.48062L19.5743 13.138C23.2803 15.9201 21.4318 17.3854 21.4228 17.3926L22.3892 16.6578C23.6572 15.6936 24.5258 14.7429 24.9654 13.9375C25.3214 13.2837 25.4651 12.6535 25.4651 12.0003C25.4651 10.3147 24.3653 8.84383 22.3892 7.34252L12.7316 0C12.7316 0 10.1049 6.03235 14.701 9.48062Z" fill="url(#paint0_linear_91_6170)"/>
    <path d="M3.07597 7.34239C1.80699 8.30689 0.939354 9.25733 0.499746 10.0627C0.142464 10.7168 0 11.3467 0 12.0002C0 13.6855 1.09982 15.156 3.07597 16.6577L12.7325 23.9999C12.7325 23.9999 15.3602 17.9679 10.7644 14.5193L5.89113 10.8619C2.17585 8.07393 4.04234 6.60791 4.04234 6.60791L3.07597 7.34239Z" fill="url(#paint1_linear_91_6170)"/>
    <path d="M3.96903 6.66456C3.80567 6.83544 3.56641 7.18863 3.56641 7.69408C3.56641 8.41385 4.03271 9.47702 5.88697 10.8685C6.45521 11.2953 6.95721 11.6723 7.40067 12.0049C9.08064 10.7447 6.68257 12.545 10.7651 9.48062C11.6868 8.78894 12.318 7.99238 12.7377 7.16184C12.1804 6.06175 11.9942 4.90188 11.9942 3.84132C11.9942 1.8081 12.6847 0.135265 12.7332 0L3.96903 6.66456Z" fill="url(#paint2_linear_91_6170)"/>
    <path d="M14.7018 14.5194C13.7791 15.2114 13.1482 16.007 12.7285 16.8382C13.2852 17.9386 13.472 19.0988 13.472 20.1584C13.472 22.1602 12.8067 23.8132 12.7314 23.9974L12.7324 24L21.5066 17.3296C21.6458 17.1747 21.9002 16.8104 21.9002 16.3056C21.9002 15.5865 21.4329 14.5233 19.5799 13.1311C19.0114 12.7041 18.5091 12.3281 18.0649 11.9951C16.3853 13.2556 18.7843 11.4554 14.7018 14.5194Z" fill="url(#paint3_linear_91_6170)"/>
    <path d="M17.9913 11.94C16.3618 10.717 15.5388 10.1002 15.1256 9.78945C14.7059 9.47448 14.7053 9.47448 14.7053 9.47448C13.7955 8.7913 13.1694 8.00683 12.7497 7.18838L12.7317 7.17139L12.7124 7.18903C12.2934 8.00715 11.6685 8.79162 10.7581 9.47383C6.74314 12.4872 8.9952 10.7967 7.47475 11.938L7.40625 12.0001L7.47411 12.0612C10.7556 14.5234 10.7581 14.526 10.7581 14.526C11.6692 15.2089 12.2947 15.9933 12.714 16.8128L12.7317 16.8291L12.7497 16.8131C13.1694 15.9933 13.7949 15.2092 14.7053 14.526C18.7222 11.5116 16.4657 13.2047 17.9913 12.0602L18.0578 12.0007L17.9913 11.94Z" fill="#DEDF38"/>
    <defs>
        <linearGradient id="paint0_linear_91_6170" x1="23.8196" y1="15.9827" x2="11.114" y2="1.07896" gradientUnits="userSpaceOnUse">
            <stop stop-color="#591A7C"/>
            <stop offset="0.0500031" stop-color="#591A7C"/>
            <stop offset="0.170334" stop-color="#920884"/>
            <stop offset="0.381485" stop-color="#731885"/>
            <stop offset="0.766663" stop-color="#591A7C"/>
            <stop offset="0.949997" stop-color="#43165D"/>
            <stop offset="1" stop-color="#43165D"/>
        </linearGradient>
        <linearGradient id="paint1_linear_91_6170" x1="1.64556" y1="8.02289" x2="14.3448" y2="22.9191" gradientUnits="userSpaceOnUse">
            <stop stop-color="#E40084"/>
            <stop offset="0.00549316" stop-color="#E40084"/>
            <stop offset="0.151855" stop-color="#C40075"/>
            <stop offset="0.368134" stop-color="#B5006C"/>
            <stop offset="0.5" stop-color="#B5006C"/>
            <stop offset="1" stop-color="#76146C"/>
        </linearGradient>
        <linearGradient id="paint2_linear_91_6170" x1="12.8417" y1="6.27293" x2="5.08993" y2="6.27293" gradientUnits="userSpaceOnUse">
            <stop stop-color="#E40084"/>
            <stop offset="0.00549316" stop-color="#E40084"/>
            <stop offset="0.151855" stop-color="#C40075"/>
            <stop offset="0.5" stop-color="#B5006C"/>
            <stop offset="1" stop-color="#8A0F6C"/>
        </linearGradient>
        <linearGradient id="paint3_linear_91_6170" x1="21.9976" y1="17.7205" x2="14.2526" y2="17.7205" gradientUnits="userSpaceOnUse">
            <stop stop-color="#521C72"/>
            <stop offset="0.149994" stop-color="#521C72"/>
            <stop offset="0.5" stop-color="#591A7C"/>
            <stop offset="0.75" stop-color="#731885"/>
            <stop offset="1" stop-color="#920884"/>
        </linearGradient>
    </defs>
</svg>
