<svg width="112" height="18" viewBox="0 0 112 18" fill="none" xmlns="http://www.w3.org/2000/svg">
    <path d="M6.17962 0.162384C8.22791 -0.290611 10.4626 0.216028 12.1129 1.53388C11.0791 2.78439 10.081 4.06529 9.04312 5.31222C8.20916 6.28675 7.44493 7.32029 6.60979 8.29423C6.34372 8.61848 6.10226 8.9624 5.81978 9.27294C5.1757 10.0883 4.50935 10.8852 3.86702 11.7018C3.60095 12.0171 3.36067 12.3539 3.08111 12.6579C1.93653 11.6649 1.14945 10.2713 0.809538 8.78656C0.480757 7.27976 0.605002 5.6609 1.23033 4.24828C1.62592 3.32679 2.22722 2.50484 2.94984 1.82237C3.87113 1.01294 4.98406 0.416895 6.17962 0.162384Z" fill="#B0B7BF"/>
    <path d="M16.5636 3.99613C17.2757 3.40604 18.2503 3.28743 19.1341 3.41856C19.9235 3.53479 20.6713 3.92877 21.2181 4.52005C20.7721 5.05649 20.3373 5.60366 19.8936 6.14189C19.4464 5.83791 18.97 5.52618 18.4285 5.44452C17.8008 5.43856 17.3853 6.22176 17.6232 6.78085C17.792 7.19928 18.1759 7.47048 18.5533 7.6779C19.2437 8.0248 19.9686 8.33832 20.5529 8.86046C21.1841 9.49703 21.5311 10.4126 21.4689 11.3162C21.4039 13.0948 19.7916 14.6832 18.0282 14.6147C16.8396 14.6248 15.8228 13.8523 15.0352 13.0179C15.5105 12.4141 15.9711 11.7978 16.4411 11.1898C16.7429 11.5653 17.1133 11.8907 17.5365 12.1167C17.8764 12.2788 18.3148 12.3592 18.6418 12.1244C18.9383 11.9021 19.2062 11.5897 19.2501 11.2041C19.2876 10.856 19.0895 10.5324 18.8422 10.3106C18.0768 9.59717 16.9369 9.51432 16.1903 8.77284C15.6324 8.14282 15.3692 7.26901 15.4173 6.4274C15.4407 5.50293 15.8334 4.56774 16.5636 3.99613Z" fill="#B0B7BF"/>
    <path d="M31.5311 4.07545C32.1787 3.63854 32.9518 3.39715 33.7289 3.38582C34.7375 3.35185 35.7279 3.66477 36.6234 4.11776C36.6129 5.01004 36.6152 5.90292 36.6229 6.7958C35.9038 6.31002 35.1178 5.87789 34.2534 5.74974C33.5402 5.64007 32.7625 5.8308 32.242 6.35592C31.537 7.02825 31.2985 8.0469 31.278 8.99699C31.2633 9.9155 31.4925 10.8948 32.15 11.5606C32.6587 12.0994 33.4136 12.339 34.1362 12.2997C35.0358 12.2276 35.8668 11.8014 36.61 11.3037C36.6311 12.1924 36.6094 13.0817 36.6188 13.9704C35.555 14.3578 34.4322 14.7017 33.2899 14.5837C32.4179 14.4955 31.588 14.0974 30.9433 13.4983C30.0572 12.6835 29.4424 11.5683 29.2215 10.3733C28.9917 9.14362 29.0703 7.84365 29.5104 6.66944C29.916 5.63053 30.6116 4.69712 31.5311 4.07545Z" fill="#B0B7BF"/>
    <path d="M37.8301 3.50333C38.5175 3.5081 39.2056 3.50452 39.893 3.50571C39.8895 5.71346 39.8918 7.92062 39.8918 10.1278C39.8977 10.7089 40.0542 11.3187 40.4691 11.7401C41.1349 12.3999 42.3662 12.2896 42.9194 11.5327C43.2336 11.1178 43.3232 10.579 43.3396 10.0676C43.3414 7.88069 43.3373 5.6932 43.3414 3.50631C43.9685 3.50452 44.5956 3.5075 45.2227 3.50392C45.2889 3.50154 45.4225 3.49021 45.4014 3.60048C45.3762 5.37849 45.3979 7.15709 45.3909 8.93509C45.3821 9.59849 45.4102 10.2631 45.3733 10.9259C45.2438 11.9409 44.871 12.9965 44.0705 13.6635C43.3824 14.2375 42.4746 14.5171 41.5897 14.4849C40.6443 14.4938 39.6334 14.2262 38.9676 13.5062C38.2837 12.7295 37.84 11.7127 37.8313 10.6612C37.8307 8.27527 37.833 5.8893 37.8301 3.50333Z" fill="#B0B7BF"/>
    <path d="M22.5467 3.59613C24.3863 3.59673 26.2266 3.6009 28.0668 3.59375C28.0639 4.3102 28.0662 5.02664 28.0656 5.74309C26.9334 5.72879 25.8005 5.75024 24.6682 5.73236C24.67 6.45834 24.6665 7.18433 24.67 7.91031C25.8034 7.91091 26.9369 7.91448 28.0703 7.90852C28.0609 8.61424 28.065 9.31996 28.068 10.0257C26.9345 10.0144 25.8011 10.0275 24.6676 10.0191C24.6712 10.7648 24.6659 11.511 24.6712 12.2567C25.8023 12.243 26.9339 12.2585 28.0656 12.2489C28.0668 12.9648 28.0621 13.6806 28.068 14.3965C26.2272 14.3869 24.3857 14.3971 22.5449 14.3911C22.552 10.7928 22.5473 7.19446 22.5467 3.59613Z" fill="#B0B7BF"/>
    <path d="M71.2561 3.60688C72.0297 3.61403 72.8039 3.6182 73.5775 3.60449C72.5572 5.51124 71.5292 7.41441 70.5177 9.32593C70.4691 9.72707 70.5101 10.1389 70.496 10.5442C70.5001 11.8222 70.4884 13.1001 70.5019 14.378C69.8109 14.3816 69.1205 14.3786 68.4296 14.378C68.4401 12.7627 68.4296 11.1469 68.4354 9.53097C68.4565 9.34679 68.3463 9.1948 68.2643 9.04281C67.2973 7.22964 66.3227 5.42183 65.3574 3.60807C66.1269 3.62059 66.897 3.60151 67.6665 3.61582C68.2842 4.703 68.8445 5.82774 69.4464 6.92566C70.0612 5.82595 70.6337 4.70181 71.2561 3.60688Z" fill="#B0B7BF"/>
    <path d="M87.6106 3.56699C88.1503 3.57235 88.6919 3.54791 89.2305 3.57951C90.5608 7.18677 91.8589 10.8095 93.1747 14.424C92.4714 14.4222 91.7687 14.4293 91.0654 14.4222C90.8064 13.7087 90.5468 12.9952 90.2895 12.2806C89.0599 12.2818 87.8304 12.2752 86.6008 12.2836C86.3488 12.9976 86.0915 13.7093 85.8436 14.4246C85.1444 14.4192 84.4447 14.4347 83.7461 14.418C85.0284 10.7988 86.333 7.18737 87.6106 3.56699ZM87.3017 10.2999C88.0595 10.3035 88.8173 10.2987 89.5751 10.3035C89.1842 9.25028 88.8073 8.1923 88.4199 7.1379C88.063 8.19766 87.6792 9.2473 87.3017 10.2999Z" fill="#B0B7BF"/>
    <path d="M94.0922 3.59131C94.7873 3.60323 95.4823 3.59667 96.1774 3.59548C97.6613 5.898 99.1323 8.20947 100.624 10.5066C100.62 8.20351 100.628 5.90039 100.62 3.59667C101.311 3.59608 102.002 3.60025 102.693 3.59429C102.691 7.1944 102.691 10.7945 102.693 14.3946C102.005 14.3917 101.317 14.3899 100.63 14.3964C99.1476 12.076 97.6795 9.74726 96.192 7.43103C96.2032 9.75144 96.1885 12.0718 96.1997 14.3928C95.4958 14.3952 94.7925 14.3863 94.0898 14.3976C94.0963 10.7957 94.0904 7.19321 94.0922 3.59131Z" fill="#B0B7BF"/>
    <path d="M46.7266 3.60571C47.5517 3.61942 48.3769 3.6075 49.2027 3.61167C49.7887 3.61942 50.3894 3.56757 50.9591 3.74459C51.7796 3.96036 52.4782 4.58978 52.7888 5.39146C53.0496 6.10255 53.0859 6.89052 52.9248 7.62902C52.7946 8.1738 52.5989 8.72455 52.2268 9.14953C51.9577 9.46901 51.6026 9.69193 51.2433 9.89101C52.1072 11.4044 53.0338 12.8814 53.9158 14.3846C53.1129 14.3727 52.31 14.3822 51.5077 14.3786C50.6971 12.9839 49.852 11.6094 49.0362 10.217C48.9589 10.2153 48.8827 10.2135 48.8065 10.2117C48.8012 11.6017 48.8041 12.991 48.8047 14.381C48.112 14.3798 47.4187 14.3733 46.7266 14.3846C46.7342 10.7916 46.7336 7.19867 46.7266 3.60571ZM48.8153 5.54584C48.82 6.47448 48.8182 7.40312 48.8159 8.33176C49.3205 8.34189 49.8643 8.36215 50.3121 8.08321C50.6567 7.88174 50.8343 7.48239 50.8741 7.09377C50.9462 6.6378 50.7903 6.13175 50.4129 5.85519C49.9569 5.50412 49.3568 5.53213 48.8153 5.54584Z" fill="#B0B7BF"/>
    <path d="M54.7051 3.60864C55.3996 3.61222 56.0946 3.6146 56.7897 3.60924C56.7844 7.19922 56.7815 10.7898 56.7909 14.3804C56.0964 14.3786 55.4019 14.3762 54.708 14.3822C54.7098 10.791 54.7156 7.19982 54.7051 3.60864Z" fill="#B0B7BF"/>
    <path d="M57.9297 3.60994C60.1216 3.61173 62.314 3.61471 64.5059 3.60815C64.5076 4.37407 64.5065 5.1394 64.5071 5.90472C63.7587 5.90531 63.0103 5.90353 62.2613 5.90591C62.2683 8.72938 62.256 11.5534 62.2677 14.3775C61.5633 14.3841 60.8594 14.3715 60.1555 14.3858C60.1597 11.5588 60.1614 8.73176 60.1544 5.90531C59.4136 5.90531 58.6728 5.90293 57.932 5.90591C57.9303 5.14059 57.9338 4.37526 57.9297 3.60994Z" fill="#B0B7BF"/>
    <path d="M76.9676 3.61719C78.0705 3.63388 79.1747 3.61063 80.2782 3.62494C80.9036 3.67739 81.5646 3.83415 82.0353 4.28476C82.7549 5.0471 82.9712 6.21058 82.6946 7.21373C82.551 7.72454 82.187 8.12269 81.8284 8.49105C82.3365 8.69549 82.8241 9.00365 83.1388 9.46916C83.7167 10.3471 83.7864 11.5041 83.4524 12.4881C83.2466 13.0663 82.8329 13.5622 82.3125 13.8733C81.6778 14.2471 80.9323 14.3901 80.205 14.3794C79.1219 14.3752 78.0395 14.3871 76.957 14.3734C76.9857 14.2316 77.001 14.0879 77.0063 13.9437C76.9957 10.725 77.0068 7.50638 76.9992 4.28774C77.0016 4.06422 77.0168 3.83772 76.9676 3.61719ZM78.9848 5.42738C78.983 6.20999 78.9871 6.99259 78.9836 7.7758C79.3904 7.77699 79.8399 7.81096 80.1845 7.54632C80.5484 7.28406 80.7535 6.81795 80.7143 6.36794C80.6568 5.87978 80.2144 5.52394 79.7596 5.44347C79.5023 5.41009 79.2427 5.43334 78.9848 5.42738ZM78.9848 9.60983C78.986 10.5945 78.9854 11.5792 78.9848 12.5638C79.6084 12.543 80.2794 12.6544 80.852 12.3355C81.281 12.1204 81.4797 11.6078 81.4533 11.1417C81.4715 10.6291 81.2441 10.0885 80.7916 9.83156C80.2401 9.51565 79.5873 9.63725 78.9848 9.60983Z" fill="#B0B7BF"/>
    <path d="M103.966 3.60875C104.666 3.61471 105.367 3.61352 106.068 3.60815C106.059 5.12747 106.059 6.64679 106.067 8.16611C107.116 6.68375 108.157 5.19542 109.198 3.70769H109.204C110.019 3.68862 110.836 3.69458 111.652 3.70114C111.642 3.76789 111.633 3.83406 111.625 3.90081C110.49 5.52802 109.328 7.13853 108.174 8.75381C109.454 10.6254 110.723 12.5059 111.999 14.3805C111.156 14.3769 110.314 14.3823 109.471 14.3781C108.831 13.4107 108.176 12.4541 107.528 11.4926C107.499 11.4539 107.478 11.4122 107.464 11.3687C107.39 10.9878 107.13 10.6898 106.926 10.3751C106.691 10.0621 106.435 9.73431 106.409 9.32483C106.251 9.28847 106.056 9.20204 105.922 9.34092C105.846 9.4798 105.902 9.65086 105.911 9.80166C105.959 10.0872 105.931 10.3762 105.922 10.6629C105.916 11.4777 105.943 12.2925 105.924 13.1073C105.911 13.4918 105.967 13.8852 105.859 14.2601C105.925 14.2976 105.989 14.3352 106.058 14.3745L106.073 14.3847C105.37 14.3739 104.668 14.3787 103.965 14.3817C103.97 10.7905 103.968 7.19933 103.966 3.60875Z" fill="#B0B7BF"/>
    <path d="M76.877 3.60327L76.9685 3.61698C77.0175 3.83752 77.0023 4.06401 77 4.28753C77.0076 7.50618 76.9965 10.7248 77.007 13.9435C77.0017 14.0877 76.9866 14.2314 76.958 14.3732L76.8775 14.3947C76.8828 10.7975 76.8845 7.20041 76.877 3.60327Z" fill="#B0B7BF"/>
    <path d="M105.923 9.34083C106.056 9.20195 106.251 9.28838 106.409 9.32473C106.435 9.73422 106.691 10.062 106.927 10.375C107.131 10.6897 107.391 10.9877 107.464 11.3686C107.025 10.7755 106.631 10.1491 106.214 9.5405C106.164 9.46302 106.113 9.38672 106.063 9.31103C106.042 10.9984 106.05 12.687 106.059 14.3744C105.989 14.3351 105.926 14.2975 105.859 14.26C105.967 13.8851 105.911 13.4917 105.924 13.1072C105.944 12.2924 105.917 11.4777 105.922 10.6629C105.931 10.3762 105.96 10.0871 105.911 9.80157C105.902 9.65077 105.846 9.47971 105.923 9.34083Z" fill="#B0B7BF"/>
    <path d="M109.205 3.70769C109.253 3.56882 109.403 3.62663 109.509 3.61233C110.288 3.61352 111.066 3.62067 111.844 3.60815C111.772 3.7071 111.702 3.80604 111.626 3.90081C111.634 3.83406 111.643 3.76789 111.652 3.70114C110.837 3.69458 110.02 3.68862 109.205 3.70769Z" fill="#B0B7BF"/>
    <path d="M6.61019 8.29427C7.44533 7.32033 8.20956 6.28679 9.04352 5.31226C10.1729 6.35593 10.998 7.74651 11.3186 9.26881C11.6562 10.837 11.481 12.5256 10.7824 13.9704C10.1717 15.2728 9.14491 16.3606 7.91242 17.0698C6.78543 17.71 5.48554 18.0295 4.19796 17.9979C2.68885 17.9288 1.19439 17.4072 0 16.4595C1.03616 15.2001 2.05591 13.9263 3.08151 12.6579C3.36106 12.3539 3.60135 12.0172 3.86742 11.7019C4.50975 10.8853 5.1761 10.0884 5.82018 9.27298C6.10266 8.96244 6.34412 8.61852 6.61019 8.29427Z" fill="#B0B7BF"/>
</svg>
