<svg width="63" height="12" viewBox="0 0 63 12" fill="none" xmlns="http://www.w3.org/2000/svg">
    <path d="M4.42201 1.43877C4.60394 0.853743 5.39606 0.853742 5.57798 1.43877L6.3417 3.89469C6.42306 4.15633 6.6564 4.33347 6.91968 4.33347H9.3911C9.97983 4.33347 10.2246 5.12062 9.74832 5.48219L7.7489 7.00003C7.5359 7.16173 7.44677 7.44834 7.52813 7.70998L8.29184 10.1659C8.47376 10.7509 7.83292 11.2374 7.35664 10.8758L5.35721 9.358C5.14421 9.19631 4.85579 9.19631 4.64279 9.358L2.64336 10.8758C2.16708 11.2374 1.52624 10.7509 1.70816 10.1659L2.47187 7.70998C2.55323 7.44834 2.4641 7.16173 2.2511 7.00003L0.25168 5.48219C-0.224606 5.12062 0.020172 4.33347 0.608894 4.33347H3.08032C3.3436 4.33347 3.57694 4.15633 3.6583 3.89469L4.42201 1.43877Z" fill="#FBC400"/>
    <path d="M17.422 1.43877C17.6039 0.853743 18.3961 0.853742 18.578 1.43877L19.3417 3.89469C19.4231 4.15633 19.6564 4.33347 19.9197 4.33347H22.3911C22.9798 4.33347 23.2246 5.12062 22.7483 5.48219L20.7489 7.00003C20.5359 7.16173 20.4468 7.44834 20.5281 7.70998L21.2918 10.1659C21.4738 10.7509 20.8329 11.2374 20.3566 10.8758L18.3572 9.358C18.1442 9.19631 17.8558 9.19631 17.6428 9.358L15.6434 10.8758C15.1671 11.2374 14.5262 10.7509 14.7082 10.1659L15.4719 7.70998C15.5532 7.44834 15.4641 7.16173 15.2511 7.00003L13.2517 5.48219C12.7754 5.12062 13.0202 4.33347 13.6089 4.33347H16.0803C16.3436 4.33347 16.5769 4.15633 16.6583 3.89469L17.422 1.43877Z" fill="#FBC400"/>
    <path d="M30.422 1.43877C30.6039 0.853743 31.3961 0.853742 31.578 1.43877L32.3417 3.89469C32.4231 4.15633 32.6564 4.33347 32.9197 4.33347H35.3911C35.9798 4.33347 36.2246 5.12062 35.7483 5.48219L33.7489 7.00003C33.5359 7.16173 33.4468 7.44834 33.5281 7.70998L34.2918 10.1659C34.4738 10.7509 33.8329 11.2374 33.3566 10.8758L31.3572 9.358C31.1442 9.19631 30.8558 9.19631 30.6428 9.358L28.6434 10.8758C28.1671 11.2374 27.5262 10.7509 27.7082 10.1659L28.4719 7.70998C28.5532 7.44834 28.4641 7.16173 28.2511 7.00003L26.2517 5.48219C25.7754 5.12062 26.0202 4.33347 26.6089 4.33347H29.0803C29.3436 4.33347 29.5769 4.15633 29.6583 3.89469L30.422 1.43877Z" fill="#FBC400"/>
    <path d="M43.422 1.43877C43.6039 0.853743 44.3961 0.853742 44.578 1.43877L45.3417 3.89469C45.4231 4.15633 45.6564 4.33347 45.9197 4.33347H48.3911C48.9798 4.33347 49.2246 5.12062 48.7483 5.48219L46.7489 7.00003C46.5359 7.16173 46.4468 7.44834 46.5281 7.70998L47.2918 10.1659C47.4738 10.7509 46.8329 11.2374 46.3566 10.8758L44.3572 9.358C44.1442 9.19631 43.8558 9.19631 43.6428 9.358L41.6434 10.8758C41.1671 11.2374 40.5262 10.7509 40.7082 10.1659L41.4719 7.70998C41.5532 7.44834 41.4641 7.16173 41.2511 7.00003L39.2517 5.48219C38.7754 5.12062 39.0202 4.33347 39.6089 4.33347H42.0803C42.3436 4.33347 42.5769 4.15633 42.6583 3.89469L43.422 1.43877Z" fill="#FBC400"/>
    <path d="M56.422 1.43877C56.6039 0.853743 57.3961 0.853742 57.578 1.43877L58.3417 3.89469C58.4231 4.15633 58.6564 4.33347 58.9197 4.33347H61.3911C61.9798 4.33347 62.2246 5.12062 61.7483 5.48219L59.7489 7.00003C59.5359 7.16173 59.4468 7.44834 59.5281 7.70998L60.2918 10.1659C60.4738 10.7509 59.8329 11.2374 59.3566 10.8758L57.3572 9.358C57.1442 9.19631 56.8558 9.19631 56.6428 9.358L54.6434 10.8758C54.1671 11.2374 53.5262 10.7509 53.7082 10.1659L54.4719 7.70998C54.5532 7.44834 54.4641 7.16173 54.2511 7.00003L52.2517 5.48219C51.7754 5.12062 52.0202 4.33347 52.6089 4.33347H55.0803C55.3436 4.33347 55.5769 4.15633 55.6583 3.89469L56.422 1.43877Z" stroke="#B0B7BF"/>
</svg>
