<svg width="330" height="295" viewBox="0 0 330 295" fill="none" xmlns="http://www.w3.org/2000/svg">
    <path d="M317.373 260.194C317.373 269.16 250.135 276.427 167.192 276.427C84.2496 276.427 17.0117 269.16 17.0117 260.194C17.0117 251.229 84.2496 243.963 167.192 243.963C250.135 243.963 317.373 251.229 317.373 260.194Z" fill="#ABDDE2"/>
    <mask id="mask0_91_6551" style="mask-type:luminance" maskUnits="userSpaceOnUse" x="0" y="0" width="330" height="225">
        <path d="M0 0H330V224.855H0V0Z" fill="white"/>
    </mask>
    <g mask="url(#mask0_91_6551)">
        <mask id="mask1_91_6551" style="mask-type:luminance" maskUnits="userSpaceOnUse" x="0" y="0" width="330" height="225">
            <path d="M19.0976 35.9646C0.743595 58.9575 0.3863 85.6002 0.250855 95.6778C0.250855 95.6778 -0.261734 133.928 23.8101 167.145C71.8253 233.403 203.202 245.232 278.772 188.774C291.431 179.317 325.337 153.985 329.354 112.134C333.584 68.0613 303.193 21.0153 267.933 11.9861C243.428 5.71074 205.806 15.0393 193.471 18.0984C184.561 20.307 183.573 21.1423 177.92 21.8599C148.57 25.5852 134.435 8.27704 110.997 2.36047C105.274 0.915979 99.3253 0.232178 93.2922 0.232178C65.5645 0.233343 36.0994 14.6677 19.0976 35.9646Z" fill="white"/>
        </mask>
        <g mask="url(#mask1_91_6551)">
            <path d="M323.007 -58.1096L-43.2754 7.99311L10.3164 303.57L376.599 237.468L323.007 -58.1096Z" fill="url(#paint0_linear_91_6551)"/>
        </g>
    </g>
    <path d="M288.51 250.953C286.818 249.536 285.964 247.504 284.325 243.498C282.687 239.494 283.023 239.188 281.635 236.043C279.544 231.305 278.587 231.565 277.749 228.587C277.501 227.708 276.039 222.519 278.646 218.448C280.437 215.652 282.138 216.52 283.727 213.975C285.887 210.516 283.348 207.943 284.624 201.748C284.897 200.424 285.523 197.532 287.613 194.59C291.076 189.719 296.339 187.835 298.374 187.135C301.108 186.196 300.966 186.776 302.858 185.942C308.278 183.552 307.973 179.428 312.124 177.89C315.468 176.653 319.458 177.923 321.988 179.978C322.478 180.376 325.547 182.943 325.874 186.837C326.144 190.051 324.519 193.852 323.184 196.976C322.734 198.03 322.168 199.227 322.287 200.853C322.434 202.866 323.529 204.164 324.08 205.028C326.097 208.197 325.149 212.375 324.379 215.764C322.79 222.768 316.127 225.866 310.031 231.271C305.479 235.31 299.71 241.995 295.385 253.339C291.642 253.202 289.526 251.805 288.51 250.953Z" fill="#FFBC95"/>
    <path d="M137.933 184.577L39.2679 139.778C36.5684 138.553 35.3646 135.346 36.5929 132.652L64.3603 71.7823C65.5886 69.089 68.8031 67.888 71.5027 69.1135L170.167 113.911C172.868 115.138 174.072 118.345 172.842 121.038L145.075 181.908C143.847 184.601 140.632 185.802 137.933 184.577Z" fill="#A5A5A5"/>
    <path d="M137.932 184.581C109.161 171.517 80.3879 158.453 51.6152 145.389C70.4292 125.498 89.2432 105.606 108.056 85.7153L170.167 113.915C170.497 114.067 172.214 114.893 172.979 116.929C173.463 118.221 173.456 119.696 172.842 121.042L145.075 181.912C143.846 184.606 140.632 185.807 137.932 184.581Z" fill="#B8B8B8"/>
    <path d="M70.2554 119.094L57.5516 113.326C56.4283 112.816 55.9274 111.48 56.4388 110.359L60.5793 101.281C61.0907 100.161 62.4288 99.6608 63.5532 100.171L76.2558 105.939C77.3803 106.449 77.8812 107.784 77.3698 108.906L73.2294 117.982C72.7179 119.104 71.3798 119.604 70.2554 119.094Z" fill="#C5C5C5"/>
    <path d="M63.9756 116.241L63.7012 116.122L69.4716 102.863L69.7448 102.98L63.9756 116.241Z" fill="#707070"/>
    <path d="M76.1801 111.498L59.3359 104.012L59.4573 103.74L76.3027 111.225L76.1801 111.498ZM74.2699 115.779L57.3906 108.278L57.5121 108.006L74.3913 115.506L74.2699 115.779Z" fill="#707070"/>
    <path d="M257.547 270.601H103.281C94.9005 270.601 88.043 263.76 88.043 255.398V140.047C88.043 131.686 94.9005 124.844 103.281 124.844H257.547C265.928 124.844 272.784 131.686 272.784 140.047V255.398C272.784 263.76 265.928 270.601 257.547 270.601Z" fill="#FF6741"/>
    <path d="M88.0434 163.697C88.1508 158.673 88.1017 154.624 88.0434 151.959C87.8495 143.204 87.2984 137.994 89.9548 132.891C90.8725 131.128 91.8557 129.988 92.52 129.31C95.2523 126.519 98.4388 125.568 99.8002 125.247C100.92 124.984 102.085 124.844 103.281 124.844H257.547C229.573 125.366 205.775 127.25 187.326 129.217C145.416 133.687 130.351 138.668 117.929 144.6C104.656 150.937 94.6697 158.231 88.0434 163.697Z" fill="#FF593E"/>
    <path d="M130.702 131.254C130.683 131.099 130.671 130.942 130.671 130.783C130.671 130.64 130.68 130.499 130.695 130.359H116.397C116.412 130.499 116.419 130.64 116.419 130.783C116.419 130.942 116.408 131.099 116.389 131.254H130.702ZM152.43 131.254C152.379 130.999 152.351 130.737 152.351 130.47C152.351 130.433 152.355 130.397 152.357 130.359H139.019C139.033 130.499 139.041 130.64 139.041 130.783C139.041 130.942 139.029 131.099 139.011 131.254H152.43ZM174.351 131.254C174.349 131.202 174.343 131.149 174.343 131.097C174.343 130.845 174.371 130.599 174.417 130.359H160.713C160.716 130.397 160.72 130.433 160.72 130.47C160.72 130.737 160.691 130.999 160.64 131.254H174.351ZM182.704 131.254H193.588C193.538 130.999 193.508 130.737 193.508 130.47C193.508 130.433 193.513 130.397 193.514 130.359H182.641C182.686 130.599 182.713 130.845 182.713 131.097C182.713 131.149 182.707 131.202 182.704 131.254ZM214.253 131.254C214.251 131.202 214.244 131.149 214.244 131.097C214.244 130.845 214.272 130.599 214.318 130.359H201.872C201.873 130.397 201.878 130.433 201.878 130.47C201.878 130.737 201.849 130.999 201.797 131.254H214.253ZM222.606 131.254H235.556C235.45 130.967 235.373 130.669 235.333 130.359H222.543C222.587 130.599 222.614 130.845 222.614 131.097C222.614 131.149 222.608 131.202 222.606 131.254ZM255.734 130.359H243.627C243.587 130.669 243.509 130.967 243.401 131.254H255.17C255.32 130.934 255.508 130.632 255.734 130.359ZM266.357 141.619V143.479C266.644 143.371 266.944 143.296 267.254 143.256V141.619C267.254 138.127 265.652 135 263.142 132.934C263.142 132.948 263.145 132.963 263.145 132.977C263.145 133.33 263.092 133.672 263.005 134.002C265.064 135.899 266.357 138.61 266.357 141.619ZM267.254 161.725V151.536C266.944 151.497 266.644 151.422 266.357 151.316V161.87C266.646 161.789 266.946 161.74 267.254 161.725ZM266.815 180.208C266.963 180.208 267.109 180.217 267.254 180.234V170.055C266.946 170.041 266.646 169.992 266.357 169.912V180.236C266.507 180.22 266.66 180.208 266.815 180.208ZM267.129 199.956C267.171 199.956 267.212 199.961 267.254 199.963V188.534C267.109 188.549 266.963 188.558 266.815 188.558C266.66 188.558 266.507 188.548 266.357 188.531V200.034C266.608 199.985 266.866 199.956 267.129 199.956ZM267.129 219.39C267.171 219.39 267.212 219.396 267.254 219.397V208.3C267.212 208.301 267.171 208.306 267.129 208.306C266.866 208.306 266.608 208.278 266.357 208.229V219.468C266.608 219.419 266.866 219.39 267.129 219.39ZM267.129 239.137C267.171 239.137 267.212 239.143 267.254 239.144V227.734C267.212 227.735 267.171 227.74 267.129 227.74C266.866 227.74 266.608 227.712 266.357 227.663V239.215C266.608 239.166 266.866 239.137 267.129 239.137ZM266.131 258.715C266.85 257.234 267.254 255.574 267.254 253.821V247.482C267.212 247.483 267.171 247.487 267.129 247.487C266.866 247.487 266.608 247.459 266.357 247.411V253.821C266.357 255.377 266.01 256.853 265.391 258.179C265.657 258.33 265.904 258.511 266.131 258.715ZM211.925 264.186C211.927 264.229 211.932 264.271 211.932 264.315C211.932 264.575 211.903 264.832 211.854 265.081H221.794C221.808 264.775 221.856 264.475 221.937 264.186H211.925ZM193.37 264.186C193.386 264.332 193.395 264.479 193.395 264.628C193.395 264.78 193.385 264.932 193.367 265.081H203.64C203.591 264.832 203.563 264.575 203.563 264.315C203.563 264.271 203.568 264.229 203.569 264.186H193.37ZM175.411 264.186C175.458 264.432 175.486 264.684 175.486 264.941C175.486 264.989 175.48 265.034 175.479 265.081H185.052C185.036 264.932 185.026 264.78 185.026 264.628C185.026 264.479 185.035 264.332 185.051 264.186H175.411ZM138.073 264.186C138.089 264.332 138.099 264.479 138.099 264.628C138.099 264.78 138.088 264.932 138.071 265.081H148.607C148.59 264.932 148.58 264.78 148.58 264.628C148.58 264.479 148.59 264.332 148.605 264.186H138.073ZM119.222 264.186C119.238 264.332 119.247 264.479 119.247 264.628C119.247 264.78 119.237 264.932 119.219 265.081H129.756C129.74 264.932 129.729 264.78 129.729 264.628C129.729 264.479 129.738 264.332 129.755 264.186H119.222ZM108.05 130.783C108.05 130.64 108.058 130.499 108.073 130.359H104.859C101.583 130.359 98.6304 131.761 96.5661 133.992C96.8346 134.135 97.0868 134.305 97.318 134.501C99.2131 132.504 101.892 131.254 104.859 131.254H108.08C108.061 131.099 108.05 130.942 108.05 130.783ZM93.5723 141.706V238.034C93.8618 237.954 94.1619 237.906 94.469 237.893V141.845C94.1608 141.831 93.8618 141.785 93.5723 141.706ZM94.469 246.225C94.1608 246.212 93.8618 246.164 93.5723 246.085V253.821C93.5723 254.676 93.6715 255.508 93.8537 256.308C94.1164 256.157 94.3954 256.031 94.6874 255.939C94.5449 255.255 94.469 254.547 94.469 253.821V246.225ZM110.878 264.628C110.878 264.479 110.887 264.332 110.903 264.186H104.859C102.759 264.186 100.802 263.56 99.1664 262.487C98.9772 262.724 98.7647 262.945 98.5289 263.139C100.335 264.365 102.515 265.081 104.859 265.081H110.906C110.888 264.932 110.878 264.782 110.878 264.628ZM167.192 264.186H156.924C156.941 264.332 156.95 264.479 156.95 264.628C156.95 264.78 156.939 264.932 156.922 265.081H167.125C167.122 265.034 167.117 264.989 167.117 264.941C167.117 264.684 167.145 264.432 167.192 264.186ZM241.026 264.186H230.005C230.084 264.475 230.132 264.775 230.145 265.081H240.959C240.956 265.034 240.95 264.989 240.95 264.941C240.95 264.684 240.978 264.432 241.026 264.186ZM259.572 263.543C258.448 263.959 257.234 264.186 255.967 264.186H249.245C249.292 264.432 249.32 264.684 249.32 264.941C249.32 264.989 249.314 265.034 249.313 265.081H255.967C257.406 265.081 258.78 264.808 260.046 264.318C259.861 264.078 259.701 263.818 259.572 263.543Z" fill="#82433C"/>
    <path d="M129.3 181.595H125.669L88.0431 151.957C88.0174 182.457 87.9905 212.958 87.9648 243.459C100.533 234.594 113.1 225.728 125.669 216.863H129.3C134.342 216.863 138.444 212.771 138.444 207.739V190.718C138.444 185.688 134.342 181.595 129.3 181.595Z" fill="#CB4128"/>
    <path d="M129.298 215.37H97.7851C93.5769 215.37 90.1348 211.936 90.1348 207.737V190.716C90.1348 186.519 93.5769 183.084 97.7851 183.084H129.298C133.506 183.084 136.949 186.519 136.949 190.716V207.737C136.949 211.936 133.506 215.37 129.298 215.37Z" fill="#FF6741"/>
    <path d="M134.227 199.227C134.227 206.758 128.107 212.863 120.56 212.863C113.011 212.863 106.893 206.758 106.893 199.227C106.893 191.697 113.011 185.592 120.56 185.592C128.107 185.592 134.227 191.697 134.227 199.227Z" fill="#283437"/>
    <path d="M123.205 188.491C123.055 188.492 122.931 188.498 122.852 188.504C123.796 188.649 125.472 189.038 127.158 190.228C127.158 190.228 128.363 191.077 129.319 192.305C131.994 195.741 131.548 200.735 131.452 201.658C131.5 201.44 131.562 201.124 131.617 200.741C131.821 199.308 132.454 194.877 129.593 191.579C129.593 191.579 127.428 189.082 124.179 188.567C123.679 188.487 123.205 188.491 123.205 188.491Z" fill="#EAFC98"/>
    <path d="M247.366 57.7869C247.366 76.6456 232.042 91.9339 213.139 91.9339C194.236 91.9339 178.912 76.6456 178.912 57.7869C178.912 38.9282 194.236 23.6411 213.139 23.6411C232.042 23.6411 247.366 38.9282 247.366 57.7869Z" fill="#D0AF17"/>
    <path d="M244.796 53.6126C244.796 72.4713 229.472 87.7596 210.57 87.7596C191.668 87.7596 176.344 72.4713 176.344 53.6126C176.344 34.7539 191.668 19.4668 210.57 19.4668C229.472 19.4668 244.796 34.7539 244.796 53.6126Z" fill="#F3E61B"/>
    <path d="M215.106 30.8029C218.614 31.1011 221.811 32.245 221.811 32.245C224.173 33.0884 226.027 34.1368 227.343 34.9989C225.463 33.333 222.071 30.7854 217.197 29.4551C216.893 29.3724 215.114 28.8947 213.106 28.706C207.566 28.1876 198.116 29.6741 191.754 37.1551C186.916 42.8445 186.281 49.156 186.099 51.261C185.514 58.0221 187.728 63.1827 188.822 65.3657C187.841 63.1489 185.551 57.1636 187.146 49.7979C188.232 44.7794 190.615 41.4618 191.31 40.538C198.351 31.1733 210.367 30.3998 215.106 30.8029ZM233.751 60.769C232.456 63.8175 228.912 70.5589 221.212 74.2901C214.417 77.5821 208.051 76.755 204.36 76.2751C201.319 75.8802 198.831 75.1474 197.063 74.5161C207.418 79.9993 219.552 78.945 227.393 72.0663C235.022 65.3727 235.571 55.8111 235.642 53.7993C235.417 55.5176 234.928 57.9965 233.751 60.769Z" fill="#D1AC19"/>
    <path d="M268.282 121.475C268.282 133.948 258.147 144.058 245.647 144.058C233.145 144.058 223.01 133.948 223.01 121.475C223.01 109.003 233.145 98.8911 245.647 98.8911C258.147 98.8911 268.282 109.003 268.282 121.475Z" fill="#D0AF17"/>
    <path d="M266.583 118.713C266.583 131.185 256.449 141.297 243.947 141.297C231.446 141.297 221.311 131.185 221.311 118.713C221.311 106.24 231.446 96.1299 243.947 96.1299C256.449 96.1299 266.583 106.24 266.583 118.713Z" fill="#F3E61B"/>
    <path d="M246.948 103.637C249.268 103.834 251.382 104.59 251.382 104.59C252.943 105.148 254.171 105.841 255.04 106.412C253.798 105.31 251.554 103.625 248.33 102.746C248.129 102.69 246.953 102.375 245.625 102.25C241.961 101.908 235.711 102.891 231.503 107.838C228.304 111.601 227.884 115.775 227.763 117.167C227.376 121.639 228.84 125.052 229.564 126.496C228.915 125.029 227.401 121.07 228.456 116.2C229.174 112.88 230.75 110.686 231.209 110.075C235.866 103.882 243.812 103.371 246.948 103.637ZM259.278 123.456C258.422 125.471 256.078 129.931 250.985 132.398C246.491 134.575 242.282 134.029 239.84 133.711C237.83 133.45 236.183 132.965 235.014 132.547C241.864 136.173 249.888 135.477 255.074 130.927C260.12 126.5 260.483 120.177 260.529 118.846C260.381 119.982 260.057 121.622 259.278 123.456Z" fill="#D1AC19"/>
    <path d="M188.089 270.597H116.77C116.77 251.079 132.868 235.02 152.43 235.02C171.993 235.02 188.089 251.079 188.089 270.597Z" fill="#FF593E"/>
    <path d="M179.786 267.514C179.786 281.441 168.469 292.732 154.509 292.732C140.55 292.732 129.232 281.441 129.232 267.514C129.232 253.586 140.55 242.296 154.509 242.296C168.469 242.296 179.786 253.586 179.786 267.514Z" fill="#D0AF17"/>
    <path d="M177.89 264.434C177.89 278.361 166.573 289.651 152.613 289.651C138.653 289.651 127.336 278.361 127.336 264.434C127.336 250.506 138.653 239.216 152.613 239.216C166.573 239.216 177.89 250.506 177.89 264.434Z" fill="#F3E61B"/>
    <path d="M155.963 247.595C158.554 247.815 160.915 248.659 160.915 248.659C162.658 249.283 164.028 250.057 164.999 250.693C163.612 249.463 161.106 247.582 157.507 246.6C157.281 246.538 155.969 246.185 154.486 246.047C150.393 245.663 143.416 246.761 138.717 252.286C135.143 256.488 134.675 261.148 134.541 262.704C134.107 267.696 135.743 271.508 136.551 273.12C135.826 271.482 134.135 267.063 135.313 261.623C136.116 257.916 137.876 255.466 138.389 254.785C143.588 247.868 152.462 247.298 155.963 247.595ZM169.732 269.726C168.775 271.976 166.159 276.955 160.471 279.711C155.454 282.142 150.753 281.532 148.027 281.177C145.78 280.885 143.942 280.344 142.637 279.878C150.285 283.927 159.246 283.149 165.037 278.069C170.67 273.125 171.077 266.064 171.129 264.578C170.964 265.848 170.602 267.678 169.732 269.726Z" fill="#D1AC19"/>
    <path d="M43.8389 252.754C44.9493 251.132 46.3423 249.204 48.0237 247.087C50.3017 244.219 51.8138 242.316 54.0019 240.229C58.8382 235.612 61.0567 235.741 62.3715 232.475C62.5828 231.95 64.0435 228.172 62.0726 225.914C60.6049 224.232 57.7687 224.008 55.7954 224.721C53.0363 225.717 52.5249 228.337 50.8657 228.111C49.6852 227.95 48.6238 226.448 48.6297 225.11C48.639 223.025 51.2428 221.61 53.4041 220.248C53.4041 220.248 59.0601 216.681 64.165 211.301C69.3551 205.83 72.7739 196.516 69.5454 192.812C68.0403 191.086 65.1796 190.676 63.1608 191.179C60.5173 191.838 58.4097 194.756 54.3008 200.566C52.2271 203.498 51.4051 204.936 50.7139 204.741C49.3956 204.366 50.0215 198.472 50.1161 197.584C50.9988 189.261 53.7556 187.165 55.1976 180.883C57.2094 172.114 55.2081 161.505 50.7139 160.008C49.4867 159.599 48.3634 159.966 47.3733 160.304C37.9167 163.532 35.5861 181.24 34.5726 188.935C34.2877 191.094 34.1791 192.689 34.1394 194.097C33.9619 200.34 35.056 205.465 36.0671 208.916C33.2438 202.308 32.5713 196.865 32.4802 193.11C32.2583 183.939 35.3175 177.076 31.8999 174.488C30.1811 173.186 27.7373 173.656 27.3987 173.726C24.3465 174.355 22.6931 177.299 21.7193 179.094C20.5961 181.164 18.4908 185.929 19.328 194.005C20.3368 203.727 24.8637 211.049 27.9965 215.178C24.8521 209.932 21.543 206.263 19.0291 203.846C14.4426 199.437 12.613 199.296 11.5563 199.642C9.84919 200.203 9.14978 202.371 8.86605 203.25C6.22721 211.426 17.7237 230.984 20.2247 235.159C17.893 232.808 14.2266 230.017 9.46387 229.493C8.10008 229.342 5.61887 229.069 4.68127 230.387C3.57552 231.94 5.2032 234.877 6.47474 236.948C8.65588 240.499 13.1956 247.049 22.616 256.63C29.6907 255.337 36.7642 254.045 43.8389 252.754Z" fill="#FFBC95"/>
    <path d="M51.2081 252.667C51.1696 249.245 51.1299 245.823 51.0902 242.401C47.6667 240.788 43.2495 237.918 40.4087 232.92C38.3221 229.249 36.4247 223.268 38.3665 221.791C39.819 220.686 42.8969 222.503 43.5508 222.889C49.9447 226.663 50.7807 235.615 50.9337 237.934C51.1264 236.471 51.2781 234.307 50.9337 231.743C50.6266 229.461 50.0732 227.955 49.4707 226.122C48.0882 221.91 47.098 218.895 46.6917 215.836C46.0437 210.952 46.6859 204.567 49.048 203.925C49.5244 203.794 49.94 203.934 50.2074 204.027C53.8878 205.316 54.1143 214.059 54.154 215.601C54.3 221.256 52.9946 222.985 52.4072 230.956C52.1866 233.946 52.1714 236.391 52.1901 237.934C52.5871 235.373 53.6975 231.22 57.1385 228.217C57.5612 227.848 61.4669 224.5 63.4227 225.71C64.4198 226.326 64.4945 227.87 64.5226 228.452C64.8086 234.382 54.7192 240.952 52.4259 242.401C52.6431 244.367 53.0763 246.692 53.9182 249.219C54.3292 250.453 54.7869 251.577 55.2539 252.588C53.9053 252.615 52.5567 252.64 51.2081 252.667ZM287.642 250.447C287.682 247.025 287.721 243.603 287.76 240.182C291.185 238.569 295.602 235.698 298.443 230.699C300.528 227.03 302.426 221.049 300.485 219.572C299.031 218.467 295.955 220.283 295.301 220.669C288.906 224.442 288.07 233.396 287.918 235.715C287.724 234.252 287.572 232.088 287.918 229.524C288.224 227.241 288.779 225.736 289.38 223.903C290.764 219.691 291.752 216.676 292.159 213.616C292.807 208.733 292.165 202.348 289.803 201.705C289.326 201.575 288.912 201.715 288.643 201.808C284.963 203.097 284.736 211.838 284.697 213.382C284.551 219.037 285.856 220.766 286.444 228.735C286.665 231.727 286.679 234.172 286.66 235.715C286.263 233.154 285.153 229.001 281.712 225.998C281.289 225.628 277.385 222.28 275.429 223.49C274.432 224.107 274.357 225.651 274.329 226.233C274.043 232.162 284.133 238.732 286.425 240.182C286.209 242.148 285.775 244.473 284.932 246.999C284.521 248.233 284.065 249.356 283.598 250.369C284.945 250.395 286.294 250.421 287.642 250.447Z" fill="#FD5869"/>
    <path d="M246.015 291.504C246.019 291.727 246.053 292.214 245.809 292.753C245.634 293.137 245.383 293.482 245.141 293.761C244.021 293.566 242.362 293.203 240.443 292.478C237.379 291.322 235.713 290.72 235.577 289.598C235.574 289.569 235.518 289.029 235.852 288.609C236.558 287.722 238.451 288.082 241.15 288.624C241.847 288.764 242.418 288.903 242.8 289.001C242.905 288.047 243.011 287.094 243.117 286.141C244.04 286.134 244.963 286.127 245.885 286.121C245.964 288.577 245.996 290.474 246.015 291.504ZM228.838 292.742C228.842 292.966 228.876 293.453 228.632 293.991C228.457 294.376 228.206 294.722 227.964 295C226.844 294.805 225.185 294.441 223.266 293.716C220.202 292.562 218.536 291.958 218.4 290.837C218.397 290.808 218.341 290.267 218.675 289.848C219.381 288.961 221.274 289.32 223.973 289.863C224.67 290.003 225.241 290.141 225.623 290.239C225.728 289.286 225.834 288.332 225.94 287.379C226.863 287.372 227.786 287.366 228.708 287.359C228.787 289.815 228.819 291.713 228.838 292.742Z" fill="#2D1752"/>
    <path d="M242.315 234.288C242.949 235.739 243.872 238.134 244.449 241.197C245.817 248.474 243.776 251.817 243.925 260.187C244.029 266.059 245.155 270.559 245.731 272.882C246.865 277.451 248.345 281.101 251.308 288.397C252.195 290.584 252.963 292.39 253.507 293.649C252.216 292.362 249.672 290.172 245.809 288.868C242.813 287.857 240.182 287.771 238.505 287.85C238.008 286.465 237.322 284.388 236.698 281.816C235.851 278.313 235.879 277.024 234.97 270.609C233.85 262.691 233.133 260.302 232.692 258.698C232.306 257.289 231.632 255.231 230.415 252.821C228.765 246.578 227.115 240.335 225.467 234.092L242.315 234.288Z" fill="#2D1752"/>
    <path d="M244.003 276.015C245.811 278.623 248.582 282.54 251.308 288.396C252.311 290.55 253.035 292.382 253.508 293.648C252.216 292.36 249.672 290.17 245.811 288.867C242.813 287.856 240.183 287.769 238.505 287.849C238.008 286.464 237.322 284.387 236.698 281.814C235.851 278.312 235.877 277.023 234.97 270.608C234.462 267.013 234.117 264.178 233.111 260.254C232.943 259.601 232.795 259.061 232.693 258.697C237.548 266.512 241.308 272.126 244.003 276.015Z" fill="#3D2570"/>
    <path d="M220.519 233.932C220.42 234.293 219.78 236.648 219.681 237.015C218.97 239.629 218.356 241.895 218.32 242.03C217.213 246.136 218.684 254.293 219.367 258.59C220.384 264.99 221.445 271.894 220.99 279.775C220.753 283.885 220.165 287.198 219.734 289.256C221.343 289.139 223.316 289.151 225.529 289.521C230.257 290.31 233.738 292.34 235.751 293.759C234.013 287.491 233.11 282.026 232.615 277.763C232.066 273.035 231.897 268.725 231.987 264.702C232.067 261.11 232.127 258.974 232.773 256.109C233.79 251.594 235.127 250.298 236.176 246.836C237.025 244.033 237.666 239.872 236.487 234.19C231.164 234.105 225.842 234.019 220.519 233.932Z" fill="#2D1752"/>
    <path d="M219.681 237.02C219.602 237.001 219.059 239.294 218.32 242.035C217.213 246.141 218.684 254.298 219.367 258.595C220.384 264.995 221.445 271.9 220.99 279.78C220.753 283.89 220.165 287.203 219.734 289.261C221.343 289.144 223.316 289.157 225.529 289.526C230.257 290.316 233.738 292.345 235.751 293.764C235.22 289.004 234.269 283.599 232.615 277.768C229.386 266.391 224.614 257.402 220.44 250.942C219.878 249.654 219.204 247.749 218.948 245.378C218.457 240.826 219.784 237.043 219.681 237.02Z" fill="#3D2570"/>
    <path d="M218.712 236.346C219.018 237.708 219.259 238.783 219.302 240.225C219.358 242.112 219.046 243.67 218.752 244.731C219.429 243.362 219.758 242.215 219.93 241.478C220.669 238.31 220.493 234.225 220.709 232.736C220.717 232.685 220.767 232.344 220.827 231.876C220.887 231.402 220.93 231.012 220.956 230.757C220.673 230.724 220.298 230.65 219.89 230.469C219.12 230.125 218.657 229.591 218.438 229.292C218.071 230.116 217.705 230.938 217.338 231.762C218.023 233.577 218.445 235.152 218.712 236.346ZM222.247 186.206C222.039 186.834 221.777 187.727 221.573 188.819C221.126 191.215 220.39 195.156 222.247 196.55C222.494 196.736 223.718 197.575 226.489 196.55C226.567 197.339 226.706 199.209 226.331 200.756C226.205 201.28 226.026 201.74 225.599 202.009C225.236 202.239 224.836 202.24 224.604 202.219C225.176 202.719 226.239 203.493 227.745 203.786C231.24 204.466 233.935 201.938 234.238 201.643C233.542 201.739 233.12 201.577 232.877 201.435C232.059 200.956 231.968 199.938 231.306 196.628C231.007 195.137 231.058 195.503 230.94 194.852C230.191 190.733 230.64 189.623 230.101 188.531C229.514 187.336 227.72 186.11 222.247 186.206Z" fill="#FFBC95"/>
    <path d="M222.248 186.206C222.399 185.631 222.7 184.779 223.348 183.934C225.111 181.636 227.941 181.354 228.794 181.269C229.346 181.214 232.333 180.97 234.973 182.888C238.214 185.246 238.788 189.307 239.267 192.711C239.576 194.902 239.528 196.755 239.424 198.039C236.178 198.004 232.931 197.969 229.685 197.934L228.951 192.501C229.963 191.893 230.557 191.004 230.424 190.205C230.363 189.836 230.109 189.261 229.685 189.21C229.273 189.16 228.758 189.606 228.585 190.36C227.41 190.369 226.673 190.04 226.212 189.723C225.025 188.908 224.925 187.69 223.453 186.754C222.984 186.457 222.547 186.295 222.248 186.206Z" fill="#783A16"/>
    <path d="M224.604 202.228C223.302 202.282 221.366 202.509 219.201 203.352C215.171 204.924 212.892 207.64 211.957 208.784C207.378 214.384 207.53 221.08 207.637 222.968C209.477 224.835 211.378 226.895 213.293 229.159C214.772 230.908 216.131 232.627 217.377 234.291C217.979 232.699 218.581 231.105 219.184 229.512C217.731 227.862 216.279 226.203 214.825 224.535C214.05 223.646 213.277 222.759 212.507 221.871C212.561 220.855 212.885 217.019 215.963 214.27C217.095 213.259 218.275 212.685 219.184 212.35C219.964 214.92 220.703 218.147 221.03 221.911C221.445 226.714 221.054 230.835 220.519 233.939C227.784 234.057 235.049 234.175 242.316 234.291C240.846 229.477 240.545 225.538 240.548 222.811C240.554 217.138 241.873 213.515 241.216 206.394C241.024 204.321 240.728 202.633 240.509 201.536C238.419 201.575 236.328 201.614 234.238 201.653C233.848 202.044 232.2 203.603 229.552 203.77C226.876 203.936 225.032 202.566 224.604 202.228Z" fill="#B76BEC"/>
    <path d="M219.184 212.35C219.964 214.919 220.703 218.146 221.03 221.91C221.446 226.713 221.055 230.834 220.518 233.939C223.87 233.992 227.222 234.047 230.573 234.101C229.468 232.81 228.36 231.395 227.281 229.847C222.945 223.631 220.552 217.423 219.184 212.35Z" fill="#C676EF"/>
    <path d="M224.604 202.225C223.302 202.278 221.366 202.506 219.201 203.349C215.171 204.92 212.892 207.637 211.957 208.781C207.378 214.381 207.53 221.077 207.637 222.965C209.477 224.831 211.378 226.892 213.293 229.155C214.772 230.905 216.131 232.623 217.377 234.288C215.753 230.148 214.13 226.008 212.507 221.868C212.192 220.33 211.504 215.929 213.764 211.21C216.965 204.523 223.533 202.53 224.604 202.225Z" fill="#C676EF"/>
    <path d="M242.905 230.279C242.641 231.649 242.434 232.731 242.435 234.173C242.436 236.063 242.795 237.61 243.121 238.66C242.423 237.315 242.049 236.18 241.844 235.446C240.924 232.154 241.036 228.552 240.771 226.879C240.756 226.779 240.693 226.397 240.655 225.876C240.623 225.425 240.623 225.057 240.627 224.825C240.897 224.744 241.213 224.624 241.548 224.44C242.242 224.056 242.697 223.566 242.965 223.221C243.356 224.033 243.747 224.843 244.139 225.654C243.509 227.49 243.136 229.078 242.905 230.279Z" fill="#FFBC95"/>
    <path d="M240.504 201.536C242.105 202.158 244.873 203.498 247.259 206.276C251.634 211.374 251.399 217.442 251.304 218.894C248.788 220.799 245.862 223.661 243.842 227.788C243.536 228.412 243.27 229.028 243.036 229.633C242.731 227.786 242.426 225.941 242.121 224.096C242.902 222.922 243.95 221.584 245.339 220.265C245.966 219.669 246.587 219.15 247.18 218.698C247.163 218.319 246.91 214.07 243.646 212.311C242.698 211.8 241.756 211.638 241.014 211.606" fill="#C676EF"/>
    <path d="M243.723 208.898C248.928 211.557 250.797 217.021 251.342 218.89C250.744 219.327 250.111 219.832 249.462 220.412C248.681 221.111 248.011 221.801 247.439 222.447C247.55 220.92 247.404 219.646 247.218 218.694C246.878 216.949 246.277 213.705 243.683 212.307C242.737 211.797 241.793 211.635 241.052 211.602L240.861 207.842C241.776 208.063 242.744 208.399 243.723 208.898Z" fill="#B76BEC"/>
    <path d="M197.775 64.4873C196.872 64.2623 196.323 63.3482 196.549 62.4456C196.775 61.5431 197.69 60.9938 198.593 61.2188L199.136 61.3541C200.338 61.6539 201.557 60.9222 201.858 59.7199L206.115 42.7102C206.416 41.5079 205.685 40.2902 204.483 39.9904L203.94 39.8551C203.037 39.6301 202.488 38.716 202.714 37.8134C202.94 36.9109 203.855 36.3616 204.758 36.5866L214.128 38.9221C217.468 39.7547 219.827 41.131 221.203 43.051C222.611 44.9788 222.96 47.3638 222.248 50.2059C221.529 53.0797 220.09 55.0527 217.931 56.125C215.804 57.2051 213.07 57.3288 209.729 56.4962C208.126 56.0966 206.501 57.0721 206.099 58.6752L205.762 60.0216C205.374 61.573 206.317 63.1442 207.869 63.531L209.044 63.8238C209.947 64.0489 210.496 64.963 210.27 65.8655C210.044 66.7681 209.129 67.3174 208.226 67.0923L197.775 64.4873ZM202.515 49.6154C201.678 49.4066 201.169 48.5588 201.378 47.7216C201.588 46.8845 202.437 46.375 203.274 46.5837L206.189 47.3102C207.026 47.5189 207.535 48.3668 207.326 49.204C207.116 50.0411 206.267 50.5506 205.43 50.3419L202.515 49.6154ZM203.701 44.8784C202.863 44.6697 202.355 43.8218 202.564 42.9847C202.774 42.1475 203.622 41.638 204.46 41.8467L207.374 42.5733C208.212 42.782 208.721 43.6298 208.511 44.467C208.302 45.3042 207.453 45.8136 206.616 45.6049L203.701 44.8784ZM208.406 49.6594C208.017 51.2107 208.961 52.7819 210.512 53.1687C214.758 54.2269 217.339 52.9244 218.256 49.2612C219.173 45.5979 217.509 43.2372 213.263 42.1789C211.711 41.7922 210.138 42.7363 209.75 44.2876L208.406 49.6594ZM219.842 53.934C219.004 53.7253 218.495 52.8774 218.705 52.0402C218.914 51.2031 219.763 50.6936 220.6 50.9023L223.515 51.6288C224.353 51.8376 224.862 52.6854 224.652 53.5226C224.442 54.3597 223.594 54.8692 222.756 54.6605L219.842 53.934ZM221.027 49.197C220.19 48.9883 219.681 48.1404 219.89 47.3033C220.1 46.4661 220.949 45.9567 221.786 46.1654L224.701 46.8919C225.538 47.1006 226.047 47.9485 225.838 48.7856C225.628 49.6228 224.779 50.1322 223.942 49.9235L221.027 49.197Z" fill="#D1AC19"/>
    <path d="M242.063 127.451C241.57 127.582 241.063 127.289 240.932 126.796C240.8 126.303 241.093 125.797 241.587 125.666L241.899 125.583C242.564 125.406 242.96 124.723 242.782 124.058L240.311 114.798C240.134 114.133 239.45 113.737 238.785 113.914L238.473 113.997C237.98 114.128 237.473 113.835 237.342 113.342C237.21 112.849 237.503 112.343 237.996 112.212L243.193 110.831C245.041 110.339 246.557 110.371 247.741 110.924C248.942 111.473 249.749 112.524 250.164 114.076C250.583 115.646 250.41 116.976 249.646 118.065C248.9 119.15 247.603 119.938 245.754 120.43C244.867 120.665 244.34 121.576 244.576 122.463L244.762 123.157C244.991 124.016 245.873 124.527 246.731 124.299L247.393 124.123C247.886 123.992 248.393 124.285 248.524 124.778C248.656 125.271 248.363 125.777 247.869 125.908L242.063 127.451ZM240.392 119.056C239.934 119.178 239.465 118.906 239.343 118.448C239.221 117.991 239.493 117.522 239.95 117.4L241.584 116.966C242.042 116.844 242.511 117.117 242.633 117.574C242.756 118.031 242.484 118.5 242.026 118.622L240.392 119.056ZM239.701 116.469C239.244 116.59 238.774 116.318 238.652 115.861C238.53 115.404 238.802 114.935 239.26 114.813L240.894 114.379C241.351 114.257 241.821 114.529 241.943 114.987C242.065 115.444 241.793 115.913 241.336 116.035L239.701 116.469ZM243.276 117.484C243.505 118.343 244.386 118.854 245.245 118.625C247.594 118.001 248.502 116.688 247.968 114.688C247.434 112.687 245.993 111.998 243.643 112.623C242.785 112.851 242.274 113.732 242.503 114.59L243.276 117.484ZM249.979 116.508C249.522 116.63 249.052 116.358 248.93 115.901C248.808 115.443 249.08 114.974 249.537 114.852L251.172 114.418C251.629 114.297 252.099 114.569 252.221 115.026C252.343 115.483 252.071 115.952 251.614 116.074L249.979 116.508ZM249.289 113.921C248.831 114.043 248.362 113.77 248.24 113.313C248.118 112.856 248.389 112.387 248.847 112.265L250.481 111.831C250.939 111.709 251.408 111.981 251.53 112.439C251.652 112.896 251.381 113.365 250.923 113.487L249.289 113.921Z" fill="#D1AC19"/>
    <path d="M142.362 267.203C141.895 266.826 141.823 266.141 142.201 265.675C142.58 265.208 143.265 265.136 143.733 265.514L144.05 265.77C144.692 266.288 145.634 266.189 146.154 265.548L153.227 256.828C153.747 256.186 153.648 255.246 153.006 254.727L152.689 254.471C152.221 254.094 152.149 253.409 152.528 252.943C152.906 252.476 153.592 252.404 154.059 252.782L159.091 256.846C160.875 258.287 161.923 259.768 162.234 261.29C162.562 262.824 162.131 264.326 160.939 265.795C159.735 267.281 158.339 268.031 156.753 268.047C155.184 268.077 153.507 267.371 151.723 265.93C150.867 265.238 149.61 265.37 148.917 266.225L148.429 266.827C147.758 267.654 147.885 268.868 148.714 269.537L149.369 270.066C149.836 270.444 149.908 271.128 149.53 271.594C149.152 272.061 148.466 272.133 147.999 271.756L142.362 267.203ZM149.211 259.808C148.778 259.457 148.711 258.823 149.062 258.39C149.413 257.957 150.049 257.89 150.482 258.241L152.089 259.538C152.522 259.889 152.589 260.523 152.238 260.956C151.887 261.389 151.252 261.456 150.818 261.106L149.211 259.808ZM151.197 257.359C150.764 257.009 150.697 256.374 151.048 255.942C151.399 255.509 152.035 255.442 152.468 255.792L154.075 257.09C154.508 257.44 154.575 258.075 154.224 258.507C153.873 258.94 153.237 259.007 152.804 258.657L151.197 257.359ZM152.803 261.485C152.132 262.312 152.259 263.526 153.088 264.195C155.356 266.027 157.258 265.996 158.793 264.103C160.329 262.209 159.963 260.347 157.695 258.515C156.867 257.846 155.651 257.974 154.98 258.801L152.803 261.485ZM158.466 267.282C158.032 266.932 157.965 266.298 158.316 265.865C158.667 265.432 159.303 265.365 159.736 265.715L161.343 267.013C161.777 267.363 161.844 267.998 161.493 268.431C161.142 268.864 160.506 268.931 160.072 268.58L158.466 267.282ZM160.451 264.834C160.018 264.484 159.951 263.849 160.302 263.417C160.653 262.984 161.289 262.917 161.722 263.267L163.329 264.565C163.763 264.915 163.829 265.55 163.479 265.982C163.128 266.415 162.492 266.482 162.058 266.132L160.451 264.834Z" fill="#D1AC19"/>
    <path d="M151.489 186.414L79.2747 90.2763C77.2987 87.6461 77.8387 83.8807 80.4742 81.9097L140.044 37.3665C142.68 35.3955 146.454 35.9351 148.43 38.5653L220.644 134.702C222.621 137.334 222.081 141.099 219.444 143.07L159.874 187.613C157.238 189.584 153.465 189.044 151.489 186.414Z" fill="#E1005F"/>
    <path d="M151.486 186.418C130.428 158.383 109.368 130.348 88.3092 102.312C117.267 92.9375 146.225 83.5621 175.181 74.1871L220.641 134.706C220.883 135.029 222.114 136.747 221.772 139.138C221.554 140.655 220.759 142.088 219.441 143.074L159.871 187.617C157.236 189.588 153.462 189.048 151.486 186.418Z" fill="#FF007F"/>
    <path d="M120.519 86.6047L111.221 74.227C110.399 73.1323 110.624 71.5638 111.721 70.7439L120.605 64.1003C121.701 63.2803 123.272 63.5051 124.095 64.6005L133.393 76.9776C134.216 78.0729 133.991 79.6402 132.893 80.4613L124.011 87.1038C122.913 87.9249 121.342 87.7 120.519 86.6047Z" fill="white"/>
    <path d="M115.923 80.4838L115.719 80.2221L128.424 70.3716L128.628 70.6316L115.923 80.4838Z" fill="white"/>
    <path d="M130.35 82.3549L117.935 66.1003L118.199 65.8993L130.615 82.1545L130.35 82.3549ZM126.202 85.5103L113.761 69.2224L114.025 69.0214L126.466 85.3093L126.202 85.5103Z" fill="white"/>
    <path d="M165.951 162.858C165.951 167.358 162.295 171.007 157.785 171.007C153.274 171.007 149.617 167.358 149.617 162.858C149.617 158.358 153.274 154.711 157.785 154.711C162.295 154.711 165.951 158.358 165.951 162.858Z" fill="#E1005F"/>
    <ellipse cx="158.028" cy="162.342" rx="9.29577" ry="9.2767" fill="white"/>
    <defs>
        <linearGradient id="paint0_linear_91_6551" x1="142.294" y1="-25.4966" x2="195.644" y2="270.124" gradientUnits="userSpaceOnUse">
            <stop stop-color="#ABDDE2"/>
            <stop offset="0.25" stop-color="#ABDDE2"/>
            <stop offset="0.3125" stop-color="#ABDDE2"/>
            <stop offset="0.328125" stop-color="#ABDDE2"/>
            <stop offset="0.335938" stop-color="#ABDDE2"/>
            <stop offset="0.339844" stop-color="#ADDDE2"/>
            <stop offset="0.34375" stop-color="#AEDEE2"/>
            <stop offset="0.347656" stop-color="#AFDEE3"/>
            <stop offset="0.351562" stop-color="#B0DEE3"/>
            <stop offset="0.355469" stop-color="#B1DEE3"/>
            <stop offset="0.359375" stop-color="#B2DEE3"/>
            <stop offset="0.363281" stop-color="#B4DFE3"/>
            <stop offset="0.367188" stop-color="#B5DFE3"/>
            <stop offset="0.371094" stop-color="#B6DFE3"/>
            <stop offset="0.375" stop-color="#B7DFE4"/>
            <stop offset="0.378906" stop-color="#B8E0E4"/>
            <stop offset="0.382813" stop-color="#BAE0E4"/>
            <stop offset="0.386719" stop-color="#BBE0E4"/>
            <stop offset="0.390625" stop-color="#BCE0E4"/>
            <stop offset="0.394531" stop-color="#BDE1E4"/>
            <stop offset="0.398438" stop-color="#BEE1E5"/>
            <stop offset="0.402344" stop-color="#C0E1E5"/>
            <stop offset="0.40625" stop-color="#C1E1E5"/>
            <stop offset="0.410156" stop-color="#C2E1E5"/>
            <stop offset="0.414063" stop-color="#C3E2E5"/>
            <stop offset="0.417969" stop-color="#C4E2E5"/>
            <stop offset="0.421875" stop-color="#C6E2E6"/>
            <stop offset="0.425781" stop-color="#C7E2E6"/>
            <stop offset="0.429688" stop-color="#C8E3E6"/>
            <stop offset="0.433594" stop-color="#C9E3E6"/>
            <stop offset="0.4375" stop-color="#CBE3E6"/>
            <stop offset="0.441406" stop-color="#CCE3E6"/>
            <stop offset="0.445313" stop-color="#CDE4E7"/>
            <stop offset="0.449219" stop-color="#CEE4E7"/>
            <stop offset="0.453125" stop-color="#CFE4E7"/>
            <stop offset="0.457031" stop-color="#D1E4E7"/>
            <stop offset="0.460938" stop-color="#D2E5E7"/>
            <stop offset="0.464844" stop-color="#D3E5E7"/>
            <stop offset="0.46875" stop-color="#D4E5E8"/>
            <stop offset="0.472656" stop-color="#D6E5E8"/>
            <stop offset="0.476562" stop-color="#D7E6E8"/>
            <stop offset="0.480469" stop-color="#D8E6E8"/>
            <stop offset="0.484375" stop-color="#D9E6E8"/>
            <stop offset="0.488281" stop-color="#DBE6E8"/>
            <stop offset="0.492188" stop-color="#DCE6E9"/>
            <stop offset="0.496094" stop-color="#DDE7E9"/>
            <stop offset="0.5" stop-color="#DEE7E9"/>
            <stop offset="0.503906" stop-color="#E0E7E9"/>
            <stop offset="0.507813" stop-color="#E1E7E9"/>
            <stop offset="0.511719" stop-color="#E2E8E9"/>
            <stop offset="0.515625" stop-color="#E3E8EA"/>
            <stop offset="0.519531" stop-color="#E5E8EA"/>
            <stop offset="0.523438" stop-color="#E6E8EA"/>
            <stop offset="0.527344" stop-color="#E7E9EA"/>
            <stop offset="0.53125" stop-color="#E8E9EA"/>
            <stop offset="0.535156" stop-color="#E9E9EA"/>
            <stop offset="0.539062" stop-color="#EBE9EB"/>
            <stop offset="0.542969" stop-color="#ECEAEB"/>
            <stop offset="0.546875" stop-color="#EDEAEB"/>
            <stop offset="0.5625" stop-color="#EEEAEB"/>
            <stop offset="0.625" stop-color="#EEEAEB"/>
            <stop offset="0.75" stop-color="#EEEAEB"/>
            <stop offset="1" stop-color="#EEEAEB"/>
        </linearGradient>
    </defs>
</svg>
