<svg width="493" height="318" viewBox="0 0 493 318" fill="none" xmlns="http://www.w3.org/2000/svg">
    <path d="M479.416 280.482C479.416 290.146 407.085 297.98 317.859 297.98C228.632 297.98 156.301 290.146 156.301 280.482C156.301 270.818 228.632 262.984 317.859 262.984C407.085 262.984 479.416 270.818 479.416 280.482Z" fill="#ABDDE2"/>
    <mask id="mask0_91_6094" style="mask-type:luminance" maskUnits="userSpaceOnUse" x="138" y="0" width="355" height="243">
        <path d="M138 0H493V242.387H138V0Z" fill="white"/>
    </mask>
    <g mask="url(#mask0_91_6094)">
        <mask id="mask1_91_6094" style="mask-type:luminance" maskUnits="userSpaceOnUse" x="138" y="0" width="355" height="243">
            <path d="M158.545 38.7684C138.801 63.5541 138.416 92.2741 138.27 103.137C138.27 103.137 137.719 144.37 163.614 180.177C215.267 251.601 356.597 264.353 437.892 203.492C451.509 193.298 487.985 165.991 492.306 120.877C496.857 73.3677 464.163 22.6536 426.232 12.9204C399.87 6.15572 359.398 16.2117 346.129 19.5092C336.544 21.8901 335.481 22.7905 329.399 23.564C297.826 27.5798 282.62 8.92211 257.406 2.54423C251.25 0.987117 244.851 0.25 238.36 0.25C208.532 0.251256 176.835 15.8111 158.545 38.7684Z" fill="white"/>
        </mask>
        <g mask="url(#mask1_91_6094)">
            <path d="M485.477 -62.6406L91.4453 8.61608L149.097 327.239L543.129 255.983L485.477 -62.6406Z" fill="url(#paint0_linear_91_6094)"/>
        </g>
    </g>
    <path d="M448.367 270.52C446.547 268.992 445.629 266.802 443.865 262.483C442.103 258.167 442.465 257.837 440.971 254.446C438.721 249.339 437.693 249.619 436.791 246.41C436.525 245.462 434.952 239.869 437.756 235.48C439.682 232.466 441.512 233.402 443.222 230.658C445.546 226.93 442.814 224.156 444.187 217.478C444.481 216.051 445.154 212.933 447.402 209.762C451.128 204.511 456.789 202.48 458.978 201.726C461.92 200.714 461.767 201.339 463.802 200.44C469.632 197.863 469.305 193.418 473.77 191.76C477.367 190.427 481.66 191.795 484.381 194.01C484.909 194.44 488.21 197.206 488.562 201.404C488.852 204.869 487.105 208.966 485.668 212.334C485.184 213.471 484.575 214.76 484.703 216.513C484.861 218.683 486.039 220.082 486.632 221.014C488.802 224.429 487.782 228.934 486.954 232.587C485.244 240.137 478.076 243.476 471.519 249.303C466.622 253.657 460.415 260.863 455.763 273.092C451.737 272.943 449.46 271.438 448.367 270.52Z" fill="#FFBC95"/>
    <path d="M286.383 198.968L180.243 150.676C177.339 149.355 176.044 145.898 177.366 142.995L207.237 77.3792C208.558 74.4759 212.016 73.1813 214.92 74.5023L321.059 122.793C323.965 124.115 325.26 127.572 323.937 130.475L294.066 196.091C292.745 198.995 289.287 200.289 286.383 198.968Z" fill="#A5A5A5"/>
    <path d="M286.382 198.973C255.43 184.89 224.478 170.808 193.525 156.725C213.765 135.283 234.004 113.84 254.242 92.3984L321.058 122.797C321.414 122.961 323.26 123.851 324.083 126.046C324.604 127.438 324.597 129.028 323.936 130.48L294.065 196.096C292.744 198.999 289.286 200.294 286.382 198.973Z" fill="#B8B8B8"/>
    <path d="M213.579 128.379L199.913 122.162C198.704 121.612 198.166 120.172 198.716 118.964L203.17 109.178C203.72 107.97 205.159 107.431 206.369 107.981L220.034 114.198C221.244 114.748 221.783 116.188 221.232 117.397L216.778 127.182C216.228 128.391 214.789 128.93 213.579 128.379Z" fill="#C5C5C5"/>
    <path d="M206.823 125.304L206.527 125.176L212.735 110.883L213.029 111.01L206.823 125.304Z" fill="#707070"/>
    <path d="M219.951 120.191L201.831 112.122L201.962 111.828L220.083 119.897L219.951 120.191ZM217.896 124.806L199.738 116.72L199.869 116.427L218.027 124.512L217.896 124.806Z" fill="#707070"/>
    <path d="M415.056 291.699H249.103C240.088 291.699 232.711 284.325 232.711 275.311V150.967C232.711 141.953 240.088 134.578 249.103 134.578H415.056C424.072 134.578 431.448 141.953 431.448 150.967V275.311C431.448 284.325 424.072 291.699 415.056 291.699Z" fill="#FF6741"/>
    <path d="M232.713 176.461C232.829 171.045 232.776 166.68 232.713 163.807C232.505 154.37 231.912 148.753 234.77 143.253C235.757 141.352 236.815 140.123 237.529 139.393C240.468 136.384 243.896 135.358 245.361 135.013C246.566 134.729 247.819 134.578 249.105 134.578H415.058C384.965 135.141 359.365 137.171 339.517 139.292C294.432 144.11 278.226 149.48 264.863 155.874C250.585 162.705 239.842 170.568 232.713 176.461Z" fill="#FF593E"/>
    <path d="M278.602 141.488C278.582 141.321 278.57 141.151 278.57 140.981C278.57 140.826 278.579 140.674 278.595 140.523H263.214C263.23 140.674 263.238 140.826 263.238 140.981C263.238 141.151 263.225 141.321 263.205 141.488H278.602ZM301.977 141.488C301.922 141.213 301.892 140.93 301.892 140.643C301.892 140.603 301.897 140.564 301.898 140.523H287.55C287.565 140.674 287.573 140.826 287.573 140.981C287.573 141.151 287.561 141.321 287.541 141.488H301.977ZM325.559 141.488C325.556 141.431 325.55 141.375 325.55 141.318C325.55 141.047 325.58 140.782 325.629 140.523H310.888C310.89 140.564 310.895 140.603 310.895 140.643C310.895 140.93 310.864 141.213 310.808 141.488H325.559ZM334.545 141.488H346.253C346.199 141.213 346.167 140.93 346.167 140.643C346.167 140.603 346.172 140.564 346.174 140.523H334.477C334.525 140.782 334.554 141.047 334.554 141.318C334.554 141.375 334.547 141.431 334.545 141.488ZM368.483 141.488C368.482 141.431 368.474 141.375 368.474 141.318C368.474 141.047 368.504 140.782 368.553 140.523H355.165C355.166 140.564 355.171 140.603 355.171 140.643C355.171 140.93 355.14 141.213 355.084 141.488H368.483ZM377.469 141.488H391.4C391.286 141.179 391.203 140.857 391.16 140.523H377.401C377.449 140.782 377.478 141.047 377.478 141.318C377.478 141.375 377.471 141.431 377.469 141.488ZM413.107 140.523H400.082C400.04 140.857 399.955 141.179 399.84 141.488H412.5C412.662 141.143 412.864 140.817 413.107 140.523ZM424.534 152.661V154.666C424.843 154.55 425.166 154.468 425.499 154.426V152.661C425.499 148.897 423.776 145.526 421.076 143.299C421.076 143.314 421.079 143.33 421.079 143.345C421.079 143.726 421.022 144.095 420.928 144.45C423.144 146.494 424.534 149.418 424.534 152.661ZM425.499 174.334V163.351C425.166 163.309 424.843 163.228 424.534 163.114V174.491C424.846 174.403 425.169 174.35 425.499 174.334ZM425.027 194.259C425.186 194.259 425.343 194.269 425.499 194.286V183.314C425.169 183.299 424.846 183.246 424.534 183.159V194.289C424.697 194.271 424.861 194.259 425.027 194.259ZM425.365 215.546C425.41 215.546 425.454 215.552 425.499 215.554V203.234C425.343 203.25 425.186 203.26 425.027 203.26C424.861 203.26 424.697 203.249 424.534 203.231V215.63C424.805 215.577 425.082 215.546 425.365 215.546ZM425.365 236.496C425.41 236.496 425.454 236.502 425.499 236.503V224.541C425.454 224.542 425.41 224.547 425.365 224.547C425.082 224.547 424.805 224.517 424.534 224.464V236.58C424.805 236.527 425.082 236.496 425.365 236.496ZM425.365 257.783C425.41 257.783 425.454 257.789 425.499 257.79V245.49C425.454 245.492 425.41 245.497 425.365 245.497C425.082 245.497 424.805 245.466 424.534 245.414V257.867C424.805 257.814 425.082 257.783 425.365 257.783ZM424.292 278.887C425.065 277.291 425.499 275.501 425.499 273.611V266.778C425.454 266.779 425.41 266.784 425.365 266.784C425.082 266.784 424.805 266.754 424.534 266.701V273.611C424.534 275.289 424.161 276.88 423.496 278.309C423.782 278.472 424.047 278.667 424.292 278.887ZM365.98 284.785C365.981 284.831 365.987 284.876 365.987 284.923C365.987 285.204 365.956 285.48 365.903 285.749H376.596C376.611 285.419 376.663 285.096 376.749 284.785H365.98ZM346.018 284.785C346.035 284.942 346.045 285.1 346.045 285.261C346.045 285.425 346.034 285.588 346.015 285.749H357.066C357.014 285.48 356.983 285.204 356.983 284.923C356.983 284.876 356.988 284.831 356.99 284.785H346.018ZM326.699 284.785C326.749 285.05 326.78 285.321 326.78 285.599C326.78 285.65 326.773 285.699 326.772 285.749H337.071C337.053 285.588 337.042 285.425 337.042 285.261C337.042 285.1 337.052 284.942 337.069 284.785H326.699ZM286.532 284.785C286.55 284.942 286.56 285.1 286.56 285.261C286.56 285.425 286.548 285.588 286.53 285.749H297.865C297.846 285.588 297.836 285.425 297.836 285.261C297.836 285.1 297.846 284.942 297.862 284.785H286.532ZM266.253 284.785C266.27 284.942 266.28 285.1 266.28 285.261C266.28 285.425 266.269 285.588 266.25 285.749H277.585C277.567 285.588 277.556 285.425 277.556 285.261C277.556 285.1 277.566 284.942 277.584 284.785H266.253ZM254.234 140.981C254.234 140.826 254.243 140.674 254.259 140.523H250.801C247.278 140.523 244.102 142.034 241.881 144.439C242.17 144.593 242.441 144.777 242.69 144.988C244.728 142.835 247.61 141.488 250.801 141.488H254.267C254.247 141.321 254.234 141.151 254.234 140.981ZM238.66 152.754V256.594C238.972 256.507 239.294 256.455 239.625 256.442V152.905C239.293 152.89 238.972 152.84 238.66 152.754ZM239.625 265.423C239.293 265.409 238.972 265.357 238.66 265.272V273.611C238.66 274.533 238.767 275.43 238.963 276.292C239.245 276.129 239.546 275.993 239.86 275.894C239.706 275.157 239.625 274.394 239.625 273.611V265.423ZM257.277 285.261C257.277 285.1 257.287 284.942 257.304 284.785H250.801C248.543 284.785 246.438 284.109 244.678 282.953C244.475 283.209 244.246 283.446 243.992 283.656C245.935 284.977 248.281 285.749 250.801 285.749H257.307C257.288 285.588 257.277 285.426 257.277 285.261ZM317.858 284.785H306.812C306.829 284.942 306.839 285.1 306.839 285.261C306.839 285.425 306.828 285.588 306.809 285.749H317.785C317.782 285.699 317.776 285.65 317.776 285.599C317.776 285.321 317.806 285.05 317.858 284.785ZM397.285 284.785H385.429C385.514 285.096 385.566 285.419 385.579 285.749H397.212C397.21 285.699 397.203 285.65 397.203 285.599C397.203 285.321 397.233 285.05 397.285 284.785ZM417.235 284.092C416.027 284.54 414.721 284.785 413.358 284.785H406.127C406.177 285.05 406.207 285.321 406.207 285.599C406.207 285.65 406.201 285.699 406.199 285.749H413.358C414.905 285.749 416.384 285.455 417.745 284.927C417.547 284.668 417.375 284.388 417.235 284.092Z" fill="#82433C"/>
    <path d="M277.096 195.754H273.189L232.713 163.805C232.685 196.684 232.657 229.563 232.629 262.441C246.149 252.885 259.669 243.328 273.189 233.772H277.096C282.519 233.772 286.932 229.36 286.932 223.937V205.588C286.932 200.166 282.519 195.754 277.096 195.754Z" fill="#CB4128"/>
    <path d="M277.093 232.162H243.193C238.666 232.162 234.963 228.46 234.963 223.935V205.586C234.963 201.061 238.666 197.359 243.193 197.359H277.093C281.62 197.359 285.323 201.061 285.323 205.586V223.935C285.323 228.46 281.62 232.162 277.093 232.162Z" fill="#FF6741"/>
    <path d="M282.397 214.761C282.397 222.879 275.814 229.459 267.695 229.459C259.574 229.459 252.992 222.879 252.992 214.761C252.992 206.644 259.574 200.062 267.695 200.062C275.814 200.062 282.397 206.644 282.397 214.761Z" fill="#283437"/>
    <path d="M270.541 203.188C270.379 203.189 270.246 203.195 270.16 203.201C271.176 203.358 272.979 203.778 274.793 205.06C274.793 205.06 276.089 205.975 277.118 207.299C279.995 211.003 279.515 216.387 279.412 217.381C279.464 217.146 279.531 216.806 279.59 216.393C279.809 214.848 280.49 210.071 277.413 206.516C277.413 206.516 275.083 203.824 271.588 203.269C271.051 203.184 270.541 203.188 270.541 203.188Z" fill="#EAFC98"/>
    <path d="M404.106 62.2925C404.106 82.6216 387.621 99.1019 367.286 99.1019C346.952 99.1019 330.467 82.6216 330.467 62.2925C330.467 41.9634 346.952 25.4844 367.286 25.4844C387.621 25.4844 404.106 41.9634 404.106 62.2925Z" fill="#D0AF17"/>
    <path d="M401.341 57.7925C401.341 78.1216 384.856 94.6019 364.523 94.6019C344.188 94.6019 327.703 78.1216 327.703 57.7925C327.703 37.4634 344.188 20.9844 364.523 20.9844C384.856 20.9844 401.341 37.4634 401.341 57.7925Z" fill="#F3E61B"/>
    <path d="M369.403 33.2046C373.176 33.5261 376.615 34.7592 376.615 34.7592C379.156 35.6683 381.151 36.7985 382.567 37.7277C380.544 35.932 376.895 33.1857 371.652 31.7517C371.325 31.6625 369.412 31.1477 367.251 30.9443C361.291 30.3855 351.125 31.9878 344.281 40.0521C339.077 46.1851 338.394 52.9887 338.198 55.2578C337.569 62.5461 339.95 68.109 341.127 70.4623C340.072 68.0726 337.609 61.6206 339.325 53.6806C340.493 48.2709 343.056 44.6946 343.804 43.6988C351.378 33.6039 364.304 32.7701 369.403 33.2046ZM389.46 65.5071C388.067 68.7934 384.255 76.0603 375.971 80.0824C368.662 83.6311 361.813 82.7396 357.843 82.2222C354.571 81.7965 351.894 81.0067 349.992 80.3261C361.133 86.2368 374.186 85.1004 382.621 77.6852C390.828 70.4698 391.418 60.1627 391.495 57.9941C391.252 59.8463 390.726 62.5185 389.46 65.5071Z" fill="#D1AC19"/>
    <path d="M426.608 130.947C426.608 144.392 415.706 155.29 402.258 155.29C388.809 155.29 377.906 144.392 377.906 130.947C377.906 117.501 388.809 106.602 402.258 106.602C415.706 106.602 426.608 117.501 426.608 130.947Z" fill="#D0AF17"/>
    <path d="M424.78 127.969C424.78 141.414 413.879 152.314 400.43 152.314C386.981 152.314 376.078 141.414 376.078 127.969C376.078 114.524 386.981 103.625 400.43 103.625C413.879 103.625 424.78 114.524 424.78 127.969Z" fill="#F3E61B"/>
    <path d="M403.656 111.718C406.152 111.93 408.426 112.745 408.426 112.745C410.106 113.347 411.426 114.094 412.362 114.709C411.025 113.521 408.611 111.704 405.143 110.758C404.927 110.697 403.662 110.357 402.233 110.223C398.291 109.853 391.568 110.913 387.042 116.246C383.6 120.302 383.148 124.802 383.018 126.302C382.601 131.123 384.176 134.802 384.955 136.359C384.257 134.777 382.629 130.51 383.763 125.26C384.536 121.681 386.231 119.317 386.725 118.657C391.734 111.982 400.283 111.431 403.656 111.718ZM416.92 133.082C415.999 135.254 413.478 140.061 407.999 142.721C403.165 145.068 398.636 144.479 396.01 144.136C393.847 143.855 392.076 143.333 390.819 142.882C398.187 146.791 406.819 146.04 412.398 141.135C417.826 136.363 418.216 129.547 418.267 128.113C418.107 129.337 417.758 131.105 416.92 133.082Z" fill="#D1AC19"/>
    <path d="M340.34 291.695H263.617C263.617 270.655 280.935 253.344 301.979 253.344C323.024 253.344 340.34 270.655 340.34 291.695Z" fill="#FF593E"/>
    <path d="M331.407 288.372C331.407 303.385 319.233 315.556 304.215 315.556C289.199 315.556 277.023 303.385 277.023 288.372C277.023 273.358 289.199 261.188 304.215 261.188C319.233 261.188 331.407 273.358 331.407 288.372Z" fill="#D0AF17"/>
    <path d="M329.368 285.051C329.368 300.065 317.194 312.236 302.176 312.236C287.158 312.236 274.984 300.065 274.984 285.051C274.984 270.038 287.158 257.867 302.176 257.867C317.194 257.867 329.368 270.038 329.368 285.051Z" fill="#F3E61B"/>
    <path d="M305.779 266.9C308.566 267.137 311.106 268.047 311.106 268.047C312.981 268.719 314.455 269.554 315.5 270.24C314.007 268.914 311.312 266.886 307.439 265.827C307.197 265.761 305.785 265.38 304.19 265.231C299.787 264.817 292.281 266 287.226 271.956C283.382 276.486 282.878 281.51 282.733 283.186C282.267 288.568 284.027 292.677 284.896 294.415C284.116 292.65 282.298 287.885 283.565 282.021C284.428 278.025 286.322 275.385 286.874 274.65C292.467 267.195 302.013 266.579 305.779 266.9ZM320.591 290.756C319.562 293.182 316.747 298.549 310.629 301.52C305.231 304.141 300.174 303.483 297.241 303.1C294.825 302.786 292.847 302.202 291.443 301.7C299.671 306.065 309.311 305.226 315.54 299.75C321.601 294.42 322.038 286.809 322.094 285.207C321.916 286.576 321.526 288.548 320.591 290.756Z" fill="#D1AC19"/>
    <path d="M185.159 272.46C186.354 270.712 187.852 268.634 189.661 266.352C192.112 263.261 193.738 261.209 196.092 258.959C201.295 253.982 203.682 254.122 205.096 250.601C205.323 250.034 206.895 245.962 204.774 243.528C203.195 241.715 200.144 241.474 198.022 242.242C195.054 243.316 194.503 246.14 192.718 245.897C191.449 245.723 190.307 244.103 190.313 242.662C190.323 240.414 193.124 238.888 195.449 237.42C195.449 237.42 201.534 233.575 207.025 227.776C212.609 221.878 216.286 211.839 212.813 207.845C211.194 205.984 208.117 205.542 205.945 206.085C203.101 206.795 200.834 209.941 196.414 216.203C194.183 219.364 193.299 220.915 192.555 220.704C191.137 220.3 191.81 213.947 191.912 212.989C192.862 204.018 195.827 201.757 197.379 194.987C199.543 185.533 197.39 174.097 192.555 172.484C191.235 172.043 190.027 172.439 188.961 172.803C178.788 176.282 176.281 195.371 175.191 203.666C174.885 205.993 174.768 207.712 174.725 209.23C174.534 215.96 175.711 221.485 176.799 225.205C173.762 218.082 173.038 212.214 172.94 208.167C172.701 198.28 175.992 190.883 172.316 188.093C170.467 186.689 167.838 187.196 167.474 187.271C164.19 187.949 162.412 191.123 161.364 193.058C160.156 195.289 157.891 200.425 158.792 209.131C159.877 219.612 164.747 227.504 168.117 231.955C164.734 226.3 161.174 222.345 158.47 219.74C153.536 214.987 151.568 214.835 150.431 215.208C148.595 215.813 147.842 218.15 147.537 219.097C144.698 227.911 157.066 248.993 159.756 253.494C157.248 250.96 153.304 247.951 148.18 247.386C146.713 247.224 144.044 246.929 143.035 248.35C141.846 250.024 143.597 253.19 144.965 255.423C147.311 259.25 152.195 266.311 162.329 276.639C169.939 275.246 177.549 273.853 185.159 272.46Z" fill="#FFBC95"/>
    <path d="M193.088 272.367C193.047 268.678 193.004 264.99 192.961 261.301C189.278 259.563 184.527 256.468 181.47 251.08C179.226 247.123 177.185 240.676 179.274 239.084C180.836 237.892 184.147 239.851 184.851 240.267C191.729 244.336 192.628 253.986 192.793 256.486C193 254.909 193.163 252.576 192.793 249.812C192.462 247.352 191.867 245.728 191.219 243.753C189.732 239.212 188.667 235.962 188.229 232.665C187.532 227.399 188.223 220.517 190.764 219.825C191.277 219.684 191.724 219.835 192.012 219.935C195.971 221.324 196.214 230.748 196.257 232.411C196.414 238.508 195.01 240.371 194.378 248.963C194.141 252.186 194.124 254.822 194.144 256.486C194.571 253.725 195.766 249.248 199.468 246.011C199.922 245.613 204.124 242.004 206.228 243.308C207.301 243.973 207.381 245.636 207.411 246.264C207.719 252.656 196.865 259.738 194.398 261.301C194.632 263.42 195.098 265.927 196.003 268.65C196.446 269.98 196.938 271.192 197.44 272.282C195.99 272.311 194.539 272.338 193.088 272.367ZM447.434 269.974C447.477 266.286 447.518 262.596 447.561 258.908C451.245 257.17 455.997 254.075 459.053 248.687C461.296 244.731 463.337 238.284 461.25 236.692C459.686 235.5 456.376 237.458 455.673 237.875C448.793 241.942 447.894 251.594 447.73 254.094C447.522 252.517 447.359 250.183 447.73 247.42C448.06 244.958 448.656 243.336 449.303 241.361C450.792 236.82 451.855 233.57 452.293 230.271C452.99 225.007 452.299 218.125 449.758 217.431C449.245 217.292 448.799 217.443 448.51 217.543C444.551 218.932 444.308 228.355 444.265 230.019C444.108 236.115 445.512 237.979 446.145 246.569C446.383 249.794 446.398 252.43 446.378 254.094C445.951 251.332 444.756 246.856 441.054 243.618C440.6 243.22 436.399 239.611 434.295 240.915C433.223 241.58 433.142 243.244 433.112 243.872C432.804 250.264 443.658 257.346 446.124 258.908C445.892 261.028 445.426 263.534 444.519 266.257C444.077 267.588 443.585 268.798 443.083 269.89C444.532 269.919 445.983 269.946 447.434 269.974Z" fill="#FD5869"/>
    <path d="M402.65 314.232C402.655 314.472 402.691 314.997 402.429 315.579C402.24 315.993 401.97 316.365 401.71 316.665C400.506 316.455 398.721 316.063 396.656 315.282C393.36 314.037 391.568 313.387 391.422 312.178C391.418 312.147 391.358 311.564 391.717 311.112C392.477 310.155 394.513 310.543 397.417 311.128C398.167 311.279 398.781 311.428 399.192 311.534C399.305 310.505 399.419 309.478 399.532 308.451C400.526 308.444 401.518 308.436 402.511 308.43C402.596 311.077 402.63 313.122 402.65 314.232ZM384.172 315.567C384.177 315.808 384.213 316.333 383.951 316.913C383.762 317.328 383.492 317.701 383.232 318.001C382.028 317.791 380.243 317.398 378.178 316.617C374.882 315.373 373.089 314.722 372.944 313.513C372.94 313.482 372.879 312.899 373.239 312.447C373.999 311.491 376.035 311.878 378.939 312.463C379.689 312.614 380.303 312.763 380.714 312.869C380.827 311.842 380.941 310.813 381.054 309.786C382.048 309.778 383.04 309.772 384.032 309.765C384.118 312.412 384.152 314.457 384.172 315.567Z" fill="#2D1752"/>
    <path d="M398.671 252.555C399.353 254.119 400.347 256.701 400.967 260.002C402.439 267.847 400.244 271.451 400.403 280.473C400.515 286.804 401.727 291.655 402.346 294.158C403.566 299.083 405.159 303.018 408.345 310.884C409.3 313.241 410.126 315.187 410.712 316.544C409.323 315.157 406.586 312.796 402.43 311.391C399.207 310.301 396.377 310.208 394.572 310.293C394.038 308.8 393.3 306.561 392.629 303.789C391.717 300.013 391.747 298.624 390.77 291.709C389.566 283.173 388.794 280.598 388.32 278.869C387.904 277.349 387.179 275.132 385.87 272.533C384.095 265.804 382.32 259.073 380.547 252.344L398.671 252.555Z" fill="#2D1752"/>
    <path d="M400.489 297.536C402.433 300.347 405.415 304.57 408.347 310.882C409.426 313.204 410.205 315.179 410.713 316.543C409.324 315.155 406.587 312.795 402.433 311.389C399.209 310.3 396.379 310.207 394.574 310.292C394.04 308.799 393.301 306.56 392.631 303.787C391.719 300.011 391.748 298.622 390.772 291.707C390.225 287.832 389.853 284.775 388.772 280.546C388.591 279.842 388.432 279.26 388.322 278.867C393.545 287.292 397.59 293.343 400.489 297.536Z" fill="#3D2570"/>
    <path d="M375.226 252.172C375.119 252.561 374.431 255.099 374.324 255.495C373.559 258.312 372.899 260.755 372.86 260.9C371.669 265.327 373.252 274.12 373.986 278.752C375.08 285.651 376.222 293.094 375.732 301.589C375.477 306.019 374.844 309.59 374.381 311.809C376.112 311.682 378.234 311.696 380.615 312.094C385.702 312.946 389.446 315.133 391.612 316.663C389.741 309.907 388.771 304.015 388.238 299.42C387.648 294.323 387.465 289.677 387.562 285.341C387.649 281.468 387.713 279.166 388.408 276.077C389.502 271.21 390.94 269.814 392.069 266.082C392.982 263.06 393.672 258.575 392.403 252.449C386.677 252.358 380.951 252.265 375.226 252.172Z" fill="#2D1752"/>
    <path d="M374.324 255.5C374.239 255.48 373.655 257.951 372.86 260.906C371.669 265.333 373.252 274.125 373.986 278.758C375.08 285.657 376.222 293.099 375.732 301.594C375.477 306.025 374.844 309.596 374.381 311.815C376.112 311.688 378.234 311.702 380.615 312.1C385.702 312.951 389.446 315.139 391.612 316.668C391.04 311.537 390.018 305.711 388.238 299.426C384.765 287.161 379.631 277.472 375.141 270.507C374.537 269.12 373.811 267.065 373.535 264.51C373.008 259.603 374.435 255.525 374.324 255.5Z" fill="#3D2570"/>
    <path d="M373.281 254.774C373.61 256.242 373.869 257.401 373.915 258.955C373.976 260.99 373.64 262.669 373.324 263.813C374.052 262.337 374.407 261.1 374.591 260.307C375.386 256.891 375.197 252.487 375.429 250.882C375.438 250.827 375.492 250.46 375.556 249.956C375.621 249.444 375.666 249.024 375.695 248.749C375.39 248.714 374.987 248.633 374.549 248.439C373.72 248.068 373.222 247.492 372.986 247.17C372.592 248.058 372.197 248.945 371.803 249.832C372.54 251.789 372.994 253.487 373.281 254.774ZM377.083 200.724C376.86 201.401 376.578 202.364 376.359 203.541C375.877 206.124 375.086 210.372 377.083 211.875C377.35 212.075 378.666 212.98 381.647 211.875C381.731 212.725 381.88 214.741 381.477 216.409C381.341 216.974 381.149 217.47 380.69 217.76C380.299 218.007 379.869 218.008 379.619 217.986C380.235 218.524 381.378 219.36 382.998 219.675C386.758 220.408 389.657 217.683 389.983 217.365C389.235 217.468 388.78 217.294 388.519 217.141C387.639 216.625 387.541 215.527 386.829 211.959C386.508 210.352 386.562 210.746 386.435 210.044C385.63 205.604 386.112 204.407 385.533 203.231C384.901 201.942 382.972 200.621 377.083 200.724Z" fill="#FFBC95"/>
    <path d="M377.084 200.724C377.246 200.105 377.57 199.186 378.267 198.276C380.164 195.798 383.209 195.494 384.126 195.402C384.72 195.343 387.933 195.08 390.773 197.148C394.26 199.689 394.876 204.067 395.393 207.736C395.724 210.098 395.673 212.096 395.561 213.48C392.069 213.442 388.576 213.405 385.084 213.367L384.295 207.51C385.383 206.855 386.022 205.897 385.879 205.035C385.814 204.637 385.54 204.018 385.084 203.963C384.641 203.909 384.087 204.39 383.901 205.202C382.637 205.212 381.845 204.857 381.348 204.515C380.071 203.638 379.964 202.324 378.38 201.316C377.875 200.995 377.406 200.821 377.084 200.724Z" fill="#783A16"/>
    <path d="M379.618 217.996C378.218 218.054 376.135 218.299 373.806 219.208C369.47 220.902 367.02 223.83 366.014 225.063C361.087 231.1 361.251 238.317 361.366 240.353C363.346 242.365 365.391 244.586 367.451 247.026C369.042 248.912 370.504 250.764 371.844 252.559C372.491 250.842 373.14 249.124 373.788 247.406C372.225 245.628 370.663 243.84 369.099 242.042C368.265 241.084 367.433 240.127 366.605 239.17C366.663 238.075 367.012 233.94 370.323 230.976C371.541 229.886 372.81 229.267 373.788 228.907C374.627 231.677 375.422 235.156 375.774 239.213C376.221 244.39 375.8 248.833 375.225 252.18C383.04 252.306 390.855 252.433 398.672 252.559C397.091 247.369 396.768 243.123 396.77 240.183C396.777 234.068 398.196 230.163 397.489 222.486C397.283 220.251 396.964 218.432 396.729 217.25C394.48 217.291 392.231 217.334 389.982 217.376C389.563 217.798 387.79 219.478 384.942 219.657C382.063 219.837 380.079 218.36 379.618 217.996Z" fill="#B76BEC"/>
    <path d="M373.789 228.906C374.628 231.676 375.423 235.155 375.775 239.212C376.223 244.389 375.803 248.832 375.225 252.179C378.831 252.237 382.436 252.296 386.041 252.353C384.853 250.962 383.661 249.436 382.5 247.767C377.835 241.067 375.261 234.375 373.789 228.906Z" fill="#C676EF"/>
    <path d="M379.618 217.992C378.218 218.05 376.135 218.295 373.806 219.204C369.47 220.898 367.02 223.826 366.014 225.059C361.087 231.096 361.251 238.314 361.366 240.349C363.346 242.361 365.391 244.582 367.451 247.022C369.042 248.908 370.504 250.761 371.844 252.555C370.097 248.092 368.351 243.629 366.605 239.166C366.266 237.509 365.526 232.765 367.957 227.678C371.401 220.47 378.467 218.321 379.618 217.992Z" fill="#C676EF"/>
    <path d="M399.308 248.234C399.025 249.71 398.801 250.877 398.802 252.431C398.804 254.468 399.19 256.136 399.541 257.269C398.79 255.818 398.388 254.595 398.167 253.804C397.177 250.255 397.297 246.373 397.012 244.568C396.996 244.461 396.928 244.049 396.888 243.487C396.853 243.001 396.853 242.604 396.858 242.354C397.148 242.268 397.488 242.138 397.849 241.94C398.595 241.525 399.085 240.997 399.373 240.625C399.793 241.5 400.214 242.374 400.636 243.248C399.958 245.227 399.557 246.939 399.308 248.234Z" fill="#FFBC95"/>
    <path d="M396.725 217.25C398.447 217.921 401.425 219.365 403.991 222.36C408.698 227.855 408.445 234.396 408.343 235.96C405.637 238.015 402.489 241.1 400.316 245.548C399.987 246.221 399.7 246.885 399.449 247.537C399.12 245.547 398.792 243.558 398.464 241.569C399.305 240.303 400.431 238.861 401.926 237.438C402.601 236.797 403.269 236.237 403.907 235.749C403.888 235.341 403.615 230.76 400.105 228.864C399.085 228.314 398.071 228.14 397.274 228.105" fill="#C676EF"/>
    <path d="M400.188 225.186C405.788 228.051 407.797 233.942 408.384 235.956C407.741 236.427 407.06 236.972 406.362 237.598C405.521 238.351 404.8 239.094 404.185 239.791C404.304 238.145 404.147 236.771 403.948 235.745C403.582 233.864 402.935 230.367 400.145 228.86C399.127 228.31 398.112 228.136 397.314 228.1L397.109 224.047C398.093 224.285 399.134 224.647 400.188 225.186Z" fill="#B76BEC"/>
    <path d="M350.761 69.5161C349.789 69.2731 349.197 68.2874 349.44 67.3144C349.683 66.3415 350.669 65.7497 351.641 65.9927L352.222 66.1378C353.516 66.4609 354.827 65.6741 355.15 64.3804L359.732 46.0359C360.055 44.7422 359.268 43.4315 357.974 43.1084L357.393 42.9633C356.42 42.7203 355.829 41.7346 356.072 40.7617C356.315 39.7887 357.3 39.197 358.273 39.44L368.35 41.9568C371.943 42.8543 374.481 44.3379 375.962 46.4076C377.476 48.4857 377.851 51.0566 377.086 54.1204C376.312 57.2182 374.764 59.3451 372.442 60.501C370.153 61.6653 367.212 61.7986 363.618 60.9011L363.406 60.848C361.798 60.4465 360.17 61.4242 359.768 63.0316L359.322 64.8188C358.92 66.4263 359.898 68.0549 361.505 68.4564L362.878 68.7993C363.851 69.0423 364.443 70.028 364.2 71.0009C363.957 71.9739 362.971 72.5656 361.998 72.3226L350.761 69.5161ZM355.861 53.4845C354.958 53.2591 354.41 52.3448 354.635 51.4424C354.86 50.5399 355.775 49.9911 356.677 50.2165L359.807 50.9982C360.709 51.2235 361.258 52.1378 361.033 53.0403C360.807 53.9427 359.893 54.4916 358.991 54.2662L355.861 53.4845ZM357.136 48.3782C356.234 48.1528 355.685 47.2385 355.91 46.3361C356.136 45.4336 357.05 44.8848 357.952 45.1102L361.082 45.8919C361.985 46.1173 362.533 47.0315 362.308 47.934C362.083 48.8364 361.168 49.3853 360.266 49.1599L357.136 48.3782ZM362.165 53.6486C361.764 55.2561 362.741 56.8847 364.349 57.2862L364.461 57.3141C369.028 58.4549 371.805 57.0509 372.791 53.102C373.778 49.1531 371.987 46.6083 367.42 45.4675L367.308 45.4396C365.7 45.0381 364.072 46.0157 363.67 47.6232L362.165 53.6486ZM374.5 58.1398C373.597 57.9145 373.049 57.0002 373.274 56.0977C373.499 55.1953 374.414 54.6464 375.316 54.8718L378.446 55.6535C379.348 55.8789 379.897 56.7932 379.672 57.6956C379.446 58.5981 378.532 59.1469 377.63 58.9215L374.5 58.1398ZM375.775 53.0335C374.873 52.8082 374.324 51.8939 374.549 50.9914C374.775 50.089 375.689 49.5401 376.591 49.7655L379.721 50.5472C380.624 50.7726 381.172 51.6869 380.947 52.5893C380.722 53.4918 379.807 54.0406 378.905 53.8152L375.775 53.0335Z" fill="#D1AC19"/>
    <path d="M398.403 137.388C397.872 137.529 397.326 137.213 397.185 136.682C397.043 136.15 397.359 135.605 397.891 135.463L398.225 135.374C398.941 135.184 399.366 134.449 399.176 133.733L396.516 123.747C396.326 123.031 395.591 122.605 394.875 122.796L394.541 122.885C394.01 123.026 393.464 122.71 393.323 122.179C393.181 121.647 393.497 121.102 394.029 120.96L399.617 119.472C401.605 118.942 403.236 118.976 404.51 119.573C405.802 120.165 406.67 121.297 407.116 122.971C407.567 124.663 407.381 126.096 406.56 127.271C405.757 128.44 404.361 129.29 402.372 129.819C401.418 130.073 400.85 131.053 401.104 132.008L401.306 132.763C401.552 133.686 402.5 134.236 403.423 133.99L404.134 133.801C404.665 133.659 405.211 133.975 405.352 134.507C405.494 135.038 405.178 135.584 404.646 135.725L398.403 137.388ZM396.605 128.338C396.112 128.47 395.606 128.176 395.475 127.684C395.344 127.191 395.637 126.685 396.13 126.553L397.885 126.086C398.378 125.955 398.884 126.248 399.015 126.741C399.147 127.234 398.853 127.74 398.36 127.871L396.605 128.338ZM395.863 125.549C395.37 125.681 394.864 125.387 394.732 124.894C394.601 124.402 394.894 123.896 395.387 123.764L397.142 123.297C397.635 123.166 398.141 123.459 398.273 123.952C398.404 124.445 398.111 124.951 397.618 125.082L395.863 125.549ZM399.707 126.647C399.953 127.571 400.901 128.12 401.825 127.874C404.352 127.201 405.328 125.786 404.754 123.629C404.18 121.473 402.629 120.731 400.102 121.404C399.178 121.65 398.628 122.598 398.874 123.522L399.707 126.647ZM406.919 125.592C406.426 125.723 405.92 125.43 405.789 124.937C405.658 124.444 405.951 123.938 406.444 123.807L408.199 123.339C408.692 123.208 409.198 123.501 409.329 123.994C409.46 124.487 409.167 124.993 408.674 125.124L406.919 125.592ZM406.176 122.803C405.683 122.934 405.177 122.641 405.046 122.148C404.915 121.655 405.208 121.149 405.701 121.018L407.456 120.55C407.949 120.419 408.455 120.712 408.586 121.205C408.717 121.698 408.424 122.204 407.931 122.335L406.176 122.803Z" fill="#D1AC19"/>
    <path d="M291.148 288.037C290.645 287.63 290.568 286.892 290.975 286.389C291.382 285.886 292.119 285.809 292.622 286.216L292.963 286.491C293.654 287.051 294.667 286.944 295.227 286.253L302.836 276.852C303.395 276.161 303.288 275.147 302.597 274.588L302.257 274.312C301.754 273.905 301.676 273.167 302.083 272.664C302.49 272.162 303.228 272.084 303.731 272.491L309.143 276.872C311.063 278.425 312.19 280.022 312.525 281.662C312.878 283.316 312.414 284.936 311.132 286.519C309.836 288.12 308.335 288.93 306.629 288.947C304.941 288.978 303.137 288.217 301.218 286.664C300.296 285.918 298.945 286.06 298.199 286.982L297.673 287.632C296.952 288.523 297.089 289.831 297.981 290.553L298.685 291.123C299.188 291.53 299.265 292.267 298.858 292.77C298.451 293.273 297.714 293.351 297.211 292.944L291.148 288.037ZM298.516 280.065C298.049 279.687 297.977 279.003 298.355 278.537C298.732 278.07 299.417 277.998 299.883 278.376L301.611 279.774C302.077 280.152 302.15 280.836 301.772 281.302C301.394 281.769 300.71 281.841 300.244 281.463L298.516 280.065ZM300.652 277.425C300.186 277.048 300.114 276.364 300.491 275.897C300.869 275.431 301.553 275.359 302.019 275.736L303.747 277.135C304.214 277.512 304.286 278.196 303.908 278.663C303.531 279.129 302.846 279.201 302.38 278.824L300.652 277.425ZM302.379 281.873C301.657 282.765 301.795 284.073 302.686 284.794C305.126 286.769 307.172 286.736 308.824 284.694C310.476 282.653 310.082 280.646 307.642 278.671C306.751 277.949 305.443 278.087 304.721 278.979L302.379 281.873ZM308.471 288.122C308.005 287.745 307.933 287.061 308.31 286.594C308.688 286.128 309.372 286.056 309.838 286.433L311.566 287.832C312.033 288.209 312.105 288.894 311.727 289.36C311.35 289.826 310.666 289.899 310.199 289.521L308.471 288.122ZM310.608 285.483C310.141 285.106 310.069 284.421 310.447 283.955C310.824 283.488 311.508 283.416 311.975 283.794L313.703 285.192C314.169 285.57 314.241 286.254 313.864 286.721C313.486 287.187 312.802 287.259 312.335 286.882L310.608 285.483Z" fill="#D1AC19"/>
    <ellipse cx="104.5" cy="65" rx="47.5" ry="42" fill="#B9E1E4"/>
    <ellipse cx="21" cy="55.5" rx="21" ry="18.5" fill="#B9E1E4"/>
    <path d="M300.966 200.949L223.281 97.315C221.155 94.4797 221.736 90.4208 224.571 88.2961L288.654 40.2799C291.49 38.1552 295.549 38.7368 297.675 41.5721L375.36 145.204C377.486 148.042 376.906 152.101 374.069 154.225L309.986 202.241C307.151 204.365 303.091 203.784 300.966 200.949Z" fill="#E1005F"/>
    <path d="M300.963 200.953C278.309 170.732 255.654 140.511 233 110.289C264.151 100.184 295.303 90.0773 326.453 79.9713L375.357 145.209C375.617 145.557 376.941 147.409 376.573 149.986C376.339 151.621 375.484 153.166 374.066 154.229L309.983 202.245C307.148 204.37 303.088 203.788 300.963 200.953Z" fill="#FF007F"/>
    <path d="M267.65 93.3571L257.647 80.0143C256.763 78.8343 257.005 77.1435 258.185 76.2596L267.742 69.0981C268.922 68.2142 270.612 68.4565 271.497 69.6373L281.499 82.9794C282.384 84.1601 282.142 85.8496 280.962 86.7347L271.406 93.8951C270.225 94.7802 268.535 94.5379 267.65 93.3571Z" fill="white"/>
    <path d="M262.706 86.759L262.487 86.4768L276.154 75.8583L276.373 76.1386L262.706 86.759Z" fill="white"/>
    <path d="M278.226 88.776L264.87 71.2541L265.154 71.0374L278.511 88.5599L278.226 88.776ZM273.764 92.1774L260.38 74.6196L260.664 74.4029L274.047 91.9607L273.764 92.1774Z" fill="white"/>
    <path d="M316.524 175.556C316.524 180.407 312.591 184.34 307.739 184.34C302.886 184.34 298.952 180.407 298.952 175.556C298.952 170.705 302.886 166.773 307.739 166.773C312.591 166.773 316.524 170.705 316.524 175.556Z" fill="#E1005F"/>
    <circle cx="308" cy="175" r="10" fill="white"/>
    <defs>
        <linearGradient id="paint0_linear_91_6094" x1="291.073" y1="-27.4847" x2="348.694" y2="291.144" gradientUnits="userSpaceOnUse">
            <stop stop-color="#ABDDE2"/>
            <stop offset="0.25" stop-color="#ABDDE2"/>
            <stop offset="0.3125" stop-color="#ABDDE2"/>
            <stop offset="0.328125" stop-color="#ABDDE2"/>
            <stop offset="0.335938" stop-color="#ABDDE2"/>
            <stop offset="0.339844" stop-color="#ADDDE2"/>
            <stop offset="0.34375" stop-color="#AEDEE2"/>
            <stop offset="0.347656" stop-color="#AFDEE3"/>
            <stop offset="0.351562" stop-color="#B0DEE3"/>
            <stop offset="0.355469" stop-color="#B1DEE3"/>
            <stop offset="0.359375" stop-color="#B2DEE3"/>
            <stop offset="0.363281" stop-color="#B4DFE3"/>
            <stop offset="0.367188" stop-color="#B5DFE3"/>
            <stop offset="0.371094" stop-color="#B6DFE3"/>
            <stop offset="0.375" stop-color="#B7DFE4"/>
            <stop offset="0.378906" stop-color="#B8E0E4"/>
            <stop offset="0.382813" stop-color="#BAE0E4"/>
            <stop offset="0.386719" stop-color="#BBE0E4"/>
            <stop offset="0.390625" stop-color="#BCE0E4"/>
            <stop offset="0.394531" stop-color="#BDE1E4"/>
            <stop offset="0.398438" stop-color="#BEE1E5"/>
            <stop offset="0.402344" stop-color="#C0E1E5"/>
            <stop offset="0.40625" stop-color="#C1E1E5"/>
            <stop offset="0.410156" stop-color="#C2E1E5"/>
            <stop offset="0.414063" stop-color="#C3E2E5"/>
            <stop offset="0.417969" stop-color="#C4E2E5"/>
            <stop offset="0.421875" stop-color="#C6E2E6"/>
            <stop offset="0.425781" stop-color="#C7E2E6"/>
            <stop offset="0.429688" stop-color="#C8E3E6"/>
            <stop offset="0.433594" stop-color="#C9E3E6"/>
            <stop offset="0.4375" stop-color="#CBE3E6"/>
            <stop offset="0.441406" stop-color="#CCE3E6"/>
            <stop offset="0.445313" stop-color="#CDE4E7"/>
            <stop offset="0.449219" stop-color="#CEE4E7"/>
            <stop offset="0.453125" stop-color="#CFE4E7"/>
            <stop offset="0.457031" stop-color="#D1E4E7"/>
            <stop offset="0.460938" stop-color="#D2E5E7"/>
            <stop offset="0.464844" stop-color="#D3E5E7"/>
            <stop offset="0.46875" stop-color="#D4E5E8"/>
            <stop offset="0.472656" stop-color="#D6E5E8"/>
            <stop offset="0.476562" stop-color="#D7E6E8"/>
            <stop offset="0.480469" stop-color="#D8E6E8"/>
            <stop offset="0.484375" stop-color="#D9E6E8"/>
            <stop offset="0.488281" stop-color="#DBE6E8"/>
            <stop offset="0.492188" stop-color="#DCE6E9"/>
            <stop offset="0.496094" stop-color="#DDE7E9"/>
            <stop offset="0.5" stop-color="#DEE7E9"/>
            <stop offset="0.503906" stop-color="#E0E7E9"/>
            <stop offset="0.507813" stop-color="#E1E7E9"/>
            <stop offset="0.511719" stop-color="#E2E8E9"/>
            <stop offset="0.515625" stop-color="#E3E8EA"/>
            <stop offset="0.519531" stop-color="#E5E8EA"/>
            <stop offset="0.523438" stop-color="#E6E8EA"/>
            <stop offset="0.527344" stop-color="#E7E9EA"/>
            <stop offset="0.53125" stop-color="#E8E9EA"/>
            <stop offset="0.535156" stop-color="#E9E9EA"/>
            <stop offset="0.539062" stop-color="#EBE9EB"/>
            <stop offset="0.542969" stop-color="#ECEAEB"/>
            <stop offset="0.546875" stop-color="#EDEAEB"/>
            <stop offset="0.5625" stop-color="#EEEAEB"/>
            <stop offset="0.625" stop-color="#EEEAEB"/>
            <stop offset="0.75" stop-color="#EEEAEB"/>
            <stop offset="1" stop-color="#EEEAEB"/>
        </linearGradient>
    </defs>
</svg>
