<svg width="424" height="60" viewBox="0 0 424 60" fill="none" xmlns="http://www.w3.org/2000/svg">
    <path d="M390.648 3.54488C391.703 0.151711 396.297 0.151705 397.352 3.54487L401.782 17.7892C402.254 19.3067 403.607 20.3341 405.134 20.3341H419.468C422.883 20.3341 424.303 24.8996 421.54 26.9967L409.944 35.8002C408.708 36.738 408.191 38.4004 408.663 39.9179L413.093 54.1622C414.148 57.5554 410.431 60.377 407.668 58.2799L396.072 49.4764C394.836 48.5386 393.164 48.5386 391.928 49.4764L380.332 58.2799C377.569 60.377 373.852 57.5554 374.907 54.1622L379.337 39.9179C379.809 38.4004 379.292 36.738 378.056 35.8002L366.46 26.9967C363.697 24.8996 365.117 20.3341 368.532 20.3341H382.866C384.393 20.3341 385.746 19.3067 386.218 17.7892L390.648 3.54488Z" stroke="#B0B7BF"/>
    <path d="M299.648 3.54488C300.703 0.151711 305.297 0.151705 306.352 3.54487L310.782 17.7892C311.254 19.3067 312.607 20.3341 314.134 20.3341H328.468C331.883 20.3341 333.303 24.8996 330.54 26.9967L318.944 35.8002C317.708 36.738 317.191 38.4004 317.663 39.9179L322.093 54.1622C323.148 57.5554 319.431 60.377 316.668 58.2799L305.072 49.4764C303.836 48.5386 302.164 48.5386 300.928 49.4764L289.332 58.2799C286.569 60.377 282.852 57.5554 283.907 54.1622L288.337 39.9179C288.809 38.4004 288.292 36.738 287.056 35.8002L275.46 26.9967C272.697 24.8996 274.117 20.3341 277.532 20.3341H291.866C293.393 20.3341 294.746 19.3067 295.218 17.7892L299.648 3.54488Z" stroke="#B0B7BF"/>
    <path d="M208.648 3.54488C209.703 0.151711 214.297 0.151705 215.352 3.54487L219.782 17.7892C220.254 19.3067 221.607 20.3341 223.134 20.3341H237.468C240.883 20.3341 242.303 24.8996 239.54 26.9967L227.944 35.8002C226.708 36.738 226.191 38.4004 226.663 39.9179L231.093 54.1622C232.148 57.5554 228.431 60.377 225.668 58.2799L214.072 49.4764C212.836 48.5386 211.164 48.5386 209.928 49.4764L198.332 58.2799C195.569 60.377 191.852 57.5554 192.907 54.1622L197.337 39.9179C197.809 38.4004 197.292 36.738 196.056 35.8002L184.46 26.9967C181.697 24.8996 183.117 20.3341 186.532 20.3341H200.866C202.393 20.3341 203.746 19.3067 204.218 17.7892L208.648 3.54488Z" stroke="#B0B7BF"/>
    <path d="M117.648 3.54488C118.703 0.151711 123.297 0.151705 124.352 3.54487L128.782 17.7892C129.254 19.3067 130.607 20.3341 132.134 20.3341H146.468C149.883 20.3341 151.303 24.8996 148.54 26.9967L136.944 35.8002C135.708 36.738 135.191 38.4004 135.663 39.9179L140.093 54.1622C141.148 57.5554 137.431 60.377 134.668 58.2799L123.072 49.4764C121.836 48.5386 120.164 48.5386 118.928 49.4764L107.332 58.2799C104.569 60.377 100.852 57.5554 101.907 54.1622L106.337 39.9179C106.809 38.4004 106.292 36.738 105.056 35.8002L93.4597 26.9967C90.6973 24.8996 92.117 20.3341 95.5316 20.3341H109.866C111.393 20.3341 112.746 19.3067 113.218 17.7892L117.648 3.54488Z" stroke="#B0B7BF"/>
    <path d="M26.6477 3.54488C27.7028 0.151711 32.2971 0.151705 33.3523 3.54487L37.7818 17.7892C38.2537 19.3067 39.6071 20.3341 41.1341 20.3341H55.4684C58.883 20.3341 60.3027 24.8996 57.5403 26.9967L45.9436 35.8002C44.7082 36.738 44.1912 38.4004 44.6631 39.9179L49.0927 54.1622C50.1478 57.5554 46.431 60.377 43.6685 58.2799L32.0718 49.4764C30.8364 48.5386 29.1636 48.5386 27.9282 49.4764L16.3315 58.2799C13.569 60.377 9.85217 57.5554 10.9073 54.1622L15.3369 39.9179C15.8088 38.4004 15.2918 36.738 14.0564 35.8002L2.45975 26.9967C-0.302713 24.8996 1.117 20.3341 4.53158 20.3341H18.8658C20.3929 20.3341 21.7463 19.3067 22.2182 17.7892L26.6477 3.54488Z" stroke="#B0B7BF"/>
</svg>
