<svg width="61" height="27" viewBox="0 0 61 27" fill="none" xmlns="http://www.w3.org/2000/svg">
    <path d="M22.6487 23.0981V5.70703H29.1329C31.7389 5.70703 33.6678 6.06827 34.9195 6.80107C36.1609 7.53386 36.7867 8.65887 36.7867 10.1967C36.7867 11.2185 36.4789 12.0545 35.8634 12.7047C35.2478 13.355 34.3244 13.8194 33.0932 14.1084C34.5193 14.3664 35.5658 14.8412 36.2532 15.543C36.9406 16.2346 37.2895 17.1738 37.2895 18.3401C37.2895 19.9295 36.7252 21.1164 35.6069 21.9112C34.4885 22.7059 32.7957 23.0981 30.5282 23.0981H22.6487ZM27.2861 12.7563H29.1432C30.1691 12.7563 30.9284 12.6015 31.4003 12.2816C31.8723 11.9616 32.1185 11.4662 32.1185 10.785C32.1185 10.1451 31.8723 9.66001 31.3695 9.32974C30.8668 9.00978 30.1281 8.84465 29.1432 8.84465H27.2861V12.7563ZM27.2861 19.9398H29.1432C30.3025 19.9398 31.1438 19.7747 31.6671 19.4341C32.1801 19.1038 32.4366 18.5568 32.4366 17.8034C32.4366 17.1015 32.1698 16.5855 31.6363 16.2552C31.1028 15.9249 30.2717 15.7495 29.1432 15.7495H27.2861V19.9398Z" fill="white"/>
    <path d="M39.3728 23.0981V5.70703H47.2934C49.5506 5.70703 51.264 6.17148 52.4233 7.12102C53.5827 8.06024 54.1675 9.44327 54.1675 11.2598C54.1675 13.0453 53.5929 14.4387 52.4438 15.4295C51.2947 16.4203 49.6942 16.9261 47.6422 16.9261H44.1847V23.1084H39.3728V23.0981ZM44.1744 13.5098H46.3085C47.3344 13.5098 48.0834 13.324 48.5759 12.9421C49.0684 12.5602 49.3043 11.9823 49.3043 11.1875C49.3043 10.4135 49.0683 9.84579 48.5861 9.48455C48.1039 9.12332 47.3447 8.94786 46.3085 8.94786H44.1744V13.5098Z" fill="white"/>
    <path d="M56.219 23.0981V5.70703H61.0001V23.0981H56.219Z" fill="white"/>
    <path fill-rule="evenodd" clip-rule="evenodd" d="M0.159147 20.3945C0.313044 20.797 0.631099 21.1789 1.11331 21.5608C1.82124 22.1181 7.15636 25.6892 8.76715 26.7626L9.12625 27L9.42378 26.8039C9.7008 26.6181 16.185 22.1904 16.975 21.5608C17.4572 21.1789 17.765 20.797 17.9292 20.3945C18.1754 19.7443 18.0831 19.2385 18.0113 18.867V18.8463C17.9805 18.6709 16.9237 12.2408 16.3492 9.18578C14.0202 8.81422 11.6399 8.61812 9.20832 8.61812C9.15703 8.61812 9.10573 8.61812 9.04417 8.61812V25.2764C5.7918 23.1296 2.63177 21.055 2.10852 20.6422C1.79046 20.3945 1.59552 20.1674 1.51345 19.961C1.38007 19.6307 1.43137 19.3417 1.49293 19.0528C1.53397 18.8567 2.67281 11.9622 3.22684 9.03096C2.72411 9.09289 2.34449 9.16514 1.85202 9.24771C1.27747 12.3131 0.118107 18.6709 0.0873273 18.8567C0.00524861 19.2385 -0.0870895 19.7443 0.159147 20.3945ZM4.39646 11.6319H4.97101V11.9622V12.1273H5.47374V11.6009H6.07907V12.1273H6.56129V11.6216H7.13584V12.922H4.39646V11.6319ZM4.84789 13.1491H6.6844L7.32051 18.2787H4.21178L4.84789 13.1491ZM3.86295 18.5161H7.65909V19.8062H6.6331V19.4759H4.87867V19.8062H3.85269V18.5161H3.86295ZM5.34037 15.9461H6.21245V15.6262H5.34037V15.9461ZM6.20219 14.6147H5.3301V14.9346H6.20219V14.6147ZM5.3301 16.9576H6.20219V16.6376H5.3301V16.9576ZM4.76581 6.57454C4.40672 6.61583 4.16048 6.65711 3.83217 6.76032C3.78087 7.04931 3.67827 7.61697 3.58593 8.06078C5.39166 7.80275 7.23844 7.65826 9.11599 7.65826C10.8807 7.65826 12.6146 7.79243 14.328 8.0195C14.2356 7.58601 14.1433 7.04931 14.092 6.76032C13.8663 6.66743 13.5688 6.60551 13.1891 6.58486C14.3895 6.29587 15.118 5.44954 15.118 4.63417C15.118 3.56078 14.2767 2.70413 12.1939 2.48738C11.4552 1.9094 10.4292 1.6617 9.5469 1.58945C9.76236 1.43463 9.91625 1.16628 9.91625 0.866972C9.91625 0.38188 9.43404 0 8.97235 0C8.51066 0 8.02844 0.392201 8.02844 0.866972C8.02844 1.16628 8.17208 1.43463 8.3978 1.58945C7.50519 1.6617 6.48947 1.9094 5.75076 2.48738C3.67827 2.69381 2.8267 3.55046 2.8267 4.63417C2.8267 5.44954 3.56541 6.29587 4.76581 6.57454ZM12.6351 3.14794C12.6351 3.14794 14.2151 3.29243 14.1946 4.67546C14.1843 5.7695 13.0045 6.36812 11.5065 6.18234C13.5688 5.33601 13.1276 3.73624 12.6351 3.14794ZM9.45456 2.33257C10.7781 2.45642 11.8041 3.28211 11.8041 4.3039C11.8041 5.33601 10.7473 6.18234 9.393 6.27523C9.67002 5.90367 9.85469 5.15023 9.85469 4.26262C9.86495 3.44725 9.7008 2.73509 9.45456 2.33257ZM8.49014 2.33257C8.25416 2.72477 8.09 3.43693 8.09 4.26262C8.09 5.15023 8.28494 5.90367 8.5517 6.27523C7.1974 6.17202 6.14063 5.33601 6.14063 4.3039C6.14063 3.28211 7.16662 2.45642 8.49014 2.33257ZM5.31985 3.14794C4.82737 3.73624 4.3862 5.33601 6.44843 6.17202C4.95049 6.3578 3.77061 5.7695 3.76035 4.66514C3.73983 3.29243 5.31985 3.14794 5.31985 3.14794ZM13.1276 20.9002C13.1481 20.8383 13.1584 20.7764 13.1789 20.7145C13.2815 20.6938 13.3841 20.6835 13.4867 20.6628C13.6816 20.539 13.6611 20.1365 13.856 20.0229C13.9484 19.9713 13.9894 20.0436 14.0304 20.0952C14.092 19.961 14.0715 19.7649 14.133 19.6101C14.2972 19.2179 14.646 19.0011 14.5127 18.3303C14.5024 18.32 14.4921 18.3096 14.4921 18.2993C14.4306 18.3922 14.4101 18.4541 14.3382 18.5264C13.8355 18.4954 14.0202 17.3601 14.3588 17.2569C14.605 17.9278 15.6618 18.1239 15.7233 17.2362C15.7336 17.0608 15.5899 16.8131 15.4155 16.5344C15.4873 16.2557 15.6002 16.0287 15.7028 15.8842C15.7644 15.8016 15.4155 15.9564 15.2514 16.2661C15.3232 15.9667 15.4463 15.719 15.5489 15.5642C15.6105 15.4817 15.3027 15.6158 15.1283 15.8945C15.2001 15.5952 15.3232 15.3578 15.4258 15.203C15.4873 15.1101 15.1077 15.2856 14.9538 15.6365C14.9025 15.461 14.8615 15.2856 14.8718 15.1101C14.882 14.6869 15.0051 13.8509 15.1693 13.1697C15.2103 12.9736 15.3129 12.6124 15.5899 12.4576C15.3745 12.406 15.0051 12.6021 15.0154 13.0252C14.9538 12.406 14.4921 12.1995 14.2562 12.1583C15.0154 12.8291 14.3895 14.367 14.3998 15.0895C14.4101 15.9977 15.4873 16.9473 15.3232 17.2672C15.077 17.742 14.6153 16.8337 14.4819 16.5447C14.3382 16.2557 13.8458 15.8016 13.4867 15.4507C13.7021 15.2959 13.9381 14.914 13.9484 14.5011C13.9791 14.5424 14.0202 14.5837 14.051 14.625C14.0612 14.625 14.0817 14.625 14.1023 14.625C14.051 14.2431 14.2049 13.8509 14.0817 13.5C14.1433 13.5 14.1946 13.5 14.2562 13.5C14.2049 11.8177 12.9942 12.1686 12.4094 12.3131C12.3991 12.344 12.3889 12.375 12.3786 12.406C12.4607 12.406 12.5325 12.4163 12.6146 12.4163C12.6146 12.4266 12.6146 12.4266 12.6146 12.4266C12.553 12.4473 12.4915 12.4679 12.4299 12.4885C12.3991 12.6021 12.4299 12.8704 12.5736 13.0046C12.6249 12.8807 12.6351 12.8291 12.748 12.7775C12.8916 12.8498 12.9839 13.0975 12.8916 13.3245C12.789 13.3658 12.6864 13.3452 12.6454 13.2213H12.6351C12.5736 13.469 12.5941 13.7271 12.7787 13.8922C12.789 13.6858 12.8608 13.5929 13.0352 13.6032C12.9839 14.1089 12.6454 13.9954 12.3068 14.1296C11.6809 14.3773 11.5065 15.3268 10.9422 15.4817C10.9935 15.7087 11.209 15.8945 11.3732 15.9771C11.2911 16.1319 10.9422 16.617 10.7883 16.6376C10.7268 16.555 10.6755 16.4725 10.5729 16.4415C10.4703 16.4725 10.3779 16.4931 10.2753 16.5241C10.2651 16.555 10.2446 16.5963 10.224 16.6273C10.2651 16.6376 10.3061 16.6479 10.3574 16.6583C10.3574 16.7202 10.3472 16.7821 10.3472 16.844C10.4292 16.8647 10.5421 16.8647 10.6139 16.906C10.6139 16.9266 10.6242 16.9369 10.6242 16.9576C10.5318 16.9369 10.4395 16.8956 10.3369 16.9266C10.2753 16.9679 10.142 17.2156 10.1727 17.3188C10.1727 17.3291 10.1727 17.3395 10.1727 17.3498C10.2035 17.3188 10.224 17.2982 10.2548 17.2775C10.3164 17.2982 10.3164 17.3085 10.3266 17.3807C10.3472 17.3911 10.3677 17.4014 10.3882 17.4117C10.46 17.3395 10.5421 17.2672 10.6139 17.195H10.6242C10.6344 17.2053 10.6344 17.2259 10.6447 17.2362C10.5729 17.3085 10.5113 17.3807 10.4395 17.453C10.4292 17.5768 10.4087 17.711 10.4292 17.8762C10.4805 17.8349 10.5216 17.7833 10.5729 17.742C10.7576 17.9174 10.8704 17.6904 10.973 17.5149C11.0346 17.5768 11.1064 17.5872 11.1885 17.5872C11.1885 17.6284 11.1987 17.68 11.1987 17.7213H11.209C11.5065 17.4323 11.1269 17.1846 11.4757 16.8337C11.6399 16.9369 11.763 16.906 11.9272 16.8337C11.958 16.7924 11.9785 16.7512 12.0093 16.7099C11.9169 16.6789 11.8656 16.6376 11.8246 16.5447C11.8246 16.4828 11.8246 16.4725 11.8451 16.4415C11.9169 16.2867 12.1734 16.3073 12.3171 16.3589C12.6967 16.5138 12.9224 16.8544 13.1994 17.133C13.1789 17.4839 13.1378 17.9381 13.2097 18.258C13.2917 18.578 13.5175 18.7225 13.4354 19.125C13.579 19.1147 13.6508 19.0424 13.7021 18.9289C13.7534 18.9289 13.815 18.9392 13.8663 18.9392C13.7227 19.2076 13.4662 19.7236 13.1789 19.7959C12.9224 19.8681 12.8198 19.5482 12.5736 19.6307C12.5428 19.6617 12.5017 19.703 12.471 19.7339C12.3581 19.7959 12.3273 19.7133 12.2555 19.8578C12.2555 19.8681 12.2555 19.8888 12.2555 19.8991C12.2965 19.8991 12.3376 19.9094 12.3889 19.9094C12.3991 19.961 12.4094 20.0229 12.4197 20.0745C12.4915 20.0023 12.553 19.9197 12.6249 19.8475C12.6249 19.8578 12.6351 19.8681 12.6351 19.8784C12.5325 19.9713 12.4607 20.1158 12.3889 20.25C12.3786 20.3429 12.3889 20.4151 12.3991 20.508C12.4094 20.5184 12.4094 20.5184 12.4197 20.5184C12.4402 20.4771 12.471 20.4358 12.4915 20.3945C12.512 20.3945 12.5223 20.3945 12.5428 20.3945C12.5633 20.4255 12.5838 20.4564 12.6043 20.4874C12.6249 20.4874 12.6351 20.4874 12.6556 20.4874C12.6762 20.3635 12.7069 20.2294 12.7275 20.1055C12.7377 20.0952 12.748 20.0849 12.7582 20.0745C12.7582 20.0849 12.7685 20.0849 12.7685 20.0849C12.6967 20.2913 12.6659 20.508 12.7172 20.7351C12.7274 20.7454 12.748 20.7661 12.7685 20.7764C12.7787 20.7454 12.789 20.7041 12.7993 20.6732C12.8506 20.6216 12.8813 20.6112 12.9839 20.6112C12.9942 20.4461 12.9429 20.3016 13.0558 20.1984C12.9839 20.3635 13.0045 20.6112 13.0455 20.8073C13.0763 20.8589 13.0968 20.8796 13.1276 20.9002ZM12.9326 12.5917C12.9326 12.5195 12.9326 12.4576 12.9326 12.3853C13.0763 12.375 13.261 12.3647 13.3533 12.4266C13.2199 12.4885 13.0763 12.5401 12.9326 12.5917ZM13.2097 18.8154V18.805C13.066 18.6915 12.5736 18.0826 12.7275 17.7317C12.789 17.5356 12.9737 17.5872 13.0763 17.68C13.0865 17.5768 13.0968 17.4633 13.0968 17.3601C13.0045 17.2156 12.7685 17.1434 12.8608 16.8853C12.235 16.3796 12.276 17.2362 11.7425 17.2259C11.763 17.422 11.8554 17.5665 12.0298 17.5768C12.0298 17.9794 12.1837 18.258 12.3581 18.4232C12.3581 18.4335 12.3684 18.4541 12.3684 18.4645C12.1324 18.4954 11.8348 18.5367 11.6604 18.3922C11.4552 18.2167 11.4039 17.9587 11.0448 17.9794C11.0448 17.9897 11.0448 17.9897 11.0448 17.9897C11.0654 18.0206 11.0859 18.0516 11.1064 18.0826C11.1167 18.1342 11.0859 18.1548 11.0756 18.2167C11.0756 18.2167 11.0756 18.2271 11.0756 18.2374C11.1474 18.258 11.209 18.2787 11.2808 18.2993C11.2911 18.2993 11.2911 18.2993 11.3013 18.2993C11.3013 18.32 11.3013 18.3406 11.3013 18.3612C11.1064 18.32 10.9012 18.3303 10.8294 18.547C10.8294 18.5573 10.8294 18.5573 10.8294 18.5677C10.8704 18.5677 10.9115 18.5677 10.9525 18.5677C10.9833 18.6296 11.0141 18.6812 11.0243 18.7844C11.0961 18.7018 11.168 18.6193 11.2398 18.5367H11.25C11.209 18.7638 11.0243 18.8257 11.0038 19.1044C11.0038 19.1147 11.0038 19.1147 11.0038 19.1147C11.0448 19.1147 11.0961 19.0734 11.1474 19.0424C11.1885 19.0837 11.2295 19.125 11.2603 19.1663C11.3116 19.1147 11.3321 18.9805 11.3526 18.8876C11.3731 18.8876 11.3834 18.8876 11.4039 18.8876C11.3731 19.0528 11.2808 19.2592 11.3424 19.4243C11.3629 19.445 11.3834 19.4759 11.4039 19.4966C11.4244 19.445 11.4347 19.3934 11.4552 19.3417C11.527 19.2901 11.5783 19.3934 11.7015 19.3417C11.8451 19.2798 11.8451 19.0837 12.0503 19.0837C12.1016 19.1456 12.1324 19.1766 12.1324 19.3108C12.2658 19.2695 12.3068 19.1353 12.4299 19.094C12.83 18.9599 12.9224 19.156 13.2097 18.8154ZM12.1734 13.4484C12.4402 13.4174 12.5325 13.1181 12.8095 13.1078C12.8095 13.0975 12.8095 13.0975 12.8095 13.0872C12.7377 13.0768 12.6864 13.0562 12.6043 13.0768C12.471 13.1078 11.8554 13.4484 12.1016 12.922C11.9067 13.0046 11.8348 13.4794 12.1734 13.4484ZM10.2856 14.8005C10.2856 14.8108 10.2856 14.8108 10.2856 14.8108C10.3472 14.8933 10.5011 14.8727 10.6139 14.8727C10.655 14.8108 10.696 14.7385 10.7473 14.6766C10.7576 14.6766 10.7678 14.6766 10.7678 14.6766C10.9012 14.8521 11.0448 15.0275 11.1782 15.203C11.1885 15.203 11.1987 15.203 11.1987 15.203C11.3321 15.0791 11.4244 14.9037 11.527 14.7385C11.486 14.4805 11.1885 14.367 11.1167 14.1193C11.0243 13.8406 11.3013 13.4484 10.9525 13.2523C10.9525 13.3968 10.8909 13.4278 10.8807 13.5103C10.8909 13.5929 10.9012 13.6755 10.9012 13.758C10.9012 13.7684 10.9012 13.7787 10.9012 13.789H10.8909C10.8396 13.7271 10.8499 13.6342 10.8089 13.5413C10.7678 13.4484 10.5524 13.3349 10.46 13.3142C10.46 13.3245 10.46 13.3245 10.46 13.3349C10.4908 13.4381 10.4703 13.5206 10.4805 13.6032C10.5318 13.6858 10.5831 13.7787 10.6344 13.8612C10.6344 13.8819 10.6344 13.9025 10.6344 13.9232C10.6242 13.9232 10.6139 13.9232 10.6037 13.9232C10.5524 13.8612 10.4908 13.789 10.4395 13.7271C10.3574 13.6858 10.1933 13.7271 10.1112 13.758C10.142 13.7993 10.183 13.8406 10.2138 13.8819C10.2959 14.0161 10.6857 14.4702 10.2856 14.8005ZM12.6762 11.3429C12.789 11.25 12.9532 11.2087 13.0865 11.1984C13.0558 11.1778 13.025 11.1365 13.025 11.0849C13.025 11.0126 13.0968 10.9507 13.1686 10.9507C13.2404 10.9507 13.3123 11.0126 13.3123 11.0849C13.3123 11.1365 13.2917 11.1778 13.2507 11.1984C13.3943 11.2087 13.5482 11.25 13.6611 11.3429C13.9894 11.3739 14.1228 11.508 14.1228 11.6732C14.1228 11.8177 13.9894 11.9622 13.7637 11.9931C13.7534 12.0447 13.7534 12.1067 13.7432 12.1376C13.6098 12.0963 13.3636 12.0757 13.1584 12.0757C12.9634 12.0757 12.6864 12.1067 12.5736 12.1376C12.5736 12.1067 12.5633 12.0447 12.553 11.9931C12.3273 11.9622 12.1939 11.8177 12.1939 11.6732C12.2247 11.508 12.3478 11.3739 12.6762 11.3429ZM13.9997 11.6835C13.9997 11.4977 13.774 11.4771 13.774 11.4771C13.8458 11.5596 13.9073 11.7764 13.6098 11.8899C13.8253 11.9106 13.9997 11.828 13.9997 11.6835ZM13.6303 11.6216C13.6303 11.4771 13.4662 11.3635 13.261 11.3532C13.302 11.4048 13.3225 11.508 13.3225 11.6216C13.3225 11.7454 13.2917 11.8486 13.2507 11.9002C13.4559 11.8796 13.6303 11.7661 13.6303 11.6216ZM13.1173 11.9002C13.0763 11.8486 13.0455 11.7454 13.0455 11.6216C13.0455 11.508 13.066 11.4048 13.1071 11.3532C12.9019 11.3739 12.7377 11.4874 12.7377 11.6216C12.7377 11.7661 12.9019 11.8796 13.1173 11.9002ZM12.7582 11.8899C12.4504 11.7764 12.5223 11.5493 12.5941 11.4667C12.5941 11.4667 12.3581 11.4874 12.3684 11.6732C12.3684 11.8383 12.5428 11.9209 12.7582 11.8899Z" fill="white"/>
</svg>
