<svg width="119" height="24" viewBox="0 0 119 24" fill="none" xmlns="http://www.w3.org/2000/svg">
    <path d="M39.6899 8.89953C39.3168 7.43568 38.4569 6.98558 36.7105 6.98558C34.9198 6.98558 34.0826 7.45874 33.7107 8.89953C33.4988 9.70391 33.4772 10.5787 33.4545 11.4298L39.9682 11.4055C39.9449 10.5556 39.8977 9.72816 39.6899 8.89953ZM42.1786 12.7304C42.1786 12.8954 42.0156 13.0847 41.8538 13.0847H33.4772C33.4772 14.3374 33.7334 15.0477 34.2684 15.6368C34.9198 16.3945 35.9909 16.6535 37.5249 16.6535C38.9686 16.6535 39.8978 16.3471 40.9002 16.0627L41.0382 16.0396C41.1552 16.0396 41.2262 16.1112 41.2955 16.2762L41.5516 17.245L41.5749 17.3402C41.5749 17.4822 41.4812 17.5756 41.3182 17.6241C40.4106 18.0014 38.8755 18.3327 37.2693 18.3327C32.7105 18.3327 31.2429 16.2525 31.2429 11.832C31.2429 7.74264 32.1505 5.30762 36.7355 5.30762C39.1538 5.30762 40.5736 6.03984 41.3648 7.3162C42.0156 8.40389 42.1786 9.87011 42.1786 11.5717V12.7304Z" fill="white"/>
    <path d="M51.3661 11.6185L47.4098 12.2809C46.3398 12.4459 45.2687 12.5405 45.2687 14.3131C45.2687 16.5589 47.0611 16.7014 48.4804 16.7014C49.4829 16.7014 50.5051 16.5825 51.3661 16.2992V11.6185ZM51.5053 18.0014C50.8073 18.1671 49.6907 18.3327 48.4344 18.3327C46.3171 18.3327 43.0361 18.2138 43.0361 14.3841C43.0361 11.2636 44.8035 11.0749 46.9913 10.697L51.3661 9.96356V8.92319C51.3661 8.19156 51.3201 7.62435 50.5517 7.31561C50.1326 7.15119 49.4829 7.07962 48.5031 7.07962C46.7584 7.07962 45.1755 7.52913 44.2936 7.74205L44.1294 7.76571C44.0357 7.76571 43.9198 7.71721 43.8966 7.57644L43.6643 6.41778L43.6416 6.34681C43.6416 6.18238 43.8046 6.08716 43.8966 6.06291C44.6178 5.80326 46.6187 5.30762 48.8064 5.30762C50.4824 5.30762 51.5524 5.54243 52.251 5.92214C53.4601 6.60586 53.5067 7.76571 53.5067 8.9711V15.5676C53.5067 17.2444 53.1108 17.6235 51.5053 18.0014Z" fill="white"/>
    <path d="M59.1141 18.3327C57.0888 18.3327 55.2737 17.6696 54.9488 17.5519C54.879 17.5064 54.762 17.4579 54.762 17.2923V17.1983L54.9954 16.1579C55.0181 16.0396 55.1118 15.9444 55.251 15.9444L55.3674 15.9686C55.6002 16.0153 57.2291 16.6062 59.067 16.6062C60.8809 16.6062 61.9754 16.0396 61.9754 14.6686C61.9754 12.8493 60.626 12.896 58.9267 12.6115C57.7175 12.4222 54.879 12.1868 54.879 9.04207C54.879 5.89789 57.6005 5.30762 59.6718 5.30762C61.6494 5.30762 63.1606 5.73228 63.4412 5.80385C63.6264 5.85057 63.6962 5.96946 63.6962 6.08716V6.13506L63.5111 7.29313C63.4884 7.43509 63.3714 7.45874 63.2782 7.45874H63.2311C62.9062 7.43509 61.2553 7.03289 59.9274 7.03289C58.369 7.03289 57.0195 7.45874 57.0195 8.87587C57.0195 10.4131 58.532 10.555 59.9274 10.7437C61.9754 11.0276 64.1398 11.289 64.1398 14.4551C64.1398 17.5283 61.8357 18.3327 59.1141 18.3327Z" fill="white"/>
    <path d="M97.9903 8.89953C97.6183 7.43568 96.7585 6.98558 95.0132 6.98558C93.2213 6.98558 92.3848 7.45874 92.011 8.89953C91.8009 9.70391 91.7782 10.5787 91.7561 11.4298L98.2703 11.4055C98.2459 10.5556 98.1993 9.72816 97.9903 8.89953ZM100.48 12.7304C100.48 12.8954 100.318 13.0847 100.155 13.0847H91.7782C91.7782 14.3374 92.0355 15.0477 92.5693 15.6368C93.2213 16.3945 94.2913 16.6535 95.8259 16.6535C97.2708 16.6535 98.1993 16.3471 99.2006 16.0627L99.3397 16.0396C99.4568 16.0396 99.5278 16.1112 99.597 16.2762L99.852 17.245L99.8753 17.3402C99.8753 17.4822 99.7822 17.5756 99.6197 17.6241C98.7122 18.0014 97.177 18.3327 95.5709 18.3327C91.0103 18.3327 89.545 16.2525 89.545 11.832C89.545 7.74264 90.452 5.30762 95.0353 5.30762C97.4547 5.30762 98.8758 6.03984 99.6669 7.3162C100.318 8.40389 100.48 9.87011 100.48 11.5717L100.48 12.7304Z" fill="white"/>
    <path d="M105.9 18.3327C103.876 18.3327 102.062 17.6696 101.736 17.5519C101.667 17.5064 101.55 17.4579 101.55 17.2923V17.1983L101.782 16.1579C101.805 16.0396 101.899 15.9444 102.038 15.9444L102.155 15.9686C102.388 16.0153 104.016 16.6062 105.856 16.6062C107.669 16.6062 108.763 16.0396 108.763 14.6686C108.763 12.8493 107.413 12.896 105.715 12.6115C104.506 12.4222 101.667 12.1868 101.667 9.04207C101.667 5.89789 104.388 5.30762 106.46 5.30762C108.437 5.30762 109.95 5.73228 110.228 5.80385C110.416 5.85057 110.485 5.96946 110.485 6.08716V6.13506L110.3 7.29313C110.275 7.43509 110.158 7.45874 110.067 7.45874H110.019C109.694 7.43509 108.043 7.03289 106.715 7.03289C105.157 7.03289 103.806 7.45874 103.806 8.87587C103.806 10.4131 105.319 10.555 106.715 10.7437C108.763 11.0276 110.926 11.289 110.926 14.4551C110.926 17.5283 108.624 18.3327 105.9 18.3327Z" fill="white"/>
    <path d="M119 17.5758C119 17.7184 118.906 17.8124 118.792 17.8597C118.326 18.0254 117.302 18.3093 115.928 18.3093C113.556 18.3093 112.392 17.2925 112.392 14.9273V2.13944C112.392 1.90344 112.509 1.83247 112.718 1.78397L114.23 1.42969H114.3C114.486 1.42969 114.556 1.57282 114.556 1.7609V5.61424H118.326C118.512 5.61424 118.651 5.75619 118.651 5.9697V6.98523C118.651 7.17509 118.512 7.31586 118.303 7.31586H114.556V15.048C114.556 16.2764 115.185 16.6059 116.394 16.6059C117.116 16.6059 117.977 16.4172 118.442 16.3231L118.512 16.2995C118.628 16.2995 118.744 16.3941 118.768 16.5361L119 17.5291L119 17.5758Z" fill="white"/>
    <path d="M89.1039 5.61426H87.5205C87.2661 5.61426 87.1735 5.75621 87.1264 5.94606L84.9398 16.4888H84.3344L82.1699 6.48902C82.1245 6.25303 81.9382 6.11108 81.7059 6.11108H79.1462C78.9128 6.11108 78.7277 6.25303 78.6805 6.48902L76.4934 16.4888H75.8646C75.8646 16.4888 74.1473 8.18709 73.9569 7.31824C73.8143 6.66823 73.5599 5.61662 71.197 5.61662H69.6787C71.0293 5.76744 71.5398 6.60376 71.9712 8.34738L74.2131 17.6468C74.2591 17.884 74.4459 18.026 74.68 18.026H77.6565C77.8888 18.026 78.0762 17.884 78.1449 17.6468L80.3781 7.76597H80.4252L82.5658 17.6468C82.6123 17.884 82.8213 18.026 83.0548 18.026H86.0558C86.2886 18.026 86.4749 17.884 86.5215 17.6468L89.4066 6.01645V5.94606C89.4066 5.75621 89.2908 5.61426 89.1039 5.61426Z" fill="white"/>
    <path d="M71.98 16.5361C71.9562 16.3935 71.8397 16.2989 71.7245 16.2989L71.654 16.3231C71.1895 16.4172 70.3279 16.6064 69.6066 16.6064C68.3975 16.6064 67.7687 16.2764 67.7687 15.0468V7.31645H67.7717V7.32H70.3437C70.1236 7.32 70.7616 7.32592 71.0975 7.45899C71.4323 7.5903 71.7647 7.84935 71.9725 8.35446C71.5411 6.60611 71.0312 5.76802 69.6788 5.61601L67.7688 5.61424V1.76031C67.7688 1.57282 67.699 1.42969 67.5132 1.42969H67.4434L65.931 1.78456C65.7208 1.83187 65.6044 1.90345 65.6044 2.13943V14.9279C65.6044 17.2919 66.7681 18.3098 69.1421 18.3098C70.5131 18.3098 71.5388 18.0259 72.004 17.8597C72.1198 17.8124 72.2118 17.7178 72.2118 17.5758V17.5285L71.98 16.5361Z" fill="white"/>
    <path d="M14.702 9.48061L19.5753 13.138C23.2813 15.9201 21.4328 17.3854 21.4238 17.3926L22.3901 16.6578C23.6582 15.6936 24.5268 14.7429 24.9664 13.9375C25.3224 13.2837 25.4661 12.6535 25.4661 12.0003C25.4661 10.3147 24.3663 8.84382 22.3901 7.34252L12.7326 0C12.7326 0 10.1059 6.03235 14.702 9.48061Z" fill="white"/>
    <path d="M3.07597 7.3419C1.80699 8.3064 0.939354 9.25684 0.499745 10.0622C0.142464 10.7163 0 11.3463 0 11.9997C0 13.685 1.09982 15.1556 3.07597 16.6572L12.7325 23.9994C12.7325 23.9994 15.3602 17.9674 10.7644 14.5188L5.89113 10.8614C2.17585 8.07344 4.04234 6.60742 4.04234 6.60742L3.07597 7.3419Z" fill="white"/>
    <path d="M3.9683 6.66456C3.80493 6.83544 3.56567 7.18863 3.56567 7.69408C3.56567 8.41385 4.03197 9.47702 5.88624 10.8685C6.45448 11.2953 6.95647 11.6723 7.39994 12.0049C9.07991 10.7447 6.68184 12.545 10.7644 9.48062C11.686 8.78894 12.3173 7.99238 12.737 7.16184C12.1797 6.06175 11.9935 4.90188 11.9935 3.84132C11.9935 1.8081 12.6839 0.135265 12.7325 0L3.9683 6.66456Z" fill="white"/>
    <path d="M14.7018 14.5184C13.7791 15.2105 13.1482 16.006 12.7285 16.8372C13.2852 17.9376 13.472 19.0978 13.472 20.1574C13.472 22.1593 12.8067 23.8122 12.7314 23.9965L12.7324 23.999L21.5066 17.3286C21.6458 17.1737 21.9002 16.8094 21.9002 16.3046C21.9002 15.5855 21.4329 14.5223 19.5799 13.1302C19.0114 12.7031 18.5091 12.3271 18.0649 11.9941C16.3853 13.2547 18.7843 11.4544 14.7018 14.5184Z" fill="white"/>
</svg>
