<svg width="111" height="21" viewBox="0 0 111 21" fill="none" xmlns="http://www.w3.org/2000/svg">
    <path d="M9.87131 0.0571703C10.2727 -0.137277 10.6508 0.210876 10.9803 0.40625C13.8674 2.41276 16.811 4.33131 19.6972 6.33783C20.474 6.88691 20.4192 8.21193 19.6164 8.71008C16.5874 10.7731 13.5369 12.8037 10.5134 14.875C10.3006 15.0222 10.0024 15.0306 9.7851 14.8898C6.8702 12.9203 3.95081 10.9573 1.03321 8.9925C0.576133 8.69434 0.0283538 8.32304 0.0202718 7.69896C-0.10006 7.04247 0.332775 6.43875 0.856308 6.1193C3.86999 4.11186 6.83069 2.02016 9.87131 0.0571703ZM13.2217 4.05631C13.7031 4.85817 14.2158 5.63967 14.672 6.4582C15.2126 6.49431 15.7541 6.4906 16.2947 6.46283C15.2566 5.67948 14.1826 4.94151 13.2217 4.05631ZM3.95261 6.46375C4.48242 6.48135 5.01404 6.50912 5.54296 6.46097C6.04315 5.698 6.50023 4.90632 7.01478 4.15353C5.99825 4.92947 4.99339 5.723 3.95261 6.46375ZM7.69636 6.47857C8.18397 6.48135 8.67159 6.48042 9.1592 6.47949C9.1565 5.71744 9.15561 4.9554 9.15291 4.19335C8.71289 4.98503 8.20193 5.73041 7.69636 6.47857ZM11.1276 4.26464C11.1159 5.00262 11.1168 5.74152 11.1276 6.47949C11.5955 6.48042 12.0633 6.48042 12.5312 6.47949C12.0651 5.73967 11.5955 5.00262 11.1276 4.26464ZM3.9553 8.49156C4.9871 9.27769 6.01261 10.0721 7.04441 10.8583C6.50292 10.0971 6.02519 9.29065 5.53578 8.49434C5.00865 8.49064 4.48153 8.49434 3.9553 8.49156ZM7.69277 8.49249C8.19385 9.25917 8.70122 10.0221 9.16548 10.8138C9.1565 10.0407 9.1583 9.26657 9.16459 8.49341C8.67338 8.49249 8.18307 8.49341 7.69277 8.49249ZM11.133 8.48693C11.1159 9.23972 11.1177 9.99251 11.1222 10.7453C11.5901 9.98788 12.0705 9.2388 12.5554 8.49341C12.0813 8.49619 11.6071 8.48323 11.133 8.48693ZM14.7861 8.49064C14.2212 9.2712 13.7381 10.1083 13.2388 10.9342C14.2033 10.0277 15.297 9.28787 16.345 8.49064C15.825 8.49341 15.306 8.49434 14.7861 8.49064Z" fill="white"/>
    <path d="M24.4654 6.91325C25.3634 6.91325 26.2614 6.90307 27.1585 6.90492C28.3088 10.2059 29.4717 13.505 30.4685 16.8597C30.763 15.4643 31.2839 14.1347 31.7472 12.793C32.4387 10.8272 33.1445 8.86699 33.8503 6.90677C34.7358 6.91233 35.6221 6.91325 36.5084 6.89844C36.7652 10.4689 36.9502 14.043 37.1783 17.6143C37.26 18.6671 37.3067 19.7209 37.34 20.7764C36.5686 20.7774 35.7972 20.7755 35.0258 20.7764C34.9387 18.606 34.8121 16.4366 34.6999 14.2671C34.6532 13.1606 34.6639 12.0467 34.4978 10.9494C34.25 12.0411 33.8692 13.0939 33.5019 14.1476C32.7287 16.3347 31.9529 18.5208 31.1824 20.7088C30.6095 20.6977 30.0357 20.6857 29.4627 20.7227C28.5728 18.2329 27.7736 15.7088 26.9394 13.1976C26.714 12.5411 26.5514 11.8643 26.3961 11.1874C26.1653 14.3791 26.0297 17.5773 25.8196 20.77C25.0607 20.7718 24.3028 20.7709 23.5449 20.7561C23.8691 16.143 24.1762 11.5291 24.4654 6.91325Z" fill="white"/>
    <path d="M72.3601 6.90625C73.1315 6.90625 73.9038 6.90625 74.6761 6.90625C74.6761 8.52572 74.6815 10.1452 74.677 11.7647C76.1147 10.3109 78.6578 10.2906 80.1125 11.7285C81.1884 12.8128 81.6059 14.4277 81.5395 15.9444C81.5224 17.5249 80.9423 19.2027 79.6591 20.1509C78.1334 21.3602 75.7366 21.2843 74.3896 19.8203C74.3806 20.1389 74.3716 20.4583 74.3618 20.7778C73.6568 20.7787 72.9528 20.7629 72.2488 20.7639C72.37 19.7815 72.3655 18.7898 72.3655 17.8009C72.3718 14.1693 72.3646 10.5378 72.3601 6.90625ZM76.3239 12.761C75.5723 13.0147 74.9733 13.6767 74.7632 14.4601C74.5979 15.2212 74.6868 16.0101 74.6752 16.7833C74.6572 17.9481 75.7043 18.9814 76.8277 18.9435C77.7077 19.024 78.5177 18.3999 78.8751 17.6009C79.4292 16.2286 79.3744 14.4712 78.3965 13.3147C77.8675 12.7684 77.0441 12.5202 76.3239 12.761Z" fill="white"/>
    <path d="M102.471 6.92109C103.244 6.91739 104.016 6.90072 104.79 6.90813C104.779 9.41557 104.737 11.9249 104.823 14.4314C105.809 13.2203 106.782 11.9962 107.834 10.8434C108.767 10.9008 109.703 10.8452 110.638 10.8573C109.379 12.2601 108.113 13.6555 106.832 15.037C108.225 16.9435 109.618 18.85 111 20.7648C110.049 20.7695 109.099 20.762 108.149 20.7611C107.298 19.4565 106.373 18.2055 105.516 16.9064C105.441 16.7777 105.325 16.6888 105.202 16.6148C105.011 16.8462 104.755 17.0861 104.779 17.4185C104.774 18.5342 104.775 19.6491 104.78 20.7648C104.014 20.7658 103.248 20.7658 102.482 20.7648C102.484 16.1499 102.499 11.5351 102.471 6.92109Z" fill="white"/>
    <path d="M49.4035 9.29554C50.1543 9.02424 50.9113 8.77146 51.6791 8.55664C51.6737 9.31776 51.6737 10.0789 51.671 10.84C52.3616 10.8706 53.053 10.8391 53.7445 10.8678C53.8666 10.8511 53.9537 10.9456 54.0453 11.0132C54.0444 11.6187 54.0543 12.2234 54.0498 12.8289C53.256 12.8363 52.4621 12.8373 51.6683 12.8354C51.671 14.1169 51.6719 15.3984 51.6737 16.6799C51.6854 17.2327 51.6396 17.7985 51.7913 18.3364C51.856 18.5429 51.9736 18.7716 52.1918 18.8355C52.7261 19.0124 53.2892 18.8494 53.8037 18.6799C53.8989 19.342 53.916 20.0114 53.9402 20.6791C53.0521 20.9652 52.0769 21.1355 51.169 20.8429C50.6024 20.6587 50.0842 20.2689 49.8175 19.7114C49.5194 19.0883 49.4323 18.3846 49.4134 17.6975C49.4116 16.0771 49.4143 14.4558 49.4125 12.8354C48.9528 12.8363 48.4921 12.8354 48.0332 12.8363C48.0386 12.1761 48.0458 11.5159 48.0422 10.8558C48.4984 10.853 48.9537 10.8558 49.4098 10.8539C49.408 10.3344 49.4018 9.81499 49.4035 9.29554Z" fill="white"/>
    <path d="M0.0396657 10.3837C0.0701976 9.92908 0.632345 9.61148 1.01489 9.85222C1.87248 10.3291 2.64206 10.9495 3.46194 11.4893C5.68358 12.9865 7.85045 14.569 10.1107 16.0042C10.5346 15.7931 10.9342 15.5347 11.3248 15.2653C13.8374 13.5319 16.3473 11.7939 18.8653 10.0698C19.1643 9.85963 19.5226 9.73278 19.8872 9.79019C20.0093 9.96612 20.1351 10.1383 20.2626 10.3096C20.2626 13.3291 20.2455 16.3486 20.2617 19.3672C20.2473 20.0941 19.634 20.7931 18.9066 20.7691C13.0714 20.7718 7.23533 20.7746 1.40013 20.7681C0.89007 20.8191 0.454541 20.4533 0.194121 20.0366C0.0163177 19.7552 0.0495437 19.4079 0.0459517 19.0885C0.0432577 16.1875 0.0378697 13.2856 0.0396657 10.3837ZM11.6598 17.6403C11.3042 17.8514 10.9638 18.1218 10.548 18.1903C9.95805 18.2959 9.34742 18.1199 8.84544 17.7959C6.89319 16.5384 4.94004 15.281 2.98151 14.0338C2.79293 13.9162 2.59357 13.7615 2.3583 13.8264C2.32687 15.3505 2.35201 16.8755 2.33854 18.3996C2.61602 18.4746 2.90069 18.5274 3.18805 18.519C8.08393 18.5125 12.9789 18.532 17.8739 18.4931C18.0059 17.6496 17.9601 16.7921 17.9655 15.9412C17.9619 15.2042 18.0113 14.4588 17.8676 13.731C15.7474 14.9467 13.7422 16.3597 11.6598 17.6403Z" fill="white"/>
    <path d="M39.8009 12.325C41.1703 10.4833 44.0385 10.0537 45.8058 11.5269C47.1474 12.738 47.4563 14.7501 47.1896 16.4881C45.1161 16.4881 43.0426 16.4871 40.9701 16.4881C41.0661 17.439 41.5996 18.4168 42.5056 18.7557C43.7862 19.1511 45.1727 18.9122 46.3895 18.3992C46.535 19.0344 46.7289 19.6603 46.8017 20.3113C45.2535 20.9233 43.5276 21.1761 41.9004 20.7696C40.4744 20.3918 39.3061 19.1918 38.9244 17.727C38.4655 15.9149 38.6829 13.8445 39.8009 12.325ZM41.4685 13.4704C41.2718 13.8112 41.1407 14.1871 40.997 14.5547C42.344 14.564 43.6901 14.563 45.0371 14.5547C44.9536 14.1954 44.8808 13.8288 44.7201 13.4954C44.4543 12.926 43.8517 12.5639 43.2465 12.5473C42.5541 12.5047 41.8303 12.8491 41.4685 13.4704Z" fill="white"/>
    <path d="M57.8664 11.8815C58.5749 10.95 59.8105 10.4204 60.9393 10.763C60.9294 11.5075 60.933 12.251 60.9429 12.9955C60.4436 12.9853 59.9309 12.8992 59.4423 13.0408C58.8488 13.2732 58.4249 13.8408 58.2426 14.4547C58.1088 14.8733 58.1232 15.3196 58.125 15.7538C58.125 17.4261 58.1232 19.0983 58.1241 20.7706C57.3464 20.7715 56.5697 20.7706 55.792 20.7706C55.7686 17.4659 55.9033 14.1594 55.7417 10.8565C56.4394 10.8584 57.1363 10.8556 57.834 10.8584C57.8439 11.1991 57.8556 11.5399 57.8664 11.8815Z" fill="white"/>
    <path d="M65.4729 10.7376C66.7103 10.5181 68.0393 10.7755 69.0684 11.533C70.1173 12.2663 70.7495 13.5145 70.9183 14.7913C71.0584 16.0571 70.9497 17.3942 70.3553 18.5321C69.7383 19.7155 68.5952 20.5711 67.3281 20.86C65.8823 21.2007 64.2659 20.8812 63.1309 19.871C62.0569 18.897 61.5306 17.3923 61.5567 15.9377C61.5288 14.5395 61.9608 13.083 62.9324 12.0774C63.6023 11.3552 64.5156 10.8839 65.4729 10.7376ZM65.7396 12.6765C65.1882 12.8209 64.7078 13.2024 64.4123 13.7006C63.8906 14.558 63.781 15.6238 63.9256 16.609C64.0603 17.6229 64.6691 18.6275 65.6426 18.9636C66.4678 19.2284 67.4152 18.8571 67.9118 18.1405C68.887 16.7793 68.8655 14.745 67.8894 13.3932C67.3748 12.77 66.5118 12.4691 65.7396 12.6765Z" fill="white"/>
    <path d="M83.2556 11.6263C84.5631 10.8615 86.1157 10.4652 87.6109 10.7513C88.4936 10.8902 89.3368 11.3911 89.8083 12.1874C90.348 13.1189 90.4216 14.2375 90.3965 15.2977C90.4144 17.1227 90.3031 18.9607 90.5833 20.7709C89.8622 20.7672 89.1411 20.782 88.42 20.7774C88.4011 20.5135 88.3841 20.2505 88.3679 19.9866C87.5732 20.6978 86.5081 21.1042 85.4521 20.9774C84.537 20.9126 83.6292 20.4329 83.1487 19.6107C82.3298 18.294 82.6566 16.3643 83.8779 15.4291C85.0642 14.4199 86.6752 14.3588 88.1344 14.1875C88.0275 13.6171 87.8102 12.9467 87.2274 12.7319C86.0753 12.3791 84.8073 12.7569 83.8716 13.493C83.6588 12.8736 83.4585 12.2495 83.2556 11.6263ZM85.4027 16.8282C84.7454 17.4171 84.9169 18.7477 85.787 19.019C86.5791 19.1931 87.4977 18.8496 87.9135 18.1116C88.2467 17.506 88.1416 16.7801 88.1165 16.1162C87.1879 16.131 86.1265 16.1329 85.4027 16.8282Z" fill="white"/>
    <path d="M94.404 11.7756C95.5947 10.5367 97.6439 10.2802 99.0565 11.2617C99.8934 11.821 100.362 12.8118 100.525 13.8025C100.63 14.3544 100.594 14.9183 100.604 15.4766C100.609 17.2387 100.588 19.0007 100.624 20.7628C99.8512 20.7693 99.0789 20.7711 98.3058 20.7693C98.313 19.1924 98.3255 17.6165 98.3147 16.0396C98.3067 15.1498 98.3992 14.1757 97.8945 13.396C97.5317 12.8053 96.7666 12.6247 96.1389 12.7886C95.2714 13.0247 94.6024 13.8988 94.6042 14.8275C94.597 16.8053 94.6015 18.7841 94.6078 20.7628C93.8373 20.7711 93.0677 20.7711 92.2973 20.7628C92.3 18.8776 92.308 16.9924 92.3053 15.1072C92.2955 13.7451 92.3449 12.3793 92.2012 11.0219C92.2452 10.9886 92.3323 10.9219 92.3763 10.8886C93.0157 10.8247 93.6604 10.8682 94.3025 10.8571C94.3357 11.1636 94.3707 11.4691 94.404 11.7756Z" fill="white"/>
</svg>
